<svg id="flag--slovenia" xmlns="http://www.w3.org/2000/svg" xlink="http://www.w3.org/1999/xlink" viewBox="0 0 20 20"><defs><path id="a" d="M0 0h5v5.55H0z"/></defs><g fill="none" fill-rule="evenodd"><rect width="19" height="19" x=".5" y=".5" stroke="#F3F3F3" rx="3"/><path fill="#FFF" d="M4 1h12a3 3 0 013 3v3H1V4a3 3 0 013-3z"/><path fill="#016CA7" d="M1 7h18v6H1z"/><path fill="#D22C29" d="M1 13h18v3a3 3 0 01-3 3H4a3 3 0 01-3-3v-3z"/><g><path fill="#016CA7" d="M9.797 8.313L10 5.523a6.227 6.227 0 00-5 0l.203 2.79C5.294 9.567 6.209 10.637 7.5 11c1.291-.363 2.206-1.433 2.297-2.687"/><path fill="#FEFEFE" d="M5.625 8.691c.217.912.927 1.652 1.875 1.956.948-.304 1.658-1.044 1.875-1.956l-.937-1.164-.375.466L7.5 6.945l-.562 1.048-.375-.466-.938 1.164"/><path fill="#035EA4" d="M5.709 8.982a.65.65 0 00.854.214.665.665 0 01.625 0 .665.665 0 00.625 0 .665.665 0 01.625 0 .65.65 0 00.853-.214v.168a.65.65 0 01-.853.214.665.665 0 00-.625 0 .665.665 0 01-.625 0 .665.665 0 00-.625 0 .65.65 0 01-.854-.214v-.168z"/><path fill="#035EA4" d="M5.709 9.318a.65.65 0 00.854.214.665.665 0 01.625 0 .665.665 0 00.625 0 .665.665 0 01.625 0 .65.65 0 00.853-.213v.168a.65.65 0 01-.853.213.665.665 0 00-.625 0 .665.665 0 01-.625 0 .665.665 0 00-.625 0 .65.65 0 01-.854-.213v-.169z"/><path fill="#FDDB00" d="M7.5 6.144l.047.143.156-.033-.11.109.11.109-.156-.034-.047.143-.047-.143-.156.034.11-.11-.11-.108.156.033zM6.797 5.271l.047.143L7 5.38l-.11.11.11.109-.156-.034-.047.143-.047-.143-.156.034.11-.11-.11-.109.156.034zM8.203 5.271l.047.143.156-.034-.11.11.11.109-.156-.034-.047.143-.047-.143L8 5.6l.11-.11L8 5.38l.156.034z"/><g transform="translate(5 5.45)"><mask id="b" fill="#fff"><use href="#a"/></mask><path fill="#D12C29" d="M.175 0l.208 2.852c.085 1.165.924 2.165 2.117 2.522 1.193-.357 2.032-1.357 2.117-2.522L4.825 0c.058.026.116.05.175.074l-.203 2.79C4.706 4.117 3.791 5.187 2.5 5.55 1.209 5.187.294 4.117.203 2.864L0 .074C.059.05.117.026.175 0" /></g></g></g></svg>