<svg id="flag--australia" xmlns="http://www.w3.org/2000/svg" viewBox="0 0 20 20"><g fill="none" fill-rule="evenodd"><rect width="18" height="18" x="1" y="1" fill="#00076F" rx="3"/><path fill="#FFF" d="M10.486 1.014h-.16L6.063 5.349 1.8 1.014h-.263c-.284 0-.514.33-.514.739v.02L5.3 6.123l-4.259 4.33c.06.315.257.547.495.547h.493l4.033-4.101 4.033 4.1h.39c.26 0 .472-.277.507-.637L6.825 6.124 11 1.878v-.125c0-.408-.23-.74-.514-.74"/><path fill="#D12C29" d="M10.718 1.097L6.063 5.832 1.368 1.058a.6.6 0 00-.269.31l4.676 4.756-4.593 4.67c.093.127.217.206.354.206h.02l4.507-4.584 4.497 4.573a.503.503 0 00.32-.26L6.35 6.125l4.602-4.68a.686.686 0 00-.234-.347"/><path fill="#FFF" d="M1 7.418h10V4.64H1z"/><path fill="#FFF" d="M4.622 11H7.4V1H4.622z"/><path fill="#D12C29" d="M1 5.167v1.666h10V5.167z"/><path fill="#D12C29" d="M5.167 11h1.666V1H5.167z"/><rect width="19" height="19" x=".5" y=".5" stroke="#F3F3F3" rx="3"/><g fill="#FFF"><path d="M4.604 14.262l-1.208-.47.715 1.104L3 15.572l1.287.115L4.11 17l.89-.96.89.96-.177-1.313L7 15.572l-1.111-.676.715-1.104-1.208.47L5 13zM13.802 15.63l-.604-.234.358.552-.556.338.644.058-.09.656.446-.48.445.48-.089-.656.644-.058-.556-.338.358-.552-.604.235L14 15zM15 6l-.198.63-.604-.234.358.552-.556.338.644.058-.09.656.446-.48.445.48-.089-.656.644-.058-.556-.338.358-.552-.604.235zM13 9l.198.63.604-.234-.358.552.556.338-.644.058.09.656-.446-.48-.445.48.089-.656-.644-.058.556-.338-.358-.552.604.235zM16.803 9.63l-.605-.234.359.552-.557.338.643.058-.089.656.445-.48.446.48-.089-.656.644-.058-.555-.338.356-.552-.603.235L17 9zM15.5 12l.137.354.363.028-.278.247.087.371-.309-.201-.31.201.088-.371-.278-.247.363-.028z"/></g></g></svg>