<svg id="flag--slovakia" xmlns="http://www.w3.org/2000/svg" xlink="http://www.w3.org/1999/xlink" viewBox="0 0 20 20"><defs><path id="a" d="M0 0h8v10H0z"/><path id="c" d="M3.67 0H.137S0 1.298 0 4.151c0 2.854 2.16 4.297 3.67 5.023 1.51-.726 3.67-2.169 3.67-5.023C7.34 1.298 7.202 0 7.202 0H3.67z"/><path id="e" d="M3.67 0H.137S0 1.298 0 4.151c0 2.854 2.16 4.297 3.67 5.023 1.51-.726 3.67-2.169 3.67-5.023C7.34 1.298 7.202 0 7.202 0H3.67z"/></defs><g fill="none" fill-rule="evenodd"><rect width="19" height="19" x=".5" y=".5" stroke="#F3F3F3" rx="3"/><path fill="#FFF" d="M4 1h12a3 3 0 013 3v3H1V4a3 3 0 013-3z"/><path fill="#016CA7" d="M1 7h18v6H1z"/><path fill="#D22C29" d="M1 13h18v3a3 3 0 01-3 3H4a3 3 0 01-3-3v-3z"/><g><g transform="translate(4 5)"><mask id="b" fill="#fff"><use href="#a"/></mask><path fill="#FFF" d="M4 10c-1.646-.792-4-2.365-4-5.475C0 1.415.149 0 .149 0H7.85S8 1.415 8 4.525C8 7.635 5.646 9.208 4 10" /></g><path fill="#D22C29" d="M8 14.587c-1.51-.727-3.67-2.17-3.67-5.023 0-2.853.137-4.151.137-4.151h7.066s.137 1.298.137 4.151c0 2.854-2.16 4.296-3.67 5.023"/><g><g transform="translate(4.33 5.413)"><mask id="d" fill="#fff"><use href="#c"/></mask><path fill="#FFF" d="M3.993 3.403c.408.007 1.206.023 1.916-.215 0 0-.018.254-.018.55 0 .296.018.55.018.55-.651-.218-1.456-.222-1.916-.217v1.577h-.646V4.07c-.46-.005-1.265 0-1.917.217 0 0 .019-.254.019-.55 0-.296-.019-.55-.019-.55.71.238 1.508.222 1.917.215v-.99a4.535 4.535 0 00-1.517.218s.019-.254.019-.55c0-.296-.019-.55-.019-.55.606.203 1.143.22 1.515.218-.019-.627-.202-1.417-.202-1.417s.376.03.527.03c.15 0 .526-.03.526-.03s-.183.79-.202 1.417c.373.003.91-.015 1.515-.218 0 0-.018.254-.018.55 0 .296.018.55.018.55a4.535 4.535 0 00-1.516-.218v.99z" /></g><g transform="translate(4.33 5.413)"><mask id="f" fill="#fff"><use href="#e"/></mask><path fill="#016CA7" d="M3.603 10.11L.475 7.324s.4-1.293 1.18-1.293c.62 0 .847.5.847.5S2.91 5.477 3.67 5.477c.76 0 1.167 1.054 1.167 1.054s.227-.5.847-.5c.78 0 1.18 1.293 1.18 1.293l-3.26 2.786z" /></g></g></g></g></svg>