<svg id="flag--greece" xmlns="http://www.w3.org/2000/svg" viewBox="0 0 20 20"><g fill="none" fill-rule="evenodd"><path fill="#016CA7" d="M1.968 19.025c-.512 0-.927-.596-.927-1.332V2.357c0-.736.415-1.332.927-1.332h16.145c.513 0 .928.596.928 1.332v15.336c0 .736-.415 1.332-.928 1.332H1.968z"/><path fill="#FFF" d="M19 15v2H1v-2h18zM4.999 7H1V5h4V1h2v4h4v2H6.999L7 11h12v2H1v-2h4l-.001-4zM19 7v2h-8V7h8zm0-4v2h-8V3h8z"/><rect width="19" height="19" x=".5" y=".5" stroke="#F3F3F3" rx="3" transform="rotate(90 10 10)"/><rect width="19" height="19" x=".5" y=".5" stroke="#F3F3F3" rx="3" transform="rotate(90 10 10)"/></g></svg>