<svg id="logo--small--inversed" xmlns="http://www.w3.org/2000/svg" xlink="http://www.w3.org/1999/xlink" viewBox="0 0 72 72"><defs><path id="a" d="M0 0h71.523v71.538H0z"/></defs><g fill="none" fill-rule="evenodd"><mask id="b" fill="#fff"><use href="#a"/></mask><path fill="#FFF" d="M70.017 38.48l-6.885-.001c-.786 0-1.427.605-1.499 1.388-.989 10.884-8.181 16.299-10.645 18.155-5.93 4.469-17.305 6.257-22.696-3.306 4.294-.488 9.674-2.26 15.23-5.84 7.973-5.134 11.153-14.543 6.184-22.495-6.655-10.646-19.229-7.474-24.912-3.183-4.262 3.219-6.883 7.394-3.4 10.533 4.333 3.906 9.86-2.603 13.54-3.907 2.781-.984 4.723-.38 6.21 1.675 1.712 2.363 1.355 5.47-1.709 8.096-4.676 4.009-18.916 10.305-27.147-.32-5.13-6.62-2.084-18.336 7.28-24.913 3.839-2.695 8.063-4.21 12.085-4.5a1.502 1.502 0 001.39-1.5V1.505A1.5 1.5 0 0031.468.002c-5.95.325-12.115 2.404-17.608 6.317C.23 16.032-4.082 33.365 4.233 45.033c3.248 4.56 7.947 7.571 13.277 8.98 1.407 5.328 4.42 10.027 8.979 13.276 9.205 6.559 21.975 5.31 31.67-2.273 7.568-5.92 12.701-14.888 13.36-24.962.057-.857-.644-1.575-1.502-1.575" /></g></svg>