<svg id="flag--uk" xmlns="http://www.w3.org/2000/svg" viewBox="0 0 20 20"><g fill="none" fill-rule="evenodd"><path fill="#250D85" d="M1.966 19c-.511 0-.925-.595-.925-1.33V2.355c0-.734.414-1.33.925-1.33h16.109c.51 0 .925.596.925 1.33V17.67c0 .735-.414 1.33-.925 1.33H1.965z"/><path fill="#FFF" d="M18.075 1.025h-.289l-7.673 7.803-7.672-7.803h-.475c-.511 0-.925.596-.925 1.33v.036l7.7 7.831-7.665 7.795c.107.565.463.983.89.983h.888l7.26-7.382L17.371 19h.703c.468 0 .85-.5.912-1.148l-7.502-7.63L19 2.581v-.226c0-.734-.414-1.33-.925-1.33"/><path fill="#D12C29" d="M18.493 1.175l-8.38 8.522-8.45-8.593c-.203.101-.373.3-.484.56l8.417 8.559-8.268 8.407c.166.228.39.37.637.37H2l8.113-8.251 8.095 8.232c.231-.049.434-.22.576-.467l-8.153-8.291L18.913 1.8a1.234 1.234 0 00-.42-.625"/><path fill="#FFF" d="M1 12.552h18v-5H1z"/><path fill="#FFF" d="M7.52 19h5V1h-5z"/><path fill="#D12C29" d="M1 8.5v3h18v-3z"/><path fill="#D12C29" d="M8.5 19h3V1h-3z"/><rect width="19" height="19" x=".5" y=".5" stroke="#F3F3F3" rx="3" transform="rotate(90 10 10)"/></g></svg>