<svg id="flag--montenegro" xmlns="http://www.w3.org/2000/svg" xlink="http://www.w3.org/1999/xlink" viewBox="0 0 20 20"><defs><path id="a" d="M0 0h10v12H0z"/></defs><g fill="none" fill-rule="evenodd"><rect width="18" height="18" x="1" y="1" fill="#D22C29" stroke="#D4AF3A" rx="3"/><g transform="translate(5 4)"><mask id="b" fill="#fff"><use href="#a"/></mask><path fill="#B96B29" d="M5.843 3.047c-.12.07-.19.054-.185.106.005.051.113.09.113.09s-.11.122-.196.18c-.087.056-.188.092-.188.092s-.034.006-.015.062c.02.057.055.096.082.11.027.016.042.021.042.021s-.15.168-.217.222a.562.562 0 01-.158.095c-.054.023-.026.116-.014.157.012.041.06.098.086.105.027.008.037.03.002.085-.025.042-.112.155-.152.217l-.002.002c-.04-.061-.129-.176-.155-.218-.034-.056-.024-.077.003-.085.027-.008.074-.064.086-.105.012-.041.04-.134-.015-.157a.567.567 0 01-.158-.096c-.066-.054-.217-.221-.217-.221s.015-.006.042-.02a.206.206 0 00.082-.11c.02-.057-.015-.063-.015-.063s-.1-.036-.187-.093c-.086-.056-.197-.18-.197-.18s.108-.039.114-.09c.004-.051-.064-.035-.185-.105a.397.397 0 01-.16-.157s.14-.05.21-.195c.024-.052.03-.1.027-.14l.005.002c.225.077.487.107.721.107.234 0 .496-.031.72-.107l.005-.001a.283.283 0 00.028.139c.069.146.21.195.21.195s-.04.087-.162.156M4.21 1.823c-.035.03-.098.012-.146-.008-.048-.02-.1-.034-.1-.034s.012-.011.025-.036c.014-.025.014-.066.004-.134-.01-.07-.021-.142-.01-.182.01-.04.008-.082.077-.163.068-.081.184-.138.184-.138l-.042.081a.736.736 0 00-.084.351c.01.147.093.17.115.19.02.02.011.042-.023.073m.442-.709c.122-.117.208-.136.208-.136-.006.13-.028.232-.045.352a.51.51 0 00.017.278c.026.07.097.112.097.112s-.023.004-.058.023c-.036.02-.074.049-.135.052-.062.003-.09-.014-.131-.044-.04-.03-.085-.048-.085-.048s.02-.05.015-.107c-.005-.057-.034-.128-.034-.187 0-.058.029-.18.15-.295m.599.494a.495.495 0 00.016-.279c-.016-.12-.038-.222-.045-.351 0 0 .086.02.209.135.122.117.15.237.15.295 0 .058-.03.13-.034.186-.005.057.015.107.015.107s-.045.02-.086.049c-.04.03-.067.047-.13.043-.062-.003-.1-.032-.135-.051-.036-.02-.059-.023-.059-.023s.072-.041.099-.111m.63-.399l-.043-.08s.115.056.185.137c.068.08.067.123.077.163.01.04 0 .113-.01.182-.01.068-.01.11.003.134.013.025.026.036.026.036s-.052.014-.1.034c-.048.02-.111.038-.146.008-.035-.03-.044-.052-.022-.072.022-.02.104-.044.114-.19a.745.745 0 00-.084-.352M3.406 8.112c-.056.11-.212.226-.325.277-.114.051-.237.068-.289.076-.052.008-.008.073-.008.073l.055.08s-.008.024-.09.05c-.083.023-.184.042-.269.067-.085.023.023.096.073.123.048.027.035.057.01.084a.633.633 0 01-.17.1c-.049.016-.041.043.008.065.049.021.183.048.183.048s-.002.006-.086.07a.666.666 0 01-.322.113 4.005 4.005 0 01-.438.003c-.192-.009-.214-.014-.214-.014l-.02-.165a.849.849 0 00-.114-.302c-.044-.064-.136-.192-.136-.192s.002-.028.009-.06c.006-.031.002-.066-.02-.127-.022-.06-.134-.149-.134-.149s-.005-.065-.005-.125-.04-.298-.076-.41c-.036-.112-.21-.404-.29-.544a1.569 1.569 0 01-.153-.507.646.646 0 01-.007-.256.223.223 0 01.019-.05c.036.049.08.09.13.121.234.15.7.163.7.163s-.052.015-.218.016a1.853 1.853 0 01-.39-.055s-.006.013-.006.054.011.218.255.347c.245.129.514.04.514.04s-.022.02-.091.045c-.07.027-.258.068-.258.068 0 .156.131.242.233.278.174.06.371.018.472-.004.102-.021.045.014-.051.057-.096.043-.233.051-.233.051.021.115.237.212.318.23a.765.765 0 00.42-.008c.062-.024.05.005.032.025-.037.038-.1.048-.1.11 0 .017-.001.08.306.1.306.02.408-.156.461-.208.053-.053.05-.025.037-.004-.013.021-.067.084-.114.154-.047.07-.024.135.18.128.15-.005.249-.17.29-.257l.004.004.008.011c-.02.05-.054.135-.09.206M.546 6.37l-.093.055-.048-.103c-.01-.024-.004-.034.009-.034s.052-.012.082-.015l.012-.003c.01.03.024.064.041.097l-.003.003m8.386-.558c.105-.031.468-.142.726-.358.256-.217.306-.39.327-.484.02-.094.03-.168-.037-.114-.066.054-.265.217-.401.295-.136.079-.26.115-.335.137-.074.021-.133.035-.062.006.071-.029.302-.113.48-.299.18-.186.32-.464.323-.636.003-.17-.009-.158-.062-.115-.053.042-.241.284-.346.375a3.473 3.473 0 01-.361.266c-.086.052-.205.11-.038-.009.167-.119.484-.4.613-.763.129-.364.105-.577.103-.614-.003-.036-.032-.11-.062-.042-.029.067-.24.507-.41.695-.17.19-.13.153-.168.184-.038.03-.103.085-.02-.022.082-.107.252-.354.34-.598.087-.244.111-.489.114-.63a1.16 1.16 0 00-.082-.393c-.027-.058-.053-.1-.062-.033-.009.067-.144.5-.217.71-.074.211-.22.45-.25.495-.029.046-.105.14-.024-.018.083-.159.24-.626.261-1.069.02-.443-.038-.687-.097-.81a.536.536 0 00-.11-.165s.01.302-.076.736a2.519 2.519 0 01-.213.664s-.054.062-.017-.042c.024-.07.075-.225.1-.486.023-.275.027-.587-.05-.852-.084-.29-.23-.438-.23-.438-.04.415-.033.95-.178 1.383-.028-.025-.064-.072-.078.023-.027.143-.08.41-.26.751-.18.34-.254.386-.254.386s-.033-.083-.056-.129c-.024-.045-.037-.07-.066-.007-.03.063-.13.303-.35.567-.22.264-.344.393-.337.59.007.198.107.3.24.389.134.09.157.139.137.247-.02.108-.14.146-.244.149-.103.003-.233-.007-.28.02-.046.028-.05.098-.096.147-.047.048-.067.076-.11.083a.559.559 0 01-.037.005c-.01-.523.184-.755.184-.755l-.544-.664a1.92 1.92 0 01-.084.04.178.178 0 00-.016-.025.444.444 0 01-.097-.3c.027.002.082.022.13.012.05-.01.013-.062-.001-.11a1.053 1.053 0 01-.02-.283l.014-.09s.079.09.129.09c.049 0 .044-.052.051-.108a.447.447 0 01.114-.252s.086.062.184.062a.476.476 0 00.338-.134c.106-.105.103-.13.103-.13s.197.072.347.08c.15.008.311-.019.387-.183.076-.164-.022-.316-.04-.342-.017-.025-.066-.046-.066 0s.002.17-.088.232c-.092.062-.163.058-.249.03a.732.732 0 00-.487-.013.66.66 0 01.228-.162c.114-.035.18.013.217.059.037.046.069.12.098.013a.417.417 0 00-.036-.311.279.279 0 00-.266-.119c-.11.013-.15.031-.15.031s-.057-.167-.2-.197c-.175-.038-.367.03-.518.118 0 0-.118.029-.238-.008a.778.778 0 01-.204-.106l.041-.136s.035-.011.071-.025c.036-.015.03-.027.033-.058.004-.031-.068-.086-.068-.086s-.01-.094.108-.159c.12-.064.106-.054.106-.054s.07.014.099-.008c.028-.021.028-.035.028-.035s.053-.018.072-.05a.147.147 0 00.008-.12c-.014-.038-.032-.045-.012-.064a.172.172 0 00.039-.093l.001-.04s.04-.014.04-.078c-.002-.064-.036-.09-.055-.095-.019-.006-.031-.006-.031-.006s-.004-.038-.035-.09c-.032-.05-.053-.072-.053-.072s.023-.018.01-.06a.11.11 0 00-.068-.077.105.105 0 00-.058 0S6.023.999 5.98.976a7.144 7.144 0 01-.054-.03s-.002-.04-.018-.062-.052-.03-.072-.03c-.019 0-.04.01-.04.01S5.637.822 5.571.811C5.507.8 5.503.794 5.503.794s-.14-.07-.195-.08c-.055-.012-.07-.017-.07-.017s.057-.072.06-.154a.23.23 0 00-.106-.195c-.032-.02-.048-.023-.06-.03V.261l.105.011.008-.177-.103.014.016-.107L4.943 0l.016.106L4.855.1l.009.175.109-.014-.011.065s-.04.008-.074.034a.209.209 0 00-.1.185A.357.357 0 004.84.7s-.014.004-.068.014c-.055.011-.196.081-.196.081s-.004.006-.068.017c-.065.01-.224.053-.224.053s-.021-.011-.04-.011c-.02 0-.057.01-.072.03-.016.023-.017.063-.017.063l-.055.03a3.428 3.428 0 00-.137.082s-.03-.008-.058 0a.111.111 0 00-.069.077c-.012.042.011.06.011.06s-.021.023-.052.074c-.032.051-.036.09-.036.09s-.012 0-.03.005c-.02.005-.054.03-.055.095-.002.064.039.079.039.079l.001.039c.002.03.02.075.04.093.018.018 0 .026-.013.064a.146.146 0 00.01.12c.018.033.07.05.07.05s0 .014.03.035c.027.022.098.008.098.008s-.013-.01.106.054.108.159.108.159-.073.055-.068.085c.005.031-.003.044.033.058.036.015.07.026.07.026l.041.136a.769.769 0 01-.203.106c-.12.036-.238.008-.238.008-.152-.088-.344-.156-.518-.118-.142.03-.2.197-.2.197s-.04-.018-.15-.03a.28.28 0 00-.266.117.413.413 0 00-.036.312c.03.107.061.033.098-.013.036-.046.104-.095.217-.059.11.035.222.155.228.162a.74.74 0 00-.487.013c-.086.029-.158.031-.249-.03-.091-.062-.088-.185-.088-.232 0-.046-.05-.026-.067 0-.017.025-.115.178-.04.342.077.164.237.19.388.182.15-.008.347-.08.347-.08s-.003.026.103.131a.474.474 0 00.338.133c.099 0 .185-.061.185-.061a.449.449 0 01.113.252c.008.056.003.108.052.108.05 0 .128-.09.128-.09l.015.09a1.02 1.02 0 01-.02.282c-.014.05-.052.1-.002.11.05.01.104-.01.13-.012a.445.445 0 01-.096.3.171.171 0 00-.015.024 2.474 2.474 0 01-.08-.038l-.545.664s.195.234.185.758V5.99l-.04-.005c-.043-.007-.063-.035-.11-.083-.046-.049-.05-.119-.097-.146-.046-.028-.177-.018-.28-.021-.103-.003-.223-.041-.243-.15-.02-.107.003-.156.137-.246.133-.09.233-.191.24-.389.007-.197-.117-.326-.336-.59-.22-.264-.32-.504-.35-.567-.03-.063-.044-.038-.067.007-.024.046-.056.129-.056.129s-.074-.045-.254-.386a2.51 2.51 0 01-.26-.75c-.014-.097-.05-.049-.077-.024-.147-.433-.139-.968-.179-1.383 0 0-.146.148-.23.438-.077.265-.074.577-.05.852.025.26.075.416.1.486.037.103-.017.042-.017.042s-.126-.23-.213-.664c-.087-.434-.077-.736-.077-.736s-.052.043-.11.165c-.059.123-.118.367-.097.81.02.443.18.91.262 1.069.082.159.006.064-.024.018a2.839 2.839 0 01-.25-.494A9.369 9.369 0 01.57 2.66c-.009-.068-.035-.025-.062.033a1.16 1.16 0 00-.082.394c.003.14.027.385.114.629.088.244.259.491.34.598.083.107.018.052-.02.022s.003.006-.167-.184c-.17-.188-.381-.629-.411-.695-.03-.068-.059.006-.062.042-.003.037-.027.25.103.614.129.363.446.644.613.763.167.12.047.061-.038.01a3.205 3.205 0 01-.36-.266C.431 4.53.243 4.288.19 4.245c-.053-.042-.065-.054-.062.116.003.172.144.45.322.636.179.186.41.27.48.3.072.028.012.014-.061-.007-.073-.023-.2-.059-.335-.138-.136-.078-.335-.24-.401-.294-.067-.054-.057.02-.037.114.02.093.071.267.327.484.257.216.621.327.726.357.104.031.031.031.031.031S1.14 5.838.928 5.79c-.212-.05-.534-.224-.621-.281-.087-.057-.1-.079-.089.041a.79.79 0 00.33.496c.197.12.55.181.642.186.092.005.068.018.027.021a1.793 1.793 0 01-.31-.016 2.403 2.403 0 01-.408-.11 2.256 2.256 0 01-.018-.078c-.008-.046-.03-.04-.046-.029-.014.01-.023.018-.07.044-.05.025-.051-.005-.053-.021-.001-.015-.011-.08-.013-.115-.001-.034-.02-.036-.042-.025l-.171.076c-.04.018-.003.052.017.093l.054.1-.135.037c-.032.009-.022.032-.014.055.008.024.059.143.072.177.013.034.042.013.042.013l.102-.063.036.143c-.002.002-.048.01-.1.049-.051.037-.038.086.023.104.062.02.135.052.215.203.08.15.1.423.15.851.048.429.311.647.348.674.036.027.015.048.015.048s-.036.054-.02.138a.204.204 0 00.12.145c.037.013.027.05.027.05s-.019.092 0 .26c.018.166.15.355.186.387.036.033.039.049.033.062-.005.014-.028.003-.072.038a.452.452 0 00-.124.142c-.03.06-.02.095-.01.176.01.08.124.154.124.154s-.02.005-.026.064c-.005.06.036.127.088.17.052.043.15.065.15.065l.012.086c.006.035.07.07.112.095.04.025.12.011.154-.006.034-.016.057.003.077.038.021.035.013.17.013.223 0 .054-.03.11-.013.138.019.027.068.008.116-.022.05-.03.062-.008.106.022.045.029.114.056.132.054.019-.003.011-.052.011-.092s.007-.131.025-.145c.009-.006.085-.012.143-.038.027-.012.062-.024.065-.05.002-.028-.036-.028-.122-.074-.085-.046-.1-.073-.154-.11-.055-.037-.029-.05-.029-.067 0-.016.026-.035.036-.057.01-.021.006-.07.006-.07s.044-.046.064-.07c.021-.023.047-.061.075-.086.028-.024.073-.14.1-.178.03-.037.094-.078.133-.13A1.09 1.09 0 012.65 9.6c.06-.041.22-.119.22-.119s-.002.1.039.149c.04.048.095-.038.278-.172.183-.135.323-.184.323-.184s.039.062.087.126c.05.065.094-.002.318-.326.177-.255.41-.488.5-.575l.05.023a.658.658 0 00-.013.042c-.02.067-.054.11-.098.203-.043.094-.11.115-.188.241a.625.625 0 00-.095.34c-.007.129.062.156.062.156s-.113.115-.147.2c-.033.086-.05.26-.05.26s-.019.008-.06.096c-.041.088-.116.101-.224.214-.108.113-.228.16-.285.195-.056.035-.041.07-.026.115.015.046.093.092.182.127.09.034.121.02.183.019.062-.003.013.048-.013.074-.026.027-.06.12-.054.225.005.104.08.08.172.064.092-.016.2-.064.2-.064l-.01.029a.352.352 0 00-.015.134c0 .083.014.123.036.145.023.021.07-.024.103-.035.034-.011.09-.046.173-.065.082-.019.113-.056.113-.056s-.021.027-.026.086a.709.709 0 00.01.198c.013.051.05.113.106.166.056.054.069.03.11-.037.041-.067.126-.153.126-.153s.005.022.062.211c.056.191.242.348.242.348s.185-.158.241-.348l.062-.21s.085.085.126.152c.041.066.054.091.11.037a.366.366 0 00.106-.166.736.736 0 00.01-.198c-.005-.059-.025-.086-.025-.086s.03.037.113.056c.082.02.138.054.172.065.033.01.08.056.103.035.023-.022.036-.062.036-.145a.353.353 0 00-.015-.134l-.011-.03s.108.05.2.065c.093.016.167.04.173-.064.005-.105-.028-.198-.054-.225-.026-.027-.075-.078-.013-.074.061.002.092.015.182-.02.09-.034.167-.08.182-.126.015-.045.032-.08-.026-.115-.056-.035-.177-.082-.285-.195-.108-.113-.183-.125-.223-.214-.042-.088-.059-.096-.059-.096s-.019-.174-.052-.26a.825.825 0 00-.146-.2s.069-.027.061-.156a.624.624 0 00-.095-.34c-.077-.126-.144-.147-.188-.24-.043-.095-.077-.137-.097-.204l-.013-.04.066-.03c.09.086.324.32.502.575.225.323.268.39.317.327.05-.065.088-.127.088-.127s.14.049.323.184.237.22.278.172c.022-.025.027-.068.03-.1a4.428 4.428 0 00.437.162c.159.07.176.105.302.21.126.103.306.093.477.039.17-.054.624-.21.805-.291.182-.082.312-.154.331-.192a.626.626 0 00.04-.182c0-.038-.04-.094-.053-.104-.013-.01-.007-.04-.004-.063a.204.204 0 00-.036-.128c-.03-.032-.025-.044-.021-.136.008-.194-.127-.44-.316-.518 0 0-.005-.023-.02-.036a.212.212 0 00-.04-.025s.003-.112.002-.136c-.002-.024.009-.021.022-.014.013.006.033.033.064.041.03.008.05-.015.056-.05.006-.036.032-.109.044-.144.011-.036-.002-.042-.017-.046-.014-.004-.06-.01-.082-.015-.021-.005-.021-.006-.016-.018.005-.012.013-.03.04-.076.029-.045.003-.047-.024-.056a1.818 1.818 0 00-.181-.053c-.034-.005-.041.024-.041.04l.002.101c0 .024-.02.018-.034.01a.41.41 0 01-.065-.044c-.022-.018-.04-.001-.048.026-.01.027-.037.135-.046.168-.01.032-.006.057.006.063.013.005.073 0 .108 0 .036 0 .016.021.016.021s-.038.065-.051.09c-.014.026-.035.03-.065.03h-.078s-.196.007-.341.119a.587.587 0 00-.208.258c-.022.054-.048.042-.07.062-.022.019-.085.089-.085.13 0 .043.014.066-.048.109-.064.042-.115.227-.03.323s.118.193.144.24c.026.045 0 .065-.022.065s-.068-.039-.108-.069c-.038-.03-.234-.189-.318-.254-.084-.065-.022-.058-.022-.058s.021.003.07-.02c.049-.021.056-.048.007-.064a.616.616 0 01-.17-.1c-.026-.027-.039-.056.011-.083.049-.027.157-.1.073-.124-.086-.025-.187-.043-.269-.067-.082-.025-.09-.049-.09-.049l.053-.08s.044-.065-.007-.074c-.052-.008-.176-.024-.29-.075a.719.719 0 01-.421-.487l.004-.005c.042.087.14.25.29.255.203.007.226-.058.18-.128-.047-.07-.1-.132-.114-.153-.014-.02-.017-.049.036.003.054.052.155.23.462.208.307-.02.305-.083.305-.1 0-.061-.063-.07-.1-.11-.018-.02-.03-.05.032-.024a.766.766 0 00.42.007c.082-.018.298-.115.318-.23 0 0-.137-.008-.232-.05-.096-.043-.153-.079-.052-.057.101.02.299.064.473.003.101-.036.233-.122.233-.278 0 0-.189-.041-.258-.067-.07-.027-.092-.047-.092-.047s.27.09.514-.04c.245-.128.255-.305.255-.346 0-.041-.006-.054-.006-.054s-.223.057-.39.056c-.165-.002-.217-.017-.217-.017s.466-.014.7-.163c.234-.149.248-.442.248-.442s-.265.099-.432.118a1.8 1.8 0 01-.31.017c-.04-.003-.064-.017.027-.021.092-.005.446-.066.642-.186a.79.79 0 00.33-.496c.011-.12-.002-.098-.088-.041-.087.057-.409.231-.621.28-.212.05-.254.056-.254.056s-.068-.005.036-.036" /></g><path fill="#D22C29" d="M12.788 6.97c-.026.112-.1.203-.198.23a.377.377 0 01-.21-.008.813.813 0 00-.664.056c-.047.03-.032.052.018.083.05.031.087 0 .087 0s.119-.1.271-.09c.158.01.344.132.535.092a.27.27 0 00.16-.114c.09-.129.001-.249.001-.249m-4.422.279a.814.814 0 00-.664-.057.37.37 0 01-.21.008c-.097-.027-.173-.118-.198-.229 0 0-.09.119.002.25a.267.267 0 00.16.113c.19.04.376-.081.534-.092.151-.01.271.09.271.09s.036.031.086 0c.051-.03.066-.055.019-.083"/><path fill="#D4AF3A" d="M7.818 12.967l-.045-.005a.55.55 0 01-.1-.031c-.016-.008-.042-.01-.059.01-.017.019-.153.102-.153.102h.226c.079 0 .13-.076.13-.076m.12.059s-.153.076-.2.09c-.05.013-.06.013-.06.013s-.105.1-.182.146a.67.67 0 01-.265.096c-.12.014-.449.01-.596.004-.148-.006-.239.03-.303.106-.063.073-.078.18.002.263.08.082.17.041.2-.01.03-.05.015-.115.001-.144-.013-.03.026-.039.067-.041a.85.85 0 01.398.09c.05.026.021.03-.013.025a.712.712 0 01-.13-.043.523.523 0 00-.147-.037c-.038-.002-.025.02-.017.033.008.013.028.047.034.063.005.016-.012.074-.012.074l.019.037s.022-.037.03-.057c.007-.02-.002-.056.005-.073.007-.018.039-.018.063.012.024.029.053.064.066.138.013.073-.012.127-.012.127s.03.025.036.043c.005.017-.008.088-.008.088s.02.013.04-.027a.951.951 0 00.046-.138c.005-.026.022-.073.052-.038.03.035.05.078.057.1.005.02.005.038.005.038s.067-.068.09-.107a.65.65 0 01.133-.152c.063-.055.174-.164.228-.201.054-.037.192-.115.236-.142.042-.027.05-.03.058-.106.007-.076.042-.144.06-.196a.942.942 0 00.02-.074m3.639-3.148a1.2 1.2 0 01.174-.644l-.474-.566c-.452.182-.866.193-1.235-.002-.368.195-.783.184-1.234.002l-.475.566s.175.25.175.644-.073.687-.116.877c-.042.19-.079.547.019.802.097.255.2.477.624.662.421.184.642.28.788.407.147.127.22.228.22.228s.074-.101.221-.228c.146-.127.367-.223.789-.407.422-.184.525-.407.624-.662.097-.255.06-.611.018-.802-.046-.19-.119-.483-.118-.877"/><path fill="#D4AF3A" d="M8.455 12.927v-.024l-.03-.068s-.035.023-.07.06c-.044.048-.09.114-.112.143-.038.05-.09.097-.045.017s.06-.114.096-.168c.036-.053.063-.077.059-.08a.846.846 0 00-.129-.02c-.094-.014-.153-.05-.196-.078-.044-.027-.122-.07-.122-.07s-.161.07-.222.086c-.06.016-.096.025-.037.055.059.03.108.039.137.058a.42.42 0 00.172.048c.054 0 .146.002.11.04a.69.69 0 00-.116.23.818.818 0 00-.034.367s.066-.077.244-.193c.177-.115.244-.155.277-.17.032-.017.05-.017.043-.06-.007-.043-.025-.151-.025-.173"/><path fill="#D4AF3A" d="M6.419 13.876s-.02-.014-.03.005c-.009.02-.007.03.019.072.025.043.042.053.073.073.03.02.009-.02.005-.031-.004-.012 0-.027-.008-.038-.007-.01-.01-.02-.01-.052s-.049-.03-.049-.03m-.101.036c-.006-.034 0-.067-.025-.092a.32.32 0 01-.065-.117c-.012-.041.009-.06.005-.084-.004-.023-.034-.023-.063.002-.03.026-.07.049-.07.123s.026.162.125.193c.1.03.099.008.093-.025m-.83-3.742c-.001-.013-.025-.059-.032-.082-.006-.023-.029-.008-.029-.008s-.048.028-.084.038c-.036.01-.041-.004-.045-.023l-.019-.123c-.006-.043-.015-.04-.03-.034-.015.006-.059.023-.09.038-.031.014-.021.03-.012.048.01.018.046.095.063.122.016.027.002.04-.018.049-.018.008-.045.012-.083.026-.037.013-.035.022-.03.035a.856.856 0 00.042.091c.014.025.026.008.026.008s.04-.037.073-.055c.034-.016.036-.012.045.014l.055.19c.008.025.02.022.037.015.018-.008.041-.012.061-.018.02-.006.028-.048.028-.048s-.073-.139-.093-.173c-.02-.035 0-.043.015-.046.015-.002.059-.008.096-.018.035-.01.025-.032.024-.046m3.645 2.197a.601.601 0 01-.033-.016.605.605 0 00-.182.163c-.043.074-.087.08-.039 0a.685.685 0 01.158-.193 2.017 2.017 0 01-.272-.163.438.438 0 01-.06.096.421.421 0 01-.121.076s.066-.071.089-.126a.565.565 0 00.029-.095 1.167 1.167 0 01-.18-.177.705.705 0 01-.153.285c-.14.163-.42.246-.42.246s-.097.01-.018.032c.08.022.136.059.29.03.154-.027.164-.035.185-.041.02-.006.077-.002 0 .028s-.256.059-.325.052c-.069-.006-.162-.021-.065.033.098.054.14.076.2.076s.086.02.144.02c.058 0 .075-.011.117-.02.042-.009.069.006.069.024 0 .017-.057.065-.055.184.003.119.011.197.021.232.01.034.035.09.052.123.017.033.023.065.04-.004.016-.07.054-.169.068-.236.015-.068.023-.07.03-.104.005-.035.041-.06.024.002-.017.066-.032.133-.048.2-.012.056-.042.16.009.077.05-.082.237-.301.268-.34.031-.039.057-.076.08-.109.022-.032.087-.076.119-.124.028-.043.11-.127.146-.157l-.167-.074"/><path fill="#D4AF3A" d="M7.205 14.575c-.028-.005-.044-.017-.083-.045a.423.423 0 01-.116-.115c-.011-.03-.011-.03-.05-.017-.037.013-.092.012-.133.013-.042.002.004.05.033.096.029.045.02.196.02.196s0 .014-.007.035c-.006.022-.001.037.01.041.011.005.018-.004.046-.04.03-.035.082-.127.082-.127l.053.014a.344.344 0 00.154-.007c.035-.01.017-.04-.01-.044m-.987-2.043a.126.126 0 00-.127-.124.117.117 0 00-.078.024c-.069.065-.028.226.072.226.036 0 .079-.006.105-.032.022-.022.028-.06.028-.094m-.057.176c-.051.03-.05.247-.027.36a.822.822 0 00.16.29c.033.038.04.038.058.028.017-.01.025-.01.025-.01s.045-.015.079-.043c.034-.028.02-.097.015-.158a.966.966 0 00-.134-.326c-.083-.143-.125-.17-.176-.14m-.137-.405s.062 0 .035-.23c-.026-.229-.14-.446-.232-.597a2.89 2.89 0 01-.227-.511 1.498 1.498 0 01-.069-.388c0-.09.037-.136.037-.136s.016-.025.002-.04c-.015-.015-.039-.001-.062.023a.297.297 0 00-.058.102c-.01.032-.01.044-.01.044s-.047-.012-.122-.005c-.076.006-.11.012-.114.03-.002.016.01.029.064.053.054.025.089.035.116.068.028.034.096.202.118.283.021.08.066.3.084.474.019.173.074.381.153.556.027.057.167.328.285.274m.646 1.382a.095.095 0 00-.024-.07l-.028-.03s-.004.04-.008.061l-.005.026s.015.015.028.02c.013.007.035.019.037-.007m-.107.248a.223.223 0 00.103-.053c.023-.02.036-.072.021-.099-.015-.028-.053-.056-.067-.056H6.59s-.016.05-.035.076c-.021.025-.045.043-.043.076.001.033-.002.068.05.056m.28-.108a.297.297 0 00-.033-.113s-.012.047-.032.088c-.021.041-.042.063-.042.063s.05.013.067.013c.02 0 .04 0 .04-.05m.151.268c.017.016.035.038.05.012.016-.025.04-.077.023-.11-.017-.03-.038-.058-.038-.058s-.028.09-.041.114c-.012.023-.01.027.006.042m0 .178c.04-.027.017-.074.008-.103-.01-.03-.063-.035-.092-.035-.028 0-.042 0-.058.014-.015.013-.035.033-.076.047-.041.013-.073.029-.129.052-.056.023-.073.063-.097.078-.024.016-.07 0-.07 0s-.034-.01-.046 0c-.011.01 0 .029.022.054.022.026.066.024.114.04.049.015.058.003.077-.01.018-.014.034-.043.067-.065.034-.021.107-.025.142-.029a.336.336 0 00.138-.043m-.454-.047c.019-.029.036-.037.08-.058a.533.533 0 01.155-.035c.028-.002.092-.059.083-.118-.01-.058-.05-.081-.087-.09-.035-.007-.067-.007-.078.01a.135.135 0 01-.071.055c-.039.013-.045.027-.07.035-.024.008-.005.024-.025.041-.021.018-.05 0-.08-.01-.033-.009-.034-.015-.07-.017-.035-.001-.129-.008-.129-.008l-.024-.001c-.02 0-.022.004-.032.027-.01.023.001.081.024.11.022.03.095.043.144.06a.811.811 0 00.114.029c.042.007.047 0 .066-.03"/><path fill="#D4AF3A" d="M6.543 7.362c.005.12.132.349.204.47.073.122.092.171.08.18-.012.007-.043-.055-.082-.11-.04-.054-.118-.181-.182-.277-.065-.096-.16-.325-.171-.345-.013-.021-.018-.034-.05-.008-.032.026-.095.278-.02.449.075.171.187.296.234.355.048.06.11.154.1.162-.01.007-.027-.016-.084-.078a6.095 6.095 0 01-.215-.247c-.05-.064-.119-.192-.143-.237-.01-.018-.02-.013-.03-.004-.02.021-.053.071-.039.207.02.19.115.298.2.394.084.096.169.176.156.19-.012.013-.1-.068-.159-.127a6.092 6.092 0 01-.24-.25c-.032-.04-.08-.02-.077.144.003.163.177.33.25.42.072.091.162.145.155.164-.007.018-.08-.029-.128-.063-.047-.034-.224-.153-.259-.18-.035-.026-.053.024-.008.18.045.155.175.28.252.337.077.057.202.127.195.145-.008.019-.06-.005-.132-.04a1.426 1.426 0 00-.222-.089c-.063-.018-.063.029-.063.029s-.012.132.08.238a.486.486 0 00.296.166c.1.019.115.024.112.04-.002.015-.012.017-.035.017-.023 0-.114.01-.199.01s-.13.021-.13.06c0 .04-.002.092.125.18s.269.101.329.114c.059.013.062.018.05.036-.013.019-.04.016-.135.027-.095.01-.152.049-.165.075-.012.026.008.104.085.159.077.054.177.073.326.063.15-.01.187-.013.192.012.006.026-.045.034-.12.047-.074.013-.131.013-.174.05-.043.036-.01.111.063.165.072.055.251.055.326.05.075-.006.19-.035.197-.013.007.02-.055.052-.132.08-.077.028-.1.046-.115.08s-.002.066.09.102a.428.428 0 00.297.003c.07-.034.108-.047.12-.034.012.013 0 .026-.015.045a.342.342 0 01-.152.088c-.077.02-.085.02-.112.085-.028.066.042.117.181.123a.896.896 0 00.386-.088c.06-.037.083-.045.093-.031.01.012.007.02-.023.044a.73.73 0 01-.171.106c-.048.013-.053.05-.053.084 0 .033-.012.101.112.132.125.031.272.008.407-.091a.298.298 0 00.082-.08 1.14 1.14 0 01.01-.309.499.499 0 01-.128-.032c-.075-.031-.104-.104-.122-.143-.018-.04-.042-.04-.073-.029-.03.01-.06.023-.102.02a.29.29 0 01-.197-.105c-.064-.08-.052-.16-.054-.198-.003-.039-.063-.01-.093-.01a.376.376 0 01-.196-.07c-.08-.057-.08-.135-.087-.166-.008-.031-.04-.052-.065-.063-.025-.01-.065-.02-.12-.067-.055-.047-.075-.137-.077-.17-.002-.03-.035-.033-.147-.093-.112-.06-.102-.184-.097-.233.005-.05.057-.09.057-.11 0-.018-.037-.023-.075-.047-.037-.023-.132-.062-.134-.208-.002-.145.09-.16.09-.16s-.018-.009-.055-.032c-.037-.023-.14-.096-.14-.181 0-.086.038-.125.065-.145a.435.435 0 01.103-.042s-.048-.03-.068-.098c-.02-.068-.027-.15.02-.21.048-.06.128-.06.17-.06.042 0 .08.023.094.01.015-.012.018-.023.003-.057a.262.262 0 01-.006-.145c.012-.028.015-.086.122-.122.107-.037.22.039.254.06.035.02.02-.03.02-.066 0-.036-.072-.127-.155-.257a2.657 2.657 0 01-.377-.91c-.012-.066-.037-.035-.037-.035s-.025.01-.082.161c-.057.15-.067.288-.061.407m.49 7.33c-.019-.004-.027-.005-.037.007-.01.014-.017.04-.022.052-.004.013-.003.025.009.035.011.01.027.021.027.021s.016.019.032.027c.016.009.02-.016.02-.035 0-.018.01-.051.01-.073-.002-.02-.02-.031-.039-.035"/><path fill="#D4AF3A" d="M13.797 9.089a.706.706 0 00.252-.337c.045-.156.027-.205-.008-.18-.035.027-.212.146-.26.18-.046.034-.119.08-.127.062-.007-.018.083-.073.155-.163.073-.091.247-.257.25-.42.002-.164-.045-.185-.077-.144-.033.042-.18.19-.24.25s-.147.14-.16.127c-.011-.013.073-.094.158-.19s.18-.205.2-.394c.014-.137-.02-.186-.04-.208-.008-.008-.02-.013-.03.004a1.801 1.801 0 01-.143.238 6.263 6.263 0 01-.214.247c-.058.062-.075.085-.085.077-.01-.008.053-.101.1-.16.047-.06.16-.185.234-.356.075-.172.012-.423-.02-.45-.032-.026-.037-.012-.05.008-.011.021-.106.25-.17.346-.066.096-.143.223-.183.277-.04.055-.07.117-.083.11-.012-.009.008-.058.08-.18.073-.122.2-.35.205-.47a.992.992 0 00-.063-.408c-.057-.15-.082-.16-.082-.16s-.025-.032-.037.033a2.605 2.605 0 01-.377.911c-.083.13-.155.22-.155.257 0 .037-.015.086.02.065.035-.02.147-.096.254-.06.107.037.11.094.122.123a.263.263 0 01-.006.145c-.015.034-.012.045.003.057.015.013.052-.01.094-.01.043 0 .122 0 .17.06.047.06.04.142.02.21-.02.067-.068.098-.068.098s.075.021.103.042c.027.02.064.059.064.145s-.102.159-.14.182a.582.582 0 01-.054.03s.092.016.09.162c-.002.145-.097.184-.134.207-.038.023-.075.029-.075.047 0 .019.053.06.057.11.006.049.015.174-.097.233-.112.06-.144.063-.147.094-.002.03-.022.122-.077.169-.055.047-.095.057-.12.067-.025.01-.057.031-.065.063-.007.03-.007.11-.086.166a.378.378 0 01-.197.07c-.03 0-.09-.029-.093.01-.002.039.01.117-.055.197a.287.287 0 01-.196.107c-.042.002-.073-.01-.103-.02-.03-.011-.054-.011-.072.028-.018.039-.047.112-.122.143a.485.485 0 01-.128.032c.015.084.02.175.01.308a.487.487 0 00.489.172c.124-.03.112-.098.112-.132s-.006-.07-.053-.084a.758.758 0 01-.171-.106c-.03-.023-.033-.031-.023-.044.01-.013.033-.006.093.03.06.037.247.094.386.089.14-.006.209-.058.181-.123-.027-.065-.035-.065-.112-.085a.338.338 0 01-.152-.088c-.015-.019-.027-.031-.015-.045.012-.013.05 0 .12.034.07.034.204.034.297-.003.092-.036.104-.067.09-.101-.016-.035-.038-.052-.115-.081-.077-.029-.14-.06-.132-.08.008-.021.122.007.197.012.075.006.254.006.326-.049.073-.055.105-.13.063-.166-.043-.036-.1-.036-.175-.05-.074-.012-.124-.02-.12-.046.006-.026.043-.023.193-.013.15.01.25-.008.326-.062.077-.055.097-.133.085-.159-.012-.026-.07-.065-.165-.075-.094-.01-.122-.008-.134-.027-.012-.018-.01-.023.05-.036.059-.013.202-.026.328-.114.128-.088.125-.14.125-.18 0-.039-.045-.06-.13-.06s-.177-.01-.2-.01c-.021 0-.031-.002-.034-.018-.003-.016.012-.02.112-.039a.49.49 0 00.297-.165c.092-.107.08-.24.08-.24s0-.046-.063-.028c-.062.018-.15.052-.222.088-.072.037-.124.06-.132.041-.005-.017.12-.087.196-.144zm-5.447 2.71c-.036.048-.056.068-.056.068s.025-.08.046-.117a.668.668 0 01.033-.052.999.999 0 01-.058-.18 1.552 1.552 0 01-.127.313c-.075.124-.141.17-.099.203.043.033.128.041.222-.007.092-.047.119-.129.132-.195a1.095 1.095 0 01-.045-.08.174.174 0 00-.048.046zm-.077-.41s-.036.053-.084.086a.611.611 0 01-.177.054s-.005.015-.03.049c-.025.033-.08.113-.138.156-.057.043-.147.07-.152.06-.005-.012.052-.034.108-.07.055-.035.105-.1.143-.145.037-.045-.016-.037-.016-.037s-.068.001-.13-.004c-.063-.006-.05 0-.068.032-.018.031-.043.06-.09.116-.056.068-.11.13-.164.197-.036.045-.01.058-.01.058s.017.028.161.044c.09.01.187-.001.289-.062a.863.863 0 00.194-.175c.173-.196.164-.359.164-.359zm-.615.122c.02-.105-.038-.177-.038-.177s-.012.007-.048.041c-.036.034-.087.097-.187.15-.1.052-.136.048-.04-.006.097-.054.238-.207.238-.207l-.037-.015c-.038-.015-.103.01-.371.179-.269.168-.426.174-.426.174s.12.15.446.14c.325-.012.443-.175.463-.28zm-.314-.254s-.017-.013-.071-.048c-.054-.036-.038-.143-.038-.143s-.014.012-.053.04c-.04.027-.084.059-.138.081-.054.022-.081.037-.115.049-.034.01-.025-.004.004-.021.03-.017.037-.026.11-.056.071-.03.214-.16.214-.16s-.035-.004-.094-.006c-.058-.001-.134-.033-.134-.033s-.059.056-.296.162c-.238.106-.44.134-.44.134s.025.127.139.17c.095.043.226.07.481.006.256-.063.431-.175.431-.175zM6.105 7.824c.004-.093.025-.163.082-.184 0 0-.05-.093-.095-.225a1.827 1.827 0 01-.069-.297c-.031-.22-.056-.447.006-.076.064.372.14.503.14.503l.09.154a.673.673 0 01-.012-.19c.004-.073.013-.174.035-.253 0 0-.11-.23-.18-.506a3.296 3.296 0 01-.11-.677l-.01-.201s-.114.089-.151.539c-.038.45.075.88.133 1.045.057.164.141.368.141.368zm.268-.647c.027.057.056.1.077.138.032.057.05.094.05.094s.006-.02.001-.054a.445.445 0 01-.001-.137c.004-.03.01-.06.009-.087-.001-.03-.011-.056-.015-.074a5.053 5.053 0 01-.058-.276 2.446 2.446 0 01-.033-.371c.002-.127.019-.063.019-.002 0 .062.006.156.025.301.02.145.078.366.078.366s.004-.034.021-.083c.018-.048.047-.103.07-.163.023-.06.014-.07.014-.07s-.082-.41-.104-.604c-.022-.195-.057-.704-.057-.704-.12.126-.21.458-.226.772-.012.237.025.457.035.546.022.174.051.312.095.408zm-.831 1.829c.235.193.437.253.471.269.035.015.032-.005.025-.026-.007-.02-.012-.087-.012-.087l-.178-.106c-.093-.057-.196-.134-.266-.184-.068-.05-.028-.046-.007-.027.022.019.117.077.212.139l.24.15s.003-.032.023-.053c.02-.02.069-.015.069-.015s-.025-.025-.04-.05c-.015-.024-.092-.05-.18-.093a2.184 2.184 0 01-.358-.263 4.502 4.502 0 01-.353-.376c-.014-.02-.024-.017-.027.009-.001.025-.01.043.015.16.028.115.131.359.366.553zm.04.49c.237.175.517.24.576.248.013-.016-.014-.074-.001-.11.015-.042.04-.043.098-.046.057-.003.02-.015.007-.015-.013 0-.016-.002-.112-.027-.095-.025-.192-.041-.323-.093-.131-.051-.17-.089-.168-.099.003-.01.061.033.183.08.12.048.263.067.34.084.077.017.01-.017-.026-.04a.44.44 0 01-.087-.104s-.085-.015-.225-.06a1.786 1.786 0 01-.373-.162c-.04-.024-.079-.054-.12-.085l-.192-.145c-.048-.035-.033-.007-.028.015a.835.835 0 00.113.239c.074.111.099.146.338.32zm.796.683s-.009-.012-.02-.053c-.011-.041.021-.072.021-.072s-.044-.014-.189-.033c-.145-.019-.152-.03-.242-.051-.088-.02-.148-.048-.146-.058.001-.01.03.005.082.025.053.02.275.045.368.058.094.014.146.024.162.014.017-.01.074-.026.074-.026s-.04-.012-.088-.02a.303.303 0 01-.12-.05c-.026-.02-.034-.024-.152-.038-.119-.013-.214-.053-.426-.133a1.782 1.782 0 01-.414-.212c-.043-.035-.04-.01-.028.036.011.046.01.105.116.234.107.13.16.187.43.29.27.103.572.09.572.09zm.05.473c.193.002.266-.058.266-.058s0-.01-.026-.051c-.027-.041-.022-.111-.022-.111l-.126.02a.828.828 0 01-.278.005c-.104-.019-.059-.03.023-.02.082.01.24-.021.29-.04.052-.02.03-.036-.004-.048-.034-.012-.128-.074-.128-.074s-.235.031-.453.006c-.218-.026-.357-.084-.401-.09-.045-.008-.043.011-.043.011s-.012.021.064.144a.625.625 0 00.349.241c.124.038.295.063.488.065zm.499.277c.11-.044.08-.158.08-.16 0-.002-.067.022-.13.047-.062.024-.216.07-.277.073-.061.001-.061-.007-.063-.017-.001-.01.047 0 .134-.017.088-.016.242-.1.269-.119.027-.019.023-.022-.016-.026a.163.163 0 01-.088-.036c-.014-.012-.055.006-.155.03s-.308.062-.467.062c-.16 0-.308-.027-.333-.033-.025-.005-.052.01.025.144.078.134.347.207.536.205.186-.004.374-.108.485-.153zM5.865 8.748c.053.041.131.097.131.097s-.012-.03-.02-.067c-.008-.037-.012-.111-.012-.111l-.106-.097c-.044-.04-.1-.091-.208-.232-.109-.14-.021-.056.067.045.089.1.259.247.259.247v-.033a.126.126 0 01.027-.074c.016-.021.007-.024-.089-.1a2.848 2.848 0 01-.445-.54c-.101-.172-.21-.407-.21-.407s-.054.346.148.727c.204.38.404.504.458.545zm-.186-.815c.144.301.346.471.346.471S6 8.33 5.987 8.278c-.011-.052-.002-.11-.002-.11s-.051-.069-.145-.219-.143-.373-.143-.373.087.223.155.341c.067.118.146.214.146.214s.027-.105.047-.11c.02-.005.034.012.051.035.017.023.032.02.032.02s-.023-.05-.06-.11c-.015-.026-.039-.055-.055-.083-.054-.088-.17-.255-.229-.422a8.431 8.431 0 01-.21-.71c-.023-.123-.046-.055-.068.035-.022.09-.053.22-.034.414.019.194.064.431.207.733zm2.744 2.085c-.064-.004-.148-.04-.212-.138-.064-.097-.16-.12-.327-.117-.167.003-.245-.08-.287-.201-.041-.12.007-.258.177-.344.17-.088.247-.185.253-.334.006-.151-.17-.339-.346-.549-.177-.211-.315-.509-.315-.509s-.05.071-.05.14c0 .07.025.145 0 .164-.027.02-.036-.03-.139-.077-.103-.046-.186-.053-.25.023-.064.077 0 .211.058.275.058.063.106.11.09.134-.016.024-.103-.036-.132-.057-.029-.02-.096-.097-.196-.087-.1.01-.135.04-.144.127-.01.087.09.163.154.197s.09.064.074.077c-.016.014-.032 0-.061-.01a.285.285 0 00-.16 0c-.051.02-.135.094-.058.184.077.09.237.124.27.13.032.007.048-.003.05.023.004.027-.066.027-.153.03-.087.004-.112.09-.1.157.014.067.158.14.238.154.08.014.109 0 .116.023.007.023-.01.034-.055.047-.045.014-.132.024-.148.097-.016.074-.02.107.048.17.067.064.177.054.209.047.032-.006.07-.043.103-.01.032.034-.029.06-.083.1-.055.04-.051.118.042.17a.274.274 0 00.225.02c.038-.013.09-.076.115-.036.026.04-.08.053-.125.11s-.03.151.06.208c.09.057.238.016.264-.007.026-.023.058-.033.077-.013.02.02-.01.073-.029.12-.02.047-.055.184.08.237.135.054.257-.066.28-.09.021-.023.044-.027.063-.017.02.01.01.03-.006.053a.145.145 0 00.045.194.229.229 0 00.176.037c.02-.078.046-.161.073-.279h-.02c-.013 0-.015.02-.015.028s.004.015-.008.015c-.011 0-.013.006-.03.02-.016.011-.031.026-.04.019-.01-.006.034-.031.046-.045.011-.015.035-.038.036-.053.001-.016.009-.026.032-.046a.105.105 0 00.017-.02 3.93 3.93 0 00.044-.28c.01-.071.015-.142.017-.212h-.043z"/><path fill="#D4AF3A" d="M11.767 11.517a1.065 1.065 0 01-.057.18.61.61 0 01.032.053.815.815 0 01.047.117s-.02-.02-.056-.069a.183.183 0 00-.048-.047 1.055 1.055 0 01-.045.08c.013.066.04.148.131.195.095.048.18.041.222.007.043-.033-.023-.079-.098-.203a1.569 1.569 0 01-.128-.313m.679.17c-.047-.057-.072-.085-.09-.117-.018-.031-.005-.037-.068-.031-.062.005-.13.004-.13.004s-.053-.007-.016.037.088.11.143.145c.056.036.113.058.108.07-.005.01-.095-.017-.152-.06-.057-.043-.113-.123-.138-.157a.221.221 0 01-.03-.048s-.13-.02-.177-.054a.38.38 0 01-.084-.086s-.01.162.165.36a.903.903 0 00.194.174c.102.061.199.073.288.063.145-.017.161-.044.161-.044s.027-.013-.009-.058c-.055-.068-.108-.13-.165-.199m.093-.39l-.038.016s.141.153.238.207c.097.054.061.058-.04.005-.1-.052-.151-.115-.187-.149-.036-.033-.048-.041-.048-.041s-.057.073-.037.177c.02.104.138.267.463.278.326.01.446-.14.446-.14s-.157-.006-.426-.174c-.27-.167-.333-.193-.371-.178m.515-.336s-.075.032-.134.033c-.06.002-.093.006-.093.006s.143.13.215.16c.072.03.081.039.11.056.028.016.037.031.003.02-.034-.01-.061-.026-.114-.048-.054-.022-.099-.054-.138-.082a1.092 1.092 0 01-.054-.039s.016.107-.037.142l-.072.049s.176.112.43.175c.257.064.388.037.482-.005.115-.043.14-.17.14-.17s-.202-.028-.44-.134c-.239-.107-.298-.163-.298-.163m.978-1.88a.1.1 0 01.023.052s.144-.088.24-.15c.095-.062.19-.12.212-.14.02-.018.062-.021-.007.029s-.173.127-.267.183l-.177.106s-.006.067-.012.088c-.007.02-.01.04.025.025.034-.015.236-.076.471-.27.235-.193.339-.436.363-.552.025-.117.017-.134.015-.16-.002-.025-.012-.03-.026-.008-.015.02-.238.273-.354.374-.115.1-.27.22-.357.264-.087.042-.164.068-.18.092-.014.024-.04.05-.04.05s.051-.004.071.016m.894-.158l-.191.144c-.042.03-.08.062-.12.085a1.786 1.786 0 01-.374.163c-.14.044-.225.06-.225.06s-.051.082-.087.104c-.036.022-.104.056-.027.04.077-.018.219-.036.34-.085.122-.047.18-.09.183-.08.003.01-.036.048-.168.1-.131.051-.228.066-.323.092-.096.026-.099.027-.112.027-.013 0-.051.012.007.015.057.004.083.004.098.046.013.036-.015.094-.002.11.06-.008.339-.072.577-.247.238-.174.263-.209.339-.322a.867.867 0 00.113-.238c.005-.022.02-.05-.028-.014m-.132.609a1.78 1.78 0 01-.414.212c-.212.08-.307.12-.426.133-.118.014-.126.02-.152.037a.31.31 0 01-.12.05c-.05.01-.088.021-.088.021s.057.015.074.025c.015.01.068 0 .162-.013s.316-.037.368-.058c.052-.02.08-.036.082-.025.001.01-.057.037-.146.058-.089.02-.097.032-.242.051-.145.02-.19.033-.19.033s.033.03.022.072c-.012.041-.02.053-.02.053s.302.014.571-.089c.27-.103.322-.16.43-.29.106-.13.104-.187.116-.233.013-.047.016-.074-.027-.037m-.279.659c-.044.007-.182.065-.4.09-.219.026-.454-.005-.454-.005s-.093.061-.128.073c-.034.012-.055.03-.004.048.05.019.208.05.29.04.083-.01.127.001.023.02a.828.828 0 01-.277-.004c-.08-.012-.127-.021-.127-.021s.005.07-.021.111c-.026.041-.026.052-.026.052s.072.06.266.057c.194-.001.364-.027.49-.065a.627.627 0 00.348-.24c.076-.124.064-.144.064-.144s0-.02-.044-.012m-.312.542a1.81 1.81 0 01-.332.033c-.16 0-.367-.037-.467-.062-.1-.025-.141-.043-.156-.03a.17.17 0 01-.088.036c-.04.004-.042.007-.016.026.027.018.181.102.269.119.087.016.136.007.134.016-.002.01-.002.019-.063.017a1.268 1.268 0 01-.277-.073 1.987 1.987 0 00-.13-.047c0 .002-.031.116.08.16.11.045.3.15.487.151.187.002.458-.07.535-.204.076-.134.05-.148.024-.142m-.083-3.275c.056-.165.17-.595.133-1.045-.039-.45-.152-.54-.152-.54l-.009.201c-.001.15-.04.401-.11.677-.07.277-.18.507-.18.507.021.079.03.18.034.254a.673.673 0 01-.012.19l.091-.156s.076-.131.14-.502c.063-.371.037-.144.005.076a1.507 1.507 0 01-.164.522c.058.02.078.091.082.184 0 0 .085-.204.142-.368m-.28-1.235c-.016-.314-.106-.647-.227-.773 0 0-.034.51-.056.704-.021.194-.104.605-.104.605s-.008.01.015.07c.023.06.05.114.07.163.017.048.02.082.02.082s.06-.221.078-.366c.02-.145.025-.24.025-.301s.018-.125.02.002c.001.127-.017.27-.033.37-.016.102-.05.244-.058.277-.004.018-.014.044-.016.074-.002.027.004.056.009.086a.444.444 0 01-.002.138.121.121 0 00.002.054s.017-.037.05-.094c.02-.037.05-.08.077-.139a1.45 1.45 0 00.094-.41c.011-.086.048-.305.036-.542m.983 1.254s-.11.234-.21.407a2.859 2.859 0 01-.444.54c-.096.076-.104.079-.089.1a.125.125 0 01.026.073v.033s.17-.146.26-.247c.088-.1.176-.185.067-.044a1.61 1.61 0 01-.208.231l-.107.097s-.003.075-.011.111c-.008.037-.02.067-.02.067s.078-.056.131-.097c.054-.041.253-.164.456-.545.202-.38.15-.726.15-.726m-.766.929s.202-.17.346-.471a2.14 2.14 0 00.208-.733c.02-.194-.012-.322-.034-.413-.023-.09-.045-.158-.067-.035a8.378 8.378 0 01-.21.71c-.06.167-.175.333-.228.421-.017.028-.04.057-.057.084-.036.06-.059.11-.059.11s.015.002.032-.02c.016-.024.031-.04.05-.035.02.006.048.11.048.11s.078-.096.146-.215c.068-.118.155-.34.155-.34s-.05.222-.144.373c-.094.15-.145.218-.145.218s.01.059-.002.11c-.012.05-.039.126-.039.126m-.583.329a.286.286 0 00-.16 0c-.03.009-.046.023-.062.009-.016-.013.01-.044.074-.077s.164-.11.154-.198c-.01-.087-.045-.117-.144-.126-.099-.01-.167.066-.196.087-.029.02-.115.08-.132.057-.016-.023.032-.07.09-.134.058-.064.122-.198.058-.275-.064-.077-.148-.07-.25-.024-.103.047-.112.097-.138.077-.026-.02 0-.093 0-.163s-.051-.14-.051-.14-.138.297-.314.508c-.177.211-.353.399-.347.548.006.151.083.248.253.335.17.087.219.223.177.344-.042.12-.12.204-.286.2-.167-.002-.263.02-.327.118-.064.097-.148.134-.212.138l-.042.002c.003.066.008.136.017.212.014.11.03.201.044.28.005.007.01.014.018.02.023.02.031.03.032.046.001.016.024.039.036.053.011.015.055.039.046.045-.009.006-.024-.008-.041-.02s-.018-.019-.03-.019c-.011 0-.007-.006-.007-.015 0-.008-.003-.028-.016-.028h-.02c.027.118.053.201.073.28a.23.23 0 00.176-.038.145.145 0 00.045-.193c-.016-.024-.026-.044-.007-.053.02-.01.042-.007.065.016.022.024.144.144.279.09.135-.052.099-.19.08-.237-.02-.046-.048-.1-.03-.12.02-.02.052-.01.078.013.026.023.173.064.263.007.09-.058.106-.151.06-.207-.044-.058-.15-.071-.124-.11.026-.041.077.022.115.036a.278.278 0 00.225-.02c.093-.053.096-.13.042-.17-.055-.041-.115-.067-.083-.1.032-.034.07.002.103.01.032.006.14.016.208-.047.067-.064.064-.097.048-.17-.016-.075-.103-.084-.148-.098-.045-.013-.06-.023-.054-.046.006-.023.035-.01.115-.023.08-.014.225-.088.237-.154.013-.067-.012-.154-.1-.157-.086-.004-.157-.004-.154-.03.003-.028.02-.017.052-.024.031-.006.192-.04.27-.13.077-.092-.007-.166-.058-.185M11.753 6.748c.037 0 .066.028.066.064 0 .035-.03.063-.066.063a.065.065 0 01-.066-.063c0-.036.03-.064.066-.064"/><path fill="#D4AF3A" d="M12.308 6.69c-.09-.042-.18-.036-.289.006a1.08 1.08 0 00-.164.077s.016.099-.05.144c-.067.045-.134.02-.152-.027-.018-.045-.023-.069-.023-.069s-.104.061-.248.088c-.08.015-.23.032-.327-.008 0 0-.087.088-.15.141a1.729 1.729 0 01-.134.099s.008.021.038.032c.03.01.042.015.021.05-.02.035-.169.173-.233.222-.064.047-.158.085-.158.085s.03.06.074.077c.043.02.05.049.033.08-.017.032-.17.208-.235.27-.064.06-.112.069-.14.077-.028.007-.08.037-.023.103.057.067.19.091.322.051.133-.04.26-.202.26-.202s-.027.235-.027.344c0 .11.013.234.03.298a.446.446 0 00.036.096s.09-.053.151-.216a.958.958 0 00.077-.301c0-.049.002-.075.044-.051.04.024.071.043.086.045a.176.176 0 00.026.002s-.026-.117-.026-.205c0-.088.029-.28.065-.314.035-.035.042.012.045.034.008.046.045.1.097.118a.575.575 0 01.148-.35c.02-.02.03-.047.095-.02.094.038.215.064.31.025.094-.038.163-.14.141-.15-.005-.003-.145.071-.255.034-.11-.037-.161-.075-.097-.144.064-.069.092-.077.22-.186.128-.11.23-.165.342-.147.112.018.133.088.143.102.01.013.06.053.06-.043 0-.095-.044-.223-.133-.266m-1.365.086c.034.02.07.04.107.051a.52.52 0 00.366-.033.946.946 0 01.316-.128c.068-.006.1.023.16.025.02 0 .037-.004.044-.02.013-.026.005-.093-.087-.146-.092-.053-.23-.051-.352-.014a.705.705 0 00-.243.126c-.049.037-.106.094-.12.082-.013-.012.029-.04.051-.064.023-.024.034-.032.034-.032a.602.602 0 01-.396-.125s-.039.184.12.278"/><path fill="#D4AF3A" d="M10.653 8.222s-.036.096-.119.18c-.081.085-.143.074-.143.074s.008-.002.07-.047c.06-.044.121-.174.121-.174a.542.542 0 01-.303.065s-.013.03-.032.082c-.02.052-.077.149-.108.191-.03.042-.008.048-.008.048s.015.018.209.074c.193.056.367.024.367.024s-.008-.018-.04-.156c-.033-.138-.014-.361-.014-.361m.455.36c-.022-.034-.063-.127-.063-.127s-.004.023-.027.089c-.022.066-.089.16-.089.16s.053-.011.112-.03a.31.31 0 00.099-.055s-.01-.005-.032-.038M8.329 6.748c.037 0 .066.028.066.064 0 .035-.03.063-.066.063a.065.065 0 01-.066-.063c0-.036.03-.064.066-.064"/><path fill="#D4AF3A" d="M9.036 8.456s-.04.093-.063.126c-.022.033-.032.038-.032.038s.041.036.1.055c.058.019.111.03.111.03s-.066-.095-.09-.16c-.022-.067-.026-.09-.026-.09m.874-.42c-.028-.009-.076-.017-.14-.078a2.692 2.692 0 01-.235-.269c-.018-.031-.01-.06.033-.08.044-.018.074-.077.074-.077s-.094-.037-.158-.085a1.647 1.647 0 01-.233-.222c-.02-.035-.01-.04.02-.05.031-.011.039-.032.039-.032s-.069-.046-.133-.099a2.66 2.66 0 01-.15-.141c-.096.04-.247.023-.328.008a.854.854 0 01-.248-.088s-.005.024-.023.069c-.017.045-.085.072-.15.027-.067-.045-.052-.144-.052-.144s-.053-.035-.163-.077c-.11-.043-.2-.048-.289-.005-.089.043-.132.17-.132.266s.049.057.058.043c.01-.013.031-.082.144-.101.112-.02.214.037.342.146.128.11.156.118.22.187s.013.106-.097.144c-.11.037-.25-.038-.255-.035-.022.01.047.112.142.15.094.039.215.014.31-.026.063-.027.075.001.094.022.104.113.13.22.148.349a.153.153 0 00.097-.118c.003-.021.01-.069.045-.035.036.035.064.227.064.315 0 .087-.026.205-.026.205l.026-.002c.016-.003.046-.022.087-.045.042-.024.044.002.044.05 0 .049.015.14.076.302.061.163.151.216.151.216s.018-.032.036-.096c.018-.065.03-.19.03-.299 0-.11-.028-.343-.028-.343s.128.162.261.202c.133.04.266.016.322-.05.057-.067.005-.097-.023-.105M8.19 6.692c.06-.002.093-.032.16-.025.08.008.187.056.317.128a.524.524 0 00.366.033.522.522 0 00.107-.051c.159-.094.12-.277.12-.277a.603.603 0 01-.396.125s.01.008.033.032.065.051.052.064c-.014.012-.072-.045-.12-.083a.715.715 0 00-.243-.125c-.123-.037-.26-.04-.352.014-.092.053-.1.12-.087.146.006.015.023.02.043.019"/><path fill="#D4AF3A" d="M9.156 13.438c.04.014.117-.017.155-.065.038-.049.052-.122.078-.165.028-.042.047-.074.047-.074s-.006.07-.042.164a.617.617 0 00-.032.263c.016.105.081.122.12.108.029-.01.072-.058.112-.127.013-.022.022-.052.035-.077.026-.05.049-.134.06-.131.025.004.01.064 0 .104-.02.079-.058.195-.06.265-.003.071.005.198.073.204.068.005.103-.057.141-.201.038-.145.047-.19.063-.19s.016.1.016.141c0 .015 0 .055.006.096.01.077.032.17.053.19.033.031.06.026.06.026s.027.005.06-.026c.032-.03.059-.243.059-.286 0-.042 0-.14.016-.14s.024.044.062.189c.038.144.073.206.141.2.068-.005.077-.132.073-.203-.003-.07-.04-.186-.059-.265-.02-.08.008-.074.06.028.016.032.032.07.048.098.036.06.072.096.098.105.038.015.103-.003.12-.107.016-.105-.06-.404-.06-.404l.033.051c.027.042.04.116.079.164.038.049.114.08.154.065.04-.014.047-.093.016-.234-.03-.142-.152-.221-.238-.334a1.246 1.246 0 01-.151-.316c-.11.057-.205.121-.292.215a6.68 6.68 0 00-.22.243s-.038-.048-.218-.243a1.015 1.015 0 00-.295-.216c-.01.024-.084.199-.165.304-.04.052-.096.092-.135.142a.49.49 0 00-.09.204c-.027.142-.022.221.019.235M9.834 8.4a3.709 3.709 0 00-.032-.082.543.543 0 01-.304-.065s.061.13.122.175c.061.044.07.047.07.047s-.061.01-.144-.074c-.082-.084-.119-.181-.119-.181s.019.224-.014.361c-.033.137-.04.156-.04.156s.173.031.366-.024c.193-.056.208-.074.208-.074s.023-.006-.008-.048a1.186 1.186 0 01-.105-.19"/><path fill="#D4AF3A" d="M9.151 13.917c.053-.048.08-.075.08-.075s.038-.033.03.03c-.01.063-.031.193-.018.249.013.056.019.105.086.063.067-.042.083-.067.115-.101.032-.035.066-.05.057.005-.008.054-.032.137-.02.248.011.111.064.128.132.033a1.23 1.23 0 00.13-.227c.02-.046.062-.086.062 0 0 .186.041.456.237.528.197-.072.237-.342.237-.528 0-.086.041-.046.062 0 .036.08.08.157.13.227.07.095.122.078.133-.033.011-.111-.013-.194-.021-.248-.008-.055.025-.04.057-.005s.048.06.115.1c.067.042.073-.006.086-.062.013-.056-.009-.186-.018-.248-.01-.063.03-.03.03-.03l.08.074c.052.048.124.05.124.05s.034-.194-.044-.31c-.078-.117-.107-.154-.107-.154s-.044-.003-.078-.016a.323.323 0 01-.066-.039v.108s.095.094.118.123c.022.028.067.076.002.03-.041-.03-.08-.06-.12-.093 0 0-.013.098-.04.123-.026.025-.065.028-.08.022l-.016-.007-.005.038s.059.115.067.161c.009.047-.004.042-.032-.018-.027-.06-.08-.135-.104-.178-.023-.04-.058-.07-.055-.016a.499.499 0 01-.035.184c-.018.035-.03.047-.03.047s.037.134.042.16c.005.024.001.052-.02.02-.02-.031-.08-.164-.08-.164s-.077-.003-.1-.026a.555.555 0 01-.057-.112s-.032.114-.059.15a.366.366 0 01-.088.073s-.004.199-.008.234c-.005.035-.006.05-.02.05s-.016-.015-.02-.05-.008-.234-.008-.234-.062-.036-.089-.073c-.026-.036-.058-.15-.058-.15s-.035.09-.057.112c-.023.023-.101.026-.101.026s-.059.133-.08.165c-.02.031-.023.003-.019-.022.005-.024.042-.16.042-.16s-.012-.011-.03-.046a.494.494 0 01-.035-.184c.004-.053-.032-.025-.055.016-.024.042-.076.118-.104.178-.027.06-.04.065-.032.018a.894.894 0 01.067-.16l-.004-.039-.016.007c-.016.006-.055.003-.082-.022-.027-.024-.04-.123-.04-.123s-.054.047-.12.093c-.065.047-.02-.002.002-.03.022-.029.118-.123.118-.123v-.108s-.032.025-.066.039c-.034.013-.078.016-.078.016s-.028.038-.107.154c-.077.116-.044.31-.044.31s.073-.002.125-.05"/><path fill="#D4AF3A" d="M8.94 14.58c.047-.031.088-.066.195-.14.106-.073.145-.155.145-.155h-.037c-.02 0-.038-.03-.04-.059 0-.029 0-.09.008-.16s-.01-.128-.01-.128-.046.045-.115.082c-.068.037-.097.02-.097.02l-.017-.072s-.03.065-.072.142c-.042.077-.156.162-.238.225-.081.064-.17.131-.238.156-.067.024-.028.057-.028.057s.067.07.241.103c.173.033.256-.04.303-.071"/><path fill="#D4AF3A" d="M9.549 14.509c-.062-.007-.1-.031-.112-.102-.007-.046.003-.22.003-.22s-.02.018-.044.047c-.024.03-.077.036-.077.036s-.008.025-.031.064a.355.355 0 01-.113.126c-.06.039-.128.085-.174.124-.046.04-.098.085-.159.12a.27.27 0 00-.133.181c-.02.091-.005.12.064.116.068-.005.077.002.188-.028.112-.03.27-.158.385-.236.118-.076.203-.228.203-.228"/><path fill="#D4AF3A" d="M9.857 14.615s-.047-.062-.064-.132c-.018-.07-.05-.21-.05-.21s-.017.045-.054.128a.185.185 0 01-.102.103s-.003.036-.057.107a.784.784 0 01-.211.184.79.79 0 00-.24.2c-.056.083-.06.17-.034.208.027.037.064-.005.118-.033.053-.028.205-.052.415-.17.21-.118.279-.385.279-.385"/><path fill="#D4AF3A" d="M11.662 14.491a1.035 1.035 0 01-.238-.155c-.082-.064-.197-.15-.239-.225-.042-.077-.071-.142-.071-.142l-.018.072s-.028.018-.097-.02a.574.574 0 01-.114-.082s-.02.057-.01.128c.007.07.009.13.007.16-.002.03-.02.059-.039.059h-.037s.039.082.145.155c.107.074.148.108.195.14.047.03.13.104.304.072.174-.033.241-.104.241-.104s.038-.033-.03-.058m-1.713.613c.057-.09.067-.309.067-.309l-.05-.04c-.027-.024-.082-.11-.082-.11s-.035.075-.072.145a.526.526 0 01-.135.17c-.079.075-.185.149-.23.229-.046.08-.021.24.009.294.03.054.071.036.116-.007.044-.045.058-.056.135-.125.078-.068.184-.156.242-.247"/><path fill="#D4AF3A" d="M11.241 14.704c-.06-.034-.113-.08-.158-.119a2.094 2.094 0 00-.174-.124.35.35 0 01-.113-.127.321.321 0 01-.032-.063s-.053-.006-.076-.036c-.024-.03-.044-.047-.044-.047s.01.175.003.22c-.012.07-.049.095-.111.102 0 0 .084.152.2.228.116.077.274.207.385.236.112.03.12.023.189.028.069.004.084-.025.064-.116a.266.266 0 00-.133-.182"/><path fill="#D4AF3A" d="M10.765 14.795a.776.776 0 01-.211-.184c-.054-.071-.056-.107-.056-.107s-.065-.02-.103-.103a2.116 2.116 0 01-.053-.128l-.05.21c-.018.07-.065.132-.065.132s.07.267.28.384c.21.118.362.142.415.17.054.028.091.07.118.033.026-.038.022-.125-.034-.208a.812.812 0 00-.24-.199"/><path fill="#D4AF3A" d="M10.11 15.214a.696.696 0 01-.067-.092s-.017.03-.067.092c-.05.06-.168.157-.168.157s.01.162.067.249a.633.633 0 00.168.192.62.62 0 00.168-.192c.056-.087.067-.25.067-.25s-.118-.095-.168-.156m.298-.253a.556.556 0 01-.135-.17c-.037-.071-.072-.146-.072-.146s-.055.087-.083.112a.865.865 0 01-.05.04s.01.218.068.308.165.179.241.247c.077.069.09.08.135.124.044.045.086.062.116.008.03-.054.055-.214.01-.294-.045-.08-.151-.154-.23-.23"/><path fill="#016CA7" d="M13.297 12.985a1.276 1.276 0 01-.083-.019s.039.151.1.234c.063.084.131.126.261.128.13.002.227-.072.243-.13a.404.404 0 01.043-.102s-.235-.032-.33-.055c-.095-.024-.174-.045-.234-.056m.392-.365c.038.007.033-.01.046-.062l.08-.318s-.169-.007-.316.068a.503.503 0 00-.212.21s.038.017.138.04c.101.023.227.055.264.062m.764.126a.569.569 0 00-.274-.383s-.06.22-.077.29c-.018.07-.018.067.033.08.051.014.216.052.25.061.033.01.089.04.068-.048m-.131.479c-.047-.012-.067-.03-.067-.03s-.02-.003-.036.028c-.015.03-.076.07-.076.07s-.084.022-.096.083c-.011.06.03.08.07.074.04-.008.138-.028.18-.081.042-.054.049-.084.058-.105.01-.02.014-.027-.033-.039"/><path fill="#B96B29" d="M10.018 15.412c.004.037.001.132.023.132s.02-.095.024-.132c.005-.037.006-.128.006-.128h-.06s.002.09.007.128m.32-.342a.479.479 0 01-.106-.116s-.01.02.003.056a.317.317 0 00.099.117c.032.022.122.113.122.113s.023.03.034.049c.01.02.036.036.043.028.008-.008-.007-.042-.03-.092a.526.526 0 00-.164-.155m.422-.113c-.035-.018-.069-.03-.11-.058-.04-.03-.112-.11-.143-.123-.031-.013-.052-.024-.033.015.02.04.057.061.099.1.043.037.068.058.087.06.02.002.04.008.04.008s.048.03.062.036c.014.006.028.006.03-.002.002-.008.002-.018-.032-.036m.316-.194c-.028-.017-.086-.05-.113-.07-.026-.022-.048-.037-.075-.061l-.105-.1c-.021-.018-.036-.02-.05-.006-.012.013.011.029.034.054a.951.951 0 00.11.103.435.435 0 00.063.039s.067.03.091.038c.024.008.046.02.046.02s.028-.001 0-.017m.198-.302a.306.306 0 01-.1-.088c-.021-.028-.05-.04-.077-.07a.748.748 0 01-.046-.055l-.032.02s.05.062.088.097c.038.034.052.053.11.09a.266.266 0 00.072.036s.033.02.043.012c.01-.008-.01-.016-.058-.042m-1.53.609a.547.547 0 00-.165.155c-.023.05-.038.084-.03.092.007.008.032-.008.043-.028.011-.02.035-.05.035-.05s.089-.09.122-.112a.329.329 0 00.099-.117c.012-.036.003-.056.003-.056s-.056.083-.107.116m-.136-.28c.019-.038-.002-.027-.033-.014-.032.013-.102.093-.143.123-.04.029-.075.04-.11.058-.034.018-.034.028-.032.036.001.008.015.008.03.002l.062-.036s.02-.006.039-.008.046-.023.088-.06c.042-.039.08-.061.099-.1m-.293-.211c.022-.025.045-.042.033-.054-.013-.013-.029-.011-.05.006l-.104.1c-.027.024-.05.039-.076.06-.027.022-.085.054-.113.07-.028.017-.001.02-.001.02s.022-.013.045-.02c.024-.009.091-.04.091-.04s.027-.012.063-.038a.97.97 0 00.112-.104m-.254-.313l-.032-.02s-.019.026-.045.056c-.027.03-.057.04-.077.069a.31.31 0 01-.1.088c-.05.026-.067.034-.058.043.009.007.042-.012.042-.012s.013-.001.071-.037c.058-.036.072-.055.11-.09.038-.034.089-.097.089-.097m.728-.744l.014-.031s.024-.081.024-.098-.008-.036-.028.006c-.02.042-.021.082-.025.1-.004.019-.027.081-.02.087.006.005.021-.033.035-.064m-.235-.196l.02-.073s.012-.042.005-.044c-.007-.003-.038.026-.06.097-.02.071-.052.174-.046.178a.59.59 0 00.081-.158m-.297-.056c.03-.066.065-.145.094-.186.028-.04.048-.086.048-.086s-.075.071-.105.121-.048.1-.062.153c-.013.055-.007.063.025-.002m1.034.252c.014.031.03.069.036.063.007-.005-.016-.068-.02-.086-.004-.019-.005-.06-.025-.101-.02-.042-.028-.022-.028-.006 0 .017.024.098.024.098l.013.032m.234-.196a.602.602 0 00.082.158.95.95 0 00-.047-.178c-.022-.072-.055-.126-.062-.123-.007.003.005.044.005.044s.01.056.022.099m.298-.056c.03.066.037.057.024.003a.545.545 0 00-.062-.153c-.03-.05-.104-.121-.104-.121s.02.046.048.086c.028.04.063.12.094.185m-.787.416c.006.001.007-.016.009-.048.001-.033.005-.11.013-.157.007-.046-.012-.043-.024-.04-.011.002-.018.037-.018.058l.005.16c0 .024.008.025.015.027M8.883 7.158c-.022-.023-.072-.04-.024.015.048.056.11.125.13.182.017.057.029.128-.003.113-.03-.015-.053-.015-.086-.044a.53.53 0 00-.121-.084c-.026-.008-.072 0-.035.042a.906.906 0 00.147.136c.07.054.11.076.147.103.037.027.074.05.074.05s-.033-.23-.094-.331a1.045 1.045 0 00-.135-.182m.364 1.218s-.014-.28-.014-.323c0-.042-.025-.03-.025-.03l-.03.014.058.41c.006.045.027.041.038.04-.022-.013-.026-.098-.027-.11m.236-.467c-.06-.072-.066-.088-.066-.088s-.02.021-.003.052a.623.623 0 00.16.142c.059.034.117.045.117.045l-.004-.013c.001 0-.144-.068-.204-.138m1.82-.57a.551.551 0 00-.12.084c-.033.029-.055.029-.087.044-.031.015-.02-.056-.001-.113.018-.057.08-.126.129-.182.048-.055-.002-.038-.024-.015s-.073.08-.134.182c-.061.102-.094.33-.094.33s.036-.022.073-.05c.037-.026.077-.05.147-.102a.906.906 0 00.148-.136c.035-.042-.01-.05-.036-.042m-.455.713c0 .043-.015.323-.015.323 0 .013-.005.099-.026.11.01.001.032.005.038-.039l.058-.411-.03-.013s-.025-.012-.025.03m-.25-.143c-.06.071-.206.139-.206.139l-.003.012s.058-.012.116-.045a.622.622 0 00.16-.142c.018-.03-.003-.052-.003-.052s-.005.016-.065.088m.83 2.13c-.06-.377.149-.709.149-.709l-.407-.494c-.313.182-.748.158-1.127-.023-.378.18-.814.205-1.127.023l-.405.494s.209.332.148.709c-.06.377-.187.973-.155 1.215.032.243.196.525.367.673.169.147.421.272.6.338a1.724 1.724 0 01.573.386s.055-.057.137-.124c.082-.066.256-.195.436-.262.178-.066.43-.19.6-.338.17-.148.335-.43.367-.673.03-.242-.097-.84-.157-1.215"/><path fill="#016CA7" d="M11.388 10.085c-.058-.407.118-.734.118-.734l-.367-.425c-.31.166-.687.123-1.097-.025-.41.148-.787.19-1.097.025l-.367.424s.177.328.118.734c-.059.407-.149.867-.131 1.137l.005.057h.334s.02-.024.056-.04a.169.169 0 00.049-.028s.007-.07.048-.085c.04-.015.058-.015.074-.015.016 0 .028-.004.048-.024s.072-.07.095-.14c.023-.07.037-.098.037-.144 0-.046.016-.12.016-.12s-.009-.022-.042-.01c-.034.014-.04-.021-.043-.056a.294.294 0 01.018-.14l.026-.045-.014-.056s-.212.045-.25-.127c-.037-.172-.044-.255-.05-.273-.005-.019-.01-.028-.038-.027-.028.002-.089-.018-.131-.107-.043-.089-.046-.125-.034-.16.012-.035.035-.022.043-.011.007.011.064.096.087.072.023-.024.01-.024-.022-.09-.032-.067-.021-.09-.017-.123s-.01-.077-.01-.096c0-.018.019-.033.038-.023.02.01.037.023.046.035.009.01.012.027.03.016.017-.011.006-.072.006-.092 0-.02.023-.035.052-.018a.087.087 0 01.042.07c0 .022.002.043.012.043.011 0 .023-.034.025-.056.001-.022.014-.056.033-.028.02.028.027.069.02.111-.007.042.007.021-.007.095-.013.074-.02.107-.019.162a.386.386 0 00.03.155c.027.068.047.148.098.15h.063s.055-.11.098-.136c.042-.026.102-.029.145-.034.042-.006.06-.019.06-.03 0-.01-.015-.015-.066-.022-.05-.007-.094-.02-.095-.061-.002-.04.008-.075-.025-.078-.034-.001-.117-.03-.147-.086-.03-.057-.023-.07-.019-.102.004-.032.043-.094.067-.035.026.06.04.067.062.08.022.012.05.016.035-.024a.214.214 0 01-.02-.096c.004-.03.023-.043.046-.049.023-.005.093-.028.127-.035.036-.007.038-.01.038-.01s.004-.027.05-.041a.315.315 0 01.11-.017c.033 0 .057.006.101-.017a.206.206 0 01.108-.023c.028.001.05.012.071.027.021.015.014.035.014.056 0 .02.004.032.034.032.03 0 .057 0 .085.01.028.012.067.029.042.06-.024.031-.026.066-.042.064-.016-.002-.014.016-.022.028-.006.01-.012.02.006.031.017.011.019.023.044.046.024.024.062.05.024.09-.037.038-.102.069-.102.069s-.037.018.005.044c.043.026.062.08.078.09.016.009.032.023.043.029.01.005.01.043.01.043s-.024.016-.056.029c-.032.013-.065.028-.095.028s-.046 0-.034.03c.013.028.034.06.04.077a.792.792 0 01.011.046s.05.01.094.01c.045 0 .064.003.161-.009.098-.01.126-.015.22-.004.094.012.107.008.133.017l.05.022s.132-.001.204-.018c.073-.017.09-.065.08-.09-.01-.026-.009-.065-.136-.084-.128-.018-.179-.01-.28-.031-.1-.021-.258-.074-.286-.205-.028-.131.074-.187.126-.212.051-.026.162-.067.214-.089a.472.472 0 01.244-.03c.1.016.156.043.195.019.039-.024.07-.006.063.03-.007.038-.046.114-.157.149a.64.64 0 01-.318.018c-.073-.02-.128-.05-.172-.034-.044.017-.094.074-.046.142.049.069.293.09.358.097.065.007.307-.012.376.114.069.125.014.266-.067.297-.081.031-.15.052-.212.062l-.062.009s.028.067.028.094c0 .028-.003.08.027.1.03.02.073.035.124.029.05-.006.113.032.116.08.004.047.018.114.023.21.006.096 0 .175 0 .175s-.004.037-.016.072c-.012.035-.076.172-.076.172h.356a.715.715 0 00.006-.057c.017-.269-.073-.73-.132-1.136"/><path fill="#6D8C3E" d="M8.613 11.46c.07.207.213.417.433.554.304.19.436.166.723.36.288.195.27.227.273.227.004 0-.014-.032.273-.227.287-.194.419-.169.723-.36.22-.137.363-.348.433-.555H8.613z"/><path fill="#D4AF3A" d="M9.336 10.368c.025.061.089-.035.148-.112s.056-.018.049.045a.305.305 0 00.039.173c.023.043.042.018.052-.013.01-.03.018-.094.038-.124s.038-.004.04.023a.293.293 0 00.063.12c.03.034.043-.013.053-.056.01-.042.021-.107.029-.134.007-.026.035-.003.035-.003l.059.058c.039.04.042-.022.046-.052.004-.031-.006-.098.006-.108.012-.01.045.014.096.04.05.027.048-.024.042-.053a.29.29 0 00-.076-.13c-.041-.036-.046-.08-.033-.098.014-.018.063-.002.093-.006.032-.004.047-.008.07-.012.024-.004.024-.028.024-.028s-.017-.03-.05-.061c-.034-.031-.053-.055-.094-.065-.041-.01-.098 0-.098 0l-.006-.012c-.006-.012-.017-.012-.025 0-.007.012-.027.028-.043.042-.015.015-.025.023-.035.016-.01-.006.008-.02.008-.02s.021-.016.041-.057.025-.08.01-.098c-.015-.018-.059 0-.082 0-.022 0-.037.004-.038-.008-.003-.012.023-.006.052-.01.03-.004.047-.04.057-.072.01-.03.017-.026.035-.008.017.019.033.015.036.002a.445.445 0 01.04-.073c.019-.03.03-.073.01-.102-.022-.028-.075-.024-.096-.006-.022.018-.035.036-.041.08-.007.045-.018.022-.018.007 0-.014-.018-.036-.01-.054.008-.019 0-.04 0-.04s-.004-.038-.045-.046a.326.326 0 00-.129.012c-.041.01-.033.047-.033.047s-.03.001-.064.006c-.032.004-.071.018-.103.026-.031.008-.042.012-.042.029 0 .016.006.043.006.043s.025 0 .039.007c.013.008.006.023-.01.029-.016.006-.022.008-.022.029 0 .02.008.024.024.024.015 0 .049 0 .088.018.039.019.049.055.045.076-.004.02-.059.047-.086.047-.026 0-.035.006-.035.024 0 .018.033.017.033.017s.033.001.098.01c.064.008.074.022.103.05.029.026.007.032-.006.04-.014.008-.036.026-.057.035-.021.008-.035.024-.055.028-.02.004-.068.003-.158.04-.09.036-.12.158-.12.158s.011-.004.052-.026c.042-.023.092-.047.138-.077.047-.03.047.014.024.057-.024.043.022.034.035.022a.403.403 0 01.076-.05c.045-.024.03.015.03.015s-.014.029-.018.095c-.004.068.064.004.095-.038.032-.043.045 0 .022.049-.024.049-.068.087-.094.087-.025 0-.045-.028-.047-.044-.002-.017.008-.066-.007-.077-.016-.012-.06.002-.094.022-.033.02-.041.004-.049-.014-.008-.019.011-.025.004-.037-.008-.012-.025 0-.04.006l-.104.058c-.06.032-.057.05-.057.097 0 .046.012.054.037.115zm-.202-.91c.001-.017-.006-.036-.006-.036s0 .02-.008.034c-.008.012-.007.008.002.02.008.009.01 0 .012-.017zm-.13-.021c0 .015.002.023.016.015.014-.007.02-.026.012-.04a.073.073 0 00-.022-.025L9 9.379s.006.042.005.058zm-.09.075c.016-.007.028-.011.016-.029-.012-.018-.022-.037-.034-.04-.013-.004-.022-.002-.022-.002s.013.032.016.051c.004.02.01.027.025.02zm-.07.25s-.02-.017-.027-.025l-.02-.029s-.004.009-.004.03c0 .022.022.045.022.045l.028-.022zm.018.094c.033.035.057.046.107.04.05-.005.062.033.07.074.01.041.01.138.046.228s.156.095.156.095a.562.562 0 01.036-.149c.003-.008.02-.048-.024-.048s-.042-.018-.067-.061a.849.849 0 01-.088-.231.615.615 0 01.022-.222c.012-.04.014-.067 0-.073-.014-.007-.041 0-.041 0s.01.034-.002.04c-.012.005-.022-.019-.03-.043-.01-.026-.02-.022-.037-.02-.017.001-.017.018-.005.036.012.017.005.05.005.05s-.038-.03-.053-.036c-.016-.007-.052.007-.055.028a.151.151 0 00.046.106c.033.028.033.088.022.115-.01.027-.058.023-.068.011a.028.028 0 00-.041-.003c-.002 0-.003.002-.003.003-.015.015-.029.024.004.06z"/><path fill="#D4AF3A" d="M8.97 11.253c-.012.004-.02.016-.025.025h.097a.066.066 0 00-.009-.025c-.011-.015-.043-.007-.063 0m.228.008a.04.04 0 00.017.017h.148c.025-.007.025-.031.027-.048.001-.02.016-.076.037-.18.02-.102.055-.176.07-.217.014-.041-.015-.055-.025-.08a.673.673 0 01-.03-.096c-.005-.023-.04-.02-.06-.018-.019.001-.022.033-.025.064a3.24 3.24 0 01-.03.2.53.53 0 01-.124.205c-.024.023-.043.032-.059.032s-.05 0-.068.011a.092.092 0 00-.037.063c-.001.023.034.035.034.035s.028-.017.038-.03c.01-.014.033-.018.057-.022.024-.005.027.004.018.016-.009.012-.006.015.012.048m.33-1.588c.031-.004.045-.02.045-.037 0-.019-.016-.038-.055-.034-.097.008-.19-.027-.208-.127 0 0-.033.062.027.132s.16.07.191.066m.52-.14c-.039 0-.082.06-.099.071-.016.011-.007.021-.007.021a.263.263 0 00.022.115s.006.002.03.002c.022 0 .036-.012.058-.028a.141.141 0 01.07-.03.213.213 0 00.08-.03c.035-.02-.018-.052-.055-.084a.132.132 0 00-.099-.037m.012-.038c.014 0 .03-.008.03-.008s.025-.014.048-.022c.022-.009.032-.012.045-.04.014-.029-.015-.029-.055-.04s-.06.003-.064.019c-.004.016-.004.033-.02.064-.016.03.003.027.016.027m-.14-.144a.264.264 0 01.036-.018s.029-.007.055-.011c.027-.004.022-.02.016-.033-.006-.014-.016-.018-.05-.018-.035 0-.057.018-.077.026-.02.009-.042.014-.042.014l.017.026c.013.02.032.023.045.014"/><path fill="#D4AF3A" d="M10.096 11.255c0-.014-.006-.027-.016-.026-.01.002-.026.02-.04.03a.066.066 0 00-.018.02h.066a.068.068 0 00.008-.024m-.087-.05c-.012 0-.022.01-.038.023a.065.065 0 00-.024.044v.006h.045a.01.01 0 00.003-.006c0-.013.005-.025.023-.042.02-.017.001-.025-.01-.025m-.906.045a.102.102 0 00-.034.028h.105c.004-.01.005-.023-.007-.035-.025-.019-.048-.002-.064.007"/><path fill="#D4AF3A" d="M10.499 10.754c.031-.024.027-.03.028-.056.001-.025.001-.032-.012-.042a.214.214 0 00-.104-.03.364.364 0 00-.158.033c-.032.022-.047.102-.047.144 0 .042.006.048.018.048.011 0 .03-.03.03-.03l.067.096c.025.04.014.056.003.086-.012.03-.053.11-.086.128-.033.017-.058.001-.097-.006-.039-.006-.06.006-.083.029-.023.024-.001.042.013.042.014 0 .033-.002.048.018.011.014.003.045-.002.063h.193c.033-.015.056-.063.065-.088.01-.029.052-.067.071-.087.02-.02.023-.033.023-.076a.191.191 0 00-.026-.098.181.181 0 01-.022-.099c.005-.024.046-.051.078-.075"/><path fill="#D4AF3A" d="M10.18 10.252c.02.033.01.04-.018.046a.323.323 0 01-.102.008c-.043-.004-.042.002-.043.025-.002.022-.005.07-.03.105-.026.035-.057.022-.077.008-.02-.013-.03-.01-.037.016-.007.025-.02.042-.041.08-.02.037-.034.038-.049.035-.014-.004-.027-.027-.041-.028-.015-.002-.038-.031-.059-.068-.021-.036-.033.004-.047.035-.015.031-.03.054-.057.05-.027-.004-.059-.058-.075-.09-.016-.033-.025-.064-.05-.063-.024.002-.063.054-.09.068-.027.013-.033.008-.046-.01-.012-.017-.027.007-.043.048-.016.042.001.077.023.089.021.01.065-.022.094-.042.029-.02.042-.015.072-.015.03 0 .028.052.041.126.013.076.056.085.056.085s.014.013.047-.045c.033-.058.036-.114.067-.114.032 0 .034.007.065.052s.058.079.076.045c.018-.034.033-.084.054-.101.02-.018.04-.023.018.01-.021.033-.031.068.013.054.044-.013.214-.085.283-.1 0 0 .08-.013.173-.018.093-.005.116-.011.152-.011.036 0 .037-.004.04-.029.002-.025-.017-.02-.085-.02-.067 0-.114.009-.162.017-.047.007-.068.006-.06-.006.008-.013.022-.022.076-.03.054-.01.165-.016.223-.017.058-.002.04.017.035.058-.005.04.005.099.008.136.004.038.005.05.036.102.032.052.14.085.171.103.031.017.027 0 .025-.032-.001-.03.025-.03.052-.013.028.016.073.03.106.039.033.008.038.015.038.032 0 .018.003.057.007.093s.003.048-.012.07c-.014.023-.076.087-.076.087s-.027 0-.086.015c-.06.015-.078.044-.084.07-.006.025.011.032.013.042a.14.14 0 010 .03h.014l.021-.032c.021-.028.073-.034.107-.018.022.011.022.035.02.05h.134c.019-.036.062-.124.073-.15a.237.237 0 00.024-.102 1.785 1.785 0 00-.002-.236c-.009-.01.002-.04 0-.09-.002-.05 0-.088-.09-.097-.089-.009-.116-.048-.147-.08-.03-.03-.022-.103-.047-.191-.024-.089-.083-.102-.187-.123a.815.815 0 00-.26-.016c-.078.008-.176.019-.231.013-.05-.004-.042.013-.023.045"/><path fill="#D4AF3A" d="M10.525 9.875c.092.063.381.066.518.095.136.028.126.136.085.193-.042.058-.234.064-.268.069.018.013.046.054.046.054l.079-.006a.402.402 0 00.227-.08c.069-.06.064-.156.003-.221-.06-.066-.161-.072-.264-.084-.103-.012-.184-.02-.299-.04-.115-.02-.171-.068-.171-.138s.062-.106.107-.12c.045-.013.117-.033.181-.008.064.025.14.028.266.012.127-.017.156-.109.156-.109s-.016.009-.08.01c-.064.002-.11-.028-.228-.03-.117-.001-.158.042-.213.062-.054.02-.2.035-.243.133-.043.099.006.144.098.208zm-1.95 1.437l.02.091h2.893a.79.79 0 00.02-.09H8.575zm2.275-.06a.092.092 0 00-.03.026h.092v-.01c-.003-.016-.03-.032-.062-.016zm-.163.007a.064.064 0 00-.019.02h.091c0-.01-.002-.02-.01-.028-.013-.017-.04-.007-.062.008z"/><path fill="#B96B29" d="M9.764 9.365c.03 0 .055.025.055.056 0 .03-.024.055-.055.055a.055.055 0 01-.054-.055c0-.031.024-.056.054-.056M10.937 9.516c-.073-.006-.167.013-.167.013s.017.016.042.014a.516.516 0 01.138.01c.07.014.122-.021.122-.021s-.063-.01-.135-.016"/><path fill="#D4AF3A" d="M13.257 12.89c.058.014.535.108.575.118.04.01.073.018.085.007.011-.011.017-.019.06-.035.043-.016.04-.06.04-.06s.012-.043.016-.084c.004-.041.027-.055.073-.005.047.051.056.126.065.197.01.072.118.09.16.098.043.007.063-.007.087-.049a.557.557 0 00.044-.178c.007-.053.003-.049-.05-.063-.054-.013-.301-.071-.346-.083-.045-.012-.036-.042-.03-.074a19.1 19.1 0 01.105-.36.682.682 0 00-.285-.085s-.071.334-.085.385c-.013.05-.044.05-.096.041-.051-.01-.42-.1-.42-.1l-.03.072a.62.62 0 00-.042.202c0 .043.016.042.074.055"/><path fill="#D4AF3A" d="M13.88 11.994c.019-.002.026-.005.083-.012.056-.008.036.049.026.07-.01.022-.028.066-.05.106-.024.042.007.048.023.054.016.007.04.01.085.023.046.012.038-.023.038-.04.002-.018.004-.112.009-.145.005-.034.034-.025.046-.019l.063.036c.024.013.034-.001.04-.015.005-.014.016-.04.026-.077.01-.037-.013-.03-.035-.03h-.091c-.037-.002-.014-.04-.014-.04l.048-.08c.021-.036.014-.04-.007-.047l-.105-.027c-.018-.004-.027-.002-.027.01l-.003.106c0 .026-.002.042-.034.042-.032.002-.052-.018-.078-.047-.026-.03-.037-.019-.04-.007l-.028.12c-.004.024.007.022.025.02m.643 1.196c-.05-.034-.086-.042-.111.02-.026.062-.027.153-.092.217-.064.064-.153.131-.243.125-.09-.007-.141-.029-.12-.136.022-.106.158-.14.19-.195a.126.126 0 00-.023-.162c-.047-.042-.115-.051-.135-.038a.304.304 0 00-.102.142c-.027.08-.045.144-.104.196a.439.439 0 01-.333.073c-.12-.029-.162-.067-.207-.189-.045-.122-.098-.325-.12-.347-.025-.022-.054-.04-.105-.002-.052.038-.056.093-.062.138-.006.044 0 .096.051.16.051.065.105.129.124.195.019.067.077.17-.005.173-.08.005-.118.007-.18-.055-.061-.062-.302-.233-.368-.289a1.095 1.095 0 00-.094-.073.614.614 0 01-.335-.129s.064.172.077.236c.013.064.01.1.01.1s.244.129.34.178c.096.049.29.164.384.225.094.06.173.153.34.118.165-.036.503-.142.61-.176.11-.033.41-.11.521-.19.11-.081.121-.076.14-.156.02-.081 0-.126-.048-.16"/><path fill="#D4AF3A" d="M12.028 12.935c-.036-.04.055-.04.11-.04.054 0 .142-.031.171-.05.03-.018.079-.028.137-.057.06-.03.023-.04-.037-.055a2.539 2.539 0 01-.221-.086s-.079.043-.122.07c-.044.027-.102.064-.197.077a.825.825 0 00-.128.02c-.005.004.023.028.059.08.035.054.05.089.096.17.045.08-.008.032-.045-.018-.022-.029-.069-.096-.113-.143a.392.392 0 00-.07-.06l-.03.067v.024c0 .022-.018.13-.024.174-.006.044.01.044.044.06.033.016.099.055.277.171.177.116.244.193.244.193s.006-.05.006-.1a.816.816 0 00-.04-.267.685.685 0 00-.117-.23"/><path fill="#D4AF3A" d="M13.085 12.834c.012.002.054.016.054.016s0-.065.01-.11c.008-.043.026-.073.01-.073-.015 0-.024.014-.035.033-.012.018-.043.023-.054.076-.011.053.004.055.015.058zm1.366.271c.009.02.027.026.04.03.014.005.032.005.032-.02 0-.026.004-.058-.016-.086-.02-.028-.03-.048-.042-.007-.012.04-.023.062-.014.083zm-.391-.269s-.003.068-.01.09c-.006.024-.022.059.005.068.027.01.051.02.066.016.016-.005.01-.037 0-.065a.263.263 0 00-.041-.086l-.02-.023zm-1.641.1a.55.55 0 01-.1.032c-.025.004-.044.005-.044.005s.052.077.131.077h.226s-.137-.084-.154-.103c-.016-.02-.042-.018-.06-.01zm-.803-.258c.04.009.058.02.116.02.06 0 .084-.02.144-.02.06 0 .102-.021.2-.076.097-.054.003-.039-.065-.032a1.025 1.025 0 01-.325-.053c-.077-.03-.02-.035 0-.028.02.006.031.013.185.04.154.03.21-.008.29-.03.08-.02-.018-.032-.018-.032s-.28-.082-.419-.245a.706.706 0 01-.154-.286 1.203 1.203 0 01-.18.178c.006.022.015.06.03.094.023.054.089.126.089.126s-.083-.035-.12-.076a.437.437 0 01-.06-.096c-.092.066-.187.119-.275.162a.689.689 0 01.159.194c.048.08.004.074-.04 0a.587.587 0 00-.181-.164l-.033.016c-.059.028-.115.053-.168.076.036.03.118.114.147.157.03.047.096.091.119.124.022.032.048.069.079.108.031.04.219.258.268.34.05.083.02-.02.009-.077a4.439 4.439 0 00-.048-.2c-.017-.062.019-.036.025-.002.006.035.014.037.029.104.014.068.052.167.069.237.016.069.022.036.04.005a.818.818 0 00.051-.124c.01-.035.02-.113.02-.232.003-.119-.053-.167-.053-.184.001-.017.028-.032.07-.024z"/><path fill="#B96B29" d="M12.176 10.422c-.031-.025-.04-.027-.04-.027s-.057-.063-.078-.084c-.021-.02-.037-.035-.051-.024-.014.011.01.034.027.052a.381.381 0 00.084.064.102.102 0 01.045.03c.011.01.043.015.013-.01m.381-.247l-.026-.01s-.1-.07-.13-.093c-.029-.022-.037-.044-.05-.039-.014.005-.004.044.013.056.017.013.054.026.066.038.012.01.025.016.053.039.027.022.043.022.066.025.023.003.035-.005.008-.016m.217-.293a.482.482 0 00-.043-.02s-.048-.035-.073-.056c-.024-.02-.034-.022-.045-.013-.01.01-.004.024.026.044.032.02.085.045.106.063.02.017.058.027.064.017.007-.01-.016-.025-.035-.035m.282-.287s-.044-.036-.077-.047c-.035-.01-.062-.024-.062-.008s0 .02.026.03c.026.008.07.032.092.04.022.008.054.016.051.008-.003-.008-.03-.023-.03-.023m.036-.323c.042.008.06.02.101.02.042 0 .04-.012.017-.018l-.059-.016-.063-.018c-.017-.004-.04-.01-.045.005-.006.014.008.02.05.027m-.227-.943c.018.01.055-.045.075-.064.021-.019.064-.05.058-.062-.007-.01-.04.022-.04.022s-.021.012-.048.036c-.027.023-.063.057-.045.068m.408.173l-.039.022s-.018.015-.055.032c-.036.016-.06.027-.046.042.012.015.03-.004.052-.017.022-.013.051-.03.094-.066.043-.036.012-.023-.006-.013m-.153.4c0 .02.03.012.07.006.038-.006.089-.022.123-.029.033-.006.048-.014.045-.022-.001-.008-.063.003-.063.003l-.082.018c-.028.006-.093.003-.093.024m.324-.94c-.006-.004-.025.036-.025.036l-.097.129c-.033.042-.051.05-.043.06.008.008.018-.003.037-.026.018-.023.053-.076.079-.104.027-.028.055-.091.049-.095m-.349-.068c.057-.074.064-.088.064-.088l.069-.098c.014-.021.01-.038-.018-.004-.029.034-.112.157-.127.176-.014.018-.045.088.012.014m-.355 2.904c-.028-.014-.042-.025-.042-.025s-.071-.05-.09-.07c-.018-.018-.025-.03-.031-.014-.007.016.027.034.054.057a.599.599 0 00.092.064c.015.006.033.025.037.017.006-.008.007-.015-.02-.029m.363-.292s-.059-.011-.083-.011a.201.201 0 01-.08-.016c-.033-.013-.06-.036-.074-.017-.014.017.015.032.042.037.026.005.05.016.094.017.044.002.062-.001.087.002.025.003.034.014.039.003.002-.01-.025-.015-.025-.015m.255-.307l-.089.003a.52.52 0 01-.105-.014c-.03-.006-.048-.013-.056-.005-.007.008.003.022.035.027.03.005.073.02.138.011.065-.008.11-.006.11-.014.001-.008-.033-.008-.033-.008m.162-.432c-.053 0-.097-.001-.099.016-.002.018.004.026.039.024a.467.467 0 00.11-.014c.026-.01.054-.022.05-.031-.003-.007-.047.005-.1.005m.118-.407l-.06.007c-.024.001-.02.008-.02.02 0 .013.009.018.02.011a.186.186 0 01.052-.016c.018-.003.062-.022.059-.032-.004-.009-.051.01-.051.01m.126-.45c-.005-.005-.021.007-.035.022a1.078 1.078 0 01-.139.1c-.024.012-.033.022-.027.035.006.012.05.003.078-.03a.372.372 0 01.068-.064c.015-.007.06-.058.055-.064m-.172-.223c.011.01.025-.011.043-.032l.05-.052c.017-.016.051-.06.051-.06s-.026.014-.047.031a.29.29 0 00-.053.055c-.016.023-.054.047-.044.058m-.025-.354c.014-.018.032-.049.062-.085.03-.037.006-.029-.009-.013s-.041.06-.041.06l-.03.033c-.017.022-.027.03-.019.038.007.008.024-.016.037-.033m-1.428 2.98a.289.289 0 01-.048-.026s-.074-.058-.083-.069c-.01-.011-.014-.017-.023-.008-.01.01.001.016.026.04a.678.678 0 00.128.086c.026.008.032.002.032.002s-.007-.016-.032-.026m.357-.259s-.059-.014-.104-.05c-.045-.036-.059-.075-.066-.053-.008.022.016.039.034.051.017.013.063.049.098.055.034.007.066.018.066.007 0-.012-.028-.01-.028-.01m-4.532-.65a.383.383 0 00.083-.065c.019-.017.042-.04.028-.051-.014-.012-.03.003-.051.023-.022.02-.079.084-.079.084s-.008.002-.039.027c-.031.026.002.021.012.01a.16.16 0 01.046-.029m-.312-.274c.012-.011.05-.024.067-.038.016-.012.027-.051.013-.056-.013-.005-.021.016-.05.039-.03.023-.13.092-.13.092l-.026.011c-.028.011-.016.02.007.016.023-.003.04-.003.067-.025.028-.023.04-.028.052-.04m-.21-.289c.03-.019.037-.034.026-.044-.011-.01-.02-.007-.045.013l-.073.057-.043.019c-.019.01-.042.025-.036.035.006.01.045 0 .065-.017.021-.018.075-.044.106-.063m-.447-.219c-.003.008.03 0 .052-.008.02-.008.066-.032.092-.04.027-.008.027-.013.027-.03 0-.016-.029-.003-.062.008-.035.011-.077.047-.077.047S7 9.61 6.996 9.62m-.064-.361l-.06.016c-.022.006-.024.017.018.017.04 0 .058-.01.1-.019.042-.008.056-.012.05-.027-.006-.014-.028-.01-.045-.004a8.553 8.553 0 01-.063.017m.24-.996c-.026-.023-.048-.036-.048-.036s-.033-.032-.04-.022c-.005.01.038.043.058.062.02.02.057.075.076.064.017-.01-.02-.045-.045-.068m-.37.255a.57.57 0 00.094.066c.022.012.04.031.054.016.012-.015-.01-.025-.047-.042-.036-.016-.055-.031-.055-.031s-.02-.01-.039-.022c-.019-.011-.05-.024-.007.013m.16.386c0-.021-.066-.018-.095-.024l-.081-.018s-.062-.01-.064-.003c-.001.008.013.016.046.022.034.007.085.023.123.029.039.006.07.015.07-.006m-.159-.716c.009-.008-.01-.016-.042-.059l-.098-.13s-.018-.04-.024-.036c-.006.004.022.068.049.095.026.028.06.081.079.104.018.025.028.035.036.026m.121-.38s.006.015.063.088c.058.075.027.004.013-.015-.015-.019-.098-.142-.127-.176-.028-.034-.033-.016-.018.004.014.022.069.099.069.099m.55 2.897c-.018.019-.09.069-.09.069s-.013.011-.041.025c-.028.015-.026.02-.022.03.005.007.022-.012.038-.018a.648.648 0 00.093-.064c.026-.023.06-.04.054-.056-.008-.017-.014-.005-.032.014m-.33-.224a.203.203 0 01-.08.016c-.025 0-.084.011-.084.011s-.027.003-.022.014c.004.011.013 0 .038-.003s.044 0 .087-.001c.043-.002.068-.013.094-.018.026-.005.056-.019.042-.037-.015-.017-.043.005-.075.018m-.17-.296c-.008-.008-.026-.001-.056.005a.506.506 0 01-.105.014l-.088-.003s-.034 0-.034.008.045.006.11.014c.064.008.108-.006.138-.01.031-.006.042-.02.035-.028m-.412-.416c-.052 0-.097-.012-.1-.004-.003.008.024.02.05.03a.46.46 0 00.11.015c.035.001.041-.007.04-.024-.002-.018-.047-.017-.1-.017m-.036-.379c0-.013.003-.02-.022-.02l-.058-.007s-.048-.02-.051-.01c-.003.01.04.03.058.033.019.003.042.01.053.016.01.005.02 0 .02-.012m-.086-.35c.03.033.073.042.079.03.006-.013-.003-.024-.027-.036a.741.741 0 01-.14-.1c-.013-.014-.03-.027-.034-.022-.006.005.04.057.055.065a.361.361 0 01.067.063m-.044-.436c.017.016.032.03.05.052.019.02.032.043.043.032.01-.011-.027-.035-.044-.058a.289.289 0 00-.053-.055c-.021-.017-.048-.032-.048-.032s.035.045.052.061m.118-.27c.014.017.03.041.038.033s-.001-.016-.02-.038l-.028-.033s-.026-.043-.041-.06c-.016-.016-.039-.024-.01.013.03.036.048.067.061.085m1.56 2.884c-.008.011-.082.07-.082.07s-.023.015-.048.025c-.025.01-.03.024-.03.024s.004.007.03-.001a.599.599 0 00.128-.088c.024-.023.036-.028.026-.039-.01-.008-.014-.002-.023.01m-.384-.215c-.045.036-.104.05-.104.05s-.028-.002-.028.01c0 .01.033 0 .067-.007.034-.006.08-.042.097-.055.017-.012.042-.029.035-.051-.009-.022-.023.017-.067.053"/><path fill="#D4AF3A" d="M10.806 6.345a1.52 1.52 0 00-.138-.098c-.025-.013-.005-.048-.001-.062.004-.015.112-.046.172-.063.06-.016.05-.03.05-.03s-.034-.041-.25-.066c-.217-.025-.597-.02-.597-.02s-.38-.005-.596.02c-.217.025-.251.067-.251.067s-.01.012.05.029c.06.016.168.048.172.063.004.014.024.049-.001.062-.025.012-.12.084-.137.098-.017.014-.019.037.008.039.027.001.027 0 .101-.015.223-.046.433-.058.656-.061.222.003.432.015.655.061.075.016.075.016.101.015.024-.001.022-.025.006-.04m-.765.183c-.21.004-.457-.026-.593-.079l-.145.033c.223.088.411.122.738.126.327-.003.514-.038.737-.126l-.145-.033c-.135.053-.382.083-.592.08"/><path fill="#D4AF3A" d="M10.56 6.44c-.15-.017-.243-.037-.519-.035-.275.003-.369.018-.518.036.094.039.245.059.518.059s.425-.02.518-.06zm.402-.215l-.095-.078-.148.04.126.092.117-.054zm-1.6-.039l-.148-.04-.096.08.118.052.126-.092z"/><path fill="#016CA7" d="M10.977 10.93c-.006-.028-.003-.032-.019-.036-.015-.004-.041-.008-.064-.018-.022-.01-.02.053-.02.053s-.053.007-.113-.001c-.06-.007-.132-.065-.157-.083-.025-.018-.052-.06-.052-.06s-.019.018-.038.03c-.019.01-.03.05-.033.09-.004.04.044.087.047.127.004.04-.041.118-.064.15-.015.023-.035.07-.047.096h.22a.115.115 0 01.023-.038c.022-.023.06-.028.06-.028s0-.01.009-.031c.008-.02.03-.046.085-.068.055-.023.12-.027.12-.027s.026-.022.045-.053c.019-.03.004-.077-.002-.104m-.726-.012c-.017-.03-.023-.027-.043-.008-.02.018-.04-.045-.042-.085-.003-.04.015-.16.015-.16s-.099.022-.152.04c-.052.018-.104.024-.146.034-.043.01-.066.02-.089.016a.594.594 0 00-.108-.008c-.038 0-.035.008-.073.048a.336.336 0 00-.079.134.803.803 0 00-.05.23.64.64 0 01-.025.12h.453a.79.79 0 01.019-.048.114.114 0 01.055-.053c.017-.009.033-.009.04-.03.01-.021.032-.038.056-.049.023-.01.065-.004.103.007.038.01.05-.016.062-.031.01-.015.015-.036.035-.063.02-.027.006-.052.006-.052s-.02-.013-.037-.042"/><path fill="#D4AF3A" d="M10.25 4.487h-.155v-.135a.219.219 0 00-.086 0v.135h-.16a.189.189 0 00-.007.078h.415l.001-.023a.18.18 0 00-.008-.055zm-.245-.277l-.007.11.116-.009-.01-.103.123.017.006-.101-.13.012.022-.11-.144-.002.025.11-.126-.011v.102l.125-.015z"/><path fill="#1D5E91" d="M9.964 4.364a.201.201 0 00-.102.093h.102v-.093zm.17 0v.093h.103a.2.2 0 00-.102-.093zm-.085.372c.093 0 .171-.056.198-.133h-.396a.21.21 0 00.198.133z"/><path fill="#B96B29" d="M10.163 6.089c-.039-.02-.122-.057-.122-.057s-.08.04-.123.064c-.044.022-.038.016-.051.049-.013.032.001.044.02.053l.155.082.169-.082c.033-.016.026-.032.017-.057-.009-.025-.027-.033-.065-.052M10.443 6.05a.12.12 0 01.12.12.12.12 0 01-.12.12.12.12 0 01-.12-.12.12.12 0 01.12-.12M9.639 6.05a.12.12 0 01.12.12.12.12 0 01-.12.12.12.12 0 01-.12-.12.12.12 0 01.12-.12"/><path fill="#D4AF3A" d="M10.04 6.064l-.13.066.134.07.133-.07zM10.443 6.072c.04 0 .072.032.072.072a.072.072 0 01-.145 0c0-.04.033-.072.073-.072M9.639 6.072c.04 0 .072.032.072.072a.072.072 0 01-.145 0c0-.04.033-.072.073-.072M9.388 5.757c.031.012.071.006.071.006s.013-.055-.017-.082c-.03-.027-.056-.046-.073-.065l-.022-.023s0 .047-.002.077c-.001.03.012.075.043.087M9.452 5.796c.012 0 .022.01.022.021 0 .012-.01.022-.022.022a.022.022 0 01-.022-.022c0-.012.01-.021.022-.021M9.288 5.794c-.01.014-.03.035-.03.035s.025 0 .045.016c.02.015.046.028.07.025a.035.035 0 00.028-.043c-.005-.017-.016-.034-.054-.049-.04-.015-.05.003-.06.016"/><path fill="#D4AF3A" d="M8.843 5.728a.19.19 0 00-.064-.032s-.022.06-.01.097c.012.038.039.048.07.046.032 0 .08-.018.066-.043a.196.196 0 00-.062-.068m.236.133c-.031-.012-.077-.035-.097-.037-.02 0-.047-.006-.043.031.005.038.041.056.077.057.036 0 .054-.013.076-.025.021-.01.017-.014-.013-.026m.293.08c-.076.006-.175-.08-.175-.08-.01.07-.05.105-.114.119l.006.003s.06.031.129.042c.03.005.06 0 .093-.008a.389.389 0 00.111-.036c.046-.03.032-.105.032-.105s-.007.057-.082.064M8.874 5.878c.014 0 .026.01.026.02 0 .011-.012.02-.026.02-.015 0-.026-.009-.026-.02 0-.01.011-.02.026-.02M8.945 5.597a.444.444 0 01.077-.358c.093-.142.257-.2.257-.2s.005-.011.057-.07c.052-.057.158-.13.158-.13s-.122.032-.192.055v.004c0 .05-.038.09-.085.09a.08.08 0 01-.048-.016.858.858 0 00-.197.114.09.09 0 01.013.047c0 .05-.038.09-.085.09a.073.073 0 01-.039-.01l-.01.019a.898.898 0 00-.06.143.096.096 0 01.035.078c0 .05-.032.089-.071.09a.328.328 0 00-.002.058c.004.029.014.046.063.061.048.015.115.104.115.104.005 0 .04-.065.014-.169"/><path fill="#D4AF3A" d="M8.931 5.159c.02-.02.024-.048.008-.065-.016-.016-.046-.014-.066.005-.02.019-.024.048-.008.064.017.017.046.015.066-.004m.32-.222c.019-.015.022-.038.008-.05-.014-.014-.04-.013-.058.003-.018.015-.021.038-.007.051.014.013.04.011.058-.004M8.742 5.387a.05.05 0 01.05.05.05.05 0 01-.05.05.05.05 0 01-.048-.05.05.05 0 01.048-.05M9.793 4.735a.587.587 0 00-.142.06h.001c.05 0 .087.032.087.073 0 .042-.045.087-.094.087-.048 0-.081-.043-.081-.085a.07.07 0 01.006-.028l-.066.044a.67.67 0 00-.268.31c-.076.148-.105.311-.072.407.033.096.155.116.157.116.001 0-.014-.015-.016-.033-.002-.018.003-.027.008-.063.005-.036.002-.08.002-.08s.027-.004.043.017l.054.064c.016.02.057.057.057.057s.025-.036.025-.079c0-.044-.028-.09-.033-.167a.553.553 0 01.104-.31.86.86 0 01.245-.21c.04-.02.048-.05.05-.07 0-.017.004-.03.007-.075.006-.046-.035-.045-.074-.035"/><path fill="#D4AF3A" d="M9.874 5.852c.038.016.08.007.1-.007.02-.014.028-.05.004-.07a.077.077 0 00-.082-.006 1.392 1.392 0 00-.071.048s.01.02.049.035m-.235-.946c.028 0 .054-.025.054-.05 0-.023-.022-.041-.05-.041-.028 0-.05.019-.05.043 0 .024.019.048.046.048"/><path fill="#D4AF3A" d="M9.989 5.896c-.014.021-.024.035-.065.036-.041.002-.086 0-.114-.03-.026-.027-.046-.067-.046-.067h-.046s-.015.067-.036.086c-.02.02-.093.022-.124-.003-.032-.025-.06-.055-.066-.05-.005.003 0 .028.032.056.032.03.055.047.107.047h.297s.06.004.077-.034c.017-.037.018-.061.01-.07-.008-.009-.013.007-.026.029"/><path fill="#D4AF3A" d="M10.11 5.776c-.024.02-.017.055.003.069.02.013.062.023.1.007.037-.016.047-.034.047-.034s-.049-.036-.07-.048a.072.072 0 00-.08.006m-.573.067c.044.026.07.01.086-.01.016-.02.019-.03.019-.03s-.042-.016-.063-.029c-.02-.012-.034-.024-.055-.022-.02.002-.023.006-.023.006s-.009.06.036.085"/><path fill="#D4AF3A" d="M10.524 5.919c-.031.024-.104.021-.124.003-.02-.02-.036-.087-.036-.087l-.046.001s-.02.04-.046.068c-.028.028-.072.03-.114.03-.041-.003-.051-.016-.065-.037-.013-.022-.019-.038-.026-.03-.009.01-.007.034.01.072.016.037.077.034.077.034h.298c.052 0 .075-.019.107-.047.032-.03.038-.053.032-.057-.007-.005-.036.025-.067.05"/><path fill="#D4AF3A" d="M10.715 5.87c.024.003.05-.01.07-.025.02-.015.046-.016.046-.016s-.02-.021-.03-.035c-.01-.013-.02-.03-.06-.016-.04.015-.051.033-.056.049a.035.035 0 00.03.043m-.059-.053a.022.022 0 00-.022-.021.022.022 0 00-.023.021c0 .012.01.022.023.022s.022-.01.022-.022m.087-.146c-.003-.03-.003-.078-.003-.078s-.004.007-.022.024c-.017.018-.044.037-.074.064-.03.027-.017.083-.017.083s.04.006.072-.006c.031-.013.046-.057.044-.087m-.24.103a.5.5 0 01-.064.029s.004.01.02.03c.016.02.042.037.087.01.046-.025.037-.085.037-.085s-.003-.003-.024-.006c-.02-.002-.034.01-.056.022"/><path fill="#D4AF3A" d="M11.239 5.728a.195.195 0 00-.063.069c-.013.025.034.042.066.043.032.001.058-.009.07-.046.013-.037-.01-.097-.01-.097s-.03.006-.063.031m-.139.097c-.019.001-.066.025-.097.037-.031.011-.035.015-.014.027.022.01.04.025.076.024.036 0 .072-.019.077-.056.005-.038-.023-.033-.042-.032m-.216.035s-.099.087-.174.08c-.076-.008-.083-.065-.083-.065s-.014.075.032.105a.388.388 0 00.112.036.25.25 0 00.093.008c.069-.01.128-.042.128-.042l.006-.003c-.063-.013-.105-.05-.114-.119M11.208 5.878c.014 0 .026.01.026.02 0 .011-.012.02-.026.02-.015 0-.026-.009-.026-.02 0-.01.011-.02.026-.02M11.254 5.454c0-.034.015-.062.036-.078a.933.933 0 00-.071-.163.08.08 0 01-.039.01c-.046 0-.084-.04-.084-.09 0-.017.004-.032.012-.046a.857.857 0 00-.196-.114.08.08 0 01-.048.016c-.047 0-.085-.04-.085-.09v-.004c-.07-.023-.193-.055-.193-.055s.106.073.158.13a.5.5 0 01.057.07s.163.057.257.2a.44.44 0 01.076.358c-.025.103.01.168.014.168 0 0 .066-.088.115-.103.05-.014.06-.032.063-.062a.326.326 0 00-.002-.058c-.038 0-.07-.04-.07-.09"/><path fill="#D4AF3A" d="M11.158 5.159c.02.019.05.02.066.004.016-.017.012-.046-.008-.065-.02-.019-.05-.02-.066-.004-.016.017-.013.046.008.065m-.32-.222c.017.015.043.017.057.004.014-.013.011-.036-.007-.051-.017-.016-.044-.017-.058-.004-.014.013-.011.036.007.051M11.34 5.387a.05.05 0 01.048.05.05.05 0 01-.048.05.05.05 0 01-.05-.05.05.05 0 01.05-.05M10.04 5.585s-.01.049-.026.07c-.015.02-.027.04-.022.065.004.025.032.042.049.042.016 0 .044-.017.049-.042.004-.026-.007-.045-.023-.065a.256.256 0 01-.026-.07m.18-.74a.08.08 0 00.05.07c.039.019.173.11.244.209.072.099.11.235.105.31-.006.077-.033.124-.033.167 0 .044.024.08.024.08s.042-.038.057-.058l.055-.064c.016-.02.043-.016.043-.016s-.004.043.001.079c.006.037.011.045.009.063-.002.019-.018.033-.015.033.001 0 .123-.02.156-.116s.005-.259-.072-.407a.67.67 0 00-.267-.31l-.067-.044a.07.07 0 01.006.028c0 .042-.032.086-.081.086-.05 0-.093-.046-.093-.088 0-.042.038-.074.086-.074h.001a.587.587 0 00-.141-.059c-.04-.009-.08-.011-.077.034.004.045.007.059.01.077M10.041 5.786c.014 0 .026.012.026.026a.026.026 0 01-.026.027.026.026 0 01-.025-.027c0-.014.011-.026.025-.026"/><path fill="#D4AF3A" d="M10.39 4.857c0 .024.026.05.053.05.028 0 .046-.025.046-.05 0-.023-.022-.042-.05-.042-.027 0-.048.019-.048.042m-.44.82s.044-.05.06-.082l.029-.06.029.06c.016.032.06.083.06.083s.06-.034.096-.157c.036-.122-.008-.251-.024-.39-.016-.14-.03-.38-.03-.38a.265.265 0 01-.132.04.267.267 0 01-.133-.04s-.013.24-.029.38c-.016.139-.06.268-.024.39.037.122.099.157.098.157"/><path fill="#B96B29" d="M9.321 5.285a.1.1 0 01.1.102.1.1 0 01-.1.102.1.1 0 01-.099-.102.1.1 0 01.1-.102M9.494 5.032c-.04-.027-.098-.016-.13.025-.033.041-.027.098.013.125.04.028.098.017.13-.024.032-.042.026-.098-.013-.126"/><path fill="#D4AF3A" d="M9.317 5.316a.058.058 0 110 .114.058.058 0 01-.058-.056c0-.032.027-.058.058-.058M9.453 5.043a.064.064 0 00-.07.03c-.014.024 0 .048.034.055.062.014.092-.068.036-.085"/><path fill="#B96B29" d="M10.04 5.296a.106.106 0 11-.106.106c0-.059.048-.106.107-.106M10.04 5.05c.057 0 .102.047.102.103a.102.102 0 01-.101.102.102.102 0 01-.102-.102c0-.056.046-.102.102-.102M10.04 4.817c.054 0 .097.044.097.098a.097.097 0 01-.096.097.097.097 0 01-.097-.097c0-.054.043-.098.097-.098M10.723 5.057c-.033-.041-.093-.052-.134-.025-.04.028-.047.084-.014.126.033.041.093.052.134.024.04-.027.047-.083.014-.125m.043.228a.102.102 0 000 .204.102.102 0 000-.204"/><path fill="#D4AF3A" d="M10.764 5.316c.032 0 .058.026.058.058a.058.058 0 01-.058.057.058.058 0 01-.058-.057c0-.032.026-.058.058-.058M10.63 5.043c-.058.016-.027.099.035.085.034-.007.048-.032.035-.055a.067.067 0 00-.07-.03M10.04 5.327a.056.056 0 110 .113.056.056 0 010-.113M10.04 5.08a.054.054 0 110 .109.054.054 0 010-.108M10.04 4.85a.048.048 0 010 .095.048.048 0 010-.095"/><path fill="#B96B29" d="M13.353 12.631c.048 0 .087.04.087.09 0 .05-.04.091-.087.091a.089.089 0 01-.087-.09c0-.05.038-.09.087-.09M13.597 12.693c.05 0 .09.041.09.092 0 .052-.04.093-.09.093a.091.091 0 01-.089-.093c0-.051.04-.092.09-.092M14.311 12.85c.05 0 .09.041.09.092 0 .052-.04.093-.09.093a.091.091 0 01-.089-.093c0-.05.04-.092.09-.092M13.843 12.753c.05 0 .09.041.09.093 0 .051-.04.092-.09.092a.091.091 0 01-.09-.092c0-.052.04-.093.09-.093M13.908 12.53c.05 0 .09.041.09.093 0 .051-.04.093-.09.093a.091.091 0 01-.09-.093c0-.052.04-.093.09-.093M13.97 12.308c.05 0 .09.041.09.092 0 .052-.04.093-.09.093a.091.091 0 01-.089-.093c0-.05.04-.092.09-.092"/><path fill="#D4AF3A" d="M13.36 12.668c.023 0 .043.02.043.045 0 .025-.02.045-.044.045a.044.044 0 01-.043-.045c0-.025.02-.045.043-.045M13.604 12.73c.025 0 .045.02.045.046 0 .025-.02.046-.045.046a.045.045 0 01-.044-.046c0-.026.02-.046.044-.046M14.317 12.887c.025 0 .045.02.045.046 0 .025-.02.046-.045.046a.045.045 0 01-.044-.046c0-.025.02-.046.044-.046M13.85 12.79c.024 0 .044.02.044.046s-.02.046-.044.046a.045.045 0 01-.044-.046c0-.025.02-.046.044-.046M13.915 12.568c.024 0 .044.02.044.046 0 .025-.02.046-.044.046a.045.045 0 01-.045-.046c0-.025.02-.046.045-.046M13.977 12.345c.025 0 .044.02.044.046 0 .025-.02.046-.044.046a.045.045 0 01-.044-.046c0-.025.02-.046.044-.046"/></g></svg>