<svg id="flag--belarus" xmlns="http://www.w3.org/2000/svg" viewBox="0 0 20 20"><g fill="none" fill-rule="evenodd"><path fill="#D22C29" d="M1 4a3 3 0 013-3h12a3 3 0 013 3v9H1V4z"/><path fill="#01A767" d="M1 13h18v3a3 3 0 01-3 3H4a3 3 0 01-3-3v-3z"/><path fill="#FFF" d="M5 1v18H3a2 2 0 01-2-2V3a2 2 0 012-2h2z"/><g fill="#D22C29"><path d="M2.351 9.9h-.169V10.1h.17v-.178zM1 7.823h.169v-.296H1zM2.926 5.747h.101v-.594h-.101zM4.716 3.373h.17v-.296h-.17zM4.716 5.747h.17V5.45h-.17zM4.716 1.593h.17v-.296h-.17z"/><path d="M3.872 4.857v.296h-.17v.297h-.168v.297h-.17v.296h-.168v.297h-.169v.297h-.169V6.34H2.69v-.297H2.52v-.296h-.169V5.45h-.169v-.297h-.168v-.296h-.17v.296h-.168v.297h-.17v.297h-.168v.296h-.17v.297H1v.593h.169v.297h.169v.297h.169v.296h.169v-.296h.169V7.23h.169v-.297h-.338v-.296h.506v.296h.17v.297h.168v.297h-.169v.296h-.169v.297h-.168v.297h-.17v.296h-.168v.297h-.17v-.297h-.168v-.296h-.17V8.12H1v.89h.169v.297h.169v.296h.169V9.9h.169V10.1h-.17v.297h-.168v.296h-.17v.297H1v.89h.169v-.297h.169v-.296h.169v-.297h.169v.297h.169v.296h.169v.297h.168v.297h.17v.296h.168v.297h-.169v.297h-.169v.296h-.506v-.296h.338v-.297h-.17v-.297h-.168v-.296h-.17v.296h-.168v.297h-.17v.297H1v.593h.169v.297h.169v.296h.169v.297h.169v.297h.169v.296h.169v-.296h.168v-.297h.17v-.297h.168v-.296h.17v-.297h.168v-.297h.169v.297h.17v.297h.168v.296h.169v.297h.169v.297h.169v.296h.169v-.296h.169v-.297h.169v-.297h.169v-.296h.168v-.297h.17v-.593h-.17v-.297h-.168v-.297h-.17v-.296H4.21v.296h-.17v.297h-.168v.297h.338v.296h-.507v-.296h-.17v-.297h-.168v-.297h.169v-.296h.169v-.297h.169v-.297h.169v-.296h.169v-.297h.169v.297h.169v.296h.168v.297h.17v-.89h-.17v-.297h-.168v-.296h-.17V10.1H4.21V9.9h.169v-.297h.168v-.296h.17V9.01h.168v-.89h-.169v.297h-.169v.296H4.38v.297h-.17v-.297h-.168v-.296h-.17V8.12h-.168v-.297h-.17v-.296h-.168V7.23h.169v-.297h.169v-.296h.507v.296h-.338v.297h.169v.297h.169v.296h.169v-.296h.168V7.23h.17v-.297h.168V6.34h-.169v-.297h-.169v-.296H4.38V5.45h-.17v-.297h-.168v-.296h-.17zm-1.858 5.221v-.771h.168V9.01h.17v-.297h.168v-.296h.17V8.12h.168v-.297h.169v.297h.169v.297h.169v.296h.169v.297h.169v.297h.169V10.693h-.17v.297h-.168v.297h-.169v.296h-.169v.297h-.169v.297h-.169v-.297H2.69v-.297H2.52v-.296h-.169v-.297h-.169v-.297h-.168v-.615z"/><path d="M4.716 7.823h.17v-.296h-.17zM2.96 8.713h.067v-.296h-.169v.296h.068zM3.703 1v.297h-.17v.296h-.168v.297h-.169v.297h-.169v.296h.169v.297h.169v.297h.169v.296h.169v.297h.169v.297h.169V3.67h.169v-.297h.169v-.296h.168V2.78h.17v-.297h.168v-.296h-.169V1.89h-.169v-.297H4.38v-.296h-.17V1h-.506zM3.54 2.177h.17V1.88h.168v-.297h.17v.297h.168v.297h.17v.296h-.17v.297h-.169v.297H3.88V2.77H3.71v-.297h-.169v-.296z"/><path d="M3.872 2.483h.169v-.296h-.17zM4.393 3.67v.297h-.176v.296H4.04v.297h.176v.297h.176v.296h.176v-.296h.176V4.56h.176v-.297h-.176v-.296h-.176V3.67h-.176zm.008.905h.176V4.28H4.4v.296zM3.374 4.554h.176v-.296h-.176v.296zm.005-.884v.297h-.176v.296h-.176v.297h.176v.297h.176v.296h.176v-.296h.176V4.56h.177v-.297H3.73v-.296h-.176V3.67H3.38zM2.926 3.077H2.86v.593h.166v-.593h-.064zM2.861 1v.593h.166V1zM1.003 3.373h.169v-.296h-.169zM1.679 1v.297h-.17v.296h-.168v.297h-.17v.297h-.168v.296h.169v.297h.169v.297h.169v.296h.169v.297h.169v.297h.169V3.67h.169v-.297h.168v-.296h.17V2.78h.168v-.297h.17v-.296h-.17V1.89h-.169v-.297h-.169v-.296h-.168V1h-.507zm-.177 1.177h.17V1.88h.168v-.297h.169v.297h.169v.297h.169v.296h-.17v.297H2.01v.297H1.84V2.77h-.169v-.297h-.169v-.296z"/><path d="M1.848 2.483h.169v-.296h-.17zM1.355 3.67v.297H1.18v.296h-.176v.297h.176v.297h.176v.296h.176v-.296h.176V4.56h.176v-.297h-.176v-.296h-.176V3.67h-.176zm-.008.905h.176V4.28h-.176v.296zM2.374 4.554h.176v-.296h-.176v.296zm.17.6v-.297h.177V4.56h.176v-.297h-.176v-.296h-.176V3.67h-.176v.297h-.176v.296h-.176v.297h.176v.297h.176v.296h.176zM3.534 10.1h.169V9.9h-.17v.178zM4.716 12.473h.17v-.296h-.17zM2.858 14.847h.102v-.594h-.102zM1 16.923h.169v-.296H1zM1 14.55h.169v-.297H1zM3.196 10.1h-.169V9.9h.169v-.297h.169V9.01h-.169v.297h-.169v.296h-.169v-.296H2.69V9.01H2.52v.593h.17V9.9h.168V10.1H2.69v.297H2.52v.593h.17v-.297h.168v-.296h.169v.296h.17v.297h.168v-.593h-.169zM1 12.473h.169v-.296H1zM2.926 11.287h-.068v.296h.169v-.296H2.96zM1.845 16.033v.297h-.17v.297h-.168v.296h-.17v.297H1.17v.297H1v.296h.169v.297h.169v.297h.169v.296h.169V19h.506v-.297h.17v-.296h.168v-.297h.17v-.297h.168v-.296H2.69v-.297H2.52v-.297h-.169v-.296h-.169v-.297h-.168v-.297h-.17zm-.346 1.494h.17v-.297h.168v-.297h.169v.297h.169v.297h.169v.296h-.169v.297h-.169v.297h-.169v-.297h-.169v-.297H1.5v-.296z"/><path d="M1.845 17.813h.169v-.296h-.17zM1.352 14.847v.296h-.176v.297H1v.297h.176v.296h.176v.297h.176v-.297h.176v-.296h.176v-.297h-.176v-.297h-.176v-.296h-.176zm-.008.874h.176v-.296h-.176v.296zM2.371 15.742h.176v-.296h-.176v.296zm-.005-.895v.296H2.19v.297h-.176v.297h.176v.296h.176v.297h.176v-.297h.176v-.296h.176v-.297h-.176v-.297h-.176v-.296h-.176zM2.858 16.923h.166v-.593h-.166zM2.96 18.407H2.858V19h.166v-.593zM4.713 16.923h.17v-.296h-.17zM4.713 18.703h.17v-.296h-.17zM3.869 16.033v.297h-.17v.297h-.168v.296h-.169v.297h-.169v.297h-.169v.296h.169v.297h.169v.297h.169v.296H3.7V19h.507v-.297h.169v-.296h.168v-.297h.17v-.297h.168v-.296h-.169v-.297h-.169v-.297h-.168v-.296h-.17v-.297h-.168v-.297h-.17zm-.33 1.494h.168v-.297h.17v-.297h.168v.297h.17v.297h.168v.296h-.169v.297h-.169v.297h-.169v-.297h-.169v-.297h-.169v-.296z"/><path d="M3.869 17.813h.169v-.296h-.17zM4.39 14.847v.296h-.176v.297h-.176v.297h.176v.296h.176v.297h.176v-.297h.176v-.296h.176v-.297h-.176v-.297h-.176v-.296H4.39zm.008.874h.176v-.296h-.176v.296zM3.371 15.742h.176v-.296h-.176v.296zm.005-.895v.296H3.2v.297h-.176v.297H3.2v.296h.176v.297h.176v-.297h.176v-.296h.177v-.297h-.177v-.297h-.176v-.296h-.176z"/></g><rect width="19" height="19" x=".5" y=".5" stroke="#F3F3F3" rx="3"/></g></svg>