<svg id="flag--turkey" xmlns="http://www.w3.org/2000/svg" viewBox="0 0 20 20"><g fill="none" fill-rule="evenodd"><rect width="18" height="18" x="1" y="1" fill="#D22C29" rx="3"/><path fill="#FFF" d="M8.061 6c1.213 0 2.302.524 3.046 1.354A3.266 3.266 0 009.28 6.8c-1.794 0-3.248 1.433-3.248 3.2 0 1.767 1.454 3.2 3.248 3.2.678 0 1.307-.204 1.828-.554A4.079 4.079 0 018.061 14C5.818 14 4 12.21 4 10s1.818-4 4.061-4zm4.636 1.979l.906 1.33 1.553-.44-.994 1.262.906 1.33-1.52-.55-.994 1.261.055-1.601-1.52-.55 1.554-.44.054-1.602z"/></g></svg>