<svg id="flag--moldova" xmlns="http://www.w3.org/2000/svg" xlink="http://www.w3.org/1999/xlink" viewBox="0 0 20 20"><defs><path id="a" d="M0 0h1.721v3.563H0z"/><path id="c" d="M0 0h5.144v7.68H0z"/></defs><g fill="none" fill-rule="evenodd"><path fill="#D22C29" d="M19 4v12a3 3 0 01-3 3h-2V1h2a3 3 0 013 3z"/><path fill="#FFE012" d="M14 1v18H6V1z"/><path fill="#250986" d="M6 1v18H4a3 3 0 01-3-3V4a3 3 0 013-3h2z"/><g><path fill="#B07F55" d="M8.748 11.535l.126-.01.01.114.116-.052.031.156.254-.273.354.185-.67 1.265-.24.187.43.17.443-.544-.064.358-.132.347.538.328.584-.365-.287-.638.094-.045.378.58.413-.216-.536-.664-.353-.798.372-.13.253.257.038-.167.134.068-.017-.14.135.032-.164-.276.416-.37.263.872.389.47.082-.011.282.369-.003-5.112-.52-.58-.506.437.02.47-.227.01-.338.183-.19.066-.088.018-.117-.133-.155-.33-.01-.325.096-.212-.018-.2.086.001-.055-.135.076-.032-.114-.106.04-.05-.43-.194-.327-.024-.088.041-.043.085.087.26-.093.097.092.19.003.416-.073.351-.147.266-.078.03-.184-.044-.386-.215-.244-.015-.017-.5-.468-.398-.477.545-.068.16.022 4.96.309-.395.064.017.32-.365.27-.723.08-.3.365.456z"/><path fill="#000" d="M9.216 6a.187.187 0 00-.115.033.1.1 0 01.067.097v.118h-.111a.095.095 0 01-.091-.07.215.215 0 00-.032.121c0 .051.013.096.032.122a.095.095 0 01.091-.072h.111v.567a.1.1 0 01-.062.095c.053.007.098.083.11.124.013-.041.059-.117.112-.124a.1.1 0 01-.064-.095V6.349h.112c.043 0 .08.03.091.071a.215.215 0 00.031-.122.214.214 0 00-.031-.122.095.095 0 01-.091.072h-.112V6.13a.1.1 0 01.067-.097A.187.187 0 009.216 6z"/><path fill="#F5D402" d="M9.216 6.024a.203.203 0 00-.066.012.128.128 0 01.042.094v.118l-.001.005v.018h-.018l-.005.001H9.057a.115.115 0 01-.088-.043.23.23 0 000 .14.115.115 0 01.088-.044h.134v.591a.122.122 0 01-.04.088.183.183 0 01.043.041c.01.014.015.028.023.042.007-.014.012-.028.023-.042a.184.184 0 01.043-.04.123.123 0 01-.042-.09V6.327h.135c.035 0 .066.016.088.042a.23.23 0 000-.14.115.115 0 01-.088.044h-.134v-.02-.122c0-.037.016-.07.04-.093a.196.196 0 00-.066-.013z"/><path fill="#D22C29" d="M8.48 12.068l-.156-.005-.162.08-.053.187.024.086.176.201.143-.086.114-.13.029-.117.41-.564-.02-.141-.09.06-.034-.116-.057.02zM11.351 12.44l.19.182.057-.015.21-.257-.048-.176-.195-.126-.147.015-.329-.52-.057-.025-.024.101-.095-.03-.038.11.433.62z"/><path fill="#000" d="M8.522 12.488l.243.14-.06.286-.242-.14z"/><path fill="#000" d="M8.556 12.441l-.071.078.044.104.087-.042-.06-.14zM7.39 9.738l-.087.042.988 2.293h.105L7.39 9.738z"/><path fill="#F5D402" d="M8.557 12.569l.15.087-.036.177-.15-.087z"/><path fill="#0B45BB" d="M9.932 11.841l.6-.348.705-.352.133-.217V9.709l-2.856-.005.005 1.235.086.146.542.318.695.337z"/><path fill="#D22C29" d="M8.48 8.218l.037.11-.008 1.419.05.058.412.052.445-.069.438.072.005.028.085-.013.085.013.005-.028.438-.072.446.07.412-.053.05-.058-.009-1.418.036-.111-.493.004-.97.01-.97-.01-.493-.004z"/><path fill="#000" d="M9.416 9.788s-.305-.079-.42-.238c-.199.19-.438.255-.438.255s.25.12.439.271c.087-.132.42-.288.42-.288M10.472 9.788s.332.156.42.288c.189-.151.438-.27.438-.27s-.24-.066-.439-.256c-.114.16-.42.238-.42.238M9.944 8.336l-.086.259-.234-.118.11.248-.243.091.244.092-.111.247.234-.118.086.259.086-.259.234.118-.11-.247.243-.092-.244-.091.111-.248-.234.118z"/><path fill="#F5D402" d="M9.455 10.261l.084-.096.095.1-.088.092zM10.441 10.261l-.09-.107-.095.104.085.096zM10.25 10.46l-.044.104-.004.285.071.16.094.043-.013-.374.064-.26zM9.533 10.739v.306l.084-.064.057-.139.01-.242-.044-.146-.168-.032zM10.697 11.117l-.003-.186.148-.214.175-.042-.195-.1-.189.043-.097.12-.01.197.138.17zM9.085 11.127l.05-.1.081.057.098-.021.064-.103-.044-.096-.047-.04.067-.039.027-.118-.09-.11-.088.014-.044.036-.02-.086-.104-.064-.088.036-.044.096.024.086-.091-.011-.074.075-.01.1.05.064.07.025.041-.004-.033.09.027.088.084.05z"/><path fill="#FFE012" d="M9.944 8.51l.056.165.149-.075-.071.158.155.059-.155.058.07.158L10 8.958l-.056.164-.056-.164-.148.075.07-.158-.155-.058.155-.059-.07-.158.148.075z"/><path fill="#000" d="M9.452 8.297c-.014.105-.51.322-.51.76 0 .56.495.692.495.692l-.02.04-.121.232s.204.01.313.109c.131.118.118.368.118.55 0 .144-.017.296-.086.358-.094.084-.157.09-.157.189 0 .082.06.098.157.153.124.069.118.162.303.162.184 0 .18-.093.304-.162.097-.055.156-.071.156-.153 0-.099-.063-.105-.156-.189-.07-.062-.087-.214-.087-.357 0-.183-.013-.433.118-.551.109-.098.313-.11.313-.11l-.12-.232-.021-.04s.495-.132.495-.692c0-.437-.496-.654-.51-.759-.049.18.165.43.165.726 0 .382-.266.4-.266.4-.062 0-.088.048-.112.048-.052-.006-.077-.077-.129-.077-.049 0-.086.08-.15.08-.065 0-.101-.08-.15-.08-.052 0-.077.07-.129.077-.024 0-.05-.047-.112-.047 0 0-.266-.019-.266-.401 0-.296.214-.545.165-.726z"/><path fill="#FFE012" d="M8.992 9.63c.1.121.26.168.26.168L8.998 10l-.004.004-.005-.005-.284-.189s.181-.066.288-.18z"/><path fill="#FFE012" d="M9.38 8.456c.02.046-.165.332-.165.567 0 .288.145.457.338.457.037 0 .077.053.112.053.057 0 .094-.066.129-.066.044 0 .073.073.15.073.076 0 .106-.073.15-.073.035 0 .072.066.129.066.035 0 .075-.053.112-.053.194 0 .339-.17.339-.457 0-.235-.187-.52-.166-.567 0 0 .363.275.363.6 0 .523-.501.653-.501.653l.112.269s-.155.024-.25.105c-.126.108-.128.4-.128.598 0 .232.008.33.088.394.083.066.146.08.146.148 0 .06-.065.084-.15.123-.096.045-.105.123-.244.123-.14 0-.148-.078-.244-.123-.085-.04-.15-.063-.15-.123 0-.067.063-.082.147-.148.079-.063.087-.162.087-.394 0-.198-.002-.49-.128-.598-.095-.08-.25-.105-.25-.105l.112-.27s-.5-.129-.5-.652c0-.325.362-.6.362-.6z"/><path fill="#FFE012" d="M10.896 9.63c.107.114.288.18.288.18s-.19.1-.284.189c.003.018-.005.004-.006.005-.004.006-.001-.002-.003-.004-.09-.11-.256-.202-.256-.202s.16-.047.261-.169z"/><path fill="#000" d="M9.542 10.133l-.12.126.12.126.118-.126zM10.347 10.133l-.12.126.12.126.119-.126z"/><path fill="#FFE012" d="M9.542 10.193l.062.066-.062.066-.063-.066zM10.347 10.193l.062.066-.062.066-.063-.066z"/><path fill="#000" d="M9.432 10.385c.023.062.08.253.08.483 0 .16-.015.243-.015.243s.168-.052.201-.232c.016-.085.033-.396-.047-.449l-.22-.045zM10.456 10.385l-.218.045c-.081.053-.064.364-.048.449.033.18.201.232.201.232s-.015-.084-.015-.243c0-.23.057-.421.08-.483zM9.024 10.435a.136.136 0 00-.028.004.15.15 0 00-.09.216.133.133 0 00-.048-.008.145.145 0 00-.136.14.146.146 0 00.131.158c.012 0 .023 0 .034-.002a.154.154 0 00.061.227.139.139 0 00.184-.084.152.152 0 00.008-.035c.007.01.015.019.024.027.06.053.149.044.199-.019a.155.155 0 00-.018-.21.14.14 0 00-.03-.019.135.135 0 00.032-.015.155.155 0 00.045-.207.137.137 0 00-.128-.069.136.136 0 00-.093.046.157.157 0 00-.004-.037.143.143 0 00-.143-.113z"/><path fill="#FFE012" d="M9.509 10.455l.117.026c.043.063.036.166.036.308 0 .144-.102.2-.102.2 0-.346-.034-.43-.051-.534zM10.38 10.455c-.018.104-.052.188-.052.533 0 0-.102-.055-.102-.199 0-.142-.007-.245.036-.308l.118-.026zM9.033 10.498a.11.11 0 01.11.088.119.119 0 01-.004.067.155.155 0 00-.173.047.118.118 0 01.045-.2.104.104 0 01.022-.002z"/><path fill="#000" d="M10.786 10.546a.291.291 0 00-.294.327c.016.152.132.28.277.316a.35.35 0 01-.046-.14.29.29 0 01.294-.327c.028 0 .055.004.082.01a.368.368 0 00-.313-.186z"/><path fill="#FFE012" d="M9.252 10.587c.035.001.07.02.09.055a.12.12 0 01-.035.16.106.106 0 01-.034.014.098.098 0 01-.03.002v-.005a.17.17 0 00-.094-.155.112.112 0 01.015-.029.105.105 0 01.088-.042zM10.786 10.613c.057 0 .11.018.158.049a.361.361 0 00-.284.392.296.296 0 01-.105-.188.222.222 0 01.231-.253zM8.898 10.683a.115.115 0 01.06.025.176.176 0 00-.012.19.097.097 0 01-.063.017.114.114 0 01-.102-.124.113.113 0 01.117-.108M9.084 10.7c.059 0 .106.051.106.113a.109.109 0 01-.106.112.11.11 0 01-.106-.112c0-.062.048-.113.106-.113M9.243 10.83a.106.106 0 01.06.026.12.12 0 01.014.163.105.105 0 01-.178-.016.125.125 0 01-.01-.028.167.167 0 00.114-.146zM8.951 10.907a.158.158 0 00.167.071.12.12 0 01-.004.068.108.108 0 01-.143.064.119.119 0 01-.043-.182.105.105 0 01.023-.02z"/><path fill="#000" d="M9.754 11.184c-.098 0-.161.022-.161.053 0 .032.063.053.161.053.026 0 .056-.016.056-.053 0-.036-.03-.053-.056-.053M10.134 11.184c-.026 0-.056.017-.056.053 0 .037.03.053.056.053.098 0 .161-.02.161-.053 0-.031-.063-.053-.161-.053"/><g transform="translate(11.279 9.34)"><mask id="b" fill="#fff"><use href="#a"/></mask><path fill="#000" d="M.12 3.219a.05.05 0 00-.04.025.058.058 0 000 .05s-.054-.018-.072-.009c-.018.01 0 .278 0 .278s.214-.144.21-.164C.216 3.378.17 3.341.17 3.341a.052.052 0 00.038-.028c.007-.015.008-.057-.04-.083A.083.083 0 00.12 3.22zM1.72 0l-.17.132.02.043s-.032.011-.046.04c-.014.03.01.071.01.071s-.163-.015-.188.003c-.023.015.01.134-.005.234-.021.14-.074.128-.076.156a.165.165 0 00.02.067s-.03.01-.037.024c-.01.021.008.061-.005.087l-.243.506c-.01.02-.036.027-.049.054-.012.025-.002.061-.002.061s-.045.003-.061.036c-.017.035-.007.082-.007.082s-.029.004-.043.033c-.015.032.01.048.004.062l-.268.557c-.025.05-.11.06-.16.164-.048.1.02.174.02.174s-.07.007-.09.046c-.019.04-.004.101.048.13.052.027.108.004.127-.036.02-.04-.019-.105-.019-.105s.097.015.145-.085c.05-.103.008-.181.032-.232l.268-.557c.007-.014.034-.002.05-.033.014-.03 0-.056 0-.056s.042-.02.058-.055c.016-.033-.008-.074-.008-.074s.033-.012.045-.037c.013-.027.004-.053.013-.073l.244-.506C1.36.887 1.4.878 1.41.856c.007-.013-.003-.045-.003-.045s.044-.005.063-.022c.02-.018-.02-.056.075-.156.067-.072.177-.114.175-.143C1.72.458 1.613.328 1.613.328s.045-.004.06-.033c.013-.03.004-.063.004-.063L1.72.223V0z" /></g><g transform="translate(7.372 6.32)"><mask id="d" fill="#fff"><use href="#c"/></mask><path fill="#000" d="M4.093 6.104h.008c.007 0 .013.003.018.007l.105.097c.014.013.014.035.001.05-.013.016-.034.019-.047.006l-.105-.096c-.013-.012-.014-.035-.001-.05a.035.035 0 01.021-.014zm-3.047 0c.01 0 .022.003.03.013.013.016.012.039-.001.051l-.105.096c-.013.013-.034.01-.047-.005-.013-.016-.013-.038 0-.05l.106-.098a.028.028 0 01.017-.007zm3.114-.073h.008a.03.03 0 01.018.008l.104.096c.014.012.015.036.002.051-.013.016-.034.018-.048.006l-.105-.097c-.014-.012-.014-.034-.001-.05a.038.038 0 01.022-.014zm-3.18 0c.01 0 .022.004.03.014.013.016.012.038-.001.05l-.105.097c-.014.012-.035.01-.048-.006-.013-.015-.012-.038.002-.051l.104-.096a.03.03 0 01.018-.008zm3.239-.075h.008c.007 0 .014.004.019.008l.104.096c.014.013.015.036.002.051-.013.016-.035.019-.049.006L4.2 6.02c-.014-.012-.014-.034-.001-.05a.037.037 0 01.021-.014zm-3.299 0c.011 0 .022.004.03.014.013.016.012.038-.001.05l-.105.097c-.013.013-.035.01-.048-.006-.013-.015-.012-.038.002-.05l.104-.097a.032.032 0 01.018-.008zm3.358-.04c.005 0 .01.001.014.005l.06.061c.008.008.01.022.002.032-.008.01-.02.012-.028.004l-.06-.06c-.009-.008-.01-.023-.002-.033a.022.022 0 01.014-.008zm-3.38 0c.005.001.01.004.015.01.007.009.006.024-.002.031l-.06.061c-.008.008-.02.006-.028-.004-.007-.01-.007-.024.001-.032l.06-.06a.017.017 0 01.014-.006zm1.333-.607s-.52 1.265-.981 1.46a6.986 6.986 0 00.558.288c.03-.04.064-.083.096-.129.147-.209.291-.45.291-.45.01.062-.067.256-.2.496-.025.047-.052.096-.082.146.033.02.067.04.1.062.244.155.473.334.558.499.085-.165.315-.344.56-.5l.099-.061c-.03-.05-.057-.1-.083-.146-.132-.24-.21-.434-.2-.497 0 0 .145.242.292.451.032.046.065.09.096.13a6.795 6.795 0 01.558-.29c-.462-.194-.982-1.46-.982-1.46l-.076.024s.414 1.094.82 1.425c-.092.03-.2.071-.312.122a4.644 4.644 0 01-.389-.596c-.122-.217-.223-.599-.223-.599-.057.146.064.882.31 1.347-.203.112-.383.233-.47.332-.086-.1-.266-.22-.468-.332.244-.465.366-1.2.309-1.347 0 0-.1.382-.224.599a4.636 4.636 0 01-.389.596 2.976 2.976 0 00-.311-.122c.405-.331.82-1.425.82-1.425l-.077-.023zm1.442-.067a.096.096 0 00.03.011l.304.497c.026.043.158.01.174.013.07.014.17.093.18.121.006.016-.008.043-.022.044-.025.001-.047-.035-.128-.061-.075-.024-.13.001-.194-.049.003.066.087.116.087.162-.054 0-.086-.038-.086-.038s.005.044.005.082c0 .038-.043.059-.043.059s-.024-.104-.053-.145l-.39-.563.014-.079.096.07c.027-.033.026-.124.026-.124zm-2.202 0s-.001.091.026.124l.095-.07.015.08-.39.562a.58.58 0 00-.054.145s-.042-.021-.042-.06c0-.037.005-.081.005-.081s-.032.038-.086.038c0-.046.084-.096.087-.162-.064.05-.12.025-.194.049-.08.026-.103.062-.128.06-.015 0-.028-.027-.022-.043.01-.028.11-.107.18-.121.016-.003.148.03.174-.013l.304-.497a.097.097 0 00.03-.01v-.001zm2.184-.304l-.052.028s.073.19.135.22c0 0-.07.007-.113-.023l-.017.11c-.034 0-.096-.05-.096-.05-.013.035-.035.134-.035.134-.052-.037-.212-.235-.212-.235l-.074.051s.266.226.321.345l.01-.055c.048.069.262.369.37.526.032.047.034.097.062.14.054.085.113.126.174.185.024.023.093.011.109-.007.02-.023.155-.201.155-.201s.01.009.015.033c0 0 .052-.07.052-.122a.339.339 0 00-.045-.15c-.024-.045-.172-.155-.237-.155-.079 0-.115.042-.166-.052a9.382 9.382 0 00-.251-.4c.037 0 .07-.004.07-.004-.05-.048-.175-.318-.175-.318zm-2.166 0s-.126.27-.175.318c0 0 .033.004.07.004-.023.035-.197.3-.251.4-.052.094-.088.052-.166.052-.065 0-.213.11-.237.155a.339.339 0 00-.045.15c0 .052.052.122.052.122.005-.024.015-.033.015-.033s.135.178.155.201c.015.018.085.03.109.007.06-.059.12-.1.174-.185.028-.043.03-.093.062-.14.108-.157.321-.457.37-.526l.01.055c.055-.119.32-.345.32-.345l-.073-.051s-.16.198-.212.235c0 0-.023-.099-.036-.134 0 0-.061.05-.095.05l-.017-.11c-.043.03-.113.024-.113.024.062-.031.135-.221.135-.221l-.052-.028zm3.241-2.82l.13.129.13-.128V6.1c-.085-.054-.26-.29-.26-.391v-3.59zm-4.317 0v3.59c0 .101-.174.337-.259.391V2.12l.129.128.13-.129zm4.243 0v3.707L4.38 5.53l.015-.259V2.118l.13.129.13-.13zm-4.168 0l.13.129.13-.129v3.153l.016.259-.276.295V2.118zm4.35-.422v.381l-.07-.07-.053-.052v-.137l.053-.052.07-.07zm-.29 0l.07.07.053.053v.135l-.053.053-.07.07v-.381zm-.045 0v.381l-.07-.07-.053-.053V1.82l.123-.123zm-.29 0a.518.518 0 00.123.132v.127l-.053.053-.07.07v-.382zm-3.282 0v.382l-.07-.07-.053-.053v-.127a.518.518 0 00.123-.132zm-.29 0l.123.123v.135l-.054.054-.07.069v-.381zm-.045 0v.381l-.07-.07-.053-.053V1.82l.052-.053.071-.07zm-.29 0l.07.07.053.052v.137l-.053.052-.07.07v-.381zm4.576-.001l.108.106v.17l-.108.107v-.383zm-4.62 0v.383L.154 1.97v-.17l.108-.106zm4.118-.409l.123.126v.136l-.123.122v-.384zm-3.616 0v.384l-.123-.122v-.136l.123-.126zm3.572-.02v.414a.672.672 0 01-.185-.194c.081-.042.166-.188.185-.22zm-3.528 0c.019.032.104.178.185.22a.672.672 0 01-.185.194v-.415zm3.907-.033l.124.138v.177l-.124.122v-.437zm-4.286 0v.437l-.124-.122v-.177l.124-.137zm4.242-.035v.473l-.123-.123v-.151l.123-.2zm-4.198 0l.123.199v.15l-.123.124v-.473zm4.48-.031a.29.29 0 01.037.123v.363l-.108-.106v-.244l.071-.136zm-4.762 0l.07.136v.244l-.107.106V1.29c0-.035.014-.077.037-.123zm4.322-.49c.142.11.293.263.386.399l-.077.176-.153-.166v-.043a.208.208 0 00-.046-.111L4.58.949c.02.027.046.066.046.1v.053l-.132.213-.113-.129-.008-.009-.014-.016v-.023a.144.144 0 00-.037-.092l-.045.017a.115.115 0 01.037.081v.04c-.046.07-.14.2-.216.228v-.296l.004-.101c.104-.038.412-.337.412-.337V.677zm-3.882 0s.308.3.412.338l.004.1v.297c-.075-.027-.17-.158-.216-.227v-.04c0-.04.021-.067.037-.082l-.045-.017a.144.144 0 00-.036.092v.023l-.015.016-.008.01-.112.128-.133-.213V1.05c0-.035.025-.074.047-.1L.52.931a.207.207 0 00-.046.111v.043l-.153.166-.077-.176C.338.939.489.786.63.676zM2.373.05l.044.001c.172 0 .293.083.456.16.042.02.081.035.116.048a.151.151 0 00-.044.059s.073.014.106.078c0 0-.069.009-.08.052.039.003.077.054.077.104L2.95.521s.024.117.024.244c0 .065-.088.14-.088.25 0 .346.082.478.14.585.023.042.041.09.08.126-.168-.095-.293-.213-.293-.323V.986h-.044v.417c0 .08.018.117.018.117.027.088.08.224.113.28-.155-.09-.233-.2-.233-.241V.986h-.044v.58l.009.04a.337.337 0 01-.06.078.342.342 0 01-.06-.078l.01-.04v-.58h-.045v.573c0 .04-.078.152-.233.24a1.62 1.62 0 00.113-.28s.018-.037.018-.116V.986h-.044v.417c0 .11-.124.228-.292.323.038-.036.056-.085.08-.126.063-.117.142-.265.142-.687a.754.754 0 00-.06-.34C2.188.546 2.172.48 2.261.48c.047 0 .153.087.153.087s-.004-.07-.058-.109a.068.068 0 01-.024-.046c0-.015.023-.05.041-.059.013-.006-.182-.042-.182-.135 0-.02.011-.033.052-.033.053 0 .14.068.216.068.057 0 .08-.015.138-.015.07 0 .22.142.27.137C2.81.338 2.72.196 2.58.196c-.048 0-.092.011-.137.011-.057 0-.114-.056-.176-.056-.042 0-.089.003-.095-.009-.013-.02-.002-.031.01-.048.02-.03.08-.04.138-.042h.052zM2.369 0c-.053 0-.132.002-.179.034-.042.03-.039.069-.053.082-.035.032-.095.031-.124.031-.186 0-.193.211-.193.211s.047-.076.132-.076c.14 0 .246.08.246.111 0 .013-.014.015-.015.015-.092 0-.23-.056-.304-.059V.38l.004.003-.004-.001v.006c.164.06.33.145.33.522 0 .237-.026.48-.138.67a.616.616 0 01-.165.176 1.536 1.536 0 01-.272-.115c-.176-.104-.267-.207-.476-.217v-.169c0-.09.03-.17.03-.256C1.102.974.857.657.632.517c-.332.227-.589.6-.589.773 0 0 .01 3.69 0 4.976 0 .074-.042.179-.042.179.121-.055.343-.376.39-.498v.058c.183-.088.317-.32.377-.44 0 .017.004.06.004.06.163-.151.371-1.048.371-1.048l-.01-.188s-.145.732-.308.882V2.12l.13.128.196-.194v-.148l-.175.172v-.446c.027-.042.044-.074.057-.098.028.052.12.211.227.31.017-.077.133-.149.133-.149s.042.12.105.149c.023-.042.156-.134.156-.134s-.114.018-.16.064c-.04-.01-.05-.175-.05-.175s-.168.086-.197.148c-.032-.009-.082-.142-.102-.197.03-.004.071-.007.125-.007.048 0 .11.024.174.056.07.035.144.08.21.11a.74.74 0 00.25.051c-.043.032-.09.061-.14.088 0 0 .2-.002.341-.076.05-.035.103-.069.148-.11a.587.587 0 01-.097.183.458.458 0 00.34-.186.611.611 0 00.077.15.617.617 0 00.077-.15c.03.042.133.167.34.186a.587.587 0 01-.096-.182c.044.04.096.074.147.109a.882.882 0 00.342.076 1.114 1.114 0 01-.141-.088.739.739 0 00.25-.05c.066-.032.14-.076.21-.111a.435.435 0 01.174-.056c.054 0 .096.003.125.007-.02.055-.07.188-.101.197-.03-.062-.198-.148-.198-.148s-.01.166-.05.175c-.046-.046-.16-.064-.16-.064s.134.092.156.134c.064-.03.104-.149.104-.149s.117.072.135.148c.107-.098.198-.257.226-.31.014.026.032.059.057.099v.446l-.174-.172v.148l.196.194.13-.128v3.152c-.164-.15-.308-.882-.308-.882l-.01.188s.207.897.37 1.049l.005-.061c.06.12.193.352.376.44v-.058c.047.122.27.443.39.498 0 0-.042-.105-.042-.18-.01-1.285 0-4.975 0-4.975 0-.172-.257-.546-.589-.773-.225.14-.47.457-.558.482 0 .086.031.167.031.256v.168c-.208.01-.3.114-.476.218-.1.059-.244.106-.273.115a.611.611 0 01-.163-.176 1.115 1.115 0 01-.136-.564c0-.086.09-.182.09-.251 0-.105-.009-.168-.009-.168.032.005.088.065.088.065S3.105.49 3.054.458c0 0 .02-.023.096-.025-.02-.057-.126-.127-.126-.127A.07.07 0 013.05.28.33.33 0 013.143.25a.948.948 0 01-.103-.03 2.36 2.36 0 01-.287-.124A.807.807 0 002.369 0z" /></g><path fill="#F5D402" d="M11.31 12.658v.191l.148-.112s-.02-.037-.064-.06c-.043-.024-.083-.02-.083-.02zm.09-.073c-.012 0-.02.005-.025.016-.007.022.008.056.035.076.026.02.054.018.062-.003.007-.022-.008-.056-.035-.076a.058.058 0 00-.038-.013zm.295-.624a.054.054 0 00-.048.03c-.014.029.002.067.036.086.034.018.074.01.088-.02.013-.029-.003-.068-.037-.086a.076.076 0 00-.039-.01zm.45-.895c-.017.002-.026.022-.026.022l-.253.526c-.02.043-.11.07-.144.143-.035.072-.01.14.035.165.046.024.113.006.148-.066.034-.072.003-.165.024-.208l.253-.526s.018-.034-.015-.052a.034.034 0 00-.021-.004zm.026-.1a.031.031 0 00-.027.02c-.009.022.007.056.036.074.028.019.06.015.069-.007.009-.023-.007-.057-.036-.075a.067.067 0 00-.042-.012zm.058-.116c-.02-.001-.038.006-.046.022-.011.024.007.06.042.078.035.02.072.015.084-.01.012-.025-.006-.06-.041-.079a.09.09 0 00-.039-.011zm.043-.094a.031.031 0 00-.026.02c-.01.023.006.056.035.075.029.018.06.015.069-.008.01-.023-.007-.056-.036-.075a.065.065 0 00-.042-.012zm.319-.64a.042.042 0 00-.033.024c-.01.02-.004.046-.078.2a207.57 207.57 0 01-.168.348s-.018.034.015.052c.033.018.047-.018.047-.018l.088-.181.08-.168c.075-.154.097-.165.106-.184.01-.02.008-.049-.025-.067a.054.054 0 00-.032-.007zm.278-.427s.034.09.034.104c.001.016-.122.11-.165.198-.036.075-.051.117-.051.117l.049.008s-.003-.053.008-.078c.013-.027.017-.06.074-.107.061-.051.143-.096.143-.11 0-.012-.092-.132-.092-.132zm-.03-.013s-.094.02-.107.033c-.013.013-.007.147-.057.25-.04.086-.061.117-.061.117l.025.014.026.013s.011-.035.053-.12c.05-.103.155-.178.158-.197.002-.02-.037-.11-.037-.11zm-.155-.022c-.015 0-.026.001-.029.003-.01.007.004.104.001.186-.003.077-.026.1-.039.126-.012.024-.054.053-.054.053l.035.038s.023-.038.059-.113c.043-.089.041-.25.054-.258a.93.93 0 01.1-.03s-.082-.005-.127-.005zm.188-.124a.05.05 0 00-.042.028c-.013.028 0 .062.028.078.029.015.062.006.075-.021.013-.027 0-.062-.028-.078a.06.06 0 00-.033-.007zm.097-.124l-.1.074.05.028.051.027-.001-.13z"/><path fill="#000" d="M7.697 11.545s.084.182.147.207c-.033-.009-.139.032-.139.032s.187.178.346.19c.135.009.2-.062.2-.062l-.027-.151s-.082-.106-.214-.155c-.133-.049-.313-.06-.313-.06zM8.325 11.22s-.115.103-.146.224c-.032.12.02.258.02.258l.097.19s.134-.075.19-.187c.058-.113.037-.265.037-.265s-.106.041-.12.06c.023-.125-.078-.28-.078-.28zM7.956 11.17s-.131.047-.258.04c-.121-.009-.222-.116-.222-.116s.1-.072.15-.062c-.054-.021-.133-.166-.133-.166s.112-.036.211.004c.1.04.187.155.187.155l.065.145zM8 10.494s.066.144.05.194c.02-.034.098-.085.098-.085s.046.232.002.375c-.045.143-.18.198-.18.198l-.149-.307s-.022-.114.024-.204a.62.62 0 01.156-.17zM7.15 10.115s.141-.016.27.04a.27.27 0 01.142.135l.053.15s-.154.062-.275.015c-.122-.047-.211-.201-.211-.201s.085-.034.117-.021c-.047-.023-.096-.118-.096-.118zM7.594 9.834s.062.085.064.182c.017-.052.094-.109.094-.109s.08.204.062.349c-.017.145-.132.23-.132.23L7.54 10.2s-.046-.117-.032-.209c.013-.09.087-.156.087-.156zM7.105 9.285s-.026.157.018.247c.039.08.064.098.064.098A.406.406 0 007 9.573s.04.17.135.248c.096.078.243.06.243.06s.097-.137.09-.284c-.006-.147-.117-.305-.117-.305s-.043.096-.047.167c-.028-.073-.2-.174-.2-.174z"/><path fill="#097754" d="M7.148 9.38s-.004.114.032.18c.036.064.116.09.116.09s.003-.114-.032-.18c-.036-.064-.116-.09-.116-.09M7.074 9.639s.093.006.148.05a.283.283 0 01.075.135s-.062.007-.117-.037c-.054-.044-.106-.148-.106-.148M7.372 9.408s-.036.076-.032.157a.472.472 0 00.057.174s.047-.098.043-.18c-.004-.081-.055-.128-.068-.151M7.21 10.144s.046.068.117.105c.07.037.176.038.176.038s-.052-.072-.123-.109c-.071-.037-.17-.034-.17-.034zM7.233 10.302s.034.07.096.1c.061.03.188.028.188.028s-.049-.066-.11-.096c-.062-.03-.174-.032-.174-.032zM7.6 9.928s-.05.065-.044.137c.004.072.063.151.063.151s.04-.09.036-.162c-.005-.072-.055-.126-.055-.126zM7.727 10.02s-.064.091-.073.185c-.01.093.036.19.036.19s.077-.083.087-.176c.009-.094-.05-.199-.05-.199zM7.55 10.884s.008.033.035.069a.528.528 0 00.072.073s.045-.015.1-.002a.47.47 0 01.128.064s-.079-.124-.16-.172c-.082-.048-.174-.032-.174-.032zM7.542 11.097s.102-.046.186-.034c.084.012.16.082.16.082s-.114.042-.198.03c-.083-.012-.148-.078-.148-.078zM7.973 10.596s-.09.101-.098.189c-.007.087.073.17.073.17s-.004-.057.01-.094a.375.375 0 01.044-.077s.012-.045.007-.081c-.007-.05-.036-.107-.036-.107zM8.102 10.713s-.085.091-.107.188a.394.394 0 00.017.202s.077-.065.1-.162c.022-.098-.01-.228-.01-.228zM8.315 11.3s.038.085.048.156c.01.071 0 .096 0 .096s-.04.041-.057.065a.2.2 0 00-.026.089s-.08-.126-.068-.218c.012-.091.103-.188.103-.188zM8.483 11.497s-.102.071-.143.144c-.04.074-.02.149-.02.149s.073-.007.114-.08a.642.642 0 00.049-.213zM7.811 11.799s.148-.005.238.019c.09.023.122.074.122.074s-.1.05-.19.027c-.09-.023-.17-.12-.17-.12zM7.786 11.614s.067.109.153.148c.118.055.255.028.255.028s-.074-.096-.177-.139c-.102-.043-.23-.037-.23-.037z"/><path fill="#000" d="M8.26 11.905l.003.056c.088.001.101-.008.124.021.015.02.05.037.087.02a.079.079 0 00.035-.102c-.016-.038-.05-.046-.082-.04-.02.005-.033.022-.05.03-.031.018-.118.015-.118.015z"/><path fill="#000" d="M8.252 11.862l.042.034c-.046.08-.06.086-.048.122a.081.081 0 01-.03.088.07.07 0 01-.1-.021c-.023-.035-.012-.07.01-.095.015-.016.035-.019.051-.029a.378.378 0 00.075-.099zM7.953 11.196l.004.056c.088 0 .101-.009.124.02.015.02.05.038.087.02a.079.079 0 00.035-.101c-.016-.038-.05-.046-.082-.04-.02.004-.033.021-.05.03-.031.018-.118.015-.118.015z"/><path fill="#000" d="M7.971 11.216l.038.04c-.058.07-.073.075-.067.112a.08.08 0 01-.043.082.071.071 0 01-.095-.037c-.017-.038 0-.07.025-.092.016-.013.037-.013.054-.02.033-.014.088-.085.088-.085zM7.657 10.531l.004.057c.088 0 .1-.009.123.02.015.02.051.037.087.02a.079.079 0 00.036-.101c-.017-.038-.05-.047-.082-.04-.02.004-.033.02-.05.03-.032.018-.118.014-.118.014z"/><path fill="#000" d="M7.681 10.52l.038.04c-.058.07-.073.075-.067.112a.08.08 0 01-.043.082.071.071 0 01-.095-.037c-.017-.038 0-.07.025-.092.016-.013.037-.013.054-.02a.367.367 0 00.088-.085M7.34 9.83l.005.056c.088.001.101-.008.124.021.015.02.05.037.086.02a.079.079 0 00.036-.102c-.016-.038-.05-.046-.082-.04-.02.005-.033.022-.05.03-.032.018-.118.015-.118.015z"/><path fill="#000" d="M7.365 9.818l.038.04c-.057.071-.073.076-.066.113a.08.08 0 01-.044.082.071.071 0 01-.095-.038c-.017-.038 0-.07.025-.091.016-.013.037-.013.054-.02.034-.014.088-.086.088-.086z"/><path fill="#F5D402" d="M7.897 11.03c-.031.013-.078-.132-.113-.212-.035-.082-.106-.208-.086-.218.022-.01.052.056.088.14.036.083.14.276.111.29zM7.573 10.263c-.032.014-.066-.082-.1-.161-.036-.082-.07-.14-.05-.15.023-.01.056.061.084.128.028.065.096.17.066.183zM8.323 12c-.025.008-.133-.232-.22-.435-.088-.203-.153-.367-.132-.377.022-.01.093.181.18.384.088.203.19.424.172.429z"/><path fill="#CC092F" d="M9.232 6.594s.036-.072.128-.072l.164-.003c.017.046.094.124.094.204 0 0-.078-.149-.296-.149-.054 0-.09.02-.09.02z"/><path fill="#000" d="M9.559 6.665s-.1-.034-.1-.07c0-.046.048-.046.077-.01.02.024.023.08.023.08z"/><path fill="#D10429" d="M9.586 6.752s-.047.052-.057.08c-.046-.019-.126-.107-.126-.107s.068.043.183.027"/><path fill="#000" d="M9.819 6.616c0 .036-.034.064-.077.064-.042 0-.076-.028-.076-.064 0-.035.034-.064.076-.064.043 0 .077.029.077.064z"/><path fill="#F5D402" d="M9.796 6.616a.055.055 0 01-.054.057.055.055 0 01-.053-.057c0-.031.024-.056.053-.056.03 0 .054.025.054.056"/><path fill="#000" d="M9.82 6.645a.051.051 0 01-.049.053.051.051 0 01-.051-.05v-.003c-.001-.029.02-.053.048-.053a.05.05 0 01.052.05v.003"/><path fill="#FFE012" d="M8.52 8.257h2.847s-.038.05-.038.13v2.507c0 .055-.054.183-.363.346-.511.27-.905.396-1.022.55-.118-.154-.511-.28-1.023-.55-.309-.163-.363-.29-.363-.346V8.387c0-.08-.038-.13-.038-.13zm-.167-.08s.13.104.13.21v2.507c0 .066.02.11.05.151.03.046.096.108.164.155.208.144.558.295.822.422.22.107.31.15.425.3.114-.15.205-.193.425-.3.264-.127.614-.278.823-.422a.685.685 0 00.163-.155.236.236 0 00.05-.15V8.386c0-.106.13-.21.13-.21H8.352z"/></g></g></svg>