<svg id="logo--large" xmlns="http://www.w3.org/2000/svg" viewBox="0 0 240 72"><g fill="#00B37D" fill-rule="evenodd"><path d="M116.883 10.003c-5.82.376-11.438 2.707-15.773 7.042-9.868 9.868-9.407 26.385 1.026 36.819 10.434 10.434 26.95 10.894 36.819 1.025 4.336-4.336 6.667-9.955 7.043-15.779a1.099 1.099 0 00-1.098-1.167h-5.06c-.568 0-1.043.435-1.089 1.003-.328 4.011-1.958 7.846-4.926 10.813-7.04 7.04-18.954 6.58-26.56-1.025-7.604-7.605-8.064-19.52-1.024-26.56 2.966-2.966 6.798-4.596 10.807-4.925a1.092 1.092 0 001.003-1.09V11.1A1.1 1.1 0 00116.955 10c-.024 0-.048 0-.072.003"/><path d="M116.772 24.582c-2.022.33-3.907 1.23-5.4 2.723-4.212 4.211-3.752 11.523 1.024 16.3 4.777 4.776 12.089 5.236 16.3 1.025 1.495-1.496 2.395-3.384 2.724-5.409a1.101 1.101 0 00-1.085-1.278h-5.192c-.463 0-.859.296-1.032.726a2.483 2.483 0 01-.546.83c-1.358 1.36-4.124.89-6.039-1.024-1.914-1.915-2.384-4.68-1.025-6.04.237-.236.516-.416.826-.543.428-.174.724-.569.724-1.03v-5.195a1.1 1.1 0 00-1.1-1.099c-.058 0-.118.005-.179.014"/></g></svg>