<svg id="action--backspace" xmlns="http://www.w3.org/2000/svg" viewBox="0 0 24 24"><path  d="M21.314 4c1.025 0 1.859.834 1.859 1.858v12.284A1.861 1.861 0 0121.313 20H6.992a3.065 3.065 0 01-2.472-1.26L.307 12.942a1.6 1.6 0 010-1.884L4.519 5.26A3.065 3.065 0 016.99 4zm-.141 2H6.99a1.06 1.06 0 00-.854.436L2.094 12l4.043 5.564c.199.273.517.436.854.436h14.182V6zm-6 2.27l1.414 1.414L14.27 12l2.317 2.316-1.414 1.413-2.317-2.316-2.316 2.316-1.414-1.414L11.442 12 9.126 9.684 10.54 8.27l2.316 2.316 2.317-2.316z"/></svg>