<svg id="action--close--dialog" xmlns="http://www.w3.org/2000/svg" viewBox="0 0 24 24"><path  d="M4.07 5.07C8.165.977 14.826.979 18.92 5.07a10.465 10.465 0 011.908 12.241 1.001 1.001 0 01-1.778-.918 8.47 8.47 0 00-1.544-9.908c-3.316-3.315-8.709-3.313-12.021 0-3.316 3.315-3.316 8.707 0 12.021 3.035 3.037 7.869 3.334 11.242.69a.998.998 0 011.404.17.998.998 0 01-.17 1.404 10.451 10.451 0 01-6.458 2.226A10.49 10.49 0 014.07 19.92c-4.094-4.095-4.094-10.756 0-14.85zM7.49 7.83c.199-.2.52-.2.719 0l3.262 3.262 3.262-3.261c.198-.2.52-.2.719 0l.695.694a.51.51 0 010 .72l-3.262 3.26 3.262 3.263a.51.51 0 010 .72l-.695.694a.508.508 0 01-.719 0L11.47 13.92l-3.262 3.26a.508.508 0 01-.719 0l-.695-.693a.509.509 0 010-.72l3.262-3.262-3.262-3.261a.509.509 0 010-.72z"/></svg>