<svg id="action--copy--all" xmlns="http://www.w3.org/2000/svg" viewBox="0 0 24 24"><path  d="M4.003 9.606v2.156c0 .003-.003.005-.003.008v7.826h9.978a2.173 2.173 0 01-2.159 1.992H4.182A2.182 2.182 0 012 19.408v-7.639c0-1.144.883-2.07 2.003-2.163zm3.826-3.589a.46.46 0 01.461.461v1.078a.461.461 0 01-.46.461h-.077a.181.181 0 00-.182.182v7.636c0 .101.081.182.181.182h7.637c.1 0 .182-.08.182-.182v-.194c0-.18.146-.328.328-.328h1.344c.181 0 .328.147.328.328v.194a2.182 2.182 0 01-2.18 2.182H7.752a2.182 2.182 0 01-2.182-2.182V8.198c0-1.204.977-2.18 2.181-2.18zM19.407 2c1.202 0 2.181.978 2.181 2.181v7.637A2.184 2.184 0 0119.408 14h-7.639a2.184 2.184 0 01-2.18-2.182V4.181c0-1.203.978-2.181 2.18-2.181zm0 2H11.77c-.1 0-.18.081-.18.181v7.637c0 .101.08.182.18.182h7.638c.1 0 .181-.081.181-.182V4.181c0-.1-.08-.181-.18-.181z"/></svg>