<svg id="action--tune" xmlns="http://www.w3.org/2000/svg" viewBox="0 0 24 24"><path  d="M9.5 14.5c1.424 0 2.627.902 3.104 2.16l.06.174H20a1 1 0 01.117 1.993l-.117.007h-7.335c-.428 1.349-1.677 2.335-3.165 2.335a3.323 3.323 0 01-3.103-2.161l-.06-.174H4a1 1 0 01-.116-1.993L4 16.834h2.336C6.764 15.486 8.013 14.5 9.5 14.5zm0 1.834a1.5 1.5 0 101.494 1.645l.006-.144a1.5 1.5 0 00-1.5-1.501zm6.747-7.596c1.427 0 2.635.907 3.108 2.171l.06.175h.851a1 1 0 01.117 1.993l-.117.007h-.858c-.432 1.343-1.677 2.323-3.161 2.323a3.325 3.325 0 01-3.1-2.15l-.061-.173H4a1 1 0 01-.117-1.993L4 11.084h9.08c.424-1.355 1.675-2.346 3.167-2.346zm0 1.846a1.5 1.5 0 101.493 1.645l.007-.144a1.5 1.5 0 00-1.5-1.501zM9.466 3c1.423 0 2.628.902 3.104 2.16l.06.174H20a1 1 0 01.117 1.993l-.116.007h-7.37c-.428 1.349-1.676 2.335-3.165 2.335a3.324 3.324 0 01-3.104-2.161l-.06-.174H4a1 1 0 01-.117-1.993l.117-.007h2.3C6.73 3.986 7.98 3 9.467 3zM9.5 4.834a1.5 1.5 0 100 3c.745 0 1.358-.544 1.475-1.256l.017-.12.008-.123a1.5 1.5 0 00-1.5-1.501z"/></svg>