<svg id="action--save" xmlns="http://www.w3.org/2000/svg" viewBox="0 0 24 24"><path  d="M17.084 3c.36 0 .705.125.972.35l.103.1 2.532 2.845c.27.258.423.61.423.978v13.171c0 1.03-.912 1.869-2.032 1.869H5.032C3.911 22.313 3 21.474 3 20.444V4.87C3 3.839 3.911 3 5.032 3h12.052zM5 4.998v15.295l1.925.003V15.42c0-.951.774-1.724 1.725-1.724h6.666c.951 0 1.725.773 1.725 1.724v4.89l2.041.003h.007c.014-.001.02 0 .025.003V7.531l-2.073-2.33v3.434c0 .741-.603 1.345-1.344 1.345H8.269a1.346 1.346 0 01-1.344-1.345V5H5.032c-.016.003-.026.001-.032-.002zm10.041 10.698H8.925v4.603l6.116.008v-4.611zM11.86 5H8.925v2.98l2.934-.001V5zm3.182 0h-1.182v2.979l1.182.001V5z"/></svg>