<svg id="action--archive" xmlns="http://www.w3.org/2000/svg" viewBox="0 0 24 24"><path  d="M18.917 3C20.067 3 21 3.933 21 5.083v14.834A2.083 2.083 0 0118.917 22H5.083A2.083 2.083 0 013 19.917V5.083C3 3.933 3.933 3 5.083 3zM19 9.911H5v10.005c0 .035.021.065.051.077l.033.007h13.832a.084.084 0 00.084-.084V9.911zm-6.638 1.485c.43 0 .777.347.777.776v2.162H15.5c.347 0 .52.42.275.663l-3.36 3.361a.387.387 0 01-.55 0l-3.362-3.36a.389.389 0 01.275-.664h2.361v-2.162c0-.429.348-.776.777-.776zM18.917 5H5.083A.084.084 0 005 5.084v2.827h14V5.084a.085.085 0 00-.051-.077L18.917 5z"/></svg>