<svg id="action--settings" xmlns="http://www.w3.org/2000/svg" viewBox="0 0 24 24"><path  d="M10.898 1c1.2 0 2.28.714 2.752 1.818l.299.698.078.185c.403.078.785.178 1.149.301l.76-.57a2.973 2.973 0 011.797-.599 2.98 2.98 0 012.119.877l1.09 1.092a3.01 3.01 0 01.28 3.914l-.57.761c.129.373.23.756.306 1.151l.875.373a3.012 3.012 0 011.719 3.53l-.4 1.492a2.999 2.999 0 01-3.257 2.2l-.941-.114a7.276 7.276 0 01-.846.846l.116.94a3.011 3.011 0 01-2.201 3.259l-1.492.398a2.989 2.989 0 01-3.528-1.715l-.36-.84-.018-.044a9.021 9.021 0 01-1.147-.3l-.761.569a2.968 2.968 0 01-1.796.599 2.98 2.98 0 01-2.12-.877l-1.09-1.092a3.01 3.01 0 01-.28-3.914l.569-.76a8.613 8.613 0 01-.305-1.151l-.875-.374a3.01 3.01 0 01-1.72-3.53l.4-1.493a3 3 0 013.259-2.199l.94.115c.127-.147.26-.296.406-.441.145-.145.292-.278.44-.405l-.115-.94a3.01 3.01 0 012.2-3.259l1.492-.399c.253-.067.514-.102.775-.102zm-.001 2a.96.96 0 00-.258.035l-1.492.398a.998.998 0 00-.732 1.084l.215 1.755a.525.525 0 01-.207.489c-.305.23-.621.477-.904.759-.282.282-.53.6-.761.906a.532.532 0 01-.49.204l-1.752-.215a.994.994 0 00-1.083.732l-.4 1.493a.998.998 0 00.57 1.174l1.644.7a.53.53 0 01.313.44c.077.792.26 1.495.569 2.17a.612.612 0 01-.058.624l-1.04 1.388a.997.997 0 00.094 1.302l1.09 1.091a.995.995 0 001.303.092l1.425-1.067a.518.518 0 01.309-.102c.08 0 .163.018.24.054.634.3 1.35.491 2.216.594.19.022.359.137.434.312l.7 1.639a.994.994 0 001.173.569l1.492-.399a.995.995 0 00.73-1.083l-.214-1.752a.535.535 0 01.206-.489c.313-.24.615-.473.905-.763.29-.29.523-.593.76-.904a.537.537 0 01.426-.21c.022 0 .043.002.065.004l1.753.214a.996.996 0 001.083-.732l.399-1.491a.997.997 0 00-.572-1.174l-1.642-.701a.528.528 0 01-.313-.439 6.685 6.685 0 00-.57-2.171.61.61 0 01.059-.623l1.04-1.389a.997.997 0 00-.093-1.302l-1.091-1.091a.995.995 0 00-1.302-.092L15.71 6.1a.51.51 0 01-.31.103.563.563 0 01-.238-.054c-.64-.302-1.353-.493-2.213-.592a.532.532 0 01-.437-.313l-.701-1.641A.994.994 0 0010.897 3zm1.429 4.615c.919 0 1.837.267 2.62.798a4.729 4.729 0 012.085 3.913c0 2.347-1.755 4.47-4.413 4.754a3.46 3.46 0 01-1.18-.078 5.14 5.14 0 01-2.43-1.339 4.723 4.723 0 01-1.387-3.335c0-1.563.779-3.026 2.085-3.914a4.664 4.664 0 012.62-.799zm0 2c-.543 0-1.06.158-1.496.454a2.708 2.708 0 00-.408 4.18c.386.386.9.666 1.49.81a1.471 1.471 0 00.492.033c1.725-.186 2.627-1.53 2.627-2.766a2.728 2.728 0 00-1.207-2.257 2.656 2.656 0 00-1.497-.454z"/></svg>