<svg id="action--refresh" xmlns="http://www.w3.org/2000/svg" xlink="http://www.w3.org/1999/xlink" viewBox="0 0 24 24"><defs><path id="a" d="M0 0h20.146v20.043H0z"/></defs><g transform="translate(2 2)"><mask id="b" ><use href="#a"/></mask><path  d="M1.46 4.845A9.944 9.944 0 017.856.275c.776-.179 1.57-.31 2.364-.267 3.542.191 6.254 1.87 7.946 4.277l.133-2.887a.444.444 0 01.46-.428l.96.034a.445.445 0 01.427.46l-.268 6.221-6.142-.267a.444.444 0 01-.427-.46L13.345 6a.443.443 0 01.459-.427l2.903.135a7.937 7.937 0 00-2.544-2.5 7.894 7.894 0 00-6.05-.938 7.955 7.955 0 00-4.944 3.615 7.946 7.946 0 00-.937 6.05c1.034 4.246 5.296 6.874 9.543 5.91l.123-.029c3.41-.83 5.763-3.746 6.06-7.062a.993.993 0 011.047-.903c.57.032.998.534.947 1.101-.38 4.136-3.326 7.77-7.582 8.807a4.23 4.23 0 01-.152.036C6.909 21 1.58 17.714.287 12.407A9.932 9.932 0 011.46 4.845" mask="url(#b)"/></g></svg>