<svg id="action--like" xmlns="http://www.w3.org/2000/svg" viewBox="0 0 24 24"><path  d="M15.672 2c1.194 0 2.174.896 2.279 2.085.158 1.77-.1 3.548-.748 5.195l-.145.351h2.812a2.342 2.342 0 012.34 2.34c0 .432-.127.854-.351 1.22.321.39.522.883.522 1.426 0 .473-.152.915-.406 1.282a2.253 2.253 0 01-.334 2.946l-.129.109v.43c0 .737-.299 1.457-.82 1.977a2.773 2.773 0 01-1.772.81l-.203.007h-7.051c-.814 0-1.58-.316-2.156-.891a.778.778 0 00-.432-.221l-.124-.01h-.26a1.6 1.6 0 01-1.192.73l-.152.007H3.6c-.833 0-1.52-.64-1.593-1.455L2 20.193v-7.931a1.6 1.6 0 011.455-1.592l.145-.007h3.75c.704 0 1.296.458 1.51 1.09a.58.58 0 00.158-.108l.063-.074 1.842-2.63a18.22 18.22 0 002.554-5.302A2.3 2.3 0 0115.672 2zm-.322 2.192a20.09 20.09 0 01-2.52 5.416l-.307.452-1.842 2.632c-.37.527-.926.873-1.543 1.001l-.187.032v5.377c.736 0 1.423.285 1.94.804.177.176.404.285.65.312l.125.007h7.051a.844.844 0 00.834-.73l.007-.111v-.61c.069-1.173.636-1.3.636-1.3a.302.302 0 00-.005-.589l-.069-.008h-.266a.976.976 0 01-.114-1.947l.114-.007h.267c.187-.037.306-.142.306-.306 0-.145-.1-.266-.236-.298l-.07-.008h-.45a.976.976 0 01-.114-1.947l.114-.007h.199a.387.387 0 00.387-.386.387.387 0 00-.31-.378l-.077-.008h-3.324a1.617 1.617 0 01-1.378-.764 1.615 1.615 0 01-.083-1.573 9.467 9.467 0 00.92-4.99c-.028-.323-.564-.373-.655-.066zm-8.353 8.423H3.954v7.223h3.043v-7.223z"/></svg>