<svg id="action--file--import" xmlns="http://www.w3.org/2000/svg" viewBox="0 0 24 24"><path  d="M8.081 11.347c.232 0 .419.187.419.42v1.16a.42.42 0 01-.419.42H6v7h13v-7h-1.931a.57.57 0 01-.569-.569v-.863c0-.314.255-.568.569-.568h3.008c.51 0 .923.413.923.923v8.75c0 .733-.594 1.327-1.326 1.327H5.327A1.327 1.327 0 014 21.02v-8.4c0-.704.57-1.273 1.273-1.273zm4.066-9.2a.5.5 0 01.707 0L17.1 6.391a.5.5 0 010 .707l-.707.707a.5.5 0 01-.707 0l-2.187-2.188.001 10.072a1 1 0 01-2 0V5.623L9.315 7.806a.502.502 0 01-.708 0L7.901 7.1a.5.5 0 010-.707z"/></svg>