<svg id="action--settings--alt" xmlns="http://www.w3.org/2000/svg" viewBox="0 0 24 24"><path  d="M19.392 22.15a2.992 2.992 0 01-2.106-.877l-6.408-6.408a.999.999 0 111.414-1.414L18.7 19.86c.316.316.808.387 1.118.163a.823.823 0 00.11-1.254l-7.997-7.998c-.858-.857-1.254-2.027-1.06-3.128a3.972 3.972 0 00-1.097-3.49 3.945 3.945 0 00-1.368-.889c.538.557.835 1.29.835 2.067 0 .794-.31 1.542-.872 2.103l-.934.935a2.98 2.98 0 01-4.171.037A3.951 3.951 0 008.545 10.6a1 1 0 11.797 1.834 5.939 5.939 0 01-6.603-1.246 5.95 5.95 0 01-1.613-5.429l.12-.585.613-.214a1.062 1.062 0 011.057.27L4.64 6.954a.999.999 0 001.38 0l.934-.935a.97.97 0 00.286-.689.966.966 0 00-.285-.689L4.799 2.484l.164-.635c.115-.372.423-.65.805-.726a5.952 5.952 0 015.42 1.615 5.971 5.971 0 011.652 5.25c-.08.46.108.971.505 1.368l7.998 7.998c.586.585.884 1.396.817 2.222a2.826 2.826 0 01-1.174 2.07 2.714 2.714 0 01-1.594.503"/></svg>