<svg id="action--leave" xmlns="http://www.w3.org/2000/svg" viewBox="0 0 24 24"><path  d="M12.708 3A2.29 2.29 0 0115 5.292v1.754a.578.578 0 01-.578.579h-.843A.58.58 0 0113 7.046V5.292A.292.292 0 0012.708 5H3.292A.292.292 0 003 5.292v13.417c0 .16.131.291.291.291h9.418a.292.292 0 00.291-.292v-1.476c0-.336.272-.607.608-.607h.785c.335 0 .607.271.607.607v1.477A2.29 2.29 0 0112.709 21H3.292A2.292 2.292 0 011 18.708V5.292A2.292 2.292 0 013.292 3zm5.611 4.75a.574.574 0 01.813 0l4.25 4.25-4.25 4.25a.574.574 0 01-.813 0l-.6-.601a.574.574 0 010-.813L19.553 13H9.124a.592.592 0 01-.59-.592v-.817c0-.326.264-.591.59-.591h10.43l-1.836-1.836a.574.574 0 010-.813z"/></svg>