<svg id="action--delete" xmlns="http://www.w3.org/2000/svg" viewBox="0 0 24 24"><path  d="M6.365 13.1l.705 8.19 9.03.016h.006l.704-8.206h2.006l-.732 8.515c.003.887-.888 1.678-1.983 1.678H7.073c-1.095 0-1.986-.791-1.986-1.763l-.73-8.43h2.008zM13.003 1c1.746 0 3.167 1.345 3.167 2.997v.504h.671c2.389 0 4.332 2.392 4.332 5.331a1 1 0 01-1 1H3a1 1 0 01-1-1c0-2.939 1.944-5.331 4.332-5.331h.672v-.504C7.004 2.345 8.424 1 10.171 1zm3.838 5.501H6.332c-1.021 0-1.915.996-2.22 2.331h14.949c-.305-1.335-1.199-2.331-2.22-2.331zM13.003 3h-2.832c-.644 0-1.167.447-1.167.997v.504h5.166v-.504c0-.55-.524-.997-1.167-.997z"/></svg>