<svg id="action--lock--unlock" xmlns="http://www.w3.org/2000/svg" viewBox="0 0 24 24"><path  d="M11.334 1.025a5.008 5.008 0 015.434 4.164.705.705 0 01-.697.81h-.612a.692.692 0 01-.679-.566 3.006 3.006 0 00-3.545-2.374c-1.424.276-2.401 1.609-2.401 3.06v2.425c3.727-.378 7.541-.066 11.111.969a.998.998 0 01.722.96v10.305a.998.998 0 01-.722.96 29.217 29.217 0 01-8.111 1.137c-2.749 0-5.497-.38-8.112-1.137a.998.998 0 01-.722-.96V10.473c0-.445.294-.837.722-.96a28.404 28.404 0 013.112-.696V6.223c0-2.61 1.902-4.944 4.5-5.198zm7.333 10.21a27.525 27.525 0 00-13.667 0v8.78a27.548 27.548 0 0013.667 0zm-6.834.89a1.994 1.994 0 011 3.723v2.277a1 1 0 11-2 0v-2.277a1.994 1.994 0 011-3.723z"/></svg>