<svg id="action--block" xmlns="http://www.w3.org/2000/svg" viewBox="0 0 24 24"><path  d="M12.077 2l.078.001c5.514.087 9.93 4.642 9.844 10.155a9.938 9.938 0 01-3.039 7.025A9.936 9.936 0 0112.004 22l-.16-.001A9.938 9.938 0 014.82 18.96a9.94 9.94 0 01-2.818-7.115C2.086 6.384 6.556 2 11.998 2l.157.001zM5.682 7.097a7.96 7.96 0 00-1.68 4.779 7.942 7.942 0 002.253 5.692 7.952 7.952 0 005.621 2.431 7.865 7.865 0 005.03-1.678zM12.062 4h-.064a7.96 7.96 0 00-4.901 1.683L18.32 16.907A7.943 7.943 0 0020 12.125c.067-4.41-3.465-8.055-7.876-8.124L11.998 4z"/></svg>