<svg id="action--find--replace" xmlns="http://www.w3.org/2000/svg" viewBox="0 0 24 24"><path  d="M15.627 1.834l.076.004 4.858.749a.387.387 0 01.214.656l-1.23 1.23a10.503 10.503 0 012.762 7.098c0 5.79-4.71 10.5-10.5 10.5a1 1 0 110-2c4.687 0 8.5-3.814 8.5-8.5a8.5 8.5 0 00-2.182-5.678l-1.459 1.459a.386.386 0 01-.655-.215l-.749-4.857a.388.388 0 01.441-.442zM11.5 1a1 1 0 110 2C6.813 3 3 6.814 3 11.5c0 2.108.787 4.126 2.182 5.678l1.459-1.459a.386.386 0 01.655.215l.748 4.857a.386.386 0 01-.441.441l-4.857-.748a.387.387 0 01-.214-.656l1.231-1.231A10.507 10.507 0 011 11.5C1 5.71 5.711 1 11.5 1z"/></svg>