<svg id="action--open" xmlns="http://www.w3.org/2000/svg" viewBox="0 0 24 24"><path  d="M11.491 3a.51.51 0 01.509.51v.981a.51.51 0 01-.509.509H5.084A.085.085 0 005 5.084v13.832c0 .047.038.084.084.084h13.833a.083.083 0 00.083-.083V12.51a.51.51 0 01.51-.51h.981a.51.51 0 01.509.51v6.406A2.084 2.084 0 0118.916 21H5.084A2.084 2.084 0 013 18.917V5.083C3 3.933 3.933 3 5.083 3zm9.121 0c.214 0 .388.174.388.389v4.754a.389.389 0 01-.663.274l-1.67-1.67-6.618 6.618a.775.775 0 01-1.098 0l-.316-.315a.778.778 0 010-1.099l6.618-6.618-1.669-1.67A.388.388 0 0115.858 3z"/></svg>