<svg id="action--copy" xmlns="http://www.w3.org/2000/svg" viewBox="0 0 24 24"><path  d="M8 9v2H5.181c-.1 0-.181.081-.181.181v7.637c0 .101.081.182.181.182h7.638c.1 0 .181-.081.181-.182V17h2v1.818A2.184 2.184 0 0112.819 21H5.181A2.184 2.184 0 013 18.818v-7.637C3 9.978 3.979 9 5.181 9H8zm11.819-6C21.021 3 22 3.978 22 5.181v7.637A2.184 2.184 0 0119.819 15h-7.638A2.184 2.184 0 0110 12.818V5.181C10 3.978 10.979 3 12.181 3zm0 2h-7.638c-.1 0-.181.081-.181.181v7.637c0 .101.081.182.181.182h7.638c.1 0 .181-.081.181-.182V5.181c0-.1-.081-.181-.181-.181z"/></svg>