<svg id="action--lock--lock" xmlns="http://www.w3.org/2000/svg" viewBox="0 0 24 24"><path  d="M11.834 1c2.756 0 5 2.244 5 5v2.817c1.05.18 2.093.401 3.111.696a.998.998 0 01.722.96v10.305a.998.998 0 01-.722.96 29.217 29.217 0 01-8.111 1.137c-2.749 0-5.497-.379-8.112-1.137a.998.998 0 01-.722-.96V10.473c0-.445.294-.837.722-.96a28.404 28.404 0 013.112-.696V6c0-2.756 2.243-5 5-5zm6.833 10.236a27.525 27.525 0 00-13.667 0v8.779a27.548 27.548 0 0013.667 0zm-6.834.89a2 2 0 012 2c0 .737-.405 1.376-1 1.722v2.277a1 1 0 11-2 0v-2.277c-.595-.346-1-.985-1-1.723a2 2 0 012-2zM11.835 3c-1.655 0-3 1.346-3 3v2.544a29.779 29.779 0 016 0V6c0-1.654-1.346-3-3-3z"/></svg>