<svg id="action--search" xmlns="http://www.w3.org/2000/svg" viewBox="0 0 24 24"><path  d="M21.199 19.655l-6.614-6.613a6.894 6.894 0 001.203-5.472c-.541-2.717-2.724-4.91-5.443-5.436a6.977 6.977 0 00-8.258 7.944c.412 2.647 2.404 4.852 4.983 5.583a6.823 6.823 0 003.785-.002c.227-.066.292-.358.126-.525l-1.282-1.281c-.242.036-.484.074-.736.074a4.972 4.972 0 01-4.85-6.035 4.949 4.949 0 013.783-3.78 4.973 4.973 0 016.03 4.853 4.951 4.951 0 01-1.488 3.54.865.865 0 00-.023 1.236l.758.758 6.612 6.57a.997.997 0 001.414 0 .999.999 0 000-1.414"/></svg>