<svg id="action--copy--link" xmlns="http://www.w3.org/2000/svg" viewBox="0 0 24 24"><path  d="M9.818 14.058a4.411 4.411 0 006.233 0l3.536-3.537a4.373 4.373 0 001.29-3.116 4.377 4.377 0 00-1.29-3.116A4.394 4.394 0 0016.47 3a4.388 4.388 0 00-3.116 1.289l-1.257 1.256a1 1 0 001.415 1.414l1.256-1.256a2.41 2.41 0 013.404 0 2.39 2.39 0 01.705 1.702 2.39 2.39 0 01-.705 1.702l-3.536 3.537a2.41 2.41 0 01-3.404 0 1 1 0 10-1.415 1.414zM3.29 19.292a4.41 4.41 0 006.232 0l1.394-1.394a.999.999 0 10-1.414-1.414l-1.394 1.394A2.41 2.41 0 014 16.176c0-.643.251-1.247.706-1.702l3.536-3.537a2.412 2.412 0 013.404 0 .999.999 0 101.414-1.414 4.393 4.393 0 00-3.116-1.288 4.392 4.392 0 00-3.116 1.288L3.291 13.06A4.379 4.379 0 002 16.176a4.38 4.38 0 001.291 3.116z"/></svg>