<svg id="action--star--outline" xmlns="http://www.w3.org/2000/svg" viewBox="0 0 24 24"><path  d="M22.06 9.632a1.002 1.002 0 00-.808-.68l-4.616-.672a.514.514 0 00-.485.201l-.665.885a.514.514 0 00.337.817l3.136.456-3.326 3.243a.995.995 0 00-.287.884l.785 4.578-4.111-2.16a.998.998 0 00-.932 0l-4.11 2.16.785-4.578a1 1 0 00-.287-.885L4.149 10.64l4.597-.668a.998.998 0 00.752-.547l2.057-4.165 1.548 3.14c.114.23.43.258.585.053l.882-1.175a.345.345 0 00.033-.36l-2.152-4.36a1 1 0 00-1.793 0l-2.72 5.511-6.081.883a1 1 0 00-.555 1.705l4.4 4.29-1.038 6.057a1 1 0 001.45 1.054l5.44-2.859 5.44 2.86a1 1 0 001.45-1.055l-1.038-6.057 4.4-4.29a.997.997 0 00.254-1.024"/></svg>