<svg id="action--favourite--outline" xmlns="http://www.w3.org/2000/svg" viewBox="0 0 24 24"><path  fill-rule="evenodd" d="M21.538 2.914c-2.58-2.059-6.34-1.708-8.71.588l-.77.748-.746-.768C9.016 1.112 5.266.642 2.623 2.62a6.504 6.504 0 00-.795 9.74l9.943 10.258 1.332-1.292a.285.285 0 00.006-.403L3.323 10.912a4.42 4.42 0 01.096-6.242 4.4 4.4 0 013.072-1.243c1.152 0 2.305.449 3.169 1.34l2.352 2.425 2.424-2.35a4.42 4.42 0 016.534.432c1.434 1.802 1.122 4.442-.532 6.044l-7.036 6.82a.178.178 0 00-.002.255l1.22 1.22a.18.18 0 00.25.001l7.16-6.94a6.505 6.505 0 00-.492-9.76"/></svg>