<svg id="communication--call--call--tune" xmlns="http://www.w3.org/2000/svg" viewBox="0 0 24 24"><path  d="M18.053 11.775a5.901 5.901 0 015.901 5.9v.449c0 .55-.153 1.104-.492 1.538a2.365 2.365 0 01-1.882.927h-4.572c-.551 0-1.104-.152-1.54-.491a2.368 2.368 0 01-.926-1.883l-.013-.955a.999.999 0 111.999-.026l.013.967a.388.388 0 00.11.279.37.37 0 00.264.109h4.665a.373.373 0 00.374-.374v-.54a3.902 3.902 0 00-3.901-3.9h-8.64v4.44a2.374 2.374 0 01-2.374 2.374H2.467c-.551 0-1.104-.152-1.54-.491A2.37 2.37 0 010 18.215v-.346c0-1.534.513-3.05 1.551-4.18a5.867 5.867 0 014.35-1.914zm-12.152 2a3.878 3.878 0 00-2.758 1.142A3.877 3.877 0 002 17.676v.539a.373.373 0 00.374.374h4.665a.373.373 0 00.374-.374v-4.44zm13.824-9.552l.107.047a1 1 0 01.437 1.345L19.09 7.932a1 1 0 01-1.238.484l-.107-.047a1 1 0 01-.437-1.345l1.18-2.316a1 1 0 011.237-.485zm-14.257.484l1.179 2.317a1 1 0 01-.437 1.344h-.001a1 1 0 01-1.345-.437l-1.18-2.316a1 1 0 01.337-1.286l.1-.058a1.001 1.001 0 011.347.436zM11.977 2a1 1 0 011 1v3.785a1 1 0 01-.883.993l-.117.007a1 1 0 01-1-1V3a1 1 0 011-1z"/></svg>