<svg id="communication--text--email--alt" xmlns="http://www.w3.org/2000/svg" viewBox="0 0 24 24"><path  d="M11.882 16.285c-1.937 0-3.29-1.604-3.29-3.9 0-2.321 1.322-3.879 3.29-3.879 1.963 0 3.334 1.594 3.334 3.879 0 2.296-1.371 3.9-3.334 3.9M12.387 2C6.465 2 2 6.389 2 12.211 2 18.115 6.526 22.4 12.76 22.4c1.285 0 2.346-.18 3.177-.403a.924.924 0 00.68-.898c0-.613-.58-1.042-1.174-.893a10.86 10.86 0 01-2.683.311c-5.099 0-8.8-3.493-8.8-8.306 0-4.825 3.544-8.327 8.427-8.327 4.867 0 8.011 3.174 8.011 8.088 0 2.074-.88 4.313-2.303 4.313-.76 0-.919-.744-.919-1.369V7.721a1.013 1.013 0 10-2.025 0v.235a4.819 4.819 0 00-3.422-1.376c-2.968 0-5.206 2.495-5.206 5.805 0 3.297 2.238 5.784 5.206 5.784 1.507 0 2.885-.6 3.835-1.655.428 1.056 1.286 1.655 2.399 1.655 2.53 0 4.438-2.664 4.438-6.197C22.401 6.1 18.283 2 12.387 2"/></svg>