<svg id="communication--text--styling--codeblock" xmlns="http://www.w3.org/2000/svg" viewBox="0 0 24 24"><path  d="M17.008 6.686c.698 0 1.266.567 1.266 1.266v8.468c0 .698-.568 1.265-1.266 1.265H6.54a1.267 1.267 0 01-1.266-1.265v-6.026h1v6.025c0 .148.119.267.266.267h10.468a.266.266 0 00.266-.267V7.951a.266.266 0 00-.266-.265h-1.56v-1zM7.219 5l.706.707-1.512 1.512 1.512 1.512-.706.708L5 7.219 7.219 5zm4.671 0l2.219 2.219-2.219 2.22-.707-.708 1.512-1.512-1.512-1.512L11.89 5zm-1.848.093v3.976h-1V5.091h1z"/></svg>