<svg id="communication--av--mic--on" xmlns="http://www.w3.org/2000/svg" viewBox="0 0 24 24"><path  d="M12.391 21.534a1 1 0 110 2 1 1 0 010-2zm5 0a1 1 0 110 2 1 1 0 010-2zm-10 0a1 1 0 110 2 1 1 0 010-2zm8-2.998a1 1 0 110 2h-6a1 1 0 110-2zM6.025 7.789a1 1 0 01.986 1.014L7 9.614a5.393 5.393 0 005.313 5.458l.072.001a5.395 5.395 0 005.386-5.315l.01-.843c.008-.55.497-1.017 1.014-.986.552.008.994.461.987 1.014l-.011.842c-.055 4.04-3.358 7.288-7.386 7.288h-.1c-4.072-.057-7.34-3.415-7.285-7.487l.01-.81c.008-.552.49-.989 1.014-.987zM12.392 0a3.816 3.816 0 013.81 3.812v5.443a3.816 3.816 0 01-3.81 3.812A3.816 3.816 0 018.58 9.255V3.812A3.816 3.816 0 0112.392 0zm0 2c-1 0-1.812.813-1.812 1.812v5.443c0 .999.812 1.812 1.812 1.812.998 0 1.81-.813 1.81-1.812V3.812c0-.999-.812-1.812-1.81-1.812z"/></svg>