<svg id="communication--text--styling--bullets" xmlns="http://www.w3.org/2000/svg" viewBox="0 0 24 24"><path  d="M6.613 14.07a.613.613 0 110 1.226.613.613 0 010-1.226zm10.355.112c.132 0 .24.107.24.238v.524a.238.238 0 01-.24.238H9.446a.238.238 0 01-.239-.238v-.524c0-.13.107-.238.24-.238zM6.613 11.035a.613.613 0 110 1.225.613.613 0 010-1.225zm10.355.112c.132 0 .24.107.24.239v.523a.238.238 0 01-.24.238H9.446a.238.238 0 01-.239-.238v-.523c0-.132.107-.24.24-.24zM6.613 8a.613.613 0 110 1.226.613.613 0 010-1.227zm10.355.113c.132 0 .24.106.24.238v.523a.239.239 0 01-.24.239H9.446a.239.239 0 01-.239-.24v-.522c0-.132.107-.238.24-.238z"/></svg>