<svg id="communication--device--phone" xmlns="http://www.w3.org/2000/svg" viewBox="0 0 24 24"><path  d="M20.633 18.22l-.381.38a3.876 3.876 0 01-2.759 1.142 3.872 3.872 0 01-2.758-1.142l-1.069-1.068 3.139-3.14a.372.372 0 01.53 0l3.298 3.298a.373.373 0 010 .53m2.09-.573c-.069-.548-.352-1.047-.742-1.437l-3.232-3.232a2.373 2.373 0 00-3.358 0l-3.139 3.14-6.11-6.11a3.903 3.903 0 010-5.518l.382-.38a.369.369 0 01.528 0l3.299 3.298a.373.373 0 01.109.264.384.384 0 01-.119.275l-.675.694a.999.999 0 101.433 1.394l.666-.684c.52-.52.769-1.239.676-1.986-.068-.548-.351-1.046-.742-1.437L8.466 2.696a2.364 2.364 0 00-1.985-.677c-.548.068-1.046.351-1.436.741l-.317.316a5.903 5.903 0 000 8.346l8.593 8.592a5.865 5.865 0 004.43 1.724c1.532-.066 2.967-.776 4.051-1.86l.245-.245a2.36 2.36 0 00.676-1.986"/></svg>