<svg id="communication--call--split" xmlns="http://www.w3.org/2000/svg" viewBox="0 0 24 24"><path  d="M20.913 2.744v5.712a.555.555 0 01-.555.555h-.89a.555.555 0 01-.555-.555V6.21l-5.186 7.175a1.039 1.039 0 00-.196.607v7.571a.696.696 0 01-.695.696h-.61a.696.696 0 01-.695-.696v-8.186c0-.24.076-.476.217-.67l5.756-7.963h-2.3a.555.555 0 01-.554-.555V3.3c0-.306.248-.555.555-.555h5.708zm-11.201.002c.306 0 .555.249.555.555v.89a.555.555 0 01-.555.555H7.568l.003.003 3.367 4.687a.291.291 0 01-.001.34l-.88 1.211a.287.287 0 01-.465-.001L6 5.99v2.464a.554.554 0 01-.554.555h-.891A.555.555 0 014 8.454V2.746z"/></svg>