<svg id="communication--call--forward--unconditional" xmlns="http://www.w3.org/2000/svg" viewBox="0 0 24 24"><path  d="M11.793 6.14a.48.48 0 01.677 0l5.128 5.13a.855.855 0 010 1.208l-5.128 5.128a.479.479 0 01-.677 0l-.738-.737a.479.479 0 010-.677l3.319-3.319H1.479A.478.478 0 011 12.395v-1.043c0-.265.214-.479.479-.479h12.895l-3.319-3.318a.479.479 0 010-.677zm5.61 0a.479.479 0 01.678 0l5.733 5.733-5.733 5.733a.479.479 0 01-.677 0l-.738-.737a.48.48 0 010-.677l3.319-3.319h-.008l1-1-1-1h.008l-3.319-3.318a.48.48 0 010-.677z"/></svg>