<svg id="communication--device--printer" xmlns="http://www.w3.org/2000/svg" viewBox="0 0 24 24"><path  d="M19.724 1v4.059h1.328c.978 0 1.773.796 1.773 1.774v11.054c0 .977-.795 1.773-1.773 1.773h-1.328v1.85c0 .976-.795 1.772-1.773 1.772H5.875a1.776 1.776 0 01-1.774-1.773V19.66H2.774A1.776 1.776 0 011 17.887V6.834c0-.978.796-1.774 1.774-1.774l1.327-.001V1h15.623zm-2 14.164H6.101v6.118h11.623v-6.118zm3.101-8.104H3v10.6h1.101v-4.496h15.623v4.496h1.101V7.06zm-3.336 1.665a1.5 1.5 0 110 3 1.5 1.5 0 010-3zM17.724 3H6.101v2.059h11.623V3z"/></svg>