<svg id="communication--dialog" xmlns="http://www.w3.org/2000/svg" viewBox="0 0 24 24"><path  d="M14.456 20.383a5.797 5.797 0 01-4.1-1.772 5.839 5.839 0 01-1.251-1.95 7.773 7.773 0 005.184-2.198 7.78 7.78 0 002.37-5.339c.773.3 1.484.75 2.078 1.363a5.795 5.795 0 011.644 4.152c-.05 3.217-2.686 5.806-5.925 5.744M3 8.747a5.797 5.797 0 011.773-4.099 5.793 5.793 0 014.152-1.645 5.798 5.798 0 014.1 1.773c.552.57.973 1.233 1.252 1.952a7.753 7.753 0 00-5.185 2.194 7.776 7.776 0 00-2.37 5.34A5.798 5.798 0 014.645 12.9 5.803 5.803 0 013 8.747m11.669.181a5.842 5.842 0 01-5.833 5.745h-.092c-.01 0-.018-.004-.026-.004-.002-.07-.008-.14-.007-.21a5.797 5.797 0 011.773-4.1 5.793 5.793 0 014.152-1.645c.009 0 .017.003.027.003 0 .07.007.14.006.211m5.503.167a7.788 7.788 0 00-3.738-2.146 7.792 7.792 0 00-1.973-3.565 7.783 7.783 0 00-5.505-2.38C6.852.938 4.884 1.755 3.382 3.21A7.787 7.787 0 001 8.716a7.788 7.788 0 002.208 5.575 7.778 7.778 0 003.739 2.146 7.786 7.786 0 001.972 3.565 7.783 7.783 0 005.63 2.382 7.781 7.781 0 005.45-2.21 7.78 7.78 0 002.38-5.504 7.783 7.783 0 00-2.207-5.575"/></svg>