<svg id="communication--av--voice" xmlns="http://www.w3.org/2000/svg" viewBox="0 0 24 24"><path  d="M12.451 3a.55.55 0 01.549.549V19.99a.55.55 0 01-.549.549h-.902A.55.55 0 0111 19.99V3.549A.55.55 0 0111.549 3zm4 3.96a.55.55 0 01.549.549v8.521a.55.55 0 01-.549.549h-.902A.55.55 0 0115 16.03V7.509a.55.55 0 01.549-.549zm-8 0A.55.55 0 019 7.509v8.521a.55.55 0 01-.549.549h-.902A.55.55 0 017 16.03V7.509a.55.55 0 01.549-.549zm-4 2.583a.55.55 0 01.549.549v3.355a.55.55 0 01-.549.549h-.902A.55.55 0 013 13.447v-3.355a.55.55 0 01.549-.549zm16 0a.55.55 0 01.549.549v3.355a.55.55 0 01-.549.549h-.902a.55.55 0 01-.549-.549v-3.355a.55.55 0 01.549-.549z"/></svg>