<svg id="communication--text--styling--top" xmlns="http://www.w3.org/2000/svg" viewBox="0 0 24 24"><path  d="M9.626 7.999l1.87 2.626 1.856-2.626h1.533l-2.579 3.623 2.653 3.72h-1.573l-1.924-2.706-1.917 2.707H8l2.638-3.7-2.584-3.644h1.572zM18.562 3c.228 0 .45.03.665.09.215.061.406.155.574.281.168.126.302.284.402.475.1.192.15.416.15.672a1.523 1.523 0 01-.262.875 2.263 2.263 0 01-.28.34c-.105.104-.213.209-.326.312l-1.147 1.021h2.022v1.022h-3.584V7.11l1.933-1.747c.12-.116.219-.235.294-.357a.758.758 0 00.11-.405.572.572 0 00-.167-.43.61.61 0 00-.447-.164.619.619 0 00-.48.207.936.936 0 00-.22.542l-1.127-.154c.027-.252.097-.476.206-.673a1.741 1.741 0 01.994-.82c.217-.073.446-.109.69-.109z"/></svg>