<svg id="communication--call--repeat" xmlns="http://www.w3.org/2000/svg" viewBox="0 0 24 24"><path  d="M21.263 9.613a.275.275 0 01.47.194v9.378H5.828l2.053 2.054a.48.48 0 010 .679l-.735.735a.48.48 0 01-.679 0L2 18.186l4.47-4.47a.48.48 0 01.68 0l.735.735a.481.481 0 010 .679l-2.057 2.056 13.905-.001v-5.586c0-.292.116-.572.323-.78zM16.586 1.14a.48.48 0 01.679 0l4.468 4.467-4.471 4.47a.48.48 0 01-.679 0l-.735-.735a.482.482 0 010-.68l2.057-2.055H4v5.586c0 .293-.116.573-.323.78L2.47 14.181a.276.276 0 01-.47-.195V4.608h15.905l-2.054-2.053a.482.482 0 010-.68z"/></svg>