<svg id="communication--connection--cloud" xmlns="http://www.w3.org/2000/svg" viewBox="0 0 24 24"><path  d="M16.923 8.69C16.467 6.029 14.183 4 11.443 4c-1.37 0-3.05.61-4.195 1.782a.253.253 0 00.041.38l1.255.87c.095.067.22.054.307-.022C9.635 6.318 10.738 6 11.443 6c1.965 0 3.563 1.645 3.565 3.623a.998.998 0 001.093 1.062 3.41 3.41 0 01.337-.017c1.965 0 3.563 1.645 3.563 3.668s-1.598 3.668-3.563 3.668H7.093C5.387 18.004 4 16.574 4 14.816c0-1.707 1.348-3.151 2.956-3.185.516-.01.99-.368 1.05-.88.005-.055.007-.11.005-.163-.02-.488-.449-.856-.934-.912a3.084 3.084 0 00-.867.022C3.825 10.096 2 12.24 2 14.816c0 2.86 2.285 5.188 5.093 5.188h9.345c3.068 0 5.563-2.543 5.563-5.668 0-2.958-2.237-5.395-5.078-5.646"/></svg>