<svg id="communication--text--styling--italic" xmlns="http://www.w3.org/2000/svg" viewBox="0 0 24 24"><path  d="M16.033 6l-.125.549a5.51 5.51 0 00-.672.074 5.338 5.338 0 00-.614.125c-.233.07-.4.182-.498.332-.1.149-.172.314-.216.492l-1.998 8.607a1.084 1.084 0 00-.034.264c0 .127.028.235.083.324a.678.678 0 00.3.232c.083.039.265.084.547.137.283.052.493.085.63.095l-.123.548H8l.125-.548c.155-.01.376-.027.664-.05.287-.022.493-.055.614-.1a1.09 1.09 0 00.49-.318c.11-.136.185-.301.224-.494l1.992-8.617a1.494 1.494 0 00.033-.298.598.598 0 00-.07-.292c-.048-.082-.146-.157-.295-.223a3.356 3.356 0 00-.61-.187 4.893 4.893 0 00-.57-.103l.125-.55h5.31z"/></svg>