<svg id="communication--groups" xmlns="http://www.w3.org/2000/svg" viewBox="0 0 24 24"><path  d="M17.689 14.212a4.297 4.297 0 014.225 4.359 4.297 4.297 0 01-4.291 4.225h-.067a4.263 4.263 0 01-3.015-1.305 4.26 4.26 0 01-1.21-3.053 4.298 4.298 0 014.292-4.226zM7.985 2a6.876 6.876 0 015.707 3.214 4.297 4.297 0 013.95-2.628h.069a4.264 4.264 0 013.014 1.305 4.257 4.257 0 011.21 3.054A4.266 4.266 0 0120.63 9.96a4.263 4.263 0 01-2.985 1.21h-.07a4.261 4.261 0 01-2.911-1.22 6.886 6.886 0 01-5.602 5.698 4.266 4.266 0 011.107 2.923 4.297 4.297 0 01-4.291 4.225h-.067a4.267 4.267 0 01-3.016-1.305 4.264 4.264 0 01-1.21-3.053 4.289 4.289 0 012.51-3.825A6.872 6.872 0 011 8.771a6.833 6.833 0 012.09-4.832C4.41 2.66 6.138 1.999 7.985 2zm9.673 14.212h-.035a2.295 2.295 0 00-1.646 3.888 2.28 2.28 0 001.61.696h.036a2.294 2.294 0 002.29-2.256 2.295 2.295 0 00-2.255-2.328zm-11.744 0h-.035A2.295 2.295 0 004.233 20.1a2.28 2.28 0 001.61.696h.036a2.294 2.294 0 001.645-3.888 2.28 2.28 0 00-1.61-.696zm2-12.213h-.038a4.844 4.844 0 00-3.393 1.376A4.844 4.844 0 003 8.802a4.884 4.884 0 004.802 4.954l.076.001a4.884 4.884 0 004.877-4.803A4.884 4.884 0 007.954 4l-.078-.001zm9.765.587h-.036c-.6 0-1.164.229-1.595.647a2.293 2.293 0 001.56 3.937c.609-.01 1.19-.22 1.63-.646.44-.426.688-.998.697-1.611a2.277 2.277 0 00-.646-1.631 2.28 2.28 0 00-1.61-.696z"/></svg>