<svg id="communication--call--call--off" xmlns="http://www.w3.org/2000/svg" viewBox="0 0 24 24"><path  d="M18.99 4.575a.999.999 0 010 1.414l-8.933 8.932 1.195 1.196 3.139-3.14a2.375 2.375 0 013.358 0l3.232 3.233c.39.39.673.889.742 1.437a2.363 2.363 0 01-.676 1.987l-.245.244c-1.085 1.084-2.519 1.795-4.052 1.86a5.867 5.867 0 01-4.429-1.723l-3.678-3.679-4.654 4.653a.997.997 0 01-1.414 0 .999.999 0 010-1.414l15-15a.999.999 0 011.414 0zm-2.92 9.707a.377.377 0 00-.265.11l-3.139 3.14 1.069 1.069a3.876 3.876 0 002.758 1.142 3.88 3.88 0 002.759-1.142l.381-.382a.371.371 0 000-.528l-3.298-3.3a.377.377 0 00-.265-.11zM5.48 2.02a2.363 2.363 0 011.987.676l3.232 3.233c.39.39.673.889.742 1.436a2.36 2.36 0 01-.574 1.858l-.908.908a.985.985 0 01-1.274-.076 1 1 0 01-.019-1.414l.676-.694a.384.384 0 00.118-.274.371.371 0 00-.109-.264l-3.299-3.3a.373.373 0 00-.528 0l-.382.383a3.9 3.9 0 000 5.516l2.47 2.47-1.414 1.414-2.47-2.47a5.9 5.9 0 010-8.344l.317-.318c.39-.39.888-.672 1.435-.74z"/></svg>