<svg id="communication--text--styling--underline" xmlns="http://www.w3.org/2000/svg" viewBox="0 0 24 24"><path  d="M16.059 17.661v1.036H8v-1.036h8.059zM9.572 6.001v6.16c0 .335.043.67.127 1 .084.331.222.628.412.89.191.261.444.471.756.63.313.158.702.237 1.17.237.457 0 .845-.079 1.161-.238.319-.158.572-.368.763-.63.191-.26.33-.558.413-.889.085-.33.127-.665.127-1V6h1.386v6.243c0 .504-.078.992-.232 1.463a3.558 3.558 0 01-.707 1.253 3.456 3.456 0 01-1.204.875c-.485.22-1.054.33-1.707.33-.654 0-1.224-.11-1.709-.33a3.456 3.456 0 01-1.204-.875 3.574 3.574 0 01-.707-1.253 4.68 4.68 0 01-.23-1.463V6h1.386z"/></svg>