<svg id="communication--av--player--forward--alt" xmlns="http://www.w3.org/2000/svg" viewBox="0 0 24 24"><path  d="M12.22 4.096c.43-.182.918-.1 1.268.2l9.153 7.032c.312.305.483.713.483 1.15a1.6 1.6 0 01-.482 1.154l-.092.08-9.062 6.953a1.225 1.225 0 01-1.268.198 1.218 1.218 0 01-.75-1.107l6.614-5.132-.003-.005 2.789-2.14-7.402-5.678v8.527a.6.6 0 01-.232.474l-1.531 1.186a.147.147 0 01-.237-.116V5.226c0-.495.295-.939.752-1.13zm-9.47.001a1.219 1.219 0 011.27.198L9.313 8.36a.69.69 0 01.267.544v1.786c0 .16-.183.251-.31.153L3.999 6.8v11.36l5.27-4.043a.193.193 0 01.31.154v1.762a.741.741 0 01-.29.59L4.02 20.663A1.225 1.225 0 012 19.734V5.225c0-.495.295-.939.75-1.129z"/></svg>