<svg id="communication--text--chat" xmlns="http://www.w3.org/2000/svg" viewBox="0 0 24 24"><path  d="M15.621 7.834c.526 0 .954.428.954.953v9.15a.955.955 0 01-.954.953H13.76v2.567a.959.959 0 01-.954.954.954.954 0 01-.611-.222l-5.341-4.453a.421.421 0 01-.127-.472.423.423 0 01.4-.281h1.484c.205 0 .406.073.564.205l2.677 2.232v-1.483c0-.527.428-.955.954-.955h1.861V9.74H3.907v7.242h.686a.955.955 0 010 1.908h-1.64A.955.955 0 012 17.938V8.787c0-.525.428-.953.953-.953zM20.93 2c.536 0 .973.436.973.972v10.04a.973.973 0 01-.973.971h-1.8a.972.972 0 010-1.944h.828V3.944H8.003v1.623a.972.972 0 11-1.944 0V2.972c0-.536.436-.972.973-.972z"/></svg>