<svg id="communication--av--music" xmlns="http://www.w3.org/2000/svg" viewBox="0 0 24 24"><path  d="M20.345 3.744v11.952c.02.917-.318 1.84-1.015 2.537a3.455 3.455 0 01-2.451 1.014 3.455 3.455 0 01-2.451-1.014 3.472 3.472 0 01-.001-4.902 3.474 3.474 0 013.917-.691V5.862a.494.494 0 00-.587-.485l-7.328 1.407a.615.615 0 00-.498.603v9.564a3.503 3.503 0 01-.875 2.514l-.14.148a3.445 3.445 0 01-2.45 1.016 3.447 3.447 0 01-2.453-1.016 3.469 3.469 0 01.001-4.9 3.47 3.47 0 013.917-.691V6.257c0-.598.424-1.11 1.01-1.224l10.519-2.02a.745.745 0 01.885.731zM6.465 15.697A1.465 1.465 0 005.428 18.2c.555.556 1.52.554 2.073 0h.001a1.467 1.467 0 00-1.037-2.502zm10.414-1.381c-.375 0-.751.143-1.037.429a1.47 1.47 0 000 2.074 1.468 1.468 0 002.074 0 1.469 1.469 0 00-1.037-2.503z"/></svg>