<svg id="communication--call--phonebook--colleagues" xmlns="http://www.w3.org/2000/svg" viewBox="0 0 24 24"><path  d="M19.557 2c.847 0 1.535.688 1.535 1.535v17.722c0 .847-.688 1.535-1.535 1.535H5.22a1.537 1.537 0 01-1.535-1.535l-.001-.721H3a1 1 0 110-2h.685v-2.76H3a1 1 0 110-2h.685v-2.761H3a1 1 0 110-2h.685V6.254H3a1 1 0 110-2h.685v-.719c0-.8.615-1.458 1.396-1.529L5.221 2zm-.465 2H5.686v16.792h13.406V4zm-6.705 2.808c1.654 0 3 1.31 3 2.92 0 1.32-.667 2.418-1.34 3.19.03.002.061.002.092.002h.43c1.353 0 2.337 1.066 2.34 2.534v1.173c-.003.875-.032.924-.227 1.12a.795.795 0 01-.558.233l-7.472.005a.78.78 0 01-.784-.784v-1.745c0-.964.413-1.763 1.132-2.192a.521.521 0 01.697.155l.358.531a.385.385 0 01.054.31.371.371 0 01-.188.24c-.322.171-.485.493-.485.956v.96l5.905-.003v-.959c0-.447-.204-.966-.773-.966h-.428a4.764 4.764 0 01-4.759-4.76c0-1.639 1.32-2.92 3.006-2.92zm0 1.566c-.82 0-1.439.582-1.439 1.353 0 1.1.525 2.085 1.414 2.668.6-.543 1.457-1.524 1.457-2.668 0-.745-.643-1.353-1.432-1.353z"/></svg>