<svg id="communication--av--video--off" xmlns="http://www.w3.org/2000/svg" viewBox="0 0 24 24"><path  fill-rule="evenodd" d="M2.293 3.293a.999.999 0 011.414 0L13.952 13.54c.006-.006.01-.014.015-.02l3.765 3.766-.08-.048 1.055 1.056a1 1 0 01-1.414 1.414l-1.747-1.746a.987.987 0 01-.952.765L3.59 18.73l-.131-.008a.996.996 0 01-.869-.992v-7.003a1.001 1.001 0 012 0v6.002l9.004-.002v-.718l-11.3-11.3a.999.999 0 010-1.415zm12.3 1.433c.553 0 1 .45 1 1v1.697l3.495-2.05a1 1 0 011.506.862v10.981c-.035.013-.038.015-.073.03l-1.627-1.628a1.026 1.026 0 01-.3-.726v-6.91l-3.494 2.05a1 1 0 01-1.506-.862V6.726h-3.592l-2-2z"/></svg>