<svg id="communication--av--mic--off" xmlns="http://www.w3.org/2000/svg" viewBox="0 0 24 24"><path  d="M15.638 20.927a1 1 0 110 2h-6a1 1 0 110-2zM5.293 2.293a.999.999 0 011.414 0l15 15a1 1 0 01-1.414 1.414l-1.97-1.972c-1.357 1.66-3.402 2.73-5.699 2.73l-.099-.002c-4.073-.056-7.34-3.413-7.286-7.485l.011-.81a1 1 0 011-.987h.013a1 1 0 01.987 1.013l-.01.811a5.392 5.392 0 005.312 5.458l.072.001a5.341 5.341 0 004.276-2.15l-1.303-1.302a3.77 3.77 0 01-2.959 1.446 3.815 3.815 0 01-3.81-3.812V7.241L5.292 3.707a.999.999 0 010-1.414zm5.534 6.948v2.405c0 1 .812 1.812 1.811 1.812.652 0 1.22-.35 1.54-.867l-3.35-3.35zm8.207 1.08c.553.007.995.46.987 1.013l-.011.843a7.28 7.28 0 01-.113 1.142l-1.877-1.878v-.134c.009-.552.506-1.018 1.014-.986zm-6.396-7.93a3.816 3.816 0 013.812 3.813V9.87l-2-2V6.204c0-1-.813-1.812-1.812-1.812-.463 0-.88.18-1.202.466l-1.413-1.413a3.786 3.786 0 012.615-1.053z"/></svg>