<svg id="communication--connection--cloud--off" xmlns="http://www.w3.org/2000/svg" viewBox="0 0 24 24"><path  d="M4.91 5.446l15 15a.999.999 0 11-1.413 1.414l-2.858-2.857H7.093c-2.736 0-4.975-2.208-5.089-4.968L2 13.815C2 11.5 3.476 9.534 5.506 8.87l-2.01-2.01a.999.999 0 111.415-1.414zM11.445 3c2.74 0 5.023 2.028 5.48 4.689 2.84.251 5.078 2.688 5.078 5.647 0 1.698-.74 3.221-1.906 4.26a.334.334 0 01-.457-.019l-.942-.941c-.14-.14-.12-.362.03-.492a3.706 3.706 0 001.275-2.808c0-2.023-1.6-3.668-3.563-3.668a3.77 3.77 0 00-.338.016.997.997 0 01-1.092-1.061c-.002-1.978-1.6-3.624-3.565-3.624-.705 0-1.808.319-2.592 1.011a.247.247 0 01-.307.022L7.29 5.161a.253.253 0 01-.041-.38C8.393 3.609 10.073 3 11.444 3zm2.195 14.003l-6.411-6.41c-.088.024-.18.037-.272.039-1.609.032-2.957 1.477-2.957 3.184 0 1.758 1.388 3.188 3.094 3.188l6.546-.001z"/></svg>