<svg id="communication--call--loop" xmlns="http://www.w3.org/2000/svg" viewBox="0 0 24 24"><path  d="M10.63 8.425A1 1 0 019.012 9.6a3.862 3.862 0 00-4.334-1.408A3.866 3.866 0 002 11.879a3.867 3.867 0 002.678 3.687 3.866 3.866 0 004.334-1.41l2.082-2.865 2.083-2.866a5.863 5.863 0 016.57-2.135 5.864 5.864 0 014.06 5.589 5.86 5.86 0 01-4.06 5.589 5.858 5.858 0 01-6.569-2.135l-.158-.215a1 1 0 111.615-1.18l.16.217a3.869 3.869 0 004.334 1.41 3.866 3.866 0 002.678-3.686 3.866 3.866 0 00-2.678-3.686A3.86 3.86 0 0014.795 9.6l-2.082 2.866-2.083 2.866a5.861 5.861 0 01-6.57 2.135A5.861 5.861 0 010 11.878 5.864 5.864 0 014.06 6.29a5.863 5.863 0 016.57 2.135z"/></svg>