<svg id="communication--device--speaker" xmlns="http://www.w3.org/2000/svg" viewBox="0 0 24 24"><path  d="M18.014 1C19.109 1 20 1.89 20 2.986v18.61a1.989 1.989 0 01-1.986 1.987H6.986A1.989 1.989 0 015 21.596V2.986C5 1.89 5.891 1 6.986 1h11.028zM18 3H6.986L7 21.596l11.014-.013L18 3zm-5.5 12.334a1.5 1.5 0 110 3 1.5 1.5 0 010-3zm0-9.718a3.845 3.845 0 013.841 3.84 3.845 3.845 0 01-3.841 3.842 3.845 3.845 0 01-3.841-3.841A3.845 3.845 0 0112.5 5.616zm0 2a1.843 1.843 0 00-1.841 1.84c0 1.015.826 1.842 1.841 1.842a1.844 1.844 0 001.841-1.841A1.843 1.843 0 0012.5 7.616z"/></svg>