<svg id="communication--call--voicemail" xmlns="http://www.w3.org/2000/svg" viewBox="0 0 24 24"><path  d="M18.481 6.706a4.82 4.82 0 014.814 4.813 4.822 4.822 0 01-4.22 4.778v.037H5.814l-.001-.001-.213-.004a4.82 4.82 0 01-4.6-4.81 4.82 4.82 0 014.814-4.813 4.82 4.82 0 014.814 4.813 4.79 4.79 0 01-.911 2.816h4.862a4.79 4.79 0 01-.912-2.816 4.82 4.82 0 014.814-4.813zm-12.667 2A2.817 2.817 0 003 11.519a2.818 2.818 0 002.814 2.815 2.818 2.818 0 002.814-2.815 2.817 2.817 0 00-2.814-2.813zm12.667 0a2.817 2.817 0 00-2.814 2.813 2.818 2.818 0 002.814 2.815 2.818 2.818 0 002.814-2.815 2.817 2.817 0 00-2.814-2.813z"/></svg>