<svg id="communication--av--headphones--bluetooth" xmlns="http://www.w3.org/2000/svg" viewBox="0 0 24 24"><path  d="M10.682 14.101a.843.843 0 01.858.034l2.648 1.724a.844.844 0 01.38.693.84.84 0 01-.365.701l-2.413 1.65 2.394 1.574a.836.836 0 01-.002 1.401L11.54 23.6a.838.838 0 01-1.296-.702V19.96l-1.383.946a.416.416 0 01-.581-.109l-.206-.3a.416.416 0 01.108-.582l1.452-.992-1.44-.947a.419.419 0 01-.12-.578l.202-.306a.413.413 0 01.579-.119l1.389.913v-3.048c0-.308.168-.59.438-.736zm.763 6.011v2.115l1.616-1.052-1.616-1.063zm7.531-9.932v7.704h1.526a.973.973 0 00.973-.973v-2.548c0-.516-.326-.958-.782-1.131-.248-.095-.428-.312-.428-.577v-.816c0-.385.357-.69.732-.601a3.216 3.216 0 012.478 3.125v2.548a2.973 2.973 0 01-2.973 2.973h-2.399a1.128 1.128 0 01-1.127-1.127v-8.348c0-2.703-1.971-5.122-4.662-5.383a5.185 5.185 0 00-5.697 5.154v8.577c0 .622-.505 1.127-1.127 1.127H2.973A2.973 2.973 0 010 16.91v-2.548a3.217 3.217 0 012.449-3.12c.388-.093.761.225.761.625v.769c0 .276-.189.499-.446.6A1.213 1.213 0 002 14.364v2.548c0 .537.435.973.973.973h1.644v-7.455c0-3.65 2.616-6.904 6.235-7.368 4.378-.562 8.124 2.849 8.124 7.119zm-7.531 5.326v2.178l1.63-1.116-1.63-1.062z"/></svg>