<svg id="communication--call--waiting" xmlns="http://www.w3.org/2000/svg" viewBox="0 0 24 24"><path  d="M16.06 13.76l-3.116-2.264c-.019-.015-.029-.039-.05-.053l-3.125-2.27a2.614 2.614 0 01-1.018-2.431L9.125 4h6.413l.374 2.742c.129.955-.34 1.832-1.081 2.449a.999.999 0 001.229 1.576 4.542 4.542 0 001.833-4.294l-.498-3.651a.949.949 0 00-.94-.822H8.208a.948.948 0 00-.94.822L6.77 6.473a4.623 4.623 0 001.808 4.308l3.116 2.263c.019.016.029.039.05.054l3.14 2.28a2.55 2.55 0 011.028 2.406l-.374 2.744H9.125l-.374-2.741a2.552 2.552 0 011.028-2.409l.323-.234a1 1 0 00-1.177-1.617l-.322.234A4.558 4.558 0 006.77 18.06l.498 3.646a.948.948 0 00.94.822h8.247a.949.949 0 00.94-.822l.498-3.653a4.547 4.547 0 00-1.833-4.293"/></svg>