<svg id="communication--call--forward--no--answer" xmlns="http://www.w3.org/2000/svg" viewBox="0 0 24 24"><path  d="M17.018 13.056a.481.481 0 01.679 0l4.468 4.467-4.471 4.47a.481.481 0 01-.679 0l-.735-.734a.48.48 0 010-.68l2.056-2.056H2.49a.49.49 0 01-.49-.49v-1.02c0-.27.219-.49.49-.49h15.846l-2.053-2.053a.478.478 0 010-.679zM7.566 1.691a1.385 1.385 0 012.398 0l4.729 8.168a1.385 1.385 0 01-1.2 2.079H4.037a1.385 1.385 0 01-1.2-2.08zm1.71 7.284H8.254a.273.273 0 00-.273.274v.886c0 .152.122.274.273.274h1.024a.273.273 0 00.273-.274v-.885a.273.273 0 00-.273-.274zm-.2-5.463H8.44a.434.434 0 00-.434.436v3.688c0 .164.133.297.297.297h.912a.297.297 0 00.297-.298V3.948a.435.435 0 00-.435-.434z"/></svg>