<svg id="communication--call--phonebook--alt" xmlns="http://www.w3.org/2000/svg" viewBox="0 0 24 24"><path  d="M19.557 2c.847 0 1.535.688 1.535 1.535v17.722c0 .847-.688 1.535-1.535 1.535H5.221a1.537 1.537 0 01-1.535-1.535v-.721H3a1 1 0 110-2h.686v-2.76H3a1 1 0 110-2h.686v-2.761H3a1 1 0 110-2h.686V6.254H3a1 1 0 110-2h.686v-.719c0-.8.615-1.458 1.396-1.529L5.222 2zm-.465 2H5.686v16.792h13.406V4zm-9.07 3.745a1.36 1.36 0 011.13.42l1.466 1.552c.227.24.368.536.397.833.041.428-.113.84-.422 1.134l-.317.308a.707.707 0 01-.507.203.69.69 0 01-.52-.22.728.728 0 01.015-1.026l.271-.263-1.38-1.46-.122.115a1.564 1.564 0 00-.062 2.207l2.592 2.743 1.318-1.247a1.373 1.373 0 011.934.056l1.466 1.55c.231.246.367.534.397.835.041.425-.112.838-.42 1.13l-.119.112c-.594.56-1.336.876-2.09.886l-.133-.001a2.986 2.986 0 01-2.104-.943l-3.897-4.122a3.02 3.02 0 01.121-4.263l.151-.143c.24-.228.537-.368.834-.396zm4.796 6.415l-1.257 1.187.307.324c.286.303.673.477 1.09.488a1.55 1.55 0 001.117-.426l.121-.115-1.378-1.458z"/></svg>