<svg id="communication--connection--bluetooth" xmlns="http://www.w3.org/2000/svg" viewBox="0 0 24 24"><path  d="M11.98 20.549V14.62l4.531 2.98-4.53 2.948zm0-16.15l4.556 2.965-4.556 3.116V4.4zm6.233 11.927l-5.73-3.767 5.766-3.943a1.525 1.525 0 00-.028-2.541l-5.88-3.827a1.526 1.526 0 00-2.36 1.28v7.385l-3.603-2.37a.594.594 0 00-.822.17l-.447.68a.594.594 0 00.17.823l3.613 2.375-3.634 2.485a.593.593 0 00-.154.826l.458.669c.185.27.554.34.825.156L9.98 14.27v7.15a1.524 1.524 0 001.527 1.528c.291 0 .581-.083.834-.248l5.867-3.817a1.528 1.528 0 00.005-2.557z"/></svg>