<svg id="communication--device--deskphone" xmlns="http://www.w3.org/2000/svg" viewBox="0 0 24 24"><path  d="M10.505 2a2.316 2.316 0 012.316 2.317v.222h8.23c.98 0 1.774.794 1.774 1.774v11.055c0 .978-.794 1.772-1.774 1.772h-6.199a.273.273 0 01-.273-.273v-1.454c0-.15.122-.273.273-.273h5.973V6.539h-8.004v13.145A2.316 2.316 0 0110.505 22H6.79a2.317 2.317 0 01-2.318-2.317v-.543H2.773A1.773 1.773 0 011 17.367V6.313c0-.98.794-1.774 1.773-1.774h1.699v-.222A2.317 2.317 0 016.789 2zm0 2H6.789a.318.318 0 00-.317.317v15.366c0 .175.143.317.317.317h3.716a.317.317 0 00.316-.317V4.317A.317.317 0 0010.505 4zM4.472 6.539H2.999V17.14h1.473V6.539zm14.55 1.88a1 1 0 110 2h-4.038a1 1 0 110-2z"/></svg>