<svg id="communication--call--call--end" xmlns="http://www.w3.org/2000/svg" viewBox="0 0 24 24"><path  d="M2 14.44v-.539c0-1.042.406-2.022 1.143-2.759A3.878 3.878 0 015.901 10l1.512.001v4.439a.373.373 0 01-.374.374H2.374A.373.373 0 012 14.44M.927 16.323c.436.339.989.491 1.54.491h4.572a2.374 2.374 0 002.374-2.374V10h8.64a3.902 3.902 0 013.901 3.901v.539a.373.373 0 01-.374.374h-4.665a.37.37 0 01-.264-.109.387.387 0 01-.11-.278l-.013-.968a1 1 0 10-1.999.026l.013.955c0 .735.332 1.421.926 1.883.436.339.989.491 1.54.491h4.572c.735 0 1.42-.332 1.882-.926.339-.435.492-.988.492-1.539v-.448A5.901 5.901 0 0018.053 8l-12.152.001a5.86 5.86 0 00-4.35 1.914C.513 11.044 0 12.56 0 14.094v.346c0 .736.333 1.421.927 1.883"/></svg>