<svg id="communication--device--speaker--jabra" xmlns="http://www.w3.org/2000/svg" viewBox="0 0 24 24"><path  d="M18.088 21.394a1 1 0 110 2h-13a1 1 0 110-2zm-2.885-10.128a5.973 5.973 0 015.973 5.973v.54c0 .978-.794 1.772-1.773 1.772H3.774c-.98 0-1.774-.794-1.774-1.773v-.539a5.973 5.973 0 015.973-5.973zm-.226 2H8.199A4.2 4.2 0 004 17.466v.085h15.176v-.086a4.2 4.2 0 00-4.199-4.199zm-3.39-7.272c.983 0 1.91.35 2.642.994a.25.25 0 01.006.363l-1.068 1.07a.247.247 0 01-.331.008 1.994 1.994 0 00-1.248-.435c-.46 0-.893.153-1.247.435-.1.08-.24.081-.331-.009L8.94 7.352a.25.25 0 01.008-.364 3.968 3.968 0 012.64-.994zM6.118 4.16c3.068-2.88 7.873-2.88 10.942 0a.254.254 0 01.004.363L16.007 5.58v.002c-.002 0-.003 0-.004.002a.247.247 0 01-.349-.001 6.003 6.003 0 00-8.066-.06l-.083.075a.249.249 0 01-.333-.015l-.001-.002-1.059-1.058c-.1-.1-.1-.266.004-.363z"/></svg>