<svg id="communication--call--new--call" xmlns="http://www.w3.org/2000/svg" viewBox="0 0 24 24"><path  d="M5.48 2.461a2.361 2.361 0 011.986.676l3.233 3.233c.39.39.673.89.742 1.436a2.37 2.37 0 01-.676 1.987l-.667.683a.999.999 0 11-1.432-1.394l.675-.694a.375.375 0 00.01-.539L6.052 4.551a.373.373 0 00-.528 0l-.382.381a3.902 3.902 0 000 5.517l6.11 6.11 3.139-3.14a2.375 2.375 0 013.358 0l3.232 3.232c.39.391.673.89.742 1.437a2.363 2.363 0 01-.676 1.987l-.245.244c-1.085 1.084-2.519 1.795-4.052 1.86a5.867 5.867 0 01-4.429-1.723l-8.593-8.593a5.902 5.902 0 010-8.345l.317-.317c.39-.39.888-.672 1.435-.74zm10.59 12.262a.377.377 0 00-.265.11l-3.139 3.14 1.069 1.07a3.876 3.876 0 002.758 1.141 3.88 3.88 0 002.759-1.142l.381-.382a.371.371 0 000-.528l-3.298-3.299a.377.377 0 00-.265-.11zM18.597 1a1 1 0 011 1v2.296h2.297a1 1 0 110 2h-2.297v2.297a1 1 0 11-2 0V6.296H15.3a1 1 0 110-2h2.296V2a1 1 0 011-1z"/></svg>