<svg id="communication--av--player--backwards--alt" xmlns="http://www.w3.org/2000/svg" viewBox="0 0 24 24"><path  d="M11.904 4.096c.457.191.752.634.752 1.13v11.646a.148.148 0 01-.238.116l-1.53-1.187a.6.6 0 01-.232-.473V6.8l-7.402 5.68 2.789 2.14-.004.004 6.614 5.132a1.22 1.22 0 01-1.222 1.203c-.288 0-.57-.103-.795-.295l-9.062-6.953-.092-.08A1.6 1.6 0 011 12.477c0-.436.171-.845.483-1.15l9.153-7.032c.35-.3.838-.38 1.268-.199zm9.47.001c.455.19.75.634.75 1.13v14.506c0 .496-.295.94-.75 1.13a1.22 1.22 0 01-1.27-.199l-5.269-4.042a.74.74 0 01-.29-.589v-1.762c0-.16.183-.25.31-.154l5.27 4.042V6.8l-5.27 4.043a.193.193 0 01-.31-.153V8.903c0-.212.1-.414.267-.543l5.291-4.065a1.219 1.219 0 011.27-.198z"/></svg>