<svg id="communication--av--earphones" xmlns="http://www.w3.org/2000/svg" viewBox="0 0 24 24"><path  d="M17.39 4.72l.186.004c.125.005.25.015.376.03 1.572.186 3.044 1.054 3.938 2.321.238.338.365.741.365 1.154v3.154c0 .413-.127.816-.365 1.153-.769 1.09-1.963 1.883-3.28 2.204v4.93c0 1.45-1.182 2.63-2.632 2.63h-.68a2.634 2.634 0 01-2.63-2.63v-9.578a2.92 2.92 0 01-.017-.287c.001-2.852 2.083-5.085 4.74-5.085zm0 2c-1.539 0-2.738 1.314-2.739 3.086 0 .062.013.12.016.18v9.683c0 .348.283.63.631.63h.68a.63.63 0 00.631-.63v-6.906a2.631 2.631 0 001.108.108c1.056-.125 1.987-.706 2.538-1.488V8.23c-.55-.782-1.48-1.364-2.538-1.489-.11-.013-.22-.02-.327-.02zM5.865 2c2.657 0 4.739 2.233 4.74 5.09a3.284 3.284 0 01-.016.28v9.578a2.634 2.634 0 01-2.631 2.63h-.68a2.634 2.634 0 01-2.631-2.63V12.02c-1.318-.321-2.513-1.115-3.281-2.205A1.994 1.994 0 011 8.663V5.508c0-.412.128-.816.366-1.153.894-1.267 2.366-2.135 3.937-2.322A4.88 4.88 0 015.865 2zm0 2c-.106 0-.216.006-.326.02a3.667 3.667 0 00-2.54 1.488v3.155c.553.782 1.483 1.363 2.54 1.488.102.013.205.019.305.019.28 0 .549-.047.803-.127v6.905a.63.63 0 00.63.63h.68a.632.632 0 00.632-.63V7.266c.003-.062.015-.12.016-.181C8.604 5.314 7.405 4 5.865 4z"/></svg>