<svg id="communication--av--mic" xmlns="http://www.w3.org/2000/svg" viewBox="0 0 24 24"><path  d="M15.4 20.536a1 1 0 110 2h-6a1 1 0 110-2zM6.026 9.789c.552.008.993.462.986 1.014L7 11.614a5.393 5.393 0 005.313 5.458c2.93.048 5.418-2.344 5.458-5.314l.01-.843a1 1 0 011-.986h.015a1 1 0 01.986 1.014l-.011.842c-.055 4.04-3.358 7.288-7.385 7.288h-.1C8.214 19.015 4.946 15.657 5 11.585l.01-.81a1 1 0 011-.987zM12.4 2a3.816 3.816 0 013.81 3.812v5.443a3.816 3.816 0 01-3.81 3.812 3.816 3.816 0 01-3.812-3.812V5.812A3.816 3.816 0 0112.4 2zm0 2c-1 0-1.812.813-1.812 1.812v5.443c0 .999.812 1.812 1.812 1.812.998 0 1.81-.813 1.81-1.812V5.812c0-.999-.812-1.812-1.81-1.812z"/></svg>