<svg id="communication--call--merge" xmlns="http://www.w3.org/2000/svg" viewBox="0 0 24 24"><path  d="M11.912 2l4.04 4.04a.555.555 0 010 .783l-.63.63a.555.555 0 01-.786 0l-1.623-1.625v8.691c0 .242-.076.478-.218.673l-4.976 6.85a.527.527 0 01-.737.115l-.764-.555a.528.528 0 01-.117-.737l4.615-6.352a1.03 1.03 0 00.198-.609l-.001-8.078L9.29 7.45a.555.555 0 01-.708.064l-.077-.064-.63-.629a.556.556 0 010-.785L11.912 2zm2.27 14.63a.288.288 0 01.466 0l2.966 4.08a.718.718 0 01-.159 1.004l-.457.332a.719.719 0 01-1.003-.16l-2.693-3.706a.288.288 0 010-.338z"/></svg>