<svg id="communication--call--call--list" xmlns="http://www.w3.org/2000/svg" viewBox="0 0 24 24"><path  d="M7.213 4c.408 0 .79.123 1.077.347.413.321.65.804.65 1.322v2.926c0 .408-.123.791-.345 1.077a1.67 1.67 0 01-1.324.651l-.609.009a.795.795 0 01-.8-.78.792.792 0 01.779-.801l.62-.008c.032 0 .056-.008.073-.026a.09.09 0 00.027-.063V5.67a.085.085 0 00-.027-.063.084.084 0 00-.063-.026h-.345A2.349 2.349 0 004.58 7.927v5.377h2.691c.92 0 1.669.749 1.669 1.67v2.925c0 .415-.12.787-.346 1.077a1.661 1.661 0 01-1.32.651H7.05c-1.067 0-2.052-.366-2.776-1.031A3.891 3.891 0 013 15.701V7.927A3.932 3.932 0 016.926 4zm13.546 13.44c.179 0 .324.21.324.47v.937c0 .259-.145.469-.324.469h-8.422c-.18 0-.324-.21-.324-.47v-.936c0-.26.145-.47.324-.47zM7.27 14.886H4.58v.816c0 .627.244 1.216.687 1.659a2.332 2.332 0 001.659.687h.345a.084.084 0 00.062-.025.085.085 0 00.028-.064v-2.984a.088.088 0 00-.027-.063.086.086 0 00-.063-.026zm13.488-1.818c.179 0 .324.21.324.469v.937c0 .259-.145.469-.324.469h-8.422c-.18 0-.324-.21-.324-.47v-.936c0-.26.145-.47.324-.47zm0-4.374c.179 0 .324.21.324.469v.936c0 .26-.145.469-.324.469h-8.422c-.18 0-.324-.21-.324-.47v-.935c0-.26.145-.47.324-.47zm0-4.375c.179 0 .324.21.324.469v.937c0 .259-.145.469-.324.469h-8.422c-.18 0-.324-.21-.324-.47v-.936c0-.26.145-.47.324-.47z"/></svg>