<svg id="communication--av--headphones--mic" xmlns="http://www.w3.org/2000/svg" viewBox="0 0 24 24"><path  fill-rule="evenodd" d="M21.998 10.238c-.375-.088-.733.217-.733.602v.815c0 .267.18.482.429.577.456.174.781.616.781 1.132v2.548a.972.972 0 01-.973.972h-1.525v-.271c.01-.12.036-.235.036-.357v-.737h-.036v-6.34c0-4.268-3.747-7.68-8.125-7.118-3.619.465-6.234 3.72-6.234 7.368v7.455H3.973A.973.973 0 013 15.912v-2.548c0-.51.317-.947.765-1.125.257-.103.445-.325.445-.602v-.768c0-.401-.372-.72-.761-.624A3.217 3.217 0 001 13.364v2.548a2.973 2.973 0 002.973 2.972h2.518c.622 0 1.127-.504 1.127-1.126V9.18a5.184 5.184 0 015.697-5.154c2.69.263 4.662 2.68 4.662 5.384v7.203a1.975 1.975 0 01-1.938 1.616h-1.324a1.55 1.55 0 00-2.828.882c0 .857.695 1.553 1.552 1.553.418 0 .795-.167 1.074-.435h1.526a3.948 3.948 0 002.972-1.363c.032.003.06.018.092.018h2.399a2.973 2.973 0 002.973-2.972v-2.548a3.217 3.217 0 00-2.477-3.126"/></svg>