<svg id="communication--text--emoticon" xmlns="http://www.w3.org/2000/svg" viewBox="0 0 24 24"><path  d="M12.077 2l.078.001c5.514.087 9.93 4.643 9.844 10.155-.063 3.992-2.442 7.589-6.476 9.262-1.084.45-2.268.587-3.442.582-.079 0-.158.001-.237-.001a9.978 9.978 0 01-3.202-.584.337.337 0 01-.173-.484l.681-1.18a.327.327 0 01.386-.145c.747.243 1.532.38 2.34.393a7.895 7.895 0 005.692-2.255A7.945 7.945 0 0020 12.125c.068-4.41-3.464-8.055-7.875-8.124L11.998 4C7.644 4 4.07 7.507 4.001 11.876a7.94 7.94 0 002.255 5.692c.291.301.603.575.931.822.13.097.167.27.086.41l-.68 1.181a.328.328 0 01-.474.105 9.937 9.937 0 01-1.3-1.126 9.937 9.937 0 01-2.818-7.115C2.086 6.384 6.555 2 11.998 2l.157.001zM7.476 13.531a1.001 1.001 0 011.398.213 3.927 3.927 0 003.149 1.593 3.88 3.88 0 003.112-1.546 1 1 0 011.593 1.211 5.868 5.868 0 01-4.705 2.335c-1.87 0-3.65-.9-4.76-2.407a1 1 0 01.213-1.399zm1.117-5.147a1.5 1.5 0 11.001 2.998 1.5 1.5 0 01-.001-2.998zm6.814 0a1.5 1.5 0 110 3 1.5 1.5 0 010-3z"/></svg>