<svg id="communication--connection--bluetooth--on" xmlns="http://www.w3.org/2000/svg" viewBox="0 0 24 24"><path  d="M11.079 2.185a1.526 1.526 0 011.562.062l5.88 3.827a1.526 1.526 0 01.028 2.541l-5.766 3.943 5.73 3.767a1.528 1.528 0 01-.005 2.557L12.64 22.7a1.525 1.525 0 01-1.562.063 1.524 1.524 0 01-.8-1.342v-7.15l-3.592 2.456a.593.593 0 01-.825-.155l-.458-.67a.594.594 0 01.154-.826l3.634-2.485-3.613-2.375a.594.594 0 01-.17-.822l.447-.679a.594.594 0 01.822-.17l3.602 2.368V3.527c0-.56.306-1.076.799-1.342zm1.2 12.435v5.928l4.532-2.948-4.531-2.98zm6.889-3.569a1.169 1.169 0 11-.001 2.338 1.169 1.169 0 01.001-2.338zm-16 0a1.168 1.168 0 110 2.336 1.168 1.168 0 010-2.336zM12.28 4.4v6.08l4.556-3.116L12.28 4.4z"/></svg>