<svg id="communication--text--styling--table" xmlns="http://www.w3.org/2000/svg" viewBox="0 0 24 24"><path  d="M15.528 16h-1.732v-2.39H16v1.919c0 .26-.212.471-.472.471zM7 15.529V13.61h2.296V16H7.471A.471.471 0 017 15.529zM7.471 7h1.825v2.11H7V7.472c0-.26.211-.472.471-.472zm6.325 6.11H16v-3.5h-2.204v3.5zm-4-4h3.5V7h-3.5v2.11zM7 13.11h2.296v-3.5H7v3.5zM9.796 16h3.5v-2.39h-3.5V16zm0-2.89h3.5v-3.5h-3.5v3.5zM16 7.472V9.11h-2.204V7h1.732c.26 0 .472.212.472.472zM15.528 6H7.471C6.66 6 6 6.66 6 7.472v8.057C6 16.34 6.66 17 7.471 17h8.057C16.34 17 17 16.34 17 15.529V7.472C17 6.66 16.34 6 15.528 6z"/></svg>