<svg id="communication--call--swap" xmlns="http://www.w3.org/2000/svg" viewBox="0 0 24 24"><path  d="M5.41 7.713A3.945 3.945 0 019.744 3.79c2.047.2 3.547 2.04 3.547 4.097v3.129a.315.315 0 01-.316.315h-1.37a.314.314 0 01-.314-.315V7.713a1.943 1.943 0 00-2.268-1.914c-.954.158-1.611 1.056-1.611 2.023v10.65l.833-.833a.555.555 0 01.785 0l.629.63a.555.555 0 010 .785L6.41 22.3l-3.248-3.247a.555.555 0 010-.785l.629-.63a.556.556 0 01.785 0l.834.834zM18.29 2l3.248 3.247a.556.556 0 010 .785l-.63.63a.555.555 0 01-.785 0l-.833-.834v11.005a3.939 3.939 0 01-3.94 3.939h-.121a3.939 3.939 0 01-3.94-3.939v-3.362c0-.169.139-.307.308-.307h1.386c.169 0 .307.138.307.307v3.362a1.94 1.94 0 001.939 1.939h.122a1.94 1.94 0 001.939-1.939V5.828l-.834.834a.553.553 0 01-.784 0l-.63-.63a.555.555 0 010-.785L18.29 2z"/></svg>