<svg id="communication--av--volume--down" xmlns="http://www.w3.org/2000/svg" viewBox="0 0 24 24"><path  d="M11.293 6.292A1.001 1.001 0 0113 7v10.286a.997.997 0 01-1 1 .999.999 0 01-.706-.292l-3.141-3.13H6a1 1 0 01-1-1v-3.438a1 1 0 011-1h2.153zM11 9.41l-1.639 1.636a1 1 0 01-.785.38H7v1.438h1.576c.318 0 .601.149.784.38L11 14.878V9.41zm5.643.089a.251.251 0 01.364.006c.643.73.994 1.659.994 2.64 0 .983-.351 1.91-.994 2.64a.251.251 0 01-.364.007l-1.068-1.068c-.091-.09-.09-.231-.01-.331.283-.354.436-.79.436-1.248 0-.458-.153-.893-.436-1.247a.247.247 0 01.01-.331z"/></svg>