<svg id="communication--av--volume--off" xmlns="http://www.w3.org/2000/svg" viewBox="0 0 24 24"><path  d="M9.293 7.291A1.002 1.002 0 0111 8v10.286a.997.997 0 01-1 1 .999.999 0 01-.706-.292l-3.141-3.13H4a1 1 0 01-1-1v-3.437a1 1 0 011-1h2.153zm9.819 2.324a.25.25 0 01.354 0l1.06 1.06a.25.25 0 010 .354l-2.116 2.116 2.116 2.116a.25.25 0 010 .354l-1.06 1.06a.25.25 0 01-.354 0l-2.116-2.116-2.116 2.116a.25.25 0 01-.354 0l-1.06-1.06a.25.25 0 010-.354l2.116-2.116-2.116-2.116a.25.25 0 010-.354l1.06-1.06a.25.25 0 01.354 0l2.116 2.116zM9 10.41l-1.639 1.635a1.001 1.001 0 01-.785.381H5v1.437h1.576c.318 0 .601.15.784.38L9 15.877V10.41z"/></svg>