<svg id="communication--text--chat--alt" xmlns="http://www.w3.org/2000/svg" viewBox="0 0 24 24"><path  d="M13.622 9.348c.525 0 .953.428.953.954v9.15a.955.955 0 01-.953.954h-1.64a.955.955 0 010-1.908h.686v-7.242H1.908v7.24h1.861c.526 0 .954.429.954.956v1.483L7.4 18.702a.89.89 0 01.564-.204h1.484c.181 0 .338.11.4.28a.421.421 0 01-.127.473L4.38 23.704a.954.954 0 01-1.565-.732v-2.567H.954A.955.955 0 010 19.452v-9.15c0-.526.428-.954.954-.954zM22.122 1a1.4 1.4 0 011.398 1.398v12.474a1.4 1.4 0 01-1.398 1.399h-.927v2.869a1.21 1.21 0 01-1.206 1.206c-.29 0-.576-.104-.803-.304l-2.982-2.659a.999.999 0 111.331-1.492l1.66 1.479v-1.727c0-.756.614-1.372 1.37-1.372h.955V3H5.474v3.856a1 1 0 11-2 0V2.398A1.4 1.4 0 014.874 1z"/></svg>