<svg id="communication--channel" xmlns="http://www.w3.org/2000/svg" viewBox="0 0 24 24"><path  d="M4.02 15.38c1.807 0 3.327 1.205 3.831 2.848l.054.192 5.353-.034a.729.729 0 01.73.62l.008.099.007.544a.728.728 0 01-.62.73l-.098.008-5.392.033c-.455 1.722-2.011 3-3.873 3A4.025 4.025 0 010 19.4a4.025 4.025 0 014.02-4.02zm12.142-5.14l.06.09 2.916 5.07c.21-.032.42-.063.64-.063a4.025 4.025 0 014.02 4.019 4.025 4.025 0 01-4.02 4.02 4.025 4.025 0 01-4.02-4.02c0-1.197.536-2.262 1.37-2.997l.17-.142-2.804-4.88a.728.728 0 01.174-.934l.089-.061.47-.275a.729.729 0 01.935.174zM4.02 17.38c-1.114 0-2.02.907-2.02 2.02 0 1.114.906 2.02 2.02 2.02 1.114 0 2.02-.906 2.02-2.02a2.022 2.022 0 00-2.02-2.02zm15.758-.043c-1.114 0-2.02.906-2.02 2.019 0 1.114.906 2.02 2.02 2.02 1.114 0 2.02-.906 2.02-2.02a2.022 2.022 0 00-2.02-2.02zM11.949 1a4.025 4.025 0 014.02 4.02 4.025 4.025 0 01-4.02 4.019c-.321 0-.63-.05-.927-.125l-.222-.062-2.845 4.795a.73.73 0 01-.898.315l-.097-.047-.47-.272a.73.73 0 01-.315-.899l.047-.097 2.86-4.819A4.005 4.005 0 017.928 5.02 4.025 4.025 0 0111.95 1zm0 2c-1.114 0-2.02.906-2.02 2.02 0 1.113.906 2.019 2.02 2.019 1.114 0 2.02-.906 2.02-2.019 0-1.114-.906-2.02-2.02-2.02z"/></svg>