<svg id="communication--av--share--screen" xmlns="http://www.w3.org/2000/svg" viewBox="0 0 24 24"><path  d="M20.088 18.128a1 1 0 110 2h-17a1 1 0 110-2zM12.39 3a.3.3 0 01.3.3v1.4a.3.3 0 01-.3.3H4v9.356h15.176v-2.704a.3.3 0 01.3-.3h1.4a.3.3 0 01.3.3v2.93c0 .98-.794 1.774-1.774 1.774H3.773c-.98 0-1.773-.794-1.773-1.774V4.774C2 3.794 2.793 3 3.773 3zm8.685.102v4.925a.3.3 0 01-.299.301h-1.2a.3.3 0 01-.3-.301V6.098l-4.072 4.071a.897.897 0 01-1.272 0 .9.9 0 010-1.273l3.993-3.993h-2.028a.3.3 0 01-.3-.301v-1.2a.3.3 0 01.3-.3h5.178z"/></svg>