<svg id="communication--connection--wifi" xmlns="http://www.w3.org/2000/svg" viewBox="0 0 24 24"><path  d="M12.265 16.391a2.38 2.38 0 110 4.76 2.38 2.38 0 010-4.76zm0-4.742c2.128 0 4.128.828 5.632 2.333.18.18.278.412.292.648v.153a.997.997 0 01-1.706.648 5.926 5.926 0 00-4.218-1.747c-1.592 0-3.09.62-4.217 1.747a.999.999 0 01-1.705-.648v-.153a.996.996 0 01.291-.648 7.908 7.908 0 015.631-2.333zm8.328-1.339a1 1 0 11-1.414 1.414 9.73 9.73 0 00-7.164-2.865 9.75 9.75 0 00-6.664 2.844 1 1 0 01-1.41-1.418 11.744 11.744 0 018.026-3.426c3.253-.062 6.32 1.147 8.626 3.451zm2.646-3.757a.999.999 0 11-1.414 1.414c-2.647-2.646-6.162-4.045-9.904-3.962a13.493 13.493 0 00-9.216 3.932 1 1 0 01-1.41-1.418 15.485 15.485 0 0110.577-4.514c4.29-.11 8.33 1.511 11.367 4.548z"/></svg>