<svg id="editor--swap--horizontal" xmlns="http://www.w3.org/2000/svg" viewBox="0 0 24 24"><path  d="M7.471 12.391a.481.481 0 01.679 0l.735.735a.48.48 0 010 .68L6.829 15.86h13.399c.27 0 .49.22.49.49v1.02c0 .27-.22.49-.49.49H6.829l2.053 2.053a.48.48 0 010 .68l-.735.735a.481.481 0 01-.679 0L3 16.861zm8.1-9.25a.481.481 0 01.68 0l4.467 4.466-4.47 4.471a.481.481 0 01-.68 0l-.734-.736a.478.478 0 010-.678l2.056-2.057-13.4.001a.49.49 0 01-.49-.49v-1.02c0-.27.22-.49.49-.49h13.4l-2.054-2.054a.48.48 0 010-.678z"/></svg>