<svg id="editor--cut" xmlns="http://www.w3.org/2000/svg" viewBox="0 0 24 24"><path  d="M7.091 3.076l.054.056 8.251 10.774a3.212 3.212 0 011.332-.295 3.236 3.236 0 013.232 3.233 3.236 3.236 0 01-3.232 3.232 3.236 3.236 0 01-3.232-3.232c0-.503.125-.972.332-1.395l.094-.178-1.869-2.44-1.953 2.552c.226.44.365.932.365 1.46a3.236 3.236 0 01-3.232 3.233A3.237 3.237 0 014 16.844a3.237 3.237 0 013.233-3.233c.443 0 .861.098 1.245.263l.189.089 2.126-2.777-4.427-5.78a1.668 1.668 0 01.31-2.337.334.334 0 01.415.007zm9.637 12.535a1.233 1.233 0 000 2.465c.679 0 1.232-.553 1.232-1.232 0-.68-.553-1.233-1.232-1.233zm-9.495 0c-.68 0-1.233.553-1.233 1.233a1.233 1.233 0 101.233-1.233zm9.73-12.48a.334.334 0 01.468-.062c.73.56.87 1.605.31 2.337l-3.246 4.23a.305.305 0 01-.485 0l-.875-1.143a.306.306 0 010-.372z"/></svg>