<svg id="editor--add--new" xmlns="http://www.w3.org/2000/svg" viewBox="0 0 24 24"><path  d="M10 20a1 1 0 110 2H8a1 1 0 010-2zm6 0a1 1 0 110 2h-2a1 1 0 010-2zm5-1a1 1 0 011 1v1a1 1 0 01-1 1h-1a1 1 0 010-2 1 1 0 011-1zM3 19a1 1 0 011 1 1 1 0 110 2H3a1 1 0 01-1-1v-1a1 1 0 011-1zm9.56-12a.44.44 0 01.44.439V11h3.56a.44.44 0 01.44.439v1.121a.44.44 0 01-.44.44H13v3.56a.44.44 0 01-.44.44h-1.12a.44.44 0 01-.44-.44V13H7.44a.44.44 0 01-.44-.44v-1.121A.44.44 0 017.44 11H11V7.439A.44.44 0 0111.44 7zM3 13a1 1 0 011 1v2a1 1 0 01-2 0v-2a1 1 0 011-1zm18 0a1 1 0 011 1v2a1 1 0 01-2 0v-2a1 1 0 011-1zM3 7a1 1 0 011 1v2a1 1 0 01-2 0V8a1 1 0 011-1zm18 0a1 1 0 011 1v2a1 1 0 01-2 0V8a1 1 0 011-1zM4 2a1 1 0 110 2 1 1 0 01-2 0V3a1 1 0 011-1zm17 0a1 1 0 011 1v1a1 1 0 01-2 0 1 1 0 010-2zM10 2a1 1 0 110 2H8a1 1 0 010-2zm6 0a1 1 0 110 2h-2a1 1 0 010-2z"/></svg>