<svg id="editor--drop" xmlns="http://www.w3.org/2000/svg" viewBox="0 0 24 24"><path  d="M14.934 6.953c1.165 0 2.113.948 2.113 2.114v3.839l5.242 1.597.151.681A1.07 1.07 0 0122 16.23l-3.288 2.324-2.125 3.718-.714-.02a1.077 1.077 0 01-.92-.723l-1.552-4.482H9.066a2.116 2.116 0 01-2.113-2.112V9.067c0-1.166.948-2.114 2.113-2.114h5.868zM10 20a1 1 0 010 2H8a1 1 0 010-2zm-7-1a1 1 0 011 1 1 1 0 010 2H3a1 1 0 01-1-1v-1a1 1 0 011-1zm11.543-4.767l1.637 4.722 1.003-1.757.192-.149 1.931-1.365-4.764-1.45zM3 13a1 1 0 011 1v2a1 1 0 01-2 0v-2a1 1 0 011-1zm11.934-4.047H9.066a.114.114 0 00-.113.114v5.867c0 .062.051.113.113.113l3.642-.001-.841-2.432.858-.969.67.148 1.652.503v-3.23a.114.114 0 00-.113-.113zM3 7a1 1 0 011 1v2a1 1 0 01-2 0V8a1 1 0 011-1zm18 0a1 1 0 011 1v2a1 1 0 01-2 0V8a1 1 0 011-1zM4 2a1 1 0 010 2 1 1 0 01-2 0V3a1 1 0 011-1zm17 0a1 1 0 011 1v1a1 1 0 01-2 0 1 1 0 010-2zM10 2a1 1 0 010 2H8a1 1 0 010-2zm6 0a1 1 0 010 2h-2a1 1 0 010-2z"/></svg>