<svg id="editor--swap--vertical" xmlns="http://www.w3.org/2000/svg" viewBox="0 0 24 24"><path  d="M7.608 3l4.47 4.47a.48.48 0 010 .68l-.735.735a.481.481 0 01-.679 0L8.608 6.828v13.4c0 .27-.22.49-.49.49h-1.02c-.27 0-.49-.22-.49-.49v-13.4L4.555 8.881a.48.48 0 01-.679 0l-.735-.735a.478.478 0 010-.678L7.608 3zm9.762 0c.271 0 .491.22.491.491v13.398l2.053-2.053a.481.481 0 01.68 0l.734.736a.478.478 0 010 .678l-4.467 4.468-4.47-4.471a.48.48 0 010-.679l.735-.735a.481.481 0 01.68 0l2.055 2.056V3.491a.49.49 0 01.49-.491z"/></svg>