<svg id="editor--color--picker" xmlns="http://www.w3.org/2000/svg" xlink="http://www.w3.org/1999/xlink" viewBox="0 0 24 24"><defs><path id="a" d="M7 1h10.744v22.738H7z"/></defs><mask id="b" ><use href="#a"/></mask><path  d="M16.744 6.66h-1.868V3.65c0-1.308-.94-2.504-2.242-2.636a2.506 2.506 0 00-2.767 2.49V6.66H8a1 1 0 100 2h1.234v9.176a6.29 6.29 0 00.912 3.26l1.282 2.11c.202.334.554.532.944.532.389 0 .742-.198.945-.532l1.281-2.111c.595-.983.911-2.11.911-3.26v-6.778a.51.51 0 00-.511-.51h-.979a.51.51 0 00-.51.51v6.779c0 .784-.215 1.553-.622 2.222l-.515.85-.516-.85a4.276 4.276 0 01-.622-2.222V8.66H16.744a1 1 0 100-2" mask="url(#b)"/></svg>