<svg id="editor--draw" xmlns="http://www.w3.org/2000/svg" viewBox="0 0 24 24"><path  d="M19.516 1.647l3.322 3.321c.816.817.857 2.135.093 3l-9.336 10.561-.644.647a3.144 3.144 0 01-2.237.927c-1.619 0-3.141.63-4.286 1.774l-.13.131a1.968 1.968 0 01-1.401.581c-.405 0-.791-.12-1.118-.345l-.645.645a1.248 1.248 0 01-1.768 0 1.25 1.25 0 010-1.768l.665-.666a1.984 1.984 0 01.305-2.406l.313-.312a6.02 6.02 0 001.774-4.286v-.204c0-.834.338-1.649.927-2.238l.383-.377L16.557 1.52a2.175 2.175 0 012.959.127zM6.42 13.6l.003-.149a8.008 8.008 0 01-2.361 5.701l-.312.312 1.162 1.131.1-.13a8.012 8.012 0 015.702-2.362c.065 0 .128-.005.19-.015L6.42 13.6zM17.845 3.05L7.449 11.801l5.002 5.003 8.981-10.16a.193.193 0 00-.009-.263l-3.321-3.32a.192.192 0 00-.257-.01z"/></svg>