<svg id="file--photo--add" xmlns="http://www.w3.org/2000/svg" viewBox="0 0 24 24"><path  d="M13.006 4.086a.65.65 0 01.654.654l-.005.7a.649.649 0 01-.646.646l-11.023.077.09 12.999 1.891-.011c.3-.002.544.24.546.54l.006.914c.001.3-.24.544-.54.546l-2.299.014a1.592 1.592 0 01-1.6-1.583L0 6.16a1.985 1.985 0 011.974-1.998zm6.33 6.998l1.334.01c.183 0 .33.147.331.33l.052 8.021a1.593 1.593 0 01-1.58 1.601l-12.055.082a.542.542 0 01-.546-.54l-.006-.914a.543.543 0 01.54-.546l11.644-.08-.049-7.629a.333.333 0 01.335-.335zm-8.414-3.358a5.07 5.07 0 015.126 5.004 5.07 5.07 0 01-5.004 5.125 5.07 5.07 0 01-5.125-5.003 5.07 5.07 0 015.003-5.126zm.024 2a3.069 3.069 0 00-3.027 3.103 3.068 3.068 0 003.1 3.026 3.07 3.07 0 003.029-3.101 3.068 3.068 0 00-3.102-3.028zM19.769 1a1 1 0 011 1v2.142h2.142a1 1 0 110 2H20.77v2.143a1 1 0 01-2 0V6.142h-2.142a1 1 0 110-2h2.142V2a1 1 0 011-1z"/></svg>