<svg id="file--pictures" xmlns="http://www.w3.org/2000/svg" viewBox="0 0 24 24"><path  d="M18.114 4.059c1.04 0 1.886.846 1.886 1.886v16.229c0 1.04-.846 1.885-1.886 1.885H1.886A1.887 1.887 0 010 22.174V5.944C0 4.905.846 4.06 1.886 4.06zM7.239 12.713L2 17.95v4.108h16v-5.157l-2.161 2.16c-.31.312-.717.466-1.125.466a1.58 1.58 0 01-1.124-.465l-6.351-6.35zM20.789 0a3.286 3.286 0 013.282 3.283v13.7a1 1 0 11-2 0v-13.7c0-.708-.575-1.283-1.283-1.283H7.08a1 1 0 010-2h13.708zM18 6.059H2v9.064l3.893-3.893a1.907 1.907 0 012.691-.001l6.13 6.13L18 14.074V6.059zm-4.977 2.596a1.701 1.701 0 110 3.404 1.702 1.702 0 110-3.404z"/></svg>