<svg id="file--html--css" xmlns="http://www.w3.org/2000/svg" viewBox="0 0 24 24"><path  d="M15.586 1c.379 0 .742.133 1.022.37l.08.078 5.156 5.512c.288.27.452.64.452 1.026v13.82c0 1.095-.974 1.986-2.171 1.986H4.172c-1.197 0-2.172-.89-2.172-1.986V2.986C2 1.89 2.975.999 4.172.999zm-.756 2H4.172c-.118 0-.181.049-.192.06L4 21.787c.003-.01.01-.012.02-.012.028 0 .08.018.152.018h15.953c.118 0 .18-.049.19-.06l-.018-12.848H14.83V3zm-5.32 8.726a.508.508 0 01.715 0l.414.415a.506.506 0 010 .716l-2.419 2.42 2.42 2.42a.505.505 0 010 .716l-.416.415a.507.507 0 01-.716 0l-3.22-3.222a.466.466 0 010-.66zm4.566 0a.508.508 0 01.716 0l3.222 3.221a.468.468 0 010 .66l-3.222 3.221a.507.507 0 01-.716 0l-.415-.415a.506.506 0 010-.716l2.419-2.42-2.42-2.42a.506.506 0 010-.716zm1.754-8.268v4.426h4.14l-4.14-4.426z"/></svg>