<svg id="file--zip" xmlns="http://www.w3.org/2000/svg" viewBox="0 0 24 24"><path  d="M15.585 1c.377 0 .738.13 1.018.366l.084.081 5.157 5.513c.287.27.451.64.451 1.026v13.82c0 1.095-.974 1.986-2.17 1.986H4.17c-1.197 0-2.171-.89-2.171-1.986V2.986C2 1.891 2.974 1 4.17 1zm-7.26 2H4.173c-.119 0-.181.048-.192.061L4 21.786c.003-.009.01-.012.02-.012.028 0 .08.018.152.018h4.154V19.91h2v1.883h9.799c.117 0 .18-.048.19-.06l-.018-12.848h-5.468V3h-4.504v2.02h-2V3zm1.835 8.912v1.637l-2.562 2.836h2.35v1.4H5.953v-1.667l2.534-2.806H6.412v-1.4h3.748zm6.782-.134c.83 0 1.5.671 1.5 1.5v1c0 .831-.67 1.5-1.5 1.5h-1v2h-1.5v-6zm-3.983 0v6h-1.483v-6h1.483zm3.983 1.5h-1v1h1v-1zm-6.617-5.259V9h-2v-.981h2zm5.505-4.562v4.427h4.14l-4.14-4.427zM10.325 6.02v1h-2v-1h2z"/></svg>