<svg id="file--exe--xls" xmlns="http://www.w3.org/2000/svg" viewBox="0 0 24 24"><path  d="M20 7.244h-9.692V4.01L20 4.025v3.219zm-9.692 4.279H20V8.244h-9.692v3.279zm0 4.28H20v-3.279h-9.692v3.279zM20 19.973c0 .013-.012.027-.026.027l-9.666-.017v-3.18H20v3.17zM9.308 7.244H4.021L4.027 4l5.281.008v3.236zm0 4.279H4.014l.006-3.279h5.288v3.279zm0 4.28H4.007l.006-3.28h5.295v3.28zm0 4.178L4 19.973l.005-3.17h5.303v3.178zM19.974 2H4.027A2.028 2.028 0 002 4.025v15.948A2.03 2.03 0 004.027 22h15.947A2.03 2.03 0 0022 19.973V4.025A2.028 2.028 0 0019.974 2z"/></svg>