<svg id="file--mp4--gif" xmlns="http://www.w3.org/2000/svg" viewBox="0 0 24 24"><path  d="M18.275 19.042h2.021v-1.907h-2.021v1.907zM4 13.073h2.156v2.062H4.005v2h2.151v1.907H4v-5.969zm0-6.06h2.156V5H4v2.013zm14.275 4.061h2.021V9.013h-2.021v2.061zm0 4.061h2.021v-2.062h-2.021v2.062zM8.156 19.042h8.119V5H8.156v14.042zM4 11.073h2.156V9.012H4v2.061zm14.275-4.06h2.021V5h-2.021v2.013zM20.478 3H3.818C2.816 3 2 3.856 2 4.91v14.222c0 1.054.816 1.91 1.818 1.91h16.66c1.002 0 1.818-.856 1.818-1.91V4.91c0-1.054-.816-1.91-1.818-1.91z"/></svg>