<svg id="file--picture--add" xmlns="http://www.w3.org/2000/svg" viewBox="0 0 24 24"><path  d="M12.385 4.163c.266 0 .482.216.482.481v1.038a.482.482 0 01-.482.481H2v9.063l3.894-3.893a1.902 1.902 0 012.69 0l6.13 6.13L18 14.178v-2.412a.48.48 0 01.481-.482h1.038a.48.48 0 01.481.482v10.511a1.886 1.886 0 01-1.886 1.886H1.886A1.886 1.886 0 010 22.277V6.05c0-1.042.844-1.886 1.886-1.886zm-5.146 8.653L2 18.056v4.107h16v-5.157l-2.161 2.162c-.31.31-.717.465-1.125.465-.407 0-.814-.155-1.124-.465l-6.351-6.351zm5.784-4.057a1.701 1.701 0 11.001 3.403 1.701 1.701 0 01-.001-3.403zM19.009 1a1 1 0 011 1v2.142h2.142a1 1 0 110 2h-2.142v2.143a1 1 0 01-2 0V6.142h-2.142a1 1 0 110-2h2.142V2a1 1 0 011-1z"/></svg>