<svg id="file--mp3" xmlns="http://www.w3.org/2000/svg" viewBox="0 0 24 24"><path  d="M15.585 1c.375 0 .736.13 1.016.365l.086.082 5.158 5.513c.287.27.45.64.45 1.026v13.82c0 1.095-.974 1.986-2.171 1.986H4.171C2.974 23.792 2 22.901 2 21.806V2.986C2 1.891 2.974 1 4.171 1zm-.756 2H4.171c-.118 0-.181.048-.191.061L4 21.786c.002-.009.009-.012.021-.012.027 0 .079.018.15.018h15.953c.118 0 .181-.048.191-.061l-.018-12.847h-5.468V3zm1.053 7.963v7.244c-.004.62-.66 1.122-1.47 1.122-.808 0-1.465-.502-1.465-1.122 0-.619.657-1.122 1.466-1.122.165 0 .32.025.469.064v-4.134H9.859v5.192h-.012c0 .62-.656 1.122-1.465 1.122-.81 0-1.465-.502-1.465-1.122 0-.619.656-1.122 1.465-1.122.168 0 .327.026.477.066v-6.188h7.023zm-.053-7.506v4.427h4.141l-4.141-4.427z"/></svg>