<svg id="file--pdf" xmlns="http://www.w3.org/2000/svg" viewBox="0 0 24 24"><path  d="M15.585 1c.38 0 .743.132 1.022.37l.08.077 5.157 5.513c.288.269.451.639.451 1.025v13.82c0 1.095-.974 1.986-2.171 1.986H4.171C2.974 23.791 2 22.9 2 21.805V2.986C2 1.891 2.974 1 4.171 1zm-.756 2H4.171c-.118 0-.181.048-.191.061l.004 3.886h5.928v2H3.986L4 21.785c.002-.009.009-.012.021-.012.027 0 .079.018.15.018h15.953c.118 0 .181-.048.191-.061l-.018-12.846h-5.468V3zm-6.664 8.778c.83 0 1.5.67 1.5 1.5v1c0 .83-.67 1.5-1.5 1.5h-1v2h-1.5v-6zm5 0c.83 0 1.5.67 1.5 1.5v3c0 .83-.67 1.5-1.5 1.5h-2.5v-6zm5.5 0v1.5h-1.5v1h1.5v1.5h-1.5v2h-1.5v-6h3zm-5.5 1.5h-1v3h1v-3zm-5 0h-1v1h1v-1zm7.664-9.822v4.428h4.141l-4.141-4.428z"/></svg>