<svg id="generic--actions--buttons" xmlns="http://www.w3.org/2000/svg" viewBox="0 0 24 24"><path  d="M11.722 2.006c2.481-.088 4.846.878 6.738 2.486 3.88 3.297 4.44 7.765 2.933 11.407-.115.278-.484.34-.696.128l-.882-.882a.417.417 0 01-.097-.433 8.072 8.072 0 00.446-2.631c0-4.986-4.54-8.934-9.705-7.923-3.147.615-5.683 3.15-6.299 6.298-1.013 5.164 2.934 9.707 7.922 9.707.976 0 1.927-.19 2.825-.527a.388.388 0 01.418.087l.923.92c.196.198.141.539-.112.652-2.418 1.072-5.205 1.208-7.924.088-3.118-1.283-5.44-4.108-6.042-7.426C1.036 7.7 5.72 2.217 11.722 2.006zm6.616 9.72a.48.48 0 01.48.48v1.04a.48.48 0 01-.48.48H15.43l6.65 6.648a.49.49 0 010 .693l-.722.721a.492.492 0 01-.694 0l-6.648-6.648v2.903a.48.48 0 01-.48.48h-1.04a.48.48 0 01-.48-.48v-6.317h6.322zM8.054 8.101a5.646 5.646 0 017.976 0 5.646 5.646 0 011.113 1.61h-2.356c-.056-.065-.109-.134-.17-.196a3.647 3.647 0 00-5.149 0 3.645 3.645 0 000 5.148c.157.158.33.294.508.418v2.242a5.625 5.625 0 01-1.922-1.246 5.646 5.646 0 010-7.976z"/></svg>