<svg id="generic--info" xmlns="http://www.w3.org/2000/svg" viewBox="0 0 24 24"><path  d="M18.823 2c1.097 0 1.986.889 1.986 1.985v2.968a.678.678 0 01-.677.678h-.646a.678.678 0 01-.677-.678V3.986L4.986 4 5 18.15l3.328-.014a2.513 2.513 0 011.788.736l1.789 1.788 1.821-1.821a2.402 2.402 0 011.698-.703h3.399l-.013-6.385c0-.374.303-.678.677-.678h.645c.374 0 .677.303.677.677v6.4a1.986 1.986 0 01-1.986 1.986h-3.398a.4.4 0 00-.285.118l-3.235 3.234-3.202-3.202a.519.519 0 00-.365-.15H4.986A1.986 1.986 0 013 18.15V3.986C3 2.889 3.889 2 4.986 2zm-6.21 8.244c.436 0 .791.354.791.792v4.704a.504.504 0 01-.503.504h-.993a.504.504 0 01-.504-.504v-3.496h-.32a.68.68 0 01-.68-.679v-.643c0-.374.304-.678.68-.678zm-.709-3a1 1 0 11.001 2 1 1 0 010-2z"/></svg>