<svg id="generic--cost--billing" xmlns="http://www.w3.org/2000/svg" viewBox="0 0 24 24"><path  fill-rule="evenodd" d="M13.007 2.41a3.219 3.219 0 014.292 1.087l1.968 3.108h1.33c1.095 0 1.986.89 1.986 1.985v11.029a1.988 1.988 0 01-1.986 1.986H1.986A1.988 1.988 0 010 19.619V8.589c0-1.093.891-1.984 1.986-1.984h3.577c.031-.022.052-.054.086-.073zm7.576 6.18l-18.597.015L2 19.619l18.583-.014V8.59zm-3.07 3.002c.34 0 .615.275.615.615v.77c0 .34-.276.615-.616.615H5.255a.615.615 0 01-.615-.615v-.77c0-.34.275-.615.615-.615zM15.61 4.567a1.22 1.22 0 00-1.625-.412L9.61 6.605h7.29z"/></svg>