<svg id="generic--cost--price" xmlns="http://www.w3.org/2000/svg" viewBox="0 0 24 24"><path  d="M21.552 1a1.75 1.75 0 011.274.515c.333.34.511.809.485 1.285l-.399 7.756a3.305 3.305 0 01-.966 2.17l-8.435 8.294-1.415-1.414 8.442-8.3c.224-.224.36-.528.377-.853l.384-7.443-7.607.233c-.335.009-.65.145-.888.382L3.032 13.23l7.707 7.708h.003l1.419 1.399-.068.075a1.905 1.905 0 01-1.352.557 1.92 1.92 0 01-1.36-.561l-.001-.001-7.818-7.82A1.905 1.905 0 011 13.233a1.91 1.91 0 01.562-1.361l9.834-9.666a3.296 3.296 0 012.237-.962zm-8.138 4.737a3.468 3.468 0 015.917 2.451c0 .926-.36 1.796-1.015 2.451a3.455 3.455 0 01-2.451 1.014 3.455 3.455 0 01-2.451-1.014 3.447 3.447 0 01-1.016-2.45c0-.928.362-1.798 1.016-2.452zm2.451.985c-.376 0-.751.143-1.037.43a1.463 1.463 0 00.001 2.073 1.465 1.465 0 101.036-2.503z"/></svg>