<svg id="generic--user--user--group" xmlns="http://www.w3.org/2000/svg" viewBox="0 0 24 24"><path  d="M11.85 6.7c2.42 0 4.39 1.915 4.39 4.268 0 2.062-1.106 3.762-2.162 4.916.136.01.273.016.41.016l.645-.001c1.966 0 3.393 1.55 3.396 3.687l.002.944v.793c-.004 1.294-.043 1.362-.305 1.626a1.054 1.054 0 01-.75.313L6.23 23.27a1.056 1.056 0 01-1.054-1.054v-2.627c0-1.425.583-2.558 1.643-3.19a.653.653 0 01.878.196l.54.8a.458.458 0 01.063.362.441.441 0 01-.219.283c-.53.282-.797.802-.797 1.549v1.574l9.14-.007-.002-1.568c-.002-.73-.338-1.582-1.289-1.582h-.644c-3.88 0-7.038-3.157-7.038-7.038 0-2.393 1.933-4.268 4.4-4.268zm9.294 4.352a.645.645 0 01.855-.21c1.059.62 1.667 1.789 1.667 3.205v2.627a1.057 1.057 0 01-1.054 1.053l-3.063-.002a.56.56 0 01-.558-.56v-.988a.56.56 0 01.558-.56l2.009.002v-1.572c0-.747-.268-1.268-.798-1.55a.437.437 0 01-.22-.281.454.454 0 01.065-.364zm-19.478-.21a.645.645 0 01.855.21l.54.8c.072.107.095.24.063.365a.44.44 0 01-.22.281c-.528.28-.797.802-.797 1.55v1.571h2.009a.56.56 0 01.559.558v.99a.56.56 0 01-.559.557l-3.062.002c-.282 0-.547-.109-.745-.307A1.062 1.062 0 010 16.674v-2.627c0-1.416.607-2.584 1.666-3.205zM11.85 8.807c-1.306 0-2.291.929-2.291 2.16 0 1.734.845 3.28 2.268 4.176.92-.82 2.306-2.357 2.306-4.175 0-1.191-1.024-2.161-2.282-2.161zM17.489 1c2.492.003 4.444 1.899 4.444 4.318 0 2.563-1.656 5.131-4.12 6.392a.068.068 0 01-.023.005.057.057 0 01-.028-.008.048.048 0 01-.022-.045l.01-.142c.01-.116.02-.235.02-.352 0-.571-.086-1.144-.254-1.701a.05.05 0 01.02-.057c1.372-.889 2.19-2.419 2.19-4.092 0-1.2-.962-2.108-2.237-2.111-1.275.003-2.236.911-2.236 2.111 0 .298.033.616.1.968a.052.052 0 01-.022.052.046.046 0 01-.056-.002 6.137 6.137 0 00-2.187-1.008.05.05 0 01-.038-.049c.02-2.396 1.97-4.276 4.439-4.279zM6.203 1c2.468.003 4.418 1.883 4.44 4.279a.05.05 0 01-.039.049 6.137 6.137 0 00-2.187 1.008.047.047 0 01-.057.002.052.052 0 01-.022-.052c.068-.354.102-.671.102-.968 0-1.2-.962-2.108-2.237-2.111-1.275.003-2.237.911-2.237 2.111 0 1.673.818 3.204 2.19 4.092a.05.05 0 01.02.057 5.873 5.873 0 00-.254 1.701c0 .113.01.23.02.342.002.051.006.101.01.152a.05.05 0 01-.05.053.06.06 0 01-.023-.005c-2.464-1.261-4.12-3.829-4.12-6.392C1.76 2.899 3.711 1.003 6.203 1z"/></svg>