<svg id="generic--notebook" xmlns="http://www.w3.org/2000/svg" viewBox="0 0 24 24"><path  d="M7.627 2c.367 0 .664.265.664.592V4.12h2.935V2.592c0-.327.298-.592.665-.592h.671c.367 0 .664.265.664.592V4.12h3.065V2.592c0-.327.298-.592.665-.592h.671c.367 0 .664.265.664.592V4.12h2.306c1.098 0 1.986.89 1.986 1.986v14.028a1.986 1.986 0 01-1.986 1.986H3.987A1.987 1.987 0 012 20.134v-5.015c0-.178.144-.322.323-.322h1.35c.178 0 .322.144.322.322L4 20.134l16.583-.014V6.106l-2.292.003v1.097c0 .492-.447.891-1 .891-.551 0-1-.399-1-.891V6.11l-2.65.002v.004h-.415v1.09c0 .492-.447.891-1 .891-.552 0-1-.399-1-.891V6.117l-.283.001v-.004l-2.652.002v1.09c0 .492-.447.891-1 .891-.551 0-1-.399-1-.891V6.117l-2.304.003.006 6.469a.322.322 0 01-.322.321H2.322A.322.322 0 012 12.589V6.106C2 5.01 2.889 4.12 3.987 4.12h2.304V2.592c0-.327.298-.592.665-.592zm3.95 12.839c.36 0 .652.29.652.65v.498a.652.652 0 01-.651.653H7.405a.652.652 0 01-.652-.653v-.497c0-.36.292-.651.651-.651zm5.477-3.822c.36 0 .652.292.652.652v.496a.652.652 0 01-.652.654H7.405a.653.653 0 01-.653-.654v-.496c0-.36.292-.652.653-.652z"/></svg>