<svg id="generic--info--alt" xmlns="http://www.w3.org/2000/svg" viewBox="0 0 24 24"><path  d="M18.823 1c1.097 0 1.986.889 1.986 1.985v2.968a.678.678 0 01-.677.678h-.646a.678.678 0 01-.677-.678V2.986L4.986 3 5 17.15l3.328-.014a2.513 2.513 0 011.788.736l1.788 1.788 1.822-1.821a2.402 2.402 0 011.698-.703h3.398l-.012-6.385c0-.374.303-.678.677-.678h.645c.374 0 .677.303.677.677v6.4a1.987 1.987 0 01-1.987 1.986h-3.397a.404.404 0 00-.286.118l-3.235 3.234-3.201-3.202a.519.519 0 00-.365-.15H4.986A1.986 1.986 0 013 17.15V2.986C3 1.889 3.889 1 4.986 1zm-6.918 13.277a1 1 0 110 1.999 1 1 0 010-2zm.324-9.6a2.92 2.92 0 012.917 2.917v1.387c0 1.156-.94 2.096-2.096 2.096a.196.196 0 00-.196.195v.983a.95.95 0 01-1.9 0v-.983c0-1.155.94-2.095 2.096-2.095a.195.195 0 00.194-.196V7.594c0-.56-.454-1.017-1.015-1.017h-.648c-.561 0-1.016.456-1.016 1.017v.568a.951.951 0 01-1.901 0v-.568a2.92 2.92 0 012.917-2.917h.648z"/></svg>