<svg id="generic--room" xmlns="http://www.w3.org/2000/svg" viewBox="0 0 24 24"><path  d="M14.699 1.024c.38-.074.761.025 1.054.267.294.242.462.6.462.98v2.406h3.103c.685 0 1.243.557 1.243 1.243v11.972h-2V6.677h-2.346v13.035h4.346v.774c0 .676-.55 1.226-1.226 1.226h-3.12v.51c0 .38-.168.737-.462.979a1.263 1.263 0 01-1.05.269l-.004-.001-9.672-1.895A1.27 1.27 0 014 20.328V4.164c0-.607.433-1.132 1.029-1.247zm-.484 2.132L6 4.766v14.961l8.215 1.609V3.156zm-2.05 8.458c.17 0 .306.137.306.306v2.556a.306.306 0 01-.306.307h-.887a.308.308 0 01-.308-.307V11.92c0-.169.138-.306.307-.306z"/></svg>