<svg id="generic--hierarchy" xmlns="http://www.w3.org/2000/svg" viewBox="0 0 24 24"><path  d="M5.368 13.207a.412.412 0 00-.411.412v1.82a3.964 3.964 0 012.957 3.83 3.961 3.961 0 01-3.957 3.957A3.961 3.961 0 010 19.268a3.964 3.964 0 012.956-3.83l.001-1.82a2.415 2.415 0 012.411-2.412h5.505V8.785a3.963 3.963 0 01-2.957-3.828A3.961 3.961 0 0111.873 1a3.961 3.961 0 013.957 3.957 3.963 3.963 0 01-2.958 3.828v2.422h5.432a2.415 2.415 0 012.41 2.412v1.82a3.964 3.964 0 012.958 3.83 3.961 3.961 0 01-3.957 3.957 3.961 3.961 0 01-3.957-3.957 3.964 3.964 0 012.956-3.83v-1.82a.412.412 0 00-.41-.412H5.368zm14.347 4.104a1.96 1.96 0 00-1.957 1.957 1.96 1.96 0 001.957 1.957 1.96 1.96 0 001.957-1.957 1.96 1.96 0 00-1.957-1.957zm-15.758 0A1.96 1.96 0 002 19.268a1.96 1.96 0 001.957 1.957 1.96 1.96 0 001.957-1.957 1.96 1.96 0 00-1.957-1.957zM11.873 3a1.96 1.96 0 00-1.957 1.957 1.96 1.96 0 001.957 1.956 1.96 1.96 0 001.957-1.956A1.96 1.96 0 0011.873 3z"/></svg>