<svg id="generic--presentation" xmlns="http://www.w3.org/2000/svg" viewBox="0 0 24 24"><path  d="M5.069 5.516c.258 0 .467.21.467.468v9.94c0 .12.097.217.218.217h13.24c.12 0 .218-.097.218-.218V5.984c0-.259.209-.468.467-.468h1.066c.258 0 .467.21.467.468v9.94a2.218 2.218 0 01-2.218 2.217h-3.02l1.282 2.45a.726.726 0 01-.307.98l-.487.254a.726.726 0 01-.978-.307l-1.765-3.377h-2.662L9.29 21.518a.725.725 0 01-.977.307l-.488-.255a.726.726 0 01-.307-.979l1.28-2.45H5.755a2.217 2.217 0 01-2.218-2.218V5.984c0-.259.209-.468.467-.468zm3.759.346c.36 0 .652.292.652.651v7.023c0 .36-.292.652-.652.652h-.497a.652.652 0 01-.652-.652V6.514c0-.36.292-.652.652-.652zm3.821 2.848c.36 0 .652.291.652.652v4.174c0 .36-.292.652-.652.652h-.497a.652.652 0 01-.652-.652V9.363c0-.361.292-.653.652-.653zm3.768 1.405c.36 0 .652.293.652.652v2.769c0 .36-.292.652-.652.652h-.497a.652.652 0 01-.652-.652v-2.768c0-.36.292-.652.652-.652zM21.657 2c.487 0 .883.396.883.883v.234a.87.87 0 01-.686.843H2.685A.87.87 0 012 3.117v-.234C2 2.396 2.395 2 2.882 2z"/></svg>