<svg id="generic--cost--pound" xmlns="http://www.w3.org/2000/svg" viewBox="0 0 24 24"><path  d="M7.019 11.929c0-.536.435-.971.971-.971h.422a9.77 9.77 0 01-.157-1.607C8.255 6.196 10.784 5 12.586 5c2.062 0 3.269.934 4.09 1.941a.448.448 0 01-.036.595l-.951.962a.45.45 0 01-.677-.041c-.585-.761-1.324-1.34-2.288-1.34-1.235 0-2.137.764-2.137 2.352 0 .314.039.961.158 1.489h2.694a.97.97 0 110 1.941h-2.303l.863 3.823h2.979V15.14a1.03 1.03 0 012.058 0v3.156a.66.66 0 01-.66.66H7.552A.552.552 0 017 18.405v-1.132c0-.305.247-.551.552-.551h2.075l-.823-3.823H7.99a.971.971 0 01-.971-.97"/></svg>