<svg id="generic--home" xmlns="http://www.w3.org/2000/svg" viewBox="0 0 24 24"><path  d="M19.005 11.034c0-.127.143-.2.246-.126l1.69 1.228c.04.03.064.076.064.126v8.584c0 .38-.308.688-.688.688h-6.861V16.67h-2.657v4.864H3.937a.688.688 0 01-.687-.688v-8.584c0-.05.024-.097.064-.126l1.689-1.228a.156.156 0 01.247.126v8.5h3.549v-3.159c0-.942.764-1.705 1.706-1.705h3.245c.942 0 1.706.763 1.706 1.706v3.158h3.549zM12.127 1l10.852 7.886a.666.666 0 01.147.931l-.392.539a.666.666 0 01-.931.147l-9.676-7.03-9.677 7.03a.665.665 0 01-.93-.147l-.393-.539a.667.667 0 01.148-.931L12.127 1z"/></svg>