<svg id="generic--sim--card" xmlns="http://www.w3.org/2000/svg" viewBox="0 0 24 24"><path  d="M18.322 20.57l-2.901-.006v-4.046h2.909l-.008 4.052zm-4.901-.01l-3.302-.006v-4.036h3.302v4.042zm-5.302-.01L5 20.544l.006-4.026h3.113v4.032zm6.302-14.527V3h.546l3.306 2.877a.219.219 0 01.067.146h-3.919zm-4.302 0h2.302V3h-2.302v3.023zm10.227 0a2.214 2.214 0 00-.757-1.652l-3.29-2.872A2.026 2.026 0 0014.968 1H5.025A2.025 2.025 0 003 3.026v2.83c0 .185.148.333.333.333h1.355a.333.333 0 00.333-.332L5.025 3h3.094v5.023h10.225l-.011 6.495H5.009l.008-5.9a.475.475 0 00-.474-.476h-1.07A.474.474 0 003 8.617v11.927c0 1.119.907 2.026 2.026 2.026h13.296a2.025 2.025 0 002.026-2.025V6.023h-.002z"/></svg>