<svg id="generic--branch--alt" xmlns="http://www.w3.org/2000/svg" viewBox="0 0 24 24"><path  d="M9.021 3c.629 0 1.141.512 1.141 1.142V5.58h4.135V4.142c0-.63.512-1.142 1.142-1.142h4.879c.629 0 1.142.512 1.142 1.142v4.879c0 .63-.513 1.141-1.142 1.141h-4.879c-.63 0-1.142-.511-1.142-1.141V7.58h-4.135v1.441c0 .63-.512 1.141-1.141 1.141H7.58l.001 7.58h6.716v-1.989c0-.63.512-1.141 1.142-1.141h4.879c.629 0 1.142.511 1.142 1.141v4.88c0 .63-.513 1.142-1.142 1.142h-4.879c-.63 0-1.142-.512-1.142-1.142v-.891H7.165a1.586 1.586 0 01-1.584-1.584l-.001-7.996H4.141A1.142 1.142 0 013 9.021V4.142C3 3.512 3.512 3 4.141 3h4.88zM19.46 16.612h-3.163v3.163h3.163v-3.163zM8.163 5H5v3.162h3.163V5zM19.46 5h-3.163v3.162h3.163V5z"/></svg>