<svg id="generic--attachment" xmlns="http://www.w3.org/2000/svg" viewBox="0 0 24 24"><path  d="M18.206 10.78l-7.351-7.351c-1.703-1.704-4.486-1.954-6.301-.37a4.499 4.499 0 00-1.528 3.896c.113 1.083.669 2.073 1.439 2.844l7.124 7.126c.964.96 2.53.96 3.495-.001l.149-.15a2.468 2.468 0 00.003-3.492l-4.538-4.538a.724.724 0 00-1.021 0l-.393.393a.722.722 0 000 1.02l4.534 4.536a.473.473 0 010 .668l-.148.148a.474.474 0 01-.668 0L5.736 8.242A2.496 2.496 0 015 6.466c0-.774.348-1.495.97-1.984 1.017-.8 2.502-.61 3.416.306l7.483 7.482c.698.699 1.206 1.592 1.33 2.572a4.25 4.25 0 01-1.212 3.566 4.244 4.244 0 01-3.563 1.21c-.981-.122-1.875-.63-2.574-1.33l-4.778-4.776a.821.821 0 00-1.162 0l-.251.25a.82.82 0 000 1.164l4.722 4.722c1.096 1.097 2.523 1.859 4.069 1.985a6.226 6.226 0 005.064-1.928c2.369-2.492 2.124-6.493-.308-8.925"/></svg>