<svg id="generic--effect" xmlns="http://www.w3.org/2000/svg" viewBox="0 0 24 24"><path  d="M18.45 1.523a2 2 0 011.424.59l1.768 1.768c.38.38.589.884.59 1.421a2 2 0 01-.59 1.424l-15.44 15.44a2.004 2.004 0 01-1.423.59c-.515 0-1.03-.197-1.423-.59l-1.768-1.768a2.015 2.015 0 01-.001-2.844L17.029 2.112c.379-.38.884-.588 1.42-.589zm-4.94 6.948L3.003 18.967l1.768 1.785a.015.015 0 00.018 0L15.29 10.25l-1.78-1.779zm5.944 4.045a.2.2 0 01.373 0 3.225 3.225 0 001.861 1.774c.173.063.173.316 0 .38a3.225 3.225 0 00-1.86 1.774.2.2 0 01-.374 0 3.227 3.227 0 00-1.862-1.774c-.173-.064-.173-.317 0-.38a3.227 3.227 0 001.862-1.774zm-.994-8.99l-3.534 3.531 1.778 1.78 3.524-3.525-1.768-1.786zM5.29 1.276a.218.218 0 01.405 0 3.503 3.503 0 002.023 1.928c.188.07.188.344 0 .413a3.506 3.506 0 00-2.023 1.93.218.218 0 01-.406 0 3.503 3.503 0 00-2.023-1.93c-.187-.069-.187-.344 0-.413A3.503 3.503 0 005.29 1.275zm7.106-.194a.128.128 0 01.24 0c.22.527.654.94 1.192 1.138.111.04.111.202 0 .243A2.07 2.07 0 0012.635 3.6a.128.128 0 01-.239 0 2.067 2.067 0 00-1.193-1.137c-.11-.041-.11-.203 0-.243a2.066 2.066 0 001.193-1.138z"/></svg>