<svg id="generic--cost--dollar" xmlns="http://www.w3.org/2000/svg" viewBox="0 0 24 24"><path  d="M13.16 13.004v3.724c1.353-.158 2.038-.901 2.038-1.803 0-.863-.53-1.588-2.038-1.921m-1.882-2.687V6.868c-1.235.197-1.764.981-1.764 1.686 0 .843.47 1.47 1.764 1.763m0 10.096v-1.627c-1.828-.231-3.191-1.121-4.16-2.205a.488.488 0 01.027-.664l.887-.897a.485.485 0 01.713.02c.603.699 1.38 1.307 2.533 1.57v-3.92c-2.568-.451-4.116-1.824-4.116-4.077 0-2.196 1.823-3.626 4.116-3.861V2.941a.941.941 0 011.882 0V4.79c1.572.242 2.702.941 3.579 1.761a.487.487 0 01.01.686l-.934.993a.483.483 0 01-.697.014c-.514-.527-1.146-.999-1.958-1.238v3.645c3.018.49 4.39 2.039 4.39 4.235 0 2.097-1.607 3.684-4.39 3.94v1.587a.94.94 0 11-1.882 0"/></svg>