<svg id="generic--camera" xmlns="http://www.w3.org/2000/svg" viewBox="0 0 24 24"><path  d="M21.572 3a1.986 1.986 0 012.01 1.962l.162 13.422a1.591 1.591 0 01-1.57 1.61l-13.244.16a.543.543 0 01-.549-.537l-.012-.913a.543.543 0 01.536-.55L21.74 18 21.583 5l-1.464.018-2.447.03-14.685.177.17 13 1.891-.024c.3-.004.546.237.55.536l.011.914a.542.542 0 01-.537.55l-2.298.028c-.88.01-1.6-.694-1.61-1.573L1 5.236a1.986 1.986 0 011.963-2.01l14.685-.179 2.446-.029zm-9.26 3.733a5.07 5.07 0 015.125 5.004 5.071 5.071 0 01-5.004 5.125 5.07 5.07 0 01-5.125-5.003 5.07 5.07 0 015.003-5.126zm.023 2a3.067 3.067 0 00-3.027 3.102 3.068 3.068 0 003.101 3.027 3.07 3.07 0 003.028-3.102 3.07 3.07 0 00-3.102-3.027zm6.801-1.083a.9.9 0 11.021 1.8.9.9 0 01-.02-1.8z"/></svg>