<svg id="generic--cost--euro" xmlns="http://www.w3.org/2000/svg" viewBox="0 0 24 24"><path  d="M6 10.499c0-.536.435-.971.97-.971h1.111C8.826 6.783 10.825 5 13.687 5c1.73 0 2.926.693 3.765 1.562.293.304.28.79-.012 1.094l-.384.4c-.314.326-.821.308-1.149-.003-.604-.573-1.376-.937-2.26-.937-1.313 0-2.527.765-3.136 2.412h2.552a.971.971 0 010 1.941H10.12c-.02.216-.02.43-.02.646 0 .256 0 .49.02.705h2.943a.971.971 0 010 1.942h-2.552c.609 1.567 1.765 2.293 3.156 2.293.996 0 1.789-.384 2.431-.928.336-.285.83-.274 1.125.054l.388.43a.806.806 0 01-.091 1.159c-1.113.931-2.386 1.401-3.853 1.401-2.901 0-4.841-1.744-5.566-4.409H6.97a.971.971 0 010-1.942h.817c0-.234-.02-.47-.02-.705 0-.216 0-.43.02-.646H6.97a.97.97 0 01-.97-.97"/></svg>