<svg id="generic--catalog" xmlns="http://www.w3.org/2000/svg" viewBox="0 0 24 24"><path  d="M6.837 2c1.779 0 3.537.436 5.109 1.263A10.988 10.988 0 0117.057 2h2.28a2.56 2.56 0 012.559 2.56v14.777a2.56 2.56 0 01-2.559 2.559h-4.309a.23.23 0 01-.229-.23v-1.54a.23.23 0 01.229-.23h4.309c.309 0 .559-.25.559-.559V4.56c0-.31-.25-.56-.559-.56h-2.28a8.959 8.959 0 00-4.109 1.019l.019 16.085c-.003.032-.019.059-.019.091v.144a.842.842 0 01-.841.842h-.317a.842.842 0 01-.842-.842v-.144c0-.038-.017-.071-.021-.107l.021-16.07A8.953 8.953 0 006.837 4H4.56a.56.56 0 00-.56.56v14.776c0 .31.251.56.56.56h4.312c.123 0 .223.1.223.223v1.555c0 .123-.1.222-.223.222H4.561A2.56 2.56 0 012 19.336V4.56A2.56 2.56 0 014.56 2zm10.585 13.442a1 1 0 110 2h-2a1 1 0 110-2zm0-4.441a1 1 0 110 2h-2a1 1 0 110-2zm-8.948 0a1 1 0 110 2h-2a1 1 0 110-2zm8.948-4.441a1 1 0 110 2h-2a1 1 0 110-2zm-8.948 0a1 1 0 110 2h-2a1 1 0 110-2z"/></svg>