<svg id="generic--time" xmlns="http://www.w3.org/2000/svg" viewBox="0 0 24 24"><path  d="M12.155 2.001c5.514.087 9.93 4.642 9.844 10.155a9.938 9.938 0 01-3.039 7.025A9.936 9.936 0 0112.004 22l-.16-.001A9.938 9.938 0 014.82 18.96a9.94 9.94 0 01-2.818-7.115C2.086 6.384 6.556 2 11.998 2zM11.998 4C7.644 4 4.07 7.507 4.001 11.876a7.942 7.942 0 002.254 5.692 7.952 7.952 0 005.621 2.431 7.895 7.895 0 005.692-2.255A7.95 7.95 0 0020 12.125c.068-4.41-3.464-8.055-7.875-8.124L11.998 4zm3.878 5.018a.658.658 0 01.924.117l.418.54c.223.287.17.7-.117.923l-5.594 4.235-2.83-2.918a.656.656 0 01.015-.93l.49-.476a.658.658 0 01.931.014l1.583 1.633z"/></svg>