<svg id="generic--camera--change" xmlns="http://www.w3.org/2000/svg" viewBox="0 0 24 24"><path  d="M14.212 2c1.077 0 2.034.716 2.338 1.748.05.169.216.315.393.315h4.706c1.134 0 2.054.92 2.054 2.054v13.099c0 1.134-.92 2.054-2.054 2.054H9.168a.58.58 0 01-.581-.58v-.876c0-.32.261-.581.583-.58l12.479.036.054-13.153-.054-.054h-4.706a2.412 2.412 0 01-2.302-1.719c-.055-.185-.234-.344-.429-.344H10.49c-.195 0-.374.159-.429.345a2.413 2.413 0 01-2.302 1.718H3.053L3 19.216l2.362.007a.39.39 0 01.389.39v1.267a.39.39 0 01-.39.39H3.053A2.054 2.054 0 011 19.216V6.117c0-1.134.919-2.054 2.053-2.054h4.706c.177 0 .343-.146.393-.315A2.445 2.445 0 0110.49 2zm.255 5.432l.081.003 2.341.36a.436.436 0 01.243.74l-.428.428a5.29 5.29 0 011.24 3.407 5.316 5.316 0 01-5.31 5.31.732.732 0 010-1.464 3.85 3.85 0 003.845-3.846c0-.859-.288-1.689-.817-2.365l-.51.51a.427.427 0 01-.446.105.432.432 0 01-.294-.348l-.36-2.339a.431.431 0 01.122-.374.448.448 0 01.374-.124zm-2.4-.403a.732.732 0 010 1.463 3.85 3.85 0 00-3.844 3.846c0 .859.288 1.689.817 2.365l.51-.51a.434.434 0 01.444-.105c.157.05.27.184.296.347l.36 2.34a.434.434 0 01-.496.498l-2.342-.36a.435.435 0 01-.347-.296.433.433 0 01.105-.444l.428-.428a5.29 5.29 0 01-1.238-3.407 5.315 5.315 0 015.308-5.31z"/></svg>