<svg id="generic--calendar" xmlns="http://www.w3.org/2000/svg" viewBox="0 0 24 24"><path  d="M7.627 1c.346 0 .62.238.653.538v5.106c-.034.465-.457.837-.989.837-.551 0-1-.399-1-.891V5.502l-3.304.002L3 19.518l18.583-.014V5.49l-3.292.003V6.59c0 .492-.447.891-1 .891-.551 0-1-.399-1-.891V5.494l-6.049.005a.308.308 0 01-.308-.308V3.812c0-.17.138-.308.308-.308h6.049V1.592c0-.326.298-.592.665-.592h.671c.367 0 .664.266.664.592v1.912h3.306c1.098 0 1.986.89 1.986 1.986v14.028a1.986 1.986 0 01-1.986 1.986H2.987A1.987 1.987 0 011 19.518V5.49c0-1.096.89-1.986 1.987-1.986h3.304V1.592c0-.326.298-.592.665-.592zM6.291 13.528a1.062 1.062 0 11.001 2.125 1.062 1.062 0 010-2.125zm4 0a1.063 1.063 0 11.001 2.126 1.063 1.063 0 010-2.126zm4 0a1.063 1.063 0 11.001 2.126 1.063 1.063 0 010-2.126zm4 0a1.062 1.062 0 11.002 2.126 1.062 1.062 0 01-.001-2.125zm-12-4.087a1.062 1.062 0 11.002 2.125 1.062 1.062 0 01-.002-2.125zm4 0a1.062 1.062 0 11.001 2.125 1.062 1.062 0 010-2.125zm4 0a1.062 1.062 0 11.001 2.125 1.062 1.062 0 010-2.125z"/></svg>