<svg id="generic--layers" xmlns="http://www.w3.org/2000/svg" viewBox="0 0 24 24"><path  d="M20.605 16.278a1 1 0 01-.386 1.36l-8.19 4.578a1.003 1.003 0 01-.977 0L2.86 17.638a1 1 0 11.976-1.746l7.216 4.033c.303.169.672.169.976 0l7.216-4.033a1 1 0 011.361.386zM3.836 11.11l7.216 4.032c.303.169.672.169.976 0l7.216-4.032a1 1 0 01.975 1.746l-8.19 4.577a1.003 1.003 0 01-.977 0L2.86 12.856a1 1 0 01.976-1.746zm8.437-9.92l8.039 4.491a1.502 1.502 0 01.001 2.62l-8.041 4.492a1.5 1.5 0 01-1.46.002l-.004-.002-8.04-4.492a1.5 1.5 0 01.001-2.62l8.039-4.492a1.509 1.509 0 011.465.001zm-.733 1.881l-7.015 3.92 7.015 3.92 7.015-3.92-7.015-3.92z"/></svg>