<svg id="generic--recent" xmlns="http://www.w3.org/2000/svg" viewBox="0 0 24 24"><path  d="M11.52 1c.08 0 .158.01.232.027l-.24-.003c5.796 0 10.512 4.715 10.512 10.511 0 3.445-1.691 6.674-4.523 8.641a10.45 10.45 0 01-5.989 1.872 1 1 0 110-2 8.45 8.45 0 004.848-1.515 8.52 8.52 0 003.664-6.998c0-4.693-3.818-8.51-8.512-8.51a8.51 8.51 0 00-7.006 3.681l-.114.17A8.45 8.45 0 003.021 11.5c0 2.108.788 4.126 2.182 5.679l1.459-1.459a.386.386 0 01.655.214l.749 4.857a.387.387 0 01-.441.442l-4.858-.748a.387.387 0 01-.214-.656l1.198-1.198A10.472 10.472 0 011 11.535c0-2.185.67-4.217 1.816-5.9l.02-.03A10.498 10.498 0 0111.52 1zm3.517 7.697a.659.659 0 01.924.117l.418.54a.659.659 0 01-.117.924l-5.594 4.235-2.83-2.918a.658.658 0 01.015-.931l.49-.476a.658.658 0 01.93.015l1.584 1.632z"/></svg>