<svg id="generic--user--add--user" xmlns="http://www.w3.org/2000/svg" viewBox="0 0 24 24"><path  d="M8.103 3c2.538 0 4.602 2.098 4.602 4.677 0 2.477-1.381 4.496-2.58 5.777.28.044.568.066.86.066h.706c2.036 0 3.515 1.687 3.518 4.011v.926l.001.247v.825c-.005 1.467-.048 1.462-.305 1.734a.826.826 0 01-.594.267l-12.354.01a.936.936 0 01-.676-.294A1.022 1.022 0 011 20.54v-3.004c0-1.46.54-2.643 1.507-3.344.285-.206.685-.08.824.251l.334.794a.591.591 0 01-.153.671c-.513.447-.6 1.184-.6 1.628v2.003L13.3 19.53l-.001-.504-.001-.565-.001-.927c-.001-.93-.423-2.015-1.605-2.015l-.705.001c-4.135 0-7.498-3.518-7.498-7.843C3.489 5.054 5.515 3 8.103 3zm10.625 3.39c.529 0 .957.448.957 1v2.297h2.196c.528 0 .956.447.956 1 0 .552-.428 1-.956 1h-2.196v2.296c0 .553-.428 1-.957 1-.528 0-.956-.447-.956-1v-2.296h-2.195c-.53 0-.956-.448-.956-1 0-.553.427-1 .956-1h2.195V7.39c0-.552.428-1 .956-1zM8.103 5C6.563 5 5.4 6.15 5.4 7.677c0 2.163 1.07 4.016 2.697 5.027.973-.884 2.695-2.767 2.695-5.027A2.686 2.686 0 008.103 5z"/></svg>