<svg id="generic--user--user" xmlns="http://www.w3.org/2000/svg" viewBox="0 0 24 24"><path  d="M12 12.581c-1.91-1.107-3.167-3.17-3.167-5.58C8.833 5.29 10.192 4 11.996 4c1.737 0 3.15 1.346 3.15 3.001 0 2.53-2.038 4.627-3.146 5.58m7.998 6.32l-.002-1.174c-.003-2.479-1.649-4.278-3.915-4.278h-.803c-.398 0-.786-.034-1.163-.099 1.377-1.377 3.031-3.603 3.031-6.349 0-2.758-2.31-5.001-5.15-5.001-2.895 0-5.163 2.196-5.163 5.001 0 4.658 3.788 8.448 8.446 8.448h.803c1.32 0 1.913 1.145 1.914 2.279l.002 1.176.001 1.087L6 19.999V17.73c0-.556.105-1.643 1.158-2.203a.245.245 0 00.081-.354l-.671-.995a.505.505 0 00-.676-.152C4.683 14.748 4 16.071 4 17.73V21a1 1 0 001 1l13.996-.01c.268 0 .524-.11.713-.3.292-.293.292-.309.289-2.789"/></svg>