<svg id="generic--chart" xmlns="http://www.w3.org/2000/svg" viewBox="0 0 24 24"><path  d="M10.796 3.119c.674-.056 1.202.584 1.045 1.242-.098.41-.438.73-.858.763a7.553 7.553 0 00-4.767 2.174A7.516 7.516 0 004 12.647c0 2.3 1.019 4.443 2.843 5.915 2.642 2.13 6.51 2.19 9.232.163a7.516 7.516 0 003.009-5.363c.039-.417.307-.776.712-.886l.065-.018c.641-.175 1.279.337 1.224.999a9.51 9.51 0 01-2.755 5.955 9.539 9.539 0 01-6.764 2.797 9.535 9.535 0 01-6.764-2.797A9.503 9.503 0 012 12.647a9.5 9.5 0 012.802-6.763 9.596 9.596 0 015.994-2.765zm4.827-1.07a9.981 9.981 0 016.542 6.545l.127.407-.214.449a1.106 1.106 0 01-.673.53H21.4l-9.791 2.625L14.343 2.4l.422-.266c.262-.143.575-.174.858-.085zm.284 2.242l-1.47 5.486 5.487-1.47a7.884 7.884 0 00-1.641-2.376 7.887 7.887 0 00-2.376-1.64z"/></svg>