<svg id="generic--location" xmlns="http://www.w3.org/2000/svg" viewBox="0 0 24 24"><path  d="M6.13 3.016a8.29 8.29 0 017.002-1.863c4.123.798 7.11 4.696 6.947 9.067-.059 1.591-.46 3.037-1.193 4.296a67.908 67.908 0 01-4.092 6.071l-1.432-1.43a65.092 65.092 0 003.8-5.654c.561-.965.871-2.097.918-3.357.126-3.395-2.164-6.417-5.328-7.03a6.515 6.515 0 00-1.235-.12c-1.487 0-2.905.528-4.087 1.54a6.967 6.967 0 00-2.426 5.496c.044 1.217.418 2.534 1.111 3.916 1.89 3.046 4.56 5.773 5.86 7.018a.15.15 0 00.01-.013l1.425 1.425c-.32.403-.525.653-.557.691l-.657.795-.774-.68c-.06-.054-.594-.526-1.381-1.307l-.288-.288c-1.49-1.504-3.687-3.928-5.38-6.665-.869-1.719-1.314-3.314-1.368-4.82C2.91 7.422 4.077 4.772 6.13 3.016zm5.412 2.87a3.803 3.803 0 013.798 3.8 3.803 3.803 0 01-3.798 3.797 3.803 3.803 0 01-3.798-3.798 3.803 3.803 0 013.798-3.799zm0 2a1.8 1.8 0 00-1.798 1.8 1.8 1.8 0 001.798 1.797 1.8 1.8 0 001.798-1.798 1.8 1.8 0 00-1.798-1.799z"/></svg>