<svg id="generic--office" xmlns="http://www.w3.org/2000/svg" viewBox="0 0 24 24"><path  d="M18.122 2a1.74 1.74 0 011.739 1.738v16.848a1.74 1.74 0 01-1.739 1.739H5.739A1.74 1.74 0 014 20.586V3.738C4 2.779 4.78 2 5.739 2zm-.261 2H6v16.325h4.698v-4.781c0-.17.138-.307.307-.307h1.61c.169 0 .306.137.306.307v4.781h4.94V4zm-7.4 7.047c.17 0 .307.136.307.305v1.62a.308.308 0 01-.307.307h-1.62a.308.308 0 01-.306-.307v-1.62c0-.169.137-.305.306-.305zm4.536 0c.169 0 .306.136.306.305v1.62a.307.307 0 01-.306.307h-1.62a.308.308 0 01-.307-.307v-1.62c0-.169.138-.305.307-.305zM10.46 6.442c.17 0 .307.137.307.306v1.62a.308.308 0 01-.307.307h-1.62a.308.308 0 01-.306-.307v-1.62c0-.17.137-.306.306-.306zm4.536 0c.169 0 .306.137.306.306v1.62a.307.307 0 01-.306.307h-1.62a.308.308 0 01-.307-.307v-1.62c0-.17.138-.306.307-.306z"/></svg>