<svg id="generic--basket" xmlns="http://www.w3.org/2000/svg" viewBox="0 0 24 24"><path  fill-rule="evenodd" d="M14.884 2.197a1 1 0 011.399.207L18.959 6h1.448a1.72 1.72 0 011.718 1.716v4.413a1.72 1.72 0 01-1.658 1.718l-1.996 6.81a1.001 1.001 0 01-.96.718H5.613c-.444 0-.835-.294-.96-.718l-1.996-6.81A1.72 1.72 0 011 12.13V7.716C1 6.77 1.77 6 2.717 6h1.448l2.676-3.596a1 1 0 111.605 1.193L6.658 6h9.808l-1.788-2.404a1 1 0 01.206-1.399zM20.125 8H3v3.848h.406a1 1 0 01.959.718l1.997 6.809h10.4l1.996-6.809a1 1 0 01.96-.719h.407V8zm-3.946 3.744a1 1 0 110 2H6.946a1 1 0 110-2z"/></svg>