<svg id="generic--chart--alt" xmlns="http://www.w3.org/2000/svg" viewBox="0 0 24 24"><path  d="M19.748 2c1.095 0 1.986.891 1.986 1.987v16.126a1.988 1.988 0 01-1.986 1.986H3.986A1.988 1.988 0 012 20.113V3.987C2 2.891 2.891 2 3.986 2zm-.014 1.987L3.986 4 4 20.113l15.734-.014V3.987zM8.039 6.647c.181 0 .328.147.328.329V17.32a.326.326 0 01-.328.327H6.695a.327.327 0 01-.327-.327V6.976c0-.182.146-.328.327-.328zm4.5 2.7c.181 0 .328.148.328.329v7.645a.326.326 0 01-.328.327h-1.345a.327.327 0 01-.328-.327V9.676c0-.181.148-.328.329-.328zm4.5 3.6c.181 0 .327.147.327.329v4.045a.326.326 0 01-.326.327h-1.345a.327.327 0 01-.329-.327v-4.045c0-.182.148-.328.329-.328z"/></svg>