<svg id="generic--lightbulb" xmlns="http://www.w3.org/2000/svg" viewBox="0 0 24 24"><path  d="M16.075 7.598a6.248 6.248 0 012.32 4.869 6.21 6.21 0 01-1.618 4.179c-.492.542-.933 2.14-.983 3.15l-.005.183v.574a3.67 3.67 0 01-3.664 3.665 3.67 3.67 0 01-3.66-3.471l-.005-.194v-.576c0-.19-.017-.41-.049-.65-.146-1.102-.543-2.248-.924-2.664-1.355-1.482-1.904-3.477-1.504-5.472.48-2.402 2.407-4.352 4.795-4.853 1.891-.398 3.823.062 5.297 1.26zM13.79 20.097H10.46v.456c0 .918.747 1.665 1.665 1.665.87 0 1.585-.67 1.658-1.522l.006-.143v-.456zM12.134 8.196c-.31 0-.627.033-.945.099-1.616.339-2.92 1.66-3.246 3.288-.272 1.364.1 2.724 1.02 3.73.59.646.996 1.721 1.233 2.714l.061.269h3.737c.237-1.105.675-2.303 1.302-2.994a4.208 4.208 0 001.1-2.835 4.254 4.254 0 00-1.58-3.316 4.207 4.207 0 00-2.682-.955zm10.314 3.558a1 1 0 110 2h-1.325a1 1 0 110-2zm-19.123 0a1 1 0 110 2H2a1 1 0 110-2zM19.74 3.826a.999.999 0 111.414 1.414L19.51 6.884a.997.997 0 01-1.414 0 .999.999 0 010-1.414zm-16.644 0a1 1 0 011.414 0L6.154 5.47A.999.999 0 114.74 6.884L3.096 5.24a1 1 0 010-1.415zM12.126 1a1 1 0 011 1v1.325a1 1 0 11-2 0V2a1 1 0 011-1z"/></svg>