<svg id="generic--alert" xmlns="http://www.w3.org/2000/svg" viewBox="0 0 24 24"><path  d="M11.523 20.061a2.045 2.045 0 01-2.018-1.777h4.038a2.043 2.043 0 01-2.02 1.777m7.703-3.777h-.708c-.038-.045-.077-.089-.114-.135-1.202-1.458-1.673-3.479-1.298-5.551.206-1.142.092-2.34-.373-3.403-.836-1.915-2.461-3.002-4.21-3.304V2.473A.472.472 0 0012.051 2h-1.056a.472.472 0 00-.472.473V3.89c-1.75.302-3.375 1.39-4.208 3.309-.47 1.08-.567 2.293-.365 3.453a7.313 7.313 0 01-.179 3.364.205.205 0 00.195.268H7.59a.216.216 0 00.21-.162 9.335 9.335 0 00.093-3.963c-.311-1.641.499-3.313 2.125-4.074a3.592 3.592 0 013.011 0c1.626.762 2.435 2.433 2.124 4.074-.415 2.19-.064 4.351.942 6.125H3.571a.571.571 0 00-.571.572v.856c0 .316.256.572.571.572h3.931c.143 2.104 1.882 3.777 4.021 3.777 2.14 0 3.878-1.673 4.02-3.777h3.683a.82.82 0 00.82-.821v-.359a.82.82 0 00-.82-.82"/></svg>