<svg id="generic--branch" xmlns="http://www.w3.org/2000/svg" viewBox="0 0 24 24"><path  d="M17.336 3a3.585 3.585 0 013.582 3.581 3.587 3.587 0 01-2.581 3.439v1.202c0 1.217-.99 2.206-2.208 2.206l-8.548-.001.001 1.327a3.588 3.588 0 012.581 3.44 3.585 3.585 0 01-3.582 3.58A3.585 3.585 0 013 18.194a3.587 3.587 0 012.581-3.44V10.02A3.587 3.587 0 013 6.581 3.585 3.585 0 016.581 3a3.585 3.585 0 013.582 3.581 3.587 3.587 0 01-2.581 3.439l-.001 1.407h8.548a.207.207 0 00.207-.205V10.02a3.587 3.587 0 01-2.581-3.439A3.585 3.585 0 0117.335 3zM6.58 16.611a1.582 1.582 0 101.582 1.582c0-.872-.71-1.582-1.582-1.582zM6.581 5C5.709 5 5 5.709 5 6.581a1.582 1.582 0 003.163 0C8.163 5.709 7.453 5 6.581 5zm10.755 0c-.872 0-1.581.709-1.581 1.581a1.582 1.582 0 003.163 0c0-.872-.71-1.581-1.582-1.581z"/></svg>