<svg id="generic--pin" xmlns="http://www.w3.org/2000/svg" viewBox="0 0 24 24"><path  d="M17.4 15.984l2.684 2.685a.999.999 0 11-1.414 1.414l-2.685-2.685 1.415-1.414zM6.945 3.526a1.796 1.796 0 011.94-.396 1.774 1.774 0 011.122 1.604c.005.162 0 .325-.014.49l3.582 3.582a5.75 5.75 0 014.95 1.594c.272.273.517.573.73.894a1 1 0 01-.127 1.26l-6.576 6.575a.999.999 0 01-1.259.126 5.691 5.691 0 01-.894-.731 5.748 5.748 0 01-1.593-4.948L5.223 9.994a4.214 4.214 0 01-.488.015A1.78 1.78 0 013.13 8.887a1.798 1.798 0 01.397-1.941zm1.017 1.813L5.338 7.963l.042-.01a1.002 1.002 0 01.905.273l4.317 4.318a1 1 0 01.26.963c-.343 1.297 0 2.627.916 3.568l5.296-5.296c-.94-.916-2.27-1.261-3.568-.917a1.001 1.001 0 01-.963-.26L8.226 6.286a1.001 1.001 0 01-.273-.907l.01-.04z"/></svg>