<svg id="generic--checklist" xmlns="http://www.w3.org/2000/svg" viewBox="0 0 24 24"><path  d="M5.186 16.925a.8.8 0 01.8.8v1.26a.8.8 0 01-.8.8H3.925a.8.8 0 01-.8-.8v-1.26a.8.8 0 01.8-.8h1.261zm15.908.43a1 1 0 110 2H10.146a1 1 0 110-2zM5.186 11.549a.8.8 0 01.8.8v1.26a.8.8 0 01-.8.8H3.925a.8.8 0 01-.8-.8v-1.26a.8.8 0 01.8-.8h1.261zm15.908.43a1 1 0 110 2H10.146a1 1 0 110-2zM8.517 4.293a1 1 0 010 1.414L4.604 9.62 2.292 7.31a1 1 0 011.416-1.415l.896.897 2.5-2.499a.999.999 0 011.413 0zm12.577 2.31a1 1 0 010 2H10.646a1 1 0 110-2z"/></svg>