<svg id="navigation--scroll--down" xmlns="http://www.w3.org/2000/svg" viewBox="0 0 24 24"><path  d="M15.357 27.24c.18-.07.39-.033.535.112l.707.707a.5.5 0 010 .707l-4.245 4.246a.502.502 0 01-.707 0L7.4 28.766a.499.499 0 010-.707l.707-.707a.498.498 0 01.535-.111l3.004 3.004a.5.5 0 00.707 0zM13.209 0a6.79 6.79 0 016.787 6.552L20 6.79v10.419a6.79 6.79 0 01-6.552 6.787l-.239.004H10.79a6.79 6.79 0 01-6.786-6.553L4 17.21V6.79A6.79 6.79 0 0110.552.004L10.79 0h2.42zm0 2H10.79a4.795 4.795 0 00-4.785 4.577L6 6.79v10.419a4.796 4.796 0 004.577 4.786l.213.005h2.42a4.797 4.797 0 004.786-4.578L18 17.21V6.79A4.795 4.795 0 0013.21 2zM12 4.512a1 1 0 01.994.883l.006.117V7.86a1 1 0 01-1.993.116L11 7.861V5.51a1 1 0 011-1z"/></svg>