<svg id="navigation--scroll--up" xmlns="http://www.w3.org/2000/svg" viewBox="0 0 24 24"><path  d="M13.21 0a6.79 6.79 0 016.786 6.552L20 6.79v10.42a6.79 6.79 0 01-6.552 6.786l-.239.004H10.79a6.79 6.79 0 01-6.786-6.552L4 17.209V6.79A6.79 6.79 0 0110.552.004L10.79 0h2.42zm0 2h-2.42a4.795 4.795 0 00-4.785 4.577L6 6.79v10.42a4.796 4.796 0 004.577 4.786l.213.004h2.42a4.797 4.797 0 004.786-4.578L18 17.21V6.79A4.795 4.795 0 0013.21 2zM12 4.512a1 1 0 01.994.883l.006.117v2.349a1 1 0 01-1.993.117L11 7.86V5.512a1 1 0 011-1zm-.355-13.16a.502.502 0 01.707 0l4.246 4.246a.499.499 0 010 .707l-.707.707a.498.498 0 01-.535.11L12.352-5.88a.5.5 0 00-.707 0L8.642-2.877a.498.498 0 01-.535-.111L7.4-3.695a.5.5 0 010-.707z"/></svg>