<svg id="socials--snapchat" xmlns="http://www.w3.org/2000/svg" viewBox="0 0 24 24"><path  fill-rule="evenodd" d="M21.8 16.73v-.004c-.004-.004-.01-.004-.018-.013h-.004c-.24-.146-.483-.169-.635-.222-.005 0-.009 0-.009-.004-1.038-.315-1.934-.998-2.605-1.83a5.735 5.735 0 01-.893-1.503v-.009c-.082-.23-.087-.488.033-.642 0 0 .005 0 .005-.005.189-.257.533-.421.896-.55h.005c.409-.137.85-.292 1.213-.602.004 0 .004-.005.009-.005a.687.687 0 00.174-.217c.01-.022.023-.05.028-.08a.413.413 0 00-.023-.306v-.004c-.106-.204-.285-.315-.422-.39h-.005a.905.905 0 00-.727-.062h-.005c-.247.071-.454.16-.642.182-.005 0-.01 0-.014.005-.267.043-.529.053-.731-.019-.005-.027-.005-.084-.013-.155h.003c-.017-.425.024-.863.028-1.32V8.97c.024-.691.05-1.4-.055-2.119v-.008C17.16 5.632 16.354 4.59 15.334 3.9c-.74-.506-1.622-.785-2.518-.865A10.337 10.337 0 0011.91 3c-1.21.009-2.464.315-3.442 1.055a5.378 5.378 0 00-1.678 2.11v.004c-.349.842-.317 1.742-.271 2.575.027.585.096 1.152.041 1.693-.004.018-.004.027-.01.035-.27.05-.569.031-.863-.022h-.005c-.202-.03-.418-.11-.66-.177-.006 0-.01 0-.015-.005a.812.812 0 00-.643.143c-.005 0-.01 0-.01.003-.005.005-.009.005-.009.01-.148.088-.344.244-.354.509-.005.019 0 .032 0 .05.005 0 0 .003.005.003.027.155.129.271.22.346.093.076.175.124.225.164.005 0 .01.004.015.01.44.283.927.407 1.355.567.294.124.547.315.607.558.073.306-.065.66-.24 1.002v.005a6.24 6.24 0 01-2.058 2.273 5.02 5.02 0 01-1.512.664c-.005 0-.014.005-.023.01-.11.04-.372.062-.537.301a.373.373 0 00-.028.058c-.056.15.009.314.087.407a.708.708 0 00.23.173c.005 0 .009.004.013.004.45.253.947.36 1.397.47.005 0 .005.005.005.005.326.066.63.106.873.208.01.018.037.097.092.23.083.24.12.519.212.816.027.08.1.146.188.164.206.044.317-.022.336-.026h.027c.754-.128 1.512-.24 2.206-.075.726.185 1.36.668 2.073 1.08v.006c.473.283 1.02.562 1.654.584h.005c.478.026.942-.004 1.401-.031h.01a2.627 2.627 0 001.116-.372c.75-.412 1.412-.904 2.142-1.214h.004c.235-.08.534-.077.86-.098h.01c.606-.018 1.208.013 1.81.089a.126.126 0 00.06 0 .354.354 0 00.207-.111c.045-.049.055-.094.064-.125.018-.057.033-.084.005-.035.008-.018.018-.03.023-.05.11-.35.17-.664.348-.858.079-.076.217-.112.373-.112h.032c.524-.057.992-.24 1.438-.39.005-.004.015-.004.019-.004.165-.07.414-.15.584-.377v-.004a.39.39 0 00-.124-.567"/></svg>