<svg id="socials--app--store" xmlns="http://www.w3.org/2000/svg" viewBox="0 0 120 40"><path  fill-rule="evenodd" d="M113.065 0c3.922 0 7.112 3.191 7.112 7.113v26.464c0 3.922-3.19 7.113-7.112 7.113H7.113C3.191 40.69 0 37.5 0 33.577V7.113C0 3.191 3.191 0 7.113 0h105.952zm0 1H7.113A6.12 6.12 0 001 7.113v26.464a6.12 6.12 0 006.113 6.113h105.952a6.12 6.12 0 006.112-6.113V7.113A6.12 6.12 0 00113.065 1zM61.488 21.545c2.298 0 3.813 1.816 3.813 4.622 0 2.814-1.506 4.621-3.779 4.621a3.069 3.069 0 01-2.848-1.584h-.043v4.485h-1.859V21.64h1.799v1.506h.034a3.213 3.213 0 012.883-1.6zm-9.964 0c2.298 0 3.812 1.816 3.812 4.622 0 2.813-1.506 4.621-3.778 4.621a3.07 3.07 0 01-2.85-1.584h-.042v4.484h-1.858V21.64h1.799v1.506h.034a3.213 3.213 0 012.883-1.6zm23.305-3.476c2.625 0 4.424 1.471 4.484 3.614h-1.876c-.112-1.239-1.136-1.987-2.634-1.987-1.497 0-2.521.756-2.521 1.858 0 .878.654 1.395 2.255 1.79l1.368.336c2.548.603 3.605 1.626 3.605 3.442 0 2.324-1.85 3.78-4.792 3.78-2.754 0-4.614-1.422-4.734-3.668h1.902c.138 1.231 1.334 2.04 2.969 2.04 1.567 0 2.694-.809 2.694-1.919 0-.964-.68-1.54-2.29-1.937l-1.61-.387c-2.28-.55-3.338-1.618-3.338-3.348 0-2.143 1.867-3.614 4.518-3.614zm30.755 3.46c2.505 0 4.08 1.721 4.08 4.466v.636h-6.395v.113a2.358 2.358 0 002.436 2.564 2.05 2.05 0 002.09-1.273h1.765c-.25 1.643-1.85 2.771-3.898 2.771-2.634 0-4.27-1.764-4.27-4.596 0-2.839 1.645-4.681 4.192-4.681zm-15.05 0c2.626 0 4.296 1.79 4.296 4.639 0 2.856-1.661 4.638-4.295 4.638-2.633 0-4.294-1.782-4.294-4.638 0-2.849 1.678-4.639 4.294-4.639zm-7.011-2.031v2.143h1.722v1.47h-1.722v4.992c0 .776.345 1.137 1.102 1.137.204-.004.408-.018.61-.043v1.463c-.34.064-.686.092-1.031.086-1.833 0-2.548-.688-2.548-2.444v-5.19h-1.317V21.64h1.317v-2.143h1.867zm16.832 2.047c.214 0 .427.023.636.07v1.738a2.564 2.564 0 00-.835-.112 1.872 1.872 0 00-1.936 2.083v5.37h-1.858V21.64h1.772v1.541h.043a2.16 2.16 0 012.178-1.636zm-59.185-3.27l4.483 12.419h-2.039l-1.136-3.356h-4.733l-1.137 3.356h-2.005l4.484-12.418h2.083zm-17.972-4.768l.275.018a5.273 5.273 0 014.151 2.244 5.148 5.148 0 00-2.45 4.318 4.974 4.974 0 003.035 4.575 11.446 11.446 0 01-1.579 3.216c-.93 1.391-1.905 2.751-3.453 2.775-1.504.035-2.009-.885-3.734-.885-1.742 0-2.28.861-3.723.92-1.474.055-2.6-1.485-3.564-2.863-1.926-2.815-3.426-7.932-1.416-11.414a5.528 5.528 0 014.652-2.837c1.475-.03 2.845.996 3.752.996.89 0 2.583-1.228 4.33-1.045zm67.337 9.553c-1.506 0-2.401 1.162-2.401 3.108 0 1.961.895 3.106 2.4 3.106 1.507 0 2.402-1.145 2.402-3.106 0-1.955-.895-3.108-2.401-3.108zm-39.502.07c-1.42 0-2.375 1.23-2.375 3.038 0 1.823.955 3.046 2.375 3.046 1.446 0 2.393-1.197 2.393-3.046 0-1.834-.947-3.038-2.393-3.038zm9.965 0c-1.42 0-2.375 1.23-2.375 3.037 0 1.824.955 3.046 2.375 3.046 1.445 0 2.393-1.196 2.393-3.046 0-1.833-.948-3.038-2.393-3.038zm-20.86-2.788h-.052l-1.85 5.447h3.751l-1.85-5.447zm65.53 2.693h-.084a2.292 2.292 0 00-2.306 2.278v.02h4.526a2.175 2.175 0 00-2.052-2.295c-.056-.003-.113-.004-.168-.003zm-2.685-12.73c1.253 0 2.009.857 2.009 2.27v.31h-3.18v.05a1.19 1.19 0 001.086 1.286c.038.004.075.005.113.004.435.053.859-.163 1.072-.546h.855a1.829 1.829 0 01-1.951 1.304 2.047 2.047 0 01-2.08-2.325 2.075 2.075 0 012.076-2.352zm-39.668.01a2.134 2.134 0 012.328 2.327 2.134 2.134 0 11-4.248 0 2.134 2.134 0 011.92-2.327zm-19.538 0a2.134 2.134 0 012.327 2.327 2.133 2.133 0 11-4.247 0 2.134 2.134 0 011.92-2.327zm37.55 0a2.133 2.133 0 012.327 2.327 2.133 2.133 0 11-4.247 0 2.134 2.134 0 011.92-2.327zm-12.736-.01c1.13 0 1.766.562 1.766 1.514v3.076h-.856v-.633h-.07a1.516 1.516 0 01-1.353.707 1.36 1.36 0 01-1.5-1.347c0-.81.603-1.278 1.674-1.344l1.22-.07v-.389c0-.476-.314-.745-.922-.745-.496 0-.84.183-.938.501h-.86c.09-.774.818-1.27 1.84-1.27zm7.139-1.67v6.26h-.852v-.71h-.07a1.564 1.564 0 01-1.414.785c-1.145 0-1.869-.902-1.869-2.328 0-1.423.731-2.324 1.869-2.324a1.484 1.484 0 011.381.79h.066V8.635h.889zm17.962.637v1.14h.975v.75h-.975v2.315c0 .472.194.679.636.679a3.18 3.18 0 00.34-.021v.74a2.894 2.894 0 01-.484.046c-.988 0-1.382-.348-1.382-1.216v-2.543h-.715v-.75h.715v-1.14h.89zm-55.689-.343a2.638 2.638 0 012.807 2.965c0 1.906-1.03 3.002-2.807 3.002h-2.156V8.929zm9.644 1.464l.807 3.436h.066l.926-3.436h.852l.926 3.436h.071l.802-3.436h.89l-1.237 4.503h-.922l-.93-3.316h-.07l-.928 3.316h-.913l-1.24-4.503h.9zM60.16 8.635v6.261h-.889V8.635h.889zm26.822 1.667l.131.004a1.463 1.463 0 011.558 1.674v2.915h-.888v-2.692c0-.723-.315-1.083-.972-1.083a1.033 1.033 0 00-1.075 1.141v2.634h-.889v-4.503h.856v.716h.066a1.347 1.347 0 011.344-.802zm9.781-1.667v2.482h.07a1.387 1.387 0 011.374-.807 1.482 1.482 0 011.55 1.679v2.907h-.889v-2.688c0-.72-.335-1.084-.963-1.084a1.052 1.052 0 00-1.134 1.142v2.63h-.889V8.635h.881zm-40.598 1.667l.132.004a1.463 1.463 0 011.559 1.674v2.915h-.89v-2.69c0-.725-.313-1.085-.971-1.085a1.031 1.031 0 00-1.075 1.141v2.634h-.89v-4.502h.857v.715h.066a1.347 1.347 0 011.344-.802zm13.308 2.56l-1.1.07c-.62.04-.9.251-.9.648 0 .406.351.641.834.641a1.062 1.062 0 001.163-.949l.003-.035v-.376zm-5.952-1.767c-.773 0-1.208.571-1.208 1.547 0 .984.436 1.55 1.208 1.55.77 0 1.208-.57 1.208-1.55 0-.976-.438-1.547-1.208-1.547zm-19.538 0c-.772 0-1.207.571-1.207 1.547 0 .984.435 1.55 1.207 1.55.77 0 1.208-.57 1.208-1.55 0-.976-.438-1.547-1.208-1.547zm37.55 0c-.772 0-1.207.571-1.207 1.547 0 .984.435 1.55 1.207 1.55.77 0 1.208-.57 1.208-1.55 0-.976-.438-1.547-1.208-1.547zm-7.886.021c-.748 0-1.203.58-1.203 1.526 0 .955.45 1.53 1.203 1.53.749 0 1.212-.583 1.212-1.526 0-.939-.468-1.53-1.212-1.53zM38.02 9.77l-.12.003h-1.126v4.28H37.9a1.875 1.875 0 001.968-2.146A1.881 1.881 0 0037.9 9.772zM23.492 8.044a5.065 5.065 0 01-1.16 3.63 4.261 4.261 0 01-3.364 1.591 4.814 4.814 0 011.189-3.495 5.153 5.153 0 013.335-1.726zm79.539 3.018h-.053a1.152 1.152 0 00-1.166 1.137v.03h2.274a1.086 1.086 0 00-1.003-1.164c-.035-.003-.07-.004-.105-.003z"/></svg>