<svg id="socials--dribble" xmlns="http://www.w3.org/2000/svg" viewBox="0 0 24 24"><path  fill-rule="evenodd" d="M14.319 11.473c-.204-.47-.414-.937-.64-1.4 1.925-.833 3.471-1.965 4.624-3.4a8.227 8.227 0 011.935 4.861c-2.146-.351-4.12-.37-5.92-.06m2.268 7.392a34.4 34.4 0 00-1.6-5.747c1.562-.22 3.283-.164 5.165.164a8.263 8.263 0 01-3.565 5.583m-4.587 1.395a8.21 8.21 0 01-5.069-1.752c1.641-2.575 3.736-4.25 6.331-5.023a32.7 32.7 0 011.704 6.216 8.186 8.186 0 01-2.966.559m-8.26-8.262c0-.071.01-.14.011-.212 3.207-.005 5.974-.373 8.292-1.102.194.395.38.793.557 1.193-2.814.88-5.136 2.685-6.947 5.4a8.224 8.224 0 01-1.913-5.279m4.534-7.362a37.08 37.08 0 012.947 4.485c-2.025.596-4.442.903-7.237.922a8.287 8.287 0 014.29-5.407M12 3.74c1.897 0 3.641.649 5.037 1.727-1.003 1.295-2.39 2.319-4.156 3.066a38.462 38.462 0 00-2.906-4.53A8.214 8.214 0 0112 3.738M12 2C6.477 2 2 6.477 2 12s4.477 10 10 10 10-4.477 10-10S17.523 2 12 2"/></svg>