<svg id="view--reduce--alt" xmlns="http://www.w3.org/2000/svg" viewBox="0 0 24 24"><path  d="M8.807 15.767a.5.5 0 01.5.5v6.004a.5.5 0 01-.5.5h-1a.5.5 0 01-.5-.5v-3.093l-.003.002v-.911a.5.5 0 00-.5-.5h-.917l.002-.002H2.803a.5.5 0 01-.5-.5v-1a.5.5 0 01.5-.5zm13.004 0a.5.5 0 01.5.5v1a.5.5 0 01-.5.5h-3.093l.002.002h-.911a.5.5 0 00-.5.5v.918l-.002-.002v3.086a.5.5 0 01-.5.5h-1a.5.5 0 01-.5-.5v-6.004a.5.5 0 01.5-.5zM8.504 2a.5.5 0 01.5.5v6.004a.5.5 0 01-.5.5H2.5a.5.5 0 01-.5-.5v-1a.5.5 0 01.5-.5h3.093l-.002-.002h.911a.5.5 0 00.5-.5v-.917l.002.002V2.5a.5.5 0 01.5-.5zm8 0a.5.5 0 01.5.5v3.094l.002-.002v.91a.5.5 0 00.5.5h.918l-.002.002h3.086a.5.5 0 01.5.5v1a.5.5 0 01-.5.5h-6.004a.5.5 0 01-.5-.5V2.5a.5.5 0 01.5-.5z"/></svg>