<svg id="view--visibility--on" xmlns="http://www.w3.org/2000/svg" viewBox="0 0 24 24"><path  d="M2.474 13.15a1 1 0 011.376.323c1.83 2.952 4.986 4.715 8.447 4.715 3.461 0 6.618-1.763 8.446-4.714a1 1 0 111.7 1.053c-2.195 3.545-5.988 5.661-10.146 5.661s-7.95-2.116-10.147-5.662a1 1 0 01.324-1.377zm9.822-5.506a4.456 4.456 0 014.451 4.45 4.456 4.456 0 01-4.45 4.452 4.456 4.456 0 01-4.452-4.451 4.456 4.456 0 014.451-4.451zm0 2a2.453 2.453 0 00-2.45 2.45 2.453 2.453 0 002.45 2.452 2.454 2.454 0 002.451-2.451c0-1.352-1.1-2.451-2.45-2.451zm0-5.644c4.158 0 7.951 2.116 10.147 5.662a1 1 0 11-1.7 1.053C18.914 7.763 15.757 6 12.296 6 8.836 6 5.68 7.763 3.85 10.714a1 1 0 11-1.7-1.053C4.346 6.116 8.14 4 12.296 4z"/></svg>