<svg id="view--tiles" xmlns="http://www.w3.org/2000/svg" viewBox="0 0 24 24"><path  d="M10.734 12.96v7.169c0 .863-.702 1.564-1.565 1.564H3.564A1.565 1.565 0 012 20.129v-5.605c0-.862.701-1.564 1.564-1.564h7.17zm9.67 0c.862 0 1.565.702 1.565 1.564v5.605c0 .863-.703 1.564-1.565 1.564h-5.605a1.565 1.565 0 01-1.564-1.564V12.96zM8.897 14.795h-5.06v5.061h5.06v-5.061zm11.235 0h-5.06v5.061h5.06v-5.061zM9.169 2c.863 0 1.565.702 1.565 1.565v7.169h-7.17A1.565 1.565 0 012 9.17V3.565C2 2.702 2.701 2 3.564 2zm11.235 0c.862 0 1.565.702 1.565 1.565V9.17c0 .863-.703 1.564-1.565 1.564h-7.169V3.565c0-.863.701-1.565 1.564-1.565zM8.897 3.836h-5.06v5.061h5.06V3.836zm11.235 0h-5.06v5.061h5.06V3.836z"/></svg>