<svg id="view--full--screen--alt" xmlns="http://www.w3.org/2000/svg" viewBox="0 0 24 24"><path  d="M3.802 15.767a.5.5 0 01.5.5v3.094l.003-.002v.91a.5.5 0 00.5.5h.917l-.002.002h3.086a.5.5 0 01.5.5v1a.5.5 0 01-.5.5H2.802a.5.5 0 01-.5-.5v-6.004a.5.5 0 01.5-.5zm18.009 0a.5.5 0 01.5.5v6.004a.5.5 0 01-.5.5h-6.004a.5.5 0 01-.5-.5v-1a.5.5 0 01.5-.5H18.9l-.002-.002h.91a.5.5 0 00.5-.5v-.918l.003.003v-3.087a.5.5 0 01.5-.5zM21.508 2a.5.5 0 01.5.5v6.004a.5.5 0 01-.5.5h-1a.5.5 0 01-.5-.5V5.411l-.002.002v-.91a.5.5 0 00-.5-.5h-.918L18.59 4h-3.086a.5.5 0 01-.5-.5v-1a.5.5 0 01.5-.5zM8.504 2a.5.5 0 01.5.5v1a.5.5 0 01-.5.5H5.411l.002.003h-.911a.5.5 0 00-.5.5v.917L4 5.418v3.086a.5.5 0 01-.5.5h-1a.5.5 0 01-.5-.5V2.5a.5.5 0 01.5-.5z"/></svg>