<svg id="view--grid" xmlns="http://www.w3.org/2000/svg" viewBox="0 0 24 24"><path  d="M5.668 16.462c.635 0 1.149.513 1.149 1.148v2.519a1.15 1.15 0 01-1.149 1.149H3.15A1.15 1.15 0 012 20.128V17.61c0-.635.515-1.148 1.15-1.148h2.518zm7.478 0c.635 0 1.15.513 1.15 1.148v2.519a1.15 1.15 0 01-1.15 1.149h-2.519a1.149 1.149 0 01-1.148-1.15V17.61c0-.635.514-1.148 1.149-1.148h2.518zm7.479 0c.634 0 1.149.513 1.149 1.148v2.519a1.15 1.15 0 01-1.149 1.149h-2.519a1.149 1.149 0 01-1.148-1.15V17.61c0-.635.514-1.148 1.148-1.148h2.519zM5.668 9.23c.635 0 1.149.514 1.149 1.15v2.518a1.15 1.15 0 01-1.149 1.15H3.15A1.15 1.15 0 012 12.897V10.38a1.15 1.15 0 011.15-1.15h2.518zm7.478 0c.635 0 1.15.514 1.15 1.15v2.518a1.15 1.15 0 01-1.15 1.15h-2.519a1.149 1.149 0 01-1.148-1.15V10.38c0-.636.514-1.15 1.149-1.15h2.518zm7.479 0a1.15 1.15 0 011.149 1.15v2.518a1.15 1.15 0 01-1.149 1.15h-2.519a1.149 1.149 0 01-1.148-1.15V10.38c0-.636.514-1.15 1.148-1.15h2.519zM5.668 2c.635 0 1.149.514 1.149 1.149v2.519c0 .634-.514 1.148-1.149 1.148H3.15A1.15 1.15 0 012 5.668V3.149A1.15 1.15 0 013.15 2h2.518zm7.478 0c.635 0 1.15.514 1.15 1.149v2.519c0 .634-.514 1.148-1.15 1.148h-2.519A1.148 1.148 0 019.48 5.668V3.149C9.48 2.514 9.993 2 10.628 2h2.518zm7.479 0a1.15 1.15 0 011.149 1.149v2.519c0 .634-.515 1.148-1.149 1.148h-2.519a1.148 1.148 0 01-1.148-1.148V3.149c0-.635.514-1.149 1.148-1.149h2.519z"/></svg>