<svg id="view--visibility--off" xmlns="http://www.w3.org/2000/svg" viewBox="0 0 24 24"><path  d="M3.606 3.292a1 1 0 011.414 0l17 17a1 1 0 01-1.414 1.414l-2.49-2.488a11.876 11.876 0 01-5.82 1.518c-4.156 0-7.95-2.117-10.145-5.662a1 1 0 111.7-1.053c1.828 2.953 4.986 4.715 8.446 4.715a9.84 9.84 0 004.334-1.003l-1.64-1.64a4.415 4.415 0 01-2.694.922 4.457 4.457 0 01-4.452-4.452c0-1.014.348-1.946.922-2.695L6.992 8.092a9.916 9.916 0 00-3.141 3.17.997.997 0 01-1.377.322.998.998 0 01-.323-1.375 11.9 11.9 0 013.403-3.553l-1.948-1.95a.999.999 0 010-1.414zm17.137 10.73a1 1 0 111.7 1.053c-.334.54-.713 1.038-1.12 1.505a.683.683 0 01-.996.02l-.442-.442a.691.691 0 01-.022-.945c.32-.37.616-.765.88-1.191zm-10.536-2.715a2.405 2.405 0 00-.362 1.256c0 1.351 1.1 2.451 2.452 2.451.462 0 .888-.136 1.255-.36zm2.09-3.195a4.456 4.456 0 014.45 4.451c0 .048-.003.095-.007.14l-.034.276-4.825-4.825.275-.034zm0-3.564c4.158 0 7.95 2.116 10.146 5.662a1 1 0 11-1.7 1.053c-1.828-2.952-4.986-4.715-8.446-4.715-.451 0-.894.04-1.331.104a1.009 1.009 0 01-.864-.277l-.87-.87c-.187-.187-.104-.516.153-.582a11.782 11.782 0 012.912-.375z"/></svg>