<svg id="view--full--screen" xmlns="http://www.w3.org/2000/svg" viewBox="0 0 24 24"><path  d="M14.29 14.293a.999.999 0 011.415 0l4.298 4.297v-3.086a.5.5 0 01.5-.5h1a.5.5 0 01.5.5v6.004a.5.5 0 01-.5.5H15.5a.5.5 0 01-.5-.5v-1a.5.5 0 01.5-.5h3.094l-4.303-4.301a.997.997 0 010-1.414zm-5.998.006a.999.999 0 111.414 1.414l-4.289 4.29h3.086a.5.5 0 01.5.5v1a.5.5 0 01-.5.5H2.5a.5.5 0 01-.5-.5V15.5a.5.5 0 01.5-.5h1a.5.5 0 01.5.5v3.093zM21.507 2.004a.5.5 0 01.5.5v6.004a.5.5 0 01-.5.5h-1a.5.5 0 01-.5-.5V5.414l-4.3 4.303a.997.997 0 01-1.415 0 1 1 0 010-1.414l4.298-4.3h-3.087a.5.5 0 01-.5-.5v-1a.5.5 0 01.5-.5zM8.507 2a.5.5 0 01.5.5v1a.5.5 0 01-.5.5H5.414l4.294 4.292a.999.999 0 11-1.414 1.414l-4.29-4.289v3.087a.5.5 0 01-.5.5h-1a.5.5 0 01-.5-.5V2.5a.5.5 0 01.5-.5z"/></svg>