<svg id="view--tile" xmlns="http://www.w3.org/2000/svg" viewBox="0 0 24 24"><path  d="M6.98 3c.274 0 .496.222.496.496v1.98h9.198v-1.98c0-.274.222-.496.496-.496h1.007c.274 0 .497.222.497.496v1.98h1.98c.273 0 .496.223.496.496V6.98a.497.497 0 01-.496.496h-1.98v9.197h1.98c.273 0 .496.223.496.497v1.007a.497.497 0 01-.496.496h-1.98v1.981a.497.497 0 01-.497.496H17.17a.497.497 0 01-.496-.496v-1.981H7.476v1.981a.497.497 0 01-.496.496H5.972a.497.497 0 01-.496-.496v-1.981h-1.98A.496.496 0 013 18.177V17.17c0-.274.222-.497.496-.497h1.98V7.476h-1.98A.496.496 0 013 6.98V5.972c0-.273.222-.496.496-.496h1.98v-1.98c0-.274.222-.496.496-.496zm9.694 4.476H7.476v9.197h9.198V7.476z"/></svg>