<svg id="background--connecting" xmlns="http://www.w3.org/2000/svg" viewBox="0 0 1424 1024"><path fill="var(--color-primary-50)" d="M.16 1023.28V.21h1423.15v1023.07" class="e"/><path fill="var(--color-primary-200)" d="M383.39 723.13c-3.26 0-5.91-2.65-5.91-5.91 0-1.32.43-2.58 1.25-3.63l.34-.44 8.47 8.31-.43.35a5.93 5.93 0 01-3.72 1.32zm-4.2-8.46c-.47.77-.72 1.64-.72 2.55 0 2.71 2.2 4.91 4.91 4.91.95 0 1.85-.26 2.63-.77l-6.83-6.69z" class="h"/><path fill="var(--color-primary-400)" d="M509.96 936.63l-8.83 57.03c-1.13.49-4.71 1.3-11.22 1.47-.73.02-1.47.03-2.22.03-7.22 0-11.84-.86-13.33-1.45v-1.21h-.41l-6.69-43.21-1.96-12.66h44.66m.31-2h-45.29c-1.06 0-1.87.95-1.71 2l2.01 12.97 6.95 44.91h.12c0 1.47 6.87 2.66 15.33 2.66.77 0 1.53-.01 2.28-.03 7.39-.19 13.06-1.3 13.06-2.63l8.96-57.87c.16-1.05-.65-2-1.71-2zM395.65 545.69c-5.82 0-11.47-1.86-16.23-5.4-12.06-8.98-14.57-26.09-5.59-38.14 4.35-5.84 10.71-9.64 17.91-10.69 7.2-1.06 14.39.76 20.23 5.11 5.84 4.35 9.64 10.71 10.7 17.92 1.06 7.2-.76 14.39-5.1 20.23-4.35 5.84-10.71 9.64-17.91 10.69-1.34.2-2.68.29-4 .29zm.09-52.53c-1.23 0-2.47.09-3.71.27-6.68.98-12.57 4.49-16.6 9.91-8.32 11.17-5.99 27.02 5.18 35.34 5.41 4.03 12.07 5.71 18.75 4.73 6.68-.98 12.57-4.5 16.6-9.91 4.03-5.41 5.71-12.07 4.73-18.74-.98-6.68-4.5-12.57-9.91-16.6-4.41-3.28-9.64-5.01-15.04-5.01z" class="g"/><path fill="var(--color-primary-200)" d="M395.66 540.56c-4.73 0-9.31-1.51-13.18-4.39-9.79-7.29-11.83-21.18-4.54-30.97 3.53-4.74 8.7-7.82 14.54-8.68 5.86-.86 11.68.62 16.43 4.15 4.74 3.53 7.83 8.7 8.69 14.55s-.61 11.68-4.14 16.42c-3.53 4.74-8.7 7.82-14.54 8.68-1.09.16-2.17.24-3.25.24zm.08-43.27c-1.03 0-2.07.08-3.1.23-5.59.82-10.52 3.76-13.89 8.29-6.96 9.35-5.01 22.61 4.34 29.57 4.53 3.37 10.11 4.78 15.68 3.96 5.59-.82 10.52-3.76 13.89-8.29 3.37-4.53 4.78-10.1 3.96-15.68-.82-5.58-3.76-10.52-8.29-13.89-3.69-2.75-8.07-4.19-12.58-4.19z" class="h"/><path fill="var(--color-primary-200)" d="M384.76 521.43l-.14-1.05.25-.03 16.51-2.17.14 1.05-.25.03-16.51 2.17zm.42-.62v.06l15.77-2.07v-.06l-15.77 2.07z" class="i"/><path fill="var(--color-primary-200)" d="M384.59 521.66l-.19-1.45.45-.06 16.71-2.19.19 1.45-.45.06-16.71 2.19zm.26-1.1l.09.66 16.36-2.15-.09-.66-16.36 2.15zm.17.54l-.06-.46.2-.03 15.96-2.1.06.46-.2.03-15.96 2.1z" class="i"/><path fill="var(--color-primary-200)" d="M397.33 523.68l-5.23-22.46 1.03-.24 5.23 22.47-1.03.24zm-4.62-22.09l5 21.49h.06l-5-21.5h-.06z" class="i"/><path fill="var(--color-primary-200)" d="M397.18 523.92l-.04-.2-5.27-22.66 1.42-.33.04.19 5.27 22.66-1.42.33zm-4.84-22.55l5.13 22.07.64-.15-5.13-22.08-.64.15zm5.21 21.95l-.04-.19-5.04-21.69.45-.1.04.19 5.04 21.69-.45.1z" class="i"/><path fill="var(--color-primary-200)" d="M398.05 517.78c.85.64 1.03 1.84.4 2.7a1.93 1.93 0 01-2.7.39 1.94 1.94 0 01-.4-2.7 1.93 1.93 0 012.7-.39zM380.82 782.72h-14.57l-2.37-24.59h19.31l-2.37 24.59zm-13.21-1.5h11.84l2.08-21.59h-16l2.08 21.59z" class="h"/><path fill="var(--color-primary-200)" d="M383.12 759.54h-19.17c-.22 0-.43-.1-.57-.26a.788.788 0 01-.17-.61l.53-3.28c.06-.36.37-.63.74-.63h18.11c.37 0 .68.27.74.63l.53 3.28a.75.75 0 01-.17.61c-.14.17-.35.26-.57.26zm-18.29-1.5h17.41l-.29-1.78h-16.83l-.29 1.78z" class="h"/><path fill="var(--color-primary-200)" d="M379.86 755.45l-.27-2.01a.29.29 0 00-.28-.25h-11.54a.29.29 0 00-.28.25l-.27 2.02-1.49-.2.27-2.01c.12-.88.88-1.55 1.77-1.55h11.54c.89 0 1.65.67 1.77 1.55l.27 2.01-1.49.2zM1092.78 327.03c-.66 0-1.27-.28-1.7-.78-.44-.51-.62-1.19-.51-1.86 1.61-9.45 9.74-16.39 19.33-16.52 3.43-.04 6.78.79 9.76 2.42a18.723 18.723 0 0117.03-11.37c3.02-.03 6.01.65 8.69 2a19.61 19.61 0 018.89-2.23h.26c10.11 0 18.67 7.7 19.75 17.72.36-.03.7-.04 1.03-.05h.22c4.16 0 8.15 1.52 11.27 4.29.93.83 1.25 2.11.82 3.28-.44 1.17-1.49 1.91-2.74 1.92l-92.07 1.18h-.03zm17.38-18.16h-.24c-9.11.12-16.83 6.71-18.36 15.69-.06.37.04.75.29 1.04.24.28.55.42.96.43l92.07-1.18c.99-.01 1.59-.67 1.81-1.27.23-.62.21-1.51-.54-2.18-2.98-2.65-6.82-4.11-10.81-4.03-.49 0-.97.04-1.44.09l-.51.05-.04-.51c-.8-9.75-9.04-17.3-18.8-17.3h-.24c-3.06.04-5.97.79-8.66 2.23l-.23.12-.23-.12a17.842 17.842 0 00-8.45-2.01 17.73 17.73 0 00-16.33 11.27l-.21.54-.5-.29a18.862 18.862 0 00-9.5-2.57zM1364.61 368.92h-173c-2.2 0-3.99-1.75-4-3.9 0-10.1 8.19-18.29 18.25-18.29 3.15 0 6.23.81 8.96 2.36a25.681 25.681 0 0123.27-14.73c4.94 0 9.7 1.4 13.85 4.07 5.52-18.57 22.65-31.41 42.15-31.41 17.98 0 34.35 11.18 40.93 27.89 5.58 1.16 10.61 4.2 14.25 8.62 9.7.44 18.31 6.46 22.04 15.46.91 2.21.66 4.72-.67 6.71a7.232 7.232 0 01-6.01 3.22zm-158.75-20.18c-8.96 0-16.25 7.29-16.25 16.25 0 1.08.9 1.93 2 1.93h173c1.75 0 3.37-.87 4.35-2.33.98-1.46 1.15-3.22.49-4.84-3.48-8.41-11.61-14-20.71-14.24h-.47l-.29-.38a23.058 23.058 0 00-13.89-8.37l-.55-.1-.2-.53c-6.14-16.22-21.92-27.12-39.26-27.12-19.06 0-35.75 12.86-40.59 31.27l-.37 1.41-1.18-.85a23.516 23.516 0 00-13.85-4.49c-9.59 0-18.18 5.72-21.9 14.56l-.46 1.11-1-.66a16.159 16.159 0 00-8.86-2.64z" class="h"/><path fill="var(--color-primary-600)" d="M410.03 782.53h-23.54c-.79 0-1.44-.64-1.44-1.44v-2.84c0-.79.64-1.44 1.44-1.44h23.54c.79 0 1.44.64 1.44 1.44v2.84c0 .79-.64 1.44-1.44 1.44zm-23.54-4.72c-.24 0-.44.2-.44.44v2.84c0 .24.2.44.44.44h23.54c.24 0 .44-.2.44-.44v-2.84c0-.24-.2-.44-.44-.44h-23.54zM394.52 729.7l-23.66-23.2.37-.36a16.514 16.514 0 0117.93-3.33c.09.04.19.02.26-.04l4.47-4.56c2.2-2.25 5.76-2.54 8.1-.67a5.925 5.925 0 012.21 4.28c.1 1.68-.51 3.32-1.68 4.51l-4.65 4.74c-.06.07-.08.17-.04.26 2.7 6.06 1.54 13.13-2.97 18l-.35.38zm-22.22-23.19l22.18 21.74a15.55 15.55 0 002.45-16.53c-.21-.47-.12-1 .24-1.36l4.65-4.74c.97-.99 1.48-2.36 1.39-3.75a4.852 4.852 0 00-1.84-3.55c-1.95-1.56-4.92-1.3-6.76.59l-4.47 4.56c-.35.36-.88.47-1.36.27-5.59-2.36-12-1.26-16.47 2.78z" class="d"/><path fill="var(--color-primary-600)" d="M406.35 770.94h1v6.33h-1zM401.16 770.01h1v7.16h-1z" class="d"/><path fill="var(--color-primary-600)" d="M404.72 772.4c-1.05 0-2.1-.4-2.9-1.2-1.6-1.6-1.6-4.21 0-5.81l24.68-24.68-29.64-29.64.71-.71 30.35 30.35-25.38 25.38c-1.21 1.21-1.21 3.18 0 4.4s3.19 1.21 4.4 0l26.14-26.14.38.04c.08.01.16.02.25.02a3.64 3.64 0 000-7.28c-.05 0-.09 0-.13.01l-.39.04-31.45-31.45.71-.71 31.11 31.11h.15c2.56 0 4.64 2.08 4.64 4.64s-2.08 4.64-4.64 4.64c-.09 0-.18 0-.26-.02l-25.8 25.8c-.8.8-1.85 1.2-2.91 1.2z" class="d"/><path fill="var(--color-primary-200)" d="M63.5 781.44h-2v-42.45H35.23v6.74h-2v-8.74H63.5v44.45z" class="h"/><path fill="var(--color-primary-200)" d="M63.5 782.1h-2v-43.11h-4.74v43.11h-2v-45.11h8.74v45.11z" class="h"/><path fill="var(--color-primary-200)" d="M51.59 782.44h-1.5v-35.59H23.32v35.59h-1.5v-37.09h29.77v37.09z" class="i"/><path fill="var(--color-primary-600)" d="M122.76 940.9h-15.51c-.28 0-.5-.22-.5-.5s.22-.5.5-.5h15.51c.28 0 .5.22.5.5s-.22.5-.5.5zM100.99 940.9h-8.65c-.28 0-.5-.22-.5-.5s.22-.5.5-.5h8.65c.28 0 .5.22.5.5s-.22.5-.5.5z" class="d"/><path fill="var(--color-primary-400)" d="M218.66 940.9h-19.35c-.28 0-.5-.22-.5-.5s.22-.5.5-.5h19.35c.28 0 .5.22.5.5s-.22.5-.5.5z" class="g"/><path fill="var(--color-primary-600)" d="M402.66 940.9h-40.74c-.28 0-.5-.22-.5-.5s.22-.5.5-.5h40.74c.28 0 .5.22.5.5s-.22.5-.5.5zM408.98 940.9h-2.42c-.28 0-.5-.22-.5-.5s.22-.5.5-.5h2.42c.28 0 .5.22.5.5s-.22.5-.5.5z" class="d"/><path fill="var(--color-primary-400)" d="M944.05 940.9h-40.74c-.28 0-.5-.22-.5-.5s.22-.5.5-.5h40.74c.28 0 .5.22.5.5s-.22.5-.5.5z" class="g"/><path fill="var(--color-primary-600)" d="M1217.54 866.85h-20.65c-.28 0-.5-.22-.5-.5s.22-.5.5-.5h20.65c.28 0 .5.22.5.5s-.22.5-.5.5zM1228.33 866.85h-5.02c-.28 0-.5-.22-.5-.5s.22-.5.5-.5h5.02c.28 0 .5.22.5.5s-.22.5-.5.5z" class="d"/><path fill="var(--color-primary-400)" d="M950.38 940.9h-2.42c-.28 0-.5-.22-.5-.5s.22-.5.5-.5h2.42c.28 0 .5.22.5.5s-.22.5-.5.5z" class="g"/><path fill="var(--color-primary-200)" d="M319.88 648.28h-19.1a1.25 1.25 0 010-2.5h19.1c1.08 0 1.97-.88 1.97-1.97V311.18c0-1.08-.88-1.97-1.97-1.97H66.6c-1.08 0-1.97.88-1.97 1.97v332.64c0 1.08.88 1.97 1.97 1.97h186.34a1.25 1.25 0 010 2.5H66.6c-2.46 0-4.47-2-4.47-4.47V311.18c0-2.46 2-4.47 4.47-4.47h253.27c2.46 0 4.47 2 4.47 4.47v332.64c0 2.46-2 4.47-4.47 4.47z" class="h"/><path fill="var(--color-primary-200)" d="M173.8 606.23h-12.7V430.81h12.7v175.42zm-11.7-1h10.7V431.81h-10.7v173.42z" class="h"/><path fill="var(--color-primary-200)" d="M185.53 606.23h-12.71V445.04h12.71v161.19zm-11.71-1h10.71V446.04h-10.71v159.19zM208.86 544.33h-1V422.14h17.4v1h-16.4v121.19zM146.88 590.5H79.84v-8.6h67.04v8.6zm-66.04-1h65.04v-6.6H80.84v6.6z" class="h"/><path fill="var(--color-primary-200)" d="M136.2 582.43h-1V482.27l10.51-10.51.71.71-10.22 10.21v99.75zM184.43 445.677l23.392-23.39.707.706-23.391 23.391zM267.12 605.63h-1v-60.56h-19.15v60.56h-1v-61.56h21.15v61.56z" class="h"/><path fill="var(--color-primary-200)" d="M267.12 544.95h-16.86v-54.3h16.86v54.3zm-15.86-1h14.86v-52.3h-14.86v52.3z" class="h"/><path fill="var(--color-primary-200)" d="M283.02 579.75h-16.86V430.7h16.86v149.05zm-15.86-1h14.86V431.7h-14.86v147.05z" class="h"/><path fill="var(--color-primary-200)" d="M303.67 606.34h-37.46v-27.63h37.46v27.63zm-36.46-1h35.46v-25.63h-35.46v25.63zM251.36 544.48h-1v-60.37h-10.05v-1h11.05v61.37zM136.2 582.93h-26.75v-69.15h26.75v69.15zm-25.75-1h24.75v-67.15h-24.75v67.15zM260.96 491.03h-1v-83.8l-9.78-10.76-8.85 9.84-.74-.66 9.59-10.67 10.78 11.86v84.19z" class="h"/><path fill="var(--color-primary-200)" d="M288.67 579.53c-.28 0-.5-.22-.5-.5v-189.1h21.2l2.15 2.95c.16.22.11.54-.11.7-.22.16-.54.12-.7-.11l-1.86-2.54h-19.69v188.1c0 .28-.22.5-.5.5z" class="h"/><path fill="var(--color-primary-400)" d="M349.7-1.25h1.5v164.09h-1.5z" class="g"/><path fill="var(--color-primary-600)" d="M395.31 709.67a.47.47 0 01-.35-.15l-4.01-4.01c-.2-.2-.2-.51 0-.71s.51-.2.71 0l4.01 4.01c.2.2.2.51 0 .71-.1.1-.23.15-.35.15z" class="d"/><path fill="var(--color-primary-200)" d="M433.53 742.55a1.83 1.83 0 11.002-3.662 1.83 1.83 0 01-.002 3.662zm0-2.67c-.46 0-.83.37-.83.83s.37.83.83.83.83-.37.83-.83-.37-.83-.83-.83zM404.99 769.66a1.609 1.609 0 110-3.22 1.609 1.609 0 110 3.22zm0-2.21c-.33 0-.61.27-.61.61s.27.61.61.61.61-.27.61-.61-.27-.61-.61-.61z" class="h"/><path fill="var(--color-primary-200)" d="M43.58 746.1h1.5v35.91h-1.5z" class="i"/><path fill="var(--color-primary-600)" d="M495.02 935.13h-14.4c-.21 0-.39-.13-.46-.32-1.28-3.24-2.54-6.23-3.76-8.89-1.45-3.17-3.81-6.82-7.03-10.85a.556.556 0 01-.09-.17 47.77 47.77 0 01-.8-3.18c-2.55-12.15-4.28-36.29-4.29-36.53-.02-.22.12-.43.33-.5.21-.08.44 0 .58.18 9.99 13.8 14.93 29.85 17.36 42.9-.18-10 .23-21.12 2.32-28.48 4.54-15.94 13.97-30.15 14.06-30.29.14-.2.4-.28.62-.18.22.1.34.34.29.57-3.28 13.72-5.96 29.42-7.98 46.72 5.02-15.27 12.23-29.79 12.31-29.95.1-.2.31-.32.53-.27.22.04.38.21.41.43.01.09 1.06 9.46-1.49 26.71-1.63 11-5.26 23.34-8.02 31.76-.07.21-.26.34-.48.34zm-14.06-1h13.7c2.73-8.37 6.27-20.47 7.87-31.25 1.88-12.73 1.79-21.11 1.62-24.6-2.3 4.83-8.97 19.29-12.99 33.13-.07.25-.32.41-.58.35a.502.502 0 01-.4-.54c1.94-18.18 4.6-34.69 7.9-49.14-2.88 4.76-8.98 15.64-12.35 27.48-2.66 9.35-2.56 24.96-2.01 36.41.01.27-.19.5-.46.52a.494.494 0 01-.54-.44c-1.7-13.47-6.11-32.76-17.42-49.13.45 5.84 2.01 24.45 4.14 34.6.2.94.45 1.95.76 3.01 3.24 4.07 5.62 7.76 7.09 10.98 1.19 2.59 2.42 5.49 3.65 8.63z" class="d"/><path fill="var(--color-primary-600)" d="M502.54 935.13h-6.65c-.18 0-.35-.1-.43-.25a.497.497 0 010-.5c5.62-9.48 12.77-17.19 12.85-17.26a.505.505 0 01.85.49c-1.85 6.11-3.92 11.91-6.15 17.22-.08.19-.26.31-.46.31zm-5.76-1h5.43c1.9-4.55 3.68-9.46 5.31-14.62-2.31 2.67-6.83 8.19-10.74 14.62zM480.62 935.13h-5.84c-.17 0-.33-.09-.42-.23-.99-1.55-1.83-2.96-2.56-4.32-3.69-6.84-9.32-23.25-9.37-23.41a.5.5 0 01.21-.59c.19-.12.45-.09.62.07.1.1 10 10.01 14.05 18.85 1.22 2.66 2.49 5.67 3.78 8.94a.5.5 0 01-.46.68zm-5.56-1h4.83a174.09 174.09 0 00-3.49-8.21c-3-6.55-9.31-13.74-12.26-16.91 1.66 4.7 5.7 15.81 8.55 21.09.69 1.27 1.46 2.59 2.38 4.03zM482.7 926.05l.996-.088.74 8.387-.997.088zM488.37 934.09l-1-.07c.83-11.89 2.79-22.73 2.81-22.84l.98.18c-.02.11-1.97 10.89-2.8 22.73z" class="d"/><path fill="var(--color-primary-200)" d="M365.22 763.37h16.63v1.5h-16.63zM365.97 773h15.14v1.5h-15.14zM201.57 605.81l-1-.01.52-61.73h24.89v1h-23.9l-.51 60.74zM351.7 231.35c-2.68 0-5.35-1.02-7.39-3.06a10.485 10.485 0 01-2.91-9.1l.14-.84h20.32l.14.84c.55 3.33-.54 6.73-2.91 9.1a10.41 10.41 0 01-7.39 3.06zm-8.42-11c-.16 2.42.73 4.81 2.45 6.53 3.3 3.29 8.66 3.29 11.95 0a8.495 8.495 0 002.45-6.53h-16.84z" class="h"/><path fill="var(--color-primary-200)" d="M84.39 590.38h1v15.63h-1z" class="i"/><g><path fill="var(--color-primary-400)" d="M146.96 606.41H73.08V317.65h73.88V606.4zm-72.88-1h71.88V318.65H74.08V605.4zM226.22 606.41H161.1V317.65h65.12V606.4zm-64.12-1h63.12V318.65H162.1V605.4zM312.04 606.41h-71.69V317.65h71.69V606.4zm-70.69-1h69.69V318.65h-69.69V605.4z" class="g"/></g><g><path fill="var(--color-primary-400)" d="M320.21 220.77c-.75 0-1.48-.31-2-.86-.53-.56-.79-1.32-.74-2.09.98-13.03 9.4-24.41 21.53-29.19l-.14-13.65c-.07-6.44 4.72-12 10.9-12.64 3.41-.35 6.83.75 9.39 3.03 2.57 2.29 4.06 5.56 4.1 8.98l.14 14.04c12.22 4.54 20.88 15.75 22.12 28.76.07.77-.18 1.53-.69 2.11-.51.57-1.24.9-2 .91l-62.59.62h-.03zm20.8-31.5c0 .42-.29.85-.68.99-11.73 4.36-19.92 15.23-20.85 27.7-.02.21.06.42.2.57.14.15.32.23.54.23l62.59-.62c.21 0 .4-.09.54-.24a.76.76 0 00.19-.58c-1.19-12.45-9.6-23.16-21.42-27.29a1.09 1.09 0 01-.7-.94l-.15-14.74a10.25 10.25 0 00-3.43-7.51c-2.17-1.94-4.96-2.83-7.86-2.54-5.16.54-9.17 5.21-9.11 10.63l.15 14.31z" class="g"/><path fill="var(--color-primary-400)" d="M353.18 186.16c-.55.55-1.28.86-2.06.86a2.95 2.95 0 01-2.98-2.92l-.11-10.5c0-.79.29-1.53.85-2.09.56-.51 1.29-.88 2.08-.89a2.95 2.95 0 012.98 2.92l.11 10.5c0 .79-.29 1.53-.84 2.09 0 0-.01.02-.02.02zm-2.07-.38c.45 0 .9-.21 1.2-.51.32-.33.49-.76.49-1.21l-.11-10.5c0-.94-.78-1.7-1.73-1.69-.95 0-1.7.78-1.69 1.72l.11 10.5c0 .94.78 1.7 1.73 1.69zM359.7 186.94c-.79 0-1.53-.29-2.09-.84-.57-.55-.88-1.29-.89-2.08l-.11-10.5a2.943 2.943 0 012.92-2.98v1.24c-.93.01-1.69.78-1.68 1.72l.11 10.5a1.706 1.706 0 001.72 1.69v1.24zM344.6 186.24c-.55.55-1.28.86-2.05.86v-1.24c.43 0 .86-.18 1.18-.5h.01c.32-.34.49-.77.49-1.22l-.11-10.5c0-.94-.78-1.7-1.73-1.69v-1.24c1.62-.02 2.95 1.29 2.97 2.92l.11 10.5c0 .78-.29 1.53-.84 2.09 0 0-.01.02-.02.02z" class="g"/></g><g><path fill="var(--color-primary-100)" d="M73.61 327.45h238.12v5.88H73.61z" class="f"/><path fill="var(--color-primary-200)" d="M312.23 333.83H73.11v-6.88h239.12v6.88zm-238.12-1h237.12v-4.88H74.11v4.88z" class="h"/><g><path fill="var(--color-primary-100)" d="M73.61 340.84h238.12v5.88H73.61z" class="f"/><path fill="var(--color-primary-200)" d="M312.23 347.22H73.11v-6.88h239.12v6.88zm-238.12-1h237.12v-4.88H74.11v4.88z" class="h"/></g></g><path fill="var(--color-primary-200)" d="M1313.2 746.44c-.2 0-.39-.12-.47-.33l-11.97-32.06a.496.496 0 11.93-.35l11.97 32.06a.496.496 0 01-.46.67z" class="h"/><g><path fill="var(--color-primary-400)" d="M273.97 662.36l-.52-.62c-.61-.73-1.34-1.2-2.17-1.4-1.09-.26-2.26-.02-3.38.7l-1.06.68.3-1.22c.43-1.73 1.04-3.43 1.8-5.04 4.53-9.57 13.97-15.37 22.44-13.8l.12.02.25.19c.21.16.42.32.61.51a7.906 7.906 0 012.33 5.44l.77.87-1.29-.14c-7.63-.97-15.77 4.33-19.81 12.87l-.4.92zm-3.56-3.12c.37 0 .74.04 1.11.13.79.19 1.53.59 2.17 1.18 4.18-8.43 12.26-13.7 19.99-13.04a6.93 6.93 0 00-2.02-4.41c-.16-.16-.33-.29-.51-.42l-.06-.05c-8.01-1.42-16.93 4.14-21.24 13.26a26.22 26.22 0 00-1.43 3.76c.66-.27 1.33-.41 1.99-.41z" class="g"/><path fill="var(--color-primary-200)" d="M1277.36 706.49h-1v-52.48h-10.45v-1h11.45v53.48zM1179.75 769.75c-.28 0-.5-.22-.5-.5V633.7c0-1.01.82-1.83 1.83-1.83h3.27c.29-.09.64.13.64.46v.54h-3.91c-.46 0-.83.37-.83.83v135.55c0 .28-.22.5-.5.5z" class="h"/><path fill="var(--color-primary-200)" d="M1292.86 832.95l-28.53-.17v-1l27.67.17c-.56-.85-1.76-2.35-3.93-3.86-3.05-2.12-8.72-4.67-18.34-4.84-2.41-.04-4.63.08-6.8.38l-.13-.99c2.22-.3 4.49-.43 6.96-.39 19.09.34 23.42 9.61 23.59 10.01.07.15.05.33-.04.48-.09.14-.25.23-.42.23z" class="i"/><path fill="var(--color-primary-200)" d="M1252.61 832.71l-44.24-.26c-.22 0-.41-.15-.48-.36-.06-.21.02-.44.2-.56.12-.08 12.06-7.92 26.04-3.62 7.12 2.19 11.23.49 15.99-1.48l.38.92c-4.73 1.96-9.2 3.81-16.67 1.51-10.58-3.26-19.98.69-23.6 2.59l42.38.25v1z" class="h"/><path fill="var(--color-primary-400)" d="M138.69 782.3l-1.95-.4 4.55-21.88h-17.35l-4.58 21.99-1.96-.41 4.91-23.58h21.44l-5.06 24.28zM1214.87 600.19c-.07 0-.14-.01-.2-.04a.508.508 0 01-.3-.43l-1.04-18.34-6.08-.26a2.394 2.394 0 01-2.3-2.4v-5.5c0-.05-.04-.09-.09-.1l-1.74-.28a1.48 1.48 0 01-1.1-.84c-.2-.45-.17-.96.09-1.38l2.41-3.9c.17-.27.25-.58.25-.89v-2.63c.27-2.84 1.07-5.35 2.44-7.75.1-.17.28-.26.48-.25.19.02.36.14.43.33l.08.23c3.34 8.46 9.11 11.55 10.81 12.31l.63-2.17a2.946 2.946 0 012.82-2.12c1.62 0 2.94 1.32 2.94 2.93v.53c0 1.6-.67 3.14-1.83 4.23l-.94.88c-.15.14-.21.35-.15.54l4.88 16.95c.06.19 0 .4-.17.53l-12.01 9.72a.51.51 0 01-.31.11zm-7.3-43.31c-1 1.99-1.59 4.08-1.81 6.36v2.58c0 .5-.14.99-.4 1.42l-2.41 3.9c-.08.13-.09.29-.03.44s.19.24.35.27l1.74.28c.54.09.93.54.93 1.09v5.5c0 .76.59 1.37 1.35 1.4l6.54.28a.5.5 0 01.48.47l1.01 17.82 10.99-8.9-4.79-16.63c-.16-.56 0-1.15.43-1.55l.94-.88c.96-.9 1.52-2.17 1.52-3.5v-.53c0-1.07-.87-1.93-1.94-1.93-.86 0-1.62.57-1.86 1.4l-.78 2.71c-.04.13-.13.24-.25.3s-.26.08-.39.03c-.31-.1-7.44-2.55-11.61-12.33z" class="g"/><path fill="var(--color-primary-400)" d="M1251.48 602.02c-.24 0-.47-.1-.62-.29-.23-.28-1.56-1.6-5.44-.78a.75.75 0 01-.89-.58c-.09-.41.17-.8.58-.89 2.94-.62 4.75-.15 5.8.41a6.364 6.364 0 00-1.85-4.4 5.908 5.908 0 01-1.75-4.21c0-1.19-.46-2.31-1.31-3.15-4.69-4.69-7.28-10.93-7.28-17.57v-4.61c0-10.26-7.85-18.62-17.49-18.62-9.01 0-16.49 7.18-17.4 16.71-.04.41-.42.71-.82.68a.766.766 0 01-.68-.82c.99-10.3 9.11-18.06 18.9-18.06 10.47 0 18.99 9.02 18.99 20.12v4.61c0 6.24 2.43 12.1 6.84 16.51a5.932 5.932 0 011.75 4.21c0 1.19.46 2.31 1.31 3.15a7.826 7.826 0 012.17 6.91l-.08.47-.51.18c-.07.02-.14.03-.21.03zm-.67-.94zM331.96 762.02c-.52 0-.95-.4-1-.92-.71-9-4.77-23.17-4.81-23.32-.15-.53.15-1.08.68-1.24.53-.15 1.09.15 1.24.68.17.59 4.16 14.5 4.88 23.71.04.55-.37 1.03-.92 1.08h-.08z" class="g"/><path fill="var(--color-primary-600)" d="M337.41 798.32l.993-.12.752 6.234-.993.12z" class="d"/><path fill="var(--color-primary-400)" d="M268.57 804.67c-5.58-17.86-9.15-64.1-9.66-71l-27.86 18.77c-4.21 2.83-9.1 4.61-14.16 5.13l-1.65.17c-3.21.34-6.41-.72-8.8-2.88-2.61-2.35-3.96-5.71-3.73-9.21l.2-3.02a28.25 28.25 0 017.31-17.1l31.24-32.57.26.04c.36.06 8.84 1.59 10.1 7.91l.05.24-11.67 13.64-.76-.65 11.35-13.26c-1.17-4.9-7.61-6.54-8.98-6.83l-30.86 32.17a27.253 27.253 0 00-7.04 16.48l-.2 3.02c-.22 3.19 1.02 6.26 3.4 8.4 2.18 1.97 5.11 2.92 8.03 2.62l1.65-.17c4.89-.51 9.63-2.22 13.7-4.97l29.29-19.73.06.86c.04.52 3.7 52.52 9.67 71.64l-.96.3z" class="g"/><path fill="var(--color-primary-600)" d="M322.38 845.95a.5.5 0 01-.29-.91c.48-.35 1.1-.77 1.78-1.24 2.22-1.53 5.26-3.62 6.62-5.04a33.477 33.477 0 008.55-29.59l-.91-4.55c-.05-.27.12-.53.39-.59.26-.06.53.12.59.39l.91 4.55a34.498 34.498 0 01-8.8 30.47c-1.43 1.5-4.52 3.63-6.78 5.18-.68.47-1.29.89-1.77 1.23-.09.06-.19.09-.29.09zM159.16 927.25c-9.24 0-14.03-3.38-16.09-5.45a2.47 2.47 0 01-.48-2.77l46.76-102.52a21.386 21.386 0 0119.42-12.49h60.29c.28 0 .5.22.5.5s-.22.5-.5.5h-60.29c-7.95 0-15.21 4.67-18.51 11.9L143.5 919.44c-.26.56-.14 1.23.28 1.65 1.62 1.63 6.51 5.39 16.31 5.14.49-.01.96-.29 1.22-.72l54.31-89.65c.49-.81 1.44-1.23 2.38-1.03l47.76 10.34c.27.06.44.32.38.59-.06.27-.33.44-.59.38l-47.76-10.34c-.51-.11-1.04.12-1.32.58l-54.31 89.65c-.44.72-1.22 1.18-2.05 1.2-.32 0-.64.01-.96.01z" class="d"/><path fill="var(--color-primary-400)" d="M195.82 927.09c-8.19 0-12.95-3.85-14.69-5.6-.56-.56-.74-1.38-.48-2.14L202 858.4l.94.33-21.35 60.95c-.14.39-.04.81.24 1.1 1.77 1.78 6.84 5.86 15.75 5.25.37-.02.7-.25.87-.59L236.04 849l.9.44-37.59 76.44c-.33.66-.98 1.1-1.7 1.15-.63.04-1.24.06-1.83.06z" class="g"/><path fill="var(--color-primary-400)" d="M156.52 935.44c-.17 0-.34-.09-.43-.25a.493.493 0 01.18-.68c2.62-1.51 5.91-2.67 8.79-3.11l1.5-.22c4.33-.65 8.37-2.76 11.37-5.93l3.38-3.57c.19-.2.51-.21.71-.02.2.19.21.51.02.71l-3.38 3.57c-3.16 3.34-7.4 5.55-11.95 6.23l-1.5.22c-2.77.42-5.92 1.53-8.44 2.98-.08.05-.17.07-.25.07zM189.18 940.53h-36.33v-1h36.33c2.37 0 4.31-1.93 4.31-4.31v-8.7h1v8.7c0 2.93-2.38 5.31-5.31 5.31z" class="g"/><path fill="var(--color-primary-400)" d="M151.12 940.85h-38.15c-.61 0-1.14-.35-1.37-.92s-.11-1.19.32-1.62c3.73-3.73 8.66-6.22 13.88-7l1.57-.24c4.55-.68 8.79-2.9 11.96-6.24l3.54-3.74.73.69-3.54 3.74c-3.31 3.5-7.77 5.82-12.53 6.54l-1.57.24c-5.01.75-9.74 3.14-13.32 6.72-.21.21-.13.46-.11.53s.15.3.45.3h38.15c2.51 0 4.54-2.04 4.54-4.54v-8.21h1v8.21c0 3.06-2.49 5.54-5.54 5.54z" class="g"/><path fill="var(--color-primary-200)" d="M353.11 940.78h-86.35l17.67-88.77h51l17.67 88.77zm-84.52-1.5h82.69l-17.07-85.77h-48.54l-17.07 85.77z" class="h"/><path fill="var(--color-primary-200)" d="M308.51 940.78h-86.35l17.67-88.77h51l17.67 88.77zm-84.52-1.5h82.69l-17.07-85.77h-48.54L224 939.28z" class="h"/><path fill="var(--color-primary-400)" d="M337.05 846.37l-.98-.19 9.4-47.22h-47.41l-9.31 46.8-.98-.2 9.47-47.6h49.45l-9.64 48.41z" class="g"/><path fill="var(--color-primary-600)" d="M269.76 679.43c-.21-1.04-.48-2.07-.81-3.07l.95-.32c.35 1.04.63 2.11.84 3.19l-.98.2z" class="d"/><path fill="var(--color-primary-400)" d="M266.76 688.55l-.1-.99 1.26-.13c1.31 0 2.33-1.02 2.33-2.28v-.8c0-.39 0-.79-.03-1.18l1-.05c.02.41.03.82.03 1.23v.8c0 1.81-1.47 3.28-3.28 3.28l-1.21.12z" class="g"/><path fill="var(--color-primary-600)" d="M294.57 693.43l-.91-.92a11.99 11.99 0 01-3.54-8.53v-5.75h1v5.75c0 2.96 1.15 5.74 3.24 7.83l.91.92-.71.71z" class="d"/><path fill="var(--color-primary-400)" d="M272.46 696.53h-1v-6.06c0-1.2-.97-2.17-2.17-2.17l-.28-.04.14-.99.21.03c1.67 0 3.09 1.42 3.09 3.16v6.06zM258.65 674.12c-.68-.15-1.23-.62-1.47-1.26a2 2 0 01.26-1.92l2.27-3.12c.32-.43.48-.94.48-1.48v-1.52c0-2.26.43-4.47 1.26-6.57l1.66-4.17.93.37-1.67 4.17c-.79 1.98-1.19 4.07-1.19 6.2v1.52c0 .75-.23 1.46-.67 2.07l-2.27 3.12c-.21.29-.26.64-.13.98.13.33.4.57.75.64l-.21.98z" class="g"/><path fill="var(--color-primary-400)" d="M243.12 694.2c-.13 0-.27-.05-.36-.16-.19-.2-.18-.52.02-.71l6.35-5.99.65-2.35c.77-2.8 2.28-5.35 4.37-7.37l6.18-5.97c.8-.78 1.81-1.29 2.91-1.49.27-.05.53.13.58.41.05.27-.13.53-.41.58-.91.16-1.73.58-2.39 1.22l-6.18 5.97a15.154 15.154 0 00-4.1 6.92l-.72 2.62-6.55 6.18c-.1.09-.22.14-.34.14zM250.94 700.06a.501.501 0 01-.37-.84l6.18-6.74c.18-.21.42-.38.68-.49l6.43-2.76c1.77-.76 3.31-1.99 4.45-3.54l3.29-4.49c.16-.22.22-.5.15-.77a.93.93 0 00-1.53-.46l-4.34 4.06-2.57.47a.901.901 0 01-1.06-.99l.15-1.33c.19-1.72.87-3.34 1.96-4.68l3.76-4.6a.87.87 0 00.14-.89.881.881 0 00-.71-.55l-.15-.02a.868.868 0 00-.75.26l-5.99 6.13c-.3.31-.56.66-.77 1.05l-.23.43c-.13.24-.43.34-.68.21a.507.507 0 01-.21-.68l.23-.43c.25-.47.56-.9.93-1.27l5.99-6.13c.41-.42 1.01-.63 1.6-.56l.15.02c.69.09 1.25.53 1.51 1.18s.15 1.35-.29 1.89l-3.76 4.6a7.88 7.88 0 00-1.74 4.16l-.13 1.2 2.15-.39 4.13-3.86c.58-.54 1.46-.67 2.17-.32.51.25.88.71 1.02 1.27.14.55.02 1.14-.32 1.59l-3.29 4.49c-1.24 1.7-2.92 3.04-4.86 3.87l-6.43 2.76c-.13.06-.24.14-.34.24l-6.18 6.75c-.1.11-.23.16-.37.16z" class="g"/><path fill="var(--color-primary-400)" d="M258.29 677.11c-.12 0-.25-.04-.34-.14a.504.504 0 01-.02-.71l4.93-5.24a3.537 3.537 0 014.16-.76l.33.17c.25.12.35.42.22.67a.49.49 0 01-.67.22l-.33-.17c-1-.5-2.22-.28-2.98.55l-4.93 5.25c-.1.1-.23.16-.36.16z" class="g"/><path fill="var(--color-primary-600)" d="M268.51 676.83c-.38 0-.76-.04-1.14-.14a4.78 4.78 0 01-1.49-.63l.64-1.01c.35.22.73.38 1.12.48 1.34.32 2.79-.13 4.09-1.27 1.36-1.19 2.38-2.98 2.87-5.03.49-2.05.39-4.1-.28-5.78-.64-1.61-1.73-2.67-3.07-2.99-1.34-.32-2.79.13-4.09 1.27-1.36 1.19-2.38 2.98-2.87 5.03a10.47 10.47 0 00-.26 3.46l-1.2.11c-.12-1.26-.02-2.55.29-3.85.55-2.29 1.7-4.3 3.24-5.65 1.6-1.41 3.44-1.96 5.17-1.54 1.73.41 3.12 1.73 3.91 3.71.76 1.91.88 4.22.33 6.51s-1.7 4.3-3.24 5.65c-1.25 1.1-2.65 1.67-4.02 1.67z" class="d"/><path fill="var(--color-primary-400)" d="M169.71 678.65c2.79 0 5.17 2.03 5.61 4.79l10.8 68.15c.55 3.45-2.12 6.57-5.61 6.57H81.48c-2.79 0-5.17-2.03-5.61-4.79l-10.8-68.15c-.55-3.45 2.12-6.57 5.61-6.57h99.04m0-2H70.67c-2.25 0-4.38.98-5.84 2.69a7.646 7.646 0 00-1.74 6.19l10.8 68.15a7.641 7.641 0 007.58 6.48h99.04c2.25 0 4.38-.98 5.84-2.69a7.646 7.646 0 001.74-6.19l-10.8-68.15a7.641 7.641 0 00-7.58-6.48z" class="g"/><path fill="var(--color-primary-200)" d="M86.1 759.25c-3.1 0-5.7-2.22-6.19-5.29l-10.97-69.21c-.29-1.81.23-3.65 1.42-5.05s2.93-2.2 4.76-2.2v1c-1.54 0-3 .67-4 1.85-1 1.17-1.44 2.72-1.2 4.25l10.97 69.21c.41 2.57 2.6 4.44 5.2 4.44v1z" class="h"/><path fill="var(--color-primary-200)" d="M78.57 742.63h105.69v1H78.57zM139.23 753.97c-.71 0-1.39-.29-1.95-.83-.59-.58-.95-1.38-1.03-2.26-.08-.88.14-1.73.62-2.41.49-.7 1.2-1.12 2-1.19.79-.07 1.57.22 2.18.82.59.58.96 1.38 1.03 2.26.16 1.84-1.01 3.46-2.62 3.6-.08 0-.15.01-.23.01zm-.13-5.7h-.14c-.5.04-.95.32-1.27.77-.34.48-.5 1.1-.44 1.74s.32 1.22.74 1.64c.4.39.88.58 1.39.54 1.06-.09 1.82-1.22 1.71-2.51-.06-.64-.32-1.22-.74-1.64-.36-.36-.8-.55-1.25-.55z" class="h"/><path fill="var(--color-primary-400)" d="M161.28 782.32l-.69-.73 4.87-4.61a6.164 6.164 0 014.38-1.81h61.6v1h-61.6c-1.39 0-2.7.54-3.69 1.53l-4.88 4.62zM1205.64 639.18s-.07 0-.11-.01a.502.502 0 01-.39-.53l2.08-23.49c.58-6.58 3.84-12.77 8.93-16.98l10.4-8.59c.18-.15.44-.15.62-.01.18.14.25.39.15.6l-7.24 15.97a.49.49 0 01-.63.26l-4.38-1.61 2.01 3.58c.07.13.08.28.03.42l-11.01 30.06c-.07.2-.26.33-.47.33zm19.88-47.45l-8.73 7.22c-4.89 4.04-8.02 9.98-8.57 16.3l-1.75 19.72 9.63-26.29-2.57-4.56c-.1-.18-.08-.41.05-.57.14-.16.36-.22.55-.14l5.22 1.92 6.16-13.58z" class="g"/><path fill="var(--color-primary-200)" d="M1231.44 593.8c-2.03 0-3.94-1.25-4.67-3.25l-.95-2.59a.501.501 0 01.94-.34l.95 2.59c.75 2.03 3.02 3.09 5.06 2.37a.501.501 0 01.34.94c-.55.2-1.11.29-1.66.29z" class="h"/><path fill="var(--color-primary-400)" d="M1202.57 662.44s-.1 0-.14-.02a6.276 6.276 0 01-3.78-3.1l-17.24-32.61c-.45-.85-.14-1.9.7-2.37l6.31-3.54a1.77 1.77 0 012.39.64l13.09 21.96c.04.07.18.11.33.1.29 0 .54-.15.62-.28.13-.24.43-.33.68-.2.24.13.33.43.2.68-.29.54-.95.79-1.47.8-.5 0-.97-.2-1.21-.59l-13.09-21.96a.776.776 0 00-1.04-.28l-6.31 3.54c-.37.21-.5.66-.3 1.03l17.24 32.61c.67 1.27 1.8 2.2 3.18 2.61.26.08.42.36.33.62-.06.22-.26.36-.48.36zM1182.99 607.66c-.24 0-.45-.17-.49-.41l-3.66-21.03a.84.84 0 00-.35-.56.904.904 0 00-.64-.15l-1.24.15c-.2.03-.4.16-.53.34s-.18.41-.15.64l2.42 14.24c.05.27-.14.53-.41.58a.506.506 0 01-.58-.41l-2.42-14.24c-.08-.49.03-.98.32-1.38.29-.4.71-.67 1.2-.75l1.24-.15c.46-.08.96.04 1.36.32.4.29.67.72.75 1.2l3.66 21.03c.05.27-.13.53-.41.58h-.09z" class="g"/><path fill="var(--color-primary-600)" d="M1198.2 867.08h-.22l-20.21-1.01a2.44 2.44 0 01-2.29-1.97c-.23-1.12.31-2.21 1.34-2.71l15.1-7.29c.6-.29.98-.91.97-1.58l-2.65-103.9c-.06-2.52.09-5.06.45-7.55l8.99-62.17 1.19.17-8.99 62.17c-.35 2.42-.5 4.9-.44 7.35l2.65 103.9c.03 1.14-.62 2.2-1.64 2.7l-15.1 7.29c-.65.31-.78.92-.69 1.39.09.46.45.97 1.17 1.01l20.21 1.01a3.165 3.165 0 003.31-3.39l-.48-6.54v-.07l9.24-57.15 1.19.19-9.22 57.08.47 6.4a4.39 4.39 0 01-1.23 3.37c-.82.84-1.95 1.31-3.12 1.31zM1259.72 871.6c-.38 0-.76-.12-1.08-.37-.53-.41-.79-1.07-.68-1.73l2.84-16.32c.18-1.06.05-2.14-.39-3.12l-22.48-49.86.91-.41 22.48 49.86c.52 1.16.69 2.44.47 3.7l-2.84 16.32c-.05.29.06.58.3.76.24.18.54.21.81.08l1.46-.69a8.764 8.764 0 003.12-2.48l7.12-8.95c.93-1.17.79-2.88-.31-3.89l-3.19-2.9a4.654 4.654 0 01-1.44-2.61l-13.54-78.13.98-.17 13.54 78.13c.14.78.54 1.51 1.13 2.04l3.19 2.9c1.5 1.36 1.68 3.67.42 5.25l-7.12 8.95a9.851 9.851 0 01-3.48 2.76l-1.46.69c-.24.12-.51.17-.76.17zM1245.98 729.54a54.02 54.02 0 01.86-16.49 41.02 41.02 0 00-1.48-22.04l-2.67-7.57.94-.33 2.67 7.57a42.116 42.116 0 011.52 22.58 53.01 53.01 0 00-.84 16.19l-.99.1z" class="d"/><path fill="var(--color-primary-600)" d="M1228.38 801.05c-24.78 0-36.21-7.15-36.84-7.56l.81-1.26c.2.13 20.59 12.82 65.53 4.36l.28 1.47c-11.52 2.17-21.41 2.99-29.79 2.99z" class="d"/><path fill="var(--color-primary-400)" d="M1264.79 722.93l-2.17-5.92c-.17-.46-.15-.97.05-1.42.21-.45.58-.79 1.04-.96l2.01-.8.37.93-2.02.8c-.22.08-.39.24-.49.45-.1.21-.1.44-.02.66l2.17 5.93-.94.34zM1261.98 723.97l-2.53-6.91c-.38-1.02-.34-2.14.12-3.13.46-1 1.27-1.75 2.3-2.13l.35.94c-.78.29-1.39.86-1.74 1.61-.35.75-.38 1.59-.09 2.37l2.53 6.91-.94.34zM1280.09 717.25l-2.17-5.92a.899.899 0 00-.44-.48.84.84 0 00-.66-.02l-2.52.87-.33-.95 2.51-.86c.45-.17.96-.15 1.41.06.45.21.79.58.97 1.04l2.17 5.93-.94.34zM1282.91 716.2l-2.53-6.91a3.091 3.091 0 00-3.98-1.83l-.35-.94c1.03-.38 2.14-.34 3.14.12s1.75 1.27 2.13 2.3l2.53 6.91-.94.34z" class="g"/><path fill="var(--color-primary-400)" d="M1257.03 772.87c-.79 0-1.57-.17-2.31-.5a5.524 5.524 0 01-2.9-3.12l-11.96-32.06c-.52-1.39-.47-2.91.15-4.26s1.72-2.38 3.12-2.9l56.23-20.99c1.39-.52 2.9-.47 4.26.15 1.35.62 2.38 1.72 2.9 3.12l11.97 32.06c.52 1.39.47 2.91-.15 4.26a5.524 5.524 0 01-3.12 2.9l-56.23 20.99c-.63.24-1.29.35-1.95.35zm44.26-62.68c-.47 0-.95.08-1.42.26l-56.23 20.99a4.027 4.027 0 00-2.28 2.12c-.45.99-.49 2.09-.11 3.11l11.97 32.06a4.07 4.07 0 005.23 2.39l56.23-20.99a4.027 4.027 0 002.28-2.12c.45-.99.49-2.09.11-3.11l-11.97-32.06a4.078 4.078 0 00-3.81-2.65z" class="g"/><path fill="var(--color-primary-600)" d="M1190.78 860.24h-9.35v-1h9.35c1.36 0 2.68-.28 3.93-.83l6.56-2.9.4.91-6.56 2.9c-1.37.61-2.83.92-4.33.92zM1263.81 857.34c-.69 0-1.39-.18-2.03-.55l-1.02-.59.5-.87 1.02.59c1.35.78 3.06.42 3.99-.83l2.67-3.6.8.6-2.67 3.6a4.036 4.036 0 01-3.26 1.64z" class="d"/><path fill="var(--color-primary-500)" d="M1219.18 568.79a.47.47 0 01-.35-.15c-5.59-5.59-5.65-13.28-5.65-13.6 0-.28.22-.5.5-.5s.5.22.5.5c0 .08.07 7.6 5.36 12.89.2.2.2.51 0 .71-.1.1-.23.15-.35.15z" class="j"/><path fill="var(--color-primary-400)" d="M1357.19 751.2l-.39-.92c20.26-8.72 42.9-11.77 65.46-8.84l-.13.99c-22.39-2.91-44.84.12-64.93 8.77zM1264.96 791.59c-2.62 0-5.23-.11-7.85-.34l.13-1.49c25.29 2.21 50.3-6.41 76.47-26.36 3.88-2.96 8.08-5.7 12.46-8.16l.73 1.31c-4.33 2.42-8.46 5.12-12.28 8.04-23.78 18.12-46.65 27-69.66 27z" class="g"/><path fill="var(--color-primary-200)" d="M1298.44 833.18c-.12 0-.23-.02-.35-.06-.52-.19-.78-.77-.59-1.29 1.63-4.36 8.16-19.05 23.88-25.12 2.11-.82 4.33-1.45 6.62-1.89.81-.16 1.65-.29 2.49-.4.99-.13 2-.23 3.02-.29 1.03-.06 2.11-.09 3.21-.08h.16c10.36 0 17.93-7.83 27.51-17.72 12.7-13.12 28.51-29.45 58.2-34.54a.986.986 0 011.15.82.997.997 0 01-.82 1.15c-29.05 4.97-44.6 21.04-57.1 33.96-9.51 9.83-17.74 18.33-28.95 18.33h-.55c-.92 0-1.82.03-2.69.08-.97.06-1.94.15-2.88.27-.81.11-1.6.24-2.37.38-2.17.42-4.28 1.02-6.27 1.79-14.94 5.76-21.17 19.79-22.72 23.95-.15.4-.53.65-.94.65zM1336.77 832.33a.94.94 0 01-.53-.16.992.992 0 01-.31-1.38c.32-.5 7.95-12.37 20.03-15.07 6.08-1.36 12.19-.13 18.15 3.66 4.6 2.92 9.62 4.41 14.92 4.43h.04c4.11 0 8.13-1.49 11.35-4.21 7.97-6.73 15.29-12.15 21.74-16.13.47-.29 1.08-.14 1.38.33.29.47.14 1.09-.33 1.38-6.37 3.92-13.6 9.29-21.5 15.96-3.57 3.02-8.06 4.68-12.64 4.68h-.05c-5.69-.02-11.07-1.62-15.99-4.74-5.5-3.5-11.1-4.64-16.64-3.4-11.27 2.52-18.7 14.07-18.77 14.19-.19.3-.51.46-.85.46z" class="h"/><path fill="var(--color-primary-400)" d="M1104.45 882.68H840.72l-.1-.48-12.27-62.41h263.24l12.85 62.9zm-262.74-1.2h261.27l-12.36-60.5h-260.8l11.9 60.5z" class="g"/><path fill="var(--color-primary-500)" d="M1108.93 882.68H845.2l-.1-.48-12.27-62.41h263.24l12.85 62.9zm-262.74-1.2h261.27l-12.36-60.5H834.3l11.9 60.5z" class="j"/><path fill="var(--color-primary-400)" d="M919.29 890.23h-70.53c-4.5 0-8.15-3.66-8.15-8.15v-.6h78.68v8.75zm-77.45-7.55c.3 3.55 3.29 6.35 6.93 6.35h69.33v-6.35h-76.25z" class="g"/><path fill="var(--color-primary-600)" d="M1157.12 890.23H917.95v-8.75h239.17v8.75zm-237.97-1.2h236.78v-6.35H919.15v6.35z" class="d"/><path fill="var(--color-primary-400)" d="M837.6 961.43c-.83 0-1.61-.37-2.13-1.01-.52-.64-.73-1.46-.57-2.26l13.44-69.13h9.32l-17.99 70.79c-.25.95-1.1 1.61-2.07 1.61zm11.73-71.2l-13.25 68.17c-.09.45.03.91.32 1.27.3.36.74.57 1.2.57.42 0 .8-.29.91-.71l17.61-69.29h-6.78z" class="g"/><path fill="var(--color-primary-400)" d="M851.5 913.21l.28-5.94c.4-8.36-4.35-9.43-4.55-9.47l-.58-.12 1.68-8.65h9.32l-6.15 24.18zm-3.46-16.41c1.2.45 3.9 1.95 4.72 6.56l3.34-13.13h-6.78l-1.28 6.57zM894.54 961.43c-.83 0-1.61-.37-2.13-1.01-.52-.64-.73-1.46-.57-2.26l13.44-69.13h9.32l-17.99 70.79c-.25.95-1.1 1.61-2.07 1.61zm11.73-71.2l-13.25 68.17c-.09.45.03.91.32 1.27.3.36.74.57 1.2.57.42 0 .8-.29.91-.71l17.61-69.29h-6.78z" class="g"/><path fill="var(--color-primary-400)" d="M908.44 913.21l.28-5.94c.4-8.36-4.35-9.43-4.55-9.47l-.58-.12 1.68-8.65h9.32l-6.15 24.18zm-3.46-16.41c1.2.45 3.9 1.95 4.72 6.56l3.34-13.13h-6.78l-1.28 6.57zM1154.05 961.43c-.97 0-1.82-.66-2.07-1.61l-17.99-70.79h9.32l13.44 69.14c.16.8-.05 1.62-.57 2.26-.53.64-1.3 1.01-2.13 1.01zm-14.19-54.19l13.29 52.28c.11.42.48.71.91.71.47 0 .91-.21 1.2-.57.29-.36.41-.82.32-1.26l-13.25-68.17h-6.78l4.32 17.02z" class="g"/><path fill="var(--color-primary-400)" d="M1140.14 913.21l-6.15-24.18h9.32l1.69 8.66-.59.11c-.2.04-4.95 1.11-4.55 9.47l.28 5.94zm-4.61-22.98l3.34 13.13c.82-4.61 3.52-6.11 4.72-6.56l-1.28-6.57h-6.78zM1097.11 961.43c-.97 0-1.82-.66-2.07-1.61l-17.99-70.79h9.32l13.44 69.14c.16.8-.05 1.62-.57 2.26-.53.64-1.3 1.01-2.13 1.01zm-14.19-54.19l13.29 52.28c.11.42.48.71.91.71.47 0 .91-.21 1.2-.57.29-.36.41-.82.32-1.27l-13.25-68.17h-6.78l4.32 17.02z" class="g"/><path fill="var(--color-primary-400)" d="M1083.2 913.21l-6.15-24.18h9.32l1.69 8.66-.59.11c-.2.04-4.95 1.11-4.54 9.47l.28 5.93zm-4.61-22.98l3.34 13.13c.82-4.61 3.52-6.11 4.72-6.56l-1.28-6.57h-6.78zM1198.43 1022.31c-.17 0-.35-.03-.52-.09a1.495 1.495 0 01-.88-1.93c2.7-7.23 13.53-31.6 39.58-41.65 3.49-1.35 7.18-2.41 10.96-3.14 1.34-.26 2.73-.48 4.14-.67 1.61-.21 3.29-.37 5-.47 1.71-.11 3.5-.16 5.32-.14h.27c17.29 0 29.89-13.02 45.83-29.49 23.85-24.64 53.53-55.31 114.8-59.49.82-.06 1.54.57 1.6 1.39a1.5 1.5 0 01-1.39 1.6c-60.12 4.11-89.36 34.31-112.85 58.59-15.78 16.31-29.43 30.41-47.99 30.41h-.28c-1.75-.02-3.47.03-5.11.13-1.64.1-3.25.25-4.79.45-1.34.18-2.67.39-3.96.64a61.9 61.9 0 00-10.45 2.99c-24.89 9.6-35.27 32.97-37.86 39.9-.23.6-.8.98-1.41.98zM1261.75 1021.51a.56.56 0 01-.27-.08.513.513 0 01-.16-.69c.13-.2 12.95-20.15 32.55-24.54 9.79-2.19 19.65-.2 29.29 5.93 7.83 4.97 16.38 7.51 25.42 7.54h.08c7.1 0 14.06-2.58 19.61-7.26 19.25-16.24 35.48-27.43 49.61-34.22.25-.12.55-.01.67.23s.01.55-.23.67c-14.06 6.75-30.22 17.89-49.4 34.08-5.73 4.84-12.92 7.5-20.25 7.5h-.08c-9.23-.03-17.96-2.62-25.95-7.7-14.44-9.17-28.99-8.9-43.24.8-10.68 7.27-17.17 17.4-17.23 17.5-.1.15-.26.23-.42.23z" class="g"/><path fill="var(--color-primary-600)" d="M1189.15 1022.26c-.38 0-.75-.22-.91-.59-.08-.18-7.16-15.01-37.56-15.54-14.78-.26-23.52 3.37-31.24 6.57-8.56 3.55-15.95 6.62-28.43 2.77-22.36-6.89-41.52 5.66-41.71 5.79-.46.31-1.08.18-1.39-.28-.31-.46-.18-1.08.27-1.39.2-.13 20.12-13.21 43.41-6.04 11.79 3.63 18.54.83 27.08-2.71 7.9-3.28 16.85-6.97 32.04-6.72 31.83.56 39.06 16.07 39.36 16.73a1 1 0 01-.51 1.32c-.13.06-.27.09-.4.09z" class="d"/><path fill="var(--color-primary-200)" d="M1347.34 802.84h-1.5V550.3c0-.91-.74-1.64-1.64-1.64-2.23 0-4.09-1.6-4.43-3.8l-5.08-32.72h-3.88c-1.41 0-2.55-1.14-2.55-2.55v-4.78c0-1.4 1.14-2.55 2.55-2.55h.22l.31-1.08c.46-1.59 1.7-2.84 3.27-3.35 2.34-3.73 7.56-6.41 13.8-7.1l1.08-6.84c.15-.96.97-1.65 1.94-1.65s1.78.69 1.93 1.65l1.08 6.8c6.41.62 11.77 3.32 14.17 7.14 1.57.5 2.81 1.76 3.27 3.35l.31 1.08h.22c1.41 0 2.55 1.14 2.55 2.55v4.78c0 1.4-1.14 2.55-2.55 2.55h-3.88l-5.08 32.72c-.34 2.2-2.2 3.8-4.43 3.8-.91 0-1.64.74-1.64 1.64v245.35h-1.5V550.3c0-1.73 1.41-3.14 3.14-3.14a2.97 2.97 0 002.95-2.53l5.27-33.99h5.17c.58 0 1.05-.47 1.05-1.05v-4.78c0-.58-.47-1.05-1.05-1.05h-1.35l-.63-2.17c-.34-1.18-1.3-2.09-2.5-2.4l-.31-.08-.16-.27c-2.11-3.6-7.5-6.24-13.75-6.72l-.59-.05-1.26-7.96c-.04-.22-.23-.39-.45-.39s-.42.16-.45.39l-1.26 7.99-.58.05c-6.17.56-11.29 3.12-13.38 6.68l-.16.27-.31.08c-1.2.3-2.16 1.22-2.5 2.4l-.63 2.17h-1.35c-.58 0-1.05.47-1.05 1.05v4.78c0 .58.47 1.05 1.05 1.05h5.17l5.27 33.99a2.98 2.98 0 002.95 2.53c1.73 0 3.14 1.41 3.14 3.14v252.54z" class="h"/><path fill="var(--color-primary-400)" d="M846.72 1018.82a.94.94 0 01-.53-.16.994.994 0 01-.31-1.38c1.43-2.25 1.89-3.92 1.29-4.71-1.21-1.6-6.77-.8-10.33.27a.999.999 0 01-1.15-.45 1 1 0 01.17-1.22c1.23-1.19 4.34-4.86 4.03-7.58-.11-.99-.68-1.79-1.74-2.43-3.99-2.42-17.02 5.52-24.3 11.1a.995.995 0 01-1.37-1.43c5.01-5.98 17.67-22.67 16.13-28.07-.19-.65-.58-1.04-1.27-1.27-1.89-.62-6.73.1-17.96 11.87-6.56 6.87-12.09 14.19-12.14 14.27-.29.38-.79.5-1.22.3-.43-.2-.66-.68-.55-1.14.73-3.1 1.03-6.91.33-7.83-1 .08-4.24 3.12-7.05 6.63-.3.37-.81.48-1.24.26s-.63-.7-.51-1.16c1.19-4.28 2.06-9.54 1.45-10.89-.94.3-3.4 3.02-5.45 6.07-.25.37-.71.53-1.14.39a1 1 0 01-.69-.98c.21-7.34-.71-19.55-4.08-21.1-.32-.15-.59-.14-.89.03-2.55 1.44-4.54 11.26-5.19 17.11-.05.48-.44.85-.93.89-.47.02-.92-.28-1.04-.75-.09-.35-8.9-34.84-19.76-40.6-1.58-.84-3.07-.98-4.56-.44-10.61 3.86-2.69 36.04 1.25 48.11.13.39 0 .83-.32 1.09s-.77.29-1.13.09l-5.33-3.11c-.06-.03-.11-.07-.16-.11-5.03-4.43-6.34-3.74-6.48-3.65-1.38.95 0 7.63 2.14 13.28.17.46 0 .98-.44 1.22-.42.25-.97.15-1.28-.24-6.58-8.11-8.14-7.42-8.2-7.38-1.12.6-.25 7.1 1.83 13.63a.999.999 0 01-.65 1.26.999.999 0 01-1.26-.65c-1.34-4.23-4.11-14.25-.87-15.99 1.62-.88 3.92.34 7.38 4.04-1.17-4.13-2.04-9.26.19-10.81 1.76-1.22 4.58-.04 8.87 3.73l3.03 1.77c-1.17-3.95-3.44-12.09-4.79-20.48-2.6-16.08-.74-25.39 5.52-27.67 2.02-.74 4.1-.55 6.18.55 9.22 4.89 16.63 27.37 19.5 37.25.87-5 2.6-12.22 5.5-13.86.86-.49 1.79-.53 2.71-.11 2.55 1.17 4.14 5.33 4.87 12.73.26 2.66.35 5.22.38 7.12 1.66-2.13 3.83-4.44 5.41-4.44h.02c.61 0 1.13.3 1.47.83.99 1.56.49 5.41-.16 8.57 1.89-2.02 4.24-4.13 5.82-4.22.71-.05 1.15.26 1.41.51 1.11 1.11 1.18 3.55.95 5.77 6.26-7.87 21.96-26.27 29.87-23.67 1.31.43 2.2 1.34 2.57 2.62 1.51 5.31-6.67 17.22-12.11 24.37 6.43-4.25 16.33-9.81 20.77-7.12 1.6.97 2.51 2.29 2.69 3.92.27 2.4-1.18 4.97-2.52 6.79 3.18-.63 7.7-1.04 9.4 1.21 1.19 1.56.8 3.85-1.19 6.99-.19.3-.51.46-.85.46zM1316 896.04h-21.2c-.09 0-.17-.02-.25-.06-4.81-2.71-5.23-3.76-4.96-4.49.39-1.07 2.85-.91 4.73-.62-.84-2.46-2.91-9.23-.85-11.29.33-.33.77-.48 1.25-.41 2.26.31 5.84 5.76 7.55 8.58.11-4.75.85-16.37 5.53-16.62.94-.07 1.67.62 2.25 1.97 1.42 3.35 1.74 12.01 1.27 15.49 2.08-1.38 6.52-4.21 10.27-5.23.9-.24 1.52-.12 1.83.38.4.62.51 3.05-7.04 12.14a.51.51 0 01-.38.18zm-21.07-1h20.83c4.2-5.09 7.31-10.01 6.82-10.78-.01-.02-.2-.09-.73.05-3.89 1.05-8.81 4.32-10.43 5.39-.77.52-1.01.67-1.3.29-.14-.18-.1-.49.05-.67.5-1.18.67-13.45-1.43-16.59-.43-.64-.77-.62-.88-.62-3.9.21-4.64 12.65-4.6 17.43 0 .23-.15.43-.37.49a.504.504 0 01-.56-.24c-2.03-3.6-5.93-9.4-7.73-9.64a.46.46 0 00-.41.13c-1.46 1.46.07 7.55 1.37 11.05a.506.506 0 01-.56.67c-2.05-.38-4.18-.45-4.47-.13.03.02.2.8 4.42 3.19zm15.23-5.7zm.06-.08z" class="g"/><path fill="var(--color-primary-600)" d="M293.5 804.79h-21.49c-.28 0-.5-.22-.5-.5s.22-.5.5-.5h21.49c.28 0 .5.22.5.5s-.22.5-.5.5zM335.91 804.79h-36.14c-.28 0-.5-.22-.5-.5s.22-.5.5-.5h36.14c.28 0 .5.22.5.5s-.22.5-.5.5zM239.91 782.64h-13.93a2.34 2.34 0 01-.99-4.46l11.9-5.52c1.72-.8 3.62-1.22 5.52-1.22h1.95c2.34 0 4.55.91 6.21 2.57.73.73 1.69 1.13 2.72 1.13h10.48v1h-10.48c-1.29 0-2.51-.5-3.43-1.42a7.723 7.723 0 00-5.5-2.28h-1.95c-1.75 0-3.51.39-5.1 1.12l-11.9 5.52a1.34 1.34 0 00.56 2.56h13.93v1z" class="d"/><path fill="var(--color-primary-600)" d="M228.89 782.41c-.19 0-.37-.11-.45-.29a.504.504 0 01.24-.67l7.35-3.47c.92-.44 1.94-.67 2.96-.67h1.14c.28 0 .5.22.5.5s-.22.5-.5.5h-1.14c-.87 0-1.75.2-2.54.57l-7.35 3.47c-.07.03-.14.05-.21.05z" class="d"/><path fill="var(--color-primary-200)" d="M1166.14 764.58h-1.2v-4.83c0-.4-.33-.73-.73-.73h-14.11c-1.06 0-1.93-.87-1.93-1.93v-55.36c0-.4-.33-.73-.73-.73h-20.27c-.4 0-.73.33-.73.73v28.29h-19.23c-.4 0-.73.33-.73.73v9.96c0 1.06-.87 1.93-1.93 1.93h-8.44c-1.06 0-1.93-.87-1.93-1.93v-4.67c0-.4-.33-.73-.73-.73h-7.63c-1.06 0-1.93-.87-1.93-1.93v-26.42c0-.4-.33-.73-.73-.73h-26.82v-49.14c0-.4-.33-.73-.73-.73h-16.45v58.6h-15.34v-54.28l-17.03.02v37.52h-23.3v-1.2h22.1V659.5l19.43-.02v54.28h12.94v-58.6h17.65c1.06 0 1.93.87 1.93 1.93v47.94h25.62c1.06 0 1.93.87 1.93 1.93v26.42c0 .4.33.73.73.73h7.63c1.06 0 1.93.87 1.93 1.93v4.67c0 .4.33.73.73.73h8.44c.4 0 .73-.33.73-.73v-9.96c0-1.06.87-1.93 1.93-1.93h18.03v-27.09c0-1.06.87-1.93 1.93-1.93h20.27c1.06 0 1.93.87 1.93 1.93v55.36c0 .4.33.73.73.73h14.11c1.06 0 1.93.87 1.93 1.93v4.83z" class="h"/><path fill="var(--color-primary-600)" d="M1277.36 789.63h-1v-24.56l1-.02v24.58z" class="d"/><path fill="var(--color-primary-50)" d="M1266.61 993.02s-27.52-39.79-45.48-35.91c-17.96 3.89 45.48 35.91 45.48 35.91z" class="e"/><path fill="var(--color-primary-600)" d="M1266.61 993.52c-.08 0-.15-.02-.23-.05-5.12-2.59-50.03-25.52-48.94-34.07.17-1.37 1.38-2.3 3.58-2.78 7.63-1.65 17.71 3.95 29.94 16.64 9.05 9.38 15.99 19.38 16.06 19.47.13.19.12.44-.03.61-.1.11-.24.17-.38.17zm-42.91-36.18c-.84 0-1.66.08-2.47.26-1.74.38-2.68 1.02-2.8 1.93-.81 6.37 31.75 24.51 46.57 32.12-5.18-7.08-26.07-34.3-41.31-34.3z" class="d"/><path fill="var(--color-primary-50)" d="M1266.42 984.98s2.49-33.91-6.85-31.2c-9.34 2.72 6.85 31.2 6.85 31.2z" class="e"/><path fill="var(--color-primary-600)" d="M1266.42 985.48c-.18 0-.34-.09-.43-.25-.51-.89-12.36-21.89-9.31-29.41.52-1.29 1.45-2.14 2.76-2.52 1.28-.37 2.44-.15 3.43.65 5.91 4.79 4.13 29.99 4.05 31.06a.5.5 0 01-.39.45c-.04 0-.07.01-.11.01zm-5.82-31.35c-.28 0-.58.04-.89.13-1.01.29-1.7.93-2.11 1.93-2.42 5.96 5.73 22 8.42 27.02.3-5.85.88-24.7-3.79-28.48-.5-.4-1.04-.61-1.64-.61z" class="d"/><path fill="var(--color-primary-50)" d="M1390.32 1014.43s14.26-68.82-13.07-80.67c-27.33-11.85 13.07 80.67 13.07 80.67z" class="e"/><path fill="var(--color-primary-600)" d="M1390.32 1014.93c-.2 0-.38-.12-.46-.3-1.26-2.88-30.69-70.69-20.37-81.04 1.73-1.74 4.41-1.83 7.97-.29 11.54 5 17.28 20.22 17.08 45.24-.15 18.52-3.69 35.82-3.73 35.99-.04.21-.22.37-.44.4h-.05zm-17.28-81.71c-1.18 0-2.13.36-2.85 1.08-4.03 4.04-1.77 19.1 6.53 43.56 5.25 15.47 11.43 30.24 13.41 34.88 1.9-10.37 11.27-67.96-13.08-78.52-1.54-.67-2.88-1-4.01-1z" class="d"/><path fill="var(--color-primary-50)" d="M1380.44 1006.95s-13.86-39.13-34.69-47.75c-20.82-8.62 2.88 27.35 34.69 47.75z" class="e"/><path fill="var(--color-primary-600)" d="M1380.44 1007.45a.53.53 0 01-.27-.08c-24.5-15.72-45.85-41.92-42.41-48.52 1-1.91 3.75-1.94 8.18-.11 10.89 4.51 19.82 17.35 25.4 27.32 6.02 10.77 9.53 20.62 9.57 20.72.07.2 0 .43-.16.56a.51.51 0 01-.31.11zm-39.77-49.05c-1.02 0-1.71.3-2.02.91-2.79 5.34 16.59 30.44 40.79 46.39-2.73-7.08-15.73-38.53-33.88-46.04-2.04-.84-3.69-1.27-4.89-1.27z" class="d"/><path fill="var(--color-primary-50)" d="M1398.55 992.24s14.37-20.98 11.12-34.39-12.5 11.29-11.12 34.39z" class="e"/><path fill="var(--color-primary-600)" d="M1398.55 992.74s-.09 0-.13-.02a.513.513 0 01-.37-.45c-1.07-17.88 4.3-38.01 8.88-38.69 1.42-.21 2.5 1.19 3.22 4.16 3.26 13.48-10.6 33.93-11.2 34.79a.49.49 0 01-.41.22zm8.63-38.18h-.1c-3.18.48-8.85 17.65-8.11 36.11 3-4.74 12.92-21.54 10.21-32.71-.53-2.18-1.25-3.41-2-3.41z" class="d"/><path fill="var(--color-primary-50)" d="M1337.61 815.79s-12.65-26.22-23.69-25.58c-11.04.64 23.69 25.58 23.69 25.58z" class="e"/><path fill="var(--color-primary-400)" d="M1337.61 816.29c-.1 0-.2-.03-.29-.09-2.82-2.02-27.48-19.92-26-25.03.26-.89 1.12-1.38 2.56-1.46.14 0 .28-.01.43-.01 11.13 0 23.23 24.81 23.75 25.88.1.21.05.45-.13.6a.49.49 0 01-.32.12zm-23.29-25.6c-.12 0-.25 0-.37.01-.98.06-1.54.31-1.66.74-.92 3.16 13.55 15.1 23.93 22.71-3.07-5.83-13.09-23.47-21.9-23.47z" class="g"/><path fill="var(--color-primary-50)" d="M1339.61 809.15s1.5-20.41-4.12-18.77c-5.62 1.63 4.12 18.77 4.12 18.77z" class="e"/><path fill="var(--color-primary-400)" d="M1339.61 809.65c-.18 0-.34-.09-.43-.25-.31-.54-7.48-13.26-5.61-17.87.34-.84.94-1.39 1.79-1.63.83-.24 1.6-.09 2.25.43 3.58 2.9 2.63 17.23 2.51 18.86a.5.5 0 01-.39.45c-.04 0-.07.01-.11.01zm-3.5-18.87c-.15 0-.31.02-.48.07-.54.16-.92.5-1.14 1.05-1.24 3.04 2.45 11.15 4.72 15.47.23-5.07.13-14.35-2.24-16.27-.27-.22-.55-.32-.86-.32z" class="g"/><path fill="var(--color-primary-50)" d="M1416.86 823.69s8.58-41.41-7.86-48.54c-16.44-7.13 7.86 48.54 7.86 48.54z" class="e"/><path fill="var(--color-primary-400)" d="M1416.86 824.29c-.24 0-.45-.14-.55-.36-1.91-4.37-18.44-42.83-12.2-49.09 1.13-1.14 2.86-1.22 5.12-.24 7.06 3.06 10.58 12.31 10.46 27.5-.09 11.17-2.23 21.61-2.25 21.71-.05.26-.27.45-.53.47h-.06zm-10.39-49.17c-.63 0-1.13.19-1.51.56-4.57 4.58 6.23 33.16 11.67 45.95 1.42-8.2 5.94-39.95-7.87-45.94-.89-.39-1.65-.58-2.29-.58z" class="g"/><path fill="var(--color-primary-50)" d="M1410.92 819.19s-8.34-23.55-20.87-28.73c-12.53-5.18 1.73 16.46 20.87 28.73z" class="e"/><path fill="var(--color-primary-400)" d="M1410.92 819.79a.62.62 0 01-.32-.09c-12.71-8.15-28.11-24.83-25.62-29.59.68-1.31 2.47-1.38 5.3-.2 12.63 5.23 20.86 28.11 21.21 29.08.09.24 0 .51-.19.67-.11.09-.24.13-.37.13zm-23.93-29.52c-.48 0-.81.13-.95.39-1.44 2.75 8.76 16.95 23.65 27-2.2-5.5-9.69-22.44-19.87-26.65-1.19-.49-2.16-.74-2.83-.74z" class="g"/><path fill="var(--color-primary-600)" d="M1275.97 221.89c-.24 0-.47-.08-.67-.25-.41-.37-.45-1-.08-1.41.3-.33 29.87-33.65 35.14-50.2 6.27-19.68-1.03-34.97-9.18-42.08-13.9-12.12-35.88-12.03-36.12-12.05a1 1 0 01-1-.99c0-.55.44-1 .99-1.01.94-.01 22.97-.09 37.46 12.54 8.61 7.51 16.34 23.59 9.77 44.19-5.4 16.95-34.32 49.54-35.55 50.92-.2.22-.47.33-.75.33z" class="d"/><path fill="var(--color-primary-600)" d="M1272.07 221.4c-.08 0-.16-.02-.24-.06a.504.504 0 01-.2-.68c.23-.42 22.67-41.99 25.03-58.7 1.06-7.47 2.29-26-9.05-36.63-8.54-8-22.5-9.92-22.64-9.94a.503.503 0 01-.43-.56c.04-.28.29-.47.56-.43.14.02 14.41 1.97 23.19 10.2 11.68 10.95 10.43 29.87 9.35 37.5-2.39 16.89-24.92 58.62-25.14 59.04a.49.49 0 01-.44.26z" class="d"/><path fill="var(--color-primary-600)" d="M1254.44 221.93a.98.98 0 01-.74-.33c-1.23-1.37-30.28-33.85-35.75-50.78-6.64-20.58 1.03-36.69 9.61-44.23 14.13-12.42 35.55-12.68 37.33-12.68h.09c.55 0 1 .45.99 1.01 0 .55-.45.99-1 .99h-.02c-.62 0-22.34.12-36.07 12.18-8.13 7.14-15.37 22.45-9.02 42.11 5.33 16.53 35.03 49.73 35.33 50.06.37.41.33 1.04-.08 1.41-.19.17-.43.26-.67.26z" class="d"/><path fill="var(--color-primary-600)" d="M1258.34 221.43a.49.49 0 01-.44-.26c-.23-.42-23.09-42.08-25.54-58.96-1.11-7.62-2.43-26.54 9.21-37.53 8.75-8.26 23.19-10.25 23.33-10.27.26-.04.52.16.56.43.04.27-.16.52-.43.56-.14.02-14.27 1.97-22.77 10-11.3 10.67-10 29.19-8.91 36.66 2.43 16.7 25.2 58.21 25.43 58.62.13.24.04.55-.2.68-.08.04-.16.06-.24.06z" class="d"/><path fill="var(--color-primary-600)" d="M1262.44 221.43c-.23 0-.44-.16-.49-.4-.09-.43-8.66-43.07-10.14-60.05-1.37-15.56-.43-26.63 2.93-34.81 3.15-7.65 9.7-11.54 9.97-11.7.16-.09.35-.09.51 0 .28.17 6.88 4.1 10.03 11.64 3.41 8.16 4.39 19.22 3.11 34.79-1.4 16.99-9.75 59.67-9.83 60.1a.49.49 0 01-.59.39.495.495 0 01-.39-.59c.08-.43 8.42-43.06 9.82-59.99 1.27-15.41.3-26.32-3.04-34.33-2.71-6.49-8.13-10.23-9.36-11.01-1.22.78-6.61 4.51-9.3 11.06-3.26 7.92-4.19 19.15-2.86 34.34 1.48 16.92 10.04 59.51 10.13 59.94.05.27-.12.53-.39.59h-.1zM1259.76 235.5h-1.9l1.06-7.25-6.78-8.7h2.34l6.32 8.42-1.04 7.53zM1272.51 235.5h-1.9l-1.04-7.53 6.33-8.42h2.33l-6.77 8.7 1.05 7.25z" class="d"/><path fill="var(--color-primary-600)" d="M1260.038 228.745l.008-1 10.2.087-.009 1zM1272.01 235.47l-1.84 9.04c-.19.95-1.09 1.63-2.14 1.63h-.03l-5.45-.07c-1.02-.01-1.89-.67-2.1-1.59l-2.07-9.02h13.63m0-1.5h-13.63c-.46 0-.89.21-1.17.57s-.39.82-.29 1.27l2.07 9.02c.37 1.6 1.82 2.73 3.54 2.75l5.45.07h.05c1.76 0 3.28-1.19 3.61-2.83l1.84-9.04c.09-.44-.02-.9-.31-1.25-.28-.35-.71-.55-1.16-.55zM1275.96 221.89h-21.58c-.55 0-1-.45-1-1s.45-1 1-1h21.58c.55 0 1 .45 1 1s-.45 1-1 1z" class="d"/><path fill="var(--color-primary-400)" d="M369.09 919.12c-.18 0-.35-.02-.53-.05l-2.3-.48c-.66-.14-1.23-.53-1.6-1.09s-.5-1.24-.36-1.91l25.35-120.71h-35.92v-1.5h37.77l-.19.9-25.54 121.61c-.06.27 0 .55.15.78.15.23.38.39.65.45l2.3.48c.27.06.55 0 .78-.15s.39-.38.45-.65l2.66-12.67h48.68l2.61 12.4c.07.34.27.64.56.83.29.19.64.26.98.18l1.77-.37c.71-.15 1.16-.84 1.01-1.55L402.7 793.37h16.62c.26 0 .46-.21.46-.46v-9.55c0-.26-.21-.46-.46-.46h-63.54v-1.5h63.54c1.08 0 1.96.88 1.96 1.96v9.55c0 1.08-.88 1.96-1.96 1.96h-14.77l25.3 120.44c.32 1.51-.66 3.01-2.17 3.32l-1.77.37c-.73.16-1.48.01-2.11-.4a2.765 2.765 0 01-1.21-1.77l-2.35-11.21h-46.25l-2.41 11.48c-.14.66-.53 1.23-1.09 1.6-.42.27-.89.41-1.38.41zm51.42-19.42h-46.83l.19-.9 22.14-105.43h2.16l.13.6 22.21 105.74zm-44.98-1.5h43.13L397.1 795.52 375.53 898.2zM266.29 794.87H.19v-1.5h266.1v1.5zm-1.86-11.98H.19v-1.5h264.24v1.5zM343.03 853.03H237.24c-.79 0-1.43-.64-1.43-1.43v-5.19c0-.79.64-1.43 1.43-1.43h105.79c.79 0 1.43.64 1.43 1.43v5.19c0 .79-.64 1.43-1.43 1.43zm-105.72-1.5h105.64v-5.04H237.31v5.04zM343.47 762.37a.76.76 0 01-.72-.53l-4.41-14.15a161.474 161.474 0 00-16.51-36.35c-4.1-6.67-10.09-11.79-17.32-14.79-7.27-3.02-15.48-3.63-23.12-1.72l-2.47.62c-12.76 3.19-24.51 8.88-34.93 16.91l-27.57 21.25a.749.749 0 11-.91-1.19l27.57-21.25a95.801 95.801 0 0135.48-17.18l2.47-.62c7.95-1.99 16.49-1.35 24.05 1.79 7.53 3.12 13.76 8.45 18.03 15.39a162.776 162.776 0 0116.67 36.69l4.41 14.15c.12.4-.1.82-.49.94-.07.02-.15.03-.22.03z" class="g"/><path fill="var(--color-primary-400)" d="M349.68 799.46h-55.45a4.359 4.359 0 01-4.28-5.2l5.95-30.13c.4-2.04 2.2-3.52 4.28-3.52h55.45a4.359 4.359 0 014.28 5.2l-5.95 30.13c-.4 2.04-2.2 3.52-4.28 3.52zm-49.5-36.85c-1.12 0-2.1.8-2.31 1.9l-5.95 30.13c-.14.7.04 1.41.49 1.96s1.11.86 1.82.86h55.45c1.12 0 2.1-.8 2.31-1.9l5.95-30.13c.14-.7-.04-1.41-.49-1.96s-1.11-.86-1.82-.86h-55.45z" class="g"/><path fill="var(--color-primary-200)" d="M294.37 795.17h-.05a.255.255 0 01-.2-.29l6.08-30.56a.25.25 0 01.29-.2c.14.03.22.16.2.29l-6.08 30.56c-.02.12-.13.2-.25.2z" class="h"/><path fill="var(--color-primary-600)" d="M287.61 679.46c-3.98 0-7.72-1.55-10.53-4.36l-.07-.07c-1.26-1.26-2.26-2.74-2.69-3.97l.95-.33c.38 1.09 1.29 2.43 2.45 3.59l.07.07c2.62 2.62 6.11 4.07 9.82 4.07 2.12 0 4.11-.83 5.61-2.32 3.81-3.81 5.91-8.88 5.91-14.26v-1.01c0-4.71-1.83-9.14-5.17-12.47l-.15-.15v-.21c0-1.86-.72-3.61-2.04-4.92a6.87 6.87 0 00-4.88-2.02h-20.77c-.44 0-.87.06-1.3.16a5.222 5.222 0 00-3.93 5.07v1.92c0 1.7.66 3.3 1.86 4.5l1.17 1.17c.55.55.85 1.27.85 2.05v8.73h-1v-8.73c0-.51-.2-.98-.56-1.34l-1.17-1.17a7.322 7.322 0 01-2.16-5.21v-1.92c0-2.85 1.93-5.33 4.69-6.04.51-.13 1.03-.2 1.55-.2h20.77c2.11 0 4.09.82 5.59 2.31a7.859 7.859 0 012.33 5.42 18.5 18.5 0 015.32 13.03v1.01c0 5.66-2.2 10.97-6.2 14.97a8.872 8.872 0 01-6.32 2.62z" class="d"/><path fill="var(--color-primary-400)" d="M897.15 814.08l-.94-1.17c6.52-5.24 13.03-8.75 13.09-8.78 31.46-13.04 62.66-7.53 90.18-2.66 28.42 5.03 55.27 9.78 77.51-6.32 34.96-25.3 82.58-31.15 114.27-25.72l-.25 1.48c-31.38-5.38-78.53.41-113.13 25.46-22.76 16.47-49.91 11.67-78.65 6.59-28.66-5.07-58.29-10.31-89.28 2.53 0 0-6.38 3.44-12.79 8.6z" class="g"/><path fill="var(--color-primary-600)" d="M1268.52 716.54h-.15a2.34 2.34 0 01-1.66-.84l-1.23-1.46c-.32-.39-.82-.58-1.32-.55-.61.06-1.22-.19-1.62-.65l-.21-.24c-.42-.47-.58-1.11-.45-1.72l1.28-5.78c.33-1.5.26-3.06-.22-4.52l-1.81-5.58.95-.31 1.81 5.58c.53 1.63.61 3.37.24 5.04l-1.28 5.78c-.07.3.01.61.22.84l.21.24c.2.22.49.34.79.32.84-.07 1.64.27 2.17.9l1.23 1.46c.24.29.58.46.96.48.37.03.73-.1 1.01-.36l.86-.79c.24-.22.51-.39.81-.5l1.19-.46c.49-.19.84-.6.95-1.11l.17-.8c.15-.72.61-1.33 1.25-1.69.46-.26.76-.72.79-1.25.08-1.32-.38-2.55-1.25-3.45l-3.67-3.78c-.71-.73-1.12-1.7-1.16-2.71l-.15-3.97 1-.04.15 3.97c.03.77.34 1.5.88 2.05l3.67 3.78c1.06 1.1 1.62 2.6 1.53 4.13-.05.94-.54 1.72-1.3 2.14-.39.21-.66.59-.76 1.02l-.17.8c-.18.84-.77 1.53-1.57 1.84l-1.19.46c-.18.07-.35.17-.49.3l-.86.79c-.44.41-1 .63-1.6.63z" class="d"/><path fill="var(--color-primary-400)" d="M1182.67 624.5c-.2 0-.39-.12-.46-.32-.59-1.5-1.36-2.53-2.4-3.69l-5.54-6.16a4.35 4.35 0 01-.81-4.57l.38-.94.81-2.84c.08-.29.13-.59.13-.9l.02-2.18c0-.8.22-1.6.6-2.3l1.21-2.2c.15-.28.45-.42.76-.37.31.05.55.29.6.6l1.64 9.77c.08.45.46.77.92.77h.28c.34 0 .65-.18.81-.48l1.24-2.27 1.9-3.76c.28-.55.78-.96 1.37-1.13a2.02 2.02 0 011.61.21c.95.58 1.29 1.8.76 2.78l-.6 1.11c-.66 1.23-1.06 2.55-1.18 3.93l-.55 6.07.23.88c.47 1.78.83 2.77 1.9 4.29.16.23.1.54-.12.7a.51.51 0 01-.7-.12c-1.15-1.63-1.56-2.74-2.05-4.61l-.27-1.05.57-6.24c.14-1.52.58-2.97 1.3-4.32l.6-1.11c.27-.51.1-1.15-.4-1.45-.24-.14-.53-.18-.81-.1-.32.09-.6.32-.75.62l-1.91 3.77-1.25 2.28c-.34.62-.99 1-1.69 1h-.28c-.94 0-1.74-.68-1.9-1.61l-1.51-9-.83 1.51c-.31.56-.47 1.19-.48 1.83l-.02 2.18c0 .4-.06.79-.17 1.17l-.83 2.89-.4.99c-.48 1.21-.25 2.56.62 3.52l5.54 6.16c1.09 1.21 1.95 2.35 2.59 3.99.1.26-.02.55-.28.65-.06.02-.12.04-.18.04zm-5.19-25.62zM1265.26 696.62c-3.03 0-5.38-1.3-5.42-1.33l-.26-.15-.09-.29-13.72-45.54-13.24-24.95-4.94-9.55a.746.746 0 01.32-1.01c.37-.19.82-.05 1.01.32l4.93 9.54 13.33 25.14 13.65 45.31c1.12.55 5.57 2.38 9.49-.78l-5.73-41.83a59.236 59.236 0 00-4.42-15.7l-15.64-35.75a10.89 10.89 0 00-6.11-5.79c-2.59-.98-5.37-.88-7.82.27a10.229 10.229 0 00-4.86 4.77.74.74 0 01-1 .34.74.74 0 01-.34-1c1.19-2.43 3.11-4.32 5.57-5.47 2.82-1.33 6.01-1.44 8.99-.32 3.09 1.16 5.63 3.57 6.95 6.6l15.64 35.75a60.828 60.828 0 014.53 16.09l5.84 42.64-.3.27c-2.1 1.85-4.37 2.41-6.36 2.41z" class="g"/><g><path fill="var(--color-primary-200)" d="M1154.84 583.87c-1.34 0-2.68-.01-4.01-.04-.41 0-.74-.35-.74-.76s.38-.76.76-.74c1.32.03 2.65.04 3.99.04.41 0 .75.34.75.75s-.34.75-.75.75zM1142.87 583.52h-.04c-2.67-.16-5.35-.37-7.98-.63a.75.75 0 01-.67-.82.75.75 0 01.82-.67c2.61.26 5.27.47 7.92.63.41.02.73.38.71.79-.02.4-.35.71-.75.71zm-15.87-1.59h-.11c-2.65-.38-5.31-.83-7.9-1.32a.758.758 0 01-.6-.88.75.75 0 01.88-.6c2.57.49 5.21.93 7.83 1.31.41.06.7.44.64.85-.05.37-.37.64-.74.64zm-15.66-3.01c-.06 0-.12 0-.18-.02-2.62-.64-5.22-1.34-7.74-2.09a.744.744 0 01-.5-.93c.12-.4.53-.62.93-.5 2.49.75 5.07 1.44 7.66 2.07a.75.75 0 01-.18 1.48zm-15.27-4.59c-.08 0-.17-.01-.26-.04-2.56-.93-5.06-1.93-7.45-2.98a.76.76 0 01-.39-.99.76.76 0 01.99-.39c2.36 1.03 4.83 2.02 7.36 2.94.39.14.59.57.45.96-.11.3-.4.49-.71.49zm-14.59-6.41a.73.73 0 01-.35-.09 97.284 97.284 0 01-6.96-4.01.754.754 0 01-.23-1.04c.22-.35.68-.46 1.04-.23 2.18 1.38 4.48 2.71 6.85 3.95.37.19.51.65.32 1.01-.13.26-.39.4-.67.4zm-13.45-8.54c-.16 0-.32-.05-.46-.16a76.9 76.9 0 01-6.12-5.22.755.755 0 01-.03-1.06c.29-.3.76-.31 1.06-.03 1.86 1.77 3.88 3.49 6 5.12.33.25.39.72.14 1.05-.15.19-.37.29-.6.29zm-27.11-8.64c-1.09 0-2.19-.02-3.29-.05a.756.756 0 01-.73-.77c.01-.41.32-.74.77-.73 2.65.08 5.31.06 7.92-.05.4-.05.76.3.78.72.02.41-.3.76-.72.78-1.57.07-3.16.1-4.74.1zm-11.22-.56h-.08c-2.66-.26-5.34-.62-7.95-1.07-.41-.07-.68-.46-.61-.87s.46-.68.87-.61c2.58.44 5.22.79 7.85 1.06a.75.75 0 01-.08 1.5zm23.88-.17c-.38 0-.7-.28-.74-.66-.05-.41.25-.78.66-.83.84-.1 1.68-.21 2.52-.33l-.07-.07a58.99 58.99 0 01-4.71-6.55c-.22-.35-.11-.81.25-1.03s.81-.11 1.03.25c1.35 2.18 2.89 4.33 4.59 6.39.21.25.22.59.07.85 1.4-.22 2.78-.46 4.14-.73.39-.08.8.18.88.59.08.41-.18.8-.59.88-2.58.51-5.25.94-7.94 1.25h-.09zm-39.59-2.51c-.06 0-.12 0-.18-.02-2.61-.64-5.21-1.38-7.72-2.2a.754.754 0 01-.48-.95c.13-.39.55-.61.95-.48 2.48.81 5.04 1.54 7.62 2.17a.75.75 0 01-.18 1.48zm55.21-.63c-.32 0-.62-.21-.72-.54-.12-.4.11-.81.51-.93 2.58-.76 5.09-1.63 7.46-2.59.38-.16.82.03.98.41.16.38-.03.82-.41.98-2.42.98-4.98 1.87-7.6 2.64-.07.02-.14.03-.21.03zm-70.37-4.32c-.1 0-.19-.02-.29-.06a91.6 91.6 0 01-7.28-3.4.746.746 0 01-.32-1.01c.19-.36.64-.51 1.01-.32 2.3 1.2 4.71 2.32 7.17 3.35a.75.75 0 01-.29 1.44zm85.1-1.71a.76.76 0 01-.66-.39c-.2-.36-.07-.82.3-1.02a56.82 56.82 0 006.62-4.25.75.75 0 01.9 1.2 57.592 57.592 0 01-6.79 4.36c-.11.06-.24.09-.36.09zm-99.23-5.65c-.14 0-.28-.04-.4-.12a86.677 86.677 0 01-6.57-4.64.738.738 0 01-.13-1.05c.25-.33.72-.39 1.05-.13 2.09 1.62 4.26 3.15 6.46 4.56a.756.756 0 01-.4 1.39zm63.51-.34c-.29 0-.57-.17-.69-.46-.64-1.51-1.21-3.06-1.69-4.62-.3-.97-.59-2-.85-3.06-.1-.4.14-.81.55-.91.4-.1.81.14.91.55.26 1.03.53 2.03.83 2.97.47 1.51 1.02 3.01 1.64 4.48a.75.75 0 01-.69 1.04zm48.39-3.59a.755.755 0 01-.55-1.27c1.84-1.93 3.46-4 4.83-6.15.22-.35.69-.45 1.04-.23s.45.69.23 1.04c-1.42 2.23-3.1 4.38-5 6.38-.15.15-.34.23-.54.23zm-124.49-5.82c-.18 0-.36-.07-.51-.2a95.31 95.31 0 01-5.67-5.7.746.746 0 01.05-1.06c.31-.28.78-.26 1.06.05 1.79 1.95 3.67 3.84 5.58 5.61.3.28.32.76.04 1.06-.15.16-.35.24-.55.24zm72.17-5.99c-.37 0-.7-.28-.74-.66-.33-2.66-.51-5.37-.54-8.04 0-.41.33-.75.74-.76.41 0 .75.33.75.74.03 2.62.21 5.26.52 7.87.05.41-.24.79-.65.84h-.09zm60.81-1.56a.737.737 0 01-.69-1.02c.94-2.4 1.71-4.93 2.26-7.51.09-.4.49-.66.89-.57.41.09.66.49.58.89-.57 2.66-1.36 5.27-2.33 7.75-.12.29-.4.48-.7.48zm-143.76-4.19c-.22 0-.44-.1-.59-.29-1.62-2.08-3.2-4.28-4.69-6.52a.753.753 0 01.21-1.04c.35-.23.81-.14 1.04.21 1.47 2.21 3.03 4.37 4.63 6.43.25.33.2.8-.13 1.05-.14.11-.3.16-.46.16zm82.8-10.17h-.08a.751.751 0 01-.66-.83c.31-2.77.8-5.44 1.46-7.95.11-.4.52-.64.92-.54.4.11.64.52.54.92a54.04 54.04 0 00-1.42 7.73c-.04.38-.37.67-.74.67zm64.3-1.17h-.04a.75.75 0 01-.71-.79c.03-.71.05-1.42.05-2.12 0-1.95-.13-3.86-.4-5.69-.06-.41.22-.79.63-.85.4-.06.79.22.85.63.27 1.9.41 3.89.41 5.9 0 .73-.02 1.46-.05 2.2-.02.4-.35.71-.75.71zm-60.17-14.17c-.11 0-.22-.02-.32-.07a.762.762 0 01-.36-1c1.21-2.54 2.65-4.86 4.3-6.9a.747.747 0 111.16.94 33.124 33.124 0 00-4.11 6.6c-.13.27-.4.43-.68.43zm57.76-1.48c-.3 0-.58-.18-.69-.47-1-2.47-2.32-4.7-3.92-6.65a.758.758 0 01.1-1.06c.32-.26.79-.22 1.06.1 1.69 2.06 3.09 4.43 4.15 7.04.16.38-.03.82-.41.98-.09.04-.19.06-.28.06zm-47.77-10.72c-.24 0-.47-.11-.61-.32a.753.753 0 01.18-1.05c.19-.13.38-.27.58-.4 2-1.35 4.23-2.49 6.63-3.4.38-.15.82.05.97.44a.75.75 0 01-.44.97c-2.29.87-4.42 1.96-6.32 3.24-.18.12-.37.25-.55.38a.76.76 0 01-.43.14zm37.78-1.37c-.14 0-.28-.04-.4-.12-2.12-1.35-4.49-2.42-7.06-3.19a.744.744 0 01-.5-.93c.12-.4.53-.62.93-.5 2.69.81 5.19 1.94 7.43 3.37a.756.756 0 01-.4 1.39zm-23.04-4.33c-.37 0-.69-.27-.74-.64-.06-.41.22-.79.63-.85 2.68-.4 5.42-.51 8.11-.35.41.03.73.38.7.8-.03.41-.4.73-.79.7-2.58-.16-5.22-.05-7.8.33h-.11zM952.47 500.32c-.26 0-.52-.14-.65-.38-.66-1.17-1.3-2.36-1.91-3.54a.746.746 0 01.32-1.01c.37-.19.82-.05 1.01.32.6 1.17 1.24 2.34 1.89 3.49.2.36.08.82-.29 1.02a.71.71 0 01-.37.1z" class="h"/></g><g><path fill="var(--color-primary-200)" d="M343.16 643.02c-.19 0-.38-.07-.53-.22a.754.754 0 010-1.06c.72-.71 1.43-1.42 2.16-2.11.3-.29.77-.28 1.06.02.29.3.28.77-.02 1.06-.71.68-1.42 1.38-2.13 2.08-.15.15-.34.22-.53.22zM411.93 665.81c-.06 0-.12 0-.18-.02-1.89-.47-3.77-1.26-5.57-2.37-.35-.22-.46-.68-.25-1.03s.68-.46 1.03-.25c1.67 1.03 3.4 1.77 5.14 2.19.4.1.65.51.55.91-.08.34-.39.57-.73.57zm9.58-.57c-.31 0-.59-.19-.71-.49a.75.75 0 01.45-.96c1.71-.62 3.37-1.52 4.94-2.67a.752.752 0 01.89 1.21c-1.69 1.24-3.48 2.2-5.32 2.87-.08.03-.17.04-.26.04zm-22.05-8.3c-.23 0-.45-.1-.6-.29-1.2-1.58-2.27-3.28-3.18-5.06-.19-.37-.04-.82.33-1.01s.82-.04 1.01.33c.86 1.7 1.88 3.33 3.03 4.83.25.33.19.8-.14 1.05-.14.1-.3.15-.45.15zm33.65-1.67a.74.74 0 01-.64-1.13c.99-1.68 1.73-3.42 2.21-5.18.11-.4.52-.63.92-.53.4.11.64.52.53.92-.51 1.89-1.31 3.75-2.37 5.55-.14.24-.39.37-.65.37zm-39.58-12.56c-.38 0-.7-.29-.75-.67-.11-.98-.16-1.99-.16-3.02 0-.97.05-1.97.15-2.97.04-.41.4-.73.82-.67.41.04.71.41.67.82-.09.95-.14 1.9-.14 2.83 0 .97.05 1.93.15 2.86.04.41-.25.78-.67.83h-.08zm41.92-2.44c-.34 0-.64-.23-.73-.57-.43-1.75-1.11-3.52-2.02-5.28a.746.746 0 01.32-1.01c.37-.19.82-.05 1.01.32.96 1.86 1.69 3.75 2.15 5.61.1.4-.15.81-.55.91-.06.01-.12.02-.18.02zm-82.85-5.83c-.22 0-.43-.09-.58-.28a.738.738 0 01.11-1.05c1.53-1.25 3.09-2.47 4.64-3.61.33-.25.8-.17 1.05.16s.18.8-.16 1.05c-1.53 1.13-3.08 2.33-4.58 3.57-.14.11-.31.17-.47.17zm43.17-7.02c-.09 0-.17-.01-.26-.05a.74.74 0 01-.44-.96c.67-1.8 1.48-3.62 2.41-5.42.19-.37.64-.52 1.01-.32.37.19.51.64.32 1.01-.9 1.75-1.69 3.52-2.34 5.26-.11.3-.4.49-.7.49zm31.94-.5c-.2 0-.4-.08-.55-.24a43.606 43.606 0 00-4.19-3.94.757.757 0 01-.1-1.06c.27-.32.74-.36 1.06-.1 1.54 1.28 3 2.65 4.33 4.08.28.3.27.78-.04 1.06-.14.13-.33.2-.51.2zm-62.4-1.5c-.25 0-.5-.13-.64-.36-.21-.35-.1-.82.25-1.03 1.7-1.03 3.42-2.01 5.13-2.9.37-.19.82-.05 1.01.32.19.37.05.82-.32 1.01-1.68.88-3.38 1.84-5.05 2.86-.12.07-.26.11-.39.11zm13.96-6.91c-.3 0-.59-.18-.7-.48-.15-.39.04-.82.43-.97 1.88-.72 3.76-1.35 5.6-1.89a.75.75 0 11.42 1.44c-1.8.52-3.64 1.15-5.48 1.85-.09.03-.18.05-.27.05zm36.03-.89c-.11 0-.22-.02-.32-.07-1.69-.8-3.49-1.46-5.36-1.96a.75.75 0 11.39-1.45c1.95.52 3.84 1.21 5.61 2.05.38.18.54.62.36 1-.13.27-.4.43-.68.43zm-20.96-2.94c-.38 0-.7-.28-.74-.66-.05-.41.25-.78.66-.83 1.89-.22 3.76-.33 5.56-.33h.36c.41 0 .75.34.74.76 0 .41-.34.74-.75.74h-.36c-1.75 0-3.56.11-5.39.32h-.09zm9-.84a.75.75 0 01-.6-1.2 64.13 64.13 0 013.75-4.58c.28-.31.75-.34 1.06-.06.31.28.33.75.06 1.06a66.196 66.196 0 00-3.66 4.47c-.15.2-.37.3-.6.3zm10.67-11.33c-.21 0-.42-.09-.57-.26a.756.756 0 01.08-1.06c1.49-1.27 3.05-2.5 4.64-3.65.33-.25.81-.17 1.05.17s.17.8-.17 1.05a71.585 71.585 0 00-4.55 3.58c-.14.12-.31.18-.49.18zm12.86-8.77c-.27 0-.53-.14-.66-.4a.743.743 0 01.31-1.01c1.75-.93 3.55-1.79 5.34-2.54.38-.16.82.02.98.4a.75.75 0 01-.4.98c-1.75.74-3.51 1.57-5.22 2.48a.73.73 0 01-.35.09zm14.53-5.54c-.34 0-.65-.23-.73-.58-.1-.4.15-.81.56-.9 1.91-.45 3.87-.81 5.83-1.07.42-.05.79.24.84.65.05.41-.24.79-.65.84-1.9.25-3.81.6-5.67 1.04-.06.01-.12.02-.17.02zm21.3-1.05h-.09a66.33 66.33 0 00-5.76-.46c-.41-.01-.74-.36-.73-.77s.39-.71.77-.73c1.95.06 3.93.22 5.9.47a.753.753 0 01-.09 1.5zM475.17 589.91a.62.62 0 01-.23-.04c-.86-.27-1.81-.56-2.85-.84a.75.75 0 11.39-1.45c1.06.29 2.03.58 2.9.86.39.12.61.55.49.94-.1.32-.4.52-.71.52z" class="h"/></g><path fill="var(--color-primary-400)" d="M1212.35 692.35c-3.47 0-6.85-1.36-9.37-3.88a11.639 11.639 0 01-2.93-11.56l4.25-27.63.59-10.72 1.5.08-.6 10.79-4.29 27.86c-1.08 3.59-.11 7.47 2.54 10.12 3.02 3.02 7.44 4.16 11.55 2.99l27.36-7.85c.12-.03.22-.11.28-.22a.48.48 0 00.04-.35l-5.5-18.38a22.165 22.165 0 011.02-15.42l3.08-6.83 1.37.62-3.08 6.83a20.532 20.532 0 00-.95 14.37l5.5 18.38c.15.51.1 1.04-.16 1.5-.25.46-.67.8-1.18.95l-27.36 7.85c-1.2.35-2.43.51-3.65.51z" class="g"/></g></svg>