<svg id="empty--non--filtered--invoices" xmlns="http://www.w3.org/2000/svg" viewBox="0 0 224 224"><g fill="none" fill-rule="evenodd"><path fill="var(--color-primary-100)" d="M203.665 66.351l-36.683 9.83 9.83-36.684c-12.67-3.382-26.748-.114-36.687 9.826-14.833 14.833-14.833 38.882 0 53.714 14.833 14.833 38.881 14.833 53.714 0 9.94-9.94 13.208-24.016 9.826-36.686"/><path fill="var(--color-primary-100)" d="M213.107 57.501a37.791 37.791 0 00-9.826-17.028 37.796 37.796 0 00-17.029-9.826l-9.829 36.683 36.684-9.829zM139.218 119.559L55.4 144.553c-6.352 1.894-13.036-1.72-14.93-8.071L22.314 75.59l106.818-31.852 18.157 60.89c1.894 6.353-1.72 13.036-8.071 14.93"/><path stroke="var(--color-primary-400)" stroke-width="4" d="M139.218 119.559L55.4 144.553c-6.352 1.894-13.036-1.72-14.93-8.071L22.314 75.59l106.818-31.852 18.157 60.89c1.894 6.353-1.72 13.036-8.071 14.93z"/><path fill="var(--color-primary-100)" d="M135.846 74.714L33.66 105.184a6.525 6.525 0 01-8.118-4.389l-7.215-24.197a7.373 7.373 0 014.959-9.173l100.56-29.985a7.373 7.373 0 019.174 4.96l7.215 24.195a6.526 6.526 0 01-4.39 8.12"/><path stroke="var(--color-primary-400)" stroke-width="4" d="M135.846 74.714L33.66 105.184a6.525 6.525 0 01-8.118-4.389l-7.215-24.197a7.373 7.373 0 014.959-9.173l100.56-29.985a7.373 7.373 0 019.174 4.96l7.215 24.195a6.526 6.526 0 01-4.39 8.12z"/><path fill="var(--color-primary-200)" d="M132.93 87.455l-89.852 26.792a6.68 6.68 0 01-8.311-4.493l-.787-2.641 102.655-30.611.788 2.64a6.682 6.682 0 01-4.493 8.313M42.006 48.763l3.582 12.013 9.185-2.74-3.577-11.993a2.402 2.402 0 011.615-2.987l32.986-9.836a2.4 2.4 0 012.986 1.615l3.577 11.994 9.185-2.74-3.582-12.012c-1.865-6.254-8.448-9.813-14.703-7.948l-33.306 9.93c-6.255 1.866-9.813 8.449-7.948 14.704"/><path stroke="var(--color-primary-400)" stroke-width="3" d="M42.006 48.763l3.582 12.013 9.185-2.74-3.577-11.993a2.402 2.402 0 011.615-2.987l32.986-9.836a2.4 2.4 0 012.986 1.615l3.577 11.994 9.185-2.74-3.582-12.012c-1.865-6.254-8.448-9.813-14.703-7.948l-33.306 9.93c-6.255 1.866-9.813 8.449-7.948 14.704z"/><path fill="var(--color-neutral-50)" d="M69.175 108.668l-8.463 2.523a1.567 1.567 0 01-1.951-1.054l-4.423-14.832a1.57 1.57 0 011.056-1.951l8.463-2.523a1.567 1.567 0 011.95 1.054l4.424 14.832a1.57 1.57 0 01-1.056 1.95"/><path stroke="var(--color-primary-300)" stroke-width="3" d="M69.175 108.668l-8.463 2.523a1.567 1.567 0 01-1.951-1.054l-4.423-14.832a1.57 1.57 0 011.056-1.951l8.463-2.523a1.567 1.567 0 011.95 1.054l4.424 14.832a1.57 1.57 0 01-1.056 1.95z"/><path fill="var(--color-neutral-50)" d="M116.502 94.556l-8.464 2.523a1.568 1.568 0 01-1.951-1.054l-4.422-14.832a1.568 1.568 0 011.055-1.951l8.463-2.523a1.567 1.567 0 011.951 1.054l4.423 14.832a1.569 1.569 0 01-1.055 1.951"/><path stroke="var(--color-primary-300)" stroke-width="3" d="M116.502 94.556l-8.464 2.523a1.568 1.568 0 01-1.951-1.054l-4.422-14.832a1.568 1.568 0 011.055-1.951l8.463-2.523a1.567 1.567 0 011.951 1.054l4.423 14.832a1.569 1.569 0 01-1.055 1.951z"/><path fill="var(--color-neutral-50)" d="M119.692 187.155l59.882.024a2.843 2.843 0 002.843-2.84l.03-78.553a2.842 2.842 0 00-2.84-2.842l-59.88-.024a2.814 2.814 0 00-2.817 2.814l-.031 78.605a2.816 2.816 0 002.813 2.816"/><path stroke="var(--color-primary-400)" stroke-width="4" d="M119.692 187.155l59.882.024a2.843 2.843 0 002.843-2.84l.03-78.553a2.842 2.842 0 00-2.84-2.842l-59.88-.024a2.814 2.814 0 00-2.817 2.814l-.031 78.605a2.816 2.816 0 002.813 2.816z"/><path fill="var(--color-primary-100)" d="M181.049 176.23l.024-61.753c0-1.954-.534-3.901-1.684-5.48-1.411-1.935-3.427-3.173-5.664-3.581l-28.9-.498-20.083 61.535a4.311 4.311 0 002.765 5.434l40.854 13.312h3.713c4.946 0 8.972-4.023 8.975-8.97"/><path stroke="var(--color-primary-200)" stroke-linecap="round" stroke-width="3" d="M167.959 134.238l-41.677-.017M141.722 144.065l-15.443-.006M170.228 150.078l-41.677-.017"/><path fill="var(--color-neutral-50)" d="M132.081 169.558l58.658 19.112a2.261 2.261 0 002.852-1.45l24.965-76.621a2.262 2.262 0 00-1.45-2.851l-58.659-19.112a2.261 2.261 0 00-2.85 1.449l-24.966 76.621a2.263 2.263 0 001.45 2.852"/><path stroke="var(--color-primary-400)" stroke-width="4" d="M132.081 169.558l58.658 19.112a2.261 2.261 0 002.852-1.45l24.965-76.621a2.262 2.262 0 00-1.45-2.851l-58.659-19.112a2.261 2.261 0 00-2.85 1.449l-24.966 76.621a2.263 2.263 0 001.45 2.852z"/><path stroke="var(--color-primary-200)" stroke-linecap="round" stroke-width="3" d="M203.429 117.23l-17.326-5.645M198.938 131.013l-40.037-13.046M195.858 140.463l-17.326-5.646M170.656 132.252l-14.835-4.834M192.779 149.914l-40.037-13.045M189.7 159.365l-40.037-13.045M163.516 161.287l-16.933-5.517"/><path fill="var(--color-primary-200)" d="M78.442 169.84l-58.283 2.152a3.97 3.97 0 01-4.114-3.82l-1.249-33.74a3.97 3.97 0 013.822-4.114l58.285-2.154a3.97 3.97 0 014.113 3.821l1.246 33.74a3.97 3.97 0 01-3.82 4.114"/><path stroke="var(--color-primary-600)" stroke-linecap="round" stroke-width="2.6" d="M78.442 169.84l-58.283 2.152a3.97 3.97 0 01-4.114-3.82l-1.249-33.74a3.97 3.97 0 013.822-4.114l58.285-2.154a3.97 3.97 0 014.113 3.821l1.246 33.74a3.97 3.97 0 01-3.82 4.114z"/><path fill="var(--color-neutral-50)" d="M81.19 147.636l-65.814 2.432-.335-9.026 65.816-2.43z"/><path stroke="var(--color-primary-400)" stroke-linecap="round" stroke-width="2.6" d="M81.19 147.636l-65.814 2.432-.335-9.026 65.816-2.43z"/><path stroke="var(--color-primary-600)" stroke-linecap="round" stroke-width="2.6" d="M78.442 169.84l-58.283 2.152a3.97 3.97 0 01-4.114-3.82l-1.249-33.74a3.97 3.97 0 013.822-4.114l58.285-2.154a3.97 3.97 0 014.113 3.821l1.246 33.74a3.97 3.97 0 01-3.82 4.114z"/><path fill="var(--color-neutral-50)" d="M104.285 191.59v5.28c0 2.276-5.066 4.121-11.315 4.121-6.248 0-11.315-1.845-11.315-4.122v-5.279"/><path stroke="var(--color-primary-600)" stroke-linecap="round" stroke-width="2" d="M104.285 191.59v5.28c0 2.276-5.066 4.121-11.315 4.121-6.248 0-11.315-1.845-11.315-4.122v-5.279"/><path fill="var(--color-primary-100)" d="M104.285 190.62c0 2.275-5.066 4.121-11.315 4.121-6.248 0-11.315-1.846-11.315-4.122 0-2.275 5.067-4.121 11.315-4.121 6.25 0 11.315 1.846 11.315 4.121"/><path stroke="var(--color-primary-600)" stroke-linecap="round" stroke-width="2" d="M104.285 190.62c0 2.275-5.066 4.121-11.315 4.121-6.248 0-11.315-1.846-11.315-4.122 0-2.275 5.067-4.121 11.315-4.121 6.25 0 11.315 1.846 11.315 4.121z"/><path fill="var(--color-neutral-50)" d="M87.309 165.114v13.92c0 2.277-5.066 4.123-11.315 4.123-6.25 0-11.315-1.846-11.315-4.122v-13.921"/><path stroke="var(--color-primary-600)" stroke-linecap="round" stroke-width="2" d="M87.309 165.114v13.92c0 2.277-5.066 4.123-11.315 4.123-6.25 0-11.315-1.846-11.315-4.122v-13.921"/><path fill="var(--color-primary-100)" d="M87.309 164.143c0 2.276-5.066 4.122-11.315 4.122-6.25 0-11.315-1.846-11.315-4.122 0-2.277 5.066-4.122 11.315-4.122s11.315 1.845 11.315 4.122"/><path stroke="var(--color-primary-600)" stroke-linecap="round" stroke-width="2" d="M87.309 164.143c0 2.276-5.066 4.122-11.315 4.122-6.25 0-11.315-1.846-11.315-4.122 0-2.277 5.066-4.122 11.315-4.122s11.315 1.845 11.315 4.122z"/><path fill="var(--color-neutral-50)" d="M87.309 171.74c0 2.277-5.066 4.123-11.315 4.123-6.25 0-11.315-1.846-11.315-4.122"/><path stroke="var(--color-primary-600)" stroke-linecap="round" stroke-width="2" d="M87.309 171.74c0 2.277-5.066 4.123-11.315 4.123-6.25 0-11.315-1.846-11.315-4.122"/><path fill="var(--color-primary-600)" d="M32.501 161.287a4.788 4.788 0 11-9.575 0 4.788 4.788 0 019.575 0"/><path fill="var(--color-primary-400)" d="M39.478 161.287a4.788 4.788 0 11-9.576.001 4.788 4.788 0 019.576 0"/><path stroke="var(--color-secondary-100)" stroke-width="3" d="M14.238 113.865a4.87 4.87 0 11-9.738 0 4.87 4.87 0 019.738 0z"/><path fill="var(--color-notification-warning-main)" d="M208.049 205.473a1.49 1.49 0 01-.993-.377 7.213 7.213 0 01-.62-10.17c2.636-2.974 7.197-3.25 10.172-.618a1.5 1.5 0 01-1.99 2.246 4.21 4.21 0 00-5.935.36 4.21 4.21 0 00.36 5.936 1.5 1.5 0 01-.994 2.623M142.451 29.265a1.502 1.502 0 01-1.061-2.561l8.265-8.264a1.5 1.5 0 112.121 2.12l-8.264 8.267a1.495 1.495 0 01-1.06.439"/><path fill="var(--color-notification-warning-main)" d="M150.716 29.265c-.384 0-.768-.146-1.061-.439l-8.264-8.265a1.5 1.5 0 112.12-2.122l8.266 8.265a1.502 1.502 0 01-1.061 2.561"/><g><path fill="none" d="M0 0h224v224H0z"/><path fill="none" d="M0 0h224v224H0z"/><path d="M0 0h224v224H0z"/></g></g></svg>