<svg id="empty--non--filtered--customers" xmlns="http://www.w3.org/2000/svg" viewBox="0 0 224 224"><g fill="none" fill-rule="evenodd"><path fill="var(--color-primary-100)" d="M180.856 122.121c0 26.447-21.439 47.887-47.887 47.887-26.447 0-47.886-21.44-47.886-47.887s21.44-47.887 47.886-47.887c26.448 0 47.887 21.44 47.887 47.887"/><path stroke="var(--color-secondary-100)" stroke-linecap="round" stroke-width="3" d="M12.568 128.084a5.705 5.705 0 01-8.068 8.067"/><path fill="var(--color-primary-100)" d="M202.198 206.06l-9.004-2.341 10.305-39.625 9.004 2.34z"/><path stroke="var(--color-primary-200)" stroke-width="3" d="M202.198 206.06l-9.004-2.341 10.305-39.625 9.004 2.34z"/><path fill="var(--color-neutral-50)" d="M136.587 188.998l56.607 14.721 10.305-39.625-56.607-14.722z"/><path stroke="var(--color-primary-200)" stroke-width="3" d="M136.587 188.998l56.607 14.721 10.305-39.625-56.607-14.722z"/><path fill="var(--color-neutral-50)" d="M136.587 188.998l56.607 14.721 10.305-39.625-56.607-14.722z"/><path stroke="var(--color-primary-200)" stroke-width="3" d="M136.587 188.998l56.607 14.721 10.305-39.625-56.607-14.722z"/><path fill="var(--color-primary-100)" d="M212.502 166.44l-9.004-2.341 2.916-11.212 5.02 1.306a4.115 4.115 0 012.948 5.018l-1.88 7.23z"/><path stroke="var(--color-primary-400)" stroke-width="3" d="M212.502 166.44l-9.004-2.341 2.916-11.212 5.02 1.306a4.115 4.115 0 012.948 5.018l-1.88 7.23z"/><path fill="var(--color-primary-100)" d="M146.89 149.377l56.608 14.722 2.916-11.212-55.575-14.452a1.067 1.067 0 00-1.302.763l-2.647 10.179z"/><path stroke="var(--color-primary-400)" stroke-width="3" d="M146.89 149.377l56.608 14.722 2.916-11.212-55.575-14.452a1.067 1.067 0 00-1.302.763l-2.647 10.179z"/><path fill="var(--color-primary-400)" d="M160.308 146.494a2.2 2.2 0 11-4.259-1.107 2.2 2.2 0 014.258 1.107M176.94 150.82a2.2 2.2 0 11-4.26-1.109 2.2 2.2 0 014.26 1.108M194.474 155.379a2.201 2.201 0 11-4.261-1.11 2.201 2.201 0 014.26 1.11"/><path stroke="var(--color-primary-400)" stroke-linecap="round" stroke-width="3" d="M158.335 145.335l1.686-6.481a5.302 5.302 0 1110.263 2.668l-.48 1.844M174.968 149.661l1.686-6.482a5.301 5.301 0 016.466-3.797 5.301 5.301 0 013.797 6.466l-.48 1.843M192.5 154.22l1.687-6.481a5.3 5.3 0 016.465-3.797h0a5.302 5.302 0 013.798 6.466l-.48 1.843"/><path fill="var(--color-neutral-50)" d="M202.386 168.375l-4.258 16.372c-1.65 6.346-8.132 10.152-14.478 8.502l-47.622-12.385c-6.478-1.684-10.365-8.302-8.68-14.779l.573-2.203 48.796 12.69-.878 3.375c-1.516 5.83 1.98 11.785 7.81 13.302"/><path stroke="var(--color-primary-200)" stroke-width="3" d="M202.386 168.375l-4.258 16.372c-1.65 6.346-8.132 10.152-14.478 8.502l-47.622-12.385c-6.478-1.684-10.365-8.302-8.68-14.779l.573-2.203 48.796 12.69-.878 3.375c-1.516 5.83 1.98 11.785 7.81 13.302"/><path fill="var(--color-primary-200)" d="M116.426 149.169l-8.376-3.069a16.044 16.044 0 01-10.523-15.064v-30.675H70.736v30.675A16.044 16.044 0 0160.213 146.1l-8.376 3.069c-1.017.373-.75 1.879.333 1.879h63.923c1.082 0 1.35-1.506.333-1.879"/><path stroke="var(--color-primary-400)" stroke-linecap="round" stroke-width="3" d="M116.426 149.169l-8.376-3.069a16.044 16.044 0 01-10.523-15.064v-30.675H70.736v30.675A16.044 16.044 0 0160.213 146.1l-8.376 3.069c-1.017.373-.75 1.879.333 1.879h63.923c1.082 0 1.35-1.506.333-1.879z"/><path fill="var(--color-primary-100)" d="M140.376 122.121H27.886a6.198 6.198 0 01-6.198-6.198V31.198A6.198 6.198 0 0127.887 25h112.489a6.197 6.197 0 016.197 6.198v84.725a6.197 6.197 0 01-6.197 6.198"/><path stroke="var(--color-primary-400)" stroke-width="4" d="M140.376 122.121H27.886a6.198 6.198 0 01-6.198-6.198V31.198A6.198 6.198 0 0127.887 25h112.489a6.197 6.197 0 016.197 6.198v84.725a6.197 6.197 0 01-6.197 6.198z"/><path fill="var(--color-primary-100)" d="M21.688 104.765h124.885"/><path stroke="var(--color-primary-400)" stroke-width="4" d="M21.688 104.765h124.885"/><path fill="var(--color-neutral-50)" d="M211.022 93.083h-109.96a5.857 5.857 0 01-5.858-5.857V57.575a5.857 5.857 0 015.857-5.857h109.961a5.856 5.856 0 015.856 5.857v29.65a5.856 5.856 0 01-5.856 5.858"/><path stroke="var(--color-primary-200)" stroke-width="3" d="M211.022 93.083h-109.96a5.857 5.857 0 01-5.858-5.857V57.575a5.857 5.857 0 015.857-5.857h109.961a5.856 5.856 0 015.856 5.857v29.65a5.856 5.856 0 01-5.856 5.858z"/><path fill="var(--color-neutral-50)" d="M132.97 58.45c0 6.079-3.928 11.005-8.771 11.005-4.845 0-8.772-4.926-8.772-11.004 0-6.078 3.927-11.005 8.772-11.005 4.843 0 8.77 4.927 8.77 11.005"/><path fill="var(--color-primary-600)" d="M117.836 64.355a4.465 4.465 0 01-1.47-4.435l1.568-6.746a4.03 4.03 0 011.647-2.418l2.422-1.668a4.043 4.043 0 012.298-.71 4.03 4.03 0 012.296.71l2.423 1.668a4.025 4.025 0 011.647 2.418l1.568 6.746a4.46 4.46 0 01-1.47 4.435l-5.514 4.668a1.476 1.476 0 01-1.902 0l-5.513-4.668zm25.989 18.49l-1.296-5.184a6.22 6.22 0 00-3.933-4.353l-4.01-1.447a.903.903 0 00-.884.169l-1.945 1.702a.503.503 0 00-.163.479.498.498 0 00.325.38l5.499 1.983a2.757 2.757 0 011.744 1.927l.757 3.028h-31.237l.757-3.028c.239-.954.949-1.568 2.173-1.88.052-.013.104-.028.16-.047l6.134-2.21c.14-.05.276-.12.405-.21.747-.52 1.683-1.625 2.043-3.12l.753.637a4.935 4.935 0 003.194 1.176 4.935 4.935 0 003.192-1.176l5.516-4.666a7.925 7.925 0 002.607-7.871l-1.568-6.746a7.501 7.501 0 00-3.061-4.493l-2.422-1.665c-2.55-1.76-5.976-1.755-8.53-.001l-2.422 1.668a7.498 7.498 0 00-3.06 4.49l-1.57 6.747a7.926 7.926 0 002.61 7.87l1.436 1.216v1.614c0 .56-.344 1.115-.585 1.365l-5.763 2.078c-2.426.64-4.063 2.197-4.61 4.384l-1.296 5.184a1.754 1.754 0 00.316 1.49c.33.424.83.667 1.368.667h35.682c.53 0 1.042-.25 1.369-.667a1.75 1.75 0 00.315-1.49z"/><path stroke="var(--color-primary-600)" stroke-width="2" d="M134.292 59.316l-10.096-6.484-10.091 6.481"/><path stroke="var(--color-primary-200)" stroke-linecap="round" stroke-width="3" d="M151.411 64.035h47.535M151.411 73.519h34.14M151.411 83.002h23.768M185.643 83.002h13.303"/><path fill="var(--color-primary-200)" d="M21.688 102.027v12.918c0 3.963 2.775 7.176 6.198 7.176h112.49c3.422 0 6.197-3.213 6.197-7.176v-12.918H21.688z"/><path stroke="var(--color-primary-400)" stroke-linecap="round" stroke-width="4" d="M21.688 102.027v12.918c0 3.963 2.775 7.176 6.198 7.176h112.49c3.422 0 6.197-3.213 6.197-7.176v-12.918H21.688z"/><path stroke="var(--color-neutral-50)" stroke-linecap="round" stroke-width="2" d="M87.392 112.514a3.261 3.261 0 11-6.522 0 3.261 3.261 0 016.522 0z"/><path stroke="var(--color-primary-300)" stroke-linecap="round" stroke-width="3" d="M74.781 72.559l-5.467 14.579H43.801l-5.467-14.58M69.314 63.447l-5.467-9.785M43.801 63.447l5.467-9.785M62.025 78.937v3.645M51.09 78.937v3.645M56.558 78.937v3.645"/><path stroke="var(--color-primary-300)" stroke-linecap="round" stroke-width="3" d="M72.336 73.47H40.779a4.094 4.094 0 01-4.014-3.291l-.746-3.73a1.748 1.748 0 011.714-2.091h37.649a1.75 1.75 0 011.715 2.092l-.746 3.729a4.094 4.094 0 01-4.015 3.29z"/><path stroke="var(--color-secondary-100)" stroke-linecap="round" stroke-width="3" d="M174.589 25.247l-8.266 8.265M166.323 25.247l8.266 8.265"/><path fill="var(--color-notification-warning-main)" d="M102.373 180.96a7.182 7.182 0 01-5.094-2.106 7.158 7.158 0 01-2.111-5.095c0-1.924.75-3.734 2.111-5.094a1.5 1.5 0 112.121 2.121 4.174 4.174 0 00-1.232 2.973 4.17 4.17 0 001.232 2.973 4.21 4.21 0 005.946 0 1.501 1.501 0 012.121 2.122 7.182 7.182 0 01-5.094 2.106M21.692 159.676c-.44 0-.882.069-1.312.21a4.183 4.183 0 00-2.443 2.096 4.178 4.178 0 00-.245 3.209 4.182 4.182 0 002.095 2.442h.001a4.172 4.172 0 003.208.246 4.176 4.176 0 002.443-2.096 4.178 4.178 0 00.245-3.21 4.18 4.18 0 00-2.095-2.441 4.19 4.19 0 00-1.897-.456m-.01 11.415a7.174 7.174 0 01-3.25-.782c-3.544-1.795-4.966-6.14-3.17-9.683a7.16 7.16 0 014.184-3.591 7.17 7.17 0 015.5.42 7.153 7.153 0 013.59 4.186 7.155 7.155 0 01-.42 5.498 7.16 7.16 0 01-4.186 3.59 7.236 7.236 0 01-2.249.362"/><g><path fill="none" d="M-1 0h224v224H-1z"/><path fill="none" d="M-1 0h224v224H-1z"/><path d="M-1 0h224v224H-1z"/></g></g></svg>