<svg id="empty--filtered--recents" xmlns="http://www.w3.org/2000/svg" viewBox="0 0 224 224"><g fill="none" fill-rule="evenodd"><path fill="var(--color-primary-100)" d="M139.167 110.908c0 26.447-21.44 47.887-47.887 47.887s-47.886-21.44-47.886-47.887S64.833 63.02 91.28 63.02c26.448 0 47.887 21.44 47.887 47.887" opacity=".5"/><path fill="var(--color-neutral-50)" d="M119.806 97.34H91.662a5.834 5.834 0 01-5.835-5.836V63.36a5.834 5.834 0 015.835-5.835h28.144a5.834 5.834 0 015.835 5.835v28.144a5.834 5.834 0 01-5.835 5.835"/><path stroke="var(--color-primary-200)" stroke-width="4" d="M119.806 97.34H91.662a5.834 5.834 0 01-5.835-5.836V63.36a5.834 5.834 0 015.835-5.835h28.144a5.834 5.834 0 015.835 5.835v28.144a5.834 5.834 0 01-5.835 5.835z"/><path fill="var(--color-neutral-50)" d="M42.107 113.985l45.554.745a5.578 5.578 0 015.516 5.639l-.469 42.627a5.578 5.578 0 01-5.639 5.515l-9.634-.106-.06 5.539c-.027 2.366-2.9 3.52-4.556 1.828l-7.335-7.498-23.968-.509A5.576 5.576 0 0136 162.128l.47-42.627a5.578 5.578 0 015.637-5.516"/><path stroke="var(--color-primary-200)" stroke-width="4" d="M42.107 113.985l45.554.745a5.578 5.578 0 015.516 5.639l-.469 42.627a5.578 5.578 0 01-5.639 5.515l-9.634-.106-.06 5.539c-.027 2.366-2.9 3.52-4.556 1.828l-7.335-7.498-23.968-.509A5.576 5.576 0 0136 162.128l.47-42.627a5.578 5.578 0 015.637-5.516z"/><path fill="var(--color-neutral-50)" d="M105.038 129.028l-46.8.766a5.732 5.732 0 00-5.667 5.793l.482 43.794a5.73 5.73 0 005.792 5.666l9.898-.11.063 5.69c.026 2.432 2.979 3.617 4.679 1.88l7.536-7.705 24.625-.521a5.73 5.73 0 005.666-5.793l-.482-43.794a5.73 5.73 0 00-5.792-5.666"/><path stroke="var(--color-primary-400)" stroke-width="4" d="M105.038 129.028l-46.8.766a5.732 5.732 0 00-5.667 5.793l.482 43.794a5.73 5.73 0 005.792 5.666l9.898-.11.063 5.69c.026 2.432 2.979 3.617 4.679 1.88l7.536-7.705 24.625-.521a5.73 5.73 0 005.666-5.793l-.482-43.794a5.73 5.73 0 00-5.792-5.666z"/><path fill="var(--color-primary-400)" d="M88.013 169.27c-.099.961-1.131 1.692-2.042 2.337-.179.126-.353.25-.516.371-.196.146-.453.238-.759.277-.966.122-2.421-.284-3.994-1.153-2.56-1.412-5.222-3.869-7.499-6.916-2.278-3.048-3.879-6.299-4.509-9.152-.509-2.31-.31-4.198.508-4.809.163-.12.33-.253.502-.389.726-.572 1.531-1.206 2.326-1.306a1.532 1.532 0 01.493.01c.654.124 1.29.705 1.896 1.727 1.81 3.064.918 3.72-.559 4.804l-.284.21c-1.182.884-.419 3.054 2.402 6.83 1.141 1.527 2.148 2.677 2.99 3.416.899.788 1.662 1.145 2.28 1.067.218-.027.418-.109.599-.245l.286-.215c.641-.487 1.171-.888 1.77-.965.761-.095 1.634.336 2.991 1.793.81.87 1.187 1.646 1.119 2.307m.797-4.092c-1.267-1.36-3.008-2.888-5.236-2.605-1.094.138-1.919.658-2.639 1.186a5.645 5.645 0 01-.24-.199c-.486-.427-1.334-1.296-2.619-3.016-1.485-1.988-2.059-3.098-2.279-3.656 2.294-1.814 3.251-3.932.877-7.952-1.008-1.7-2.241-2.699-3.666-2.968l-.057-.01-.119-.018a4.235 4.235 0 00-1.131-.008c-1.515.192-2.68 1.11-3.616 1.847-.163.13-.309.244-.451.35-1.74 1.3-2.272 3.952-1.497 7.47.708 3.21 2.472 6.816 4.968 10.156 2.497 3.341 5.456 6.054 8.332 7.641 1.453.803 3.604 1.71 5.588 1.458.765-.097 1.437-.358 1.998-.777.144-.109.299-.217.457-.328 1.166-.827 2.918-2.068 3.138-4.21.148-1.448-.459-2.915-1.808-4.36"/><path fill="var(--color-primary-100)" d="M178.024 101.694a1.477 1.477 0 10.087-2.954l-6.164-.181 8.7-7.935a1.478 1.478 0 00-2.028-2.151l-8.699 7.936.18-6.163a1.478 1.478 0 10-2.954-.086l-.329 11.206 11.207.328z"/><path stroke="var(--color-primary-200)" stroke-linecap="round" stroke-width="3" d="M137.68 194.867l-8.265-8.265M137.68 186.602l-8.265 8.265"/><path fill="var(--color-primary-100)" d="M157.365 156.17l-5.65 4.84-4.842-5.651 5.652-4.84z"/><path stroke="var(--color-primary-600)" stroke-linecap="round" stroke-width="1.6" d="M157.365 156.17l-5.65 4.84-4.842-5.651 5.652-4.84z"/><path fill="var(--color-neutral-50)" d="M178.592 130.085a5.34 5.34 0 116.77-8.26 5.34 5.34 0 01-6.77 8.26"/><path stroke="var(--color-primary-200)" stroke-width="3" d="M178.592 130.085a5.34 5.34 0 116.77-8.26 5.34 5.34 0 01-6.77 8.26z"/><path fill="var(--color-primary-100)" d="M108.918 136.764a5.73 5.73 0 00-5.792-5.666l-8.986.146c-1.976 8.113-.16 17.026 5.685 23.852a26.762 26.762 0 009.372 7.021l-.279-25.353z"/><path fill="var(--color-neutral-50)" d="M64.017 88.296c-2.04 4.779-7.567 7-12.346 4.96a9.409 9.409 0 1112.346-4.96"/><path stroke="var(--color-primary-200)" stroke-width="3" d="M64.017 88.296c-2.04 4.779-7.567 7-12.346 4.96a9.409 9.409 0 1112.346-4.96z"/><path stroke="var(--color-primary-300)" d="M157.92 167.953c1.438-1.165 1.105-2.981-.745-4.048-1.848-1.064-4.527-.984-5.964.18-1.44 1.166-1.104 2.982.745 4.048 1.85 1.066 4.525.985 5.964-.18h0zm-7.05-4.063c1.585-1.284 4.532-1.373 6.57-.2 2.038 1.176 2.406 3.177.822 4.459-1.586 1.284-4.534 1.373-6.572.199-2.037-1.174-2.405-3.174-.82-4.458z"/><path fill="var(--color-neutral-50)" d="M105.124 30l46.8.767a5.73 5.73 0 015.667 5.793l-.482 43.794a5.73 5.73 0 01-5.793 5.666l-9.897-.11-.063 5.69c-.026 2.432-2.98 3.617-4.68 1.88l-7.535-7.705-24.625-.521a5.73 5.73 0 01-5.666-5.793l.482-43.794A5.73 5.73 0 01105.124 30"/><path stroke="var(--color-primary-400)" stroke-width="4" d="M105.124 30l46.8.767a5.73 5.73 0 015.667 5.793l-.482 43.794a5.73 5.73 0 01-5.793 5.666l-9.897-.11-.063 5.69c-.026 2.432-2.98 3.617-4.68 1.88l-7.535-7.705-24.625-.521a5.73 5.73 0 01-5.666-5.793l.482-43.794A5.73 5.73 0 01105.124 30z"/><path fill="var(--color-primary-600)" d="M137.532 63.15a4.159 4.159 0 01-4.154-4.155 4.158 4.158 0 014.154-4.154 4.158 4.158 0 014.154 4.154 4.159 4.159 0 01-4.154 4.155m-18.702 0a4.16 4.16 0 01-4.154-4.155 4.159 4.159 0 014.154-4.154 4.159 4.159 0 014.155 4.154 4.16 4.16 0 01-4.155 4.155m18.702-11.262a7.115 7.115 0 00-7.107 7.107c0 1.554.517 2.983 1.367 4.155h-7.222a7.046 7.046 0 001.367-4.155 7.115 7.115 0 00-7.107-7.107c-3.918 0-7.107 3.188-7.107 7.107s3.189 7.107 7.107 7.107h19.578v-.089c3.502-.437 6.231-3.4 6.231-7.018 0-3.919-3.189-7.107-7.107-7.107"/><path fill="var(--color-primary-400)" d="M182.38 191.187a7.707 7.707 0 01-10.868-.84l-19.69-22.99a4.475 4.475 0 01.488-6.31l4.91-4.207a4.475 4.475 0 016.31.49l19.692 22.988a7.708 7.708 0 01-.841 10.87"/><path stroke="var(--color-primary-600)" stroke-linecap="round" stroke-width="2.6" d="M182.38 191.187h0a7.707 7.707 0 01-10.868-.84l-19.69-22.99a4.475 4.475 0 01.488-6.31l4.91-4.207a4.475 4.475 0 016.31.49l19.692 22.988a7.708 7.708 0 01-.841 10.87z"/><path stroke="var(--color-primary-600)" stroke-linecap="round" stroke-width="1.6" d="M164.898 158.924l14.206 16.587a7.708 7.708 0 01-.84 10.87 7.708 7.708 0 01-10.87-.842l-14.205-16.586"/><path fill="var(--color-primary-400)" d="M86.761 141.358a1.478 1.478 0 10-.086 2.955l6.163.18-8.699 7.935a1.478 1.478 0 102.028 2.151l8.698-7.936-.18 6.163a1.477 1.477 0 102.955.087l.328-11.207-11.207-.328z"/><path fill="var(--color-neutral-50)" d="M152.583 115.106c9.649 11.267 8.339 28.222-2.928 37.871-11.266 9.65-28.222 8.339-37.871-2.928-9.65-11.266-8.34-28.221 2.928-37.871 11.267-9.649 28.222-8.339 37.87 2.928"/><path stroke="var(--color-primary-600)" stroke-linecap="round" stroke-width="4" d="M152.583 115.106c9.649 11.267 8.339 28.222-2.928 37.871-11.266 9.65-28.222 8.339-37.871-2.928-9.65-11.266-8.34-28.221 2.928-37.871 11.267-9.649 28.222-8.339 37.87 2.928z"/><path fill="var(--color-neutral-50)" d="M146.448 120.36c6.748 7.879 5.831 19.735-2.048 26.482-7.878 6.748-19.735 5.831-26.482-2.046-6.748-7.879-5.83-19.736 2.048-26.483 7.879-6.748 19.735-5.831 26.483 2.047"/><path stroke="var(--color-primary-600)" stroke-linecap="round" stroke-width="2" d="M146.448 120.36c6.748 7.879 5.831 19.735-2.048 26.482-7.878 6.748-19.735 5.831-26.482-2.046-6.748-7.879-5.83-19.736 2.048-26.483 7.879-6.748 19.735-5.831 26.483 2.047z"/><g><path fill="none" d="M0 0h224v224H0z"/><path fill="none" d="M0 0h224v224H0z"/><path d="M0 0h224v224H0z"/></g></g></svg>