<svg id="empty--non--filtered--catalogue" xmlns="http://www.w3.org/2000/svg" viewBox="0 0 224 224"><g fill="none" fill-rule="evenodd"><path fill="none" d="M0 0h224v224H0z"/><path fill="none" d="M0 0h224v224H0z"/><path d="M0 0h224v224H0z"/><g><path fill="var(--color-primary-100)" d="M184.596 129.058c-10.031 40.186-50.74 64.63-90.926 54.599-40.185-10.033-64.63-50.742-54.598-90.927 10.032-40.185 50.74-64.63 90.926-54.598 40.185 10.03 64.629 50.74 54.598 90.926"/><path fill="var(--color-neutral-50)" d="M59.475 150.98l-23.031 10.867a6.168 6.168 0 01-8.21-2.946L5.092 109.848a6.168 6.168 0 012.946-8.21l23.032-10.865a6.166 6.166 0 018.209 2.946L62.42 142.77a6.168 6.168 0 01-2.946 8.21"/><path stroke="var(--color-primary-200)" stroke-width="3" d="M59.475 150.98l-23.031 10.867a6.168 6.168 0 01-8.21-2.946L5.092 109.848a6.168 6.168 0 012.946-8.21l23.032-10.865a6.166 6.166 0 018.209 2.946L62.42 142.77a6.168 6.168 0 01-2.946 8.21z"/><path stroke="var(--color-primary-200)" stroke-width="2" d="M6.276 112.361l34.188-16.129M26.661 155.567l34.187-16.13M47.58 150.968a1.98 1.98 0 11-3.58 1.69 1.98 1.98 0 013.58-1.69z"/><path stroke="var(--color-primary-200)" stroke-linecap="round" stroke-width="2" d="M17.287 102.777l8.778-4.141"/><path fill="var(--color-primary-300)" d="M157.033 155.49l-13.064-3.262-3.262 13.066 7.743-3.222 5.322 6.482z"/><path stroke="var(--color-primary-400)" stroke-linecap="round" stroke-width="3" d="M157.033 155.49l-13.064-3.262-3.262 13.066 7.743-3.222 5.322 6.482z"/><path fill="var(--color-neutral-50)" d="M182.744 161.907l-67.41-16.828a2.377 2.377 0 01-1.732-2.88l21.436-85.865a2.375 2.375 0 012.881-1.73l67.411 16.828a2.375 2.375 0 011.73 2.882l-21.435 85.865a2.376 2.376 0 01-2.88 1.728"/><path stroke="var(--color-primary-400)" stroke-width="4" d="M182.744 161.907l-67.41-16.828a2.377 2.377 0 01-1.732-2.88l21.436-85.865a2.375 2.375 0 012.881-1.73l67.411 16.828a2.375 2.375 0 011.73 2.882l-21.435 85.865a2.376 2.376 0 01-2.88 1.728z"/><path fill="var(--color-neutral-50)" d="M112.509 144.374l-67.411-16.828a2.377 2.377 0 01-1.731-2.88L64.802 38.8a2.376 2.376 0 012.882-1.73l67.41 16.828a2.376 2.376 0 011.73 2.881l-21.434 85.865a2.376 2.376 0 01-2.881 1.73"/><path stroke="var(--color-primary-400)" stroke-width="4" d="M112.509 144.374l-67.411-16.828a2.377 2.377 0 01-1.731-2.88L64.802 38.8a2.376 2.376 0 012.882-1.73l67.41 16.828a2.376 2.376 0 011.73 2.881l-21.434 85.865a2.376 2.376 0 01-2.881 1.73z"/><path fill="var(--color-neutral-50)" d="M175.237 146.707l18.008-72.138c3.047-12.204-4.377-24.567-16.58-27.613l-20.354 81.531 9.717 2.596c6.82 1.821 10.92 8.775 9.21 15.624-1.73 6.93-8.749 11.143-15.678 9.413"/><path stroke="var(--color-primary-400)" stroke-width="4" d="M175.237 146.707l18.008-72.138c3.047-12.204-4.377-24.567-16.58-27.613l-20.354 81.531 9.717 2.596c6.82 1.821 10.92 8.775 9.21 15.624-1.73 6.93-8.749 11.143-15.678 9.413"/><path stroke="var(--color-primary-200)" stroke-linecap="round" stroke-width="3" d="M98.174 58.366l20.738 5.177M96.461 65.225l20.739 5.177M105.118 74.673l10.369 2.588M91.567 84.832l20.738 5.177M89.855 91.692l20.738 5.177M98.512 101.139l10.369 2.588M102.078 115.751l3.578.894M100.366 122.611l3.578.894M98.653 129.47l3.578.894M133.425 123.576l12.709 3.173M131.712 130.436l12.71 3.173M130 137.295l22.698 5.666"/><path fill="var(--color-primary-100)" d="M155.705 87.301l-11.18-2.79a1.308 1.308 0 01-.953-1.587l2.791-11.18a1.31 1.31 0 011.586-.953l11.181 2.791c.701.175 1.127.886.952 1.586l-2.79 11.18a1.308 1.308 0 01-1.587.953"/><path stroke="var(--color-primary-300)" stroke-linecap="round" stroke-width="3" d="M155.705 87.301l-11.18-2.79a1.308 1.308 0 01-.953-1.587l2.791-11.18a1.31 1.31 0 011.586-.953l11.181 2.791c.701.175 1.127.886.952 1.586l-2.79 11.18a1.308 1.308 0 01-1.587.953z"/><path fill="var(--color-primary-100)" d="M84.48 69.52L73.3 66.73a1.308 1.308 0 01-.952-1.586l2.79-11.18a1.308 1.308 0 011.587-.953l11.18 2.79c.7.176 1.128.887.953 1.587l-2.791 11.18a1.308 1.308 0 01-1.586.953"/><path stroke="var(--color-primary-300)" stroke-linecap="round" stroke-width="3" d="M84.48 69.52L73.3 66.73a1.308 1.308 0 01-.952-1.586l2.79-11.18a1.308 1.308 0 011.587-.953l11.18 2.79c.7.176 1.128.887.953 1.587l-2.791 11.18a1.308 1.308 0 01-1.586.953z"/><path fill="var(--color-primary-100)" d="M77.873 95.988l-11.18-2.791a1.308 1.308 0 01-.953-1.586l2.791-11.18a1.309 1.309 0 011.586-.953l11.181 2.79c.701.176 1.127.887.952 1.587l-2.79 11.18a1.308 1.308 0 01-1.587.953"/><path stroke="var(--color-primary-300)" stroke-linecap="round" stroke-width="3" d="M77.873 95.988l-11.18-2.791a1.308 1.308 0 01-.953-1.586l2.791-11.18a1.309 1.309 0 011.586-.953l11.181 2.79c.701.176 1.127.887.952 1.587l-2.79 11.18a1.308 1.308 0 01-1.587.953z"/><path fill="var(--color-primary-100)" d="M149.098 113.768l-11.18-2.791a1.308 1.308 0 01-.952-1.586l2.79-11.18a1.308 1.308 0 011.587-.953l11.18 2.79c.7.176 1.128.887.953 1.587l-2.791 11.18a1.31 1.31 0 01-1.587.953"/><path stroke="var(--color-primary-300)" stroke-linecap="round" stroke-width="3" d="M149.098 113.768l-11.18-2.791a1.308 1.308 0 01-.952-1.586l2.79-11.18a1.308 1.308 0 011.587-.953l11.18 2.79c.7.176 1.128.887.953 1.587l-2.791 11.18a1.31 1.31 0 01-1.587.953z"/><path fill="var(--color-primary-100)" d="M71.224 122.622l-11.18-2.79a1.307 1.307 0 01-.952-1.587l2.79-11.18a1.308 1.308 0 011.587-.952l11.18 2.791c.7.175 1.128.885.952 1.586l-2.791 11.18a1.308 1.308 0 01-1.586.952"/><path stroke="var(--color-primary-300)" stroke-linecap="round" stroke-width="3" d="M71.224 122.622l-11.18-2.79a1.307 1.307 0 01-.952-1.587l2.79-11.18a1.308 1.308 0 011.587-.952l11.18 2.791c.7.175 1.128.885.952 1.586l-2.791 11.18a1.308 1.308 0 01-1.586.952z"/><path fill="var(--color-primary-100)" d="M91.564 127.7l-11.181-2.79a1.31 1.31 0 01-.952-1.587l2.79-11.18a1.308 1.308 0 011.587-.953l11.18 2.791c.7.175 1.128.886.953 1.587l-2.791 11.18a1.308 1.308 0 01-1.586.951"/><path stroke="var(--color-primary-300)" stroke-linecap="round" stroke-width="3" d="M91.564 127.7l-11.181-2.79a1.31 1.31 0 01-.952-1.587l2.79-11.18a1.308 1.308 0 011.587-.953l11.18 2.791c.7.175 1.128.886.953 1.587l-2.791 11.18a1.308 1.308 0 01-1.586.951z"/><path fill="var(--color-neutral-50)" d="M89.022 177.889L71.99 197.032a1.599 1.599 0 01-2.256.131l-17.465-15.54a1.597 1.597 0 01-.132-2.255l21.338-23.983a1.598 1.598 0 012.256-.131l13.859 12.331a.716.716 0 01.239.494l-.628 9.293a.72.72 0 01-.18.517"/><path stroke="var(--color-primary-200)" stroke-width="3" d="M89.022 177.889L71.99 197.032a1.599 1.599 0 01-2.256.131l-17.465-15.54a1.597 1.597 0 01-.132-2.255l21.338-23.983a1.598 1.598 0 012.256-.131l13.859 12.331a.716.716 0 01.239.494l-.628 9.293a.72.72 0 01-.18.517z"/><path fill="var(--color-neutral-50)" d="M69.19 188.032l-7.79-6.929a1.371 1.371 0 01-.111-1.936l7.798-8.766a1.372 1.372 0 011.937-.113l7.788 6.93a1.37 1.37 0 01.113 1.936l-7.8 8.767a1.371 1.371 0 01-1.935.112"/><path stroke="var(--color-primary-200)" stroke-width="2" d="M69.19 188.032l-7.79-6.929a1.371 1.371 0 01-.111-1.936l7.798-8.766a1.372 1.372 0 011.937-.113l7.788 6.93a1.37 1.37 0 01.113 1.936l-7.8 8.767a1.371 1.371 0 01-1.935.112z"/><path fill="var(--color-neutral-50)" d="M66.737 173.042l9.362 8.329"/><path stroke="var(--color-primary-200)" stroke-width="2" d="M66.737 173.042l9.362 8.329"/><path fill="var(--color-neutral-50)" d="M63.433 176.757l9.362 8.329"/><path stroke="var(--color-primary-200)" stroke-width="2" d="M63.433 176.757l9.362 8.329"/><path fill="var(--color-neutral-50)" d="M74.311 173.956l-2.892 3.251"/><path stroke="var(--color-primary-200)" stroke-width="2" d="M74.311 173.956l-2.892 3.251"/><path fill="var(--color-neutral-50)" d="M67.776 181.302l-2.893 3.25"/><path stroke="var(--color-primary-200)" stroke-width="2" d="M67.776 181.302l-2.893 3.25"/><path stroke="var(--color-secondary-100)" stroke-width="3" d="M29.912 67.813a4.87 4.87 0 11-9.74 0 4.87 4.87 0 019.74 0z"/><path stroke="var(--color-secondary-100)" stroke-linecap="round" stroke-width="3" d="M213.034 137.475a5.705 5.705 0 11-8.068 8.068"/><path fill="var(--color-notification-warning-main)" d="M105.118 156.031a1.5 1.5 0 011.5 1.5v4.344h4.345a1.5 1.5 0 010 3h-4.345v4.344a1.5 1.5 0 01-3 0v-4.344h-4.344a1.5 1.5 0 110-3h4.344v-4.344a1.5 1.5 0 011.5-1.5zM202.513 174.306a4.21 4.21 0 005.652-1.852 4.17 4.17 0 00.245-3.208 4.176 4.176 0 00-2.095-2.442 4.182 4.182 0 00-3.21-.245 4.178 4.178 0 00-2.442 2.095 4.212 4.212 0 001.85 5.652m1.889 3.453a7.16 7.16 0 01-3.244-.777h-.001c-3.542-1.796-4.964-6.141-3.17-9.684a7.152 7.152 0 014.186-3.591 7.153 7.153 0 015.497.421 7.155 7.155 0 013.59 4.185 7.15 7.15 0 01-.42 5.498 7.213 7.213 0 01-6.438 3.948"/></g><g><path fill="none" d="M-1 0h224v224H-1z"/><path fill="none" d="M-1 0h224v224H-1z"/><path d="M-1 0h224v224H-1z"/></g></g></svg>