<svg id="empty--non--filtered--orders" xmlns="http://www.w3.org/2000/svg" xlink="http://www.w3.org/1999/xlink" viewBox="0 0 224 224"><defs><path id="a" d="M.525.139h105.199v74.524H.525z"/></defs><g fill="none" fill-rule="evenodd"><g transform="translate(7 25.861)"><mask id="b" fill="var(--color-neutral-50)"><use href="#a"/></mask><path fill="var(--color-primary-100)" d="M14.946 36.42a18.559 18.559 0 01-.433-3.95c0-10.228 8.292-18.52 18.52-18.52 2.967 0 5.76.715 8.246 1.955C45.813 6.58 55.349.139 66.414.139c15.445 0 27.966 12.52 27.966 27.966 0 2.649-.393 5.203-1.081 7.632h3.246c3.321 0 6.444.835 9.179 2.3v34.324a19.368 19.368 0 01-9.179 2.302H19.988C9.238 74.663.525 65.949.525 55.2c0-9.003 6.12-16.556 14.421-18.78" /></g><path stroke="var(--color-primary-200)" stroke-linecap="round" stroke-width="2" d="M32.695 107.629a6.018 6.018 0 018.356 1.626 6.018 6.018 0 01-1.626 8.356 6.018 6.018 0 01-8.356-1.626 6.018 6.018 0 011.626-8.356zM7 107.479c1.346-7.603 5.655-14.671 12.563-19.328 6.903-4.654 15.065-6 22.614-4.401"/><path stroke="var(--color-primary-200)" stroke-linecap="round" stroke-width="2" d="M14.223 109.137a22.05 22.05 0 019.475-14.852 22.053 22.053 0 0117.126-3.259M21.656 110.456a14.53 14.53 0 016.262-9.912A14.528 14.528 0 0139.5 98.467"/><path stroke="var(--color-primary-200)" stroke-width="2" d="M208.326 168.677l-43.363-10.703a2.64 2.64 0 01-1.931-3.194l5.82-23.637a2.64 2.64 0 013.196-1.932l43.363 10.703a2.642 2.642 0 011.93 3.195l-5.82 23.636a2.639 2.639 0 01-3.195 1.932z"/><path fill="var(--color-neutral-50)" d="M208.326 168.677l-43.363-10.703a2.64 2.64 0 01-1.931-3.194l5.82-23.637a2.64 2.64 0 013.196-1.932l43.363 10.703a2.642 2.642 0 011.93 3.195l-5.82 23.636a2.639 2.639 0 01-3.195 1.932"/><path stroke="var(--color-primary-200)" stroke-width="2" d="M208.326 168.677l-43.363-10.703a2.64 2.64 0 01-1.931-3.194l5.82-23.637a2.64 2.64 0 013.196-1.932l43.363 10.703a2.642 2.642 0 011.93 3.195l-5.82 23.636a2.639 2.639 0 01-3.195 1.932z"/><path stroke="var(--color-primary-200)" stroke-linecap="round" stroke-linejoin="round" stroke-width="2" d="M170.047 130.097l18.37 25.988 28.33-14.46M201.181 150.807l9.055 17.258M163.56 154.558l16.029-11.066"/><path stroke="var(--color-primary-200)" stroke-width="2" d="M128.341 56.58c0-8.029 13.703-14.538 30.606-14.538 16.904 0 30.607 6.51 30.607 14.537M189.554 63.54c0 8.028-13.703 14.537-30.606 14.537-16.904 0-30.607-6.509-30.607-14.537"/><path stroke="var(--color-primary-200)" stroke-width="2" d="M173.416 60.853c0 16.904-6.508 30.607-14.536 30.607-8.028 0-14.537-13.703-14.537-30.607s6.509-30.607 14.537-30.607 14.536 13.703 14.536 30.607z"/><path stroke="var(--color-primary-200)" stroke-width="3" d="M189.8 60.853c0 17.077-13.844 30.921-30.92 30.921-17.077 0-30.921-13.844-30.921-30.92 0-17.078 13.844-30.922 30.92-30.922 17.078 0 30.922 13.844 30.922 30.921z"/><path stroke="var(--color-primary-200)" stroke-width="2" d="M189.8 60.853h-61.841M158.88 29.932v61.842"/><path fill="var(--color-primary-100)" d="M150.18 187.185l-69.862 10.78c-6.722 1.037-13.01-3.57-14.048-10.292L51.376 91.15c-.836-5.414 2.876-10.48 8.29-11.316l74.595-11.51c5.414-.835 10.481 2.877 11.315 8.291l14.895 96.523c1.037 6.722-3.57 13.011-10.292 14.048"/><path stroke="var(--color-primary-400)" stroke-width="3.5" d="M150.18 187.185l-69.862 10.78c-6.722 1.037-13.01-3.57-14.048-10.292L51.376 91.15c-.836-5.414 2.876-10.48 8.29-11.316l74.595-11.51c5.414-.835 10.481 2.877 11.315 8.291l14.895 96.523c1.037 6.722-3.57 13.011-10.292 14.048z"/><path fill="var(--color-neutral-50)" d="M143.954 167.99l-63.951 9.869a3.837 3.837 0 01-4.378-3.208L62.787 91.454a3.837 3.837 0 013.208-4.378l63.95-9.868a3.837 3.837 0 014.378 3.208l12.838 83.197a3.837 3.837 0 01-3.207 4.378"/><path stroke="var(--color-primary-200)" stroke-width="3" d="M143.954 167.99l-63.951 9.869a3.837 3.837 0 01-4.378-3.208L62.787 91.454a3.837 3.837 0 013.208-4.378l63.95-9.868a3.837 3.837 0 014.378 3.208l12.838 83.197a3.837 3.837 0 01-3.207 4.378z"/><path stroke="var(--color-primary-200)" stroke-linecap="round" stroke-width="2" d="M94.822 112.544l.889 5.758-14.951 2.306-1.076-6.977M83.499 103.725l9.73-1.5.406 2.621"/><path stroke="var(--color-primary-400)" stroke-linecap="round" stroke-width="3" d="M92.128 108.912l-3.484 4.586-11.295-8.275"/><path stroke="var(--color-primary-200)" stroke-linecap="round" stroke-width="3" d="M101.177 101.524l23.029-3.554M102.266 108.589l16.922-2.611M103.357 115.655l16.922-2.611"/><path stroke="var(--color-primary-200)" stroke-linecap="round" stroke-width="2" d="M100.356 148.407l.89 5.757-14.952 2.307-1.077-6.977M89.033 139.588l9.73-1.502.406 2.622"/><path stroke="var(--color-primary-400)" stroke-linecap="round" stroke-width="3" d="M97.66 144.774l-3.482 4.586-11.296-8.275"/><path stroke="var(--color-primary-200)" stroke-linecap="round" stroke-width="3" d="M106.71 137.386l23.029-3.554M107.8 144.452l16.922-2.611M108.89 151.518l23.029-3.554"/><path fill="var(--color-primary-200)" d="M104.159 64.498l-.63-4.074a2.855 2.855 0 00-3.257-2.386l-11.3 1.743a2.856 2.856 0 00-2.385 3.258l.629 4.073a1.04 1.04 0 01-.87 1.187l-6.338.978a4.142 4.142 0 00-3.463 4.727l1.417 9.183a1.912 1.912 0 002.18 1.599l36.088-5.568a1.912 1.912 0 001.598-2.182l-1.417-9.184a4.143 4.143 0 00-4.727-3.463l-6.338.978a1.04 1.04 0 01-1.187-.87"/><path stroke="var(--color-primary-400)" stroke-width="4" d="M104.159 64.498l-.63-4.074a2.855 2.855 0 00-3.257-2.386l-11.3 1.743a2.856 2.856 0 00-2.385 3.258l.629 4.073a1.04 1.04 0 01-.87 1.187l-6.338.978a4.142 4.142 0 00-3.463 4.727l1.417 9.183a1.912 1.912 0 002.18 1.599l36.088-5.568a1.912 1.912 0 001.598-2.182l-1.417-9.184a4.143 4.143 0 00-4.727-3.463l-6.338.978a1.04 1.04 0 01-1.187-.87z"/><path fill="var(--color-primary-600)" d="M88.525 75.599a2.75 2.75 0 11-5.435.837 2.75 2.75 0 015.435-.837M110.902 72.145a2.749 2.749 0 11-5.434.838 2.749 2.749 0 015.434-.837"/><path fill="var(--color-neutral-50)" d="M129.3 154.428l23.902-9.127a.735.735 0 00.306-1.155l-9.522-11.537a.736.736 0 00-1.192.08L129.3 154.43z"/><path stroke="var(--color-primary-600)" stroke-linecap="round" stroke-width="4" d="M129.3 154.428l23.902-9.127a.735.735 0 00.306-1.155l-9.522-11.537a.736.736 0 00-1.192.08L129.3 154.43zM203.931 104.104l-8.344 6.887-10.885-13.187 8.344-6.888"/><path fill="var(--color-primary-400)" d="M184.683 97.78l10.885 13.188-41.254 34.05a.212.212 0 01-.298-.029l-10.615-12.86a.212.212 0 01.028-.299l41.254-34.05z"/><path stroke="var(--color-primary-600)" stroke-linecap="round" stroke-width="4" d="M184.683 97.78l10.885 13.188-41.254 34.05a.212.212 0 01-.298-.029l-10.615-12.86a.212.212 0 01.028-.299l41.254-34.05z"/><path fill="var(--color-primary-600)" d="M125.983 157.14l16.284-6.22-8.224-6.767z"/><path fill="var(--color-primary-100)" d="M203.029 89.743l4.028 4.88a5.433 5.433 0 01-.731 7.648l-1.94 1.601a.496.496 0 01-.698-.067L193.375 91.31a.497.497 0 01.067-.699l1.939-1.6a5.433 5.433 0 017.648.732"/><path stroke="var(--color-primary-600)" stroke-linecap="round" stroke-width="4" d="M203.029 89.743l4.028 4.88a5.433 5.433 0 01-.731 7.648l-1.94 1.601a.496.496 0 01-.698-.067L193.375 91.31a.497.497 0 01.067-.699l1.939-1.6a5.433 5.433 0 017.648.732z"/><path fill="var(--color-neutral-50)" d="M190.14 107.736l2.963 3.622-38.293 31.328-2.964-3.622z"/><path stroke="var(--color-secondary-100)" stroke-width="3" d="M173.395 195.567a5.704 5.704 0 115.157-10.177 5.703 5.703 0 012.51 7.667 5.703 5.703 0 01-7.667 2.51z"/><path fill="var(--color-notification-warning-main)" d="M114.864 39.748a7.186 7.186 0 01-5.095-2.106c-2.808-2.81-2.808-7.381 0-10.19a1.5 1.5 0 112.121 2.122 4.21 4.21 0 000 5.946 4.211 4.211 0 005.948 0 1.501 1.501 0 012.121 2.122 7.186 7.186 0 01-5.095 2.106M24.589 158.107a1.502 1.502 0 01-1.061-2.561l8.265-8.265a1.5 1.5 0 112.12 2.121l-8.263 8.266a1.495 1.495 0 01-1.061.439"/><path fill="var(--color-notification-warning-main)" d="M32.853 158.107c-.384 0-.768-.146-1.06-.439l-8.265-8.266a1.5 1.5 0 112.121-2.121l8.265 8.265a1.502 1.502 0 01-1.06 2.561"/><g><path fill="none" d="M0 0h224v224H0z"/><path fill="none" d="M0 0h224v224H0z"/><path d="M0 0h224v224H0z"/></g></g></svg>