<svg id="empty--filtered--contacts" xmlns="http://www.w3.org/2000/svg" viewBox="0 0 224 224"><g fill="none" fill-rule="evenodd"><path fill="none" d="M0 0h224v224H0z"/><path fill="none" d="M0 0h224v224H0z"/><path d="M0 0h224v224H0z"/><g><path fill="var(--color-primary-100)" d="M195.2 117.176c-5.706 25.824-31.265 42.134-57.09 36.428-25.825-5.706-42.134-31.267-36.428-57.091 5.706-25.824 31.267-42.133 57.092-36.427 25.823 5.706 42.132 31.266 36.427 57.09"/><path fill="var(--color-neutral-50)" d="M62.066 169.06a8.89 8.89 0 118.037-15.858 8.89 8.89 0 01-8.037 15.858"/><path stroke="var(--color-primary-200)" stroke-width="3" d="M62.066 169.06a8.89 8.89 0 118.037-15.858 8.89 8.89 0 01-8.037 15.858z"/><path fill="var(--color-neutral-50)" d="M148.056 94.328a5.34 5.34 0 116.768-8.26 5.34 5.34 0 01-6.768 8.26"/><path stroke="var(--color-primary-200)" stroke-width="3" d="M148.056 94.328a5.34 5.34 0 116.768-8.26 5.34 5.34 0 01-6.768 8.26z"/><path stroke="var(--color-primary-200)" stroke-linecap="round" stroke-width="3" d="M119.878 132.89l-66.332 4.516a7.719 7.719 0 01-8.225-7.177l-5.988-87.971a7.717 7.717 0 017.177-8.224l66.33-4.516a7.719 7.719 0 018.226 7.177l5.988 87.97a7.718 7.718 0 01-7.176 8.225z"/><path fill="var(--color-primary-100)" d="M111.79 133.44l-66.333 4.516a7.72 7.72 0 01-8.225-7.177l-5.988-87.97a7.72 7.72 0 017.177-8.226l66.331-4.515a7.718 7.718 0 018.225 7.177l5.99 87.97a7.719 7.719 0 01-7.178 8.225"/><path stroke="var(--color-primary-400)" stroke-width="4" d="M111.79 133.44l-66.333 4.516a7.72 7.72 0 01-8.225-7.177l-5.988-87.97a7.72 7.72 0 017.177-8.226l66.331-4.515a7.718 7.718 0 018.225 7.177l5.99 87.97a7.719 7.719 0 01-7.178 8.225z"/><path fill="var(--color-primary-200)" d="M42.534 58.97a5.933 5.933 0 10-.806-11.837 5.933 5.933 0 00.806 11.838M42.849 63.603a5.934 5.934 0 10.806 11.836 5.934 5.934 0 00-.806-11.836M43.947 79.737a5.933 5.933 0 10.807 11.84 5.933 5.933 0 00-.807-11.84M45.068 96.208a5.933 5.933 0 10.807 11.839 5.933 5.933 0 00-.807-11.839M46.258 113.687a5.934 5.934 0 10.806 11.836 5.934 5.934 0 00-.806-11.836"/><path stroke="var(--color-primary-400)" stroke-linecap="round" stroke-width="5" d="M27.5 53.842l14.559-.991M28.621 70.312l14.559-.991M29.72 86.447l14.559-.991M30.841 102.918l14.559-.991M32.03 120.396l14.559-.991"/><path fill="var(--color-primary-300)" d="M89.526 95.092c-1.666-2.011-2.93-2.831-4.226-2.743-.936.063-1.72.59-2.646 1.207l-.377.254a.958.958 0 01-.473.162c-.414.028-1.157-.183-2.341-1.35-.991-.975-2.163-2.484-3.482-4.483-3.735-5.652-3.554-7.48-2.747-8.014l.378-.247c2.257-1.464 3.526-2.581 1.289-6.923-.785-1.521-1.696-2.422-2.808-2.695-1.344-.282-2.87.692-4.118 1.563-.224.158-.443.31-.656.45-1.32.872-1.812 3.454-1.284 6.74.607 3.78 2.447 8.14 5.179 12.278 2.733 4.137 6.022 7.538 9.26 9.578 2.03 1.282 3.999 1.962 5.403 1.867.51-.036.947-.17 1.298-.403.213-.14.439-.28.674-.426 1.326-.83 2.829-1.768 3.073-3.276.167-1.03-.303-2.221-1.396-3.54"/><path fill="var(--color-primary-100)" d="M129.526 90.951l-21.265 1.272a8.225 8.225 0 01-8.702-7.719l-.17-2.85a8.226 8.226 0 017.72-8.703l21.264-1.272 1.153 19.272z"/><path stroke="var(--color-primary-400)" stroke-linejoin="round" stroke-width="4" d="M129.526 90.951l-21.265 1.272a8.225 8.225 0 01-8.702-7.719l-.17-2.85a8.226 8.226 0 017.72-8.703l21.264-1.272 1.153 19.272z"/><path fill="var(--color-primary-400)" d="M111.764 79.602a3.004 3.004 0 11-2.873 5.275 3.004 3.004 0 012.873-5.275"/><path fill="var(--color-primary-200)" d="M118.563 126.95a5.688 5.688 0 00.12-1.594l-1.457-21.553a24.96 24.96 0 00-6.366-1.362c-13.738-1.068-25.741 9.203-26.81 22.942a24.896 24.896 0 00.677 8.002l28.112-1.902a7.719 7.719 0 005.724-4.534"/><path fill="var(--color-primary-100)" d="M150.203 152.074l-5.65 4.84-4.84-5.652 5.65-4.839z"/><path stroke="var(--color-primary-600)" stroke-linecap="round" stroke-width="1.6" d="M150.203 152.074l-5.65 4.84-4.84-5.652 5.65-4.839z"/><path fill="var(--color-neutral-50)" d="M145.421 111.01c9.65 11.267 8.338 28.222-2.928 37.87-11.266 9.65-28.222 8.34-37.87-2.927-9.65-11.266-8.34-28.221 2.926-37.871 11.267-9.65 28.223-8.34 37.872 2.928"/><path stroke="var(--color-primary-600)" stroke-linecap="round" stroke-width="4" d="M145.421 111.01c9.65 11.267 8.338 28.222-2.928 37.87-11.266 9.65-28.222 8.34-37.87-2.927-9.65-11.266-8.34-28.221 2.926-37.871 11.267-9.65 28.223-8.34 37.872 2.928z"/><path fill="var(--color-neutral-50)" d="M139.286 116.264c6.748 7.879 5.831 19.735-2.047 26.482-7.879 6.748-19.735 5.83-26.483-2.046-6.747-7.88-5.83-19.736 2.048-26.483 7.878-6.748 19.734-5.831 26.482 2.047"/><path stroke="var(--color-primary-600)" stroke-linecap="round" stroke-width="2" d="M139.286 116.264c6.748 7.879 5.831 19.735-2.047 26.482-7.879 6.748-19.735 5.83-26.483-2.046-6.747-7.88-5.83-19.736 2.048-26.483 7.878-6.748 19.734-5.831 26.482 2.047z"/><path fill="var(--color-primary-400)" d="M175.22 187.09a7.707 7.707 0 01-10.87-.84l-19.69-22.99a4.477 4.477 0 01.487-6.31l4.911-4.206a4.476 4.476 0 016.311.488l19.69 22.99a7.708 7.708 0 01-.84 10.869"/><path stroke="var(--color-primary-600)" stroke-linecap="round" stroke-width="2.6" d="M175.22 187.09h0a7.707 7.707 0 01-10.87-.84l-19.69-22.99a4.477 4.477 0 01.487-6.31l4.911-4.206a4.476 4.476 0 016.311.488l19.69 22.99a7.708 7.708 0 01-.84 10.869z"/><path stroke="var(--color-primary-600)" stroke-linecap="round" stroke-width="1.6" d="M157.737 154.828l14.206 16.586a7.71 7.71 0 01-11.71 10.03l-14.205-16.587"/><path stroke="var(--color-primary-200)" stroke-linecap="round" stroke-width="3" d="M106.556 179.382H94.868M100.712 173.538v11.688"/></g></g></svg>