<svg id="error--forbidden" xmlns="http://www.w3.org/2000/svg" xlink="http://www.w3.org/1999/xlink" viewBox="0 0 424 424"><defs><path id="a" d="M0 347.599h387.441V0H0z"/></defs><g fill="none" fill-rule="evenodd"><g transform="translate(18 13)"><path fill="var(--color-primary-100)" d="M281.728 334.944V121.13c0-49.472-40.104-89.577-89.576-89.577-49.471 0-89.576 40.105-89.576 89.577v213.813"/><path stroke="var(--color-primary-100)" d="M281.728 334.944V121.13c0-49.472-40.104-89.577-89.576-89.577-49.471 0-89.576 40.105-89.576 89.577v213.813"/><path fill="var(--color-primary-200)" d="M162.1 134.79c2.888-1.904 6.48-4.273 6.48-9.03 0-4.759-3.592-7.128-6.48-9.032-2.902-1.915-4.682-3.213-4.682-5.69 0-2.478 1.78-3.777 4.683-5.69 1.59-1.05 3.393-2.245 4.69-3.9.888-1.13.703-2.766-.34-3.754l-1.833-1.735-.047.024c.164 2.698-1.642 4.026-4.672 6.024-2.887 1.904-6.481 4.273-6.481 9.03s3.594 7.126 6.48 9.03c2.904 1.914 4.683 3.213 4.683 5.692 0 2.478-1.78 3.777-4.682 5.691-2.887 1.904-6.481 4.274-6.481 9.031 0 4.758 3.594 7.127 6.48 9.032 2.904 1.914 4.683 3.213 4.683 5.691 0 2.48-1.78 3.777-4.682 5.691-2.887 1.905-6.481 4.274-6.481 9.032s3.594 7.128 6.48 9.032c2.904 1.915 4.683 3.214 4.683 5.693 0 2.48-1.78 3.78-4.685 5.695-.261.172-.523.344-.783.518-.863.58-1.241 1.72-.762 2.642a2.002 2.002 0 002.897.743c.28-.189.566-.377.85-.564 2.889-1.905 6.483-4.275 6.483-9.034 0-4.758-3.593-7.129-6.48-9.033-2.903-1.914-4.683-3.214-4.683-5.692 0-2.479 1.78-3.778 4.683-5.692 2.887-1.904 6.48-4.273 6.48-9.03 0-4.759-3.593-7.128-6.48-9.032-2.903-1.914-4.683-3.213-4.683-5.692 0-2.478 1.78-3.777 4.683-5.69"/><mask id="b" fill="var(--color-neutral-50)"><use href="#a"/></mask><path fill="var(--color-primary-200)" d="M125.817 335.203h156.252v-59.389H125.817z" /><g ><path fill="var(--color-primary-100)" d="M124.953 334.944V62.553"/><path stroke="var(--color-primary-300)" stroke-linecap="round" stroke-width="2" d="M124.953 334.944V62.553"/></g><path fill="var(--color-primary-100)" d="M197.154 2.102c1.558-.062 3.12-.103 4.694-.103 64.161 0 116.174 52.014 116.174 116.175v216.77h-9.387v-216.77c0-62.588-49.498-113.607-111.481-116.072" /><path stroke="var(--color-primary-600)" stroke-linecap="round" stroke-width="4" d="M308.327 334.944v-216.77C308.327 54.013 256.313 2 192.152 2 127.99 2 75.977 54.013 75.977 118.174v216.77" /><path stroke="var(--color-primary-300)" stroke-linecap="round" stroke-width="2" d="M299.72 334.944V117.24c0-59.41-48.16-107.57-107.568-107.57-59.41 0-107.57 48.16-107.57 107.57v217.703" /><g ><path fill="var(--color-neutral-50)" d="M191.372 77.74V31.67"/><path stroke="var(--color-primary-300)" stroke-width="3" d="M191.372 77.74V31.67"/></g><path stroke="var(--color-primary-600)" stroke-linecap="round" stroke-width="2" d="M281.728 334.944V121.13c0-49.472-40.104-89.577-89.576-89.577-49.471 0-89.576 40.105-89.576 89.577v213.813" /><path fill="var(--color-neutral-50)" d="M228.488 108.041c0 20.345-16.493 36.837-36.837 36.837-20.345 0-36.837-16.492-36.837-36.837 0-20.345 16.492-36.837 36.837-36.837 20.344 0 36.837 16.492 36.837 36.837" /><path stroke="var(--color-primary-200)" stroke-width="1.5" d="M191.092 72.878v72M190.534 70.646c8.17 0 14.791 16.493 14.791 36.838 0 20.344-6.622 36.837-14.79 36.837" /><path stroke="var(--color-primary-200)" stroke-width="1.5" d="M190.534 70.646c14.95 0 27.07 16.493 27.07 36.838 0 20.344-12.12 36.837-27.07 36.837" /><path stroke="var(--color-primary-200)" stroke-width="1.5" d="M190.814 70.646c-8.17 0-14.791 16.493-14.791 36.838 0 20.344 6.622 36.837 14.79 36.837" /><path stroke="var(--color-primary-200)" stroke-width="1.5" d="M190.814 70.646c-14.95 0-27.07 16.493-27.07 36.838 0 20.344 12.12 36.837 27.07 36.837" /><path stroke="var(--color-primary-100)" stroke-width="1.5" d="M227.792 115.76c0 5.55-16.492 10.05-36.837 10.05-20.345 0-36.837-4.5-36.837-10.05M216.791 133.434c-6.649 2.037-15.77 3.294-25.836 3.294-9.499 0-18.159-1.12-24.69-2.958" /><path stroke="var(--color-primary-200)" stroke-width="1.5" d="M190.534 70.646c14.95 0 27.07 16.493 27.07 36.838 0 20.344-12.12 36.837-27.07 36.837" /><path stroke="var(--color-primary-200)" stroke-width="1.5" d="M190.814 70.646c-8.17 0-14.791 16.493-14.791 36.838 0 20.344 6.622 36.837 14.79 36.837" /><path stroke="var(--color-primary-200)" stroke-width="1.5" d="M190.814 70.646c-14.95 0-27.07 16.493-27.07 36.838 0 20.344 12.12 36.837 27.07 36.837" /><path stroke="var(--color-primary-200)" stroke-width="1.5" d="M190.534 70.646c8.17 0 14.791 16.493 14.791 36.838 0 20.344-6.622 36.837-14.79 36.837M191.092 72.878v72" /><path stroke="var(--color-primary-300)" stroke-width="3.5" d="M228.488 108.041c0 20.345-16.493 36.837-36.837 36.837-20.345 0-36.837-16.492-36.837-36.837 0-20.345 16.492-36.837 36.837-36.837 20.344 0 36.837 16.492 36.837 36.837z" /><path fill="var(--color-primary-200)" d="M229.25 56.302c-1.008 2.5-3.004 4.446-5.47 5.317 2.466.871 4.462 2.818 5.47 5.317 1.008-2.499 3.004-4.446 5.47-5.317-2.466-.871-4.462-2.817-5.47-5.317" /><path fill="var(--color-neutral-50)" d="M184.599 161.233c-1.008 2.499-3.004 4.445-5.47 5.316 2.466.87 4.462 2.818 5.47 5.318 1.008-2.5 3.004-4.447 5.47-5.318-2.466-.871-4.462-2.817-5.47-5.316" /><path fill="var(--color-primary-200)" d="M140.366 111.465c-1.136 2.818-3.387 5.013-6.168 5.995 2.781.982 5.032 3.177 6.168 5.995 1.137-2.818 3.388-5.013 6.168-5.995-2.78-.982-5.03-3.177-6.168-5.995" /><path stroke="var(--color-primary-200)" stroke-linecap="round" stroke-width="2" d="M115.023 252.227v-67.906M115.023 173.25v-25.209M81.139 346.599h70.326M172.395 346.599h129.767" /><path stroke="var(--color-primary-600)" stroke-linecap="round" stroke-width="2.5" d="M339.505 231.354a4.976 4.976 0 10-7.038-7.038l-.409.408a10.013 10.013 0 00-2.933 7.08v.252c0 2.655-1.055 5.202-2.933 7.08" /><path fill="var(--color-primary-100)" d="M343.913 327.297h8.523V204.506h-8.523z" /><path stroke="var(--color-primary-400)" stroke-linecap="round" stroke-width="2" d="M343.913 327.297h8.523V204.506h-8.523z" /><path fill="var(--color-primary-100)" d="M357.724 205.707a9.55 9.55 0 01-9.55 9.55c-5.274 0-9.55-4.276-9.55-9.55 0-5.274 4.276-9.55 9.55-9.55a9.55 9.55 0 019.55 9.55" /><path stroke="var(--color-primary-400)" stroke-linecap="round" stroke-width="2" d="M357.724 205.707a9.55 9.55 0 01-9.55 9.55c-5.274 0-9.55-4.276-9.55-9.55 0-5.274 4.276-9.55 9.55-9.55a9.55 9.55 0 019.55 9.55z" /><path fill="var(--color-primary-100)" d="M366.495 335.599c-1.943-6.215-9.399-10.85-18.32-10.85-8.923 0-16.379 4.635-18.323 10.85h36.643z" /><path stroke="var(--color-primary-400)" stroke-linecap="round" stroke-width="2.5" d="M366.495 335.599c-1.943-6.215-9.399-10.85-18.32-10.85-8.923 0-16.379 4.635-18.323 10.85h36.643z" /><path fill="var(--color-neutral-50)" d="M334.965 232.417v-1.663a2.973 2.973 0 012.973-2.973h20.473a2.973 2.973 0 012.972 2.973v1.663a2.973 2.973 0 01-2.972 2.973h-20.473a2.973 2.973 0 01-2.973-2.973" /><path stroke="var(--color-primary-400)" stroke-linecap="round" stroke-width="2" d="M334.965 232.417v-1.663a2.973 2.973 0 012.973-2.973h20.473a2.973 2.973 0 012.972 2.973v1.663a2.973 2.973 0 01-2.972 2.973h-20.473a2.973 2.973 0 01-2.973-2.973z" /><path fill="var(--color-primary-400)" d="M192.394 291.575c-51.244 0-99.809-14.281-129.91-38.204a8 8 0 01-1.286-11.24 8 8 0 0111.24-1.286c27.365 21.747 72.208 34.73 119.956 34.73 47.536 0 92.265-12.893 119.651-34.49a8 8 0 019.908 12.564c-30.115 23.748-78.548 37.926-129.559 37.926" /><path stroke="var(--color-primary-600)" stroke-width="2" d="M192.394 291.575c-51.244 0-99.809-14.281-129.91-38.204a8 8 0 01-1.286-11.24 8 8 0 0111.24-1.286c27.365 21.747 72.208 34.73 119.956 34.73 47.536 0 92.265-12.893 119.651-34.49a8 8 0 019.908 12.564c-30.115 23.748-78.548 37.926-129.559 37.926z" /><path fill="var(--color-primary-100)" d="M322.706 252.78l-10.549-11.559a1.11 1.11 0 01.071-1.569l8.046-7.344a1.111 1.111 0 011.57.073l10.55 11.556a1.113 1.113 0 01-.072 1.571l-8.046 7.343a1.111 1.111 0 01-1.57-.07" /><path stroke="var(--color-primary-600)" stroke-linecap="round" stroke-width="2" d="M322.706 252.78l-10.549-11.559a1.11 1.11 0 01.071-1.569l8.046-7.344a1.111 1.111 0 011.57.073l10.55 11.556a1.113 1.113 0 01-.072 1.571l-8.046 7.343a1.111 1.111 0 01-1.57-.07z" /><path stroke="var(--color-primary-600)" stroke-linecap="round" stroke-width="2.5" d="M45.19 231.354a4.976 4.976 0 117.038-7.038l.408.408a10.013 10.013 0 012.933 7.08v.252c0 2.655 1.055 5.202 2.933 7.08" /><path fill="var(--color-primary-100)" d="M62.14 252.785l10.376-11.714a1.11 1.11 0 00-.095-1.568l-8.154-7.224a1.112 1.112 0 00-1.569.095l-10.376 11.714a1.11 1.11 0 00.095 1.568l8.154 7.224c.46.407 1.162.364 1.57-.095" /><path stroke="var(--color-primary-600)" stroke-linecap="round" stroke-width="2" d="M62.14 252.785l10.376-11.714a1.11 1.11 0 00-.095-1.568l-8.154-7.224a1.112 1.112 0 00-1.569.095l-10.376 11.714a1.11 1.11 0 00.095 1.568l8.154 7.224c.46.407 1.162.364 1.57-.095z" /><g ><path fill="var(--color-primary-100)" d="M191.186 278.994v9.232"/><path stroke="var(--color-primary-200)" stroke-linecap="round" stroke-width="2" d="M191.186 278.994v9.232"/></g><g ><path fill="var(--color-primary-100)" d="M212.661 278.78l1.225 9.15"/><path stroke="var(--color-primary-200)" stroke-linecap="round" stroke-width="2" d="M212.661 278.78l1.225 9.15"/></g><g ><path fill="var(--color-primary-100)" d="M232.933 276.204l1.611 9.092"/><path stroke="var(--color-primary-200)" stroke-linecap="round" stroke-width="2" d="M232.933 276.204l1.611 9.092"/></g><g ><path fill="var(--color-primary-100)" d="M253.231 272.055l2.69 8.832"/><path stroke="var(--color-primary-200)" stroke-linecap="round" stroke-width="2" d="M253.231 272.055l2.69 8.832"/></g><g ><path fill="var(--color-primary-100)" d="M271.356 266.278l3.185 8.666"/><path stroke="var(--color-primary-200)" stroke-linecap="round" stroke-width="2" d="M271.356 266.278l3.185 8.666"/></g><g ><path fill="var(--color-primary-100)" d="M289.86 258.461l4.407 8.113"/><path stroke="var(--color-primary-200)" stroke-linecap="round" stroke-width="2" d="M289.86 258.461l4.407 8.113"/></g><g ><path fill="var(--color-primary-100)" d="M304.796 249.909l5.049 7.73"/><path stroke="var(--color-primary-200)" stroke-linecap="round" stroke-width="2" d="M304.796 249.909l5.049 7.73"/></g><g ><path fill="var(--color-primary-100)" d="M170.124 277.92l-1.225 9.15"/><path stroke="var(--color-primary-200)" stroke-linecap="round" stroke-width="2" d="M170.124 277.92l-1.225 9.15"/></g><g ><path fill="var(--color-primary-100)" d="M149.851 275.344l-1.61 9.092"/><path stroke="var(--color-primary-200)" stroke-linecap="round" stroke-width="2" d="M149.851 275.344l-1.61 9.092"/></g><g ><path fill="var(--color-primary-100)" d="M129.554 271.195l-2.69 8.832"/><path stroke="var(--color-primary-200)" stroke-linecap="round" stroke-width="2" d="M129.554 271.195l-2.69 8.832"/></g><g ><path fill="var(--color-primary-100)" d="M111.43 265.417l-3.186 8.666"/><path stroke="var(--color-primary-200)" stroke-linecap="round" stroke-width="2" d="M111.43 265.417l-3.186 8.666"/></g><g ><path fill="var(--color-primary-100)" d="M92.924 257.6l-4.407 8.113"/><path stroke="var(--color-primary-200)" stroke-linecap="round" stroke-width="2" d="M92.924 257.6l-4.407 8.113"/></g><g ><path fill="var(--color-primary-100)" d="M77.99 249.048l-5.05 7.73"/><path stroke="var(--color-primary-200)" stroke-linecap="round" stroke-width="2" d="M77.99 249.048l-5.05 7.73"/></g><path stroke="var(--color-primary-400)" stroke-width="2" d="M344.301 240.855h8.558" /><path fill="var(--color-primary-100)" d="M33.588 327.297h8.523V204.506h-8.523z" /><path stroke="var(--color-primary-400)" stroke-linecap="round" stroke-width="2" d="M33.588 327.297h8.523V204.506h-8.523z" /><path fill="var(--color-primary-100)" d="M47.4 205.707c0 5.274-4.277 9.55-9.55 9.55-5.275 0-9.55-4.276-9.55-9.55 0-5.274 4.275-9.55 9.55-9.55 5.273 0 9.55 4.276 9.55 9.55" /><path stroke="var(--color-primary-400)" stroke-linecap="round" stroke-width="2" d="M47.4 205.707c0 5.274-4.277 9.55-9.55 9.55-5.275 0-9.55-4.276-9.55-9.55 0-5.274 4.275-9.55 9.55-9.55 5.273 0 9.55 4.276 9.55 9.55z" /><path fill="var(--color-primary-100)" d="M56.17 335.599c-1.943-6.215-9.398-10.85-18.32-10.85-8.923 0-16.378 4.635-18.322 10.85H56.17z" /><path stroke="var(--color-primary-400)" stroke-linecap="round" stroke-width="2.5" d="M56.17 335.599c-1.943-6.215-9.398-10.85-18.32-10.85-8.923 0-16.378 4.635-18.322 10.85H56.17z" /><path fill="var(--color-neutral-50)" d="M24.64 232.417v-1.663a2.973 2.973 0 012.973-2.973h20.473a2.972 2.972 0 012.972 2.973v1.663a2.972 2.972 0 01-2.972 2.973H27.613a2.973 2.973 0 01-2.973-2.973" /><path stroke="var(--color-primary-400)" stroke-linecap="round" stroke-width="2" d="M24.64 232.417v-1.663a2.973 2.973 0 012.973-2.973h20.473a2.972 2.972 0 012.972 2.973v1.663a2.972 2.972 0 01-2.972 2.973H27.613a2.973 2.973 0 01-2.973-2.973z" /><path stroke="var(--color-primary-400)" stroke-width="2" d="M33.977 240.855h8.558" /><path stroke="var(--color-primary-600)" stroke-linecap="round" stroke-width="4" d="M2 336.041h383.441" /><path stroke="var(--color-neutral-50)" stroke-linecap="round" stroke-width="2" d="M144.758 48.899c2.184 1.974 5.125 3.348 5.125 7.05 0 5.888-7.442 5.888-7.442 11.778 0 5.889 7.442 5.889 7.442 11.778 0 5.89-7.442 5.89-7.442 11.78 0 2.87 1.768 4.343 3.58 5.779" /><path fill="var(--color-primary-300)" d="M252.007 97.306c2.887-1.904 6.48-4.273 6.48-9.031 0-4.758-3.593-7.127-6.48-9.031-2.903-1.915-4.683-3.213-4.683-5.691 0-2.477 1.78-3.776 4.683-5.69 1.591-1.05 3.393-2.244 4.692-3.9.887-1.128.702-2.765-.34-3.752l-1.834-1.736-.048.024c.165 2.699-1.64 4.026-4.672 6.024-2.887 1.904-6.48 4.273-6.48 9.03s3.594 7.126 6.48 9.03c2.903 1.914 4.683 3.213 4.683 5.692 0 2.478-1.78 3.777-4.683 5.69-2.887 1.905-6.48 4.275-6.48 9.032 0 4.758 3.594 7.127 6.48 9.032 2.903 1.914 4.683 3.213 4.683 5.69 0 2.48-1.78 3.778-4.683 5.692-2.887 1.905-6.48 4.274-6.48 9.032s3.594 7.128 6.48 9.032c2.903 1.915 4.683 3.214 4.683 5.693 0 2.48-1.78 3.779-4.685 5.695-.261.172-.523.344-.782.519-.864.579-1.242 1.719-.762 2.642a2 2 0 002.896.742c.28-.19.565-.377.85-.564 2.888-1.905 6.483-4.275 6.483-9.034 0-4.758-3.594-7.13-6.48-9.033-2.904-1.914-4.684-3.214-4.684-5.692 0-2.48 1.78-3.778 4.683-5.692 2.887-1.904 6.48-4.273 6.48-9.031 0-4.758-3.593-7.127-6.48-9.031-2.903-1.914-4.683-3.213-4.683-5.692 0-2.478 1.78-3.777 4.683-5.691" /><path fill="var(--color-neutral-50)" d="M174.513 58.777a6.153 6.153 0 01-2.522 3.994 6.183 6.183 0 01-8.603-1.486 1.286 1.286 0 012.101-1.483 3.609 3.609 0 005.021.869 3.608 3.608 0 00.867-5.021 1.284 1.284 0 112.101-1.481 6.156 6.156 0 011.035 4.608" /><path stroke="var(--color-primary-200)" stroke-width="3" d="M260.306 184.835a5.188 5.188 0 114.69-9.255 5.188 5.188 0 01-4.69 9.255z" /><path fill="var(--color-neutral-50)" d="M237.135 175.804a7.186 7.186 0 01-5.095-2.106c-2.808-2.81-2.808-7.38 0-10.19a1.5 1.5 0 112.122 2.121 4.211 4.211 0 000 5.947 4.21 4.21 0 005.946 0 1.501 1.501 0 012.121 2.122 7.182 7.182 0 01-5.094 2.106" /><path stroke="var(--color-primary-300)" stroke-width="1.5" d="M227.792 101.852c0 5.55-16.492 10.05-36.837 10.05-20.345 0-36.837-4.5-36.837-10.05M223.773 90.933c-6.098 3.253-18.504 5.48-32.817 5.48-13.77 0-25.775-2.061-32.097-5.114" /></g><path fill="none" d="M0 0h424v424H0z"/><path fill="none" d="M0 0h424v424H0z"/><path d="M0 0h424v424H0z"/></g></svg>