<svg id="error--not--found" xmlns="http://www.w3.org/2000/svg" xlink="http://www.w3.org/1999/xlink" viewBox="0 0 424 424"><defs><path id="a" d="M0 412.752h387.084V0H0z"/></defs><g fill="none" fill-rule="evenodd"><g transform="translate(18 8)"><path fill="var(--color-primary-200)" d="M127.775 354.45c0 2.045-3.454 3.703-7.714 3.703s-7.714-1.658-7.714-3.703 3.454-3.702 7.714-3.702 7.714 1.657 7.714 3.702M286.034 339.541V125.728c0-49.472-40.105-89.577-89.576-89.577-49.472 0-89.576 40.105-89.576 89.577v213.813"/><path stroke="var(--color-primary-400)" stroke-linecap="round" stroke-width="4" d="M312.632 339.82V123.05c0-64.16-52.012-116.173-116.174-116.173-64.161 0-116.175 52.013-116.175 116.174v216.77"/><path stroke="var(--color-primary-300)" stroke-linecap="round" stroke-width="2" d="M304.027 339.82V122.119c0-59.41-48.16-107.57-107.569-107.57-59.41 0-107.57 48.16-107.57 107.57V339.82"/><path fill="var(--color-primary-100)" d="M209.538 198.244H184.91l-78.418 140.65h178.604z"/><path fill="var(--color-neutral-50)" d="M107.1 339.895H284.86c-11.179-21.08-46.735-36.49-88.88-36.49-42.147 0-77.703 15.41-88.882 36.49M186.073 197.198V182.15c0-6.142 4.997-11.14 11.14-11.14 6.142 0 11.139 4.998 11.139 11.14v15.047h-22.28z"/><path fill="var(--color-primary-100)" d="M197.213 170.011c-6.705 0-12.14 5.436-12.14 12.14v16.047h24.28v-16.047c0-6.704-5.435-12.14-12.14-12.14m0 2c5.59 0 10.14 4.55 10.14 10.14v14.047h-20.28v-14.047c0-5.59 4.549-10.14 10.14-10.14"/><path fill="var(--color-neutral-50)" d="M185.648 390.366a5.04 5.04 0 01-3.683-1.606 5.046 5.046 0 01-1.33-3.792l13.674-183.97a2.716 2.716 0 012.697-2.504c1.408 0 2.592 1.1 2.697 2.504l13.673 183.97a5.039 5.039 0 01-1.33 3.792 5.038 5.038 0 01-3.682 1.606h-22.716z"/><path fill="var(--color-primary-100)" d="M197.006 196.744a4.473 4.473 0 00-4.442 4.124l-13.673 183.97a6.799 6.799 0 001.792 5.113 6.796 6.796 0 004.965 2.165h22.715a6.796 6.796 0 004.965-2.165 6.799 6.799 0 001.792-5.113l-13.673-183.97a4.473 4.473 0 00-4.441-4.124m0 3.5c.5 0 .915.386.952.884l13.673 183.97a3.276 3.276 0 01-3.268 3.518h-22.715a3.276 3.276 0 01-3.267-3.518l13.673-183.97a.955.955 0 01.952-.884"/><path stroke="var(--color-primary-600)" stroke-linecap="round" stroke-width="4" d="M178.259 340.872h37.837"/><path stroke="var(--color-primary-400)" stroke-linecap="square" stroke-width="1.5" d="M109.352 325.523h176.046"/><path stroke="var(--color-primary-300)" stroke-linecap="square" stroke-width="1.5" d="M152.864 326.08v15.071M241.887 326.08v15.071M174.701 308.592v16.07"/><path stroke="var(--color-primary-400)" stroke-linecap="square" stroke-width="1.5" d="M127.818 308.592v16.07"/><path stroke="var(--color-primary-300)" stroke-linecap="square" stroke-width="1.5" d="M219.213 308.592v16.07"/><path stroke="var(--color-primary-400)" stroke-linecap="square" stroke-width="1.5" d="M263.724 308.592v16.07"/><path stroke="var(--color-primary-300)" stroke-linecap="square" stroke-width="1.5" d="M174.701 275.476v15.07"/><path stroke="var(--color-primary-600)" stroke-linecap="square" stroke-width="1.5" d="M127.818 275.476v15.07"/><path stroke="var(--color-primary-300)" stroke-linecap="square" stroke-width="1.5" d="M219.213 275.476v15.07"/><path stroke="var(--color-primary-600)" stroke-linecap="square" stroke-width="1.5" d="M263.724 275.476v15.07"/><path stroke="var(--color-primary-300)" stroke-linecap="square" stroke-width="1.5" d="M152.864 291.848v15.07M241.887 291.848v15.07"/><path stroke="var(--color-primary-400)" stroke-linecap="square" stroke-width="1.5" d="M152.864 258.36v15.07"/><path stroke="var(--color-primary-300)" stroke-linecap="square" stroke-width="1.5" d="M241.887 258.36v15.07"/><path stroke="var(--color-primary-200)" stroke-linecap="square" stroke-width="1.5" d="M174.701 241.871v15.071"/><path stroke="var(--color-primary-400)" stroke-linecap="square" stroke-width="1.5" d="M127.818 240.871v16.071"/><path stroke="var(--color-primary-200)" stroke-linecap="square" stroke-width="1.5" d="M219.213 241.871v15.071"/><path stroke="var(--color-primary-600)" stroke-linecap="square" stroke-width="1.5" d="M263.724 240.871v16.071"/><path stroke="var(--color-primary-400)" stroke-linecap="round" stroke-width="1.5" d="M174.701 207.082v15.557M219.096 207.082v15.557"/><path stroke="var(--color-primary-400)" stroke-linecap="square" stroke-width="1.5" d="M127.818 207.755v15.07"/><path stroke="var(--color-primary-600)" stroke-linecap="square" stroke-width="1.5" d="M263.724 207.755v15.07"/><path stroke="var(--color-primary-400)" stroke-linecap="square" stroke-width="1.5" d="M152.864 224.127v15.07M241.887 224.127v15.07M106.376 191.082h178.883"/><path stroke="var(--color-primary-600)" stroke-linecap="square" stroke-width="1.5" d="M152.864 191.639v15.07M241.887 191.639v15.07"/><path stroke="var(--color-primary-400)" stroke-linecap="square" stroke-width="1.5" d="M174.701 174.151v16.093"/><path stroke="var(--color-primary-600)" stroke-linecap="square" stroke-width="1.5" d="M127.818 174.151v16.559M219.213 174.151v15.907M263.724 174.151v16.279"/><path stroke="var(--color-primary-400)" stroke-linecap="square" stroke-width="1.5" d="M174.701 141.035v15.07"/><path stroke="var(--color-primary-600)" stroke-linecap="square" stroke-width="1.5" d="M127.818 141.035v15.07M219.213 141.035v15.07M263.724 141.035v15.07M152.864 157.407v15.07"/><path stroke="var(--color-primary-400)" stroke-linecap="square" stroke-width="1.5" d="M197.376 157.407v16M241.887 157.407v15.07"/><path stroke="var(--color-primary-600)" stroke-linecap="square" stroke-width="1.5" d="M152.864 124.174v15.069M197.376 124.174v15.069M241.887 124.174v15.069M174.701 106.686v16.209M127.818 106.686v16.209M219.213 106.686v16.209M263.724 106.686v16.209M125.724 73.011h140.674M174.701 73.57v15.069M134.818 73.57v15.069M219.213 73.57v15.069M257.724 73.57v15.069M115.724 89.383h160.674M152.864 89.942v15.069M197.376 89.942v15.069M241.887 89.942v15.069"/><path stroke="var(--color-primary-400)" stroke-linecap="square" stroke-width="1.5" d="M174.701 41.477v15.069M219.213 41.477v15.069"/><path stroke="var(--color-primary-600)" stroke-linecap="square" stroke-width="1.5" d="M139.306 57.291h114.139M152.864 57.849v15.069M197.376 57.849v15.069M241.887 57.849v15.069M109.352 156.849h176.046M109.352 123.617h176.046"/><path stroke="var(--color-primary-600)" stroke-linecap="round" stroke-width="1.5" d="M109.352 207.198h176.186M109.352 223.57h176.186"/><path stroke="var(--color-primary-600)" stroke-linecap="square" stroke-width="1.5" d="M109.724 106.127h173.674M109.352 140.477h176.046"/><path stroke="var(--color-primary-200)" stroke-linecap="round" stroke-width="2" d="M238.375 351.476h59.442"/><path stroke="var(--color-primary-600)" stroke-linecap="round" stroke-width="4" d="M226.561 340.918h153.86"/><mask id="b" fill="var(--color-neutral-50)"><use href="#a"/></mask><path fill="var(--color-neutral-50)" d="M177.445 346.802h40v-3.907h-40z" /><path fill="var(--color-primary-100)" d="M215.4 385.024l-2.848-38.313h-3.51l2.867 38.572a3.276 3.276 0 01-3.266 3.519h-22.716a3.277 3.277 0 01-3.267-3.52l2.867-38.571h-3.51l-2.847 38.313a6.795 6.795 0 001.792 5.112 6.796 6.796 0 004.965 2.166h22.716c1.878 0 3.687-.79 4.965-2.166a6.795 6.795 0 001.792-5.112M335.83 312.532h-.104c-.73-2.545-9.778-4.556-20.839-4.556-11.06 0-20.11 2.01-20.84 4.556h-.112v41.896h.062c.053 2.688 9.384 4.865 20.89 4.865 11.505 0 20.836-2.177 20.89-4.865h.053v-41.896z" /><path stroke="var(--color-primary-600)" stroke-linejoin="round" stroke-width="3" d="M335.83 312.532h-.104c-.73-2.545-9.778-4.556-20.839-4.556-11.06 0-20.11 2.01-20.84 4.556h-.112v41.896h.062c.053 2.688 9.384 4.865 20.89 4.865 11.505 0 20.836-2.177 20.89-4.865h.053v-41.896z" /><path fill="var(--color-neutral-50)" d="M299.598 317.086v39.124c3.138.805 7.996 1.503 14.318 1.57v-40.694h-14.318z" /><path stroke="var(--color-primary-600)" stroke-linecap="round" d="M301.842 347.44c-4.784-.896-7.847-2.273-7.847-3.82" /><path fill="var(--color-primary-300)" d="M333.708 312.373c-1.23-2.113-9.756-3.752-20.11-3.752-11.2 0-20.28 1.916-20.28 4.279 0 2.364 9.08 4.28 20.28 4.28a92.4 92.4 0 005.953-.19v22.142a2.047 2.047 0 004.093 0v-12.651a3.535 3.535 0 017.07 0v6.512a1.86 1.86 0 003.721 0v-20.837l-.727.217z" /><path stroke="var(--color-primary-400)" stroke-linecap="round" d="M309.013 348.313a67.61 67.61 0 01-5.227-.55M335.78 343.62c0 2.7-9.354 4.89-20.893 4.89" /><path stroke="var(--color-primary-600)" stroke-linecap="round" stroke-width="3" d="M335.78 312.864c0 2.7-9.354 4.889-20.893 4.889-11.538 0-20.892-2.19-20.892-4.89 0-2.698 9.353-4.887 20.892-4.887 11.538 0 20.892 2.189 20.892 4.888z" /><path stroke="var(--color-primary-600)" stroke-linecap="round" stroke-width="2" d="M335.78 319.715c0 2.7-9.354 4.888-20.893 4.888-11.538 0-20.892-2.189-20.892-4.888" /><path fill="var(--color-primary-100)" d="M385.584 332.444h-.128c-.902-3.142-12.072-5.625-25.727-5.625-13.656 0-24.826 2.483-25.727 5.625h-.139v51.72h.076c.066 3.32 11.586 6.008 25.79 6.008 14.204 0 25.723-2.688 25.79-6.007h.065v-51.721z" /><path stroke="var(--color-primary-400)" stroke-linejoin="round" stroke-width="3" d="M385.584 332.444h-.128c-.902-3.142-12.072-5.625-25.727-5.625-13.656 0-24.826 2.483-25.727 5.625h-.139v51.72h.076c.066 3.32 11.586 6.008 25.79 6.008 14.204 0 25.723-2.688 25.79-6.007h.065v-51.721z" /><path fill="var(--color-neutral-50)" d="M356.29 388.55v-50.627h-11.918V387.4c3.057.561 6.989 1.006 11.919 1.15" /><path stroke="var(--color-primary-600)" stroke-linecap="round" stroke-width="3" d="M385.521 332.854c0 3.333-11.547 6.034-25.792 6.034-14.245 0-25.792-2.701-25.792-6.034 0-3.333 11.547-6.035 25.792-6.035 14.245 0 25.792 2.702 25.792 6.035z" /><path stroke="var(--color-primary-400)" stroke-linecap="round" stroke-width="2" d="M385.521 350.183c0 3.333-11.547 6.034-25.792 6.034-14.245 0-25.792-2.701-25.792-6.034" /><path stroke="var(--color-primary-400)" stroke-linecap="round" d="M385.521 355.207c0 3.332-11.547 6.034-25.792 6.034-14.245 0-25.792-2.702-25.792-6.034" /><path fill="var(--color-primary-400)" d="M370.822 347.792a3.409 3.409 0 11-6.818.001 3.409 3.409 0 016.817 0" /><path stroke="var(--color-primary-600)" stroke-linecap="round" stroke-width="2.5" d="M367.684 347.16l5.99-29.263c.998-5.605-3.06-10.848-8.737-11.286a9.625 9.625 0 00-10.212 7.887l-2.21 11.28" /><path fill="var(--color-primary-200)" d="M296.887 367.825c0 1.233-2.083 2.232-4.651 2.232-2.57 0-4.651-1-4.651-2.232 0-1.232 2.082-2.232 4.65-2.232 2.569 0 4.652 1 4.652 2.232M107.12 361.5c0 1.232-2.083 2.231-4.651 2.231-2.57 0-4.651-.999-4.651-2.232s2.082-2.232 4.65-2.232c2.569 0 4.652 1 4.652 2.232M265.632 379.392c1.219-.402 2.02-1.075 2.02-1.839 0-1.232-2.082-2.232-4.651-2.232-2.57 0-4.651 1-4.651 2.232 0 .387.222.745.583 1.063-3.647.365-6.385 1.916-6.385 3.774 0 2.131 3.596 3.857 8.034 3.857 4.438 0 8.034-1.726 8.034-3.857 0-1.211-1.166-2.291-2.984-2.998" /><g ><path fill="var(--color-neutral-50)" d="M301.6 405.302l-10.884 6.37a2.408 2.408 0 01-3.295-.862l-1.527-2.61a.73.73 0 01.005-.746l2.74-4.558-4.96.748a.617.617 0 01-.626-.299l-5.568-9.515a2.408 2.408 0 01.862-3.295l10.33-6.045"/><path stroke="var(--color-primary-300)" stroke-linecap="round" stroke-linejoin="round" stroke-width="1.5" d="M301.6 405.302l-10.884 6.37a2.408 2.408 0 01-3.295-.862l-1.527-2.61a.73.73 0 01.005-.746l2.74-4.558-4.96.748a.617.617 0 01-.626-.299l-5.568-9.515a2.408 2.408 0 01.862-3.295l10.33-6.045"/></g><g ><path fill="var(--color-primary-300)" d="M296.424 379.71l12.19 1.803a5.546 5.546 0 003.507-.852l19.141-13.342a19.156 19.156 0 019.362-2.929c2.897-.129 4.753 3.043 3.222 5.506a19.147 19.147 0 01-7.14 6.726l-21.007 10.154a5.556 5.556 0 00-2.46 2.64l-4.398 11.512"/><path stroke="var(--color-primary-600)" stroke-linecap="round" stroke-width="2" d="M296.424 379.71l12.19 1.803a5.546 5.546 0 003.507-.852l19.141-13.342a19.156 19.156 0 019.362-2.929c2.897-.129 4.753 3.043 3.222 5.506a19.147 19.147 0 01-7.14 6.726l-21.007 10.154a5.556 5.556 0 00-2.46 2.64l-4.398 11.512"/></g><path fill="var(--color-neutral-50)" d="M336.96 372.45a2.339 2.339 0 01-2.143-2.513 2.346 2.346 0 012.514-2.142 2.318 2.318 0 011.59.812 2.32 2.32 0 01.553 1.699 2.349 2.349 0 01-2.327 2.152s-.125-.003-.187-.008" /><path fill="var(--color-primary-400)" d="M337.143 367.286a2.85 2.85 0 00-2.825 2.61c-.06.755.178 1.488.67 2.065a2.816 2.816 0 002.158.996 2.85 2.85 0 002.825-2.61 2.819 2.819 0 00-.668-2.064 2.812 2.812 0 00-2.16-.997m0 1a1.836 1.836 0 11.004 3.672 1.836 1.836 0 01-.004-3.672" /><path fill="var(--color-primary-100)" d="M287.332 390.756l-6.534 3.824a.617.617 0 01-.623-1.064l6.534-3.824a.617.617 0 11.623 1.064M295.822 379.971l-5.88 3.44a1.735 1.735 0 00-.62 2.375l10.762 18.392a1.736 1.736 0 002.375.621l5.88-3.44a1.735 1.735 0 00.62-2.375l-10.762-18.392a1.736 1.736 0 00-2.375-.62" /><path stroke="var(--color-primary-600)" stroke-linecap="round" stroke-linejoin="round" stroke-width="2" d="M295.822 379.971l-5.88 3.44a1.735 1.735 0 00-.62 2.375l10.762 18.392a1.736 1.736 0 002.375.621l5.88-3.44a1.735 1.735 0 00.62-2.375l-10.762-18.392a1.736 1.736 0 00-2.375-.62z" /><path stroke="var(--color-primary-600)" stroke-linecap="round" stroke-width="4" d="M6.306 340.918h159.791" /><path stroke="var(--color-primary-200)" stroke-linecap="round" stroke-width="2" d="M41.632 351.476h20.93" /><path fill="var(--color-primary-100)" d="M68.496 354.328l-2.261.546a3.56 3.56 0 01-4.295-2.626l-11.69-48.475a6.99 6.99 0 01.833-5.285l4.213-6.89-7.321-4.986a6.985 6.985 0 01-2.86-4.138l-6.13-25.414 9.183-2.213 5.184 21.5a7.986 7.986 0 003.266 4.725l7.339 4.998a5.194 5.194 0 011.508 7.002l-4.07 6.656a7.982 7.982 0 00-.95 6.034l10.677 44.272a3.56 3.56 0 01-2.626 4.294" /><path stroke="var(--color-primary-400)" stroke-linecap="round" stroke-linejoin="round" stroke-width="2.5" d="M68.496 354.328l-2.261.546a3.56 3.56 0 01-4.295-2.626l-11.69-48.475a6.99 6.99 0 01.833-5.285l4.213-6.89-7.321-4.986a6.985 6.985 0 01-2.86-4.138l-6.13-25.414 9.183-2.213 5.184 21.5a7.986 7.986 0 003.266 4.725l7.339 4.998a5.194 5.194 0 011.508 7.002l-4.07 6.656a7.982 7.982 0 00-.95 6.034l10.677 44.272a3.56 3.56 0 01-2.626 4.294z" /><path fill="var(--color-neutral-50)" d="M26.914 196.692L2.176 264.588c-.89 2.939 1.735 5.738 4.724 5.04l77.005-17.997c2.989-.7 4.1-4.371 2.002-6.611l-52.267-49.9c-2.1-2.24-5.836-1.366-6.726 1.572" /><path stroke="var(--color-primary-600)" stroke-linecap="round" stroke-linejoin="round" stroke-width="4" d="M26.914 196.692L2.176 264.588c-.89 2.939 1.735 5.738 4.724 5.04l77.005-17.997c2.989-.7 4.1-4.371 2.002-6.611l-52.267-49.9c-2.1-2.24-5.836-1.366-6.726 1.572z" /><path fill="var(--color-primary-200)" d="M30.97 206.468l-19.214 52.3c-.567 1.544.809 3.1 2.41 2.725l59.619-13.932c1.603-.374 2.147-2.38.954-3.513l-40.404-38.366a2.067 2.067 0 00-3.364.786" /><path fill="var(--color-neutral-50)" d="M28.45 241.804l-.782-3.344-1.32 3.834 2.101-.49zm3.644 1.922l.53 2.27-3.029.706-.53-2.267-5.016 1.172-.596-2.549 2.688-7.768 3.775-.88 1.562 6.685 1.606-.375.615 2.631-1.605.375zM38.099 235.06c-1.225.287-1.371 1.754-.907 3.738.464 1.987 1.249 3.252 2.473 2.967 1.226-.287 1.35-1.766.887-3.752-.464-1.984-1.228-3.238-2.453-2.953m-.615-2.631c3.112-.726 5.304 1.485 6.097 4.877.793 3.395-.188 6.363-3.3 7.09-3.113.728-5.308-1.498-6.101-4.893-.793-3.392.192-6.345 3.304-7.074M50.035 236.76l-.782-3.345-1.32 3.834 2.102-.49zm3.644 1.921l.53 2.27-3.029.706-.53-2.267-5.015 1.172-.596-2.549 2.688-7.768 3.774-.88 1.563 6.685 1.606-.375.614 2.631-1.605.375z" /><path stroke="var(--color-primary-400)" stroke-linecap="round" stroke-width="2" d="M41.911 267.57l8.651-1.675" /><path stroke="var(--color-primary-600)" stroke-linecap="square" stroke-width="1.5" d="M109.352 274.918h176.046" /><path stroke="var(--color-primary-400)" stroke-linecap="square" stroke-width="1.5" d="M109.352 291.291h176.046" /><path stroke="var(--color-primary-600)" stroke-linecap="round" stroke-width="1.5" d="M109.352 240.314h176.186" /><path stroke="var(--color-primary-400)" stroke-linecap="round" stroke-width="1.5" d="M109.352 257.616h176.186" /><path stroke="var(--color-primary-600)" stroke-linecap="square" stroke-width="1.5" d="M109.352 308.035h176.046" /><path stroke="var(--color-primary-400)" stroke-linecap="round" stroke-width="1.5" d="M108.05 173.593h177.581" /><path stroke="var(--color-primary-600)" stroke-linecap="round" stroke-width="3.5" d="M286.034 339.82V126.009c0-49.472-40.105-89.577-89.576-89.577-49.472 0-89.576 40.105-89.576 89.577V339.82" /><path fill="var(--color-neutral-50)" d="M210.306 38.779h-27.35l-3-37.278h33.35z" /><path stroke="var(--color-primary-400)" stroke-linecap="round" stroke-linejoin="round" stroke-width="3" d="M210.306 38.779h-27.35l-3-37.278h33.35z" /></g><path fill="none" d="M0 0h424v424H0z"/><path fill="none" d="M0 0h424v424H0z"/><path d="M0 0h424v424H0z"/></g></svg>