<svg id="file--processing" xmlns="http://www.w3.org/2000/svg" xlink="http://www.w3.org/1999/xlink" viewBox="0 0 48 48"><defs><path id="a" d="M0 0h33v41H0z"/></defs><g fill="none" fill-rule="evenodd"><path fill="var(--color-primary-100)" d="M10 17v13.17c0 1.963 1.47 3.723 3.43 3.825a3.626 3.626 0 003.82-3.62v-1.75a3.625 3.625 0 017.25 0v3.545c0 1.963 1.47 3.723 3.43 3.825a3.626 3.626 0 003.82-3.62v-3.75A3.625 3.625 0 0135.375 25 3.625 3.625 0 0039 21.375V11l-6-6H9l1 12z"/><g transform="translate(8 4)"><mask id="b" fill="var(--color-neutral-50)"><use href="#a"/></mask><path fill="var(--color-primary-400)" d="M9.308 2h-3a1 1 0 110-2h3a1 1 0 110 2m8 0h-3a1 1 0 110-2h3a1 1 0 110 2m8 0h-3a1 1 0 110-2h3a1 1 0 110 2M1 4.692a1 1 0 01-1-1V0h1.308A1 1 0 012 1.722v1.97a1 1 0 01-1 1M30.108 6.8a.999.999 0 01-.707-.293L27.28 4.386a.999.999 0 111.414-1.414l2.12 2.121a.999.999 0 01-.706 1.707M1 12.692a1 1 0 01-1-1v-3a1 1 0 012 0v3a1 1 0 01-1 1m31 1.325a1 1 0 01-1-1v-3a1 1 0 112 0v3a1 1 0 01-1 1M1 20.692a1 1 0 01-1-1v-3a1 1 0 012 0v3a1 1 0 01-1 1m31 1.325a1 1 0 01-1-1v-3a1 1 0 112 0v3a1 1 0 01-1 1M1 28.692a1 1 0 01-1-1v-3a1 1 0 012 0v3a1 1 0 01-1 1m31 1.325a1 1 0 01-1-1v-3a1 1 0 112 0v3a1 1 0 01-1 1M1 36.692a1 1 0 01-1-1v-3a1 1 0 012 0v3a1 1 0 01-1 1m31 1.31a.988.988 0 01-.998-1.064L31 34.017a1 1 0 112 0v2.97c0 .553-.447 1.015-1 1.015M4.693 41h-3a1 1 0 110-2h3a1 1 0 110 2m8 0h-3a1 1 0 110-2h3a1 1 0 110 2m8 0h-3a1 1 0 110-2h3a1 1 0 110 2m8 0h-3a1 1 0 110-2h3a1 1 0 110 2" /></g><path fill="var(--color-neutral-50)" d="M32.59 5.098v5.353A2.549 2.549 0 0035.139 13h4.86"/><path fill="var(--color-primary-400)" d="M40 14h-4.861a3.554 3.554 0 01-3.549-3.55V5.098h2v5.352c0 .855.695 1.55 1.549 1.55H40v2z"/><path fill="var(--color-primary-400)" d="M41 22h-2v-9.894L32.894 6H10v16H8V4h25.722L41 11.278z"/></g></svg>