<svg id="other--message--failed" xmlns="http://www.w3.org/2000/svg" xlink="http://www.w3.org/1999/xlink" viewBox="0 0 224 224"><defs><path id="a" d="M0 0h160.034v160.034H0z"/><path id="c" d="M0 189.922h167.154V0H0z"/></defs><g fill="none" fill-rule="evenodd"><g transform="translate(28 17)"><g transform="translate(7.12 29.888)"><mask id="b" fill="var(--color-neutral-50)"><use href="#a"/></mask><path fill="var(--color-primary-50)" d="M158.133 97.277c-9.532 43.143-52.233 70.389-95.375 60.856C19.615 148.601-7.631 105.9 1.901 62.757 11.433 19.615 54.134-7.631 97.277 1.901c43.142 9.532 70.388 52.233 60.856 95.376" /></g><mask id="d" fill="var(--color-neutral-50)"><use href="#c"/></mask><path fill="var(--color-primary-100)" d="M84.93 188.323h10.713v-53.899H84.93z" /><path stroke="var(--color-primary-200)" stroke-linejoin="round" stroke-width="3" d="M84.93 188.323h10.713v-53.899H84.93z" /><path fill="var(--color-primary-50)" d="M54.264 66.835c-18.72 0-33.896 15.176-33.896 33.896v28.497a8.413 8.413 0 008.413 8.412H147.178a3.249 3.249 0 003.249-3.25v-33.66c0-18.72-15.175-33.895-33.895-33.895H54.264z" /><path stroke="var(--color-primary-600)" stroke-width="3" d="M54.264 66.835h0c-18.72 0-33.896 15.176-33.896 33.896v28.497a8.413 8.413 0 008.413 8.412H147.178a3.249 3.249 0 003.249-3.25v-33.66c0-18.72-15.175-33.895-33.895-33.895H54.264z" /><path fill="var(--color-primary-200)" d="M148.18 92.948H83.736c.588 2.5.908 5.104.908 7.783v35.57h62.275a2.169 2.169 0 002.169-2.17v-33.4c0-2.68-.321-5.283-.908-7.783" /><path fill="var(--color-primary-600)" d="M123.453 93.632a6.863 6.863 0 01-6.863 6.862 6.863 6.863 0 116.863-6.862" /><path fill="var(--color-primary-50)" d="M140.206 114.133V93.656h15.306v20.477c0 .877-.71 1.587-1.585 1.587h-12.135c-.876 0-1.586-.71-1.586-1.587" /><path stroke="var(--color-primary-600)" stroke-linejoin="round" stroke-width="3" d="M140.206 114.133V93.656h15.306v20.477c0 .877-.71 1.587-1.585 1.587h-12.135c-.876 0-1.586-.71-1.586-1.587z" /><path stroke="var(--color-primary-600)" stroke-linecap="round" stroke-width="4" d="M117.311 93.501h37.634" /><path fill="var(--color-neutral-50)" d="M119.74 93.632a3.15 3.15 0 11-6.299 0 3.15 3.15 0 016.3 0" /><path fill="var(--color-primary-400)" d="M84.644 137.64H24.275a7.423 7.423 0 01-7.423-7.424V96.742c0-16.517 13.391-29.907 29.908-29.907h7.977c16.517 0 29.907 13.39 29.907 29.907v40.897z" /><path stroke="var(--color-primary-600)" stroke-width="3" d="M84.644 137.64H24.275a7.423 7.423 0 01-7.423-7.424V96.742c0-16.517 13.391-29.907 29.908-29.907h7.977c16.517 0 29.907 13.39 29.907 29.907v40.897z" /><path stroke="var(--color-primary-600)" stroke-linecap="round" stroke-width="3" d="M77.808 66.981c10.735 5.687 18.048 16.975 18.048 29.971v39.481" /><path stroke="var(--color-primary-600)" stroke-linecap="round" stroke-width="2" d="M107.242 128.349h11.55M128.332 128.349h21.593" /><path stroke="var(--color-primary-600)" stroke-width="3" d="M54.02 66.836c16.913 0 30.624 13.71 30.624 30.625v40.179" /><path fill="var(--color-primary-200)" d="M4.613 128.475h80.032v9.122H4.613a3.112 3.112 0 01-3.113-3.112v-2.897a3.113 3.113 0 013.113-3.113" /><path stroke="var(--color-primary-600)" stroke-width="3" d="M4.613 128.475h80.032v9.122H4.613a3.112 3.112 0 01-3.113-3.112v-2.897a3.113 3.113 0 013.113-3.113z" /><path fill="var(--color-neutral-50)" d="M129.02 36.898h-1.286c-.8-3.374-3.827-5.887-7.446-5.887-3.62 0-6.645 2.513-7.447 5.887h-1.286a4.709 4.709 0 100 9.42h8.39c.114.005.227.017.343.017.115 0 .228-.012.342-.018h8.39a4.709 4.709 0 100-9.419" /><path stroke="var(--color-primary-200)" stroke-linecap="round" stroke-linejoin="round" stroke-width="2.5" d="M129.02 36.898h-1.286c-.8-3.374-3.827-5.887-7.446-5.887-3.62 0-6.645 2.513-7.447 5.887h-1.286a4.709 4.709 0 100 9.42h8.39c.114.005.227.017.343.017.115 0 .228-.012.342-.018h8.39a4.709 4.709 0 100-9.419z" /><path fill="var(--color-neutral-50)" d="M56.864 163.382h-1.761c-1.098-4.621-5.243-8.064-10.2-8.064-4.958 0-9.103 3.442-10.201 8.064H32.94a6.45 6.45 0 100 12.903h11.492c.157.007.31.024.47.024.158 0 .312-.017.469-.024h11.492a6.45 6.45 0 100-12.903" /><path stroke="var(--color-primary-200)" stroke-linecap="round" stroke-linejoin="round" stroke-width="3" d="M56.864 163.382h-1.761c-1.098-4.621-5.243-8.064-10.2-8.064-4.958 0-9.103 3.442-10.201 8.064H32.94a6.45 6.45 0 100 12.903h11.492c.157.007.31.024.47.024.158 0 .312-.017.469-.024h11.492a6.45 6.45 0 100-12.903z" /><path stroke="var(--color-primary-200)" stroke-linecap="round" stroke-width="3" d="M71.63 18.317a19.702 19.702 0 01-1.647 3.085" /><path stroke="var(--color-primary-200)" stroke-dasharray="6.895,8.865" stroke-linecap="round" stroke-width="3" d="M63.647 27.502A19.706 19.706 0 0154.5 30.3l-6.624.346a19.712 19.712 0 00-10.111 3.418" /><path stroke="var(--color-primary-200)" stroke-linecap="round" stroke-width="3" d="M34.412 36.96a19.815 19.815 0 00-3.751 5.87" /><path stroke="var(--color-primary-200)" stroke-dasharray="7.336,9.432" stroke-linecap="round" stroke-width="3" d="M29.248 52.07a19.692 19.692 0 004.394 10.784l10.985 13.41a33.788 33.788 0 016.982 14.71" /><path stroke="var(--color-primary-200)" stroke-linecap="round" stroke-width="3" d="M52.22 95.644a33.94 33.94 0 01.032 3.495" /><path stroke="var(--color-primary-100)" stroke-linecap="round" stroke-width="3" d="M37.404 105.435v4.435M29.494 113.211h4.434" /><path stroke="var(--color-primary-500)" stroke-linecap="round" stroke-width="3" d="M81.567 9.032l4.209-1.395M74.175 5.71l-1.396-4.209" /><path stroke="var(--color-primary-200)" stroke-linecap="round" stroke-width="3" d="M89.472 45.598l1.732-4.082M83.843 47.519l-4.082-1.732" /><path fill="var(--color-primary-200)" d="M87.174 49.137c.946-.6 2.184-.346 2.765.57.581.915.286 2.144-.66 2.744-.946.601-2.184.346-2.765-.569-.58-.915-.286-2.144.66-2.745M75.36 8.393c.946-.6 2.184-.346 2.765.57.581.915.286 2.144-.66 2.744-.946.601-2.184.346-2.765-.569-.58-.915-.286-2.144.66-2.745" /><path fill="var(--color-primary-200)" d="M38.089 113.476c.746-.613 1.83-.525 2.424.196.594.722.47 1.804-.276 2.417-.745.613-1.831.525-2.424-.197s-.47-1.804.276-2.416" /></g><path fill="none" d="M0 0h224v224H0z"/><path fill="none" d="M0 0h224v224H0z"/><path d="M0 0h224v224H0z"/></g></svg>