<svg id="other--waiting--room" xmlns="http://www.w3.org/2000/svg" xlink="http://www.w3.org/1999/xlink" viewBox="0 0 224 224"><defs><path id="a" d="M0 0h178.249v61.318H0z"/><path id="c" d="M0 189.23h178.538V0H0z"/></defs><g fill="none" fill-rule="evenodd"><g transform="translate(23 17)"><path fill="var(--color-primary-50)" d="M172.544 135.336h-21.866v-25.17h22.39a3.283 3.283 0 013.285 3.283v18.078a3.809 3.809 0 01-3.81 3.809"/><path stroke="var(--color-primary-200)" stroke-width="3" d="M172.544 135.336h-21.866v-25.17h22.39a3.283 3.283 0 013.285 3.283v18.078a3.809 3.809 0 01-3.81 3.809z"/><g transform="translate(.29 127.912)"><mask id="b" fill="var(--color-neutral-50)"><use href="#a"/></mask><path fill="var(--color-primary-50)" d="M178.249 30.659c0 16.933-39.902 30.659-89.125 30.659C39.903 61.318 0 47.592 0 30.659S39.903 0 89.124 0c49.223 0 89.125 13.726 89.125 30.659" /></g><path fill="var(--color-primary-50)" d="M173.283 109.7H156.91V86.81c0-.407.33-.737.737-.737h14.898c.407 0 .737.33.737.737v22.89z"/><path stroke="var(--color-primary-200)" stroke-width="2" d="M173.283 109.7H156.91V86.81c0-.407.33-.737.737-.737h14.898c.407 0 .737.33.737.737v22.89z"/><path fill="var(--color-primary-100)" d="M160.073 109.7H147.05V94.253c0-.82.663-1.482 1.481-1.482H158.593c.817 0 1.48.663 1.48 1.482V109.7z"/><path stroke="var(--color-primary-200)" stroke-width="2" d="M160.073 109.7H147.05V94.253c0-.82.663-1.482 1.481-1.482H158.593c.817 0 1.48.663 1.48 1.482V109.7z"/><path fill="var(--color-primary-200)" d="M150.523 116.844l-13.21-13.21V78.26h3.828c5.182 0 9.382 4.2 9.382 9.382v29.203z"/><path stroke="var(--color-primary-600)" stroke-width="3" d="M150.523 116.844l-13.21-13.21V78.26h3.828c5.182 0 9.382 4.2 9.382 9.382v29.203z"/><path fill="var(--color-primary-200)" d="M1.5 116.844l13.209-13.21V78.26h-3.827A9.382 9.382 0 001.5 87.641v29.203z"/><path stroke="var(--color-primary-600)" stroke-width="3" d="M1.5 116.844l13.209-13.21V78.26h-3.827A9.382 9.382 0 001.5 87.641v29.203z"/><path fill="var(--color-primary-400)" d="M138.637 134.552H13.414a2.571 2.571 0 01-2.572-2.572v-5.34H141.21v5.34a2.572 2.572 0 01-2.573 2.572"/><path stroke="var(--color-primary-600)" stroke-width="2" d="M138.637 134.552H13.414a2.571 2.571 0 01-2.572-2.572v-5.34H141.21v5.34a2.572 2.572 0 01-2.573 2.572z"/><path fill="var(--color-primary-100)" d="M128.343 95.748H76.025V71.337a8.333 8.333 0 018.333-8.333h43.985a8.332 8.332 0 018.333 8.333v16.078a8.333 8.333 0 01-8.333 8.333"/><path stroke="var(--color-primary-600)" stroke-width="3" d="M128.343 95.748H76.025V71.337a8.333 8.333 0 018.333-8.333h43.985a8.332 8.332 0 018.333 8.333v16.078a8.333 8.333 0 01-8.333 8.333z"/><path stroke="var(--color-primary-400)" stroke-width="2" d="M99.653 80.376a2.977 2.977 0 11-5.954 0 2.977 2.977 0 015.954 0z"/><path fill="var(--color-primary-100)" d="M23.707 95.748h52.318V71.337a8.333 8.333 0 00-8.333-8.333H23.707a8.333 8.333 0 00-8.333 8.333v16.078a8.333 8.333 0 008.333 8.333"/><path stroke="var(--color-primary-600)" stroke-width="3" d="M23.707 95.748h52.318V71.337a8.333 8.333 0 00-8.333-8.333H23.707a8.333 8.333 0 00-8.333 8.333v16.078a8.333 8.333 0 008.333 8.333z"/><path stroke="var(--color-primary-400)" stroke-width="2" d="M51.328 80.376a2.977 2.977 0 105.954 0 2.977 2.977 0 00-5.954 0z"/><path fill="var(--color-primary-200)" d="M144.897 127.527H7.154a5.64 5.64 0 01-5.64-5.641v-5.161a5.64 5.64 0 015.64-5.639h137.743a5.64 5.64 0 015.64 5.639v5.161a5.64 5.64 0 01-5.64 5.641"/><path stroke="var(--color-primary-600)" stroke-width="3" d="M144.897 127.527H7.154a5.64 5.64 0 01-5.64-5.641v-5.161a5.64 5.64 0 015.64-5.639h137.743a5.64 5.64 0 015.64 5.639v5.161a5.64 5.64 0 01-5.64 5.641z"/><path fill="var(--color-primary-200)" d="M148.537 111.19H3.514l18-15.257h109.023z"/><path stroke="var(--color-primary-600)" stroke-linejoin="round" stroke-width="3" d="M148.537 111.19H3.514l18-15.257h109.023z"/><path fill="var(--color-primary-100)" d="M35.34 100.678l-7.44-.106-9.414 2.587c-2.73.751-5.426-1.3-5.429-4.132l-.009-9.025-2.28-7.86c-.797-2.749 1.27-5.494 4.133-5.486l8.552.021 8.2-2.345c2.76-.789 5.5 1.3 5.471 4.17l-.079 7.791 2.49 8.944c.768 2.76-1.33 5.483-4.196 5.441"/><path stroke="var(--color-primary-600)" stroke-width="2" d="M35.34 100.678l-7.44-.106-9.414 2.587c-2.73.751-5.426-1.3-5.429-4.132l-.009-9.025-2.28-7.86c-.797-2.749 1.27-5.494 4.133-5.486l8.552.021 8.2-2.345c2.76-.789 5.5 1.3 5.471 4.17l-.079 7.791 2.49 8.944c.768 2.76-1.33 5.483-4.196 5.441z"/><path fill="var(--color-primary-100)" d="M117.277 100.678l7.44-.106 9.413 2.587c2.73.751 5.426-1.3 5.43-4.132l.008-9.025 2.28-7.86c.797-2.749-1.27-5.494-4.133-5.486l-8.552.021-8.2-2.345c-2.76-.789-5.5 1.3-5.47 4.17l.078 7.791-2.49 8.944c-.768 2.76 1.331 5.483 4.196 5.441"/><path stroke="var(--color-primary-600)" stroke-width="2" d="M117.277 100.678l7.44-.106 9.413 2.587c2.73.751 5.426-1.3 5.43-4.132l.008-9.025 2.28-7.86c.797-2.749-1.27-5.494-4.133-5.486l-8.552.021-8.2-2.345c-2.76-.789-5.5 1.3-5.47 4.17l.078 7.791-2.49 8.944c-.768 2.76 1.331 5.483 4.196 5.441z"/><path fill="var(--color-primary-200)" d="M115.421 145.486c1.28-4.547-1.27-9.476-5.59-10.098-2.403-.344-5.473 1.505-6.617 3.977a8.865 8.865 0 00-.497 6.085c.643 2.312.54 4.819-.038 7.155l-6.052 24.485c-.407 1.643.382 3.365 1.784 3.895 1.402.53 2.914-.321 3.422-1.927l7.356-23.254c.808-2.556 2.102-4.93 3.964-6.591 1.027-.917 1.835-2.19 2.268-3.727"/><path stroke="var(--color-primary-400)" stroke-linejoin="round" stroke-width="3" d="M115.421 145.486c1.28-4.547-1.27-9.476-5.59-10.098-2.403-.344-5.473 1.505-6.617 3.977a8.865 8.865 0 00-.497 6.085c.643 2.312.54 4.819-.038 7.155l-6.052 24.485c-.407 1.643.382 3.365 1.784 3.895 1.402.53 2.914-.321 3.422-1.927l7.356-23.254c.808-2.556 2.102-4.93 3.964-6.591 1.027-.917 1.835-2.19 2.268-3.727z"/><path fill="var(--color-primary-200)" d="M137.781 145.486c-1.279-4.547 1.27-9.476 5.591-10.098 2.402-.344 5.472 1.505 6.616 3.977a8.865 8.865 0 01.497 6.085c-.643 2.312-.54 4.819.038 7.155l6.052 24.485c.407 1.643-.382 3.365-1.784 3.895-1.402.53-2.914-.321-3.422-1.927l-7.356-23.254c-.808-2.556-2.102-4.93-3.964-6.591-1.027-.917-1.835-2.19-2.268-3.727"/><path stroke="var(--color-primary-400)" stroke-linejoin="round" stroke-width="3" d="M137.781 145.486c-1.279-4.547 1.27-9.476 5.591-10.098 2.402-.344 5.472 1.505 6.616 3.977a8.865 8.865 0 01.497 6.085c-.643 2.312-.54 4.819.038 7.155l6.052 24.485c.407 1.643-.382 3.365-1.784 3.895-1.402.53-2.914-.321-3.422-1.927l-7.356-23.254c-.808-2.556-2.102-4.93-3.964-6.591-1.027-.917-1.835-2.19-2.268-3.727z"/><path fill="var(--color-neutral-50)" d="M168.376 136.223c0 8.123-18.703 14.708-41.775 14.708s-41.775-6.585-41.775-14.708c0-8.123 18.703-14.709 41.775-14.709s41.775 6.586 41.775 14.71"/><path stroke="var(--color-primary-600)" stroke-width="3" d="M168.376 136.223c0 8.123-18.703 14.708-41.775 14.708s-41.775-6.585-41.775-14.708c0-8.123 18.703-14.709 41.775-14.709s41.775 6.586 41.775 14.71z"/><mask id="d" fill="var(--color-neutral-50)"><use href="#c"/></mask><path stroke="var(--color-primary-200)" stroke-linecap="round" stroke-linejoin="round" stroke-width="4" d="M95.502 44.463h38.442V2.001H95.502z" /><path stroke="var(--color-primary-200)" stroke-linecap="round" stroke-linejoin="round" stroke-width="3" d="M148.028 53.562h17.999V33.68h-17.999zM59.149 30.912h18V11.03h-18z" /><path fill="var(--color-primary-200)" d="M166.569 108.677h1.701v-21.5h-1.701z" /><path fill="var(--color-primary-600)" d="M29.703 145.886h-3.026a1.382 1.382 0 01-1.383-1.382v-10.059H36.54l-5.612 10.701c-.239.455-.71.74-1.224.74" /></g><path fill="none" d="M0 0h224v224H0z"/><path fill="none" d="M0 0h224v224H0z"/><path d="M0 0h224v224H0z"/></g></svg>