<svg id="add--product" xmlns="http://www.w3.org/2000/svg" xlink="http://www.w3.org/1999/xlink" viewBox="0 0 160 160"><defs><path id="a" d="M.515.026h53.97V54H.515z"/></defs><g fill="none" fill-rule="evenodd"><path fill="none" d="M0 0h160v160H0z"/><path fill="none" d="M0 0h160v160H0z"/><path d="M0 0h160v160H0z"/><g><path fill="var(--color-primary-100)" d="M147.376 54.93c0 22.557-18.285 40.84-40.841 40.84-22.555 0-40.841-18.283-40.841-40.84 0-22.555 18.286-40.84 40.841-40.84 22.556 0 40.841 18.285 40.841 40.84"/><path fill="var(--color-neutral-50)" d="M82.025 28.386a7.281 7.281 0 01-3.204-9.787 7.282 7.282 0 113.204 9.787"/><path stroke="var(--color-primary-200)" stroke-width="3" d="M82.025 28.386a7.281 7.281 0 01-3.204-9.787 7.282 7.282 0 113.204 9.787z"/><path stroke="var(--color-primary-400)" stroke-linecap="round" stroke-width="4" d="M108.297 42.511a23.165 23.165 0 01-3.248-8.954c-1.822-12.713 7.008-24.496 19.722-26.319 12.713-1.822 24.497 7.008 26.319 19.722 1.822 12.713-7.008 24.497-19.722 26.32a23.153 23.153 0 01-12.807-1.794M137 30.259h-17.861M128.069 21.328v17.861"/><path fill="var(--color-primary-100)" d="M58.65 141.692l53.44-17.766a.17.17 0 00.116-.16V58.866a.17.17 0 00-.224-.16L58.543 76.47a.171.171 0 00-.116.161v64.9a.17.17 0 00.223.16"/><path stroke="var(--color-primary-400)" stroke-width="4" d="M58.65 141.692l53.44-17.766a.17.17 0 00.116-.16V58.866a.17.17 0 00-.224-.16L58.543 76.47a.171.171 0 00-.116.161v64.9a.17.17 0 00.223.16z"/><path fill="var(--color-primary-100)" d="M58.2 141.683L9.611 123.928a.17.17 0 01-.11-.159V58.873a.17.17 0 01.226-.159l48.59 17.755a.17.17 0 01.111.16v64.895a.17.17 0 01-.228.16"/><path stroke="var(--color-primary-400)" stroke-width="3" d="M58.2 141.683L9.611 123.928a.17.17 0 01-.11-.159V58.873a.17.17 0 01.226-.159l48.59 17.755a.17.17 0 01.111.16v64.895a.17.17 0 01-.228.16z"/><path fill="var(--color-primary-200)" d="M9.854 58.237l48.232-17.039a7.529 7.529 0 015.314.078l48.235 16.783c.117.047.114.216-.008.256l-53.2 17.804L9.855 58.493a.136.136 0 010-.256"/><path stroke="var(--color-primary-400)" stroke-width="3" d="M9.854 58.237l48.232-17.039a7.529 7.529 0 015.314.078l48.235 16.783c.117.047.114.216-.008.256l-53.2 17.804L9.855 58.493a.136.136 0 010-.256z"/><path fill="var(--color-primary-200)" d="M45.9 45.9l-16.139 5.701a.136.136 0 000 .256l48.573 17.627 16.936-5.668L45.9 45.9z"/><path stroke="var(--color-primary-400)" stroke-width="3" d="M45.9 45.9l-16.139 5.701a.136.136 0 000 .256l48.573 17.627 16.936-5.668L45.9 45.9z"/><path fill="var(--color-primary-200)" d="M95.27 63.255V81.81c0 .549-.343 1.039-.86 1.223l-14.825 5.326a1.3 1.3 0 01-1.74-1.223V68.923"/><path stroke="var(--color-primary-400)" stroke-width="3" d="M95.27 63.255V81.81c0 .549-.343 1.039-.86 1.223l-14.825 5.326a1.3 1.3 0 01-1.74-1.223V68.923"/><path fill="var(--color-neutral-50)" d="M27.696 119.097l-9.16-3.348V103.53l9.16 3.346z"/><path stroke="var(--color-primary-200)" stroke-width="3" d="M27.696 119.097l-9.16-3.348V103.53l9.16 3.346z"/><path stroke="var(--color-primary-400)" stroke-width="3" d="M58.65 141.692l53.44-17.766a.17.17 0 00.116-.16V58.866a.17.17 0 00-.224-.16L58.543 76.47a.171.171 0 00-.116.161v64.9a.17.17 0 00.223.16z"/><path fill="var(--color-primary-300)" d="M112.015 134.503l-7.348 7.349-12.994-39.05 39.049 12.995-7.333 7.332 16.005 11.34-16.056 16.056z"/><g transform="translate(88 99.618)"><mask id="b" fill="var(--color-neutral-50)"><use href="#a"/></mask><path fill="var(--color-primary-600)" d="M.515.026l2.522 7.581 10.709 32.185 2.045 6.144 4.579-4.579 3.38-3.38 8.585 12.147L35.075 54l3.356-3.357 12.702-12.7 3.352-3.353-3.868-2.74-12.138-8.6 3.367-3.369 4.579-4.579-6.144-2.045L8.096 2.548.515.026zm6.317 6.317l32.186 10.71-6.72 6.72 16.006 11.34-12.702 12.702-11.323-16.023-6.737 6.737L6.832 6.343z" /></g><path fill="var(--color-neutral-50)" d="M129.994 141.124l-34.97-34.971 10.663 32.048 6.708-6.708 11.276 15.955z"/></g></g></svg>