<svg id="add--catalogue" xmlns="http://www.w3.org/2000/svg" viewBox="0 0 160 160"><g fill="none" fill-rule="evenodd"><path fill="none" d="M0 0h160v160H0z"/><path fill="none" d="M0 0h160v160H0z"/><path d="M0 0h160v160H0z"/><g><path fill="var(--color-primary-100)" d="M30.655 94.236c0-22.556 18.284-40.84 40.84-40.84 22.556 0 40.84 18.284 40.84 40.84 0 22.556-18.284 40.841-40.84 40.841-22.556 0-40.84-18.285-40.84-40.84"/><path stroke="var(--color-primary-400)" stroke-linecap="round" stroke-width="4" d="M15.937 140.161a23.17 23.17 0 01-3.247-8.954c-1.822-12.714 7.007-24.497 19.721-26.319 12.713-1.823 24.498 7.007 26.32 19.721 1.821 12.714-7.008 24.497-19.722 26.32a23.157 23.157 0 01-12.808-1.794M44.641 127.908H26.779M35.71 118.978v17.861"/><path fill="var(--color-primary-300)" d="M110.274 111.072L99.13 108.29l-2.781 11.142 6.604-2.746 4.539 5.53z"/><path stroke="var(--color-primary-400)" stroke-linecap="round" stroke-width="3" d="M110.274 111.072L99.13 108.29l-2.781 11.142 6.604-2.746 4.539 5.53z"/><path fill="var(--color-neutral-50)" d="M128.516 115.37l-56.813-14.183a2.376 2.376 0 01-1.73-2.88l18.11-72.552a2.379 2.379 0 012.882-1.73l56.814 14.182a2.376 2.376 0 011.73 2.882l-18.112 72.551a2.377 2.377 0 01-2.88 1.73"/><path stroke="var(--color-primary-400)" stroke-width="4" d="M128.516 115.37l-56.813-14.183a2.376 2.376 0 01-1.73-2.88l18.11-72.552a2.379 2.379 0 012.882-1.73l56.814 14.182a2.376 2.376 0 011.73 2.882l-18.112 72.551a2.377 2.377 0 01-2.88 1.73z"/><path fill="var(--color-neutral-50)" d="M68.615 100.417L11.802 86.234a2.376 2.376 0 01-1.73-2.88l18.11-72.552a2.376 2.376 0 012.882-1.73l56.814 14.182a2.376 2.376 0 011.73 2.881L71.496 98.687a2.377 2.377 0 01-2.881 1.73"/><path stroke="var(--color-primary-400)" stroke-width="4" d="M68.615 100.417L11.802 86.234a2.376 2.376 0 01-1.73-2.88l18.11-72.552a2.376 2.376 0 012.882-1.73l56.814 14.182a2.376 2.376 0 011.73 2.881L71.496 98.687a2.377 2.377 0 01-2.881 1.73z"/><path fill="var(--color-neutral-50)" d="M122.453 102.49l15.358-61.522c2.599-10.409-3.732-20.953-14.14-23.55l-17.36 69.534 8.288 2.213c5.817 1.554 9.312 7.484 7.854 13.325-1.475 5.91-7.461 9.504-13.37 8.028"/><path stroke="var(--color-primary-400)" stroke-width="4" d="M122.453 102.49l15.358-61.522c2.599-10.409-3.732-20.953-14.14-23.55l-17.36 69.534 8.288 2.213c5.817 1.554 9.312 7.484 7.854 13.325-1.475 5.91-7.461 9.504-13.37 8.028"/><path stroke="var(--color-primary-200)" stroke-linecap="round" stroke-width="3" d="M56.728 27.148l17.687 4.416M55.268 32.998l17.687 4.415M62.651 41.056l8.844 2.207M51.093 49.721l17.687 4.415M49.633 55.57l17.687 4.415M57.016 63.628l8.844 2.208M60.059 76.09l3.051.762M58.598 81.939l3.052.764M57.138 87.79l3.051.762M86.793 82.764l10.839 2.706M85.332 88.613l10.839 2.706M83.872 94.464l19.359 4.832"/><path fill="var(--color-primary-100)" d="M105.608 51.78l-9.161-2.288a1.308 1.308 0 01-.952-1.586l2.286-9.162a1.31 1.31 0 011.587-.952l9.16 2.287c.702.175 1.128.885.953 1.586l-2.287 9.161a1.308 1.308 0 01-1.586.953"/><path stroke="var(--color-primary-300)" stroke-linecap="round" stroke-width="3" d="M105.608 51.78l-9.161-2.288a1.308 1.308 0 01-.952-1.586l2.286-9.162a1.31 1.31 0 011.587-.952l9.16 2.287c.702.175 1.128.885.953 1.586l-2.287 9.161a1.308 1.308 0 01-1.586.953z"/><path fill="var(--color-primary-100)" d="M44.863 36.615l-9.161-2.287a1.309 1.309 0 01-.952-1.586l2.287-9.162a1.308 1.308 0 011.586-.952l9.16 2.287c.702.175 1.129.885.953 1.586l-2.287 9.161a1.308 1.308 0 01-1.586.953"/><path stroke="var(--color-primary-300)" stroke-linecap="round" stroke-width="3" d="M44.863 36.615l-9.161-2.287a1.309 1.309 0 01-.952-1.586l2.287-9.162a1.308 1.308 0 011.586-.952l9.16 2.287c.702.175 1.129.885.953 1.586l-2.287 9.161a1.308 1.308 0 01-1.586.953z"/><path fill="var(--color-primary-100)" d="M39.228 59.188L30.067 56.9a1.307 1.307 0 01-.952-1.586l2.287-9.162c.175-.7.885-1.127 1.586-.952l9.161 2.287c.701.175 1.127.885.952 1.586l-2.287 9.162a1.309 1.309 0 01-1.586.952"/><path stroke="var(--color-primary-300)" stroke-linecap="round" stroke-width="3" d="M39.228 59.188L30.067 56.9a1.307 1.307 0 01-.952-1.586l2.287-9.162c.175-.7.885-1.127 1.586-.952l9.161 2.287c.701.175 1.127.885.952 1.586l-2.287 9.162a1.309 1.309 0 01-1.586.952z"/><path fill="var(--color-primary-100)" d="M99.973 74.352l-9.16-2.287a1.308 1.308 0 01-.954-1.586l2.287-9.162a1.31 1.31 0 011.586-.952l9.162 2.287c.701.175 1.127.885.952 1.586L101.56 73.4a1.309 1.309 0 01-1.586.952"/><path stroke="var(--color-primary-300)" stroke-linecap="round" stroke-width="3" d="M99.973 74.352l-9.16-2.287a1.308 1.308 0 01-.954-1.586l2.287-9.162a1.31 1.31 0 011.586-.952l9.162 2.287c.701.175 1.127.885.952 1.586L101.56 73.4a1.309 1.309 0 01-1.586.952z"/><path fill="var(--color-primary-100)" d="M33.557 81.903l-9.16-2.287a1.308 1.308 0 01-.953-1.586l2.287-9.16a1.308 1.308 0 011.586-.954l9.161 2.287c.701.175 1.128.886.952 1.586l-2.287 9.162a1.308 1.308 0 01-1.586.952"/><path stroke="var(--color-primary-300)" stroke-linecap="round" stroke-width="3" d="M33.557 81.903l-9.16-2.287a1.308 1.308 0 01-.953-1.586l2.287-9.16a1.308 1.308 0 011.586-.954l9.161 2.287c.701.175 1.128.886.952 1.586l-2.287 9.162a1.308 1.308 0 01-1.586.952z"/><path fill="var(--color-primary-100)" d="M50.904 86.234l-9.161-2.287a1.307 1.307 0 01-.952-1.587l2.287-9.16a1.307 1.307 0 011.586-.953l9.16 2.287c.702.175 1.128.885.953 1.587l-2.287 9.16a1.308 1.308 0 01-1.586.953"/><path stroke="var(--color-primary-300)" stroke-linecap="round" stroke-width="3" d="M50.904 86.234l-9.161-2.287a1.307 1.307 0 01-.952-1.587l2.287-9.16a1.307 1.307 0 011.586-.953l9.16 2.287c.702.175 1.128.885.953 1.587l-2.287 9.16a1.308 1.308 0 01-1.586.953z"/><path fill="var(--color-neutral-50)" d="M75.487 138.095a7.283 7.283 0 116.584-12.99 7.283 7.283 0 01-6.584 12.99"/><path stroke="var(--color-primary-200)" stroke-width="3" d="M75.487 138.095a7.283 7.283 0 116.584-12.99 7.283 7.283 0 01-6.584 12.99z"/></g></g></svg>