<svg id="empty--filtered--available--users" xmlns="http://www.w3.org/2000/svg" xlink="http://www.w3.org/1999/xlink" viewBox="0 0 224 224"><defs><path id="a" d="M.636.649h29.368v23.847H.636z"/></defs><g fill="none" fill-rule="evenodd"><path fill="var(--color-primary-100)" d="M136.842 130.375c-5.706 25.824-31.266 42.133-57.09 36.428-25.825-5.706-42.134-31.267-36.428-57.09 5.706-25.825 31.267-42.135 57.09-36.429 25.825 5.706 42.134 31.267 36.428 57.091" opacity=".5"/><path fill="var(--color-primary-100)" d="M146.948 118.342l-9.346-3.676c-.963-.731-2.202-2.658-2.202-4.815v-4.549h-16.867v4.549c0 2.157-1.24 4.084-3.1 4.815l-9.345 3.676a6.316 6.316 0 00-1.066.557c-.033.008-.064.024-.097.034 5.354 6.088 13.195 9.934 21.94 9.934 8.685 0 16.48-3.794 21.83-9.809a8.492 8.492 0 00-1.747-.716"/><path stroke="var(--color-primary-300)" stroke-linejoin="round" stroke-width="2" d="M146.948 118.342l-9.346-3.676c-.963-.731-2.202-2.658-2.202-4.815v-4.549h-16.867v4.549c0 2.157-1.24 4.084-3.1 4.815l-9.345 3.676a6.316 6.316 0 00-1.066.557c-.033.008-.064.024-.097.034 5.354 6.088 13.195 9.934 21.94 9.934 8.685 0 16.48-3.794 21.83-9.809a8.492 8.492 0 00-1.747-.716z"/><path fill="var(--color-primary-300)" d="M135.083 106.098v3.27c0 2.034 1.275 3.848 2.265 4.538l.058.02a14.413 14.413 0 0010.055-5.576 8.861 8.861 0 01-7.733-7.822 12.262 12.262 0 01-2.626 3.11l-2.905 2.46h.886zM118.765 106.098v3.27c0 2.034-1.275 3.848-2.266 4.538l-.057.02a14.415 14.415 0 01-10.056-5.576 8.86 8.86 0 007.733-7.822 12.303 12.303 0 002.626 3.11l2.906 2.46h-.886z"/><path fill="var(--color-neutral-50)" d="M131.828 108.799l5.32-4.505a12.4 12.4 0 004.068-12.271l-1.758-7.566a11.375 11.375 0 00-4.63-6.795l-.7-.481a12.643 12.643 0 00-14.338 0l-.7.481a11.38 11.38 0 00-4.63 6.795l-1.757 7.566a12.399 12.399 0 004.066 12.271l5.322 4.505a7.534 7.534 0 009.737 0"/><path stroke="var(--color-primary-300)" stroke-linejoin="round" stroke-width="2" d="M131.828 108.799l5.32-4.505a12.4 12.4 0 004.068-12.271l-1.758-7.566a11.375 11.375 0 00-4.63-6.795l-.7-.481a12.643 12.643 0 00-14.338 0l-.7.481a11.38 11.38 0 00-4.63 6.795l-1.757 7.566a12.399 12.399 0 004.066 12.271l5.322 4.505a7.534 7.534 0 009.737 0z"/><path fill="var(--color-primary-200)" d="M124.614 80.753a13.882 13.882 0 0012.206 8.624c.927 2.354 2.33 4.224 4.69 5.138-.052-.563.338-1.124.208-1.684l-1.727-7.432a13.346 13.346 0 00-5.434-7.974 13.357 13.357 0 00-16.808 1.357c-1.927 1.835-3.212 4.243-3.815 6.835l-.914 3.935a.01.01 0 01.003.004c5.592.163 10.322-3.64 11.591-8.803"/><path stroke="var(--color-primary-300)" stroke-linejoin="round" stroke-width="2" d="M124.614 80.753a13.882 13.882 0 0012.206 8.624c.927 2.354 2.33 4.224 4.69 5.138-.052-.563.338-1.124.208-1.684l-1.727-7.432a13.346 13.346 0 00-5.434-7.974 13.357 13.357 0 00-16.808 1.357c-1.927 1.835-3.212 4.243-3.815 6.835l-.914 3.935a.01.01 0 01.003.004c5.592.163 10.322-3.64 11.591-8.803z"/><path fill="var(--color-primary-100)" d="M141.88 95.098c-.228 2.239.581 4.155 1.808 4.28 1.226.125 2.405-1.59 2.633-3.828.228-2.24-.582-4.155-1.808-4.28s-2.405 1.589-2.633 3.828"/><path stroke="var(--color-primary-300)" stroke-linejoin="round" stroke-width="2" d="M141.88 95.098c-.228 2.239.581 4.155 1.808 4.28 1.226.125 2.405-1.59 2.633-3.828.228-2.24-.582-4.155-1.808-4.28s-2.405 1.589-2.633 3.828z"/><path fill="var(--color-primary-100)" d="M139.51 101.605l.913.093a3.334 3.334 0 003.654-2.98l.625-6.131a3.334 3.334 0 00-2.979-3.654l-.913-.093-1.3 12.765z"/><path stroke="var(--color-primary-300)" stroke-linejoin="round" stroke-width="2" d="M139.51 101.605l.913.093a3.334 3.334 0 003.654-2.98l.625-6.131a3.334 3.334 0 00-2.979-3.654l-.913-.093-1.3 12.765z"/><path fill="var(--color-primary-100)" d="M112.14 95.098c.229 2.239-.58 4.155-1.807 4.28-1.226.125-2.405-1.59-2.633-3.828-.228-2.24.58-4.155 1.808-4.28 1.226-.125 2.405 1.589 2.633 3.828"/><path stroke="var(--color-primary-300)" stroke-linejoin="round" stroke-width="2" d="M112.14 95.098c.229 2.239-.58 4.155-1.807 4.28-1.226.125-2.405-1.59-2.633-3.828-.228-2.24.58-4.155 1.808-4.28 1.226-.125 2.405 1.589 2.633 3.828z"/><path fill="var(--color-primary-100)" d="M114.51 101.605l-.912.093a3.334 3.334 0 01-3.654-2.98l-.625-6.131a3.334 3.334 0 012.979-3.654l.913-.093 1.3 12.765z"/><path stroke="var(--color-primary-300)" stroke-linejoin="round" stroke-width="2" d="M114.51 101.605l-.912.093a3.334 3.334 0 01-3.654-2.98l-.625-6.131a3.334 3.334 0 012.979-3.654l.913-.093 1.3 12.765z"/><path fill="var(--color-primary-400)" d="M126.864 66.44c-18.314 0-33.213 14.9-33.213 33.215 0 18.313 14.9 33.213 33.213 33.213 18.314 0 33.213-14.9 33.213-33.213 0-18.315-14.899-33.214-33.213-33.214m0 4c16.134 0 29.213 13.08 29.213 29.214s-13.079 29.213-29.213 29.213-29.213-13.08-29.213-29.213c0-16.134 13.08-29.214 29.213-29.214"/><path fill="var(--color-primary-400)" d="M126.864 66.44c-18.314 0-33.213 14.9-33.213 33.215 0 18.313 14.9 33.213 33.213 33.213 18.314 0 33.213-14.9 33.213-33.213 0-18.315-14.899-33.214-33.213-33.214m0 4c16.134 0 29.213 13.08 29.213 29.214s-13.079 29.213-29.213 29.213-29.213-13.08-29.213-29.213c0-16.134 13.08-29.214 29.213-29.214"/><path fill="var(--color-primary-300)" d="M126.864 66.44c-18.314 0-33.213 14.9-33.213 33.215 0 18.313 14.9 33.213 33.213 33.213 18.314 0 33.213-14.9 33.213-33.213 0-18.315-14.899-33.214-33.213-33.214m0 4c16.134 0 29.213 13.08 29.213 29.214s-13.079 29.213-29.213 29.213-29.213-13.08-29.213-29.213c0-16.134 13.08-29.214 29.213-29.214"/><path fill="var(--color-primary-100)" d="M125.796 95.145l-1.277 4.057c-.32.679.176 1.46.927 1.46h2.555c.751 0 1.247-.781.927-1.46l-1.277-4.057a1.025 1.025 0 00-1.855 0"/><path fill="var(--color-primary-200)" d="M138.842 115.458l-1.694 5.603a2.409 2.409 0 01-3.266 1.512l-6.783-2.946-7.174 2.997a2.41 2.41 0 01-3.235-1.526l-1.743-5.769.028-.039-8.702 3.423a6.129 6.129 0 00-1.065.557c-.034.007-.064.024-.097.033 5.351 6.085 13.19 9.93 21.93 9.93 8.681 0 16.473-3.792 21.822-9.805a8.45 8.45 0 00-1.747-.715l-8.274-3.255z"/><path fill="var(--color-neutral-50)" d="M133.894 122.39l-6.785-2.947-7.177 2.998a2.41 2.41 0 01-3.237-1.527l-1.744-5.77 2.501-3.49 6.52 4.83a4.835 4.835 0 005.714.03l6.71-4.86 2.5 3.49-1.734 5.733a2.41 2.41 0 01-3.268 1.514"/><path stroke="var(--color-primary-300)" d="M133.894 122.39l-6.785-2.947-7.177 2.998a2.41 2.41 0 01-3.237-1.527l-1.744-5.77 2.501-3.49 6.52 4.83a4.835 4.835 0 005.714.03l6.71-4.86 2.5 3.49-1.734 5.733a2.41 2.41 0 01-3.268 1.514z"/><path fill="var(--color-primary-100)" d="M171.659 169.18l-5.651 4.84-4.841-5.652 5.652-4.84z"/><path stroke="var(--color-primary-600)" stroke-linecap="round" stroke-width="1.6" d="M171.659 169.18l-5.651 4.84-4.841-5.652 5.652-4.84z"/><path fill="var(--color-neutral-50)" d="M166.876 128.115c9.65 11.267 8.338 28.222-2.928 37.871-11.266 9.65-28.222 8.34-37.87-2.927-9.65-11.267-8.34-28.221 2.927-37.871 11.266-9.65 28.222-8.34 37.871 2.927"/><path stroke="var(--color-primary-600)" stroke-linecap="round" stroke-width="4" d="M166.876 128.115c9.65 11.267 8.338 28.222-2.928 37.871-11.266 9.65-28.222 8.34-37.87-2.927-9.65-11.267-8.34-28.221 2.927-37.871 11.266-9.65 28.222-8.34 37.871 2.927z"/><path fill="var(--color-neutral-50)" d="M160.741 133.37c6.748 7.878 5.831 19.734-2.047 26.481-7.879 6.748-19.735 5.831-26.483-2.046-6.747-7.878-5.83-19.736 2.048-26.483 7.878-6.748 19.734-5.83 26.482 2.047"/><path stroke="var(--color-primary-600)" stroke-linecap="round" stroke-width="2" d="M160.741 133.37c6.748 7.878 5.831 19.734-2.047 26.481-7.879 6.748-19.735 5.831-26.483-2.046-6.747-7.878-5.83-19.736 2.048-26.483 7.878-6.748 19.734-5.83 26.482 2.047z"/><path fill="var(--color-primary-400)" d="M196.674 204.196a7.707 7.707 0 01-10.869-.84l-19.691-22.99a4.476 4.476 0 01.489-6.31l4.91-4.207a4.475 4.475 0 016.311.49l19.69 22.988a7.707 7.707 0 01-.84 10.87"/><path stroke="var(--color-primary-600)" stroke-linecap="round" stroke-width="2.6" d="M196.674 204.196h0a7.707 7.707 0 01-10.869-.84l-19.691-22.99a4.476 4.476 0 01.489-6.31l4.91-4.207a4.475 4.475 0 016.311.49l19.69 22.988a7.707 7.707 0 01-.84 10.87z"/><path stroke="var(--color-primary-600)" stroke-linecap="round" stroke-width="1.6" d="M179.191 171.935l14.207 16.586a7.708 7.708 0 01-.841 10.869 7.708 7.708 0 01-10.87-.841l-14.205-16.586"/><path fill="var(--color-primary-200)" d="M89.599 58.69c0 16.952-13.742 30.694-30.694 30.694-16.952 0-30.694-13.742-30.694-30.693 0-16.952 13.742-30.694 30.694-30.694 16.952 0 30.694 13.742 30.694 30.694"/><path fill="var(--color-neutral-50)" d="M48.112 72.353l1.801-18.841h17.518l1.8 18.84z"/><path fill="var(--color-primary-400)" d="M68.34 52.512H49.004l-1.992 20.84h23.32l-1.992-20.84zm-1.818 2l1.61 16.84h-18.92l1.61-16.84h15.7z"/><path fill="var(--color-neutral-50)" d="M58.105 62.24c-6.915 0-12.541-5.626-12.541-12.542v-.989c-1.51-.07-3.005-1.493-3.753-3.584-.91-2.546-.284-5.018 1.423-5.628.253-.09.52-.137.794-.137.596 0 1.203.223 1.769.625l1.225-12.418c-.005-.705.648-1.358 1.45-1.358l21.24.021c.804 0 1.457.654 1.457 1.456v12.145c.498-.305 1.02-.47 1.536-.47.274 0 .54.045.794.135 1.707.611 2.332 3.083 1.422 5.628-.747 2.092-2.244 3.514-3.752 3.585v.99c0 6.915-5.626 12.541-12.542 12.541h-.522z"/><path fill="var(--color-primary-400)" d="M48.474 25.21h-.002a2.46 2.46 0 00-2.453 2.32L44.94 38.48a3.579 3.579 0 00-.912-.12c-.389 0-.769.066-1.13.196-1.24.442-2.117 1.572-2.404 3.098-.219 1.165-.086 2.517.376 3.807.734 2.057 2.14 3.568 3.693 4.07v.167c0 7.467 6.075 13.541 13.541 13.541h.523c7.467 0 13.541-6.074 13.541-13.54v-.168c1.553-.502 2.96-2.013 3.695-4.07 1.116-3.125.244-6.094-2.029-6.905a3.33 3.33 0 00-1.13-.196 3.56 3.56 0 00-.536.041V27.687a2.46 2.46 0 00-2.456-2.457l-21.238-.02zm-.002 2l21.24.02c.252 0 .456.205.456.457v14.716c.67-1.242 1.655-2.043 2.535-2.043.158 0 .311.026.458.078 1.162.416 1.528 2.363.818 4.35-.619 1.733-1.853 2.925-2.929 2.925-.157 0-.31-.026-.459-.079a1.377 1.377 0 01-.423-.248v2.312c0 6.374-5.167 11.541-11.54 11.541h-.524c-6.374 0-11.54-5.167-11.54-11.54v-2.313a1.366 1.366 0 01-.424.248 1.355 1.355 0 01-.459.08c-1.076 0-2.309-1.193-2.929-2.926-.71-1.987-.343-3.934.818-4.35.148-.052.301-.078.458-.078.881 0 1.866.801 2.535 2.043l1.453-14.738c0-.252.204-.456.456-.456z"/><g transform="translate(43 18.351)"><mask id="b" fill="var(--color-neutral-50)"><use href="#a"/></mask><path fill="var(--color-primary-400)" d="M28.026 22.339c1.418-3.23 1.486-4.995 1.204-5.733-.192-.502-.561-1.103-.66-1.631-.175-.944.366-3.305.89-4.722a8.589 8.589 0 00.524-2.383C30.41 1.633 23.782.752 23.782.752s-4.333-.913-11.926 2.696c-.912.434-1.976.573-2.923.22-.683-.253-1.446-.066-2.14.275-1.33.653-2.305 1.86-2.76 3.27l-.948 2.948-1.51 1.617C.218 13.783.567 16.213 1.161 18.56l2.329 5.435S5.608 20.53 5.22 12.11c0 0 .25-.016 2.402.929 9.3 4.069 16.14 1.276 16.14 1.276s2.052 3.21 2.846 10.18c.405-.193 1.418-2.156 1.418-2.156" /></g><path fill="var(--color-primary-200)" d="M57.246 42.407l-1.25 4.283a2.237 2.237 0 104.296 0l-1.25-4.284c-.261-.898-1.534-.898-1.796 0M58.905 88.384c-8.743 0-16.9-3.774-22.56-10.398a46.26 46.26 0 019.027-3.736l.718-.211v-7.527c0-.328.267-.596.596-.596h12.298l3.416 3.415 3.415-3.415h4.516c.328 0 .595.268.595.596v7.527l.718.211a46.298 46.298 0 019.566 4.036 29.575 29.575 0 01-22.305 10.098"/><path fill="var(--color-primary-400)" d="M70.33 64.916H65.4l-3 3.001-3.002-3H46.686c-.881 0-1.595.713-1.595 1.595v6.78a47.292 47.292 0 00-10.278 4.405c5.622 7.115 14.32 11.687 24.092 11.687 9.626 0 18.213-4.434 23.84-11.366a47.28 47.28 0 00-10.818-4.727v-6.779c0-.882-.715-1.596-1.596-1.596m-.404 2v7.872l1.435.422a45.101 45.101 0 018.245 3.344 28.573 28.573 0 01-20.702 8.83c-8.025 0-15.54-3.292-20.962-9.109a45.226 45.226 0 017.712-3.065l1.436-.422v-7.872H58.57l2.416 2.415 1.414 1.414 1.414-1.414 2.415-2.415h3.698"/><path stroke="var(--color-primary-400)" stroke-width="1.5" d="M62.4 67.917V72.9c0 .624.247 1.222.697 1.655 1.395 1.341 4.633 4.977 7.386 12"/><path fill="var(--color-primary-100)" d="M87.427 152.674c0 16.135-13.08 29.214-29.213 29.214-16.135 0-29.214-13.079-29.214-29.214 0-16.134 13.079-29.213 29.214-29.213 16.133 0 29.213 13.079 29.213 29.213"/><path fill="var(--color-primary-200)" d="M77.698 149.069c1.588 11.134-7.22 20.159-19.084 20.159-11.866 0-20.673-9.025-19.085-20.16C41.195 137.937 50 128.91 58.614 128.91c8.612 0 17.419 9.025 19.084 20.159"/><path stroke="var(--color-primary-300)" stroke-width="2" d="M77.698 149.069c1.588 11.134-7.22 20.159-19.084 20.159-11.866 0-20.673-9.025-19.085-20.16C41.195 137.937 50 128.91 58.614 128.91c8.612 0 17.419 9.025 19.084 20.159z"/><path fill="var(--color-primary-100)" d="M79.328 174.39l-10.659-1.993a2.197 2.197 0 01-1.794-2.16v-7.823H50.162v7.844c0 1.049-.74 1.95-1.768 2.155l-10.787 2.257 2.372 4.047 11.442 4.744 12.977-.14 12-5.442 2.93-3.488z"/><path stroke="var(--color-primary-300)" stroke-width="2" d="M79.328 174.39l-10.659-1.993a2.197 2.197 0 01-1.794-2.16v-7.823H50.162v7.844c0 1.049-.74 1.95-1.768 2.155l-10.787 2.257 2.372 4.047 11.442 4.744 12.977-.14 12-5.442 2.93-3.488z"/><path fill="var(--color-neutral-50)" d="M70.83 146.093c-3.245-.039-6.909-1.334-10.064-3.833a18.312 18.312 0 01-2.323-2.203 18.37 18.37 0 01-2.322 2.203c-3.115 2.468-6.727 3.76-9.94 3.828l-1.496 6.439a10.02 10.02 0 003.287 9.917l6.835 5.786a5.725 5.725 0 007.396 0l6.835-5.786a10.024 10.024 0 003.287-9.917l-1.495-6.434z"/><path stroke="var(--color-primary-300)" stroke-linecap="round" stroke-width="2" d="M43.5 145.804c.893.218 1.853.315 2.852.294 3.212-.07 6.825-1.371 9.94-3.838a18.241 18.241 0 002.322-2.203 18.298 18.298 0 002.322 2.203c3.154 2.499 6.821 3.802 10.064 3.842.954.012 1.871-.086 2.728-.295"/><path fill="var(--color-primary-100)" d="M57.648 153.307l-1.33 4.225a1.067 1.067 0 00.966 1.52h2.66c.782 0 1.299-.812.966-1.52l-1.33-4.225c-.385-.817-1.548-.817-1.932 0"/><path stroke="var(--color-primary-300)" stroke-linecap="round" stroke-width="2" d="M68.584 173.298c-2.966 3.077-6.56 4.884-10.435 4.884-3.808 0-7.346-1.74-10.282-4.72"/><path fill="var(--color-primary-200)" d="M58.214 119.461C39.9 119.461 25 134.361 25 152.674c0 18.314 14.898 33.214 33.213 33.214 18.314 0 33.213-14.9 33.213-33.214s-14.9-33.213-33.214-33.213m0 4c16.134 0 29.213 13.08 29.213 29.213 0 16.134-13.078 29.214-29.212 29.214S29 168.808 29 152.674s13.079-29.213 29.213-29.213"/><path fill="var(--color-primary-400)" d="M112.6 47.744c0 7.951-6.445 14.396-14.396 14.396-7.951 0-14.396-6.445-14.396-14.396 0-7.95 6.445-14.396 14.396-14.396 7.95 0 14.396 6.446 14.396 14.396"/><path fill="var(--color-neutral-50)" d="M105.49 50.256H90.916c-.754 0-1.365-.61-1.365-1.365V46.6c0-.755.611-1.365 1.365-1.365h14.572c.754 0 1.365.61 1.365 1.365v2.292c0 .755-.61 1.365-1.365 1.365"/><path fill="var(--color-primary-400)" d="M102.18 180.21c0 7.95-6.444 14.396-14.395 14.396-7.95 0-14.396-6.446-14.396-14.396 0-7.95 6.446-14.396 14.396-14.396 7.95 0 14.396 6.445 14.396 14.396"/><path fill="var(--color-neutral-50)" d="M95.07 182.72H80.5c-.754 0-1.365-.61-1.365-1.364v-2.292c0-.755.61-1.365 1.365-1.365H95.07c.754 0 1.365.61 1.365 1.365v2.292c0 .755-.611 1.365-1.365 1.365"/><path fill="var(--color-primary-400)" d="M190.19 76.83c0 7.95-6.444 14.396-14.395 14.396s-14.396-6.446-14.396-14.396c0-7.95 6.445-14.396 14.396-14.396 7.95 0 14.396 6.445 14.396 14.396"/><path fill="var(--color-neutral-50)" d="M183.08 79.342H168.51a1.366 1.366 0 01-1.366-1.365v-2.293c0-.754.612-1.365 1.366-1.365h14.572c.754 0 1.365.611 1.365 1.365v2.293c0 .754-.611 1.365-1.365 1.365"/><g><path fill="none" d="M0 0h224v224H0z"/><path fill="none" d="M0 0h224v224H0z"/><path d="M0 0h224v224H0z"/></g></g></svg>