<svg id="empty--non--filtered--tickets" xmlns="http://www.w3.org/2000/svg" xlink="http://www.w3.org/1999/xlink" viewBox="0 0 224 224"><defs><path id="a" d="M.602.917h11.265v11.266H.602z"/></defs><g fill="none" fill-rule="evenodd"><path fill="var(--color-primary-100)" d="M125.214 112.403c0 26.445-21.44 47.886-47.886 47.886-26.447 0-47.886-21.44-47.886-47.886 0-26.448 21.439-47.888 47.886-47.888 26.447 0 47.886 21.44 47.886 47.888"/><path fill="var(--color-neutral-50)" d="M111.289 59.475a4.956 4.956 0 01-4.964 4.956l-37.69-.065-.889 13.48-12.592-13.48-10.36.244a3.346 3.346 0 01-3.347-3.346V23.846a3.347 3.347 0 013.347-3.347h63.148a3.347 3.347 0 013.347 3.347v35.63"/><path stroke="var(--color-primary-200)" stroke-width="3" d="M111.289 59.475h0a4.956 4.956 0 01-4.964 4.956l-37.69-.065-.889 13.48-12.592-13.48-10.36.244a3.346 3.346 0 01-3.347-3.346V23.846a3.347 3.347 0 013.347-3.347h63.148a3.347 3.347 0 013.347 3.347v35.63"/><path fill="var(--color-primary-200)" d="M201.234 166.24l-2.106-15.137c-1.433-5.728-5.625-10.367-13.5-12.369l-16.894-6.085-20.463 35.32-14.307-15.342-14.307 15.341-20.763-35.835-18.222 6.564a17.714 17.714 0 00-11.18 12.37l-1.494 5.801-.776 5.576a12.03 12.03 0 006.154 9.618l54.695 30.385a14.184 14.184 0 006.888 1.784h.973c2.462 0 4.882-.64 7.022-1.86l53.121-30.273a12.013 12.013 0 005.16-5.859"/><path stroke="var(--color-primary-200)" stroke-linecap="round" stroke-width="3" d="M98.07 37.465H53.96M72.499 49.341H54.321"/><path fill="var(--color-neutral-50)" d="M38.787 85.876h-6.58a2.765 2.765 0 00-2.766 2.765v30.92a2.765 2.765 0 002.765 2.765H49.25l9.05 8.021 8.447-8.02H84.39a2.765 2.765 0 002.765-2.766v-30.92a2.765 2.765 0 00-2.765-2.765H37.01"/><path stroke="var(--color-primary-200)" stroke-width="3" d="M38.787 85.876h-6.58a2.765 2.765 0 00-2.766 2.765v30.92a2.765 2.765 0 002.765 2.765H49.25l9.05 8.021 8.447-8.02H84.39a2.765 2.765 0 002.765-2.766v-30.92a2.765 2.765 0 00-2.765-2.765H37.01"/><path stroke="var(--color-primary-200)" stroke-linecap="round" stroke-width="3" d="M39.436 99.463h34.906M47.075 109.276h19.627"/><path fill="var(--color-primary-100)" d="M155.665 110.672v8.221c0 5.109 3.204 9.67 5.693 11.402l.145.052c10.281-.989 19.308-6.257 25.273-14.014-10.23-1.237-18.316-9.397-19.436-19.661a30.88 30.88 0 01-6.601 7.819l-7.302 6.181h2.228z"/><path stroke="var(--color-primary-400)" stroke-linecap="square" stroke-width="2.5" d="M155.665 110.672v8.221c0 5.109 3.204 9.67 5.693 11.402l.145.052c10.281-.989 19.308-6.257 25.273-14.014-10.23-1.237-18.316-9.397-19.436-19.661a30.88 30.88 0 01-6.601 7.819l-7.302 6.181h2.228z"/><path fill="var(--color-primary-100)" d="M112.64 110.672v8.221c0 5.109-3.205 9.67-5.693 11.402l-.145.052c-10.281-.989-19.31-6.257-25.273-14.014 10.229-1.237 18.315-9.397 19.436-19.661a30.896 30.896 0 006.6 7.819l7.303 6.181h-2.228z"/><path stroke="var(--color-primary-400)" stroke-linecap="square" stroke-width="2.5" d="M112.64 110.672v8.221c0 5.109-3.205 9.67-5.693 11.402l-.145.052c-10.281-.989-19.31-6.257-25.273-14.014 10.229-1.237 18.315-9.397 19.436-19.661a30.896 30.896 0 006.6 7.819l7.303 6.181h-2.228z"/><path stroke="var(--color-primary-400)" stroke-width="4" d="M195.636 172.831a12.031 12.031 0 005.694-13.452l-1.951-7.58c-1.431-5.73-5.625-10.368-13.5-12.369l-24.165-8.705c-2.488-1.732-5.693-6.293-5.693-11.403v-8.22H112.41v8.22a12.12 12.12 0 01-8.012 11.403l-24.165 8.705a17.71 17.71 0 00-11.181 12.37l-1.925 7.477a12.031 12.031 0 005.809 13.517l54.696 30.386a14.186 14.186 0 006.887 1.784h.973a14.19 14.19 0 007.023-1.86l53.12-30.273z"/><path stroke="var(--color-primary-400)" stroke-width="4" d="M195.636 172.831a12.031 12.031 0 005.694-13.452l-1.951-7.58c-1.431-5.73-5.625-10.368-13.5-12.369l-24.165-8.705c-2.488-1.732-5.693-6.293-5.693-11.403v-8.22H112.41v8.22a12.12 12.12 0 01-8.012 11.403l-24.165 8.705a17.71 17.71 0 00-11.181 12.37l-1.925 7.477a12.031 12.031 0 005.809 13.517l54.696 30.386a14.186 14.186 0 006.887 1.784h.973a14.19 14.19 0 007.023-1.86l53.12-30.273z"/><path fill="var(--color-primary-100)" d="M145.94 129.662l8.52-7.212a15.7 15.7 0 01-.358-3.287v-5.939H114.46v5.94c0 1.116-.132 2.212-.374 3.272l8.536 7.226a18.046 18.046 0 0023.318 0"/><path fill="var(--color-neutral-50)" d="M168.986 133.344l-5.52-1.988c-1.59-.573-3.007-1.552-4.062-2.872-.05-.065-.103-.13-.153-.197l-25.035 25.036 13.646 14.63a.716.716 0 001.145-.13l19.98-34.48z"/><path stroke="var(--color-primary-400)" stroke-linecap="square" stroke-width="2" d="M168.986 133.344l-5.52-1.988c-1.59-.573-3.007-1.552-4.062-2.872-.05-.065-.103-.13-.153-.197l-25.035 25.036 13.646 14.63a.716.716 0 001.145-.13l19.98-34.48z"/><path fill="var(--color-neutral-50)" d="M120.568 167.954l13.647-14.632-25.1-25.1-.625.018a12.086 12.086 0 01-4.093 2.484l-5.353 1.93 20.378 35.17a.718.718 0 001.146.13"/><path stroke="var(--color-primary-400)" stroke-linecap="square" stroke-width="2" d="M120.568 167.954l13.647-14.632-25.1-25.1-.625.018a12.086 12.086 0 01-4.093 2.484l-5.353 1.93 20.378 35.17a.718.718 0 001.146.13z"/><path fill="var(--color-neutral-50)" d="M143.782 119.65l19.837-16.793a25.694 25.694 0 008.425-25.422l-5.56-23.93a27.876 27.876 0 00-11.348-16.655l-5.029-3.46a27.88 27.88 0 00-31.61 0l-5.029 3.46a27.873 27.873 0 00-11.349 16.654l-5.56 23.93a25.694 25.694 0 008.425 25.423l19.837 16.793a14.673 14.673 0 0018.961 0"/><path stroke="var(--color-primary-400)" stroke-width="3" d="M143.782 119.65l19.837-16.793a25.694 25.694 0 008.425-25.422l-5.56-23.93a27.876 27.876 0 00-11.348-16.655l-5.029-3.46a27.88 27.88 0 00-31.61 0l-5.029 3.46a27.873 27.873 0 00-11.349 16.654l-5.56 23.93a25.694 25.694 0 008.425 25.423l19.837 16.793a14.673 14.673 0 0018.961 0z"/><path stroke="var(--color-secondary-100)" stroke-width="3" d="M29.91 70.264a5.705 5.705 0 11-11.411 0 5.705 5.705 0 0111.41 0z"/><path fill="var(--color-primary-100)" d="M128.257 41.968c4.998 12.266 16.774 21.027 30.677 21.674 2.33 5.915 5.855 10.617 11.784 12.912-.127-1.412.85-2.825.525-4.23l-4.34-18.677a33.548 33.548 0 00-13.657-20.043h-.001a33.568 33.568 0 00-42.243 3.41c-4.843 4.614-8.072 10.665-9.586 17.18l-2.297 9.888.007.01c14.054.41 25.942-9.147 29.13-22.124"/><path stroke="var(--color-primary-400)" stroke-linecap="square" stroke-width="4" d="M128.257 41.968c4.998 12.266 16.774 21.027 30.677 21.674 2.33 5.915 5.855 10.617 11.784 12.912-.127-1.412.85-2.825.525-4.23l-4.34-18.677a33.548 33.548 0 00-13.657-20.043h-.001a33.568 33.568 0 00-42.243 3.41c-4.843 4.614-8.072 10.665-9.586 17.18l-2.297 9.888.007.01c14.054.41 25.942-9.147 29.13-22.124z"/><path fill="var(--color-primary-100)" d="M100.422 83.745c.37 7.616-3.822 14.009-9.364 14.279-5.543.27-10.337-5.686-10.707-13.302-.371-7.617 3.822-14.01 9.364-14.28 5.543-.27 10.336 5.687 10.707 13.303"/><path stroke="var(--color-primary-400)" stroke-linecap="square" stroke-width="2" d="M100.422 83.745c.37 7.616-3.822 14.009-9.364 14.279-5.543.27-10.337-5.686-10.707-13.302-.371-7.617 3.822-14.01 9.364-14.28 5.543-.27 10.336 5.687 10.707 13.303z"/><path stroke="var(--color-primary-600)" stroke-width="2" d="M172.57 100.896c-2.125 5.515-7.873 9.906-14.137 9.906h-11.447"/><path fill="var(--color-primary-200)" d="M101.192 99.577l-5.414.263a5.265 5.265 0 01-5.515-5.002l-1.055-21.692a5.265 5.265 0 015.003-5.514l5.414-.263 1.567 32.208z"/><path stroke="var(--color-primary-400)" stroke-linecap="square" stroke-width="3" d="M101.192 99.577l-5.414.263a5.265 5.265 0 01-5.515-5.002l-1.055-21.692a5.265 5.265 0 015.003-5.514l5.414-.263 1.567 32.208z"/><path fill="var(--color-primary-100)" d="M168.352 83.745c-.37 7.616 3.821 14.009 9.364 14.279 5.543.27 10.337-5.686 10.707-13.302.37-7.617-3.822-14.01-9.364-14.28-5.542-.27-10.337 5.687-10.707 13.303"/><path stroke="var(--color-primary-400)" stroke-linecap="square" stroke-width="2" d="M168.352 83.745c-.37 7.616 3.821 14.009 9.364 14.279 5.543.27 10.337-5.686 10.707-13.302.37-7.617-3.822-14.01-9.364-14.28-5.542-.27-10.337 5.687-10.707 13.303z"/><path fill="var(--color-primary-200)" d="M167.582 99.577l5.414.263a5.263 5.263 0 005.514-5.002l1.055-21.692a5.263 5.263 0 00-5.002-5.514l-5.414-.263-1.567 32.208z"/><path stroke="var(--color-primary-400)" stroke-linecap="square" stroke-width="3" d="M167.582 99.577l5.414.263a5.263 5.263 0 005.514-5.002l1.055-21.692a5.263 5.263 0 00-5.002-5.514l-5.414-.263-1.567 32.208z"/><path fill="var(--color-neutral-50)" d="M134.302 107.83c4.589 0 8.344-2.74 8.633-6.202a.41.41 0 00-.412-.43H126.08a.41.41 0 00-.412.43c.289 3.462 4.044 6.202 8.633 6.202"/><path stroke="var(--color-primary-200)" stroke-linecap="square" stroke-width="2.5" d="M134.302 107.83c4.589 0 8.344-2.74 8.633-6.202a.41.41 0 00-.412-.43H126.08a.41.41 0 00-.412.43c.289 3.462 4.044 6.202 8.633 6.202z"/><path stroke="var(--color-primary-400)" stroke-width="4" d="M112.41 119.322c0 5.11-3.205 9.671-8.013 11.402l-24.165 8.705a17.71 17.71 0 00-11.18 12.37l-1.925 7.478a12.031 12.031 0 005.808 13.517l54.697 30.385a14.18 14.18 0 006.886 1.785h.974c2.463 0 4.883-.642 7.022-1.86l53.122-30.273a12.034 12.034 0 005.694-13.452l-1.95-7.58c-1.433-5.73-5.626-10.369-13.5-12.37l-21.716-7.822c-2.352-.847-4.409-2.4-5.749-4.51-1.355-2.133-2.395-4.865-2.395-7.775"/><g transform="translate(195 98.964)"><mask id="b" fill="var(--color-neutral-50)"><use href="#a"/></mask><path fill="var(--color-notification-warning-main)" d="M2.102 12.183A1.502 1.502 0 011.04 9.622l8.265-8.265a1.5 1.5 0 112.122 2.12l-8.266 8.267a1.495 1.495 0 01-1.06.439" /></g><path fill="var(--color-notification-warning-main)" d="M205.367 111.147c-.384 0-.768-.146-1.06-.44l-8.266-8.265a1.5 1.5 0 112.121-2.121l8.266 8.265a1.502 1.502 0 01-1.06 2.56M39.912 152.616c-.099-.944.607-1.768 1.574-1.868.977-.103 1.838.556 1.937 1.501.1.945-.608 1.767-1.584 1.87-.966.101-1.827-.558-1.927-1.503m-.2-4.624l-.017-.15c-.133-1.267.435-2.173 1.624-3.046 1.3-.972 1.661-1.552 1.558-2.54-.11-1.052-1.002-1.697-2.184-1.574-1.052.111-1.706.7-1.95 1.692-.196.715-.648 1.066-1.303 1.135-.848.088-1.429-.383-1.514-1.199a2.66 2.66 0 01.188-1.31c.54-1.49 2.161-2.582 4.47-2.824 3.05-.319 5.274 1.141 5.536 3.643.17 1.621-.499 2.81-1.919 3.86-1.342.974-1.615 1.47-1.66 2.386-.086.737-.46 1.198-1.224 1.28-.912.094-1.514-.472-1.606-1.353"/><path fill="var(--color-primary-400)" d="M137.219 115h9.797a2.922 2.922 0 002.913-2.914v-1.968a2.922 2.922 0 00-2.913-2.913h-9.797a2.921 2.921 0 00-2.913 2.913v1.968a2.921 2.921 0 002.913 2.913"/><path stroke="var(--color-primary-600)" stroke-width="2" d="M137.219 115h9.797a2.922 2.922 0 002.913-2.914v-1.968a2.922 2.922 0 00-2.913-2.913h-9.797a2.921 2.921 0 00-2.913 2.913v1.968a2.921 2.921 0 002.913 2.913z"/><path fill="var(--color-primary-300)" d="M142.01 80.872c-.296-1.818.734-3.737 2.215-4.946 1.494-1.239 3.455-1.879 5.385-1.882 1.929-.003 3.892.64 5.386 1.877 1.483 1.208 2.514 3.131 2.213 4.951-1.308-1.239-2.565-1.834-3.824-2.25-1.258-.404-2.508-.566-3.775-.58-1.268.008-2.52.171-3.778.575-1.26.416-2.518 1.014-3.822 2.255M109.894 80.872c-.297-1.818.734-3.737 2.215-4.946 1.495-1.239 3.456-1.879 5.386-1.882 1.927-.003 3.89.64 5.385 1.877 1.484 1.208 2.514 3.131 2.214 4.951-1.308-1.239-2.566-1.834-3.825-2.25-1.258-.404-2.508-.566-3.775-.58-1.267.008-2.52.171-3.778.575-1.26.416-2.517 1.014-3.822 2.255"/><path fill="var(--color-primary-100)" d="M132 82.57l-3.051 9.69c-.762 1.623.422 3.489 2.216 3.489h6.102c1.794 0 2.978-1.866 2.214-3.489l-3.05-9.69c-.882-1.875-3.549-1.875-4.431 0M145.922 72.373c.305-.672.777-1.298 1.443-1.708a4.054 4.054 0 012.255-.61c.789.032 1.56.257 2.193.665.328.182.59.466.86.708.239.293.462.59.624.945-.408.015-.746-.043-1.084-.077-.337-.024-.65-.081-.954-.105-.603-.081-1.152-.106-1.686-.136a11.24 11.24 0 00-1.64.07c-.593.039-1.194.23-2.011.248M113.807 72.242c.305-.672.777-1.298 1.443-1.708a4.054 4.054 0 012.255-.609c.789.031 1.56.256 2.193.664.328.182.59.466.86.71.239.291.462.588.624.943-.408.015-.746-.043-1.084-.077-.337-.024-.65-.08-.954-.105-.604-.08-1.152-.106-1.687-.136-.535-.02-1.058.01-1.64.071-.592.038-1.193.23-2.01.247"/><path fill="var(--color-primary-200)" d="M132.132 33.337a63.015 63.015 0 005.508 8.426c2.049 2.588 4.304 4.954 6.81 7.004a40.74 40.74 0 003.956 2.807c1.382.846 2.83 1.582 4.312 2.282 2.999 1.317 6.194 2.263 9.554 3.062-3.421.45-6.973.13-10.362-.865a27.272 27.272 0 01-4.916-2.008 30.009 30.009 0 01-4.435-2.952 30.038 30.038 0 01-6.848-8.02c-1.768-3.015-3.103-6.302-3.58-9.736"/><g><path fill="none" d="M0 0h224v224H0z"/><path fill="none" d="M0 0h224v224H0z"/><path d="M0 0h224v224H0z"/></g></g></svg>