<svg id="empty--non--filtered--calls" xmlns="http://www.w3.org/2000/svg" xlink="http://www.w3.org/1999/xlink" viewBox="0 0 224 224"><defs><path id="a" d="M.78.976h32.915V15.19H.78z"/></defs><g fill="none" fill-rule="evenodd"><path fill="none" d="M0 0h224v224H0z"/><path fill="none" d="M0 0h224v224H0z"/><path d="M0 0h224v224H0z"/><g><path fill="var(--color-primary-100)" d="M143.525 106.178c0 26.448-21.439 47.888-47.887 47.888-26.446 0-47.886-21.44-47.886-47.888 0-26.447 21.44-47.887 47.886-47.887 26.448 0 47.887 21.44 47.887 47.887"/><path fill="var(--color-primary-100)" d="M146.179 192.653a8.531 8.531 0 01-9.518.666l-99.594-57.5A8.135 8.135 0 0133 128.774v-7.26c0-1.904.868-3.706 2.359-4.89l31.478-25.06a10.688 10.688 0 0112.002-.894l101.376 58.53a2.499 2.499 0 011.25 2.165v8.502a8.998 8.998 0 01-3.346 7.001l-31.94 25.784z"/><path stroke="var(--color-primary-400)" stroke-width="4" d="M146.179 192.653a8.531 8.531 0 01-9.518.666l-99.594-57.5A8.135 8.135 0 0133 128.774v-7.26c0-1.904.868-3.706 2.359-4.89l31.478-25.06a10.688 10.688 0 0112.002-.894l101.376 58.53a2.499 2.499 0 011.25 2.165v8.502a8.998 8.998 0 01-3.346 7.001l-31.94 25.784z"/><path stroke="var(--color-primary-200)" stroke-width="3" d="M73.213 69.799c-2.04 4.779-7.566 7-12.346 4.96a9.408 9.408 0 01-4.962-12.345c2.039-4.78 7.567-7.001 12.347-4.962 4.779 2.039 7 7.568 4.96 12.347z"/><path fill="var(--color-neutral-50)" d="M155.276 30l-46.8.766a5.732 5.732 0 00-5.668 5.793l.483 43.793a5.73 5.73 0 005.792 5.667l9.898-.11.063 5.69c.026 2.43 2.979 3.617 4.679 1.879l7.536-7.704 24.624-.522a5.73 5.73 0 005.667-5.792l-.482-43.794a5.73 5.73 0 00-5.792-5.667"/><path stroke="var(--color-primary-400)" stroke-width="4" d="M155.276 30l-46.8.766a5.732 5.732 0 00-5.668 5.793l.483 43.793a5.73 5.73 0 005.792 5.667l9.898-.11.063 5.69c.026 2.43 2.979 3.617 4.679 1.879l7.536-7.704 24.624-.522a5.73 5.73 0 005.667-5.792l-.482-43.794a5.73 5.73 0 00-5.792-5.667z"/><path fill="var(--color-primary-300)" d="M138.25 70.241c-.098.962-1.13 1.693-2.041 2.338-.18.126-.353.249-.516.371-.196.146-.453.238-.76.276-.965.123-2.42-.283-3.994-1.153-2.56-1.411-5.221-3.868-7.5-6.915-2.276-3.048-3.877-6.299-4.507-9.153-.51-2.311-.31-4.197.507-4.808.164-.122.33-.254.503-.39.726-.571 1.53-1.206 2.326-1.305a1.57 1.57 0 01.493.01c.653.124 1.29.705 1.896 1.727 1.809 3.064.918 3.719-.56 4.804l-.283.209c-1.182.885-.42 3.055 2.402 6.83 1.14 1.528 2.148 2.678 2.99 3.417.899.788 1.662 1.145 2.28 1.067.218-.027.417-.109.598-.245l.287-.215c.64-.487 1.17-.888 1.769-.965.762-.095 1.635.336 2.992 1.793.81.87 1.187 1.646 1.119 2.307m.797-4.092c-1.267-1.36-3.008-2.887-5.236-2.605-1.094.138-1.92.657-2.64 1.186a5.781 5.781 0 01-.24-.199c-.485-.427-1.333-1.296-2.618-3.017-1.486-1.987-2.06-3.097-2.28-3.655 2.295-1.815 3.252-3.932.878-7.952-1.008-1.701-2.241-2.699-3.666-2.968l-.057-.01-.12-.018a4.195 4.195 0 00-1.13-.008c-1.515.192-2.68 1.109-3.616 1.847-.163.129-.31.243-.451.349-1.741 1.299-2.273 3.953-1.497 7.47.708 3.21 2.472 6.817 4.968 10.156 2.497 3.342 5.456 6.055 8.332 7.642 1.453.803 3.604 1.709 5.588 1.458.765-.097 1.437-.358 1.998-.777.144-.109.298-.217.457-.328 1.166-.827 2.918-2.068 3.138-4.211.148-1.447-.46-2.914-1.808-4.36"/><path stroke="var(--color-primary-200)" stroke-linecap="round" stroke-width="3" d="M46.815 175.363l-11.894-11.895M46.815 163.469l-11.894 11.894"/><path stroke="var(--color-primary-300)" stroke-linecap="round" stroke-width="3" d="M174.272 157.46l-27.217 22.035c-2.845 2.305-8.119 2.463-11.777.355l-7.72-4.101"/><path fill="var(--color-neutral-50)" d="M44.567 125.53l37.468-30.223c.674-.546 1.928-.584 2.795-.084l82.775 47.71c.869.5 1.025 1.351.35 1.897l-37.467 30.221c-.676.547-1.93.585-2.8.084l-82.773-47.708c-.867-.5-1.024-1.35-.348-1.898"/><path stroke="var(--color-primary-400)" stroke-width="4" d="M44.567 125.53l37.468-30.223c.674-.546 1.928-.584 2.795-.084l82.775 47.71c.869.5 1.025 1.351.35 1.897l-37.467 30.221c-.676.547-1.93.585-2.8.084l-82.773-47.708c-.867-.5-1.024-1.35-.348-1.898z"/><path fill="var(--color-primary-400)" d="M66.024 98.72c.436-.355 1.242-.377 1.802-.055.56.323.66.87.225 1.222-.436.353-1.242.377-1.802.055-.56-.323-.661-.87-.225-1.222M53.225 108.734l8.782-7.112c.436-.353 1.242-.377 1.802-.054.56.322.66.87.226 1.223l-8.783 7.111c-.436.353-1.241.377-1.801.055-.561-.324-.662-.87-.226-1.223"/><path stroke="var(--color-primary-300)" d="M162.279 163.222c1.438-1.163 1.105-2.98-.745-4.047-1.848-1.065-4.527-.984-5.965.18-1.44 1.167-1.103 2.983.745 4.048 1.85 1.066 4.526.986 5.965-.18h0zm-7.05-4.061c1.585-1.285 4.532-1.374 6.569-.2 2.039 1.175 2.407 3.175.823 4.458-1.586 1.284-4.534 1.373-6.572.2-2.038-1.174-2.406-3.174-.82-4.458z"/><path fill="var(--color-primary-100)" d="M94.126 154.282l32.716 18.856c.87.501 2.124.463 2.8-.084l4.341-3.515v-44.627l-39.857-22.973v52.343zM164.65 142.37l-22.526-12.982v33.496l22.891-18.537c.702-.57.54-1.456-.366-1.977"/><path stroke="var(--color-primary-400)" stroke-width="4" d="M44.567 125.53l37.468-30.223c.674-.546 1.928-.584 2.795-.084l82.775 47.71c.869.5 1.025 1.351.35 1.897l-37.467 30.221c-.676.547-1.93.585-2.8.084l-82.773-47.708c-.867-.5-1.024-1.35-.348-1.898z"/><path fill="var(--color-primary-300)" d="M136.999 42.33a1.477 1.477 0 10-.086 2.954l6.163.18-8.699 7.936a1.478 1.478 0 102.028 2.15l8.698-7.935-.18 6.163a1.478 1.478 0 102.954.087l.329-11.207-11.207-.328z"/><g transform="translate(158 102.462)"><mask id="b" fill="var(--color-neutral-50)"><use href="#a"/></mask><path fill="var(--color-primary-200)" d="M26.588 12.237a4.159 4.159 0 01-4.154-4.155 4.159 4.159 0 014.154-4.154 4.159 4.159 0 014.154 4.154 4.159 4.159 0 01-4.154 4.155m-18.7 0a4.159 4.159 0 01-4.155-4.155 4.159 4.159 0 014.154-4.154 4.16 4.16 0 014.154 4.154 4.16 4.16 0 01-4.154 4.155M26.588.976c-3.919 0-7.107 3.188-7.107 7.106a7.05 7.05 0 001.367 4.155h-7.222a7.045 7.045 0 001.368-4.155c0-3.918-3.189-7.106-7.107-7.106C3.968.976.78 4.164.78 8.082c0 3.919 3.188 7.108 7.107 7.108h19.577v-.089c3.502-.437 6.231-3.4 6.231-7.019 0-3.918-3.189-7.106-7.107-7.106" /></g></g></g></svg>