<svg id="error--server--error--small" xmlns="http://www.w3.org/2000/svg" viewBox="0 0 224 224"><g fill="none" fill-rule="evenodd"><path fill="var(--color-primary-100)" d="M98.274 176.125H2.56c-.61 0-.78-.835-.221-1.074l3.904-1.673a40.416 40.416 0 0012.659-8.571 30.208 30.208 0 0129.16-7.823l27.087 9.274"/><path stroke="var(--color-primary-400)" stroke-linejoin="round" stroke-width="2" d="M98.274 176.125H2.56c-.61 0-.78-.835-.221-1.074l3.904-1.673a40.416 40.416 0 0012.659-8.571 30.208 30.208 0 0129.16-7.823l27.087 9.274"/><path fill="var(--color-primary-300)" d="M75.173 168c-4.545-.242-9.057-.857-13.534-1.634-4.482-.763-8.921-1.757-13.327-2.884-1.111-.31-2.18-.56-3.24-.798-.53-.147-1.076-.179-1.614-.27a14.855 14.855 0 00-1.625-.186c-2.174-.22-4.37-.088-6.526.296-4.321.782-8.44 2.745-12.012 5.548 3.004-3.419 7.132-5.949 11.68-7.073 2.267-.599 4.64-.783 6.983-.66.59-.002 1.17.08 1.752.16.579.09 1.17.12 1.738.267 1.154.242 2.294.494 3.368.783 4.362 1.156 8.748 2.225 13.139 3.295L75.173 168z"/><path fill="var(--color-primary-100)" d="M97.4 60.39l-2.52 4.845-4.263 5.038-8.914 6.782-7.75 6.589-7.753 9.495-6.976 15.309-4.965 40.015-.073 5.135 4.263 10.465 8.721 8.72 10.851 3.488 35.268-.776 17.731-7.654 3.391 3.682c9.69-7.46 13.694-1.141 13.694-1.141 5.555-8.31 12.078-3.22 12.078-3.22l5.135-40.5-12.595 6.493-4.845 1.162 1.26-2.422 6.201-8.623 2.81-7.848-.485-7.364-2.13-5.232-3.102-4.748-14.63-12.692A81.622 81.622 0 00111.3 66.553L97.4 60.39z"/><path fill="var(--color-primary-200)" d="M60.36 108.866l-2.937 7.466-2.724 33.777.027 1.085c.93.203 1.885.297 2.856.26 8.569-.329 15.143-10.292 14.683-22.252-.378-9.82-5.382-17.93-11.904-20.336M148.374 134.198l-.648 35.711c.253.277.378.473.378.473 5.556-8.31 12.08-3.22 12.08-3.22l5.134-40.5-12.595 6.492-4.349 1.044z"/><path stroke="var(--color-primary-400)" stroke-linecap="round" stroke-width="2.5" d="M165.932 125.306l-5.772 40.899a2.977 2.977 0 001.615 3.079 1.677 1.677 0 01-.749 3.175h-6.16a8.832 8.832 0 01-6.25-2.59"/><path fill="var(--color-primary-400)" d="M158.375 172.136c-.418-1.174-.884-1.896-1.488-2.562-.305-.332-.664-.632-1.045-.978-.198-.158-.407-.324-.615-.513-.217-.176-.442-.352-.663-.597.308-.077.61-.084.92-.093.298.038.608.072.9.166a3.679 3.679 0 011.606 1c.897.96 1.187 2.557.385 3.577"/><path fill="var(--color-primary-100)" d="M154.426 28.939l-2.381-8.759-7.724-7.256c-11.465.1-17.144.895-17.144.895L121.75 4a59.527 59.527 0 00-10.304 17.83l-3.415 9.479c-.815 2.264-5.707 12.547-4.044 14.29 18.345 18.344 42.373-7.105 42.373-7.105s.546-.234 1.464-.577c-.021-.227-.043-.453-.043-.684 0-3.691 2.729-6.864 6.644-8.294M184.68 30.907c-1.527-.163-5.377-1.118-9.576-6.366-4.946-6.184-13.66-10.743-25.046-11.503 13.55 8.983 13.096 13.723 11.705 15.36 4.931.975 8.594 4.556 8.594 8.835 0 .95-.18 1.864-.515 2.725.008.03.022.055.03.085 2.972 10.335 9.95 10.774 9.95 10.774 2.853-4.736 5.098-10.988 5.52-19.13a.746.746 0 00-.662-.78"/><path fill="var(--color-primary-400)" d="M174.584 24.333c-6.53-.97-10.324 1.815-12.208 3.867 1.211 1.677 3.223 3.217 5.737 4.203 4.923 1.931 9.886 1.016 11.087-2.045a3.95 3.95 0 00.223-1.967l-4.839-4.058z"/><path fill="var(--color-primary-200)" d="M117.552 22.99C117.358 17.178 121.751 4 121.751 4l6.265 9.69-10.464 9.3z"/><path stroke="var(--color-primary-300)" stroke-linecap="round" stroke-width="3" d="M176.784 55.772v44.518c0 16.938-12.271 31.01-28.408 33.81"/><path stroke="var(--color-primary-400)" stroke-width="2" d="M107.153 176.076h22.639c.982 0 1.777-.796 1.777-1.777 0-.77-.155-1.502-.437-2.169h3.73"/><path fill="var(--color-primary-400)" d="M144.81 175.883c-.418-1.175-.884-1.896-1.488-2.562-.305-.333-.664-.632-1.045-.978-.198-.16-.407-.325-.615-.514-.217-.176-.442-.352-.663-.597.308-.077.61-.084.921-.092.297.037.607.07.9.166a3.673 3.673 0 011.605 1c.897.959 1.187 2.557.385 3.577M128.404 176.076c-.418-1.175-.884-1.896-1.488-2.562-.305-.333-.664-.632-1.045-.978a12.32 12.32 0 01-.615-.514c-.217-.176-.442-.35-.663-.596.308-.078.61-.084.92-.093.298.037.608.071.9.166a3.67 3.67 0 011.606 1.001c.897.96 1.187 2.556.385 3.576"/><path fill="var(--color-primary-200)" d="M178.076 8.651l-9.56 10.593 5.297 4.134z"/><path stroke="var(--color-primary-400)" stroke-linecap="round" stroke-linejoin="round" stroke-width="2.5" d="M130.277 168.325l-12.422 5.48a26.679 26.679 0 01-10.773 2.271H81.147a26.687 26.687 0 01-18.253-7.218 27.329 27.329 0 01-8.635-20.395l3.328-29.838A60.195 60.195 0 0185.02 74.56a32.773 32.773 0 0013.148-16.38l13.28-36.35A59.534 59.534 0 01121.75 4l5.425 9.818s6.46-.904 19.508-.904c13.047 0 22.995 4.845 28.421 11.627 4.193 5.242 8.04 6.201 9.57 6.366.395.042.686.39.667.785-1.024 19.77-12.805 28.397-17.942 31.237"/><path stroke="var(--color-primary-400)" stroke-linejoin="round" stroke-width="2" d="M173.942 22.733l4.134-14.082-17.699 6.072"/><path stroke="var(--color-primary-400)" stroke-linejoin="round" stroke-width="1.5" d="M169.291 18.857l8.268-9.689"/><path fill="var(--color-primary-300)" d="M153.307 28.858l-21.724-2.939c-2.53 1.886-3.976 4.384-3.655 6.936.584 4.644 6.775 7.688 13.827 6.8 7.053-.889 12.297-5.37 11.712-10.015a5.719 5.719 0 00-.16-.782"/><path fill="var(--color-neutral-50)" d="M151.705 27.608l-15.51-2.098c-1.807 1.346-2.84 3.13-2.61 4.952.417 3.315 4.837 5.49 9.873 4.855 5.035-.634 8.779-3.835 8.36-7.149a3.997 3.997 0 00-.113-.56"/><path fill="var(--color-primary-600)" d="M151.222 18.694a12.93 12.93 0 012.369 2.86c.679 1.067 1.149 2.28 1.455 3.541.314 1.263.366 2.595.246 3.895a1.326 1.326 0 01-1.443 1.198l-.108-.009c-4.37-.399-8.717-.975-13.042-1.719a101.907 101.907 0 01-3.237-.613 79.83 79.83 0 01-3.228-.685c-2.15-.48-4.29-1.03-6.411-1.717 2.227-.126 4.436-.117 6.637-.037 1.102.024 2.199.084 3.295.154 1.099.058 2.194.133 3.288.228 4.372.375 11.724.761 11.63-.288-.087-1.052-.38-2.085-.75-3.115-.39-1.023-.92-2.016-1.535-2.978a19.905 19.905 0 00-2.154-2.749c1.087.504 2.086 1.213 2.988 2.034zM130.893 31.75c.596 1.889 2.115 3.205 3.786 3.978.845.387 1.74.672 2.663.817.917.162 1.855.245 2.79.193 1.872-.037 3.742-.461 5.483-1.179 1.73-.742 3.367-1.79 4.638-3.277-.95 1.718-2.53 3.082-4.308 3.984a13.572 13.572 0 01-5.782 1.471c-2.003.051-4.066-.315-5.838-1.317-.885-.492-1.69-1.143-2.308-1.941-.602-.808-1.033-1.75-1.124-2.729"/><path fill="var(--color-neutral-50)" d="M162.645 28.459c3.921 3.858 8.904 5.152 11.555 2.833a4.521 4.521 0 001.227-1.764c.701-1.764.302-3.745-.854-5.205-6.483-.935-10.256 1.834-12.133 3.877.063.088.138.173.205.259"/><path stroke="var(--color-primary-600)" stroke-width="1.2" d="M162.645 28.459c3.921 3.858 8.904 5.152 11.555 2.833a4.521 4.521 0 001.227-1.764c.701-1.764.302-3.745-.854-5.205-6.483-.935-10.256 1.834-12.133 3.877.063.088.138.173.205.259z"/><path fill="var(--color-primary-600)" d="M139.86 30.396a1.25 1.25 0 11-2.502 0 1.25 1.25 0 012.501 0M169.572 28.546a1.25 1.25 0 11-2.5-.003 1.25 1.25 0 012.5.003M162.508 34.975l-2.84-2.328a.582.582 0 01.368-1.033h5.683c.547 0 .792.686.37 1.033l-2.843 2.328a.582.582 0 01-.738 0"/><path fill="var(--color-primary-300)" d="M148.384 42.698c1.136.667 2.227 1.084 3.333 1.231 1.1.162 2.17.038 3.15-.299.967-.344 1.875-.959 2.766-1.744.883-.774 1.716-1.676 2.657-2.598a8.521 8.521 0 01-1.491 3.636c-.375.563-.86 1.051-1.383 1.515-.553.447-1.191.835-1.882 1.076a6.05 6.05 0 01-4.234-.088c-1.316-.499-2.411-1.51-2.916-2.729M165.314 45.392c-1.065.915-2.419 1.396-3.783 1.61-1.368.187-2.797.119-4.088-.437 1.376-.235 2.655-.351 3.943-.551 1.292-.174 2.546-.433 3.928-.622"/><path stroke="var(--color-primary-400)" stroke-width="1.5" d="M121.75 4s-3.81 9.625-4.327 16.729c-.507 6.978 2.003-2.454 10.98-6.782"/><path stroke="var(--color-primary-400)" stroke-linecap="round" stroke-width="2.5" d="M104.31 128.536l6.45 12.44a100.802 100.802 0 0018.21 24.88l7.642 7.642a7.926 7.926 0 005.602 2.32h6.046c1.157 0 1.781-1.357 1.028-2.236a4.918 4.918 0 01-1.184-3.2V135.43a6.49 6.49 0 011.68-4.355l1.01-1.115a37.49 37.49 0 004.154-5.539c5.705-9.28 3.55-21.382-4.712-28.484L132.36 80.432"/><path fill="var(--color-primary-600)" d="M162.722 23.866c.343.549.62 1.168.781 1.838.162.673.161 1.388.085 2.098 1.137-1.9 2.288-3.036 3.453-3.41a20.909 20.909 0 015.382-1.017c1.834-.102 3.701.057 5.47.568 1.768.493 3.426 1.362 4.769 2.536-1.714-.514-3.38-.859-5.054-.969-1.667-.125-3.327-.043-4.968.181-1.64.231-3.264.598-4.867 1.07-1.585.477-3.224 1.037-4.682 1.717l-.138.064a1.008 1.008 0 01-1.393-1.19c.127-.445.234-.914.207-1.405-.019-.488-.072-1.008-.24-1.519-.306-1.034-.857-2.058-1.537-3.052 1.089.545 2.02 1.408 2.732 2.49z"/><path stroke="var(--color-primary-600)" stroke-linecap="round" stroke-width="3" d="M68.849 88.571h3.045c12.705 0 23.004-10.3 23.002-23.006h0c0-1.083.872-1.96 1.954-1.96 6.097 0 25.287-.002 40.718-.01 11.755-.007 21.276-9.539 21.276-21.294a3.096 3.096 0 013.093-3.096h.007a3.096 3.096 0 013.1 3.096v8.248a47.194 47.194 0 0013.823 33.371"/><path fill="var(--color-primary-600)" d="M185.626 97.245l-4.272 3.621 8.009 9.445a2.2 2.2 0 001.695.785c.524 0 1.026-.184 1.43-.527l.889-.754a2.219 2.219 0 00.257-3.125l-8.008-9.445zM203.35 98.452l-8.007-9.445-4.272 3.621 8.009 9.445a2.197 2.197 0 001.694.783c.524 0 1.027-.183 1.43-.526l.89-.754c.45-.383.727-.919.776-1.509a2.203 2.203 0 00-.52-1.615"/><path fill="var(--color-primary-200)" d="M193.753 86.286L178.86 98.913l-5.923-6.985a5.207 5.207 0 01.604-7.34l6.948-5.892a5.208 5.208 0 017.34.605l5.923 6.985z"/><path stroke="var(--color-primary-600)" stroke-linecap="round" stroke-width="3.5" d="M193.753 86.286L178.86 98.913l-5.923-6.985a5.207 5.207 0 01.604-7.34l6.948-5.892a5.208 5.208 0 017.34.605l5.923 6.985z"/><path fill="var(--color-neutral-50)" d="M198.79 89.027l-18.049 15.304a2.155 2.155 0 01-3.036-.25l-1.334-1.574a2.154 2.154 0 01.25-3.035l18.05-15.303a2.153 2.153 0 013.035.25l1.334 1.573a2.154 2.154 0 01-.25 3.035"/><path stroke="var(--color-primary-600)" stroke-linecap="round" stroke-width="2" d="M198.79 89.027l-18.049 15.304a2.155 2.155 0 01-3.036-.25l-1.334-1.574a2.154 2.154 0 01.25-3.035l18.05-15.303a2.153 2.153 0 013.035.25l1.334 1.573a2.154 2.154 0 01-.25 3.035z"/><path fill="var(--color-primary-200)" d="M76.121 158.145c1.588 2.75 1.163 5.969-.949 7.187-2.113 1.22-5.112-.021-6.7-2.771-1.588-2.751-1.163-5.97.95-7.188 2.112-1.22 5.111.02 6.7 2.772"/><path stroke="var(--color-primary-600)" stroke-linecap="round" stroke-width="3.5" d="M102.885 182.557a5.44 5.44 0 015.44 5.439h0a5.44 5.44 0 01-5.44 5.44H22.962a8.16 8.16 0 100 16.32H35.05a4.231 4.231 0 10-4.232-4.23v5.779a6.008 6.008 0 006.007 6.007H202.8c10.368 0 18.773-8.405 18.773-18.773v-.001c0-9.131-7.403-16.535-16.536-16.535h-1.591a13.151 13.151 0 01-8.697-3.287"/><path fill="var(--color-primary-200)" d="M188.678 170.33l1.298 5.394a3.567 3.567 0 006.935-1.67l-1.298-5.394"/><path stroke="var(--color-primary-600)" stroke-linecap="round" stroke-width="3" d="M188.678 170.33l1.298 5.394a3.567 3.567 0 006.935-1.67l-1.298-5.394"/><path fill="var(--color-primary-200)" d="M178.926 156.058l18.874-4.544 2.717 11.289a4.454 4.454 0 01-3.287 5.373l-10.214 2.458a4.452 4.452 0 01-5.372-3.287l-2.718-11.29z"/><path stroke="var(--color-primary-600)" stroke-linecap="round" stroke-width="3" d="M178.926 156.058l18.874-4.544 2.717 11.289a4.454 4.454 0 01-3.287 5.373l-10.214 2.458a4.452 4.452 0 01-5.372-3.287l-2.718-11.29z"/><path fill="var(--color-neutral-50)" d="M175.603 151.378l23.026-5.544a1.657 1.657 0 012 1.224l.72 2.987a1.657 1.657 0 01-1.225 1.999l-23.026 5.544a1.657 1.657 0 01-1.999-1.224l-.72-2.987a1.657 1.657 0 011.224-1.999"/><path stroke="var(--color-primary-600)" stroke-linecap="round" stroke-width="2" d="M175.603 151.378l23.026-5.544a1.657 1.657 0 012 1.224l.72 2.987a1.657 1.657 0 01-1.225 1.999l-23.026 5.544a1.657 1.657 0 01-1.999-1.224l-.72-2.987a1.657 1.657 0 011.224-1.999z"/><path stroke="var(--color-primary-200)" stroke-linecap="round" stroke-width="2.5" d="M185.207 133.357l.895 3.929M198.493 135.077l-.818 3.946M173.974 140.659l2.446 3.203M198.493 135.077l-.818 3.946"/><path stroke="var(--color-primary-600)" stroke-linecap="round" stroke-linejoin="round" stroke-width="1.2" d="M152.142 28.303c-.198 3.19-3.426 6.246-7.876 7.182-5.063 1.063-9.785-1.017-10.548-4.648 0 0-.858-3.39 1.758-4.164"/><g><path fill="none" d="M0 0h224v224H0z"/><path fill="none" d="M0 0h224v224H0z"/><path d="M0 0h224v224H0z"/></g></g></svg>