<svg id="error--server--error--large" xmlns="http://www.w3.org/2000/svg" viewBox="0 0 424 424"><g fill="none" fill-rule="evenodd"><path stroke="var(--color-primary-400)" stroke-linecap="round" stroke-linejoin="round" stroke-width="1.5" d="M115.224 297.77s-15.183-23.317-48.817-23.857"/><path fill="var(--color-primary-100)" d="M169.934 135.306l-3.82 7.346-6.464 7.639-13.515 10.284-11.753 9.99-11.753 14.396-10.577 23.212-7.53 60.674-.11 7.785 6.465 15.866 13.222 13.222 16.453 5.289 53.475-1.176 26.885-11.605 5.14 5.583c14.692-11.313 20.764-1.731 20.764-1.731 8.423-12.6 18.315-4.88 18.315-4.88l7.786-61.408-19.098 9.843-7.345 1.763 1.909-3.673 9.403-13.075 4.26-11.9-.735-11.165-3.232-7.932-4.701-7.2-22.183-19.245a123.724 123.724 0 00-40.183-28.557l-21.078-9.345z"/><path fill="var(--color-primary-200)" d="M113.774 208.809l-4.455 11.319-4.13 51.215.041 1.645c1.412.307 2.858.45 4.331.394 12.992-.5 22.96-15.605 22.263-33.74-.572-14.891-8.16-27.187-18.05-30.833M247.225 247.217l-.982 54.146c.383.422.573.717.573.717 8.423-12.6 18.315-4.881 18.315-4.881l7.786-61.407-19.098 9.843-6.594 1.582z"/><path stroke="var(--color-primary-400)" stroke-linecap="round" stroke-width="3" d="M273.848 233.734l-8.752 62.013a4.51 4.51 0 002.45 4.667 2.542 2.542 0 01-1.137 4.817h-9.34a13.403 13.403 0 01-9.477-3.927"/><path fill="var(--color-primary-400)" d="M262.389 304.74c-.527-1.765-1.217-2.939-2.156-3.977-.477-.516-1.036-.98-1.638-1.48-.308-.237-.632-.482-.956-.752-.338-.25-.687-.5-1.028-.842.458-.087.909-.082 1.372-.078.442.073.904.133 1.34.28.87.306 1.717.793 2.38 1.52.66.723 1.124 1.65 1.26 2.611.132.956-.015 1.95-.574 2.718"/><path fill="var(--color-primary-100)" d="M256.4 87.618l-3.61-13.279-11.712-11.003c-17.383.15-25.994 1.356-25.994 1.356l-8.227-14.887a90.247 90.247 0 00-15.624 27.033l-5.177 14.373c-1.238 3.434-8.653 19.026-6.133 21.667 27.815 27.814 64.248-10.774 64.248-10.774s.83-.352 2.22-.873c-.032-.342-.065-.686-.065-1.037 0-5.598 4.138-10.409 10.074-12.576M302.274 90.604c-2.316-.248-8.154-1.696-14.52-9.653-7.5-9.376-20.712-16.29-37.975-17.441 20.542 13.62 19.856 20.806 17.746 23.288 7.477 1.48 13.031 6.909 13.031 13.397 0 1.439-.275 2.827-.78 4.132.012.045.033.084.045.129 4.506 15.669 15.084 16.336 15.084 16.336 4.328-7.181 7.733-16.661 8.371-29.005a1.13 1.13 0 00-1.002-1.183"/><path fill="var(--color-primary-400)" d="M286.966 80.634c-9.901-1.47-15.653 2.754-18.511 5.864 1.838 2.543 4.887 4.877 8.7 6.373 7.463 2.928 14.989 1.54 16.81-3.1.37-.947.47-1.954.338-2.984l-7.337-6.153z"/><path stroke="var(--color-primary-300)" stroke-linecap="round" stroke-linejoin="round" d="M224.163 63.755l5.648-6.695 4.733.095-.528-9.155"/><path stroke="var(--color-primary-300)" stroke-linecap="round" d="M232.517 63.027l7.639-4.7-1.175-3.234"/><path fill="var(--color-primary-100)" d="M148.975 310.788H3.85c-.923 0-1.183-1.265-.334-1.628l5.918-2.537a61.262 61.262 0 0019.195-12.995 45.8 45.8 0 0144.214-11.86l41.07 14.06"/><path stroke="var(--color-primary-600)" stroke-linejoin="round" stroke-width="2" d="M148.975 310.788H3.85c-.923 0-1.183-1.265-.334-1.628l5.918-2.537a61.262 61.262 0 0019.195-12.995 45.8 45.8 0 0144.214-11.86l41.07 14.06"/><path fill="var(--color-primary-200)" d="M200.491 78.6c-.294-8.814 6.366-28.794 6.366-28.794l9.5 14.69L200.491 78.6z"/><path stroke="var(--color-primary-300)" stroke-linecap="round" stroke-width="3" d="M290.301 128.304v67.499c0 25.683-18.606 47.02-43.074 51.267"/><path fill="var(--color-primary-100)" d="M258.569 236.673a60.062 60.062 0 003.519-4.729 34.519 34.519 0 002.746-5.009c.785-1.722 1.325-3.531 1.683-5.395.42-1.873.394-3.792.475-5.826.736 1.859 1.228 3.924 1.077 5.994-.085 2.064-.534 4.147-1.404 6.029a19.624 19.624 0 01-3.35 5.16c-1.367 1.511-2.936 2.853-4.746 3.776"/><path stroke="var(--color-primary-600)" stroke-width="2" d="M184.723 310.715h34.326a2.696 2.696 0 002.695-2.695 8.436 8.436 0 00-.663-3.29h5.658"/><path fill="var(--color-primary-400)" d="M241.821 310.421c-.527-1.766-1.217-2.939-2.156-3.977-.476-.516-1.035-.981-1.637-1.48-.309-.237-.633-.482-.957-.752-.338-.251-.687-.5-1.028-.843.458-.087.91-.081 1.372-.077.442.073.904.132 1.342.278.868.307 1.715.795 2.38 1.521.658.723 1.123 1.65 1.26 2.612.131.956-.017 1.949-.576 2.718"/><path fill="var(--color-primary-600)" d="M216.945 310.715c-.527-1.766-1.217-2.94-2.156-3.977-.477-.516-1.035-.981-1.638-1.48-.308-.237-.632-.482-.956-.752-.338-.251-.687-.501-1.028-.843.458-.087.91-.081 1.372-.077.442.073.904.132 1.342.278.868.307 1.715.795 2.379 1.52.659.724 1.124 1.65 1.26 2.613.13.956-.016 1.949-.575 2.718"/><path fill="var(--color-primary-200)" d="M292.26 56.856l-14.495 16.062 8.031 6.268z"/><path stroke="var(--color-primary-600)" stroke-linecap="round" stroke-linejoin="round" stroke-width="3" d="M219.785 298.962l-18.835 8.311a40.487 40.487 0 01-16.334 3.442h-39.325a40.47 40.47 0 01-27.676-10.944 41.443 41.443 0 01-13.092-30.924l5.046-45.241a91.273 91.273 0 0141.594-66.816 49.697 49.697 0 0019.935-24.835l20.135-55.117a90.23 90.23 0 0115.624-27.032l8.227 14.886s9.794-1.371 29.577-1.371c19.784 0 34.867 7.345 43.094 17.629 6.359 7.949 12.191 9.403 14.511 9.653a1.14 1.14 0 011.012 1.191c-1.554 29.974-19.416 43.055-27.206 47.362"/><path stroke="var(--color-primary-600)" stroke-linejoin="round" stroke-width="2" d="M285.992 78.208l6.269-21.352-26.836 9.207"/><path stroke="var(--color-primary-600)" stroke-linejoin="round" d="M278.94 72.331l12.536-14.69"/><path fill="var(--color-primary-300)" d="M254.704 87.495l-32.938-4.454c-3.838 2.857-6.03 6.646-5.543 10.515.886 7.04 10.273 11.656 20.966 10.31 10.694-1.346 18.644-8.143 17.758-15.184a8.552 8.552 0 00-.243-1.187"/><path fill="var(--color-neutral-50)" d="M252.275 85.6l-23.517-3.18c-2.74 2.04-4.305 4.746-3.958 7.508.633 5.027 7.335 8.322 14.97 7.36 7.634-.96 13.311-5.813 12.678-10.838a6.17 6.17 0 00-.173-.85"/><path fill="var(--color-primary-600)" d="M251.467 72.15a19.88 19.88 0 013.515 4.346 17.563 17.563 0 012.15 5.33c.44 1.9.521 3.89.33 5.836a1.78 1.78 0 01-1.944 1.597l-.124-.012a285.462 285.462 0 01-19.777-2.6c-3.28-.553-6.554-1.16-9.813-1.883-3.262-.692-6.513-1.477-9.741-2.443 3.367-.117 6.711-.053 10.042.104 3.336.126 6.657.367 9.971.663a284.755 284.755 0 0119.79 2.493l-1.914-.297c.178-1.576.178-1.306 0-2.913-.176-1.606-.592-3.2-1.195-4.764-.615-1.555-1.443-3.057-2.403-4.503-.978-1.434-2.075-2.824-3.342-4.103 1.624.797 3.111 1.892 4.455 3.15zM220.719 91.88c.809 2.879 3.078 5.009 5.646 6.216a15.682 15.682 0 004.085 1.294c1.409.258 2.85.386 4.286.313.72.01 1.435-.097 2.152-.153.708-.126 1.426-.21 2.127-.381a22.66 22.66 0 004.114-1.326c1.326-.574 2.603-1.28 3.765-2.151 1.193-.836 2.245-1.861 3.18-3.004-1.517 2.556-3.946 4.514-6.62 5.85-2.685 1.347-5.676 2.078-8.688 2.164a18.89 18.89 0 01-4.5-.385c-1.476-.306-2.93-.791-4.25-1.54-1.321-.731-2.542-1.67-3.498-2.842-.932-1.183-1.604-2.584-1.8-4.054"/><path fill="var(--color-neutral-50)" d="M268.863 86.89c5.945 5.852 13.501 7.813 17.521 4.297.83-.726 1.447-1.633 1.86-2.674 1.063-2.677.458-5.68-1.295-7.893-9.83-1.418-15.55 2.78-18.396 5.878.096.133.208.262.31.393"/><path stroke="var(--color-primary-600)" stroke-width="1.2" d="M268.863 86.89c5.945 5.852 13.501 7.813 17.521 4.297.83-.726 1.447-1.633 1.86-2.674 1.063-2.677.458-5.68-1.295-7.893-9.83-1.418-15.55 2.78-18.396 5.878.096.133.208.262.31.393z"/><path fill="var(--color-primary-600)" d="M234.314 89.83a1.896 1.896 0 11-3.792-.002 1.896 1.896 0 013.792.001M279.366 87.023a1.895 1.895 0 11-3.79 0 1.895 1.895 0 013.79 0"/><path stroke="var(--color-primary-400)" stroke-linecap="round" stroke-linejoin="round" d="M313.415 69.589s-10.186-4.896-26.64 7.052M305.58 78.208s-7.836-6.072-19.785.98"/><path fill="var(--color-primary-600)" d="M268.846 96.927l-5.15-4.22a.583.583 0 01.369-1.033h10.3c.547 0 .793.687.369 1.033l-5.15 4.22a.582.582 0 01-.738 0"/><path fill="var(--color-primary-300)" d="M247.24 108.481c1.558 1.154 3.213 1.939 4.945 2.254a9.717 9.717 0 005.057-.355c1.58-.558 3.005-1.595 4.321-2.861 1.313-1.26 2.492-2.713 3.728-4.208a14.919 14.919 0 01-2.56 5.244c-.59.805-1.31 1.518-2.092 2.176-.815.636-1.733 1.189-2.73 1.535a9.175 9.175 0 01-6.14-.034c-1.943-.665-3.6-2.045-4.53-3.75M279.418 105.433c.59-1.991.954-3.932.808-5.885-.108-1.957-.704-3.834-1.576-5.72 1.53 1.423 2.441 3.52 2.574 5.656.137 2.138-.505 4.32-1.806 5.949M272.91 112.564c-1.697 1.2-3.724 1.874-5.774 2.189-2.054.285-4.181.228-6.16-.41 2.064-.151 4.042-.28 6.016-.58 1.977-.273 3.904-.724 5.918-1.199"/><path stroke="var(--color-primary-600)" d="M206.857 49.806s-5.778 14.593-6.562 25.366c-.77 10.578 3.037-3.721 16.65-10.284"/><path stroke="var(--color-primary-300)" stroke-linecap="round" stroke-linejoin="round" d="M282.936 98.692l25.416.675 6.007 4.904 5.571-1.956 4.605 2.71 5.401-.889M286.55 105.375l10.69-.147 5.081 4.11 9.142-1.309 11.516 10.446 21.482-.486M286.971 116.436c.838.56 11.734 6.985 11.734 6.985l9.779-.28 5.029 5.588"/><path stroke="var(--color-primary-300)" stroke-linecap="round" stroke-linejoin="round" stroke-width="2" d="M145.057 197.889l-1.567 7.052M151.228 201.025l-.98 4.011M208.427 187.013l.192 4.124M158.19 202.03l-.174 3.047M168.601 278.139l.64 4.078M175.413 276.385l1.013 2.879"/><path fill="var(--color-primary-300)" d="M113.948 298.468c-6.855-.604-13.674-1.604-20.44-2.87-6.771-1.234-13.488-2.762-20.158-4.477-.83-.213-1.67-.454-2.491-.648l-2.454-.561c-.813-.221-1.653-.27-2.48-.408l-1.245-.178c-.415-.055-.835-.06-1.252-.095-.835-.038-1.671-.152-2.508-.131l-2.514.04-2.503.24c-.834.092-1.656.266-2.487.394-6.6 1.286-12.872 4.373-18.128 8.805a31.197 31.197 0 013.812-3.494c1.348-1.09 2.803-2.037 4.283-2.954 3.015-1.736 6.286-3.072 9.702-3.883 3.407-.852 6.96-1.12 10.468-.907.883.005 1.754.125 2.625.249.867.136 1.752.184 2.603.405l2.574.564c.85.194 1.665.417 2.499.628 6.625 1.745 13.289 3.347 19.97 4.89a828.1 828.1 0 0010.043 2.246c3.348.77 6.714 1.438 10.08 2.145"/><path stroke="var(--color-primary-400)" stroke-linecap="round" stroke-width="3" d="M180.413 238.632l9.78 18.862a152.811 152.811 0 0027.611 37.725l11.586 11.586a12.011 12.011 0 008.494 3.518h9.167c1.755 0 2.702-2.058 1.56-3.39a7.458 7.458 0 01-1.795-4.853v-52.997c0-2.44.907-4.793 2.545-6.601l1.532-1.693a56.826 56.826 0 006.3-8.397c8.65-14.072 5.38-32.421-7.145-43.19l-27.105-23.508"/><path fill="var(--color-primary-600)" d="M267.032 77.806c.656.655 1.269 1.382 1.762 2.21.482.828.895 1.741 1.1 2.736.213.99.233 2.043.077 3.072 2.036-2.585 3.927-4.16 5.673-4.727a33.308 33.308 0 018.079-1.554c2.75-.182 5.55.043 8.215.75 2.666.684 5.18 1.92 7.276 3.595-2.54-.883-5.065-1.49-7.618-1.716-2.545-.26-5.094-.15-7.612.163-2.52.315-5.01.88-7.462 1.607-2.434.727-4.9 1.639-7.147 2.692l-.19.088a1.194 1.194 0 01-1.647-1.44c.445-1.42.35-3.02-.178-4.592a12.637 12.637 0 00-1.05-2.322c-.422-.763-.916-1.5-1.473-2.217.8.438 1.52 1.017 2.195 1.656z"/><path stroke="var(--color-primary-600)" stroke-linecap="round" stroke-width="3.5" d="M126.645 178.035h4.618c19.264 0 34.88-15.618 34.876-34.883a2.964 2.964 0 012.963-2.97c9.244 0 38.34-.003 61.738-.017 17.823-.01 32.259-14.462 32.259-32.285a4.696 4.696 0 014.69-4.696h.01a4.696 4.696 0 014.702 4.696v12.504a71.558 71.558 0 0020.959 50.6"/><path fill="var(--color-neutral-50)" d="M296.624 190.822l3.439-2.915 8.82 10.403a2.141 2.141 0 01-.247 3.018l-.173.146a2.14 2.14 0 01-3.018-.249l-8.821-10.403z"/><path stroke="var(--color-primary-600)" stroke-linecap="round" stroke-width="2" d="M296.624 190.822l3.439-2.915 8.82 10.403a2.141 2.141 0 01-.247 3.018l-.173.146a2.14 2.14 0 01-3.018-.249l-8.821-10.403z"/><path fill="var(--color-neutral-50)" d="M308.793 180.505l3.439-2.916 8.82 10.403a2.143 2.143 0 01-.248 3.019l-.172.146a2.14 2.14 0 01-3.018-.249l-8.821-10.403z"/><path stroke="var(--color-primary-600)" stroke-linecap="round" stroke-width="2" d="M308.793 180.505l3.439-2.916 8.82 10.403a2.143 2.143 0 01-.248 3.019l-.172.146a2.14 2.14 0 01-3.018-.249l-8.821-10.403z"/><path fill="var(--color-primary-300)" d="M310.387 172.418l-18.65 15.813-8.268-9.75a5.207 5.207 0 01.604-7.34l10.707-9.077a5.206 5.206 0 017.339.603l8.268 9.751z"/><path stroke="var(--color-primary-600)" stroke-linecap="round" stroke-width="3.5" d="M310.387 172.418l-18.65 15.813-8.268-9.75a5.207 5.207 0 01.604-7.34l10.707-9.077a5.206 5.206 0 017.339.603l8.268 9.751z"/><path fill="var(--color-neutral-50)" d="M315.863 176.557l-20.94 17.754a3.789 3.789 0 01-5.34-.44l-.258-.305a3.788 3.788 0 01.44-5.34l20.939-17.753a3.79 3.79 0 015.34.439l.259.306a3.788 3.788 0 01-.44 5.339"/><path stroke="var(--color-primary-600)" stroke-linecap="round" stroke-width="2" d="M315.863 176.557l-20.94 17.754a3.789 3.789 0 01-5.34-.44l-.258-.305a3.788 3.788 0 01.44-5.34l20.939-17.753a3.79 3.79 0 015.34.439l.259.306a3.788 3.788 0 01-.44 5.339z"/><path fill="var(--color-primary-300)" d="M292.054 178.953l9.127-7.738"/><path stroke="var(--color-primary-600)" stroke-linecap="round" stroke-width="2" d="M292.054 178.953l9.127-7.738"/><path fill="var(--color-primary-200)" d="M137.672 283.525c2.408 4.171 1.763 9.05-1.44 10.9-3.202 1.848-7.75-.034-10.158-4.204-2.407-4.17-1.763-9.05 1.44-10.899 3.202-1.849 7.75.034 10.158 4.203M358.199 299.866l5.455 4.288a4.46 4.46 0 005.513-7.014l-5.455-4.288"/><path stroke="var(--color-primary-600)" stroke-linecap="round" stroke-width="3" d="M358.199 299.866l5.455 4.288a4.46 4.46 0 005.513-7.014l-5.455-4.288"/><path fill="var(--color-primary-200)" d="M337.565 293.414l15.004-19.088 12.295 9.665a4.454 4.454 0 01.75 6.254l-9.5 12.085a4.453 4.453 0 01-6.254.75l-12.295-9.666z"/><path stroke="var(--color-primary-600)" stroke-linecap="round" stroke-width="3" d="M337.565 293.414l15.004-19.088 12.295 9.665a4.454 4.454 0 01.75 6.254l-9.5 12.085a4.453 4.453 0 01-6.254.75l-12.295-9.666z"/><path fill="var(--color-neutral-50)" d="M332.746 291.756l17.073-21.721a3.07 3.07 0 014.827 3.794l-17.073 21.721a3.07 3.07 0 11-4.827-3.794"/><path stroke="var(--color-primary-600)" stroke-linecap="round" stroke-width="2" d="M332.746 291.756l17.073-21.721a3.07 3.07 0 014.827 3.794l-17.073 21.721a3.07 3.07 0 11-4.827-3.794zM354.347 283.355l-7.588 9.654M357.948 286.187l-7.588 9.653"/><path stroke="var(--color-primary-600)" stroke-linecap="round" stroke-width="4" d="M272.927 311.803h23.698c5.548 0 10.046 4.498 10.046 10.046 0 5.549-4.498 10.047-10.046 10.047H179.289c-8.323 0-15.07 6.747-15.07 15.069 0 8.323 6.747 15.07 15.07 15.07h22.325a7.814 7.814 0 000-15.628h0a7.814 7.814 0 00-7.813 7.814v3.105c0 10.307 8.355 18.663 18.66 18.663h177.07c16.867 0 30.539-13.673 30.539-30.54v-4.131c0-16.866-13.672-30.538-30.54-30.538h-2.937a24.286 24.286 0 01-16.062-6.071"/><path stroke="var(--color-primary-200)" stroke-linecap="round" stroke-width="3.4" d="M314.589 254.702l5.106 5.414M337.345 244.988l2.396 7.046M303.559 276.85l6.894 2.805M337.345 244.988l2.396 7.046"/><path stroke="var(--color-primary-600)" stroke-linecap="round" stroke-linejoin="round" stroke-width="1.2" d="M252.938 86.653c-.3 4.84-5.195 9.472-11.943 10.89-7.676 1.613-14.836-1.542-15.993-7.047 0 0-1.3-5.139 2.667-6.315"/><g><path fill="none" d="M0 0h424v424H0z"/><path fill="none" d="M0 0h424v424H0z"/><path d="M0 0h424v424H0z"/></g></g></svg>