<svg id="error--unauthorized" xmlns="http://www.w3.org/2000/svg" viewBox="0 0 424 424"><g fill="none" fill-rule="evenodd"><path fill="var(--color-primary-100)" d="M326.326 347.944v-216.77C326.326 67.013 274.313 15 210.151 15c-64.16 0-116.175 52.013-116.175 116.174v216.77"/><path stroke="var(--color-primary-600)" stroke-linecap="round" stroke-width="4" d="M326.326 347.944v-216.77C326.326 67.013 274.313 15 210.151 15c-64.16 0-116.175 52.013-116.175 116.174v216.77"/><path fill="var(--color-primary-300)" d="M213.191 288.088h-4.29a2.854 2.854 0 01-2.856-2.854V97.269a2.855 2.855 0 012.855-2.855h4.291a2.854 2.854 0 012.854 2.855v187.965a2.854 2.854 0 01-2.854 2.854"/><path fill="var(--color-primary-100)" d="M211.012 277.553c-48.556 0-88.06-39.503-88.06-88.059 0-48.555 39.504-88.058 88.06-88.058 6.627 0 12 5.373 12 12s-5.373 12-12 12c-35.322 0-64.06 28.736-64.06 64.058 0 35.323 28.738 64.06 64.06 64.06 6.627 0 12 5.372 12 12 0 6.626-5.373 12-12 12"/><path stroke="var(--color-primary-300)" stroke-width="2" d="M211.012 277.553c-48.556 0-88.06-39.503-88.06-88.059 0-48.555 39.504-88.058 88.06-88.058 6.627 0 12 5.373 12 12s-5.373 12-12 12c-35.322 0-64.06 28.736-64.06 64.058 0 35.323 28.738 64.06 64.06 64.06 6.627 0 12 5.372 12 12 0 6.626-5.373 12-12 12z"/><path fill="var(--color-primary-200)" d="M294.186 347.925v-108l-108 108z"/><path stroke="var(--color-primary-300)" stroke-linecap="round" stroke-width="2" d="M317.72 169.042V130.24c0-59.41-48.16-107.57-107.568-107.57-59.41 0-107.57 48.16-107.57 107.57v217.703"/><path stroke="var(--color-primary-200)" stroke-linecap="round" stroke-width="2" d="M99.139 359.599h70.325M190.395 359.599h129.768"/><path fill="var(--color-neutral-50)" d="M290.172 143.658c0 9.146-7.413 16.559-16.558 16.559s-16.558-7.413-16.558-16.56c0-9.144 7.413-16.557 16.558-16.557s16.558 7.413 16.558 16.558"/><path stroke="var(--color-primary-300)" stroke-width="2" d="M290.172 143.658c0 9.146-7.413 16.559-16.558 16.559s-16.558-7.413-16.558-16.56c0-9.144 7.413-16.557 16.558-16.557s16.558 7.413 16.558 16.558z"/><path stroke="var(--color-primary-400)" stroke-width="5" d="M281.29 143.658a7.675 7.675 0 11-15.352 0 7.675 7.675 0 0115.351 0z"/><path fill="var(--color-primary-300)" d="M270.867 128.053l2.153 3.73a.427.427 0 00.74 0l2.153-3.73a.428.428 0 00-.37-.642h-4.305a.429.429 0 00-.371.642"/><path fill="var(--color-primary-200)" d="M268.016 137.237a.5.5 0 00-.707.707l1.48 1.48a.502.502 0 00.707 0 .502.502 0 000-.708l-1.48-1.479zM278.672 147.892a.5.5 0 00-.707.707l1.48 1.481a.502.502 0 00.707 0 .502.502 0 000-.708l-1.48-1.48zM268.79 147.892l-1.48 1.48a.502.502 0 00.353.854.502.502 0 00.353-.146l1.48-1.48a.5.5 0 00-.707-.708M278.318 139.57a.502.502 0 00.354-.146l1.48-1.48a.5.5 0 00-.707-.707l-1.48 1.479a.502.502 0 00.353.854M267.742 143.658a.5.5 0 00-.5-.5h-2.093a.5.5 0 000 1h2.093a.5.5 0 00.5-.5M282.312 143.158h-2.093a.5.5 0 100 1h2.093a.5.5 0 000-1M273.73 149.646a.5.5 0 00-.5.5v2.093a.5.5 0 001 0v-2.093a.5.5 0 00-.5-.5M273.73 134.577a.5.5 0 00-.5.5v2.093a.5.5 0 001 0v-2.093a.5.5 0 00-.5-.5"/><path fill="var(--color-neutral-50)" d="M279.093 171.532a5.48 5.48 0 00-5.786-5.471c-2.71.149-4.946 2.331-5.155 5.037a5.452 5.452 0 001.658 4.371c.7.675 1.065 1.626 1.065 2.598v2.474c0 1.459 1.101 2.733 2.557 2.827a2.74 2.74 0 002.922-2.733v-2.569c0-.988.393-1.937 1.098-2.63a5.447 5.447 0 001.641-3.904"/><path stroke="var(--color-primary-400)" stroke-linecap="round" stroke-width="2" d="M279.093 171.532a5.48 5.48 0 00-5.786-5.471c-2.71.149-4.946 2.331-5.155 5.037a5.452 5.452 0 001.658 4.371c.7.675 1.065 1.626 1.065 2.598v2.474c0 1.459 1.101 2.733 2.557 2.827a2.74 2.74 0 002.922-2.733v-2.569c0-.988.393-1.937 1.098-2.63a5.447 5.447 0 001.641-3.904z"/><path fill="var(--color-primary-200)" d="M273.614 174.719a3.105 3.105 0 01-3.095-3.096 3.104 3.104 0 013.095-3.094 3.104 3.104 0 013.096 3.094 3.105 3.105 0 01-3.096 3.096"/><path fill="var(--color-primary-600)" d="M273.614 173.653a.707.707 0 01-.707-.707v-2.651a.708.708 0 011.414 0v2.651a.706.706 0 01-.707.707"/><path fill="var(--color-neutral-50)" d="M122.49 204.664c-1.235 0-2.235-1-2.235-2.234v-24.945a2.234 2.234 0 114.468 0v24.945a2.234 2.234 0 01-2.234 2.234"/><path stroke="var(--color-primary-400)" stroke-linecap="round" stroke-width="2" d="M122.49 204.664h0c-1.235 0-2.235-1-2.235-2.234v-24.945a2.234 2.234 0 114.468 0v24.945a2.234 2.234 0 01-2.234 2.234z"/><path fill="var(--color-neutral-50)" d="M240.588 204.635H124.906V168.11h115.682a5.14 5.14 0 015.141 5.14v26.243a5.141 5.141 0 01-5.14 5.14"/><path stroke="var(--color-primary-400)" stroke-linecap="round" stroke-width="2" d="M240.588 204.635H124.906V168.11h115.682a5.14 5.14 0 015.141 5.14v26.243a5.141 5.141 0 01-5.14 5.14z"/><path stroke="var(--color-primary-200)" stroke-linecap="round" stroke-width="2" d="M131.604 175.902H238.49c1.326 0 2.402 1.141 2.402 2.547v16.231c0 1.408-1.076 2.547-2.402 2.547H131.604"/><path fill="var(--color-primary-300)" d="M185.372 219.59h-46.698v-7.572h41.256zM185.372 235.032h-46.698v-7.572h41.256zM185.372 160.205h-46.698v7.57h41.256z"/><path fill="var(--color-neutral-50)" d="M246.9 175.289c7.757 19.79-1.998 42.124-21.789 49.88-19.79 7.759-42.123-1.996-49.88-21.787-7.758-19.791 1.997-42.124 21.788-49.881 19.791-7.758 42.123 1.997 49.881 21.788"/><path stroke="var(--color-primary-400)" stroke-linecap="round" stroke-width="4" d="M246.9 175.289c7.757 19.79-1.998 42.124-21.789 49.88-19.79 7.759-42.123-1.996-49.88-21.787-7.758-19.791 1.997-42.124 21.788-49.881 19.791-7.758 42.123 1.997 49.881 21.788z"/><path stroke="var(--color-primary-400)" stroke-linecap="round" stroke-width="2" d="M231.807 181.206c4.49 11.454-1.156 24.38-12.611 28.87-11.455 4.49-24.381-1.156-28.871-12.611-4.49-11.454 1.156-24.38 12.61-28.87 11.456-4.491 24.382 1.156 28.872 12.61z"/><path fill="var(--color-primary-100)" d="M182.107 123.824l4.953-1.941a4.038 4.038 0 015.233 2.286l20.728 52.882-12.472 4.888-20.728-52.882a4.038 4.038 0 012.286-5.233"/><path stroke="var(--color-primary-400)" stroke-linecap="round" stroke-width="3" d="M182.107 123.824l4.953-1.941a4.038 4.038 0 015.233 2.286l20.728 52.882-12.472 4.888-20.728-52.882a4.038 4.038 0 012.286-5.233z"/><path fill="var(--color-primary-100)" d="M176.273 254.08l-4.555-2.747a4.037 4.037 0 01-1.373-5.543l29.327-48.642 11.471 6.916-29.328 48.643a4.039 4.039 0 01-5.542 1.373"/><path stroke="var(--color-primary-400)" stroke-linecap="round" stroke-width="3" d="M176.273 254.08l-4.555-2.747a4.037 4.037 0 01-1.373-5.543l29.327-48.642 11.471 6.916-29.328 48.643a4.039 4.039 0 01-5.542 1.373z"/><path fill="var(--color-neutral-50)" d="M280.671 213.158l1.476-5.11a4.039 4.039 0 00-2.76-5l-54.57-15.756-3.715 12.869 54.57 15.757a4.039 4.039 0 005-2.76"/><path stroke="var(--color-primary-400)" stroke-linecap="round" stroke-width="3" d="M280.671 213.158l1.476-5.11a4.039 4.039 0 00-2.76-5l-54.57-15.756-3.715 12.869 54.57 15.757a4.039 4.039 0 005-2.76z"/><path fill="var(--color-neutral-50)" d="M224.243 185.03c2.798 7.14-.721 15.195-7.86 17.994-7.14 2.798-15.195-.721-17.994-7.86-2.798-7.14.72-15.196 7.86-17.993 7.14-2.799 15.196.719 17.994 7.859"/><path stroke="var(--color-primary-600)" stroke-linecap="round" stroke-width="3" d="M224.243 185.03c2.798 7.14-.721 15.195-7.86 17.994-7.14 2.798-15.195-.721-17.994-7.86-2.798-7.14.72-15.196 7.86-17.993 7.14-2.799 15.196.719 17.994 7.859z"/><path stroke="var(--color-primary-300)" stroke-linecap="round" d="M220.148 186.636c1.912 4.876-.493 10.38-5.37 12.293a9.485 9.485 0 01-12.293-5.37c-1.913-4.877.492-10.381 5.37-12.293 4.877-1.911 10.38.492 12.293 5.37z"/><path stroke="var(--color-primary-400)" stroke-linecap="round" stroke-width="4" d="M273.564 238.898v6.144M273.564 279.456v6.144"/><path fill="var(--color-primary-100)" d="M279.236 233.225a5.673 5.673 0 11-11.346 0 5.673 5.673 0 0111.346 0"/><path stroke="var(--color-primary-400)" stroke-linecap="round" stroke-width="2" d="M279.236 233.225a5.673 5.673 0 11-11.346 0 5.673 5.673 0 0111.346 0z"/><path fill="var(--color-primary-100)" d="M268.701 278.47h9.725a.914.914 0 00.914-.916V247.33a.915.915 0 00-.914-.915h-9.725a.915.915 0 00-.915.915v30.225c0 .506.41.915.915.915"/><path stroke="var(--color-primary-400)" stroke-linecap="round" stroke-width="2" d="M268.701 278.47h9.725a.914.914 0 00.914-.916V247.33a.915.915 0 00-.914-.915h-9.725a.915.915 0 00-.915.915v30.225c0 .506.41.915.915.915z"/><path fill="var(--color-primary-100)" d="M279.236 292.76a5.672 5.672 0 11-11.344 0 5.672 5.672 0 0111.344 0"/><path stroke="var(--color-primary-400)" stroke-linecap="round" stroke-width="2" d="M279.236 292.76a5.672 5.672 0 11-11.344 0 5.672 5.672 0 0111.344 0z"/><path fill="var(--color-primary-400)" d="M289.693 248.204a2.462 2.462 0 11-4.924 0 2.462 2.462 0 014.924 0M289.693 261.065a2.462 2.462 0 11-4.924-.002 2.462 2.462 0 014.924.002M289.693 274.925a2.461 2.461 0 11-4.923 0 2.461 2.461 0 014.923 0"/><path stroke="var(--color-primary-400)" stroke-linecap="round" stroke-width="2" d="M268.65 252.251h9.418M268.65 272.53h9.418"/><path stroke="var(--color-primary-200)" stroke-width="2" d="M217.468 113.693a6.513 6.513 0 11-13.025-.001 6.513 6.513 0 0113.025.001zM217.468 266.25a6.512 6.512 0 11-13.024 0 6.512 6.512 0 0113.024 0z"/><path fill="var(--color-primary-200)" d="M201.586 108.367a2.105 2.105 0 11-4.21 0 2.105 2.105 0 014.21 0M201.586 120.018a2.106 2.106 0 11-4.212 0 2.106 2.106 0 014.212 0M201.586 259.808a2.105 2.105 0 11-4.21 0 2.105 2.105 0 014.21 0M201.586 271.46a2.106 2.106 0 11-4.212 0 2.106 2.106 0 014.212 0"/><path fill="var(--color-neutral-50)" d="M125.575 346.995V134.13c0-46.636 37.941-84.576 84.576-84.576 46.635 0 84.576 37.94 84.576 84.576v212.864h10V134.13c0-52.15-42.426-94.576-94.576-94.576-52.149 0-94.576 42.426-94.576 94.576v212.864h10z"/><path stroke="var(--color-primary-600)" stroke-linecap="round" stroke-width="2" d="M299.728 347.944V134.131c0-49.472-40.105-89.577-89.576-89.577-49.472 0-89.576 40.105-89.576 89.577v214.352"/><path fill="var(--color-neutral-50)" d="M120.947 325.553a3.668 3.668 0 01-3.668-3.668V296.29a3.668 3.668 0 017.336 0v25.595a3.669 3.669 0 01-3.668 3.668"/><path stroke="var(--color-primary-400)" stroke-linecap="round" stroke-width="2" d="M120.947 325.553h0a3.668 3.668 0 01-3.668-3.668V296.29a3.668 3.668 0 017.336 0v25.595a3.669 3.669 0 01-3.668 3.668zM123.721 299.623h-6.442M123.721 318.971h-6.442"/><path fill="var(--color-neutral-50)" d="M141.532 318.879h-16.998v-19.256h16.998a1.7 1.7 0 011.7 1.7v15.856a1.7 1.7 0 01-1.7 1.7"/><path stroke="var(--color-primary-400)" stroke-linecap="round" stroke-width="2" d="M141.532 318.879h-16.998v-19.256h16.998a1.7 1.7 0 011.7 1.7v15.856a1.7 1.7 0 01-1.7 1.7z"/><path fill="var(--color-primary-400)" d="M139.418 304.832a1.488 1.488 0 11-2.975 0 1.488 1.488 0 012.975 0M139.418 313.576a1.488 1.488 0 11-2.975 0 1.488 1.488 0 012.975 0"/><path fill="var(--color-neutral-50)" d="M120.947 158.414a3.668 3.668 0 01-3.668-3.668V129.15a3.668 3.668 0 117.336 0v25.595a3.669 3.669 0 01-3.668 3.668"/><path stroke="var(--color-primary-400)" stroke-linecap="round" stroke-width="2" d="M120.947 158.414h0a3.668 3.668 0 01-3.668-3.668V129.15a3.668 3.668 0 117.336 0v25.595a3.669 3.669 0 01-3.668 3.668zM123.721 132.484h-6.442M123.721 151.833h-6.442"/><path fill="var(--color-neutral-50)" d="M141.532 151.739h-16.998v-19.255h16.998a1.7 1.7 0 011.7 1.699v15.857a1.7 1.7 0 01-1.7 1.699"/><path stroke="var(--color-primary-400)" stroke-linecap="round" stroke-width="2" d="M141.532 151.739h-16.998v-19.255h16.998a1.7 1.7 0 011.7 1.699v15.857a1.7 1.7 0 01-1.7 1.699z"/><path fill="var(--color-primary-400)" d="M139.418 137.693a1.488 1.488 0 11-2.975 0 1.488 1.488 0 012.975 0M139.418 146.437a1.488 1.488 0 11-2.975 0 1.488 1.488 0 012.975 0"/><path fill="var(--color-neutral-50)" d="M121.915 240.27h15.473a.914.914 0 00.914-.916v-78.049a.915.915 0 00-.914-.915h-15.473a.915.915 0 00-.915.915v78.05c0 .505.41.914.915.914"/><path stroke="var(--color-primary-400)" stroke-linecap="round" stroke-width="2" d="M121.915 240.27h15.473a.914.914 0 00.914-.916v-78.049a.915.915 0 00-.914-.915h-15.473a.915.915 0 00-.915.915v78.05c0 .505.41.914.915.914z"/><path stroke="var(--color-primary-300)" stroke-linecap="round" stroke-width="2" d="M133.209 171.367a3.721 3.721 0 11-7.443.001 3.721 3.721 0 017.443-.001zM133.209 185.941a3.721 3.721 0 11-7.442 0 3.721 3.721 0 017.442 0zM133.209 200.514a3.721 3.721 0 11-7.442 0 3.721 3.721 0 017.442 0zM133.209 215.088a3.721 3.721 0 11-7.443.001 3.721 3.721 0 017.443-.001zM133.209 229.475a3.721 3.721 0 11-7.443.002 3.721 3.721 0 017.443-.002z"/><path fill="var(--color-primary-100)" d="M216.92 95.344h-11.237a1.637 1.637 0 01-1.637-1.636v-29.12h14.512v29.12c0 .904-.733 1.637-1.637 1.637"/><path stroke="var(--color-primary-300)" stroke-linecap="round" stroke-width="2" d="M216.92 95.344h-11.237a1.637 1.637 0 01-1.637-1.636v-29.12h14.512v29.12c0 .904-.733 1.637-1.637 1.637z"/><path fill="var(--color-primary-100)" d="M205.683 286.667h11.238c.904 0 1.637.732 1.637 1.637v40.135h-14.512v-40.135c0-.905.733-1.637 1.637-1.637"/><path stroke="var(--color-primary-300)" stroke-linecap="round" stroke-width="2" d="M205.683 286.667h11.238c.904 0 1.637.732 1.637 1.637v40.135h-14.512v-40.135c0-.905.733-1.637 1.637-1.637z"/><path fill="var(--color-neutral-50)" d="M242.987 251.312h-2.96a1.124 1.124 0 01-1.123-1.124v-2.959c0-.62.503-1.124 1.124-1.124h2.959c.62 0 1.124.503 1.124 1.124v2.96c0 .62-.503 1.123-1.124 1.123"/><path stroke="var(--color-primary-300)" d="M242.987 251.312h-2.96a1.124 1.124 0 01-1.123-1.124v-2.959c0-.62.503-1.124 1.124-1.124h2.959c.62 0 1.124.503 1.124 1.124v2.96c0 .62-.503 1.123-1.124 1.123z"/><path fill="var(--color-neutral-50)" d="M251.408 251.312h-2.96a1.124 1.124 0 01-1.123-1.124v-2.959c0-.62.503-1.124 1.124-1.124h2.959c.62 0 1.124.503 1.124 1.124v2.96c0 .62-.503 1.123-1.124 1.123"/><path stroke="var(--color-primary-300)" d="M251.408 251.312h-2.96a1.124 1.124 0 01-1.123-1.124v-2.959c0-.62.503-1.124 1.124-1.124h2.959c.62 0 1.124.503 1.124 1.124v2.96c0 .62-.503 1.123-1.124 1.123z"/><path fill="var(--color-neutral-50)" d="M259.83 251.312h-2.96a1.124 1.124 0 01-1.124-1.124v-2.959c0-.62.503-1.124 1.124-1.124h2.96c.62 0 1.123.503 1.123 1.124v2.96c0 .62-.503 1.123-1.124 1.123"/><path stroke="var(--color-primary-300)" d="M259.83 251.312h-2.96a1.124 1.124 0 01-1.124-1.124v-2.959c0-.62.503-1.124 1.124-1.124h2.96c.62 0 1.123.503 1.123 1.124v2.96c0 .62-.503 1.123-1.124 1.123z"/><path fill="var(--color-neutral-50)" d="M242.987 259.562h-2.96a1.124 1.124 0 01-1.123-1.124v-2.959c0-.62.503-1.124 1.124-1.124h2.959c.62 0 1.124.503 1.124 1.124v2.96c0 .62-.503 1.123-1.124 1.123"/><path stroke="var(--color-primary-300)" d="M242.987 259.562h-2.96a1.124 1.124 0 01-1.123-1.124v-2.959c0-.62.503-1.124 1.124-1.124h2.959c.62 0 1.124.503 1.124 1.124v2.96c0 .62-.503 1.123-1.124 1.123z"/><path fill="var(--color-neutral-50)" d="M251.408 259.562h-2.96a1.124 1.124 0 01-1.123-1.124v-2.959c0-.62.503-1.124 1.124-1.124h2.959c.62 0 1.124.503 1.124 1.124v2.96c0 .62-.503 1.123-1.124 1.123"/><path stroke="var(--color-primary-300)" d="M251.408 259.562h-2.96a1.124 1.124 0 01-1.123-1.124v-2.959c0-.62.503-1.124 1.124-1.124h2.959c.62 0 1.124.503 1.124 1.124v2.96c0 .62-.503 1.123-1.124 1.123z"/><path fill="var(--color-neutral-50)" d="M259.83 259.562h-2.96a1.124 1.124 0 01-1.124-1.124v-2.959c0-.62.503-1.124 1.124-1.124h2.96c.62 0 1.123.503 1.123 1.124v2.96c0 .62-.503 1.123-1.124 1.123"/><path stroke="var(--color-primary-300)" d="M259.83 259.562h-2.96a1.124 1.124 0 01-1.124-1.124v-2.959c0-.62.503-1.124 1.124-1.124h2.96c.62 0 1.123.503 1.123 1.124v2.96c0 .62-.503 1.123-1.124 1.123z"/><path fill="var(--color-neutral-50)" d="M242.987 267.627h-2.96a1.124 1.124 0 01-1.123-1.124v-2.96c0-.62.503-1.123 1.124-1.123h2.959c.62 0 1.124.503 1.124 1.124v2.959c0 .62-.503 1.124-1.124 1.124"/><path stroke="var(--color-primary-300)" d="M242.987 267.627h-2.96a1.124 1.124 0 01-1.123-1.124v-2.96c0-.62.503-1.123 1.124-1.123h2.959c.62 0 1.124.503 1.124 1.124v2.959c0 .62-.503 1.124-1.124 1.124z"/><path fill="var(--color-neutral-50)" d="M251.408 267.627h-2.96a1.124 1.124 0 01-1.123-1.124v-2.96c0-.62.503-1.123 1.124-1.123h2.959c.62 0 1.124.503 1.124 1.124v2.959c0 .62-.503 1.124-1.124 1.124"/><path stroke="var(--color-primary-300)" d="M251.408 267.627h-2.96a1.124 1.124 0 01-1.123-1.124v-2.96c0-.62.503-1.123 1.124-1.123h2.959c.62 0 1.124.503 1.124 1.124v2.959c0 .62-.503 1.124-1.124 1.124z"/><path fill="var(--color-neutral-50)" d="M259.83 267.627h-2.96a1.124 1.124 0 01-1.124-1.124v-2.96c0-.62.503-1.123 1.124-1.123h2.96c.62 0 1.123.503 1.123 1.124v2.959c0 .62-.503 1.124-1.124 1.124"/><path stroke="var(--color-primary-300)" d="M259.83 267.627h-2.96a1.124 1.124 0 01-1.124-1.124v-2.96c0-.62.503-1.123 1.124-1.123h2.96c.62 0 1.123.503 1.123 1.124v2.959c0 .62-.503 1.124-1.124 1.124z"/><path stroke="var(--color-primary-600)" stroke-linecap="round" stroke-width="4" d="M20 349.042h383.441"/><path fill="var(--color-neutral-50)" d="M220.86 45.67v16.998a1.7 1.7 0 01-1.7 1.7h-15.856a1.7 1.7 0 01-1.7-1.7V45.67"/><path stroke="var(--color-primary-400)" stroke-linecap="round" stroke-width="2" d="M220.86 45.67v16.998a1.7 1.7 0 01-1.7 1.7h-15.856a1.7 1.7 0 01-1.7-1.7V45.67"/><path fill="var(--color-primary-400)" d="M215.65 60.553a1.488 1.488 0 110-2.975 1.488 1.488 0 010 2.975M206.906 60.553a1.488 1.488 0 110-2.975 1.488 1.488 0 010 2.975"/><path fill="var(--color-neutral-50)" d="M201.232 347.367v-16.998c0-.94.761-1.7 1.7-1.7h15.856c.939 0 1.7.76 1.7 1.7v16.998"/><path stroke="var(--color-primary-400)" stroke-linecap="round" stroke-width="2" d="M201.232 347.367v-16.998c0-.94.761-1.7 1.7-1.7h15.856c.939 0 1.7.76 1.7 1.7v16.998"/><path fill="var(--color-primary-400)" d="M206.441 332.483a1.488 1.488 0 110 2.976 1.488 1.488 0 010-2.976M215.186 332.483a1.488 1.488 0 110 2.976 1.488 1.488 0 010-2.976"/><path fill="var(--color-primary-100)" d="M204.07 69.972h13.673"/><path stroke="var(--color-primary-300)" stroke-linecap="round" stroke-width="2" d="M204.07 69.972h13.673"/><path fill="var(--color-primary-100)" d="M204.07 90.344h13.673"/><path stroke="var(--color-primary-300)" stroke-linecap="round" stroke-width="2" d="M204.07 90.344h13.673"/><path fill="var(--color-primary-100)" d="M204.07 293.227h13.673"/><path stroke="var(--color-primary-300)" stroke-linecap="round" stroke-width="2" d="M204.07 293.227h13.673"/><path fill="var(--color-primary-100)" d="M204.07 322.158h13.673"/><path stroke="var(--color-primary-300)" stroke-linecap="round" stroke-width="2" d="M204.07 322.158h13.673"/><path stroke="var(--color-primary-200)" stroke-width="2" d="M188.579 308.324a9.567 9.567 0 01-9.567 9.567 9.567 9.567 0 01-9.567-9.567c0-5.283 4.283-9.567 9.567-9.567s9.567 4.284 9.567 9.567z"/><path fill="var(--color-primary-100)" d="M202.697 304.06h-23.219a4.264 4.264 0 100 8.53h23.22"/><path stroke="var(--color-primary-200)" stroke-width="2" d="M202.697 304.06h-23.219a4.264 4.264 0 100 8.53h23.22M174.232 299.925v-4.547a1.85 1.85 0 011.851-1.849h4.95a1.85 1.85 0 011.85 1.85v4.546M170.756 313.052h-4.546a1.85 1.85 0 01-1.85-1.85v-4.95a1.85 1.85 0 011.85-1.85h4.546M182.883 316.529v4.546c0 1.021-.829 1.85-1.85 1.85h-4.95a1.85 1.85 0 01-1.85-1.85v-4.546M188.579 81.028c0 5.283-4.283 9.567-9.567 9.567s-9.567-4.284-9.567-9.567a9.567 9.567 0 019.567-9.567 9.567 9.567 0 019.567 9.567z"/><path fill="var(--color-primary-100)" d="M202.697 76.762h-23.219a4.265 4.265 0 000 8.53h23.22"/><path stroke="var(--color-primary-200)" stroke-width="2" d="M202.697 76.762h-23.219a4.265 4.265 0 000 8.53h23.22M174.232 72.629v-4.546c0-1.021.829-1.85 1.851-1.85h4.95a1.85 1.85 0 011.85 1.85v4.546M170.756 85.757h-4.546a1.85 1.85 0 01-1.85-1.851v-4.95a1.85 1.85 0 011.85-1.85h4.546M182.883 89.232v4.546a1.85 1.85 0 01-1.85 1.85h-4.95a1.85 1.85 0 01-1.85-1.85v-4.546"/><path stroke="var(--color-primary-600)" stroke-linecap="round" stroke-width="4" d="M321.065 199.058l-4.072-9.975a7.225 7.225 0 013.959-9.419h0a7.225 7.225 0 019.42 3.958l4.07 9.975"/><path fill="var(--color-neutral-50)" d="M321.714 184.018c-2.026 0-3.668-1.358-3.668-3.034v-12.071c0-1.676 1.642-3.035 3.668-3.035 2.025 0 3.668 1.36 3.668 3.035v12.071c0 1.676-1.643 3.034-3.668 3.034"/><path stroke="var(--color-primary-400)" stroke-linecap="round" stroke-width="2" d="M321.714 184.018h0c-2.026 0-3.668-1.358-3.668-3.034v-12.071c0-1.676 1.642-3.035 3.668-3.035 2.025 0 3.668 1.36 3.668 3.035v12.071c0 1.676-1.643 3.034-3.668 3.034z"/><path stroke="var(--color-primary-400)" stroke-linecap="round" stroke-width="3" d="M310.617 233.256l1.508-10.667a7.225 7.225 0 1114.308 2.023l-1.508 10.667"/><path fill="var(--color-primary-300)" d="M348.234 211.209L323.07 221.48a1.375 1.375 0 01-1.794-.753l-2.601-6.372-5.526-13.538a1.376 1.376 0 01.754-1.794l25.164-10.272a1.377 1.377 0 011.794.754l8.127 19.909a1.376 1.376 0 01-.754 1.794"/><path stroke="var(--color-primary-600)" stroke-linecap="round" stroke-width="2" d="M348.234 211.209L323.07 221.48a1.375 1.375 0 01-1.794-.753l-2.601-6.372-5.526-13.538a1.376 1.376 0 01.754-1.794l25.164-10.272a1.377 1.377 0 011.794.754l8.127 19.909a1.376 1.376 0 01-.754 1.794zM347.177 206.345l-26.757 10.923"/><path fill="var(--color-primary-100)" d="M337.581 199.564c.854 2.093-1.822 5.165-5.979 6.861-4.155 1.698-8.217 1.376-9.072-.716-.854-2.093 1.823-5.166 5.98-6.862 4.155-1.697 8.217-1.376 9.071.717"/><path stroke="var(--color-primary-600)" stroke-width="2" d="M337.581 199.564c.854 2.093-1.822 5.165-5.979 6.861-4.155 1.698-8.217 1.376-9.072-.716-.854-2.093 1.823-5.166 5.98-6.862 4.155-1.697 8.217-1.376 9.071.717z"/><path stroke="var(--color-primary-300)" stroke-linecap="round" stroke-width="2" d="M317.65 255.274v91.093"/><path fill="var(--color-neutral-50)" d="M321.43 256.04l-11.196-1.38a6.942 6.942 0 01-6.04-7.74l1.15-9.336a4.043 4.043 0 014.506-3.518l16.952 2.089a4.043 4.043 0 013.518 4.507l-1.15 9.337a6.942 6.942 0 01-7.74 6.04"/><path stroke="var(--color-primary-400)" stroke-linecap="round" stroke-width="2" d="M321.43 256.04l-11.196-1.38a6.942 6.942 0 01-6.04-7.74l1.15-9.336a4.043 4.043 0 014.506-3.518l16.952 2.089a4.043 4.043 0 013.518 4.507l-1.15 9.337a6.942 6.942 0 01-7.74 6.04z"/><path fill="var(--color-primary-400)" d="M320.326 242.57a2.913 2.913 0 00-3.068-3.263c-1.231.067-2.324.97-2.633 2.163a2.9 2.9 0 001.544 3.348l-.533 4.33a.94.94 0 001.868.23l.534-4.33a2.9 2.9 0 002.288-2.479"/><path stroke="var(--color-primary-300)" stroke-width="2" d="M62.144 377.21l-1.54-.227a2.243 2.243 0 00-2.62 1.786l-1.307 6.89a2.243 2.243 0 001.785 2.62l1.538.228"/><path fill="var(--color-neutral-50)" d="M73.481 379.745l-2.144 11.296 63.609 12.07a2.995 2.995 0 003.501-2.384l1.027-5.411a2.995 2.995 0 00-2.384-3.501l-63.609-12.07z"/><path stroke="var(--color-primary-400)" stroke-width="2" d="M73.481 379.745l-2.144 11.296 63.609 12.07a2.995 2.995 0 003.501-2.384l1.027-5.411a2.995 2.995 0 00-2.384-3.501l-63.609-12.07z"/><path fill="var(--color-primary-100)" d="M64.66 371.071l-5.35 28.192c-.128.678.316 1.33.994 1.459l11.4 2.163a1.247 1.247 0 001.46-.993l7.583-39.96a.643.643 0 00-.942-.683l-13.337 7.331a3.61 3.61 0 00-1.808 2.491"/><path stroke="var(--color-primary-600)" stroke-width="3" d="M64.66 371.071l-5.35 28.192c-.128.678.316 1.33.994 1.459l11.4 2.163a1.247 1.247 0 001.46-.993l7.583-39.96a.643.643 0 00-.942-.683l-13.337 7.331a3.61 3.61 0 00-1.808 2.491z"/><path stroke="var(--color-primary-600)" stroke-width="2" d="M59.903 395.14l13.854 2.629"/><g><path fill="none" d="M0 0h424v424H0z"/><path fill="none" d="M0 0h424v424H0z"/><path d="M0 0h424v424H0z"/></g></g></svg>