<svg id="error--forbidden--small" xmlns="http://www.w3.org/2000/svg" xlink="http://www.w3.org/1999/xlink" viewBox="0 0 224 224"><defs><path id="a" d="M0 175.533h188.647V0H0z"/></defs><g fill="none" fill-rule="evenodd"><g transform="translate(17 19)"><path fill="var(--color-primary-50)" d="M129.315 132.164v-83.59c0-19.341-15.679-35.02-35.02-35.02-19.34 0-35.019 15.679-35.019 35.02v83.59"/><path stroke="var(--color-primary-50)" d="M129.315 132.164v-83.59c0-19.341-15.679-35.02-35.02-35.02-19.34 0-35.019 15.679-35.019 35.02v83.59"/><path fill="var(--color-primary-200)" d="M118.469 41.83c1.325-.874 2.974-1.962 2.974-4.146 0-2.183-1.65-3.271-2.974-4.145-1.333-.88-2.15-1.475-2.15-2.611 0-1.138.817-1.734 2.15-2.613.73-.481 1.557-1.03 2.153-1.79.407-.517.322-1.27-.156-1.721l-.842-.797-.021.01c.075 1.239-.754 1.848-2.145 2.765-1.325.874-2.974 1.962-2.974 4.146 0 2.182 1.649 3.27 2.974 4.144 1.333.878 2.149 1.475 2.149 2.612 0 1.138-.816 1.734-2.15 2.613-1.324.874-2.973 1.96-2.973 4.145 0 2.184 1.649 3.27 2.974 4.145 1.333.879 2.149 1.474 2.149 2.612 0 1.138-.816 1.735-2.15 2.612-1.324.874-2.973 1.962-2.973 4.146s1.649 3.27 2.974 4.145c1.333.879 2.149 1.476 2.149 2.614 0 1.137-.817 1.734-2.15 2.613l-.36.238c-.396.267-.57.79-.35 1.213a.919.919 0 001.33.34l.39-.258c1.326-.874 2.976-1.962 2.976-4.146 0-2.185-1.65-3.273-2.974-4.147-1.333-.878-2.15-1.474-2.15-2.612 0-1.138.817-1.733 2.15-2.612 1.325-.874 2.974-1.962 2.974-4.146 0-2.183-1.65-3.27-2.974-4.144-1.333-.88-2.15-1.476-2.15-2.613s.817-1.734 2.15-2.612"/><path fill="var(--color-neutral-50)" d="M93.372 34.625V13.479"/><path stroke="var(--color-primary-200)" stroke-width="2.5" d="M93.372 34.625V13.479"/><path stroke="var(--color-primary-200)" stroke-linecap="round" stroke-width="2.5" d="M129.315 132.164v-83.59c0-19.341-15.679-35.02-35.02-35.02-19.34 0-35.019 15.679-35.019 35.02v83.59"/><path stroke="var(--color-primary-200)" stroke-linecap="round" stroke-width="4" d="M139.714 132.164V47.419c0-25.084-20.334-45.42-45.418-45.42S48.877 22.336 48.877 47.42v84.745"/><path stroke="var(--color-primary-200)" stroke-linecap="round" stroke-width="2.5" d="M38.23 133.709h112.186"/><path fill="var(--color-primary-100)" d="M79.072 55.77c1.414-.933 3.174-2.093 3.174-4.423s-1.76-3.49-3.174-4.423c-1.422-.937-2.293-1.574-2.293-2.787 0-1.214.87-1.849 2.293-2.787.779-.514 1.662-1.099 2.298-1.909.433-.554.343-1.356-.168-1.839l-.898-.85c-.017.01-.005.003-.023.012.08 1.321-.803 1.972-2.288 2.95-1.414.933-3.173 2.093-3.173 4.423s1.759 3.49 3.173 4.423c1.422.938 2.294 1.573 2.294 2.787s-.872 1.85-2.294 2.787c-1.414.933-3.173 2.094-3.173 4.424 0 2.33 1.759 3.49 3.173 4.423 1.422.937 2.294 1.573 2.294 2.787s-.872 1.851-2.294 2.788c-1.414.933-3.173 2.093-3.173 4.423s1.759 3.491 3.173 4.424c1.422.937 2.294 1.574 2.294 2.788 0 1.215-.872 1.85-2.295 2.79-.128.083-.256.168-.383.253-.423.284-.608.843-.373 1.294a.98.98 0 001.418.364c.138-.093.277-.185.417-.276 1.414-.933 3.175-2.094 3.175-4.425 0-2.33-1.76-3.49-3.174-4.424-1.422-.937-2.293-1.574-2.293-2.788 0-1.214.87-1.85 2.293-2.787 1.414-.933 3.174-2.093 3.174-4.424 0-2.33-1.76-3.49-3.174-4.423-1.422-.937-2.293-1.573-2.293-2.787s.87-1.85 2.293-2.788"/><path fill="var(--color-neutral-50)" d="M110.407 48.533c0 9.338-7.57 16.908-16.907 16.908-9.338 0-16.907-7.57-16.907-16.908 0-9.338 7.569-16.907 16.906-16.907 9.339 0 16.909 7.569 16.909 16.907"/><path stroke="var(--color-primary-200)" stroke-width="1.5" d="M93.243 32.394v33.047"/><path stroke="var(--color-primary-100)" stroke-width="1.5" d="M95.068 31.369c3.75 0 6.789 7.57 6.789 16.908 0 9.338-3.04 16.907-6.79 16.907"/><path stroke="var(--color-primary-100)" stroke-width="1.5" d="M109.235 53.057c0 2.547-7.063 4.612-15.776 4.612-8.713 0-15.776-2.064-15.776-4.611"/><path stroke="var(--color-primary-100)" stroke-width="1.5" d="M91.41 31.369c-3.75 0-6.79 7.57-6.79 16.908 0 9.338 3.04 16.907 6.79 16.907M93.243 32.394v33.047"/><path fill="var(--color-primary-200)" d="M68.758 59.47c-.463 1.147-1.379 2.04-2.51 2.44 1.131.4 2.047 1.293 2.51 2.44.462-1.147 1.38-2.04 2.511-2.44-1.132-.4-2.049-1.293-2.51-2.44"/><path fill="var(--color-neutral-50)" d="M98.03 71.894c-.747 1.852-2.226 3.294-4.054 3.94 1.828.645 3.307 2.087 4.054 3.94.747-1.853 2.226-3.295 4.053-3.94-1.827-.646-3.306-2.088-4.053-3.94"/><path fill="var(--color-primary-200)" d="M105.633 21.607c-.814 2.02-2.426 3.591-4.418 4.294 1.992.704 3.604 2.276 4.418 4.295.814-2.019 2.426-3.59 4.418-4.295-1.992-.703-3.604-2.275-4.418-4.294"/><path stroke="var(--color-primary-200)" stroke-linecap="round" stroke-width="2" d="M68.962 30.83c1.002.905 2.353 1.536 2.353 3.235 0 2.703-3.416 2.703-3.416 5.407 0 2.703 3.416 2.703 3.416 5.406s-3.416 2.703-3.416 5.407c0 1.317.81 1.992 1.643 2.65"/><path fill="var(--color-primary-200)" d="M85.634 25.922a2.827 2.827 0 01-1.158 1.833 2.837 2.837 0 01-3.948-.683.59.59 0 11.964-.68 1.655 1.655 0 002.305.398 1.656 1.656 0 00.398-2.304.59.59 0 11.964-.68c.45.638.6 1.4.475 2.116"/><path stroke="var(--color-primary-200)" stroke-width="2" d="M107.132 73.03a2.381 2.381 0 112.153-4.248 2.381 2.381 0 01-2.153 4.248z"/><path stroke="var(--color-primary-100)" stroke-width="1.5" d="M110.088 45.972c0 2.548-7.57 4.614-16.908 4.614-9.338 0-16.907-2.066-16.907-4.614M107.513 40.821c-2.612 1.493-7.925 2.516-14.055 2.516-5.897 0-11.037-.947-13.745-2.348"/><path stroke="var(--color-primary-200)" stroke-width="2.5" d="M110.407 48.533c0 9.338-7.57 16.908-16.907 16.908-9.338 0-16.907-7.57-16.907-16.908 0-9.338 7.569-16.907 16.906-16.907 9.339 0 16.909 7.569 16.909 16.907z"/><path fill="var(--color-primary-400)" d="M139.862 74.231c0 .046.005.091.005.138 0 18.035-20.506 32.707-45.713 32.707-25.205 0-45.71-14.672-45.71-32.707 0-.047.003-.092.003-.138h-13c0 .046-.004.091-.004.138 0 25.203 26.337 45.707 58.711 45.707 32.375 0 58.713-20.504 58.713-45.707 0-.047-.005-.092-.005-.138h-13z"/><path stroke="var(--color-primary-600)" stroke-width="2" d="M139.862 74.231c0 .046.005.091.005.138 0 18.035-20.506 32.707-45.713 32.707-25.205 0-45.71-14.672-45.71-32.707 0-.047.003-.092.003-.138h-13c0 .046-.004.091-.004.138 0 25.203 26.337 45.707 58.711 45.707 32.375 0 58.713-20.504 58.713-45.707 0-.047-.005-.092-.005-.138h-13z"/><path fill="var(--color-primary-50)" d="M152.823 74.102h-12.485a1.11 1.11 0 01-1.11-1.11v-6.417c0-.614.496-1.112 1.11-1.112h12.485c.614 0 1.111.498 1.111 1.112v6.416a1.11 1.11 0 01-1.11 1.111"/><path stroke="var(--color-primary-500)" stroke-linecap="round" stroke-width="3" d="M152.823 74.102h-12.485a1.11 1.11 0 01-1.11-1.11v-6.417c0-.614.496-1.112 1.11-1.112h12.485c.614 0 1.111.498 1.111 1.112v6.416a1.11 1.11 0 01-1.11 1.111z"/><path fill="var(--color-primary-50)" d="M48.172 74.102H35.687a1.111 1.111 0 01-1.112-1.11v-6.417c0-.614.498-1.112 1.112-1.112h12.485c.614 0 1.111.498 1.111 1.112v6.416a1.11 1.11 0 01-1.11 1.111"/><path stroke="var(--color-primary-500)" stroke-linecap="round" stroke-width="3" d="M48.172 74.102H35.687a1.111 1.111 0 01-1.112-1.11v-6.417c0-.614.498-1.112 1.112-1.112h12.485c.614 0 1.111.498 1.111 1.112v6.416a1.11 1.11 0 01-1.11 1.111z"/><path fill="var(--color-primary-50)" d="M94.255 110.254v6.419"/><path stroke="var(--color-primary-200)" stroke-linecap="round" stroke-width="2" d="M94.255 110.254v6.419"/><path fill="var(--color-primary-50)" d="M108.683 108.898l1.004 6.34"/><path stroke="var(--color-primary-200)" stroke-linecap="round" stroke-width="2" d="M108.683 108.898l1.004 6.34"/><path fill="var(--color-primary-50)" d="M121.856 104.382l2.51 5.757"/><path stroke="var(--color-primary-200)" stroke-linecap="round" stroke-width="2" d="M121.856 104.382l2.51 5.757"/><path fill="var(--color-primary-50)" d="M133.309 96.313l4.179 4.485"/><path stroke="var(--color-primary-200)" stroke-linecap="round" stroke-width="2" d="M133.309 96.313l4.179 4.485"/><path fill="var(--color-primary-50)" d="M140.65 85.933l5.637 2.41"/><path stroke="var(--color-primary-200)" stroke-linecap="round" stroke-width="2" d="M140.65 85.933l5.637 2.41"/><path fill="var(--color-primary-50)" d="M79.496 108.712l-1.004 6.34"/><path stroke="var(--color-primary-200)" stroke-linecap="round" stroke-width="2" d="M79.496 108.712l-1.004 6.34"/><path fill="var(--color-primary-50)" d="M66.323 104.196l-2.51 5.756"/><path stroke="var(--color-primary-200)" stroke-linecap="round" stroke-width="2" d="M66.323 104.196l-2.51 5.756"/><path fill="var(--color-primary-50)" d="M54.87 96.127l-4.179 4.486"/><path stroke="var(--color-primary-200)" stroke-linecap="round" stroke-width="2" d="M54.87 96.127l-4.179 4.486"/><path fill="var(--color-primary-50)" d="M47.53 85.746l-5.637 2.41"/><path stroke="var(--color-primary-200)" stroke-linecap="round" stroke-width="2" d="M47.53 85.746l-5.637 2.41"/><mask id="b" fill="var(--color-neutral-50)"><use href="#a"/></mask><path fill="var(--color-primary-50)" d="M160.134 166.73h11.523V40.94h-11.523z" /><path fill="var(--color-primary-600)" d="M173.157 39.44h-14.523V168.23h14.524V39.44zm-11.523 125.79h8.524V42.44h-8.523v122.79z" /><path fill="var(--color-primary-50)" d="M175.446 43.641a9.55 9.55 0 01-9.55 9.55c-5.274 0-9.55-4.276-9.55-9.55 0-5.274 4.276-9.55 9.55-9.55a9.55 9.55 0 019.55 9.55" /><path stroke="var(--color-primary-500)" stroke-linecap="round" stroke-width="3" d="M175.446 43.641a9.55 9.55 0 01-9.55 9.55c-5.274 0-9.55-4.276-9.55-9.55 0-5.274 4.276-9.55 9.55-9.55a9.55 9.55 0 019.55 9.55z" /><path fill="var(--color-primary-50)" d="M186.647 173.533c-2.202-7.039-10.646-12.287-20.751-12.287s-18.55 5.248-20.751 12.287h41.502z" /><path stroke="var(--color-primary-500)" stroke-linecap="round" stroke-linejoin="round" stroke-width="4" d="M186.647 173.533c-2.202-7.039-10.646-12.287-20.751-12.287s-18.55 5.248-20.751 12.287h41.502z" /><path fill="var(--color-neutral-50)" d="M152.686 70.351v-1.663a2.973 2.973 0 012.973-2.973h20.473a2.973 2.973 0 012.973 2.973v1.663a2.973 2.973 0 01-2.973 2.973H155.66a2.973 2.973 0 01-2.973-2.973" /><path stroke="var(--color-primary-500)" stroke-linecap="round" stroke-width="3.5" d="M152.686 70.351v-1.663a2.973 2.973 0 012.973-2.973h20.473a2.973 2.973 0 012.973 2.973v1.663a2.973 2.973 0 01-2.973 2.973H155.66a2.973 2.973 0 01-2.973-2.973z" /><path stroke="var(--color-primary-600)" stroke-width="2" d="M159.632 78.789h13.116" /><path fill="var(--color-primary-50)" d="M16.989 166.73h11.523V40.94H16.989z" /><path fill="var(--color-primary-500)" d="M30.012 39.44H15.49V168.23h14.522V39.44zM18.49 165.23h8.522V42.44H18.49v122.79z" /><path fill="var(--color-primary-50)" d="M32.3 43.641a9.55 9.55 0 01-9.55 9.55c-5.273 0-9.55-4.276-9.55-9.55 0-5.274 4.277-9.55 9.55-9.55a9.55 9.55 0 019.55 9.55" /><path stroke="var(--color-primary-500)" stroke-linecap="round" stroke-width="3" d="M32.3 43.641a9.55 9.55 0 01-9.55 9.55c-5.273 0-9.55-4.276-9.55-9.55 0-5.274 4.277-9.55 9.55-9.55a9.55 9.55 0 019.55 9.55z" /><path fill="var(--color-primary-50)" d="M43.502 173.533c-2.202-7.039-10.646-12.287-20.751-12.287S4.2 166.494 2 173.533h41.502z" /><path stroke="var(--color-primary-500)" stroke-linecap="round" stroke-linejoin="round" stroke-width="4" d="M43.502 173.533c-2.202-7.039-10.646-12.287-20.751-12.287S4.2 166.494 2 173.533h41.502z" /><path fill="var(--color-neutral-50)" d="M9.541 70.351v-1.663a2.973 2.973 0 012.973-2.973h20.473a2.973 2.973 0 012.973 2.973v1.663a2.973 2.973 0 01-2.973 2.973H12.514a2.973 2.973 0 01-2.973-2.973" /><path stroke="var(--color-primary-500)" stroke-linecap="round" stroke-width="3.5" d="M9.541 70.351v-1.663a2.973 2.973 0 012.973-2.973h20.473a2.973 2.973 0 012.973 2.973v1.663a2.973 2.973 0 01-2.973 2.973H12.514a2.973 2.973 0 01-2.973-2.973z" /><path stroke="var(--color-primary-500)" stroke-width="2" d="M16.207 78.789h13.116" /><path fill="var(--color-neutral-50)" d="M134.486 153.137H51.63l7.697-11.535h67.46z" /><path stroke="var(--color-primary-200)" stroke-linecap="round" stroke-linejoin="round" stroke-width="2.5" d="M134.486 153.137H51.63l7.697-11.535h67.46z" /></g><path fill="none" d="M-1 0h224v224H-1z"/><path fill="none" d="M-1 0h224v224H-1z"/><path d="M-1 0h224v224H-1z"/></g></svg>