<svg id="file--upload" xmlns="http://www.w3.org/2000/svg" xlink="http://www.w3.org/1999/xlink" viewBox="0 0 120 120"><defs><path id="a" d="M0 0h5.277v5.352H0z"/><path id="c" d="M0 0h31.482v2.089H0z"/><path id="e" d="M0 0h5.276v5.352H0z"/><path id="g" d="M0 0h120v120H0z"/></defs><g fill="none" fill-rule="evenodd"><path fill="var(--color-primary-100)" d="M105.06 63.971c-6.888 27.59-34.837 44.372-62.427 37.485C15.043 94.57-1.739 66.62 5.149 39.03 12.036 11.44 39.985-5.342 67.575 1.545c27.59 6.887 44.372 34.837 37.485 62.426"/><path fill="var(--color-primary-200)" d="M66.975 44.509l-4.592-25.142-49.284 9.001 9.002 49.284 38.45-7.023z"/><g transform="translate(44.41 106.66)"><mask id="b" fill="var(--color-neutral-50)"><use href="#a"/></mask><path fill="var(--color-primary-300)" d="M5.277 5.353H1.03C.462 5.353 0 4.885 0 4.308s.462-1.045 1.03-1.045h2.188V1.045C3.218.468 3.679 0 4.248 0c.568 0 1.03.468 1.03 1.045v4.308z" /></g><g transform="translate(9.102 109.923)"><mask id="d" fill="var(--color-neutral-50)"><use href="#c"/></mask><path fill="var(--color-primary-300)" d="M6.915 2.09H1.03C.46 2.09 0 1.62 0 1.044 0 .468.461 0 1.03 0h5.885c.568 0 1.03.468 1.03 1.045 0 .576-.462 1.044-1.03 1.044m11.769 0h-5.885c-.568 0-1.03-.468-1.03-1.044C11.77.468 12.231 0 12.8 0h5.885c.568 0 1.029.468 1.029 1.045 0 .576-.461 1.044-1.03 1.044m11.77 0H24.57c-.568 0-1.03-.468-1.03-1.044 0-.577.462-1.045 1.03-1.045h5.884c.568 0 1.03.468 1.03 1.045 0 .576-.462 1.044-1.03 1.044" /></g><g transform="translate(0 106.66)"><mask id="f" fill="var(--color-neutral-50)"><use href="#e"/></mask><path fill="var(--color-primary-300)" d="M4.247 5.353H0V1.045C0 .468.46 0 1.029 0s1.03.468 1.03 1.045v2.218h2.188c.568 0 1.03.468 1.03 1.045s-.462 1.045-1.03 1.045" /></g><path fill="var(--color-primary-300)" d="M1.03 88.652c-.569 0-1.03-.468-1.03-1.044V80.91c0-.576.461-1.044 1.03-1.044.567 0 1.028.468 1.028 1.044v6.7c0 .575-.46 1.043-1.029 1.043m0 13.398c-.568 0-1.029-.468-1.029-1.045v-6.698c0-.577.461-1.045 1.03-1.045.567 0 1.028.468 1.028 1.045v6.698c0 .577-.46 1.045-1.029 1.045M1.03 75.255C.46 75.255 0 74.787 0 74.21v-4.308h4.248c.568 0 1.029.468 1.029 1.044 0 .577-.461 1.045-1.03 1.045H2.059v2.22c0 .575-.46 1.043-1.029 1.043M16.016 71.991h-5.884c-.569 0-1.03-.468-1.03-1.044 0-.576.461-1.044 1.03-1.044h5.884c.568 0 1.029.468 1.029 1.044 0 .576-.461 1.044-1.03 1.044m11.771 0h-5.885c-.568 0-1.029-.468-1.029-1.044 0-.576.461-1.044 1.029-1.044h5.885c.568 0 1.03.468 1.03 1.044 0 .576-.462 1.044-1.03 1.044m11.77 0H33.67c-.568 0-1.03-.468-1.03-1.044 0-.576.462-1.044 1.03-1.044h5.886c.568 0 1.029.468 1.029 1.044 0 .576-.461 1.044-1.03 1.044M48.658 75.255c-.568 0-1.03-.468-1.03-1.044v-2.22H45.44c-.568 0-1.03-.467-1.03-1.044 0-.576.462-1.044 1.03-1.044h4.247v4.308c0 .576-.462 1.044-1.029 1.044M48.658 88.652c-.568 0-1.03-.468-1.03-1.044V80.91c0-.576.462-1.044 1.03-1.044.567 0 1.03.468 1.03 1.044v6.7c0 .575-.463 1.043-1.03 1.043m0 13.398c-.568 0-1.03-.468-1.03-1.045v-6.698c0-.577.462-1.045 1.03-1.045.567 0 1.03.468 1.03 1.045v6.698c0 .577-.463 1.045-1.03 1.045"/><path fill="var(--color-primary-200)" d="M100.316 96.76l-48.65-11.964 11.966-48.649 48.648 11.965z"/><path fill="var(--color-neutral-50)" d="M57.353 80.857l12.17-49.487 49.487 12.17-12.17 49.488z"/><path fill="var(--color-primary-100)" d="M69.207 30.847l-.206.838-11.966 48.65-.205.838.838.206 48.648 11.965.84.206.205-.837 11.966-48.65.206-.839-.838-.205-48.65-11.966-.838-.206zm.632 1.045l48.65 11.964-11.965 48.65-48.65-11.965 11.965-48.65z"/><path fill="var(--color-primary-100)" d="M104.884 82.868l-40.857-10.05 8.825-35.883 40.858 10.05z"/><path fill="var(--color-primary-200)" d="M80.473 66.172l2.608-10.689 10.984-4.501 7.676 9.055-2.608 10.688z"/><path fill="var(--color-primary-300)" d="M94.318 49.945L82.347 54.85 79.43 66.805l20.337 4.964 2.917-11.955-8.366-9.87zm-.506 2.073l6.986 8.242L98.5 69.68l-16.983-4.143 2.3-9.423 9.996-4.097z"/><path fill="var(--color-primary-300)" d="M107.865 70.752l-40.898-9.98-2.94 12.048 40.898 9.979zM99.5 56.984l-2.32-.567 1.006-4.121 2.32.567z"/><path stroke="var(--color-secondary-100)" stroke-width="3" d="M96.65 14.72a6.268 6.268 0 11-12.537 0 6.268 6.268 0 0112.536 0z"/><path fill="var(--color-primary-400)" d="M107.163 20.989a3.134 3.134 0 11-6.267 0 3.134 3.134 0 016.267 0"/><path fill="var(--color-secondary-100)" d="M97.977 107.947a3.134 3.134 0 11-6.267 0 3.134 3.134 0 016.267 0"/><path fill="var(--color-neutral-50)" d="M75.72 62.763l-49.283 9.002-9-49.285 49.283-9z"/><path fill="var(--color-primary-100)" d="M70.28 54.64L28.89 62.2l-6.64-36.352 41.392-7.559z"/><path fill="var(--color-primary-200)" d="M27.703 50.9l8.802-12.356 14.22 9.533 5.462-7.669 12.097 8.11.991 5.426-39.684 7.285z"/><path fill="var(--color-primary-300)" d="M36.288 37.36l-9.5 13.336 2.108 11.538 41.384-7.596-1.212-6.633-13.097-8.781-5.462 7.669-14.22-9.534zm.433 2.368l12.826 8.6 1.395.934.973-1.367 4.489-6.302L67.5 49.032l.77 4.219-37.987 6.973-1.666-9.12 8.103-11.376zM56.26 31.66a3.307 3.307 0 11-6.506 1.189 3.307 3.307 0 016.507-1.19"/><path fill="var(--color-primary-400)" d="M34.354 101.85H15.18a1.065 1.065 0 100 2.13h19.175a1.065 1.065 0 100-2.13M24.767 85.591l4.348 4.54h-.62c-.587 0-1.065.477-1.065 1.065v6.392h-5.326v-6.392c0-.588-.478-1.065-1.066-1.065h-.619l4.348-4.54zm-6.843 6.67h2.049v6.393c0 .589.477 1.064 1.065 1.064h7.457c.589 0 1.066-.475 1.066-1.064v-6.392h2.049a1.065 1.065 0 00.768-1.802l-6.842-7.146c-.401-.42-1.137-.42-1.54 0l-6.84 7.146a1.064 1.064 0 00.768 1.802z"/></g></svg>