<svg id="file--dragndrop" xmlns="http://www.w3.org/2000/svg" viewBox="0 0 48 48"><g fill="none" fill-rule="evenodd"><path fill="var(--color-primary-100)" d="M25.872 36H9.129a3.128 3.128 0 01-3.13-3.129V16.129A3.128 3.128 0 019.13 13h16.743C27.6 13 29 14.4 29 16.129v16.742C29 34.6 27.6 36 25.872 36"/><path fill="var(--color-primary-400)" d="M9.128 14A2.13 2.13 0 007 16.129v16.742A2.13 2.13 0 009.128 35h16.743a2.131 2.131 0 002.13-2.129V16.129A2.131 2.131 0 0025.87 14H9.128zm16.743 23H9.128A4.134 4.134 0 015 32.871V16.129A4.134 4.134 0 019.128 12h16.743a4.134 4.134 0 014.13 4.129v16.742A4.134 4.134 0 0125.87 37z"/><path fill="var(--color-primary-400)" d="M26.8 3h-2a1 1 0 110-2h2a1 1 0 110 2m6 0h-2a1 1 0 110-2h2a1 1 0 110 2m6 0h-2a1 1 0 110-2h2a1 1 0 110 2M19.394 4.608a1 1 0 01-.873-1.486 4.167 4.167 0 011.907-1.756 1 1 0 01.827 1.821c-.415.188-.765.51-.987.908a.996.996 0 01-.874.513M42 7.142a1 1 0 01-1-1V5.129c0-.226-.035-.449-.104-.661a1 1 0 111.9-.619c.135.411.204.841.204 1.279v1.014a1 1 0 01-1 1M19 10.54a1 1 0 01-1-1v-2a1 1 0 112 0v2a1 1 0 01-1 1m23 2.602a1 1 0 01-1-1v-2a1 1 0 112 0v2a1 1 0 01-1 1m0 6a1 1 0 01-1-1v-2a1 1 0 112 0v2a1 1 0 01-1 1m-.788 5.804a.999.999 0 01-.748-1.663c.306-.346.489-.77.528-1.227a.988.988 0 011.082-.911 1 1 0 01.91 1.081 4.093 4.093 0 01-1.023 2.383.998.998 0 01-.75.337M31.519 26H30a1 1 0 110-2h1.518a1 1 0 110 2m6 0h-2a1 1 0 110-2h2a1 1 0 110 2"/><path fill="var(--color-neutral-50)" d="M32.829 33.128l-11.865-4.535a.761.761 0 00-.983.982l4.535 11.866a.598.598 0 00.983.209l1.96-1.96 5.832 5.832a.916.916 0 001.294 0l2.28-2.281a.914.914 0 000-1.294l-5.831-5.831 2.005-2.005a.599.599 0 00-.21-.983"/><path fill="var(--color-primary-400)" d="M27.46 38.69c.255 0 .511.098.706.293l5.771 5.771 2.16-2.16-5.77-5.77a1 1 0 010-1.415l1.567-1.568-10.789-4.124 4.124 10.788 1.523-1.522a.997.997 0 01.707-.293m6.478 8.1c-.49 0-.98-.189-1.353-.562l-5.125-5.124-1.253 1.253a1.59 1.59 0 01-1.465.434 1.593 1.593 0 01-1.16-.995l-4.535-11.864a1.742 1.742 0 01.4-1.873 1.748 1.748 0 011.874-.4l11.865 4.534c.508.194.88.627.993 1.158a1.594 1.594 0 01-.431 1.466l-1.3 1.3 5.124 5.123a1.916 1.916 0 010 2.708l-2.278 2.28a1.914 1.914 0 01-1.355.561"/><path fill="var(--color-neutral-50)" d="M14 41l-2 2"/><path fill="var(--color-primary-400)" d="M12 44a.999.999 0 01-.707-1.707l2-2a.999.999 0 111.414 1.414l-2 2A.997.997 0 0112 44"/><path fill="var(--color-neutral-50)" d="M20 42l-5 5"/><path fill="var(--color-primary-400)" d="M15 48a.999.999 0 01-.707-1.707l5-5a.999.999 0 111.414 1.414l-5 5A.997.997 0 0115 48"/></g></svg>