<svg id="file--damaged" xmlns="http://www.w3.org/2000/svg" xlink="http://www.w3.org/1999/xlink" viewBox="0 0 48 48"><defs><filter id="c" color-interpolation-filters="auto"><feColorMatrix in="SourceGraphic" values="0 0 0 0 0.415686 0 0 0 0 0.792157 0 0 0 0 0.643137 0 0 0 1.000000 0"/></filter><path id="a" d="M0 0h20.463v38.288H0z"/></defs><g fill="none" fill-rule="evenodd"><path fill="var(--color-primary-100)" d="M25.718 43.788l10.787 2.743a2.676 2.676 0 003.252-1.933l6.409-25.206-4.294-7.223-7.621-1.938-7.798 4.636 3.706 6.233-7.554 4.492L28.7 35.844l-5.935 3.53s2.913 4.404 2.953 4.414"/><path fill="var(--color-primary-400)" d="M26.322 42.91l10.43 2.652a1.683 1.683 0 002.036-1.21l6.306-24.805-3.871-6.51-6.818-1.734-6.582 3.913 3.195 5.373a1 1 0 01-.348 1.37l-6.695 3.981 5.584 9.393a.998.998 0 01-.348 1.37l-5.033 2.993a477.29 477.29 0 002.144 3.214m10.842 4.704c-.299 0-.602-.037-.905-.114l-10.782-2.74c-.416-.103-.427-.12-3.547-4.835a1.005 1.005 0 01.323-1.41l5.076-3.02-5.584-9.393a1 1 0 01.348-1.37l6.695-3.98-3.195-5.374a.998.998 0 01.349-1.37l7.797-4.636a.979.979 0 01.758-.109l7.621 1.937c.257.064.477.23.613.458l4.294 7.223c.136.227.175.5.11.757l-6.408 25.206a3.682 3.682 0 01-3.563 2.77"/><path fill="var(--color-primary-100)" d="M6.817 46.009L1 11.876 13.647 9.72 8.4 17.12l5.916 4.194-5.083 7.17 9.732 6.898-3.993 5.634s4.45 2.844 4.49 2.837L6.818 46.009z"/><g transform="translate(0 8.72)"><mask id="b" fill="var(--color-neutral-50)"><use href="#a"/></mask><path fill="var(--color-primary-400)" d="M2.154 3.973l5.48 32.162 9.073-1.547c-.604-.383-1.349-.86-2.273-1.45a.997.997 0 01-.278-1.42l3.415-4.818-8.915-6.32a.999.999 0 01-.238-1.393l4.505-6.356-5.1-3.614a1.002 1.002 0 01-.238-1.393l3.85-5.432-9.281 1.58zm4.663 34.315a.998.998 0 01-.986-.832L.014 3.324A1.002 1.002 0 01.832 2.17L13.479.015a1 1 0 01.984 1.563L9.795 8.164l5.1 3.615a.998.998 0 01.238 1.393l-4.505 6.356 8.916 6.319a.997.997 0 01.237 1.394l-3.386 4.777c1.47.936 3.225 2.05 3.511 2.219a1 1 0 01-.274 1.882L6.985 38.274a.952.952 0 01-.168.014z" /></g><path fill="var(--color-neutral-50)" d="M41.232 12.096l-1.17 4.606a2.263 2.263 0 001.635 2.75l4.182 1.065"/><path fill="var(--color-primary-400)" d="M45.633 21.485l-4.182-1.063a3.241 3.241 0 01-2.001-1.495 3.238 3.238 0 01-.358-2.47l1.171-4.608 1.938.492-1.171 4.607c-.083.327-.034.667.139.957.172.29.447.495.775.578l4.182 1.065-.493 1.937z"/><g  transform="translate(0 .614)"><g transform="translate(22)"><mask id="d" fill="var(--color-neutral-50)"><path d="M.183.386h2v6.788h-2z"/></mask><path fill="var(--color-primary-400)" d="M1.183 7.174a1 1 0 01-1-1V1.386a1 1 0 112 0v4.788a1 1 0 01-1 1" /></g></g><path fill="var(--color-primary-400)" d="M27.236 9.002a.999.999 0 01-.707-1.707l2.428-2.429a1 1 0 011.414 1.414l-2.428 2.429a.997.997 0 01-.707.293M19.13 9.002a.997.997 0 01-.706-.293L15.996 6.28a1 1 0 011.414-1.414l2.428 2.429a.999.999 0 01-.707 1.707"/></g></svg>