<svg id="file--non--existing" xmlns="http://www.w3.org/2000/svg" xlink="http://www.w3.org/1999/xlink" viewBox="0 0 48 48"><defs><path id="a" d="M0 0h33v41H0z"/></defs><g fill="none" fill-rule="evenodd"><path fill="var(--color-primary-100)" d="M33.308 5H9v39h27.987A3.013 3.013 0 0040 40.987V11.692L33.308 5z"/><g transform="translate(8 4)"><mask id="b" fill="var(--color-neutral-50)"><use href="#a"/></mask><path fill="var(--color-primary-400)" d="M9.308 2h-3a1 1 0 110-2h3a1 1 0 110 2m8 0h-3a1 1 0 110-2h3a1 1 0 110 2m8 0h-3a1 1 0 110-2h3a1 1 0 110 2M1 4.692a1 1 0 01-1-1V0h1.308A1 1 0 012 1.722v1.97a1 1 0 01-1 1M30.108 6.8a.999.999 0 01-.707-.293L27.28 4.386a.999.999 0 111.414-1.414l2.12 2.121a.999.999 0 01-.706 1.707M1 12.692a1 1 0 01-1-1v-3a1 1 0 012 0v3a1 1 0 01-1 1m31 1.325a1 1 0 01-1-1v-3a1 1 0 112 0v3a1 1 0 01-1 1M1 20.692a1 1 0 01-1-1v-3a1 1 0 012 0v3a1 1 0 01-1 1m31 1.325a1 1 0 01-1-1v-3a1 1 0 112 0v3a1 1 0 01-1 1M1 28.692a1 1 0 01-1-1v-3a1 1 0 012 0v3a1 1 0 01-1 1m31 1.325a1 1 0 01-1-1v-3a1 1 0 112 0v3a1 1 0 01-1 1M1 36.692a1 1 0 01-1-1v-3a1 1 0 012 0v3a1 1 0 01-1 1m31 1.31a.988.988 0 01-.998-1.064L31 34.017a1 1 0 112 0v2.97c0 .553-.447 1.015-1 1.015M4.693 41h-3a1 1 0 110-2h3a1 1 0 110 2m8 0h-3a1 1 0 110-2h3a1 1 0 110 2m8 0h-3a1 1 0 110-2h3a1 1 0 110 2m8 0h-3a1 1 0 110-2h3a1 1 0 110 2" /></g><path fill="var(--color-primary-400)" d="M36 15h-2.861a3.554 3.554 0 01-3.549-3.55V8.098a1 1 0 112 0v3.352c0 .855.695 1.55 1.549 1.55H36a1 1 0 110 2"/></g></svg>