<svg id="nickel--tour--all" xmlns="http://www.w3.org/2000/svg" viewBox="0 0 224 224"><g fill="none" fill-rule="evenodd"><path fill="none" d="M0 0h224v224H0z"/><path fill="none" d="M0 0h224v224H0z"/><path d="M0 0h224v224H0z"/><g><path stroke="var(--color-primary-200)" stroke-width="2" d="M154.037 54.984c0-7.25 12.375-13.129 27.642-13.129s27.642 5.878 27.642 13.13M209.321 61.27c0 7.252-12.376 13.13-27.642 13.13s-27.642-5.879-27.642-13.13"/><path stroke="var(--color-primary-200)" stroke-width="2" d="M194.745 58.844c0 15.267-5.877 27.643-13.127 27.643-7.251 0-13.13-12.376-13.13-27.643 0-15.266 5.879-27.642 13.13-27.642 7.25 0 13.127 12.376 13.127 27.642z"/><path stroke="var(--color-primary-200)" stroke-width="3" d="M209.543 58.844c0 15.423-12.503 27.926-27.926 27.926-15.423 0-27.925-12.503-27.925-27.926 0-15.423 12.502-27.926 27.925-27.926s27.926 12.503 27.926 27.926z"/><path stroke="var(--color-primary-200)" stroke-width="2" d="M209.543 58.844h-55.851M181.617 30.918V86.77"/><path fill="var(--color-primary-100)" d="M164.234 121.91c0 39.592-32.095 71.687-71.687 71.687S20.86 161.502 20.86 121.91s32.095-71.688 71.687-71.688 71.687 32.096 71.687 71.688"/><path fill="var(--color-neutral-50)" d="M182.054 153.941l.048-83.055c.002-2.446-1.952-4.429-4.364-4.43l-123.682-.073c-2.412 0-4.368 1.981-4.37 4.426l-.048 83.055"/><path stroke="var(--color-primary-400)" stroke-width="4" d="M182.054 153.941l.048-83.055c.002-2.446-1.952-4.429-4.364-4.43l-123.682-.073c-2.412 0-4.368 1.981-4.37 4.426l-.048 83.055M181.905 163.58l-132.13-.078c-5.233-.003-9.474-4.248-9.47-9.483l151.082.088c-.003 5.234-4.248 9.475-9.482 9.472z"/><path stroke="var(--color-primary-400)" stroke-width="2" d="M101.263 152.889v1.166a5.251 5.251 0 005.246 5.254l18.667.01a5.251 5.251 0 005.253-5.246"/><path fill="var(--color-primary-200)" d="M171.991 146.826l-112.283-.064a1.573 1.573 0 01-1.57-1.573l.041-70.342a1.57 1.57 0 011.572-1.57l112.282.065c.868.001 1.57.705 1.57 1.572l-.04 70.343a1.57 1.57 0 01-1.572 1.57"/><path fill="var(--color-primary-100)" d="M58.077 146.762l43.907.017V73.294l-43.907-.016z"/><path fill="var(--color-neutral-50)" d="M101.998 146.762l34.674.017V73.294l-34.674-.016z"/><path fill="var(--color-primary-300)" d="M72.576 79.043a3.204 3.204 0 100 6.408 3.204 3.204 0 000-6.408M80.623 83.66H91.44a1.5 1.5 0 100-3H80.623a1.5 1.5 0 100 3M72.576 89.908a3.204 3.204 0 100 6.408 3.204 3.204 0 000-6.408M91.44 91.524H80.625a1.5 1.5 0 100 3H91.44a1.5 1.5 0 100-3M72.576 100.773a3.204 3.204 0 100 6.408 3.204 3.204 0 000-6.408M91.44 102.39H80.625a1.5 1.5 0 100 3H91.44a1.5 1.5 0 100-3M72.576 111.638a3.204 3.204 0 100 6.408 3.204 3.204 0 000-6.408M91.44 113.255H80.625a1.5 1.5 0 100 3H91.44a1.5 1.5 0 100-3M72.576 122.503a3.204 3.204 0 100 6.408 3.204 3.204 0 000-6.408M91.44 124.12H80.625a1.5 1.5 0 100 3H91.44a1.5 1.5 0 100-3M72.576 133.368a3.204 3.204 0 100 6.408 3.204 3.204 0 000-6.408M91.44 134.984H80.625a1.5 1.5 0 100 3H91.44a1.5 1.5 0 100-3"/><path stroke="var(--color-primary-100)" stroke-width="2" d="M171.991 146.826l-112.283-.064a1.573 1.573 0 01-1.57-1.573l.041-70.342a1.57 1.57 0 011.572-1.57l112.282.065c.868.001 1.57.705 1.57 1.572l-.04 70.343a1.57 1.57 0 01-1.572 1.57z"/><path fill="var(--color-primary-100)" d="M126.515 91.458a7.166 7.166 0 11-14.333 0 7.166 7.166 0 0114.333 0"/><path stroke="var(--color-primary-400)" stroke-width="3" d="M126.515 91.458a7.166 7.166 0 11-14.333 0 7.166 7.166 0 0114.333 0z"/><path stroke="var(--color-primary-200)" stroke-linecap="round" stroke-width="3" d="M110.228 107.764h18.604M115.065 114.833h8.93"/><path fill="var(--color-primary-400)" d="M109.793 127.151a3.89 3.89 0 104.125 6.597 3.89 3.89 0 00-4.125-6.597"/><path fill="var(--color-primary-200)" d="M130.114 128.388a3.889 3.889 0 10-6.595 4.122 3.889 3.889 0 006.595-4.122"/><path fill="var(--color-primary-100)" d="M205.697 198.432l-34.752-.372c-5.37 0-9.726-4.354-9.726-9.725v-82.503c0-5.371 4.355-9.725 9.726-9.725l34.752.372c5.371 0 9.725 4.354 9.725 9.725v82.503c0 5.37-4.354 9.725-9.725 9.725"/><path stroke="var(--color-primary-400)" stroke-width="4" d="M205.697 198.432l-34.752-.372c-5.37 0-9.726-4.354-9.726-9.725v-82.503c0-5.371 4.355-9.725 9.726-9.725l34.752.372c5.371 0 9.725 4.354 9.725 9.725v82.503c0 5.37-4.354 9.725-9.725 9.725z"/><path fill="var(--color-neutral-50)" d="M205.194 103.094l-5.427-.05a.695.695 0 00-.701.695v1.61a2.857 2.857 0 01-2.857 2.856h-15.775a2.857 2.857 0 01-2.857-2.856v-1.821a.695.695 0 00-.688-.696l-5.38-.05a3.265 3.265 0 00-3.294 3.265v82.133a3.264 3.264 0 003.234 3.265l33.684.31a3.264 3.264 0 003.295-3.264v-82.132a3.265 3.265 0 00-3.234-3.265"/><path stroke="var(--color-primary-200)" stroke-width="2" d="M205.194 103.094l-5.427-.05a.695.695 0 00-.701.695v1.61a2.857 2.857 0 01-2.857 2.856h-15.775a2.857 2.857 0 01-2.857-2.856v-1.821a.695.695 0 00-.688-.696l-5.38-.05a3.265 3.265 0 00-3.294 3.265v82.133a3.264 3.264 0 003.234 3.265l33.684.31a3.264 3.264 0 003.295-3.264v-82.132a3.265 3.265 0 00-3.234-3.265z"/><path fill="var(--color-primary-100)" d="M198.181 129.136c0 5.445-4.415 9.86-9.86 9.86-5.446 0-9.86-4.415-9.86-9.86 0-5.445 4.414-9.86 9.86-9.86s9.86 4.415 9.86 9.86"/><path stroke="var(--color-primary-400)" stroke-width="3" d="M198.181 129.136c0 5.445-4.415 9.86-9.86 9.86-5.446 0-9.86-4.415-9.86-9.86 0-5.445 4.414-9.86 9.86-9.86s9.86 4.415 9.86 9.86z"/><path fill="var(--color-primary-400)" d="M184.376 177.821a5.025 5.025 0 11-8.522 5.326 5.025 5.025 0 018.522-5.326"/><path fill="var(--color-primary-200)" d="M201.12 177.821a5.025 5.025 0 11-8.522 5.326 5.025 5.025 0 018.522-5.326"/><path stroke="var(--color-primary-200)" stroke-linecap="round" stroke-width="3" d="M179.019 146.438h18.604M183.856 153.508h8.93"/><path fill="var(--color-neutral-50)" d="M89.535 25h-69.62a5.73 5.73 0 00-5.73 5.729v18.829a5.73 5.73 0 005.73 5.729h5.976l10.436 10.217c.77.754 2.067.192 2.044-.886l-.2-9.331h51.364a5.73 5.73 0 005.73-5.729V30.729A5.729 5.729 0 0089.535 25"/><path stroke="var(--color-primary-300)" stroke-width="4" d="M89.535 25h-69.62a5.73 5.73 0 00-5.73 5.729v18.829a5.73 5.73 0 005.73 5.729h5.976l10.436 10.217c.77.754 2.067.192 2.044-.886l-.2-9.331h51.364a5.73 5.73 0 005.73-5.729V30.729A5.729 5.729 0 0089.535 25z"/><path fill="var(--color-neutral-50)" d="M85.059 35.977h-44.12"/><path stroke="var(--color-primary-200)" stroke-linecap="round" stroke-width="3" d="M85.059 35.977h-44.12"/><path fill="var(--color-neutral-50)" d="M34.082 35.977h-8.771"/><path stroke="var(--color-primary-200)" stroke-linecap="round" stroke-width="3" d="M34.082 35.977h-8.771"/><path fill="var(--color-neutral-50)" d="M55.357 45.278h18.166"/><path stroke="var(--color-primary-200)" stroke-linecap="round" stroke-width="3" d="M55.357 45.278h18.166"/><path fill="var(--color-neutral-50)" d="M80.008 45.278h5.05"/><path stroke="var(--color-primary-200)" stroke-linecap="round" stroke-width="3" d="M80.008 45.278h5.05"/><path fill="var(--color-neutral-50)" d="M68.463 199.798H37.737a4.934 4.934 0 01-4.934-4.935v-12.456a4.934 4.934 0 014.934-4.934h30.726a4.934 4.934 0 014.935 4.934v12.456a4.934 4.934 0 01-4.935 4.935"/><path stroke="var(--color-primary-200)" stroke-width="4" d="M68.463 199.798H37.737a4.934 4.934 0 01-4.934-4.935v-12.456a4.934 4.934 0 014.934-4.934h30.726a4.934 4.934 0 014.935 4.934v12.456a4.934 4.934 0 01-4.935 4.935z"/><path fill="var(--color-primary-200)" d="M46.822 188.636a1.954 1.954 0 11-3.908-.002 1.954 1.954 0 013.908.002M55.194 188.636a1.954 1.954 0 11-3.908-.002 1.954 1.954 0 013.908.002M63.286 188.636a1.954 1.954 0 11-3.907-.002 1.954 1.954 0 013.907.002"/><path fill="var(--color-neutral-50)" d="M13.73 78.906h40.41a5.73 5.73 0 015.73 5.73v18.27a5.73 5.73 0 01-5.73 5.73H29.635v7.114c0 1.906-2.304 2.86-3.652 1.512l-8.627-8.627H13.73A5.728 5.728 0 018 102.906v-18.27a5.73 5.73 0 015.73-5.73"/><path stroke="var(--color-primary-400)" stroke-width="4" d="M13.73 78.906h40.41a5.73 5.73 0 015.73 5.73v18.27a5.73 5.73 0 01-5.73 5.73H29.635v7.114c0 1.906-2.304 2.86-3.652 1.512l-8.627-8.627H13.73A5.728 5.728 0 018 102.906v-18.27a5.73 5.73 0 015.73-5.73z"/><path stroke="var(--color-primary-200)" stroke-linecap="round" stroke-width="3" d="M44.152 89.883h-5.329M31.59 89.883H17.078M50.047 99.184H17.079"/></g></g></svg>