<svg id="nickel--tour--device" xmlns="http://www.w3.org/2000/svg" xlink="http://www.w3.org/1999/xlink" viewBox="0 0 224 224"><defs><path id="a" d="M0 .956h13.855v11.158H0z"/></defs><g fill="none" fill-rule="evenodd"><path fill="none" d="M0 0h224v224H0z"/><path fill="none" d="M0 0h224v224H0z"/><path d="M0 0h224v224H0z"/><g><path fill="var(--color-primary-100)" d="M153.55 141.07c0 22.556-18.286 40.841-40.84 40.841-22.557 0-40.842-18.285-40.842-40.84 0-22.557 18.285-40.842 40.841-40.842 22.555 0 40.84 18.285 40.84 40.841"/><path stroke="var(--color-primary-400)" stroke-width="4" d="M172.55 127.556l.048-83.055c.002-2.445-1.952-4.428-4.364-4.429L44.552 40c-2.412 0-4.368 1.981-4.37 4.426l-.048 83.055M172.4 137.195l-132.128-.077a9.476 9.476 0 01-9.471-9.483l151.082.088c-.003 5.234-4.248 9.475-9.482 9.472z"/><path stroke="var(--color-primary-400)" stroke-width="2" d="M91.76 126.505v1.166a5.25 5.25 0 005.246 5.253l18.666.012a5.251 5.251 0 005.253-5.247"/><path fill="var(--color-primary-200)" d="M162.487 120.442l-112.283-.064a1.573 1.573 0 01-1.57-1.573l.041-70.342a1.571 1.571 0 011.572-1.57l112.282.065a1.572 1.572 0 011.571 1.572l-.04 70.343a1.57 1.57 0 01-1.573 1.57"/><path fill="var(--color-neutral-50)" d="M29.083 160.043a6.714 6.714 0 116.07-11.977 6.714 6.714 0 01-6.07 11.977"/><path stroke="var(--color-primary-200)" stroke-width="3" d="M29.083 160.043a6.714 6.714 0 116.07-11.977 6.714 6.714 0 01-6.07 11.977z"/><path fill="var(--color-primary-400)" d="M58.705 46.896l-8.458-.003a1.57 1.57 0 00-1.57 1.57l-.042 70.342a1.57 1.57 0 001.57 1.571l8.5.004V46.896z"/><path fill="var(--color-primary-100)" d="M58.728 120.378l33.488.016V46.91l-33.487-.016z"/><path fill="var(--color-neutral-50)" d="M92.495 120.378l34.674.016V46.91l-34.674-.016z"/><path fill="var(--color-primary-300)" d="M66.42 52.659a3.204 3.204 0 10.001 6.408 3.204 3.204 0 000-6.408M74.469 57.275h10.817a1.5 1.5 0 100-3H74.469a1.5 1.5 0 100 3M66.42 63.524a3.204 3.204 0 10.001 6.408 3.204 3.204 0 000-6.408M85.286 65.14H74.47a1.5 1.5 0 100 3h10.817a1.5 1.5 0 100-3M66.42 74.39a3.204 3.204 0 10.001 6.407 3.204 3.204 0 000-6.408M85.286 76.006H74.47a1.5 1.5 0 100 3h10.817a1.5 1.5 0 100-3M66.42 85.254a3.204 3.204 0 10.001 6.408 3.204 3.204 0 000-6.408M85.286 86.87H74.47a1.5 1.5 0 100 3h10.817a1.5 1.5 0 100-3M66.42 96.119a3.204 3.204 0 10.001 6.408 3.204 3.204 0 000-6.408M85.286 97.735H74.47a1.5 1.5 0 100 3h10.817a1.5 1.5 0 100-3M66.42 106.984a3.204 3.204 0 10.001 6.408 3.204 3.204 0 000-6.408M85.286 108.6H74.47a1.5 1.5 0 100 3h10.817a1.5 1.5 0 100-3"/><path stroke="var(--color-primary-100)" stroke-width="2" d="M162.487 120.442l-112.283-.064a1.573 1.573 0 01-1.57-1.573l.041-70.342a1.571 1.571 0 011.572-1.57l112.282.065a1.572 1.572 0 011.571 1.572l-.04 70.343a1.57 1.57 0 01-1.573 1.57z"/><path fill="var(--color-primary-100)" d="M117.011 65.074a7.166 7.166 0 11-14.333 0 7.166 7.166 0 0114.333 0"/><path stroke="var(--color-primary-400)" stroke-width="3" d="M117.011 65.074a7.166 7.166 0 11-14.333 0 7.166 7.166 0 0114.333 0z"/><path stroke="var(--color-primary-200)" stroke-linecap="round" stroke-width="3" d="M100.725 81.38h18.604M105.562 88.449h8.93"/><path fill="var(--color-primary-400)" d="M100.29 100.767a3.889 3.889 0 104.121 6.596 3.889 3.889 0 00-4.12-6.596"/><path fill="var(--color-primary-200)" d="M120.61 102.004a3.889 3.889 0 10-6.594 4.122 3.889 3.889 0 006.595-4.122"/><path fill="var(--color-primary-100)" d="M195.077 172.606l-34.752-.372c-5.37 0-9.725-4.355-9.725-9.726V80.005c0-5.37 4.354-9.724 9.725-9.724l34.752.372c5.371 0 9.726 4.353 9.726 9.724v82.503c0 5.372-4.355 9.726-9.726 9.726"/><path stroke="var(--color-primary-400)" stroke-width="4" d="M195.077 172.606l-34.752-.372c-5.37 0-9.725-4.355-9.725-9.726V80.005c0-5.37 4.354-9.724 9.725-9.724l34.752.372c5.371 0 9.726 4.353 9.726 9.724v82.503c0 5.372-4.355 9.726-9.726 9.726z"/><path fill="var(--color-neutral-50)" d="M194.574 77.268l-5.427-.05a.696.696 0 00-.701.695v1.61a2.857 2.857 0 01-2.857 2.856h-15.774a2.858 2.858 0 01-2.858-2.857v-1.82a.695.695 0 00-.688-.696l-5.38-.05a3.265 3.265 0 00-3.294 3.265v82.133a3.265 3.265 0 003.234 3.265l33.685.311a3.266 3.266 0 003.295-3.265V80.533a3.265 3.265 0 00-3.235-3.265"/><path stroke="var(--color-primary-200)" stroke-width="2" d="M194.574 77.268l-5.427-.05a.696.696 0 00-.701.695v1.61a2.857 2.857 0 01-2.857 2.856h-15.774a2.858 2.858 0 01-2.858-2.857v-1.82a.695.695 0 00-.688-.696l-5.38-.05a3.265 3.265 0 00-3.294 3.265v82.133a3.265 3.265 0 003.234 3.265l33.685.311a3.266 3.266 0 003.295-3.265V80.533a3.265 3.265 0 00-3.235-3.265z"/><path fill="var(--color-primary-100)" d="M187.561 103.31c0 5.445-4.415 9.86-9.86 9.86-5.445 0-9.86-4.415-9.86-9.86 0-5.446 4.415-9.86 9.86-9.86 5.446 0 9.86 4.414 9.86 9.86"/><path stroke="var(--color-primary-400)" stroke-width="3" d="M187.561 103.31c0 5.445-4.415 9.86-9.86 9.86-5.445 0-9.86-4.415-9.86-9.86 0-5.446 4.415-9.86 9.86-9.86 5.446 0 9.86 4.414 9.86 9.86z"/><path fill="var(--color-primary-400)" d="M173.756 151.996a5.024 5.024 0 11-8.52 5.325 5.024 5.024 0 018.52-5.325"/><path fill="var(--color-primary-200)" d="M190.5 151.996a5.024 5.024 0 11-8.52 5.325 5.024 5.024 0 018.52-5.325"/><path stroke="var(--color-primary-200)" stroke-linecap="round" stroke-width="3" d="M168.399 120.612h18.604M173.236 127.681h8.93"/><path fill="var(--color-neutral-50)" d="M73.718 172.13l-11.4 11.784a4.548 4.548 0 01-4.145 1.307 4.55 4.55 0 01-2.307-1.201 4.534 4.534 0 01-1.386-3.203 4.533 4.533 0 011.28-3.25l11.36-11.741-7.57-3.001 29.025-12.612-11.643 29.418-3.214-7.5z"/><path stroke="var(--color-primary-200)" stroke-linejoin="round" stroke-width="3" d="M73.718 172.13l-11.4 11.784a4.548 4.548 0 01-4.145 1.307h0a4.55 4.55 0 01-2.307-1.201 4.534 4.534 0 01-1.386-3.203 4.533 4.533 0 011.28-3.25l11.36-11.741-7.57-3.001 29.025-12.612-11.643 29.418-3.214-7.5z"/><path fill="var(--color-primary-200)" d="M196.511 51.869a7.186 7.186 0 01-5.095-2.106c-2.808-2.81-2.808-7.38 0-10.19a1.5 1.5 0 112.122 2.12 4.211 4.211 0 000 5.948 4.21 4.21 0 005.946 0 1.501 1.501 0 012.121 2.122 7.182 7.182 0 01-5.094 2.106"/><g transform="translate(12 101.804)"><mask id="b" fill="var(--color-neutral-50)"><use href="#a"/></mask><path fill="var(--color-primary-200)" d="M4.243 1.373a7.183 7.183 0 015.506.282c3.586 1.71 5.114 6.016 3.408 9.604a1.501 1.501 0 01-2.71-1.29 4.21 4.21 0 00-1.988-5.605 4.211 4.211 0 00-5.604 1.989A1.5 1.5 0 01.146 5.062a7.188 7.188 0 014.097-3.689" /></g></g></g></svg>