<svg id="nickel--tour--communicate" xmlns="http://www.w3.org/2000/svg" xlink="http://www.w3.org/1999/xlink" viewBox="0 0 224 224"><defs><path id="a" d="M.863.71h46.883v46.883H.862z"/></defs><g fill="none" fill-rule="evenodd"><path fill="none" d="M0 0h224v224H0z"/><path fill="none" d="M0 0h224v224H0z"/><path d="M0 0h224v224H0z"/><g><path fill="var(--color-primary-100)" d="M112.45 133.062c0 22.556-18.286 40.841-40.842 40.841-22.555 0-40.84-18.285-40.84-40.84 0-22.557 18.285-40.84 40.84-40.84 22.556 0 40.841 18.283 40.841 40.84"/><path fill="var(--color-primary-100)" d="M128.279 156.163h-69.62a5.73 5.73 0 00-5.73 5.729v18.829a5.73 5.73 0 005.73 5.729h9.899v7.114c0 1.907 2.305 2.86 3.653 1.513l8.627-8.627h47.44a5.729 5.729 0 005.73-5.73v-18.828a5.73 5.73 0 00-5.73-5.73"/><path stroke="var(--color-primary-400)" stroke-width="4" d="M128.279 156.163h-69.62a5.73 5.73 0 00-5.73 5.729v18.829a5.73 5.73 0 005.73 5.729h9.899v7.114c0 1.907 2.305 2.86 3.653 1.513l8.627-8.627h47.44a5.729 5.729 0 005.73-5.73v-18.828a5.73 5.73 0 00-5.73-5.73z"/><path stroke="var(--color-primary-300)" stroke-linecap="round" stroke-width="3" d="M123.803 167.139h-44.12M72.826 167.139h-8.771M94.102 176.441h18.165M118.752 176.441h5.05"/><path fill="var(--color-neutral-50)" d="M24.73 107.047h40.41a5.73 5.73 0 015.73 5.729v18.27a5.73 5.73 0 01-5.73 5.73H40.635v7.115c0 1.905-2.304 2.86-3.652 1.512l-8.627-8.627H24.73a5.73 5.73 0 01-5.729-5.73v-18.27a5.73 5.73 0 015.73-5.73"/><path stroke="var(--color-primary-200)" stroke-width="4" d="M24.73 107.047h40.41a5.73 5.73 0 015.73 5.729v18.27a5.73 5.73 0 01-5.73 5.73H40.635v7.115c0 1.905-2.304 2.86-3.652 1.512l-8.627-8.627H24.73a5.73 5.73 0 01-5.729-5.73v-18.27a5.73 5.73 0 015.73-5.73z"/><path stroke="var(--color-primary-200)" stroke-linecap="round" stroke-width="3" d="M55.152 118.023h-5.329M42.59 118.023H28.078M61.047 127.325H28.079"/><path stroke="var(--color-primary-100)" stroke-width="2" d="M142.843 72.265c0-8.028 13.703-14.537 30.607-14.537 16.903 0 30.606 6.51 30.606 14.537M204.056 79.226c0 8.028-13.703 14.537-30.606 14.537-16.904 0-30.607-6.509-30.607-14.537"/><path stroke="var(--color-primary-100)" stroke-width="2" d="M187.917 76.539c0 16.904-6.508 30.607-14.536 30.607-8.028 0-14.537-13.703-14.537-30.607 0-16.903 6.509-30.606 14.537-30.606s14.536 13.703 14.536 30.606z"/><path stroke="var(--color-primary-100)" stroke-width="3" d="M204.302 76.539c0 17.077-13.844 30.92-30.921 30.92-17.077 0-30.921-13.843-30.921-30.92s13.844-30.921 30.92-30.921c17.078 0 30.922 13.844 30.922 30.92z"/><path stroke="var(--color-primary-100)" stroke-width="2" d="M204.302 76.539H142.46M173.381 45.618v61.842"/><path stroke="var(--color-primary-200)" stroke-linecap="round" stroke-width="3" d="M129.174 50.326h-11.688M123.33 44.482V56.17"/><path fill="var(--color-primary-100)" d="M98.349 32h-69.62A5.73 5.73 0 0023 37.73v43.796a5.73 5.73 0 005.73 5.73h9.899v5.69c0 2.432 2.94 3.65 4.658 1.93l7.621-7.62H98.35a5.73 5.73 0 005.73-5.73V37.73a5.73 5.73 0 00-5.73-5.73"/><path stroke="var(--color-primary-400)" stroke-width="4" d="M98.349 32h-69.62A5.73 5.73 0 0023 37.73v43.796a5.73 5.73 0 005.73 5.73h9.899v5.69c0 2.432 2.94 3.65 4.658 1.93l7.621-7.62H98.35a5.73 5.73 0 005.73-5.73V37.73a5.73 5.73 0 00-5.73-5.73z"/><path stroke="var(--color-primary-300)" stroke-linecap="round" stroke-width="3" d="M33.206 43.977h44.12M84.183 43.977h8.771M33.206 61.838h25.515M65.418 61.838h27.535M81.79 53.279H44.74M38.256 53.279h-5.05M38.256 70.023h-5.05M54.86 70.023h-9.608M92.856 53.279h-3.72"/><path fill="var(--color-primary-100)" d="M89.591 146.047h78.721a4.732 4.732 0 004.733-4.732V75.638a4.733 4.733 0 00-4.733-4.733h-78.72a4.732 4.732 0 00-4.733 4.733v65.677a4.731 4.731 0 004.732 4.732"/><path stroke="var(--color-primary-400)" stroke-width="4" d="M89.591 146.047h78.721a4.732 4.732 0 004.733-4.732V75.638a4.733 4.733 0 00-4.733-4.733h-78.72a4.732 4.732 0 00-4.733 4.733v65.677a4.731 4.731 0 004.732 4.732z"/><path fill="var(--color-primary-400)" d="M89.59 70.698h78.723a4.733 4.733 0 014.732 4.732v6.43H84.859v-6.43a4.733 4.733 0 014.732-4.732"/><path fill="var(--color-neutral-50)" d="M167.714 72.844a2.952 2.952 0 11-3.13 5.008 2.952 2.952 0 013.13-5.008M153.213 73.784a2.952 2.952 0 115.007 3.128 2.952 2.952 0 01-5.007-3.128"/><g transform="translate(160 121.708)"><mask id="b" fill="var(--color-neutral-50)"><use href="#a"/></mask><path fill="var(--color-primary-400)" d="M47.746 24.151c0 12.946-10.495 23.442-23.442 23.442C11.36 47.593.864 37.097.864 24.151S11.357.711 24.305.711c12.947 0 23.441 10.494 23.441 23.44" /></g><path fill="var(--color-neutral-50)" d="M194.216 156.258c-.22.942-1.335 1.537-2.32 2.063-.193.103-.38.204-.557.304-.214.12-.48.18-.79.18-.973 0-2.365-.586-3.816-1.647-2.362-1.721-4.695-4.493-6.572-7.801-1.877-3.311-3.057-6.737-3.323-9.647-.216-2.356.219-4.203 1.107-4.706.177-.1.359-.211.547-.323.792-.477 1.67-1.005 2.472-1.005.145 0 .289.018.429.057l.059.016c.632.204 1.19.86 1.663 1.95 1.41 3.268.445 3.806-1.157 4.697l-.308.172c-1.284.729-.8 2.979 1.525 7.077.94 1.66 1.794 2.927 2.538 3.766.792.895 1.504 1.345 2.128 1.345.219 0 .427-.057.624-.168l.31-.178c.698-.402 1.274-.734 1.878-.734.768 0 1.58.538 2.743 2.154.695.964.97 1.782.82 2.429m1.305-3.96c-1.087-1.51-2.622-3.242-4.868-3.242-1.103 0-1.987.412-2.767.846a6.009 6.009 0 01-.213-.228c-.428-.484-1.161-1.453-2.22-3.321-1.224-2.158-1.653-3.331-1.802-3.912 2.504-1.513 3.719-3.495 1.869-7.78-.786-1.815-1.884-2.96-3.264-3.405l-.056-.018-.115-.032a4.246 4.246 0 00-1.121-.15c-1.528 0-2.798.765-3.82 1.378-.178.107-.337.203-.491.29-1.89 1.07-2.751 3.637-2.423 7.222.299 3.275 1.596 7.075 3.653 10.702 2.058 3.628 4.653 6.69 7.307 8.626 1.34.979 3.36 2.148 5.36 2.148.77 0 1.47-.175 2.08-.52.157-.09.323-.177.495-.268 1.26-.674 3.155-1.685 3.642-3.784.329-1.416-.091-2.947-1.246-4.551M136.208 118.431v4.223c0 2.003 1.257 3.792 2.232 4.47l9.475 3.413c3.087.785 4.731 2.603 5.293 4.85l1.248 10.124s-53.028.64-53.609.06l1.263-10.184a6.942 6.942 0 014.384-4.85l9.474-3.413a4.75 4.75 0 003.141-4.47v-4.223"/><path stroke="var(--color-primary-300)" stroke-linejoin="round" stroke-width="2" d="M136.208 118.431v4.223c0 2.003 1.257 3.792 2.232 4.47l9.475 3.413c3.087.785 4.731 2.603 5.293 4.85l1.248 10.124s-53.028.64-53.609.06l1.263-10.184a6.942 6.942 0 014.384-4.85l9.474-3.413a4.75 4.75 0 003.141-4.47v-4.223"/><path fill="var(--color-neutral-50)" d="M132.715 121.869l5.091-4.311a12.947 12.947 0 004.246-12.812l-1.67-7.188a12.206 12.206 0 00-4.97-7.294l-.835-.575a12.217 12.217 0 00-13.85 0l-.834.575a12.202 12.202 0 00-4.97 7.294l-1.67 7.188a12.945 12.945 0 004.245 12.812l5.091 4.31a7.835 7.835 0 0010.126 0"/><path stroke="var(--color-primary-300)" stroke-linejoin="round" stroke-width="2" d="M132.715 121.869l5.091-4.311a12.947 12.947 0 004.246-12.812l-1.67-7.188a12.206 12.206 0 00-4.97-7.294l-.835-.575a12.217 12.217 0 00-13.85 0l-.834.575a12.202 12.202 0 00-4.97 7.294l-1.67 7.188a12.945 12.945 0 004.245 12.812l5.091 4.31a7.835 7.835 0 0010.126 0z"/><path fill="var(--color-primary-200)" d="M141.5 102.369l-2.633-9.315-5.651-4.177-5.993-1.33-6.496 2.142-3.54 3.644-2.265 4.225-1.941 8.832 12.91-11.034 15.965 8.546z"/><path stroke="var(--color-primary-300)" stroke-linejoin="round" stroke-width="2" d="M142.322 105.135l-16.673-9.423-12.668 9.42"/><path fill="var(--color-primary-200)" d="M123.65 133.96l1.107 3.792h5.79l1.106-3.791-4.037-3.297z"/><path stroke="var(--color-primary-300)" stroke-linejoin="round" stroke-width="1.3" d="M123.65 133.96l1.107 3.792h5.79l1.106-3.791-4.037-3.297z"/><path fill="var(--color-primary-200)" d="M122.778 143.883l1.979-6.32h5.79l2.36 6.364"/><path stroke="var(--color-primary-300)" stroke-linecap="round" stroke-linejoin="round" stroke-width="1.3" d="M122.778 143.883l1.979-6.32h5.79l2.36 6.364"/><path fill="var(--color-neutral-50)" d="M136.142 136.848l-8.526-6.185-8.526 6.185-3.61-8.44 2.535-3.539 9.6 4.817 9.603-4.817 2.534 3.54z"/><path stroke="var(--color-primary-300)" stroke-linejoin="round" stroke-width="1.3" d="M136.142 136.848l-8.526-6.185-8.526 6.185-3.61-8.44 2.535-3.539 9.6 4.817 9.603-4.817 2.534 3.54z"/><path stroke="var(--color-primary-300)" stroke-linejoin="round" stroke-width="2" d="M132.715 121.869l5.091-4.311a12.947 12.947 0 004.246-12.812l-1.67-7.188a12.206 12.206 0 00-4.97-7.294l-.835-.575a12.217 12.217 0 00-13.85 0l-.834.575a12.202 12.202 0 00-4.97 7.294l-1.67 7.188a12.945 12.945 0 004.245 12.812l5.091 4.31a7.835 7.835 0 0010.126 0z"/><path fill="var(--color-primary-100)" d="M126.725 108.033l-1.277 4.057c-.32.679.176 1.46.927 1.46h2.555c.75 0 1.247-.781.927-1.46l-1.277-4.057a1.025 1.025 0 00-1.856 0"/><path stroke="var(--color-primary-400)" stroke-width="4" d="M89.591 146.047h78.721"/></g></g></svg>