<svg id="nickel--tour--colleagues" xmlns="http://www.w3.org/2000/svg" viewBox="0 0 224 224"><g fill="none" fill-rule="evenodd"><path fill="none" d="M0 0h224v224H0z"/><path fill="none" d="M0 0h224v224H0z"/><path d="M0 0h224v224H0z"/><g><path fill="var(--color-neutral-50)" d="M114.88 178.187l23.442-10.046"/><path stroke="var(--color-primary-200)" stroke-width="3" d="M114.88 178.187l23.442-10.046"/><path fill="var(--color-neutral-50)" d="M37.857 81.164l12.651-5.954"/><path stroke="var(--color-primary-200)" stroke-width="3" d="M37.857 81.164l12.651-5.954"/><path fill="var(--color-neutral-50)" d="M97.577 176.792l-10.418-5.116"/><path stroke="var(--color-primary-200)" stroke-linecap="round" stroke-width="3" d="M97.577 176.792l-10.418-5.116"/><path fill="var(--color-primary-100)" d="M163.463 90.612c0 22.556-18.285 40.84-40.841 40.84-22.555 0-40.84-18.284-40.84-40.84 0-22.556 18.285-40.841 40.84-40.841 22.556 0 40.84 18.285 40.84 40.84"/><g><path fill="var(--color-neutral-50)" d="M113.484 65.164l16.186-1.396"/><path stroke="var(--color-primary-200)" stroke-linecap="round" stroke-width="3" d="M113.484 65.164l16.186-1.396"/></g><g><path stroke="var(--color-primary-200)" stroke-width="2" d="M77.979 125.472c0-7.25 12.376-13.129 27.642-13.129s27.642 5.878 27.642 13.13M133.262 131.758c0 7.251-12.375 13.13-27.642 13.13-15.266 0-27.642-5.879-27.642-13.13"/><path stroke="var(--color-primary-200)" stroke-width="2" d="M118.687 129.331c0 15.267-5.877 27.642-13.128 27.642S92.43 144.598 92.43 129.331c0-15.266 5.877-27.642 13.128-27.642 7.25 0 13.128 12.376 13.128 27.642z"/><path stroke="var(--color-primary-200)" stroke-width="3" d="M133.484 129.331c0 15.423-12.502 27.926-27.925 27.926s-27.926-12.503-27.926-27.926c0-15.423 12.503-27.926 27.926-27.926 15.423 0 27.925 12.503 27.925 27.926z"/><path stroke="var(--color-primary-200)" stroke-width="2" d="M133.484 129.331H77.633M105.559 101.406v55.852"/><path fill="var(--color-neutral-50)" d="M87.723 157.051c0 16.134-13.08 29.213-29.213 29.213-16.135 0-29.214-13.079-29.214-29.213 0-16.135 13.079-29.214 29.214-29.214 16.133 0 29.213 13.08 29.213 29.214M102.094 189.261a8.89 8.89 0 118.038-15.86 8.89 8.89 0 01-8.038 15.86"/><path stroke="var(--color-primary-200)" stroke-width="3" d="M102.094 189.261a8.89 8.89 0 118.038-15.86 8.89 8.89 0 01-8.038 15.86z"/><path fill="var(--color-neutral-50)" d="M184.14 109.54a8.89 8.89 0 01-3.91-11.948 8.89 8.89 0 0111.947-3.91 8.89 8.89 0 013.911 11.947 8.888 8.888 0 01-11.948 3.911"/><path stroke="var(--color-primary-200)" stroke-width="3" d="M184.14 109.54a8.89 8.89 0 01-3.91-11.948 8.89 8.89 0 0111.947-3.91 8.89 8.89 0 013.911 11.947 8.888 8.888 0 01-11.948 3.911z"/><path fill="var(--color-neutral-50)" d="M26.373 93.54a8.89 8.89 0 118.037-15.858 8.89 8.89 0 01-8.037 15.858"/><path stroke="var(--color-primary-200)" stroke-width="3" d="M26.373 93.54a8.89 8.89 0 118.037-15.858 8.89 8.89 0 01-8.037 15.858z"/><path fill="var(--color-neutral-50)" d="M170.925 46.427a6.887 6.887 0 116.227-12.288 6.888 6.888 0 01-6.227 12.288"/><path stroke="var(--color-primary-200)" stroke-width="3" d="M170.925 46.427a6.887 6.887 0 116.227-12.288 6.888 6.888 0 01-6.227 12.288z"/><path fill="var(--color-neutral-50)" d="M138.356 75.404c-7.626-3.864-10.675-13.18-6.81-20.805 3.864-7.626 13.178-10.674 20.804-6.81 7.626 3.864 10.675 13.178 6.81 20.804-3.864 7.625-13.179 10.675-20.804 6.81"/><path stroke="var(--color-primary-200)" stroke-width="3" d="M138.356 75.404c-7.626-3.864-10.675-13.18-6.81-20.805 3.864-7.626 13.178-10.674 20.804-6.81 7.626 3.864 10.675 13.178 6.81 20.804-3.864 7.625-13.179 10.675-20.804 6.81z"/><path fill="var(--color-primary-100)" d="M101.57 84.787l-9.347-3.677c-.963-.73-2.202-2.657-2.202-4.814v-4.55H73.154v4.55c0 2.156-1.24 4.083-3.099 4.814l-9.346 3.677a6.316 6.316 0 00-1.066.556c-.033.009-.064.025-.097.035 5.354 6.088 13.195 9.933 21.94 9.933 8.685 0 16.48-3.794 21.831-9.809a8.492 8.492 0 00-1.748-.715"/><path stroke="var(--color-primary-300)" stroke-linejoin="round" stroke-width="2" d="M101.57 84.787l-9.347-3.677c-.963-.73-2.202-2.657-2.202-4.814v-4.55H73.154v4.55c0 2.156-1.24 4.083-3.099 4.814l-9.346 3.677a6.316 6.316 0 00-1.066.556c-.033.009-.064.025-.097.035 5.354 6.088 13.195 9.933 21.94 9.933 8.685 0 16.48-3.794 21.831-9.809a8.492 8.492 0 00-1.748-.715z"/><path fill="var(--color-primary-100)" d="M87.723 157.051c0 16.134-13.08 29.213-29.213 29.213-16.135 0-29.214-13.079-29.214-29.213 0-16.135 13.079-29.214 29.214-29.214 16.133 0 29.213 13.08 29.213 29.214"/><path fill="var(--color-primary-200)" d="M78.553 153.295c1.652 11.217-7.51 20.31-19.854 20.31-12.343 0-21.505-9.093-19.853-20.31 1.733-11.217 10.895-20.308 19.853-20.309 8.959 0 18.122 9.093 19.854 20.31"/><path fill="var(--color-primary-100)" d="M79.624 178.768l-10.659-1.994a2.198 2.198 0 01-1.794-2.16v-7.823H50.458v7.844c0 1.048-.74 1.95-1.768 2.155l-10.787 2.256 2.372 4.047 11.442 4.744 12.977-.139 12-5.442 2.93-3.488z"/><path stroke="var(--color-primary-300)" stroke-width="2" d="M79.624 178.768l-10.659-1.994a2.198 2.198 0 01-1.794-2.16v-7.823H50.458v7.844c0 1.048-.74 1.95-1.768 2.155l-10.787 2.256 2.372 4.047 11.442 4.744 12.977-.139 12-5.442 2.93-3.488z"/><path fill="var(--color-neutral-50)" d="M71.126 150.47c-3.245-.04-6.909-1.334-10.064-3.833a18.454 18.454 0 01-2.323-2.203 18.513 18.513 0 01-2.322 2.203c-3.116 2.468-6.727 3.76-9.94 3.828l-1.496 6.438a10.02 10.02 0 003.287 9.917l6.835 5.786a5.725 5.725 0 007.396 0l6.835-5.786a10.024 10.024 0 003.287-9.917l-1.495-6.434z"/><path stroke="var(--color-primary-300)" stroke-linejoin="round" stroke-width="2" d="M71.126 150.47c-3.245-.04-6.909-1.334-10.064-3.833a18.454 18.454 0 01-2.323-2.203 18.513 18.513 0 01-2.322 2.203c-3.116 2.468-6.727 3.76-9.94 3.828l-1.496 6.438a10.02 10.02 0 003.287 9.917l6.835 5.786a5.725 5.725 0 007.396 0l6.835-5.786a10.024 10.024 0 003.287-9.917l-1.495-6.434z"/><path stroke="var(--color-primary-300)" stroke-linecap="round" stroke-width="2" d="M43.795 150.181c.894.218 1.854.314 2.853.293 3.212-.07 6.825-1.37 9.94-3.837a18.383 18.383 0 002.322-2.203 18.44 18.44 0 002.322 2.203c3.154 2.498 6.821 3.801 10.064 3.841.954.012 1.871-.086 2.728-.294"/><path fill="var(--color-primary-100)" d="M57.944 157.684l-1.33 4.225c-.333.707.184 1.52.966 1.52h2.66c.782 0 1.298-.813.966-1.52l-1.33-4.225c-.385-.817-1.548-.817-1.932 0"/><path stroke="var(--color-primary-300)" stroke-linecap="round" stroke-width="2" d="M68.88 177.674c-2.966 3.078-6.56 4.884-10.435 4.884-3.809 0-7.346-1.74-10.282-4.72"/><path fill="var(--color-primary-300)" d="M89.704 72.542v3.271c0 2.033 1.275 3.847 2.265 4.537l.058.02a14.413 14.413 0 0010.055-5.576 8.861 8.861 0 01-7.733-7.822 12.28 12.28 0 01-2.626 3.11l-2.905 2.46h.886zM73.386 72.542v3.271c0 2.033-1.275 3.847-2.265 4.537l-.058.02a14.413 14.413 0 01-10.055-5.576 8.861 8.861 0 007.733-7.822 12.28 12.28 0 002.626 3.11l2.906 2.46h-.887z"/><path fill="var(--color-neutral-50)" d="M86.449 75.243l5.321-4.504a12.4 12.4 0 004.067-12.272l-1.758-7.565a11.375 11.375 0 00-4.63-6.796l-.7-.48a12.643 12.643 0 00-14.338 0l-.7.48a11.38 11.38 0 00-4.63 6.795l-1.757 7.566A12.399 12.399 0 0071.39 70.74l5.322 4.504a7.534 7.534 0 009.737 0"/><path stroke="var(--color-primary-300)" stroke-linejoin="round" stroke-width="2" d="M86.449 75.243l5.321-4.504a12.4 12.4 0 004.067-12.272l-1.758-7.565a11.375 11.375 0 00-4.63-6.796l-.7-.48a12.643 12.643 0 00-14.338 0l-.7.48a11.38 11.38 0 00-4.63 6.795l-1.757 7.566A12.399 12.399 0 0071.39 70.74l5.322 4.504a7.534 7.534 0 009.737 0z"/><path fill="var(--color-primary-200)" d="M79.236 47.198a13.884 13.884 0 0012.206 8.624c.927 2.354 2.33 4.224 4.689 5.138-.051-.563.339-1.124.209-1.684l-1.727-7.432a13.343 13.343 0 00-5.434-7.974 13.356 13.356 0 00-16.808 1.357c-1.927 1.835-3.212 4.243-3.815 6.835l-.914 3.935.003.004c5.592.163 10.322-3.64 11.59-8.803"/><path stroke="var(--color-primary-300)" stroke-linejoin="round" stroke-width="2" d="M79.236 47.198a13.884 13.884 0 0012.206 8.624c.927 2.354 2.33 4.224 4.689 5.138-.051-.563.339-1.124.209-1.684l-1.727-7.432a13.343 13.343 0 00-5.434-7.974 13.356 13.356 0 00-16.808 1.357c-1.927 1.835-3.212 4.243-3.815 6.835l-.914 3.935.003.004c5.592.163 10.322-3.64 11.59-8.803z"/><path fill="var(--color-primary-100)" d="M96.502 61.542c-.228 2.238.58 4.155 1.807 4.28 1.227.125 2.406-1.589 2.634-3.828.228-2.239-.582-4.155-1.808-4.28s-2.405 1.59-2.633 3.828"/><path stroke="var(--color-primary-300)" stroke-linejoin="round" stroke-width="2" d="M96.502 61.542c-.228 2.238.58 4.155 1.807 4.28 1.227.125 2.406-1.589 2.634-3.828.228-2.239-.582-4.155-1.808-4.28s-2.405 1.59-2.633 3.828z"/><path fill="var(--color-primary-100)" d="M94.132 68.05l.913.092a3.335 3.335 0 003.654-2.979l.625-6.132a3.335 3.335 0 00-2.98-3.654l-.912-.093-1.3 12.765z"/><path stroke="var(--color-primary-300)" stroke-linejoin="round" stroke-width="2" d="M94.132 68.05l.913.092a3.335 3.335 0 003.654-2.979l.625-6.132a3.335 3.335 0 00-2.98-3.654l-.912-.093-1.3 12.765z"/><path fill="var(--color-primary-100)" d="M66.762 61.542c.228 2.238-.581 4.155-1.808 4.28-1.226.125-2.405-1.589-2.633-3.828-.228-2.239.581-4.155 1.808-4.28 1.226-.125 2.405 1.59 2.633 3.828"/><path stroke="var(--color-primary-300)" stroke-linejoin="round" stroke-width="2" d="M66.762 61.542c.228 2.238-.581 4.155-1.808 4.28-1.226.125-2.405-1.589-2.633-3.828-.228-2.239.581-4.155 1.808-4.28 1.226-.125 2.405 1.59 2.633 3.828z"/><path fill="var(--color-primary-100)" d="M69.132 68.05l-.913.092a3.334 3.334 0 01-3.654-2.979l-.625-6.132a3.334 3.334 0 012.98-3.654l.912-.093 1.3 12.765z"/><path stroke="var(--color-primary-300)" stroke-linejoin="round" stroke-width="2" d="M69.132 68.05l-.913.092a3.334 3.334 0 01-3.654-2.979l-.625-6.132a3.334 3.334 0 012.98-3.654l.912-.093 1.3 12.765z"/><path fill="var(--color-primary-300)" d="M58.51 123.837c-18.314 0-33.213 14.9-33.213 33.214 0 18.313 14.898 33.213 33.213 33.213 18.313 0 33.212-14.9 33.212-33.213 0-18.315-14.9-33.214-33.212-33.214m0 4c16.134 0 29.212 13.08 29.212 29.214s-13.078 29.213-29.212 29.213-29.213-13.079-29.213-29.213c0-16.135 13.078-29.214 29.213-29.214"/><path fill="var(--color-primary-100)" d="M80.417 61.588l-1.277 4.058c-.32.68.176 1.46.927 1.46h2.555c.751 0 1.247-.78.927-1.46l-1.277-4.058a1.026 1.026 0 00-1.855 0"/><path fill="var(--color-primary-200)" d="M93.463 81.903l-1.693 5.603a2.41 2.41 0 01-3.267 1.512l-6.783-2.946-7.173 2.997a2.41 2.41 0 01-3.235-1.526l-1.744-5.77.03-.04-8.704 3.425a6.23 6.23 0 00-1.065.556c-.033.008-.064.024-.097.034 5.351 6.085 13.19 9.93 21.93 9.93 8.681 0 16.473-3.792 21.822-9.805a8.404 8.404 0 00-1.747-.715l-8.274-3.255z"/><path fill="var(--color-neutral-50)" d="M88.515 88.835l-6.785-2.948-7.177 2.998a2.41 2.41 0 01-3.237-1.527l-1.744-5.77 2.501-3.49 6.52 4.83a4.835 4.835 0 005.714.03l6.71-4.86 2.5 3.49-1.734 5.733a2.41 2.41 0 01-3.268 1.514"/><path stroke="var(--color-primary-300)" d="M88.515 88.835l-6.785-2.948-7.177 2.998a2.41 2.41 0 01-3.237-1.527l-1.744-5.77 2.501-3.49 6.52 4.83a4.835 4.835 0 005.714.03l6.71-4.86 2.5 3.49-1.734 5.733a2.41 2.41 0 01-3.268 1.514z"/><path fill="var(--color-primary-100)" d="M189.67 175.676l-9.474-3.413c-.976-.68-2.233-2.468-2.233-4.47v-4.223h-17.098v4.222a4.755 4.755 0 01-3.14 4.471l-9.476 3.413c-1.078.388-3.457 1.551-4.207 2.372 5.71 6.882 15.757 13.395 25.397 13.395 9.597 0 19.267-6.288 24.975-13.117-.872-.863-3.16-2.249-4.744-2.65"/><path stroke="var(--color-primary-300)" stroke-linejoin="round" stroke-width="2" d="M189.67 175.676l-9.474-3.413c-.976-.68-2.233-2.468-2.233-4.47v-4.223h-17.098v4.222a4.755 4.755 0 01-3.14 4.471l-9.476 3.413c-1.078.388-3.457 1.551-4.207 2.372 5.71 6.882 15.757 13.395 25.397 13.395 9.597 0 19.267-6.288 24.975-13.117-.872-.863-3.16-2.249-4.744-2.65z"/><path fill="var(--color-neutral-50)" d="M174.47 167.007l5.091-4.31a12.947 12.947 0 004.246-12.813l-1.67-7.188a12.206 12.206 0 00-4.97-7.294l-.834-.575a12.217 12.217 0 00-13.851 0l-.833.575a12.202 12.202 0 00-4.971 7.294l-1.67 7.188a12.945 12.945 0 004.245 12.812l5.092 4.311a7.835 7.835 0 0010.125 0"/><path stroke="var(--color-primary-300)" stroke-linejoin="round" stroke-width="2" d="M174.47 167.007l5.091-4.31a12.947 12.947 0 004.246-12.813l-1.67-7.188a12.206 12.206 0 00-4.97-7.294l-.834-.575a12.217 12.217 0 00-13.851 0l-.833.575a12.202 12.202 0 00-4.971 7.294l-1.67 7.188a12.945 12.945 0 004.245 12.812l5.092 4.311a7.835 7.835 0 0010.125 0z"/><path fill="var(--color-primary-200)" d="M183.255 147.507l-2.633-9.315-5.65-4.177-5.994-1.329-6.496 2.141-3.54 3.644-2.265 4.225-1.94 8.832 12.91-11.035 15.964 8.547z"/><path stroke="var(--color-primary-300)" stroke-linejoin="round" stroke-width="2" d="M184.077 150.274l-16.673-9.423-12.668 9.419"/><path fill="var(--color-primary-200)" d="M165.406 179.099l1.105 3.791h5.791l1.106-3.791-4.037-3.297z"/><path stroke="var(--color-primary-300)" stroke-linejoin="round" stroke-width="1.3" d="M165.406 179.099l1.105 3.791h5.791l1.106-3.791-4.037-3.297z"/><path fill="var(--color-primary-200)" d="M164.533 189.022l1.979-6.322h5.791l2.36 6.364"/><path stroke="var(--color-primary-300)" stroke-linecap="round" stroke-linejoin="round" stroke-width="1.3" d="M164.533 189.022l1.979-6.322h5.791l2.36 6.364"/><path fill="var(--color-neutral-50)" d="M177.897 181.987l-8.526-6.185-8.526 6.185-3.61-8.44 2.535-3.54 9.6 4.818 9.603-4.817 2.534 3.539z"/><path stroke="var(--color-primary-300)" stroke-linejoin="round" stroke-width="1.3" d="M177.897 181.987l-8.526-6.185-8.526 6.185-3.61-8.44 2.535-3.54 9.6 4.818 9.603-4.817 2.534 3.539z"/><path stroke="var(--color-primary-300)" stroke-linejoin="round" stroke-width="2" d="M174.47 167.007l5.091-4.31a12.947 12.947 0 004.246-12.813l-1.67-7.188a12.206 12.206 0 00-4.97-7.294l-.834-.575a12.217 12.217 0 00-13.851 0l-.833.575a12.202 12.202 0 00-4.971 7.294l-1.67 7.188a12.945 12.945 0 004.245 12.812l5.092 4.311a7.835 7.835 0 0010.125 0z"/><path fill="var(--color-primary-100)" d="M168.48 153.171l-1.277 4.057c-.32.68.176 1.461.927 1.461h2.555c.75 0 1.247-.782.927-1.46l-1.277-4.058a1.025 1.025 0 00-1.855 0"/><path fill="var(--color-primary-400)" d="M169.522 124.39c-18.86 0-34.203 15.342-34.203 34.202s15.343 34.202 34.203 34.202c18.859 0 34.203-15.342 34.203-34.202s-15.344-34.203-34.203-34.203m0 4c16.68 0 30.203 13.522 30.203 30.203 0 16.681-13.522 30.202-30.203 30.202-16.681 0-30.203-13.52-30.203-30.202 0-16.68 13.522-30.203 30.203-30.203"/><path fill="var(--color-neutral-50)" d="M168.461 45.35l-9.488 7.256"/><path stroke="var(--color-primary-200)" stroke-linecap="round" stroke-width="3" d="M168.461 45.35l-9.488 7.256"/><path fill="var(--color-neutral-50)" d="M181.856 95.304l-24.558-23.442"/><path stroke="var(--color-primary-200)" stroke-linecap="round" stroke-width="3" d="M181.856 95.304l-24.558-23.442"/><path fill="var(--color-neutral-50)" d="M138.844 34.968a5.339 5.339 0 116.768-8.26 5.339 5.339 0 01-6.767 8.26"/><path stroke="var(--color-primary-200)" stroke-width="3" d="M138.844 34.968a5.339 5.339 0 116.768-8.26 5.339 5.339 0 01-6.767 8.26z"/><path fill="var(--color-neutral-50)" d="M124.761 199.677a5.34 5.34 0 116.77-8.26 5.34 5.34 0 01-6.77 8.26"/><path stroke="var(--color-primary-200)" stroke-width="3" d="M124.761 199.677a5.34 5.34 0 116.77-8.26 5.34 5.34 0 01-6.77 8.26z"/><g><path fill="var(--color-neutral-50)" d="M113.484 186.559l9.488 5.861"/><path stroke="var(--color-primary-200)" stroke-width="3" d="M113.484 186.559l9.488 5.861"/></g><path fill="var(--color-primary-400)" d="M81.486 32.885c-18.314 0-33.213 14.9-33.213 33.214 0 18.313 14.899 33.213 33.213 33.213s33.213-14.9 33.213-33.213c0-18.315-14.9-33.214-33.213-33.214m0 4c16.134 0 29.213 13.08 29.213 29.214s-13.08 29.213-29.213 29.213c-16.134 0-29.213-13.079-29.213-29.213 0-16.135 13.079-29.214 29.213-29.214"/></g></g></g></svg>