<svg id="other--message--success" xmlns="http://www.w3.org/2000/svg" xlink="http://www.w3.org/1999/xlink" viewBox="0 0 224 224"><defs><path id="a" d="M0 187.771h194.222V0H0z"/></defs><g fill="none" fill-rule="evenodd"><g transform="translate(15 18)"><path fill="var(--color-primary-50)" d="M177.775 119.568c-9.532 43.143-52.233 70.39-95.375 60.856-43.143-9.532-70.389-52.233-60.857-95.376 9.532-43.142 52.233-70.388 95.376-60.856 43.142 9.532 70.388 52.233 60.856 95.376"/><mask id="b" fill="var(--color-neutral-50)"><use href="#a"/></mask><path fill="var(--color-primary-100)" d="M118.847 186.271h10.713v-65.77h-10.713z" /><path stroke="var(--color-primary-200)" stroke-linejoin="round" stroke-width="3" d="M118.847 186.271h10.713v-65.77h-10.713z" /><path fill="var(--color-primary-50)" d="M88.18 52.913c-18.72 0-33.895 15.176-33.895 33.896v28.496a8.413 8.413 0 008.413 8.413H181.095a3.25 3.25 0 003.25-3.25V86.81c0-18.72-15.176-33.896-33.896-33.896H88.18z" /><path stroke="var(--color-primary-600)" stroke-width="3" d="M88.18 52.913h0c-18.72 0-33.895 15.176-33.895 33.896v28.496a8.413 8.413 0 008.413 8.413H181.095a3.25 3.25 0 003.25-3.25V86.81c0-18.72-15.176-33.896-33.896-33.896h0H88.18z" /><path fill="var(--color-primary-200)" d="M182.097 79.025h-64.444c.588 2.501.909 5.104.909 7.783v35.571h62.274a2.17 2.17 0 002.17-2.17v-33.4c0-2.68-.321-5.284-.91-7.784" /><path fill="var(--color-primary-600)" d="M157.37 79.71a6.863 6.863 0 11-13.726 0 6.863 6.863 0 0113.726 0" /><path fill="var(--color-primary-100)" d="M171.14 43.297h-20.478V27.99h20.478c.876 0 1.585.71 1.585 1.586v12.135c0 .875-.709 1.585-1.585 1.585" /><path stroke="var(--color-primary-600)" stroke-linejoin="round" stroke-width="3" d="M171.14 43.297h-20.478V27.99h20.478c.876 0 1.585.71 1.585 1.586v12.135c0 .875-.709 1.585-1.585 1.585z" /><path stroke="var(--color-primary-600)" stroke-linecap="round" stroke-width="4" d="M150.507 79.71V28.559" /><path fill="var(--color-neutral-50)" d="M153.657 79.71a3.15 3.15 0 11-6.299 0 3.15 3.15 0 016.3 0" /><path fill="var(--color-primary-400)" d="M118.562 123.718h-60.37a7.423 7.423 0 01-7.422-7.423V82.82c0-16.518 13.39-29.908 29.908-29.908h7.977c16.517 0 29.907 13.39 29.907 29.908v40.897z" /><path stroke="var(--color-primary-600)" stroke-width="3" d="M118.562 123.718h-60.37a7.423 7.423 0 01-7.422-7.423V82.82c0-16.518 13.39-29.908 29.908-29.908h7.977c16.517 0 29.907 13.39 29.907 29.908v40.897z" /><path stroke="var(--color-primary-600)" stroke-linecap="round" stroke-width="3" d="M111.306 53.617c10.735 5.688 18.048 16.976 18.048 29.971v39.481" /><path stroke="var(--color-primary-600)" stroke-linecap="round" stroke-width="2" d="M141.159 114.428h11.549M162.249 114.428h21.593" /><path fill="var(--color-neutral-50)" d="M62.736 74.276v36.535c0 .643.52 1.164 1.163 1.164h54.663V81.966c0-3.079-.46-6.05-1.305-8.853H63.899c-.642 0-1.163.52-1.163 1.163" /><path stroke="var(--color-primary-500)" stroke-linecap="round" stroke-width="2" d="M62.736 74.276v36.535c0 .643.52 1.164 1.163 1.164h54.663V81.966c0-3.079-.46-6.05-1.305-8.853H63.899c-.642 0-1.163.52-1.163 1.163z" /><path fill="var(--color-primary-100)" d="M118.692 78.513L103.26 91.278l14.764 14.669z" /><g ><path fill="var(--color-neutral-50)" d="M103.149 91.695l15.353 15.3"/><path stroke="var(--color-primary-200)" stroke-linecap="round" stroke-width="2" d="M103.149 91.695l15.353 15.3"/></g><g ><path fill="var(--color-neutral-50)" d="M83.507 91.695l-20.136 20.137"/><path stroke="var(--color-primary-500)" stroke-linecap="round" stroke-width="2" d="M83.507 91.695l-20.136 20.137"/></g><path stroke="var(--color-primary-500)" stroke-linecap="round" stroke-linejoin="round" stroke-width="2.2" d="M116.862 72.895H63.33a.346.346 0 00-.219.614l25.824 21.18a6.652 6.652 0 008.438 0l20.502-16.815a30.412 30.412 0 00-1.013-4.978z" /><path stroke="var(--color-primary-600)" stroke-width="3" d="M87.937 52.913c16.914 0 30.625 13.712 30.625 30.625v40.18" /><path fill="var(--color-primary-200)" d="M38.53 114.554h80.032v9.122H38.53a3.112 3.112 0 01-3.113-3.112v-2.898a3.113 3.113 0 013.113-3.112" /><path stroke="var(--color-primary-600)" stroke-width="3" d="M38.53 114.554h80.032v9.122H38.53a3.112 3.112 0 01-3.113-3.112v-2.898a3.113 3.113 0 013.113-3.112z" /><path fill="var(--color-neutral-50)" d="M83.05 7.137h-1.285c-.802-3.374-3.828-5.887-7.447-5.887-3.62 0-6.644 2.513-7.447 5.887h-1.285a4.709 4.709 0 100 9.419h8.39c.114.006.227.018.343.018.114 0 .227-.012.341-.018h8.39a4.709 4.709 0 100-9.419" /><path stroke="var(--color-primary-200)" stroke-linecap="round" stroke-linejoin="round" stroke-width="2.5" d="M83.05 7.137h-1.285c-.802-3.374-3.828-5.887-7.447-5.887-3.62 0-6.644 2.513-7.447 5.887h-1.285a4.709 4.709 0 100 9.419h8.39c.114.006.227.018.343.018.114 0 .227-.012.341-.018h8.39a4.709 4.709 0 100-9.419z" /><path fill="var(--color-neutral-50)" d="M46.502 35.786H44.74c-1.098-4.622-5.242-8.063-10.2-8.063-4.958 0-9.103 3.441-10.201 8.063h-1.761a6.451 6.451 0 000 12.902H34.07c.157.007.31.024.47.024.158 0 .313-.017.469-.024h11.492a6.45 6.45 0 100-12.902" /><path stroke="var(--color-primary-200)" stroke-linecap="round" stroke-linejoin="round" stroke-width="3" d="M46.502 35.786H44.74c-1.098-4.622-5.242-8.063-10.2-8.063-4.958 0-9.103 3.441-10.201 8.063h-1.761a6.451 6.451 0 000 12.902H34.07c.157.007.31.024.47.024.158 0 .313-.017.469-.024h11.492a6.45 6.45 0 100-12.902z" /><path fill="var(--color-primary-100)" d="M56.437 174.092h96.969v-13.177H56.437z" /><path stroke="var(--color-primary-200)" stroke-linecap="round" stroke-linejoin="round" stroke-width="2.5" d="M56.437 174.092h96.969v-13.177H56.437z" /><path fill="var(--color-neutral-50)" d="M111.794 186.482v-36.378l-7.199-7.46-7.199 7.46v36.378z" /><path stroke="var(--color-primary-200)" stroke-linecap="round" stroke-linejoin="round" stroke-width="2.5" d="M111.794 186.482v-36.378l-7.199-7.46-7.199 7.46v36.378z" /><path fill="var(--color-neutral-50)" d="M144.13 186.482v-36.378l-7.199-7.46-7.199 7.46v36.378z" /><path stroke="var(--color-primary-200)" stroke-linecap="round" stroke-linejoin="round" stroke-width="2.5" d="M144.13 186.482v-36.378l-7.199-7.46-7.199 7.46v36.378z" /><path fill="var(--color-primary-100)" d="M79.458 186.482v-36.378l-7.199-7.46-7.199 7.46v36.378z" /><path stroke="var(--color-primary-200)" stroke-linecap="round" stroke-linejoin="round" stroke-width="2.5" d="M79.458 186.482v-36.378l-7.199-7.46-7.199 7.46v36.378z" /><path stroke="var(--color-primary-500)" stroke-dasharray="6,8" stroke-linecap="round" stroke-width="2.5" d="M1.25 107.129c9.46-15.033 27.584-23.361 45.987-19.505" /><path stroke="var(--color-primary-200)" stroke-linecap="round" stroke-linejoin="round" stroke-width="2.5" d="M159.159 173.733a4.73 4.73 0 01-1.086-4.145c.377-1.809 1.853-3.263 3.667-3.618a4.85 4.85 0 011.929.007c.674.142 1.358-.29 1.544-.954a8.356 8.356 0 0116.078 0c.188.663.872 1.096 1.546.954a4.836 4.836 0 011.93-.007c1.813.356 3.289 1.81 3.666 3.62a4.732 4.732 0 01-1.087 4.143M152.74 174.116h40.232" /></g><path fill="none" d="M0 0h224v224H0z"/><path fill="none" d="M0 0h224v224H0z"/><path d="M0 0h224v224H0z"/></g></svg>