<svg id="other--avatar--dummy" xmlns="http://www.w3.org/2000/svg" xlink="http://www.w3.org/1999/xlink" viewBox="0 0 80 80"><defs><path id="a" d="M0 0h80v80H0z"/></defs><g fill="none" fill-rule="evenodd"><mask id="b" fill="var(--color-neutral-50)"><use href="#a"/></mask><path fill="var(--color-primary-100)" d="M80 40c0 22.092-17.908 40-40 40C17.909 80 0 62.092 0 40 0 17.909 17.909 0 40 0c22.092 0 40 17.909 40 40" /><path fill="var(--color-neutral-50)" d="M31.7 35.528v4.223a4.75 4.75 0 01-3.142 4.47l-9.474 3.413a6.95 6.95 0 00-4.384 4.85l-1.263 5.053a4.019 4.019 0 001.905 4.464l19.054 10.894a10.79 10.79 0 0010.536.1l20.144-11.016a4.02 4.02 0 001.97-4.501l-1.248-4.994c-.562-2.246-2.205-4.064-5.293-4.85l-9.474-3.413c-.977-.678-2.232-2.466-2.232-4.47v-4.223"/><path stroke="var(--color-primary-400)" stroke-width="2" d="M31.7 35.528v4.223a4.75 4.75 0 01-3.142 4.47l-9.474 3.413a6.95 6.95 0 00-4.384 4.85l-1.263 5.053a4.019 4.019 0 001.905 4.464l19.054 10.894a10.79 10.79 0 0010.536.1l20.144-11.016a4.02 4.02 0 001.97-4.501l-1.248-4.994c-.562-2.246-2.205-4.064-5.293-4.85l-9.474-3.413c-.977-.678-2.232-2.466-2.232-4.47v-4.223"/><path fill="var(--color-neutral-50)" d="M45.305 38.965l5.091-4.31a12.95 12.95 0 004.246-12.813l-1.67-7.187A12.207 12.207 0 0048 7.36l-.833-.574a12.214 12.214 0 00-13.85 0l-.834.574a12.207 12.207 0 00-4.972 7.294l-1.67 7.188a12.95 12.95 0 004.246 12.813l5.091 4.31a7.837 7.837 0 0010.127 0"/><path stroke="var(--color-primary-400)" stroke-width="2" d="M45.305 38.965l5.091-4.31a12.95 12.95 0 004.246-12.813l-1.67-7.187A12.207 12.207 0 0048 7.36l-.833-.574a12.214 12.214 0 00-13.85 0l-.834.574a12.207 12.207 0 00-4.972 7.294l-1.67 7.188a12.95 12.95 0 004.246 12.813l5.091 4.31a7.837 7.837 0 0010.127 0z"/><path fill="var(--color-primary-200)" d="M54.09 19.466l-2.634-9.316-5.65-4.176-5.994-1.33-6.496 2.143-3.539 3.643-2.266 4.225-1.94 8.833 12.91-11.035L54.444 21z"/><path stroke="var(--color-primary-400)" stroke-linejoin="round" stroke-width="2" d="M54.912 22.232L38.239 12.81 25.57 22.23"/><path fill="var(--color-primary-200)" d="M36.24 51.058l1.106 3.791h5.79l1.107-3.79-4.037-3.298z"/><path stroke="var(--color-primary-400)" stroke-width="1.3" d="M36.24 51.058l1.106 3.791h5.79l1.107-3.79-4.037-3.298z"/><path fill="var(--color-primary-200)" d="M35.368 73.387l1.979-18.729h5.79l1.36 18.771a9.424 9.424 0 01-8.99.033l-.14-.075z"/><path stroke="var(--color-primary-400)" stroke-width="1.3" d="M35.368 73.387l1.979-18.729h5.79l1.36 18.771a9.424 9.424 0 01-8.99.033l-.14-.075z"/><path fill="var(--color-neutral-50)" d="M48.731 53.946l-8.525-6.185-8.527 6.185-3.61-8.44 2.535-3.539 9.602 4.816 9.601-4.816 2.534 3.539z"/><path stroke="var(--color-primary-400)" stroke-width="1.3" d="M48.731 53.946l-8.525-6.185-8.527 6.185-3.61-8.44 2.535-3.539 9.602 4.816 9.601-4.816 2.534 3.539z"/><path stroke="var(--color-primary-400)" stroke-width="2" d="M45.305 38.965l5.091-4.31a12.95 12.95 0 004.246-12.813l-1.67-7.187A12.207 12.207 0 0048 7.36l-.833-.574a12.214 12.214 0 00-13.85 0l-.834.574a12.207 12.207 0 00-4.972 7.294l-1.67 7.188a12.95 12.95 0 004.246 12.813l5.091 4.31a7.837 7.837 0 0010.127 0z"/><path fill="var(--color-primary-100)" d="M39.314 25.13l-1.277 4.058c-.32.679.176 1.46.927 1.46h2.555c.751 0 1.247-.781.927-1.46l-1.277-4.057a1.025 1.025 0 00-1.855 0"/><path stroke="var(--color-primary-400)" stroke-width="2" d="M34.396 72.895a10.79 10.79 0 0010.536.1"/></g></svg>