<svg id="other--cookies" xmlns="http://www.w3.org/2000/svg" viewBox="0 0 120 120"><defs><path id="a" d="M0 0h120v120H0z"/></defs><g fill="none" fill-rule="evenodd"><path fill="var(--color-primary-100)" d="M47.166 105.41C18.774 98.323 1.502 69.559 8.59 41.166 15.678 12.773 44.441-4.498 72.834 2.59c28.393 7.087 45.664 35.851 38.576 64.244-7.088 28.392-35.85 45.664-64.244 38.576z"/><path fill="var(--color-primary-400)" d="M103.942 15.703a3.629 3.629 0 11-7.171 1.121 3.629 3.629 0 017.17-1.12"/><path fill="var(--color-primary-300)" d="M103.13 37.224a2.613 2.613 0 11-5.165.807 2.613 2.613 0 015.165-.807"/><path fill="var(--color-primary-400)" d="M112.897 27.884a2.604 2.604 0 11-5.146.804 2.604 2.604 0 015.146-.804M46.903 94.744a3.07 3.07 0 11-6.067.948 3.07 3.07 0 016.067-.948"/><path fill="var(--color-primary-100)" d="M66.387 48.291c2.53 16.18-8.538 31.345-24.717 33.874-16.179 2.528-31.346-8.538-33.874-24.718-2.529-16.178 8.537-31.344 24.717-33.874 16.18-2.528 31.346 8.538 33.874 24.718"/><path stroke="var(--color-primary-600)" stroke-width="4" d="M66.387 48.291c2.53 16.18-8.538 31.345-24.717 33.874-16.179 2.528-31.346-8.538-33.874-24.718-2.529-16.178 8.537-31.344 24.717-33.874 16.18-2.528 31.346 8.538 33.874 24.718z"/><path fill="var(--color-primary-300)" d="M39.517 78.477c.097.619.218 1.229.352 1.833a29.615 29.615 0 001.853-.225c16.18-2.528 27.246-17.694 24.717-33.874a29.655 29.655 0 00-.351-1.833c-.616.058-1.234.127-1.854.224-16.18 2.529-27.246 17.695-24.717 33.875"/><path fill="var(--color-primary-600)" d="M34.268 34.645a3.63 3.63 0 11-7.172 1.12 3.63 3.63 0 017.172-1.12M40.231 52.92a3.63 3.63 0 11-7.171 1.12 3.63 3.63 0 017.171-1.12"/><path fill="var(--color-primary-400)" d="M30.723 65.28a3.629 3.629 0 11-7.17 1.122 3.629 3.629 0 017.17-1.121"/><path fill="var(--color-primary-200)" d="M112.35 65.017a5.89 5.89 0 01-3.8-4.364 1.457 1.457 0 00-1.714-1.131l-.265.058c-.1.023-.2.046-.304.062-7.04 1.1-13.661-3.732-14.761-10.771a12.79 12.79 0 01-.093-3.2c.205-2.103-.601-4.14-2.158-5.446A5.927 5.927 0 0187.2 34.85a3 3 0 00-.76-2.481 2.88 2.88 0 00-2.312-.928 29.48 29.48 0 00-2.743.3 30.38 30.38 0 00-20.356 12.884c-4.76 6.996-6.355 15.418-4.492 23.712 3.289 14.637 17.04 24.73 31.985 23.478.744-.062 1.478-.15 2.206-.264 11.454-1.791 20.85-9.862 24.279-21.067.698-2.28-.47-4.681-2.657-5.467"/><path stroke="var(--color-primary-300)" stroke-width="2.5" d="M112.35 65.017a5.89 5.89 0 01-3.8-4.364 1.457 1.457 0 00-1.714-1.131l-.265.058c-.1.023-.2.046-.304.062-7.04 1.1-13.661-3.732-14.761-10.771a12.79 12.79 0 01-.093-3.2c.205-2.103-.601-4.14-2.158-5.446A5.927 5.927 0 0187.2 34.85a3 3 0 00-.76-2.481 2.88 2.88 0 00-2.312-.928 29.48 29.48 0 00-2.743.3 30.38 30.38 0 00-20.356 12.884c-4.76 6.996-6.355 15.418-4.492 23.712 3.289 14.637 17.04 24.73 31.985 23.478.744-.062 1.478-.15 2.206-.264 11.454-1.791 20.85-9.862 24.279-21.067.698-2.28-.47-4.681-2.657-5.467z"/><path fill="var(--color-primary-400)" d="M26.224 49.24a4.25 4.25 0 11-8.396 1.314 4.25 4.25 0 018.396-1.313M59.564 55.227a3.513 3.513 0 11-6.942 1.084 3.513 3.513 0 016.942-1.084M48.153 36.43a2.955 2.955 0 11-5.839.912 2.955 2.955 0 015.839-.912"/><path fill="var(--color-neutral-50)" d="M101.32 64.147c-.216.044-.428.1-.65.136-8.074 1.26-15.643-4.261-16.905-12.335a14.72 14.72 0 01.497-6.655 7.605 7.605 0 01-4.92-5.974 7.572 7.572 0 01.506-4.108 29.976 29.976 0 00-4.786.356C58.882 38.095 47.816 53.26 50.345 69.44c2.528 16.18 17.694 27.245 33.874 24.717 12.797-2 22.388-11.908 24.59-23.968a7.6 7.6 0 01-7.488-6.043"/><path stroke="var(--color-primary-600)" stroke-linejoin="round" stroke-width="4" d="M101.32 64.147c-.216.044-.428.1-.65.136-8.074 1.26-15.643-4.261-16.905-12.335a14.72 14.72 0 01.497-6.655 7.605 7.605 0 01-4.92-5.974 7.572 7.572 0 01.506-4.108 29.976 29.976 0 00-4.786.356C58.882 38.095 47.816 53.26 50.345 69.44c2.528 16.18 17.694 27.245 33.874 24.717 12.797-2 22.388-11.908 24.59-23.968a7.6 7.6 0 01-7.488-6.043z"/><path fill="var(--color-primary-400)" d="M96.345 75.929a2.955 2.955 0 11-5.84.912 2.955 2.955 0 015.84-.912M74.425 74.542a3.224 3.224 0 11-6.371.995 3.224 3.224 0 016.371-.995M73.113 54.398a4.25 4.25 0 11-8.398 1.31 4.25 4.25 0 018.398-1.31"/><path fill="var(--color-primary-300)" d="M65.269 64.349a2.604 2.604 0 11-5.146.804 2.604 2.604 0 015.146-.804"/></g></svg>