<svg id="action--archive" xmlns="http://www.w3.org/2000/svg" viewBox="0 0 24 24"><path  d="M18.917 3c1.1 0 2.001.854 2.078 1.934l.005.149v14.833c0 1.1-.854 2.002-1.935 2.079l-.149.005H5.083c-1.1 0-2.001-.855-2.078-1.935L3 19.916V5.083c0-1.1.854-2.001 1.934-2.078L5.083 3h13.834zM19 9.411H5v10.505c0 .035.021.064.051.077l.033.007h13.832a.085.085 0 00.077-.051l.007-.033V9.411zm-6.638 1.984c.429 0 .777.348.777.777v2.162H15.5c.346 0 .52.418.275.663l-3.361 3.361a.388.388 0 01-.55-.001l-3.361-3.36a.389.389 0 01.275-.663h2.361v-2.162c0-.429.348-.777.777-.777zM18.916 5H5.083a.083.083 0 00-.077.05L5 5.084v3.328h14V5.083A.084.084 0 0018.916 5z"/></svg>