<svg id="action--lock--lock" xmlns="http://www.w3.org/2000/svg" viewBox="0 0 24 24"><path  d="M13.822 1a4.51 4.51 0 014.506 4.505v3.097h1.419c1.095 0 1.986.891 1.986 1.987v10.126a1.988 1.988 0 01-1.986 1.986H3.985A1.988 1.988 0 012 20.715V10.589c0-1.096.89-1.987 1.985-1.987h1.42V5.505A4.51 4.51 0 019.91 1zm5.911 9.589l-15.748.013L4 20.715l15.733-.014V10.589zm-8.139 1.586a1.502 1.502 0 011.197 2.657c-.166.13-.219.356-.1.531l.424.624a.29.29 0 01.051.164v2.708a.292.292 0 01-.292.292H10.86a.293.293 0 01-.293-.292v-2.708a.29.29 0 01.051-.164l.425-.624c.12-.175.066-.4-.1-.53a1.498 1.498 0 01.652-2.658zM13.822 3H9.91a2.508 2.508 0 00-2.505 2.505v3.097h8.923V5.505A2.508 2.508 0 0013.822 3z"/></svg>