<svg id="action--settings--alt" xmlns="http://www.w3.org/2000/svg" viewBox="0 0 24 24"><path  d="M11.962 2.739a5.951 5.951 0 015.43-1.613l.592.122.21.623c.107.373.002.773-.274 1.046L16.195 4.64a.978.978 0 000 1.38l.935.935a.976.976 0 001.38 0l2.152-2.153.628.158c.377.112.66.42.735.804a5.946 5.946 0 01-1.614 5.423 5.908 5.908 0 01-5.086 1.679c-.583-.09-1.142.089-1.532.478l-7.998 7.998a2.815 2.815 0 01-2.223.817 2.834 2.834 0 01-2.068-1.174c-.795-1.103-.634-2.692.372-3.7l7.82-7.82c.441-.441.647-1.106.564-1.825a5.928 5.928 0 011.702-4.902zm2.784.523a3.944 3.944 0 00-2.5 4.149c.154 1.329-.26 2.593-1.136 3.47L3.29 18.7c-.315.315-.387.805-.163 1.116a.825.825 0 00.607.35.805.805 0 00.647-.238l7.998-7.998c.842-.842 2.021-1.222 3.238-1.043a3.93 3.93 0 003.38-1.114c.395-.395.694-.861.89-1.367-1.13 1.088-3.06 1.075-4.17-.037l-.936-.935a2.98 2.98 0 01-.035-4.173z"/></svg>