<svg id="action--tune" xmlns="http://www.w3.org/2000/svg" viewBox="0 0 24 24"><path  d="M9.5 15.5c1.038 0 1.929.637 2.307 1.539.043-.01.084-.024.127-.032L12 17h8a1 1 0 01.117 1.993L20 19h-8c-.068 0-.128-.026-.193-.039A2.502 2.502 0 019.5 20.5a2.503 2.503 0 01-2.307-1.539c-.043.009-.084.023-.127.032L7 19H4a1 1 0 01-.117-1.993L4 17h3c.068 0 .129.026.193.039A2.505 2.505 0 019.5 15.5zm0 1a1.5 1.5 0 101.493 1.645l.007-.144A1.5 1.5 0 009.5 16.5zm6-6.75c1.038 0 1.929.637 2.307 1.539.043-.01.084-.024.127-.032L18 11.25h2a1 1 0 01.117 1.993L20 13.25h-2c-.068 0-.128-.026-.193-.039A2.502 2.502 0 0115.5 14.75a2.503 2.503 0 01-2.307-1.539c-.043.009-.084.023-.127.032L13 13.25H4a1 1 0 01-.117-1.993L4 11.25h9c.068 0 .129.026.193.039A2.505 2.505 0 0115.5 9.75zm0 1a1.5 1.5 0 101.493 1.645l.007-.144a1.5 1.5 0 00-1.5-1.501zM9.5 4c1.038 0 1.929.637 2.307 1.539.043-.01.084-.024.127-.032L12 5.5h8a1 1 0 01.117 1.993L20 7.5h-8c-.068 0-.128-.026-.193-.039A2.502 2.502 0 019.5 9a2.503 2.503 0 01-2.307-1.539c-.043.009-.084.023-.127.032L7 7.5H4a1 1 0 01-.117-1.993L4 5.5h3c.068 0 .129.026.193.039A2.505 2.505 0 019.5 4zm0 1a1.5 1.5 0 101.493 1.645L11 6.501A1.5 1.5 0 009.5 5z"/></svg>