<svg id="action--copy--all" xmlns="http://www.w3.org/2000/svg" viewBox="0 0 24 24"><path  d="M4.003 9.606v2.157c0 .002-.003.004-.003.007v7.826h9.977a2.172 2.172 0 01-2.159 1.992H4.182A2.181 2.181 0 012 19.408V11.77c0-1.144.883-2.07 2.003-2.164zm3.826-3.589c.254 0 .461.207.461.462v1.077a.461.461 0 01-.46.461h-.078c-.1 0-.18.082-.18.182v7.637c0 .1.08.181.18.181h7.637c.1 0 .182-.08.182-.182v-.193c0-.182.147-.328.327-.328h1.345c.181 0 .328.146.328.328v.194a2.181 2.181 0 01-2.182 2.181H7.752a2.181 2.181 0 01-2.18-2.182V8.2c0-1.205.975-2.182 2.18-2.182zM19.407 2c1.15 0 2.096.895 2.176 2.025l.005.156v7.637c0 1.15-.895 2.096-2.025 2.177l-.156.005H11.77a2.185 2.185 0 01-2.175-2.026l-.006-.156V4.181c0-1.15.896-2.096 2.026-2.176L11.769 2h7.638zm0 2H11.77a.181.181 0 00-.171.124l-.01.057v7.637c0 .08.052.149.124.173l.057.009h7.638a.18.18 0 00.172-.124l.01-.058V4.181c0-.1-.082-.181-.182-.181z"/></svg>