<svg id="action--share" xmlns="http://www.w3.org/2000/svg" viewBox="0 0 24 24"><path  d="M17.887 20.885h-.036a2.28 2.28 0 01-1.61-.696 2.295 2.295 0 011.646-3.888h.035a2.295 2.295 0 012.256 2.328 2.294 2.294 0 01-2.291 2.256m-11-7.516c-.44.427-1.02.641-1.63.647a2.294 2.294 0 01-1.56-3.938c.43-.418.996-.646 1.595-.646h.036a2.28 2.28 0 011.61.696c.427.44.656 1.02.646 1.631a2.275 2.275 0 01-.696 1.61M16.29 2.65A2.274 2.274 0 0117.885 2h.037c.612.01 1.184.257 1.61.697.426.44.656 1.018.646 1.63a2.277 2.277 0 01-.696 1.611 2.353 2.353 0 01-1.631.646 2.28 2.28 0 01-1.61-.696 2.272 2.272 0 01-.646-1.63 2.27 2.27 0 01.696-1.61M17.95 14.3h-.064a4.286 4.286 0 00-3.471 1.783l-5.091-2.939c.15-.432.252-.884.259-1.355a4.276 4.276 0 00-.254-1.49l5.397-3.117c.028.031.048.067.077.098a4.262 4.262 0 003.016 1.304h.068a4.264 4.264 0 002.986-1.21 4.266 4.266 0 001.304-3.015 4.262 4.262 0 00-1.21-3.054A4.267 4.267 0 0017.953.001c-1.16-.03-2.231.412-3.054 1.21a4.262 4.262 0 00-1.304 3.016c-.007.414.064.813.17 1.202L8.239 8.62A4.252 4.252 0 005.36 7.432a4.276 4.276 0 00-3.055 1.21A4.266 4.266 0 001 11.657a4.298 4.298 0 004.225 4.36h.069a4.261 4.261 0 002.952-1.185l5.413 3.126c-.028.188-.063.373-.065.57a4.264 4.264 0 001.209 3.052 4.263 4.263 0 003.016 1.305h.067a4.297 4.297 0 004.29-4.225 4.297 4.297 0 00-4.225-4.359"/></svg>