<svg id="action--leave" xmlns="http://www.w3.org/2000/svg" viewBox="0 0 24 24"><path  d="M12.709 3A2.293 2.293 0 0115 5.291v3.334a1 1 0 11-2 0V5.291c0-.16-.13-.291-.291-.291H3.292A.292.292 0 003 5.291v13.417c0 .161.131.292.292.292h9.417a.291.291 0 00.291-.292v-3.083a1 1 0 112 0v3.083A2.294 2.294 0 0112.709 21H3.292A2.294 2.294 0 011 18.708V5.291A2.294 2.294 0 013.292 3zm5.309 5.05a.999.999 0 011.414 0l3.243 3.242v.001l.707.707-.706.706-.002.002-3.242 3.241a.997.997 0 01-1.414 0 1 1 0 010-1.414L19.553 13H9.533a1 1 0 110-2h10.02l-1.535-1.536a1 1 0 010-1.414z"/></svg>