<svg id="action--search" xmlns="http://www.w3.org/2000/svg" viewBox="0 0 24 24"><path  d="M5.753 14.24a6.008 6.008 0 010-8.486 5.981 5.981 0 014.243-1.755 5.98 5.98 0 014.242 1.755 6.007 6.007 0 010 8.486 6.005 6.005 0 01-8.485 0m16.324 6.424l-5.704-5.703c-.02-.022-.05-.03-.073-.049 2.448-3.136 2.236-7.689-.648-10.572-3.119-3.12-8.194-3.12-11.313 0-3.119 3.119-3.119 8.195 0 11.314a7.974 7.974 0 005.657 2.34 7.982 7.982 0 004.915-1.692c.02.023.027.051.048.073l5.704 5.703a.997.997 0 001.414 0 .999.999 0 000-1.414"/></svg>