<svg id="action--like" xmlns="http://www.w3.org/2000/svg" viewBox="0 0 24 24"><path  d="M15.671 2c1.194 0 2.174.897 2.28 2.085.157 1.77-.101 3.55-.748 5.196l-.145.351h2.811c1.291 0 2.34 1.05 2.34 2.34 0 .431-.127.853-.351 1.219.321.391.522.883.522 1.427 0 .473-.151.914-.406 1.282a2.243 2.243 0 01-.334 2.946l-.129.109v.431c0 .736-.299 1.456-.819 1.976a2.77 2.77 0 01-1.773.81l-.203.008h-7.05a3.034 3.034 0 01-2.157-.893.779.779 0 00-.431-.22l-.124-.01h-.261a1.6 1.6 0 01-1.191.729l-.152.007H3.6c-.834 0-1.52-.64-1.593-1.455L2 20.193v-7.93c0-.833.64-1.52 1.454-1.593l.146-.007h3.75c.704 0 1.296.459 1.51 1.091a.616.616 0 00.157-.108l.064-.074 1.841-2.631a18.19 18.19 0 002.554-5.301A2.302 2.302 0 0115.671 2zm-.321 2.193a20.15 20.15 0 01-2.52 5.417l-.308.452-1.842 2.631c-.37.527-.925.873-1.542 1.001l-.187.032v5.377c.736 0 1.423.286 1.939.803.177.176.405.285.651.313l.125.007h7.05a.835.835 0 00.834-.73l.007-.11v-.612c.069-1.172.636-1.299.636-1.299a.304.304 0 00-.004-.589l-.069-.008h-.266a.976.976 0 01-.114-1.947l.114-.007h.267c.187-.037.306-.142.306-.306 0-.145-.1-.266-.236-.298l-.07-.008h-.45a.976.976 0 01-.114-1.947l.114-.007h.198a.385.385 0 00.078-.764l-.078-.008h-3.324a1.615 1.615 0 01-1.378-.765 1.618 1.618 0 01-.083-1.573 9.464 9.464 0 00.92-4.989c-.027-.322-.563-.373-.654-.066zm-8.353 8.423H3.953v7.224h3.044v-7.224z"/></svg>