<svg id="communication--call--call--end" xmlns="http://www.w3.org/2000/svg" viewBox="0 0 24 24"><path  d="M2.417 15.496c-.524-.453-.53-1.36-.535-2.158 0-.157 0-.31-.006-.455a1.14 1.14 0 01.15-.56c.324-.617 1.16-1.305 2.316-1.872 1.88-.923 4.414-1.477 7.138-1.563 2.725-.086 5.29.307 7.224 1.109 1.566.649 2.591 1.54 2.614 2.27.005.148.014.3.022.457.038.66.08 1.393-.187 1.9a1.195 1.195 0 01-.178.255l-.03.03c-.34.334-.944.47-1.793.405-2.54-.194-2.56-.987-2.59-2.3l-.007-.252c-.034-1.057-1.622-1.5-4.995-1.393-1.366.043-2.454.162-3.234.353-.83.204-1.354.505-1.562.9a.893.893 0 00-.102.452l.01.257c.021.576.04 1.052-.16 1.435-.257.486-.869.822-2.282 1.02-.843.119-1.453.022-1.813-.29m2.075 2.147c1.32-.185 2.93-.581 3.68-2.004.367-.7.401-1.397.385-2.036.062-.02.133-.04.216-.06.45-.11 1.31-.251 2.846-.3 1.777-.056 2.663.064 3.081.163.124 2.092.975 3.524 4.31 3.779 1.411.107 2.503-.208 3.246-.933l.03-.03.06-.062a3.02 3.02 0 00.467-.661c.51-.97.45-2.028.4-2.881-.008-.148-.016-.281-.02-.408-.048-1.556-1.387-2.957-3.77-3.945-2.175-.902-5.017-1.347-8.003-1.252-2.986.094-5.794.717-7.905 1.754-1.068.524-2.483 1.416-3.15 2.683-.257.488-.379.99-.364 1.492.004.129.005.264.005.403.007 1.024.016 2.562 1.184 3.57.79.682 1.9.927 3.302.728"/></svg>