<svg id="communication--call--forward--no--answer" xmlns="http://www.w3.org/2000/svg" viewBox="0 0 24 24"><path  fill-rule="evenodd" d="M16.65 14.424a.999.999 0 011.414 0l4.1 4.1-4.102 4.102a1 1 0 11-1.415-1.414l1.689-1.688H3a1 1 0 110-2h15.336l-1.686-1.686a1 1 0 010-1.414zM9.885 2.57l.078.12 4.729 8.168a1.386 1.386 0 01-1.073 2.074l-.127.006H4.035a1.386 1.386 0 01-1.257-1.968l.058-.112L7.566 2.69c.51-.88 1.745-.92 2.32-.12zm-.61 7.406H8.252c-.129 0-.237.09-.265.21l-.008.063v.887c0 .13.09.237.21.266l.063.007h1.023c.13 0 .238-.09.266-.21l.008-.063v-.887a.273.273 0 00-.274-.273zm-.199-5.463H8.44a.435.435 0 00-.428.356l-.008.078v3.689c0 .14.098.258.23.289l.068.008h.912c.14 0 .259-.098.29-.23l.008-.067v-3.69a.434.434 0 00-.436-.433z"/></svg>