<svg id="communication--av--headphones" xmlns="http://www.w3.org/2000/svg" viewBox="0 0 24 24"><path  fill-rule="evenodd" d="M11.678 5c3.265 0 6.026 2.19 6.896 5.177h1.692a3.21 3.21 0 013.209 3.209v2.549a2.973 2.973 0 01-2.973 2.973h-2.517a1.13 1.13 0 01-1.127-1.127V12.18a5.185 5.185 0 00-5.697-5.154c-2.691.263-4.663 2.681-4.663 5.385v5.102c0 .771-.624 1.395-1.394 1.395H2.973A2.973 2.973 0 010 15.935v-2.549a3.21 3.21 0 013.21-3.209h1.573C5.652 7.19 8.414 5 11.678 5zm8.587 7.177h-1.407v4.731h1.644a.975.975 0 00.973-.973v-2.549a1.21 1.21 0 00-1.21-1.209zm-15.767 0H3.21A1.21 1.21 0 002 13.386v2.549c0 .536.437.973.973.973h1.525v-4.731z"/></svg>