<svg id="communication--text--styling--bold" xmlns="http://www.w3.org/2000/svg" viewBox="0 0 24 24"><path  d="M10.142 16.234h1.92c.273 0 .568-.02.885-.06.318-.04.609-.122.876-.247.266-.124.487-.305.663-.544.176-.237.263-.554.263-.951 0-.635-.215-1.077-.646-1.326-.431-.249-1.082-.374-1.955-.374h-2.006v3.502zm0-5.338h1.904c.714 0 1.258-.141 1.632-.426.374-.283.56-.685.56-1.207 0-.544-.192-.928-.577-1.155-.385-.227-.986-.34-1.802-.34h-1.717v3.128zM8 6h4.692c.453 0 .9.053 1.343.162.442.107.836.283 1.182.526.345.244.626.559.84.943.216.386.324.851.324 1.395 0 .68-.193 1.241-.578 1.683-.385.442-.89.759-1.513.952v.034c.759.102 1.383.396 1.87.884.487.487.73 1.138.73 1.955 0 .657-.13 1.21-.39 1.657a3.13 3.13 0 01-1.028 1.08 4.427 4.427 0 01-1.462.586 7.896 7.896 0 01-1.675.179H8V6z"/></svg>