<svg id="communication--call--repeat" xmlns="http://www.w3.org/2000/svg" viewBox="0 0 24 24"><path  fill-rule="evenodd" d="M21.263 10.397a.275.275 0 01.47.195v9.377l-15.905.001 1.686 1.686A.999.999 0 116.1 23.07L2 18.97l4.103-4.102a.999.999 0 111.414 1.414L5.828 17.97h13.905v-5.586c0-.293.116-.573.323-.78zm-5.044-8.104a1 1 0 011.414 0l4.1 4.1-4.103 4.103a1 1 0 11-1.414-1.415l1.689-1.688H4v5.587c0 .291-.116.572-.323.778L2.47 14.966a.275.275 0 01-.47-.194V5.393h15.905l-1.686-1.686a.999.999 0 010-1.414z"/></svg>