<svg id="communication--connection--wifi" xmlns="http://www.w3.org/2000/svg" viewBox="0 0 24 24"><path  d="M12.266 17.389a2.38 2.38 0 110 4.76 2.38 2.38 0 010-4.76zm0-4.743c2.126 0 4.126.828 5.631 2.333.18.18.278.412.292.648v.153a.997.997 0 01-1.706.648 5.927 5.927 0 00-4.216-1.746c-1.595 0-3.092.62-4.218 1.746a.999.999 0 01-1.706-.648v-.153a.996.996 0 01.291-.648 7.912 7.912 0 015.632-2.333zm8.327-1.34a.999.999 0 11-1.414 1.415c-1.915-1.913-4.45-2.944-7.164-2.865A9.754 9.754 0 005.35 12.7a1 1 0 01-1.41-1.418 11.744 11.744 0 018.026-3.426c3.25-.05 6.32 1.147 8.626 3.45zm2.646-3.756a.999.999 0 11-1.414 1.414 13.434 13.434 0 00-9.904-3.961 13.484 13.484 0 00-9.216 3.932 1 1 0 01-1.41-1.418 15.476 15.476 0 0110.577-4.514C16.166 2.92 20.2 4.512 23.239 7.55z"/></svg>