<svg id="communication--call--swap" xmlns="http://www.w3.org/2000/svg" viewBox="0 0 24 24"><path  fill-rule="evenodd" d="M21.038 4.933L18.105 2l-2.933 2.933a.999.999 0 101.414 1.414l.52-.518v11.003a1.94 1.94 0 01-1.94 1.94h-.122a1.94 1.94 0 01-1.939-1.94V7.888c0-2.057-1.5-3.897-3.546-4.097a3.945 3.945 0 00-4.334 3.921v10.761l-.518-.519a1 1 0 10-1.414 1.415l2.932 2.932 2.934-2.932a1 1 0 10-1.415-1.415l-.519.519V7.822c0-.967.66-1.866 1.612-2.023a1.943 1.943 0 012.268 1.913v9.12a3.94 3.94 0 003.94 3.94h.12a3.94 3.94 0 003.94-3.94V5.829l.518.518a1 1 0 101.415-1.414"/></svg>