<svg id="communication--av--player--forward--alt" xmlns="http://www.w3.org/2000/svg" viewBox="0 0 24 24"><path  d="M13.488 4.295l9.152 7.032c.312.305.484.714.484 1.151 0 .437-.17.846-.483 1.153l-.092.08-9.06 6.953a1.223 1.223 0 01-2.022-.93V5.226c0-.495.295-.939.752-1.13.43-.182.918-.1 1.27.2zM2.751 4.097c.43-.18.92-.103 1.27.198l5.2 3.996a.913.913 0 01.357.725v1.586a.236.236 0 01-.38.187L4 6.8v11.36l5.198-3.989a.236.236 0 01.38.187v1.59a.913.913 0 01-.358.726l-5.2 3.99a1.22 1.22 0 01-1.269.198 1.219 1.219 0 01-.75-1.129V5.226c0-.495.294-.939.75-1.129zM13.467 6.8v11.36l7.402-5.68-7.402-5.68z"/></svg>