<svg id="communication--text--styling--link" xmlns="http://www.w3.org/2000/svg" viewBox="0 0 24 24"><path  d="M10.391 10.665a2.478 2.478 0 013.502 0l1.986 1.986c.468.468.725 1.089.725 1.75a2.47 2.47 0 01-2.476 2.474 2.464 2.464 0 01-1.75-.723l-.706-.705a.563.563 0 01.795-.795l.705.706a1.356 1.356 0 001.913 0c.255-.256.396-.595.396-.956s-.14-.701-.396-.956l-1.987-1.987a1.354 1.354 0 00-1.912 0 .562.562 0 01-.795-.794zm-3.666-2.94a2.477 2.477 0 013.5 0l.784.783a.56.56 0 010 .794.56.56 0 01-.794 0l-.783-.784a1.354 1.354 0 00-2.308.957c0 .36.14.7.396.956l1.986 1.987a1.357 1.357 0 001.913 0 .562.562 0 01.794.794 2.467 2.467 0 01-1.75.723 2.466 2.466 0 01-1.751-.724l-1.987-1.986A2.458 2.458 0 016 9.476c0-.662.257-1.284.725-1.75z"/></svg>