<svg id="communication--call--loop" xmlns="http://www.w3.org/2000/svg" viewBox="0 0 24 24"><path  fill-rule="evenodd" d="M19.747 6.29a5.86 5.86 0 00-6.57 2.135l-2.082 2.866-2.082 2.866a3.867 3.867 0 01-4.334 1.408A3.866 3.866 0 012 11.88a3.868 3.868 0 012.679-3.687 3.865 3.865 0 014.334 1.41 1 1 0 001.618-1.177A5.862 5.862 0 004.06 6.29 5.862 5.862 0 000 11.88a5.864 5.864 0 004.061 5.588 5.866 5.866 0 006.57-2.135l2.082-2.866 2.082-2.866a3.87 3.87 0 014.334-1.409 3.868 3.868 0 012.679 3.687 3.866 3.866 0 01-2.679 3.686 3.868 3.868 0 01-4.333-1.407l-.157-.218a1 1 0 00-1.621 1.174l.159.22a5.862 5.862 0 006.57 2.134 5.864 5.864 0 004.061-5.589 5.86 5.86 0 00-4.061-5.589"/></svg>