<svg id="communication--device--mobile" xmlns="http://www.w3.org/2000/svg" viewBox="0 0 24 24"><path  fill-rule="evenodd" d="M18.014 1C19.109 1 20 1.891 20 2.987v18.61a1.988 1.988 0 01-1.986 1.986H6.986A1.988 1.988 0 015 21.597V2.987C5 1.891 5.891 1 6.986 1zM6.989 6.705l.008 11.002 1.824.029a.5.5 0 01-.008 1h-.008l-1.807-.029.002 2.89 11.014-.014-.002-2.705-2.208-.034a.5.5 0 01-.492-.508c.004-.275.208-.456.508-.492l2.191.034-.008-11.001-11.014-.172zm5.456 9.086a1.984 1.984 0 011.405.607 2.003 2.003 0 01-1.436 3.393h-.03a2.005 2.005 0 01-1.97-2.03 2.004 2.004 0 012-1.97zm-.015 1h-.016c-.544 0-.99.438-1 .984a1.003 1.003 0 00.985 1.016.984.984 0 001.015-.984.992.992 0 00-.282-.712.991.991 0 00-.702-.304zM18 3H6.986l.002 2.705 11.014.171L18 3z"/></svg>