<svg id="communication--device--deskphone" xmlns="http://www.w3.org/2000/svg" viewBox="0 0 24 24"><path  fill-rule="evenodd" d="M10.505 2a2.32 2.32 0 012.31 2.159l.006.158v.223h8.23c.93 0 1.694.718 1.768 1.629l.006.145v11.053c0 .928-.718 1.693-1.629 1.767l-.145.006h-8.23v.544a2.32 2.32 0 01-2.158 2.31l-.158.006H6.789a2.32 2.32 0 01-2.312-2.158l-.005-.158v-.544H2.773c-.93 0-1.693-.718-1.767-1.628L1 17.367V6.314c0-.93.717-1.694 1.628-1.768l.145-.006h1.699v-.223a2.32 2.32 0 012.159-2.312L6.789 2h3.716zm0 2H6.789a.317.317 0 00-.309.244l-.008.073v15.367c0 .15.104.275.244.308L6.79 20h3.716c.15 0 .275-.104.308-.243l.008-.073V4.317A.317.317 0 0010.505 4zm10.32 2.54h-8.003v10.6h8.003V6.54zm-16.352 0H3v10.6h1.473V6.54zm14.548 2.38a.5.5 0 010 1h-4.037a.5.5 0 010-1z"/></svg>