<svg id="communication--text--chat" xmlns="http://www.w3.org/2000/svg" viewBox="0 0 24 24"><path  d="M16.26 3c.947 0 1.718.77 1.718 1.718v4.357h4.507c.698 0 1.265.567 1.265 1.266v6.969c0 .698-.567 1.265-1.265 1.265h-3.464l-3.031 3.386-2.926-3.386H9.515A1.266 1.266 0 018.25 17.31V14.9l-5.167 3.171-.226-3.612h-.139A1.72 1.72 0 011 12.741V4.718A1.72 1.72 0 012.718 3zm5.99 7.575h-4.272v2.166a1.72 1.72 0 01-1.718 1.718H9.75v2.616h4l2.26 2.614 2.342-2.614h3.898v-6.5zM15.978 5H3v7.459h1.736l.136 2.169 3.533-2.169h7.573V5zm-2.2 4.684a.5.5 0 010 1H8.686a.5.5 0 010-1zm.364-2.546a.5.5 0 010 1H4.684a.5.5 0 110-1z"/></svg>