<svg id="communication--av--player--pause--alt" xmlns="http://www.w3.org/2000/svg" viewBox="0 0 24 24"><path  fill-rule="evenodd" d="M19.803 3a1.7 1.7 0 011.69 1.55l.007.147v14.606a1.7 1.7 0 01-1.55 1.69l-.147.007h-4.105c-.81 0-1.483-.572-1.65-1.332l-.026-.145H14V4.697a1.7 1.7 0 011.552-1.69L15.698 3h4.105zm-11 0a1.7 1.7 0 011.69 1.55l.007.147v14.606a1.7 1.7 0 01-1.55 1.69L8.802 21H4.698c-.81 0-1.483-.572-1.65-1.332l-.026-.145H3V4.697a1.7 1.7 0 011.552-1.69L4.698 3h4.105zM19.5 5H16v13.97h3.5V5zm-11 0H5v13.97h3.5V5z"/></svg>