<svg id="communication--device--devices" xmlns="http://www.w3.org/2000/svg" viewBox="0 0 24 24"><path  fill-rule="evenodd" d="M10.584 19.135a1 1 0 110 2h-8.5a1 1 0 110-2h8.5zm10.418-12c1.148 0 2.081.934 2.081 2.08v9.839a2.083 2.083 0 01-2.081 2.08h-5.838a2.084 2.084 0 01-2.081-2.08v-9.84c0-1.145.934-2.08 2.081-2.08h5.838zm0 2h-5.838a.08.08 0 00-.081.08v9.839a.08.08 0 00.081.08h5.838a.08.08 0 00.081-.08v-9.84a.08.08 0 00-.081-.08zm-2.919 7a1 1 0 110 2 1 1 0 010-2zM19.618 2a2.466 2.466 0 012.466 2.466v.669a1 1 0 01-2 0v-.668A.467.467 0 0019.616 4H2.986L3 15.014l7.582-.012A.998.998 0 1110.585 17H2.987A1.986 1.986 0 011 15.014V3.986C1 2.89 1.89 2 2.986 2h16.631z"/></svg>