<svg id="communication--device--printer" xmlns="http://www.w3.org/2000/svg" viewBox="0 0 24 24"><path  fill-rule="evenodd" d="M19.724 1v4.059h1.328c.93 0 1.693.718 1.767 1.629l.006.145v11.053c0 .928-.717 1.693-1.628 1.767l-.145.006h-1.328v1.85c0 .928-.717 1.693-1.628 1.767l-.145.006H5.874a1.776 1.776 0 01-1.767-1.628L4.1 21.51v-1.85H2.773a1.776 1.776 0 01-1.767-1.628L1 17.886V6.833c0-.93.718-1.694 1.628-1.768l.145-.006h1.328V1h15.623zm-2 14.162H6.101v6.12h11.623v-6.12zm3.101-8.103H3v10.6h1.101v-4.497h15.623v4.497h1.101v-10.6zm-3.336 1.664a1.5 1.5 0 11-.001 3.002 1.5 1.5 0 010-3.002zM17.724 3H6.101v2.06h11.623V3z"/></svg>