<svg id="communication--text--quote" xmlns="http://www.w3.org/2000/svg" viewBox="0 0 24 24"><path  d="M19.108 17.435a3.33 3.33 0 01-2.417.99h-.002a3.503 3.503 0 01-2.505-1.077 3.225 3.225 0 01-.926-2.314c0-.535.09-1.03.268-1.487l3.653-7.383c.05-.1.153-.164.265-.164h1.866c.207 0 .35.207.276.4l-1.888 4.969c-.071.188.037.383.227.45a3.21 3.21 0 011.204.775c.615.615.944 1.363.986 2.244.045.96-.32 1.924-1.007 2.597m-9.259 0a3.33 3.33 0 01-2.418.99H7.43a3.505 3.505 0 01-2.506-1.077A3.228 3.228 0 014 15.034c0-.535.088-1.03.266-1.487L7.92 6.164c.05-.1.153-.164.264-.164h1.867c.206 0 .349.207.276.4L8.51 11.18a.534.534 0 00.281.687c.392.158.752.4 1.078.727.616.615.944 1.363.986 2.244a3.432 3.432 0 01-1.006 2.597m10.694-6.255a5.823 5.823 0 00-.473-.423l1.386-3.646A2.298 2.298 0 0019.31 4h-1.866c-.879 0-1.667.49-2.057 1.278l-3.371 6.809a5.375 5.375 0 00-.733-.907 5.831 5.831 0 00-.472-.423l1.386-3.646A2.296 2.296 0 0010.051 4H8.184c-.878 0-1.666.49-2.056 1.278L2.474 12.66c-.026.052-.05.107-.071.162A6.059 6.059 0 002 15.034c0 1.408.512 2.687 1.481 3.698a5.497 5.497 0 003.949 1.693 5.36 5.36 0 003.82-1.562c.31-.304.58-.644.804-1.008a5.498 5.498 0 004.635 2.57 5.358 5.358 0 003.819-1.562 5.41 5.41 0 001.604-4.12 5.32 5.32 0 00-1.569-3.563"/></svg>