<svg id="communication--av--volume--down" xmlns="http://www.w3.org/2000/svg" viewBox="0 0 24 24"><path  fill-rule="evenodd" d="M13.746 3l.643.261c.334.16.562.483.604.846l.007.122v16.327l-.611.337a1.083 1.083 0 01-1.012-.047l-.121-.083-4.607-3.686H4.901c-.998 0-1.82-.773-1.895-1.753L3 15.176V8.978c0-.998.774-1.82 1.753-1.895l.148-.006h3.748L13.746 3zM13 6.158l-3 2.4v7.039l3 2.399V6.158zm5 2.42c1.93 0 3.5 1.57 3.5 3.5s-1.57 3.5-3.5 3.5a.5.5 0 010-1c1.378 0 2.5-1.122 2.5-2.5 0-1.38-1.122-2.5-2.5-2.5a.5.5 0 010-1zM8 9.076H5v6h3v-6z"/></svg>