<svg id="communication--call--voicemail" xmlns="http://www.w3.org/2000/svg" viewBox="0 0 24 24"><path  fill-rule="evenodd" d="M18.481 7a4.82 4.82 0 014.814 4.815c0 2.451-1.848 4.457-4.22 4.753v.06H5.814A4.819 4.819 0 011 11.815 4.82 4.82 0 015.814 7a4.82 4.82 0 014.813 4.815 4.77 4.77 0 01-.925 2.813h4.891a4.771 4.771 0 01-.926-2.813A4.82 4.82 0 0118.481 7zm0 2a2.818 2.818 0 00-2.814 2.815 2.817 2.817 0 002.814 2.813 2.817 2.817 0 002.814-2.813A2.818 2.818 0 0018.481 9zM5.814 9A2.818 2.818 0 003 11.815a2.817 2.817 0 002.814 2.813 2.816 2.816 0 002.813-2.813A2.817 2.817 0 005.814 9z"/></svg>