<svg id="communication--microsoft" xmlns="http://www.w3.org/2000/svg" viewBox="0 0 24 24"><path  fill-rule="evenodd" d="M13.506 3v18L3 18.803V5.028L13.506 3zM21 8.965v6.471c0 .705-.452 1-.96 1h-5.72v-4.785l1.127.771c.158.117.35 0 .35 0C15.605 12.54 21 8.965 21 8.965zM8.37 8.852c-.733 0-1.323.296-1.768.888-.445.591-.668 1.366-.668 2.324 0 .907.22 1.643.658 2.208.438.565 1.005.847 1.7.847.715 0 1.294-.292 1.738-.875.444-.583.666-1.35.666-2.303 0-.927-.214-1.673-.643-2.24-.427-.566-.989-.849-1.682-.849zm-.029 1.176c.373 0 .666.174.881.523.215.35.322.838.322 1.466 0 .603-.111 1.074-.332 1.413-.22.34-.52.51-.898.51-.366 0-.662-.174-.888-.524-.226-.349-.339-.823-.339-1.424 0-.591.113-1.066.339-1.426.226-.359.531-.538.915-.538zm12.04-3.212c.223 0 .618.303.618.726l-5.309 3.57a.317.317 0 01-.135 0l-1.234-.775v-3.52z"/></svg>