<svg id="communication--av--mic" xmlns="http://www.w3.org/2000/svg" viewBox="0 0 24 24"><path  d="M5.534 9.486a.5.5 0 01.494.507L6 11.992a5.467 5.467 0 001.558 3.911 5.464 5.464 0 003.867 1.663l.074.001a5.507 5.507 0 005.499-5.427l.027-2a.501.501 0 011 .014l-.027 2c-.045 3.38-2.68 6.127-5.986 6.388v2.024h2.5a.5.5 0 010 1h-6a.5.5 0 010-1h2.5v-2.025c-3.395-.255-6.06-3.114-6.012-6.563l.027-1.999c.004-.275.184-.5.506-.493zM11.513 3a3.816 3.816 0 013.812 3.812v5.442a3.816 3.816 0 01-3.812 3.812 3.815 3.815 0 01-3.811-3.812V6.812A3.815 3.815 0 0111.512 3zm0 2c-1 0-1.811.813-1.811 1.812v5.442c0 .999.812 1.812 1.81 1.812 1 0 1.813-.813 1.813-1.812V6.812c0-.999-.813-1.812-1.812-1.812z"/></svg>