<svg id="communication--device--phone" xmlns="http://www.w3.org/2000/svg" viewBox="0 0 24 24"><path  d="M18.316 19.247c-.167.72-1.02 1.174-1.771 1.575-.148.078-.291.155-.427.232a1.211 1.211 0 01-.601.137c-.744 0-1.808-.447-2.916-1.257-1.804-1.315-3.585-3.431-5.02-5.958-1.432-2.529-2.334-5.145-2.537-7.368-.165-1.799.167-3.21.846-3.593.135-.078.274-.162.418-.247C6.912 2.404 7.583 2 8.195 2c.11 0 .22.014.328.043l.044.014c.484.155.91.656 1.27 1.489 1.079 2.495.34 2.905-.883 3.586l-.235.132c-.98.557-.611 2.274 1.165 5.405.718 1.266 1.37 2.234 1.938 2.876.605.682 1.149 1.026 1.625 1.026a.946.946 0 00.477-.128l.237-.135c.533-.308.973-.561 1.434-.561.586 0 1.206.411 2.095 1.646.53.736.74 1.36.626 1.854m.997-3.023c-.83-1.154-2.003-2.477-3.718-2.477-.842 0-1.518.314-2.113.646a3.836 3.836 0 01-.163-.174c-.327-.37-.887-1.111-1.695-2.536-.935-1.649-1.263-2.545-1.377-2.989 1.913-1.155 2.84-2.668 1.427-5.941-.6-1.386-1.438-2.26-2.492-2.6L9.14.14 9.05.114A3.232 3.232 0 008.196 0C7.028 0 6.058.584 5.278 1.053c-.136.082-.257.155-.375.221-1.443.818-2.101 2.777-1.851 5.516.229 2.5 1.22 5.402 2.79 8.172 1.572 2.771 3.554 5.11 5.58 6.589 1.024.747 2.567 1.64 4.095 1.64.589 0 1.123-.133 1.588-.397.12-.068.247-.136.378-.205.963-.514 2.409-1.286 2.78-2.89.252-1.081-.068-2.251-.95-3.475"/></svg>