<svg id="communication--status--blf--idle" xmlns="http://www.w3.org/2000/svg" viewBox="0 0 24 24"><path  d="M11.887 0l.299.002a11.926 11.926 0 018.43 3.647 11.92 11.92 0 013.382 8.537 11.928 11.928 0 01-3.646 8.431A11.922 11.922 0 0112.005 24l-.192-.001a11.926 11.926 0 01-8.43-3.647 11.922 11.922 0 01-3.381-8.538C.105 5.197 5.6-.113 12.186.002zm.186 2.4h-.075C6.773 2.4 2.483 6.61 2.4 11.853a9.53 9.53 0 002.705 6.83 9.542 9.542 0 006.745 2.917 9.493 9.493 0 006.83-2.706 9.542 9.542 0 002.918-6.744 9.541 9.541 0 00-2.706-6.831 9.538 9.538 0 00-6.744-2.916l-.151-.001zm4.68 5.475l1.775 1.774-7.847 7.848L6.5 13.316l1.774-1.774 2.407 2.406 6.073-6.073z"/></svg>