<svg id="communication--av--volume--up" xmlns="http://www.w3.org/2000/svg" viewBox="0 0 24 24"><path  d="M11.746 3l.643.261c.371.177.611.557.611.968v16.327l-.611.337a1.08 1.08 0 01-1.133-.13l-4.607-3.686H2.901A1.903 1.903 0 011 15.176V8.978c0-1.048.853-1.901 1.901-1.901h3.748L11.746 3zM16 5.077c3.86 0 7 3.141 7 7 0 3.86-3.14 7-7 7a.5.5 0 010-1c3.309 0 6-2.69 6-6 0-3.309-2.691-6-6-6a.5.5 0 010-1zm-5 1.081l-3 2.4v7.039l3 2.399V6.158zm5 2.42c1.93 0 3.5 1.57 3.5 3.5s-1.57 3.5-3.5 3.5a.5.5 0 010-1c1.378 0 2.5-1.122 2.5-2.5 0-1.38-1.122-2.5-2.5-2.5a.5.5 0 010-1zM6 9.076H3v6h3v-6z"/></svg>