<svg id="communication--av--earphones" xmlns="http://www.w3.org/2000/svg" viewBox="0 0 24 24"><path  fill-rule="evenodd" d="M5.543 3c2.726 0 4.86 2.293 4.86 5.226 0 .096-.005.19-.016.29v10.108a2.846 2.846 0 01-2.843 2.843H6.55a2.846 2.846 0 01-2.843-2.843v-5.508C1.552 12.357 0 10.396 0 8.221c0-2.578 2.183-4.858 4.967-5.187.19-.023.386-.035.576-.035zm12.38 0c.19 0 .384.011.575.034 2.785.33 4.966 2.61 4.966 5.188 0 2.174-1.55 4.135-3.707 4.894v5.508a2.846 2.846 0 01-2.842 2.843h-.994a2.846 2.846 0 01-2.843-2.843V8.515a2.77 2.77 0 01-.016-.293c0-2.929 2.135-5.223 4.86-5.223zm-.166 14.153h-2.679v1.471c0 .465.377.843.843.843h.994a.843.843 0 00.842-.843v-1.47zm-9.37.001h-2.68v1.47c0 .465.378.843.843.843h.994a.844.844 0 00.843-.843v-1.47zM5.543 5c-.112 0-.226.007-.341.021C3.434 5.23 2 6.663 2 8.222c0 1.558 1.434 2.991 3.202 3.201.08.01.159.014.238.014.089 0 .179-.005.267-.01v4.727h2.68V8.41c.003-.064.016-.124.016-.188C8.403 6.372 7.15 5 5.543 5zm12.38 0c-1.609 0-2.86 1.373-2.86 3.223 0 .064.012.124.015.188v7.743h2.68v-4.727c.088.006.177.011.268.011.078 0 .157-.004.237-.014 1.77-.21 3.201-1.643 3.201-3.2 0-1.56-1.432-2.993-3.2-3.203a2.824 2.824 0 00-.342-.02z"/></svg>