<svg id="communication--av--video--off" xmlns="http://www.w3.org/2000/svg" viewBox="0 0 24 24"><path  d="M1.293 5.432a1 1 0 011.414 0l10.245 10.245c.006-.004.01-.013.015-.018l3.765 3.765-.08-.047 1.055 1.055a.999.999 0 11-1.414 1.414l-3.483-3.482H5.705a2.55 2.55 0 01-2.547-2.546V8.712L1.293 6.846a.999.999 0 010-1.414zM13.977 5a2.55 2.55 0 012.534 2.293l2.249-1.299a1.588 1.588 0 011.585 0c.489.282.793.809.793 1.373v8.63a1.59 1.59 0 01-.793 1.373 1.59 1.59 0 01-1.585-.001l-2.25-1.298c-.003.038-.112-.106-.117-.069l-1.852-1.77a.91.91 0 01.426-.647l.126-.076a.917.917 0 01.925-.01l3.12 1.78V8.085l-3.033 1.751a1.05 1.05 0 01-1.023.012 1.047 1.047 0 01-.542-.903l-.017-1.399A.555.555 0 0013.97 7H7.275L5.314 5.039A2.54 2.54 0 015.704 5zm-8.819 5.712v5.106c0 .302.244.546.546.546h5.106l-4.427-4.428-1.225-1.224z"/></svg>