<svg id="communication--av--voice" xmlns="http://www.w3.org/2000/svg" viewBox="0 0 24 24"><path  d="M12.451 3c.303 0 .549.245.549.549V19.99a.55.55 0 01-.549.549h-.902A.55.55 0 0111 19.99V3.549c0-.304.246-.549.549-.549zm4 3.96a.55.55 0 01.549.549v8.52a.55.55 0 01-.549.55h-.902a.55.55 0 01-.549-.55V7.51a.55.55 0 01.549-.55zm-8 0A.55.55 0 019 7.509v8.52a.55.55 0 01-.549.55h-.902a.55.55 0 01-.549-.55V7.51a.55.55 0 01.549-.55zm-4 2.583c.303 0 .549.245.549.549v3.355a.55.55 0 01-.549.549h-.902a.55.55 0 01-.549-.55v-3.354c0-.304.246-.55.549-.55zm16 0c.303 0 .549.245.549.549v3.355a.55.55 0 01-.549.549h-.902a.55.55 0 01-.549-.55v-3.354c0-.304.246-.55.549-.55z"/></svg>