<svg id="communication--device--speaker" xmlns="http://www.w3.org/2000/svg" viewBox="0 0 24 24"><path  fill-rule="evenodd" d="M18.014 1c1.045 0 1.905.812 1.98 1.839l.006.148v18.61a1.988 1.988 0 01-1.838 1.98l-.148.006H6.986a1.988 1.988 0 01-1.98-1.838L5 21.597V2.987c0-1.046.812-1.906 1.838-1.982L6.986 1h11.028zM18 3H6.986L7 21.597l11.014-.014L18 3zm-5.5 12.334a1.5 1.5 0 11-.001 3.001 1.5 1.5 0 01.001-3zm0-9.717a3.845 3.845 0 013.841 3.841A3.845 3.845 0 0112.5 13.3a3.845 3.845 0 01-3.841-3.84A3.845 3.845 0 0112.5 5.616zm0 2a1.844 1.844 0 00-1.841 1.841c0 1.015.826 1.841 1.841 1.841a1.843 1.843 0 001.841-1.84A1.844 1.844 0 0012.5 7.616z"/></svg>