<svg id="communication--text--styling--numbers" xmlns="http://www.w3.org/2000/svg" viewBox="0 0 24 24"><path  d="M6.966 14.258c.094 0 .186.012.275.036a.733.733 0 01.238.11c.07.05.127.114.17.189a.524.524 0 01.064.266.451.451 0 01-.1.298.5.5 0 01-.257.165c.06.022.115.044.165.076a.533.533 0 01.213.255.606.606 0 01-.225.679.81.81 0 01-.256.123 1.185 1.185 0 01-.57.008.914.914 0 01-.249-.1.713.713 0 01-.323-.431l.468-.123c.02.07.061.132.123.184a.352.352 0 00.237.079.42.42 0 00.11-.014.302.302 0 00.1-.047.25.25 0 00.071-.082.255.255 0 00.028-.126c0-.055-.012-.1-.037-.136a.274.274 0 00-.099-.085.49.49 0 00-.14-.045 1.026 1.026 0 00-.156-.013h-.135v-.367h.147a.773.773 0 00.138-.01.37.37 0 00.12-.04.225.225 0 00.083-.077.225.225 0 00.031-.125.206.206 0 00-.08-.176.304.304 0 00-.187-.06.288.288 0 00-.187.065.29.29 0 00-.104.17l-.468-.106a.687.687 0 01.302-.404.866.866 0 01.232-.102.972.972 0 01.258-.034zm10.505.448c.132 0 .24.107.24.238v.524a.238.238 0 01-.24.238H9.95a.238.238 0 01-.239-.238v-.524c0-.131.107-.238.24-.238zM6.81 11.082c.098 0 .193.013.285.039a.742.742 0 01.246.12.598.598 0 01.237.492.665.665 0 01-.113.375.973.973 0 01-.12.145c-.045.045-.091.09-.139.134l-.492.437h.867v.439H6.045v-.42l.828-.748a.812.812 0 00.126-.152.33.33 0 00.048-.174.248.248 0 00-.072-.185.262.262 0 00-.192-.07.262.262 0 00-.206.089.395.395 0 00-.094.232L6 11.769a.754.754 0 01.267-.504.752.752 0 01.247-.136.932.932 0 01.296-.047zm10.661.59c.132 0 .24.107.24.239v.523a.238.238 0 01-.24.238H9.95a.238.238 0 01-.239-.238v-.523c0-.132.107-.24.24-.24zM7.261 8v2.124H6.76v-1.56l-.396.306-.261-.357L6.801 8h.46zm10.21.637c.132 0 .24.106.24.238v.523a.239.239 0 01-.24.239H9.95a.239.239 0 01-.239-.24v-.522c0-.132.107-.238.24-.238z"/></svg>