<svg id="communication--call--call--list" xmlns="http://www.w3.org/2000/svg" viewBox="0 0 24 24"><path  d="M5.427 8.274c.214 0 .426.029.623.083l.063.018.037.012c.747.241 1.327.829 1.725 1.749.86 1.991.258 3.043-.597 3.7.1.239.267.583.54 1.064.269.476.48.793.63 1 .28-.113.605-.199.976-.199 1.364 0 2.198 1.16 2.512 1.596.586.813.793 1.614.615 2.38-.264 1.14-1.233 1.657-1.817 1.97a6.24 6.24 0 00-.188.101 2.326 2.326 0 01-1.164.295c-.992 0-1.95-.547-2.576-1.005-1.165-.849-2.298-2.182-3.19-3.755-.89-1.571-1.453-3.228-1.585-4.664-.16-1.737.307-3.008 1.31-3.575.059-.033.118-.069.19-.112.436-.262 1.093-.658 1.895-.658zm-.001 1.701c-.33 0-.693.217-1.02.414-.077.047-.152.091-.225.133-.367.208-.546.969-.457 1.942.109 1.201.597 2.614 1.37 3.98.776 1.366 1.739 2.509 2.713 3.22.599.438 1.173.68 1.575.68a.666.666 0 00.326-.074c.073-.042.15-.083.23-.125.406-.217.867-.463.957-.852.062-.268-.052-.604-.338-1.002-.48-.667-.815-.89-1.133-.89-.248 0-.486.138-.774.304l-.128.073a.515.515 0 01-.258.07c-.257 0-.551-.187-.878-.556-.306-.346-.66-.869-1.047-1.554-.96-1.691-1.16-2.619-.63-2.92l.128-.071c.66-.368 1.059-.59.477-1.937-.194-.451-.425-.721-.686-.805l-.025-.008a.65.65 0 00-.177-.022zm15.554 4.203a1 1 0 110 2h-6.442a1 1 0 110-2zm0-5.178a1 1 0 110 2h-8.276a1 1 0 110-2zm0-5a1 1 0 110 2H9.704a1 1 0 110-2z"/></svg>