<svg id="editor--drop" xmlns="http://www.w3.org/2000/svg" viewBox="0 0 24 24"><path  fill-rule="evenodd" d="M14.934 6.953c1.114 0 2.03.868 2.107 1.963l.006.15v3.84l5.238 1.596.154.675c.06.363-.067.722-.332.967L22 16.23l-3.287 2.322-2.126 3.719-.714-.021a1.078 1.078 0 01-.87-.6l-.047-.115-1.556-4.488H9.066a2.116 2.116 0 01-2.107-1.963l-.006-.15V9.067c0-1.115.868-2.031 1.963-2.109l.15-.005h5.869zM10 20a1 1 0 010 2H8a1 1 0 110-2zm-7-1a1 1 0 011 1 1 1 0 010 2H3a1 1 0 01-1-1v-1a1 1 0 011-1zm11.543-4.765l1.636 4.72 1.005-1.756.191-.15 1.93-1.364-4.762-1.45zM3 13a1 1 0 011 1v2a1 1 0 11-2 0v-2a1 1 0 011-1zm11.934-4.047H9.066a.113.113 0 00-.108.078l-.005.036v5.867c0 .046.028.087.069.104l.043.009h3.644l-.845-2.435.871-.971.674.157 1.637.499v-3.23a.113.113 0 00-.112-.114zM21 7a1 1 0 011 1v2a1 1 0 11-2 0V8a1 1 0 011-1zM3 7a1 1 0 011 1v2a1 1 0 11-2 0V8a1 1 0 011-1zm18-5a1 1 0 011 1v1a1 1 0 11-2 0 1 1 0 110-2zM4 2a1 1 0 010 2 1 1 0 11-2 0V3a1 1 0 011-1zm6 0a1 1 0 010 2H8a1 1 0 110-2zm6 0a1 1 0 010 2h-2a1 1 0 110-2z"/></svg>