<svg id="editor--draw" xmlns="http://www.w3.org/2000/svg" viewBox="0 0 24 24"><path  fill-rule="evenodd" d="M16.558 1.52a2.173 2.173 0 012.958.127l3.322 3.322c.817.817.858 2.134.093 2.999L13.596 18.53l-.645.646a3.139 3.139 0 01-2.237.927 6.021 6.021 0 00-4.285 1.775l-.132.132a1.973 1.973 0 01-2.515.232l-.648.647a1.248 1.248 0 11-1.768-1.767l.671-.671a1.957 1.957 0 01.3-2.402l.311-.311a6.021 6.021 0 001.776-4.285v-.206c0-.844.329-1.64.926-2.237l.383-.377zM6.481 12.956c-.025.096-.057.19-.057.292v.206a8.008 8.008 0 01-2.362 5.699l-.311.31 1.161 1.134.103-.132a8.006 8.006 0 015.699-2.361c.25 0 .476-.097.674-.241zM18.103 3.06a.187.187 0 00-.256-.011L7.065 12.125l5.054 5.055.02-.02 9.293-10.517a.191.191 0 00-.007-.26z"/></svg>