<svg id="file--pictures" xmlns="http://www.w3.org/2000/svg" viewBox="0 0 24 24"><path  d="M16.318 4.833a2.684 2.684 0 012.677 2.51l.005.17v12.638a2.685 2.685 0 01-2.513 2.677l-.169.005H3.681a2.685 2.685 0 01-2.676-2.513L1 20.151V7.513a2.684 2.684 0 012.512-2.675l.169-.005h12.637zm0 2.09H3.681a.682.682 0 00-.674.579l-.007.1V20.24c0 .342.253.626.58.675l.101.007h12.637a.683.683 0 00.675-.581l.007-.1V7.601a.682.682 0 00-.682-.68zM11.534 15.2a.952.952 0 011.513.013l2.605 3.465a.155.155 0 01-.124.248H5.155a.155.155 0 01-.122-.25L6.86 16.33a.952.952 0 011.483-.023l.849 1.02c.183.22.52.216.696-.01zM16.804 1a5.805 5.805 0 015.798 5.799v10.815a1 1 0 11-2 0V6.799A3.803 3.803 0 0016.803 3H7.61a1 1 0 110-2z"/></svg>