<svg id="file--zip" xmlns="http://www.w3.org/2000/svg" viewBox="0 0 24 24"><path  d="M15.586 1c.323 0 .635.096.893.271l.125.095.084.081 5.157 5.513c.251.235.408.549.443.882l.008.144v13.82c0 1.047-.891 1.908-2.016 1.981l-.155.005H4.172c-1.145 0-2.087-.815-2.167-1.844L2 21.806V2.986c0-1.047.892-1.908 2.017-1.981L4.172 1h11.414zm-7.26 2H4.172a.303.303 0 00-.18.05l-.012.011L4 21.786c.003-.009.01-.012.021-.012.018 0 .047.008.086.013l.065.005h4.154v-1.883h2v1.883h9.799a.3.3 0 00.179-.05l.012-.011-.019-12.847H14.83V3h-4.504v2.019h-2V3zm1.835 8.912v1.636l-2.562 2.836h2.35v1.401H5.954v-1.668l2.534-2.806H6.413v-1.4h3.748zm6.781-.133c.782 0 1.421.593 1.494 1.355l.006.145v1c0 .78-.593 1.42-1.355 1.493l-.145.007h-1v2h-1.5v-6h2.5zm-3.982 0v6h-1.484v-6h1.483zm3.982 1.5h-1v1h1v-1zm-6.617-5.26v.98h-2v-.98h2zm5.505-4.562v4.427h4.14l-4.14-4.427zm-5.505 2.562v1h-2v-1h2z"/></svg>