<svg id="file--picture" xmlns="http://www.w3.org/2000/svg" viewBox="0 0 24 24"><path  d="M18.318 3A2.684 2.684 0 0121 5.68v12.638A2.685 2.685 0 0118.318 21H5.681A2.685 2.685 0 013 18.318V5.68A2.684 2.684 0 015.681 3zm0 2H5.681A.682.682 0 005 5.68v12.638c0 .376.306.682.681.682h12.637a.683.683 0 00.682-.682V5.68a.682.682 0 00-.682-.68zm-5.123 8.274a.952.952 0 011.514.012l2.605 3.466a.155.155 0 01-.125.248H6.816a.155.155 0 01-.122-.25l1.827-2.347a.953.953 0 011.486-.022l.848 1.02c.182.22.52.215.695-.011z"/></svg>