<svg id="file--pdf" xmlns="http://www.w3.org/2000/svg" viewBox="0 0 24 24"><path  d="M16.585 1c.378 0 .741.131 1.02.369l.087.084 4.156 4.512c.285.269.447.638.447 1.021v14.82c0 1.095-.974 1.986-2.171 1.986H4.171C2.974 23.792 2 22.901 2 21.806V2.986C2 1.891 2.974 1 4.171 1zm-.756 2H4.171c-.118 0-.181.048-.191.061l.003 2.968H8.85c.421 0 .763.342.763.763v.673a.764.764 0 01-.763.763H3.985L4 21.786c.002-.009.009-.012.021-.012.027 0 .079.018.15.018h15.953c.118 0 .181-.048.191-.061l-.019-14.5-.001-.001v.655h-4.466V3zm-7.665 9.78c.83 0 1.5.67 1.5 1.5v1c0 .83-.67 1.5-1.5 1.5h-1v2h-1.5v-6zm5 0c.83 0 1.5.67 1.5 1.5v3c0 .83-.67 1.5-1.5 1.5h-2.5v-6zm5.5 0v1.5h-1.5v1h1.5v1.5h-1.5v2h-1.5v-6h3zm-5.5 1.5h-1v3h1v-3zm-5 0h-1v1h1v-1zM16.83 3.468v3.417h3.148l-3.148-3.417z"/></svg>