<svg id="generic--user--user" xmlns="http://www.w3.org/2000/svg" viewBox="0 0 24 24"><path  d="M4.28 21.122l.38-1.518c.113-.452.443-.816.88-.974l3.268-1.177a2.641 2.641 0 001.603-1.643 4.004 4.004 0 002.089.597c.725 0 1.447-.204 2.089-.597a2.643 2.643 0 001.604 1.643l3.267 1.177c.438.158.767.522.88.973l.379 1.519H4.28zM8.044 9.29l4.456-2.862 4.459 2.864a3.276 3.276 0 01-1.135 2.924l-2.02 1.709v.001a2.014 2.014 0 01-2.607-.001l-2.02-1.708A3.279 3.279 0 018.044 9.29zm2.01-5.261l.73-.502a3.033 3.033 0 011.717-.53c.602 0 1.204.177 1.718.53l.729.501a3.024 3.024 0 011.233 1.811l.482 2.074-3.893-2.5a.502.502 0 00-.54 0l-3.89 2.498.482-2.072a3.021 3.021 0 011.232-1.81zM22.97 21.88l-.69-2.761a3.386 3.386 0 00-2.143-2.37l-3.266-1.177a.642.642 0 01-.423-.601v-.663l.667-.566a5.273 5.273 0 001.737-5.24l-.724-3.116a5.022 5.022 0 00-2.048-3.005l-.73-.502a5.061 5.061 0 00-5.7 0l-.731.503a5.024 5.024 0 00-2.047 3.004l-.724 3.116a5.278 5.278 0 001.737 5.241l.667.565v.663c0 .268-.17.509-.422.601l-3.267 1.177a3.388 3.388 0 00-2.143 2.37l-.69 2.761A.998.998 0 003 23.122h19a.998.998 0 00.97-1.242z"/></svg>