<svg id="generic--product" xmlns="http://www.w3.org/2000/svg" viewBox="0 0 24 24"><path  fill-rule="evenodd" d="M18.419 1a1.99 1.99 0 011.983 1.867l.982 4.735-.017.004c.024.123.038.25.038.381v12.818c0 1.096-.89 1.986-1.986 1.986H4.986A1.988 1.988 0 013 20.805V7.987c0-.131.015-.258.039-.381l-.018-.004.982-4.735A1.99 1.99 0 015.986 1zm.986 7H4.986L5 20.805l14.419-.014L19.405 8zm-4.6 4a1 1 0 110 2h-5a1 1 0 110-2zm-3.102-9.006L5.986 3l-.007.19L5.396 6h6.307V2.994zm6.702-.007l-5.702.006V6h6.315l-.613-3.013z"/></svg>