<svg id="generic--layers" xmlns="http://www.w3.org/2000/svg" viewBox="0 0 24 24"><path  d="M2.475 16.28a1 1 0 011.362-.386l7.216 4.032c.303.17.672.17.975 0l7.217-4.032a1 1 0 01.976 1.746l-8.193 4.577a.996.996 0 01-.975 0L2.86 17.64a1 1 0 01-.386-1.36zm0-4.783a1 1 0 011.362-.385l7.216 4.031c.303.17.672.17.975 0l7.217-4.03a1 1 0 01.976 1.746l-8.193 4.575a.996.996 0 01-.975 0L2.86 12.858a1 1 0 01-.386-1.36zm9.654-10.376l.14.069 8.042 4.493a1.501 1.501 0 01.125 2.542l-.125.078-8.04 4.492a1.507 1.507 0 01-1.325.068l-.139-.069-8.038-4.491a1.5 1.5 0 01-.127-2.54l.125-.079 8.042-4.493a1.494 1.494 0 011.32-.07zm-.589 1.953L4.525 6.993l7.015 3.919 7.015-3.919-7.015-3.919z"/></svg>