<svg id="generic--notebook" xmlns="http://www.w3.org/2000/svg" viewBox="0 0 24 24"><path  d="M16.791 2a1 1 0 01.993.883l.007.117v.286h2.806c1.045 0 1.905.812 1.98 1.838l.006.148V19.3a1.989 1.989 0 01-1.838 1.98l-.148.006H3.986a1.989 1.989 0 01-1.98-1.838L2 19.3V5.272c0-1.045.812-1.905 1.838-1.98l.148-.006h2.805V3a1 1 0 011.993-.117L8.791 3v.286h2.359V3a1 1 0 011.993-.117L13.15 3v.286h2.641V3a1 1 0 011-1zm3.792 3.272l-2.292.002-.5.001V6a1 1 0 01-1.993.117L15.79 6v-.724l-2.641.002V6a1 1 0 01-1.993.117L11.15 6v-.72l-2.359.001V6a1 1 0 01-1.993.117L6.79 6v-.717h-.5l-2.305.003L4 19.3l16.583-.014V5.272zM13.433 14a.5.5 0 010 1h-6a.5.5 0 010-1zm4.5-3.5a.5.5 0 010 1h-11a.5.5 0 010-1z"/></svg>