<svg id="generic--chart" xmlns="http://www.w3.org/2000/svg" viewBox="0 0 24 24"><path  d="M10.796 3.12c.675-.056 1.202.583 1.045 1.241-.098.41-.438.731-.857.764a7.552 7.552 0 00-4.768 2.173A7.516 7.516 0 004 12.647c0 2.301 1.02 4.443 2.843 5.915 2.643 2.132 6.51 2.191 9.233.163a7.516 7.516 0 003.008-5.362c.039-.418.307-.777.712-.886l.065-.019c.641-.174 1.279.337 1.224.999a9.537 9.537 0 01-9.518 8.752c-2.451 0-4.9-.932-6.765-2.797A9.503 9.503 0 012 12.647a9.5 9.5 0 012.802-6.763 9.597 9.597 0 015.994-2.764zm4.825-1.072a10.006 10.006 0 014.076 2.47 10.009 10.009 0 012.351 3.725l.117.35.126.406-.21.448c-.123.224-.322.4-.556.494l-.12.04-.005.001-9.79 2.623 2.732-10.2.42-.269c.261-.144.572-.175.86-.088zm.286 2.243l-1.47 5.486 5.486-1.47a7.905 7.905 0 00-1.64-2.376 7.874 7.874 0 00-2.376-1.64z"/></svg>