<svg id="generic--user--add--user" xmlns="http://www.w3.org/2000/svg" viewBox="0 0 24 24"><path  d="M10.708 2.482l.187.12 1.108.761a3.43 3.43 0 011.344 1.848l.054.206.717 3.083a3.623 3.623 0 01-1.032 3.454l-.16.143-2.52 2.133a2.254 2.254 0 01-2.76.123l-.159-.123-.345-.29c-.164.682-.592 1.187-.933 1.425l-.09.055-.095.041-2.804 1.01-.073.022c-.503.127-.816.368-.953.732l-.04.126-.346 1.384h14.276l-.346-1.384a1.26 1.26 0 00-.668-.826l-.129-.055-2.513-.905a.231.231 0 01-.149-.175.23.23 0 01.035-.173l.04-.046.89-.778a.408.408 0 01.319-.095l.084.02 1.832.66c.836.3 1.478.969 1.747 1.807l.052.182.592 2.37a.801.801 0 01-.145.68.802.802 0 01-.522.3l-.103.006H.792a.785.785 0 01-.625-.306.799.799 0 01-.164-.56l.02-.12.592-2.37c.234-.937.907-1.62 1.903-1.944l.203-.06 2.635-.949c.095-.098.224-.298.258-.514l.01-.11v-.738l-.658-.555a3.618 3.618 0 01-1.233-3.386l.042-.21.716-3.084a3.424 3.424 0 011.227-1.926l.172-.127 1.107-.763a3.46 3.46 0 013.711-.119zm9.135 4.323a1 1 0 011 1v2.297h2.297a1 1 0 110 2h-2.297v2.297a1 1 0 11-2 0v-2.297h-2.296a1 1 0 110-2h2.296V7.805a1 1 0 011-1zM8.946 3.585c-.324 0-.637.083-.914.24l-.136.084-1.107.762c-.333.23-.579.558-.706.94l-.047.165L5.32 8.86a2.04 2.04 0 00.55 1.916l.121.111 2.52 2.133c.224.189.539.21.783.063l.087-.063 2.52-2.133a2.036 2.036 0 00.703-1.865l-.032-.162-.716-3.083a1.838 1.838 0 00-.615-1l-.138-.105-1.107-.762a1.843 1.843 0 00-1.05-.324z"/></svg>