<svg id="generic--cost--euro" xmlns="http://www.w3.org/2000/svg" viewBox="0 0 24 24"><path  d="M6 10.498c0-.536.435-.971.971-.971h1.11C8.826 6.782 10.825 5 13.687 5c1.73 0 2.926.692 3.765 1.561a.792.792 0 01-.012 1.094l-.384.401c-.314.326-.82.307-1.149-.004-.604-.572-1.376-.936-2.259-.936-1.314 0-2.528.765-3.136 2.411h2.551a.97.97 0 110 1.942H10.12c-.02.215-.02.43-.02.645 0 .256 0 .49.02.706h2.943a.97.97 0 110 1.941h-2.551c.608 1.567 1.764 2.294 3.156 2.294.995 0 1.789-.384 2.43-.929.336-.285.83-.274 1.125.054l.389.43c.306.34.26.867-.091 1.159-1.114.931-2.387 1.402-3.853 1.402-2.902 0-4.842-1.744-5.567-4.41h-1.13a.971.971 0 010-1.941h.816c0-.234-.02-.47-.02-.706 0-.215 0-.43.02-.645h-.816A.971.971 0 016 10.498"/></svg>