<svg id="generic--checklist" xmlns="http://www.w3.org/2000/svg" viewBox="0 0 24 24"><path  d="M5.186 16.926c.441 0 .8.357.8.8v1.261a.798.798 0 01-.8.798H3.924a.798.798 0 01-.799-.798v-1.262c0-.442.358-.799.8-.799zm15.907.43a1 1 0 110 2H10.146a1 1 0 110-2zM5.186 11.55c.441 0 .8.357.8.799v1.262a.798.798 0 01-.8.798H3.924a.798.798 0 01-.799-.798V12.35c0-.442.358-.799.8-.799zm15.907.43a1 1 0 110 2H10.146a1 1 0 110-2zM7.103 4.293a.999.999 0 111.414 1.414L4.603 9.621l-2.31-2.31a.999.999 0 111.414-1.414l.896.896zm13.99 2.31a1 1 0 110 2H10.646a1 1 0 110-2z"/></svg>