<svg id="generic--location" xmlns="http://www.w3.org/2000/svg" viewBox="0 0 24 24"><path  d="M6.143 2.313c1.993-1.8 4.535-2.59 7.148-2.227 4.818.668 8.196 4.995 7.857 10.065-.103 1.56-.524 2.985-1.25 4.235-1.945 3.273-4.266 6.37-5.477 7.924a2.419 2.419 0 01-1.905.934 2.427 2.427 0 01-1.693-.69c-1.49-1.458-4.3-4.399-6.363-7.732-.922-1.828-1.397-3.529-1.454-5.13a9.467 9.467 0 013.137-7.379zm6.873-.246c-2.022-.278-3.986.333-5.533 1.73-1.63 1.472-2.557 3.65-2.478 5.822.046 1.314.45 2.736 1.2 4.228 1.906 3.075 4.59 5.882 6.016 7.275a.413.413 0 00.621-.04c1.183-1.519 3.447-4.539 5.331-7.709.565-.972.897-2.104.98-3.355.268-4.01-2.37-7.429-6.137-7.95zm-.93 3.177c2.205 0 4 1.794 4 4s-1.795 4-4 4c-2.207 0-4-1.794-4-4s1.793-4 4-4zm0 2c-1.104 0-2 .897-2 2s.896 2 2 2c1.102 0 2-.897 2-2s-.898-2-2-2z"/></svg>