<svg id="generic--alert" xmlns="http://www.w3.org/2000/svg" viewBox="0 0 24 24"><path  d="M5 18.062l.16-.184c.103-.119.204-.239.304-.36.46-.56.81-1.178 1.076-1.827v.05h10.067v-.051c.266.65.615 1.268 1.076 1.828.1.121.2.241.304.36l.159.184H5zm6.573 3.873c-1.163 0-2.136-.789-2.44-1.873h4.886a2.545 2.545 0 01-2.446 1.873zM8.347 6.792a4.686 4.686 0 013.226-1.261A4.69 4.69 0 0114.8 6.792a4.683 4.683 0 011.386 4.287 8.395 8.395 0 00.104 3.662H6.856a8.395 8.395 0 00.105-3.662 4.683 4.683 0 011.386-4.287zm11.312 9.961l-.16-.184a16.066 16.066 0 01-.272-.322c-1.026-1.245-1.418-2.993-1.076-4.795a6.673 6.673 0 00-1.976-6.113 6.606 6.606 0 00-3.602-1.728V2a1 1 0 00-2 0v1.611a6.606 6.606 0 00-3.601 1.728 6.67 6.67 0 00-1.976 6.112c.34 1.803-.051 3.551-1.076 4.795-.09.108-.18.216-.273.324l-.16.183A2.001 2.001 0 005 20.062h3.094a3.552 3.552 0 003.479 2.873 3.552 3.552 0 003.48-2.873h3.093a2 2 0 001.513-3.309z"/></svg>