<svg id="generic--user--user--group" xmlns="http://www.w3.org/2000/svg" viewBox="0 0 24 24"><path  d="M13.762 5.797l.18.116 1.068.733A3.303 3.303 0 0116.3 8.41l.059.217.69 2.971a3.49 3.49 0 01-.986 3.321l-.162.146-2.43 2.057a2.177 2.177 0 01-2.662.118l-.152-.118-.332-.28c-.158.658-.57 1.144-.9 1.374l-.087.053-.091.038-2.702.975a.773.773 0 01-.071.02c-.485.124-.787.355-.92.708l-.037.121-.333 1.334h13.76l-.333-1.334a1.21 1.21 0 00-.644-.796l-.124-.053-2.422-.874a.219.219 0 01-.144-.168.219.219 0 01.033-.166l.039-.045.857-.75a.396.396 0 01.308-.092l.08.02 1.768.635c.804.29 1.423.935 1.683 1.743l.05.175.57 2.284a.771.771 0 01-.138.656.779.779 0 01-.488.286l-.115.01H4.204a.763.763 0 01-.76-.837l.019-.115.57-2.284c.226-.902.874-1.562 1.835-1.873l.196-.058 2.539-.915c.09-.095.215-.288.25-.496l.008-.106v-.71l-.633-.537a3.486 3.486 0 01-1.192-3.252l.043-.215.69-2.97c.17-.734.581-1.382 1.168-1.847l.18-.134 1.069-.734a3.33 3.33 0 013.576-.115zm-9.67-3.23a3.224 3.224 0 013.651-.001l.988.678a3.206 3.206 0 011.251 1.748c-.379.11-.745.278-1.08.508l-.47.324-.063-.27a1.493 1.493 0 00-.61-.896l-.993-.682a1.495 1.495 0 00-1.698 0l-.988.683a1.497 1.497 0 00-.61.895l-.638 2.75c-.143.614.55 1.659.55 1.659l1.954 1.914c.296.29.464.69.464 1.105v.213a2.58 2.58 0 01-1.622 2.395L.939 16.887a.22.22 0 00-.139.205v1.12c0 .12.099.22.22.22h.88a.9.9 0 010 1.8h-.88A2.02 2.02 0 01-1 18.213v-1.121a2.02 2.02 0 011.27-1.876l3.24-1.297a.774.774 0 00.49-.723v-.461l-1.194-1.012-.532-.45a3.39 3.39 0 01-1.113-3.356L1.8 5.164a3.22 3.22 0 011.309-1.92zm12.146-.001a3.224 3.224 0 013.652.002l.982.676a3.212 3.212 0 011.31 1.92l.639 2.752a3.39 3.39 0 01-1.113 3.356l-.531.45-1.194 1.012v.46c0 .322.191.605.49.724l3.239 1.297a2.02 2.02 0 011.27 1.876v1.122c0 1.115-.904 2.02-2.02 2.02h-.88a.9.9 0 010-1.801h.88a.22.22 0 00.22-.22v-1.12a.22.22 0 00-.138-.205l-3.24-1.297a2.58 2.58 0 01-1.621-2.396v-.212c0-.415.166-.814.463-1.105L20.6 9.963s.694-1.045.55-1.66l-.638-2.75a1.498 1.498 0 00-.61-.895l-.989-.681a1.495 1.495 0 00-1.698-.001l-.991.68a1.495 1.495 0 00-.611.898l-.063.269-.47-.323A3.79 3.79 0 0014 4.99a3.203 3.203 0 011.25-1.747zm-4.174 4.293c-.304 0-.598.075-.86.219l-.152.094-1.067.734a1.782 1.782 0 00-.681.905l-.045.16-.69 2.973a1.965 1.965 0 00.522 1.838l.125.115 2.429 2.057a.65.65 0 00.753.06l.085-.06 2.43-2.057a1.964 1.964 0 00.678-1.785l-.031-.168-.691-2.973a1.777 1.777 0 00-.593-.964l-.133-.1-1.067-.735a1.773 1.773 0 00-1.012-.313z"/></svg>