<svg id="generic--branch--alt" xmlns="http://www.w3.org/2000/svg" viewBox="0 0 24 24"><path  d="M9.021 3c.63 0 1.142.511 1.142 1.141v1.44h4.134v-1.44c0-.63.512-1.141 1.142-1.141h4.88c.629 0 1.141.511 1.141 1.141v4.88c0 .63-.512 1.142-1.141 1.142h-4.88c-.63 0-1.142-.512-1.142-1.142v-1.44h-4.134v1.44c0 .63-.512 1.142-1.142 1.142h-1.44v7.579h6.716v-1.989c0-.629.512-1.141 1.142-1.141h4.88c.629 0 1.141.512 1.141 1.141v4.879c0 .63-.512 1.142-1.141 1.142h-4.88c-.63 0-1.142-.512-1.142-1.142v-.89H7.165a1.586 1.586 0 01-1.584-1.584v-7.995H4.142C3.512 10.163 3 9.651 3 9.021v-4.88C3 3.511 3.512 3 4.142 3zM19.46 16.612h-3.163v3.162h3.163v-3.162zM8.163 5H5v3.163h3.163V5zM19.46 5h-3.163v3.163h3.163V5z"/></svg>