<svg id="generic--catalog" xmlns="http://www.w3.org/2000/svg" viewBox="0 0 24 24"><path  d="M6.836 1c1.781 0 3.539.436 5.11 1.263a10.984 10.984 0 014.728-1.256L17.056 1h2.28a2.56 2.56 0 012.555 2.392l.005.168v14.777a2.56 2.56 0 01-2.392 2.555l-.168.005h-5.461a.927.927 0 00-.92.818l-.007.108v.143c0 .43-.321.784-.736.836l-.106.007h-.315a.843.843 0 01-.836-.737l-.007-.106v-.143a.927.927 0 00-.819-.92l-.108-.006H4.56a2.56 2.56 0 01-2.555-2.393L2 18.336V3.56a2.56 2.56 0 012.392-2.555L4.56 1h2.276zm12.5 2h-2.28a8.91 8.91 0 00-3.788.861l-.32.158v14.878h6.388a.56.56 0 00.553-.47l.007-.091V3.56a.56.56 0 00-.56-.56zm-12.5 0H4.56a.56.56 0 00-.553.47L4 3.56v14.776c0 .279.203.51.47.554l.09.007h6.388V4.017A8.969 8.969 0 006.836 3zm11.292 11.267a.5.5 0 010 1h-3a.5.5 0 010-1zm-9 0a.5.5 0 010 1h-3a.5.5 0 010-1zm9-4a.5.5 0 010 1h-3a.5.5 0 010-1zm-9 0a.5.5 0 010 1h-3a.5.5 0 010-1zm9-4a.5.5 0 010 1h-3a.5.5 0 010-1zm-9 0a.5.5 0 010 1h-3a.5.5 0 010-1z"/></svg>