<svg id="generic--actions--buttons" xmlns="http://www.w3.org/2000/svg" viewBox="0 0 24 24"><path  d="M11.721 2.006c2.481-.088 4.847.879 6.74 2.487 3.877 3.296 4.438 7.764 2.931 11.408-.114.277-.484.34-.695.128l-.883-.882a.416.416 0 01-.096-.434c.29-.843.445-1.732.445-2.632 0-4.986-4.54-8.933-9.704-7.922-3.147.616-5.683 3.15-6.3 6.297-1.013 5.165 2.934 9.707 7.922 9.707a7.99 7.99 0 002.826-.527.392.392 0 01.418.087l.922.923c.197.195.142.537-.11.649-2.42 1.074-5.207 1.208-7.925.089-3.118-1.284-5.44-4.108-6.042-7.427-1.135-6.255 3.55-11.74 9.551-11.951zm6.097 9.72a1 1 0 010 2H15.43l6.288 6.288a.999.999 0 11-1.414 1.414l-6.288-6.288v2.384a1 1 0 11-2 0v-5.798zM8.055 8.102a5.646 5.646 0 017.976 0 5.639 5.639 0 011.113 1.61h-2.356c-.056-.065-.11-.134-.171-.196a3.647 3.647 0 00-5.148 0 3.645 3.645 0 000 5.148c.157.158.329.293.508.417v2.242a5.608 5.608 0 01-1.922-1.245 5.646 5.646 0 010-7.976z"/></svg>