<svg id="generic--attachment" xmlns="http://www.w3.org/2000/svg" viewBox="0 0 24 24"><path  d="M21.647 12.451l-8.552-8.552a6.511 6.511 0 00-9.192 0A6.458 6.458 0 002 8.496a6.46 6.46 0 001.903 4.596l8.839 8.838a.995.995 0 00.707.293.999.999 0 00.707-1.707l-8.839-8.838A4.47 4.47 0 014 8.496c0-1.202.467-2.332 1.317-3.183a4.505 4.505 0 016.364 0l8.552 8.552a2.378 2.378 0 010 3.359 2.379 2.379 0 01-3.359 0L9.56 9.91a.87.87 0 01.001-1.237.895.895 0 011.236 0l6.188 6.186a.999.999 0 101.414-1.414l-6.187-6.186c-1.086-1.086-2.982-1.085-4.065-.001a2.851 2.851 0 00-.843 2.033c0 .768.299 1.49.842 2.033l7.314 7.314a4.378 4.378 0 006.187 0 4.38 4.38 0 000-6.187"/></svg>