<svg id="generic--lightbulb" xmlns="http://www.w3.org/2000/svg" viewBox="0 0 24 24"><path  d="M16.075 6.598a6.248 6.248 0 012.32 4.87 6.21 6.21 0 01-1.618 4.178c-.492.543-.933 2.14-.983 3.151l-.005.183v.573a3.67 3.67 0 01-3.664 3.665 3.67 3.67 0 01-3.66-3.47l-.005-.195v-.576c0-.19-.017-.41-.049-.649-.146-1.102-.543-2.248-.924-2.664-1.355-1.482-1.904-3.477-1.504-5.473.48-2.402 2.407-4.352 4.795-4.853 1.891-.397 3.823.063 5.297 1.26zm-2.258 12.254h-3.385l.028.245v.456c0 .918.747 1.665 1.665 1.665.87 0 1.585-.67 1.658-1.521l.006-.143v-.456l.028-.246zM12.134 7.197c-.31 0-.627.032-.945.098-1.616.34-2.92 1.66-3.246 3.289-.272 1.364.1 2.723 1.02 3.73.59.646.996 1.721 1.234 2.714l.06.269.063.555h3.611l.063-.555c.237-1.105.675-2.304 1.302-2.995a4.208 4.208 0 001.1-2.835 4.254 4.254 0 00-1.58-3.316 4.207 4.207 0 00-2.682-.954zm10.314 3.557a1 1 0 110 2h-1.325a1 1 0 110-2zm-19.123 0a1 1 0 110 2H2a1 1 0 110-2zM19.74 2.826a.999.999 0 111.414 1.414L19.51 5.885a.997.997 0 01-1.414 0 .999.999 0 010-1.414zm-16.644 0a1 1 0 011.414 0L6.154 4.47A.999.999 0 114.74 5.884L3.096 4.24a1 1 0 010-1.415zM12.126 0a1 1 0 011 1v1.326a1 1 0 11-2 0V1a1 1 0 011-1z"/></svg>