<svg id="generic--info--alt" xmlns="http://www.w3.org/2000/svg" viewBox="0 0 24 24"><path  d="M12.5 1C18.29 1 23 5.71 23 11.5S18.29 22 12.5 22 2 17.29 2 11.5 6.71 1 12.5 1zm0 2C7.813 3 4 6.813 4 11.5c0 4.687 3.813 8.5 8.5 8.5 4.687 0 8.5-3.813 8.5-8.5C21 6.813 17.187 3 12.5 3zm.424 13.08c.18.131.396.382.396.831 0 .45-.216.701-.397.831-.227.166-.458.25-.685.25-.223 0-.452-.084-.68-.25-.18-.13-.396-.38-.396-.83 0-.45.216-.702.396-.833.458-.333.915-.327 1.366 0zM12.565 6a2.921 2.921 0 012.912 2.746l.005.171v1.388c0 1.155-.94 2.095-2.096 2.095a.195.195 0 00-.188.144l-.007.052v.982a.95.95 0 01-1.894.11l-.006-.11v-.982c0-1.156.94-2.096 2.095-2.096.09 0 .165-.061.188-.143l.007-.052V8.917c0-.524-.396-.956-.905-1.011l-.111-.006h-.648c-.524 0-.956.397-1.011.906l-.006.111v.568a.95.95 0 01-1.894.11L9 9.486v-.568a2.921 2.921 0 012.746-2.912L11.917 6h.648z"/></svg>