<svg id="generic--time" xmlns="http://www.w3.org/2000/svg" viewBox="0 0 24 24"><path  d="M11.877 2l.278.002A9.938 9.938 0 0119.18 5.04 9.934 9.934 0 0122 12.156a9.94 9.94 0 01-3.04 7.026A9.936 9.936 0 0112.004 22l-.16-.001a9.938 9.938 0 01-7.025-3.04 9.935 9.935 0 01-2.818-7.114c.086-5.515 4.666-9.94 10.154-9.844zm.184 2h-.063C7.644 4 4.07 7.509 4.001 11.878a7.942 7.942 0 002.254 5.692 7.952 7.952 0 005.621 2.43 7.911 7.911 0 005.692-2.254A7.952 7.952 0 0020 12.125a7.951 7.951 0 00-2.255-5.693 7.948 7.948 0 00-5.62-2.43L11.998 4zm4.296 5.177a.5.5 0 11.612.791l-5.415 4.195-2.28-2.352a.5.5 0 01.718-.696l1.657 1.71z"/></svg>