<svg id="generic--recent" xmlns="http://www.w3.org/2000/svg" viewBox="0 0 24 24"><path  d="M12.521 2c.019 0 .037.002.055.006l.105.026c5.718.092 10.343 4.764 10.343 10.503 0 3.443-1.691 6.673-4.523 8.64a10.457 10.457 0 01-5.989 1.872 1 1 0 010-2c1.744 0 3.42-.524 4.848-1.515a8.524 8.524 0 003.664-6.997c0-4.693-3.819-8.512-8.512-8.512a8.51 8.51 0 00-7.046 3.743A8.447 8.447 0 004.021 12.5c0 2.107.787 4.125 2.182 5.678l1.459-1.459a.386.386 0 01.655.214l.748 4.858a.386.386 0 01-.441.44l-4.857-.748a.386.386 0 01-.214-.655l1.201-1.201A10.464 10.464 0 012 12.535c0-2.179.667-4.204 1.806-5.885A10.496 10.496 0 0112.521 2zm3.516 7.696a.658.658 0 01.924.117l.418.54c.223.287.17.7-.117.924l-5.594 4.234-2.83-2.918a.657.657 0 01.014-.93l.49-.476a.658.658 0 01.932.014l1.583 1.632z"/></svg>