<svg id="socials--youtube" xmlns="http://www.w3.org/2000/svg" viewBox="0 0 24 24"><path  fill-rule="evenodd" d="M12.04 3.999h.048l.366.002c1.561.009 6.693.068 8.142.446a2.722 2.722 0 011.945 1.895c.43 1.563.458 4.715.46 5.116v.084c-.002.4-.03 3.552-.46 5.116a2.723 2.723 0 01-1.945 1.895c-.648.17-2.033.274-3.506.34l-.523.021-.523.018c-1.74.057-3.389.066-3.89.068h-.31c-1.027-.003-6.877-.04-8.44-.447a2.721 2.721 0 01-1.945-1.895c-.386-1.402-.448-4.08-.458-4.908v-.5c.01-.828.072-3.507.458-4.908a2.72 2.72 0 011.945-1.895c.686-.18 2.199-.287 3.767-.351l.523-.02c1.571-.056 3.112-.071 3.851-.075l.366-.002h.049zM9.75 8.334v6.332L15.5 11.5 9.75 8.334z"/></svg>