<svg id="socials--pinterest" xmlns="http://www.w3.org/2000/svg" viewBox="0 0 24 24"><path  fill-rule="evenodd" d="M6.583 13.721c.289.118.547.005.632-.315.057-.221.195-.781.257-1.015.085-.317.052-.428-.182-.704-.507-.6-.832-1.378-.832-2.478 0-3.194 2.385-6.053 6.21-6.053 3.388 0 5.249 2.073 5.249 4.843 0 3.644-1.61 6.718-4 6.718-1.32 0-2.306-1.093-1.99-2.433.38-1.601 1.114-3.33 1.114-4.485 0-1.034-.555-1.897-1.702-1.897-1.349 0-2.433 1.398-2.433 3.271 0 1.192.404 2 .404 2l-1.623 6.886c-.482 2.043-.073 4.548-.038 4.802.021.15.213.185.3.073.124-.163 1.731-2.15 2.276-4.136.155-.563.888-3.473.888-3.473.438.837 1.72 1.574 3.08 1.574 4.056 0 6.807-3.703 6.807-8.66 0-3.748-3.168-7.24-7.985-7.24C7.021 1 4 5.305 4 8.895c0 2.174.822 4.107 2.583 4.827"/></svg>