<svg id="socials--vimeo" xmlns="http://www.w3.org/2000/svg" viewBox="0 0 24 24"><path  fill-rule="evenodd" d="M18.377 4.003c-2.495-.082-4.185 1.363-5.07 4.341.457-.201.901-.303 1.333-.303.915 0 1.32.53 1.212 1.586-.055.638-.459 1.569-1.212 2.792-.755 1.223-1.321 1.834-1.697 1.834-.487 0-.93-.94-1.333-2.826-.137-.554-.38-1.967-.729-4.239-.324-2.107-1.185-3.09-2.586-2.952-.593.055-1.483.61-2.668 1.66A226.92 226.92 0 013 8.304l.847 1.12c.807-.58 1.278-.87 1.412-.87.619 0 1.196.996 1.735 2.986l1.453 5.475C9.172 19.005 10.06 20 11.11 20c1.693 0 3.763-1.634 6.211-4.903 2.367-3.13 3.59-5.594 3.67-7.395.107-2.41-.765-3.642-2.614-3.699"/></svg>