<svg id="socials--google--play" xmlns="http://www.w3.org/2000/svg" viewBox="0 0 136 40"><defs><linearGradient id="a" x1="61.026%" x2="26.521%" y1="4.986%" y2="71.919%"><stop offset="0%" stop-color="#00A0FF"/><stop offset="1%" stop-color="#00A1FF"/><stop offset="26%" stop-color="#00BEFF"/><stop offset="51%" stop-color="#00D2FF"/><stop offset="76%" stop-color="#00DFFF"/><stop offset="100%" stop-color="#00E3FF"/></linearGradient><linearGradient id="b" x1="107.571%" x2="-130.383%" y1="49.824%" y2="49.824%"><stop offset="0%" stop-color="#FFE000"/><stop offset="41%" stop-color="#FFBD00"/><stop offset="78%" stop-color="orange"/><stop offset="100%" stop-color="#FF9C00"/></linearGradient><linearGradient id="c" x1="86.219%" x2="-50.15%" y1="30.854%" y2="136.001%"><stop offset="0%" stop-color="#FF3A44"/><stop offset="100%" stop-color="#C31162"/></linearGradient><linearGradient id="d" x1="-18.814%" x2="42.061%" y1="-11.888%" y2="35.1%"><stop offset="0%" stop-color="#32A071"/><stop offset="7%" stop-color="#2DA771"/><stop offset="48%" stop-color="#15CF74"/><stop offset="80%" stop-color="#06E775"/><stop offset="100%" stop-color="#00F076"/></linearGradient></defs><g fill-rule="nonzero"><path fill="url(#a)" d="M.65.373C.344.74.19 1.21.221 1.688v20.625c-.028.474.125.941.43 1.306l.065.065 11.553-11.553v-.233L.716.308.65.373z" transform="translate(10 8)"/><path fill="url(#b)" d="M16.12 15.982l-3.851-3.85v-.234l3.85-3.851.094.047 4.56 2.592c1.305.746 1.305 1.958 0 2.695l-4.56 2.592-.093.01z" transform="translate(10 8)"/><path fill="url(#c)" d="M16.213 15.935l-3.944-3.934L.65 23.619a1.51 1.51 0 001.94.056l13.623-7.74" transform="translate(10 8)"/><path fill="url(#d)" d="M16.213 8.056L2.59.316A1.539 1.539 0 00.65.374L12.27 12l3.944-3.945z" transform="translate(10 8)"/><path  d="M26.12 23.852l-13.53 7.692c-.554.41-1.311.41-1.865 0l-.065.066.065.065c.554.41 1.31.41 1.865 0l13.623-7.74-.093-.083z" opacity=".2"/><path  d="M10.65 31.479a1.865 1.865 0 01-.429-1.324v.14c-.028.474.125.94.43 1.305l.065-.065-.066-.056zM30.773 21.203l-4.663 2.649.094.083 4.56-2.592c.545-.237.92-.75.978-1.342-.118.53-.477.974-.97 1.202z" opacity=".12"/><path  d="M12.59 8.457l18.183 10.331c.498.228.861.677.979 1.213a1.641 1.641 0 00-.98-1.353L12.59 8.317c-1.306-.737-2.369-.121-2.369 1.37v.14c0-1.491 1.063-2.107 2.369-1.37z" opacity=".25"/><path  d="M128.431 0c3.922 0 7.113 3.191 7.113 7.113v26.464c0 3.922-3.191 7.113-7.113 7.113H7.113C3.191 40.69 0 37.5 0 33.577V7.113C0 3.191 3.191 0 7.113 0h121.318zm0 1H7.113A6.12 6.12 0 001 7.113v26.464a6.12 6.12 0 006.113 6.113h121.318a6.12 6.12 0 006.113-6.113V7.113A6.12 6.12 0 00128.431 1zM77.34 22.013c1.015 0 1.82.451 2.239.95h.065v-.692h1.772v7.635c0 3.142-1.853 4.431-4.044 4.431-2.062 0-3.303-1.386-3.77-2.513l1.628-.676c.29.692.999 1.513 2.142 1.513 1.4 0 2.272-.869 2.272-2.497v-.612h-.065c-.42.516-1.224.967-2.24.967-2.126 0-4.075-1.853-4.075-4.238 0-2.4 1.949-4.268 4.076-4.268zm42.056.25l2.22 5.42h.064l2.139-5.42h2.074l-5.13 11.79h-1.946l1.898-4.215-3.33-7.575h2.011zm-60.498-.25c2.353 0 4.27 1.788 4.27 4.253 0 2.45-1.917 4.253-4.27 4.253-2.353 0-4.27-1.804-4.27-4.253 0-2.465 1.917-4.253 4.27-4.253zm9.314 0c2.352 0 4.27 1.788 4.27 4.253 0 2.45-1.918 4.253-4.27 4.253-2.353 0-4.27-1.804-4.27-4.253 0-2.465 1.917-4.253 4.27-4.253zm21.275 0c2.207 0 3.286 1.756 3.64 2.706l.194.483-5.687 2.353c.435.853 1.112 1.29 2.062 1.29.95 0 1.61-.469 2.095-1.178l1.449.967c-.467.692-1.595 1.885-3.544 1.885-2.416 0-4.221-1.868-4.221-4.253 0-2.529 1.82-4.253 4.012-4.253zM47.819 17.31c2.015 0 3.448.789 4.527 1.82l-1.272 1.273c-.774-.725-1.82-1.29-3.255-1.29-2.658 0-4.736 2.144-4.736 4.802 0 2.658 2.078 4.8 4.736 4.8 1.724 0 2.707-.692 3.335-1.32.516-.515.854-1.257.983-2.271h-4.318v-1.805h6.074c.065.322.097.709.097 1.128 0 1.353-.371 3.028-1.563 4.22-1.16 1.209-2.642 1.853-4.608 1.853-3.641 0-6.702-2.964-6.702-6.605 0-3.641 3.061-6.605 6.702-6.605zm65.643 4.68c2.138 0 3.795 1.24 3.795 3.458v4.793h-1.801v-.964h-.065c-.434.66-1.126 1.221-2.38 1.221-1.64 0-3.104-1.077-3.104-2.75 0-1.833 1.817-2.814 3.602-2.814.885 0 1.609.29 1.947.482v-.129c-.016-1.029-.997-1.607-1.962-1.607-.693 0-1.352.225-1.705.916l-1.657-.69c.58-1.32 1.978-1.916 3.33-1.916zm-11.58-4.228c2.068 0 4.101 1.497 4.101 3.882s-2.033 3.882-4.102 3.882h-2.605v4.737H97.41V17.76zm6.995-.001v12.501h-1.865V17.76h1.865zm-24.304 0v12.501h-1.869V17.76h1.869zm-25.675 5.93c-1.289 0-2.4 1.046-2.4 2.576 0 1.515 1.111 2.578 2.4 2.578 1.29 0 2.4-1.063 2.4-2.578 0-1.53-1.11-2.577-2.4-2.577zm18.603 0c-1.29 0-2.368 1.093-2.368 2.591 0 1.483 1.079 2.563 2.368 2.563 1.272 0 2.27-1.08 2.27-2.563 0-1.498-.998-2.592-2.27-2.592zm-9.29 0c-1.288 0-2.4 1.046-2.4 2.576 0 1.515 1.112 2.578 2.4 2.578 1.29 0 2.4-1.063 2.4-2.578 0-1.53-1.11-2.577-2.4-2.577zm45.54 2.755c-.917 0-1.979.37-1.979 1.334 0 .756.853 1.062 1.464 1.062 1.078 0 2.075-.82 2.22-1.979-.499-.24-.885-.417-1.705-.417zm-24.2-2.788c-.951 0-2.271.836-2.223 2.48l3.802-1.579c-.21-.53-.837-.9-1.578-.9zM101.93 19.5h-2.653v4.286h2.653c1.396 0 2.188-1.174 2.188-2.143 0-.987-.792-2.143-2.188-2.143zM44.545 7.127c.43 0 .84.084 1.23.251.392.168.706.392.94.671l-.527.528c-.398-.475-.945-.712-1.643-.712-.632 0-1.178.221-1.64.666-.46.444-.69 1.021-.69 1.73 0 .71.23 1.286.69 1.731a2.282 2.282 0 001.64.666c.67 0 1.229-.223 1.676-.67.29-.29.458-.696.503-1.216h-2.18v-.72h2.908c.029.156.042.307.042.452 0 .838-.248 1.506-.745 2.003-.564.592-1.3.888-2.204.888-.866 0-1.603-.3-2.208-.9-.606-.6-.91-1.346-.91-2.234 0-.888.304-1.633.91-2.233.605-.6 1.342-.9 2.208-.9zm26.94 0c.872 0 1.603.305 2.196.913.592.61.888 1.35.888 2.221 0 .877-.295 1.62-.884 2.225-.59.606-1.323.91-2.2.91-.877 0-1.61-.304-2.199-.91-.59-.606-.884-1.348-.884-2.225s.294-1.618.884-2.224c.59-.607 1.322-.91 2.2-.91zm-14.455.134v.737h-1.676v5.263h-.77V7.998h-1.677v-.737h4.123zm8.85 0v.737h-1.676v5.263h-.771V7.998h-1.676v-.737h4.123zm-13.777 0v.738h-2.732v1.902h2.463v.721h-2.463v1.902h2.732v.737H48.6v-6h3.503zm8.681 0v6h-.771v-6h.771zm15.806 0l2.916 4.668h.033l-.033-1.156V7.261h.77v6h-.803l-3.051-4.893h-.033l.033 1.156v3.737h-.771v-6h.939zm-5.105.604a2.2 2.2 0 00-1.63.674c-.443.45-.666 1.024-.666 1.722s.223 1.273.666 1.722c.444.45.987.675 1.63.675.642 0 1.186-.225 1.63-.675.444-.449.667-1.024.667-1.722s-.223-1.272-.667-1.722a2.202 2.202 0 00-1.63-.674z"/></g></svg>