<svg id="view--full--screen" xmlns="http://www.w3.org/2000/svg" viewBox="0 0 24 24"><path  d="M14.29 14.293a.999.999 0 011.414 0l4.3 4.297v-2.586a1 1 0 011-1l.116.007a1 1 0 01.883.993v5.504a.5.5 0 01-.5.5H16a1 1 0 010-2h2.594l-4.303-4.301a.997.997 0 010-1.414zm-5.998.006a.999.999 0 111.414 1.414l-4.289 4.29h2.586a1 1 0 110 2H2.5a.5.5 0 01-.5-.5V16a1 1 0 112 0v2.593zM21.507 2.004a.5.5 0 01.5.5v5.504a1 1 0 01-2 0V5.414l-4.3 4.303a.997.997 0 01-1.415 0 1 1 0 010-1.414l4.298-4.3h-2.587a1 1 0 010-2zM8.007 2a1 1 0 110 2H5.414l4.294 4.292a.999.999 0 11-1.414 1.414l-4.29-4.289v2.587a1 1 0 11-2 0V2.5a.5.5 0 01.5-.5z"/></svg>