<svg id="view--visibility--on" xmlns="http://www.w3.org/2000/svg" viewBox="0 0 24 24"><path  d="M12.249 4c4.934 0 9.292 2.972 11.104 7.57l.145.366-.145.367c-1.812 4.598-6.17 7.57-11.104 7.57-4.934 0-9.292-2.972-11.104-7.57L1 11.936l.145-.366C2.957 6.972 7.315 4 12.249 4zm0 2a9.88 9.88 0 00-9.091 5.936 9.88 9.88 0 009.091 5.937 9.88 9.88 0 009.091-5.937A9.88 9.88 0 0012.249 6zm0 1.486a4.456 4.456 0 014.451 4.45 4.456 4.456 0 01-4.451 4.452 4.456 4.456 0 01-4.451-4.451 4.456 4.456 0 014.451-4.451zm0 2a2.453 2.453 0 00-2.451 2.45 2.454 2.454 0 002.451 2.452c1.352 0 2.451-1.1 2.451-2.451a2.453 2.453 0 00-2.451-2.451z"/></svg>