<svg id="action--star--outline" xmlns="http://www.w3.org/2000/svg" viewBox="0 0 24 24"><path  d="M15.331 13.578l.753 4.39-3.94-2.073L8.2 17.968l.753-4.39-3.189-3.107 4.407-.641 1.971-3.993 1.97 3.993 4.407.641-3.189 3.107zm5.887-3.985a1.326 1.326 0 00-1.077-.908l-4.7-.683-2.1-4.257A1.326 1.326 0 0012.142 3c-.512 0-.97.285-1.198.744l-2.1 4.258-4.7.683a1.33 1.33 0 00-1.079.909 1.328 1.328 0 00.34 1.369l3.4 3.314-.804 4.681a1.327 1.327 0 00.532 1.306 1.334 1.334 0 001.405.1l4.204-2.209 4.201 2.208c.452.238.991.201 1.406-.098.415-.301.62-.802.533-1.307l-.803-4.681 3.402-3.315a1.33 1.33 0 00.336-1.369z"/></svg>