<svg id="action--lock--unlock" xmlns="http://www.w3.org/2000/svg" viewBox="0 0 24 24"><path  d="M13.822 2a4.51 4.51 0 014.506 4.505v3.097h1.419c1.095 0 1.986.891 1.986 1.987v10.126a1.988 1.988 0 01-1.986 1.986H3.985A1.988 1.988 0 012 21.715V11.589c0-1.096.89-1.987 1.985-1.987h12.343V6.505A2.508 2.508 0 0013.822 4H9.91c-1.084 0-2.04.69-2.379 1.718a1 1 0 01-1.9-.627A4.498 4.498 0 019.91 2zm5.911 9.589l-15.748.013L4 21.715l15.733-.014V11.589zm-8.139 1.586a1.502 1.502 0 011.197 2.657c-.166.13-.219.356-.1.531l.424.624a.29.29 0 01.051.164v2.708a.292.292 0 01-.292.292H10.86a.293.293 0 01-.293-.292v-2.708a.29.29 0 01.051-.164l.425-.624c.12-.175.066-.4-.1-.53a1.498 1.498 0 01.652-2.658z"/></svg>