<svg id="action--backspace" xmlns="http://www.w3.org/2000/svg" viewBox="0 0 24 24"><path  d="M22.314 4c1.025 0 1.859.834 1.859 1.858v12.283A1.861 1.861 0 0122.313 20H7.992a3.065 3.065 0 01-2.472-1.26l-4.212-5.798a1.6 1.6 0 010-1.884L5.519 5.26A3.065 3.065 0 017.99 4zm-.141 2H7.99c-.337 0-.656.162-.853.435L3.094 12l4.043 5.564c.199.273.517.436.854.436h14.182V6zM9.833 7.976a.999.999 0 011.414 0l2.609 2.61 2.61-2.61A.999.999 0 1117.88 9.39L15.27 12l2.61 2.61a.999.999 0 11-1.414 1.413l-2.61-2.609-2.609 2.61a.997.997 0 01-1.414 0 .999.999 0 010-1.415L12.442 12 9.833 9.39a.999.999 0 010-1.414z"/></svg>