<svg id="action--copy--link" xmlns="http://www.w3.org/2000/svg" viewBox="0 0 24 24"><path  d="M9.818 9.524a4.411 4.411 0 016.233 0l3.536 3.537a4.373 4.373 0 011.29 3.116 4.377 4.377 0 01-1.29 3.116 4.394 4.394 0 01-3.116 1.289 4.388 4.388 0 01-3.116-1.29l-1.257-1.255a1 1 0 011.415-1.414l1.256 1.256a2.41 2.41 0 003.404 0 2.39 2.39 0 00.705-1.702 2.39 2.39 0 00-.705-1.702l-3.536-3.537a2.41 2.41 0 00-3.404 0 1 1 0 11-1.415-1.414zM3.29 4.29a4.41 4.41 0 016.232 0l1.394 1.394a.999.999 0 11-1.414 1.414L8.109 5.704A2.41 2.41 0 004 7.406c0 .643.251 1.247.706 1.702l3.536 3.537a2.412 2.412 0 003.404 0 .999.999 0 111.414 1.414 4.393 4.393 0 01-3.116 1.288 4.392 4.392 0 01-3.116-1.288l-3.537-3.537A4.379 4.379 0 012 7.406 4.38 4.38 0 013.291 4.29z"/></svg>