<svg id="action--settings" xmlns="http://www.w3.org/2000/svg" viewBox="0 0 24 24"><path  d="M13.562 1c1.233 0 2.293.92 2.467 2.138l.18 1.248c.313.156.617.333.914.532l1.17-.47a2.49 2.49 0 013.088 1.064l1.139 1.971a2.502 2.502 0 01-.622 3.21l-.991.775a7.417 7.417 0 01-.001 1.065l.99.774a2.502 2.502 0 01.624 3.211l-1.138 1.97a2.5 2.5 0 01-2.158 1.246c-.32 0-.632-.061-.928-.18l-1.177-.473a8.773 8.773 0 01-.91.533l-.18 1.248A2.505 2.505 0 0113.564 23H11.29a2.504 2.504 0 01-2.467-2.137l-.18-1.247a8.185 8.185 0 01-.914-.533l-1.171.472a2.49 2.49 0 01-3.087-1.066l-1.14-1.971a2.503 2.503 0 01.623-3.21l.992-.775a7.462 7.462 0 010-1.064l-.992-.775a2.503 2.503 0 01-.622-3.21l1.139-1.97a2.498 2.498 0 012.158-1.246c.319 0 .632.061.928.18l1.176.472c.303-.202.605-.379.91-.532l.179-1.249A2.506 2.506 0 0111.289 1zm0 2h-2.273a.493.493 0 00-.487.422l-.256 1.79c-.05.338-.26.642-.575.769a6.507 6.507 0 00-1.48.851c-.186.14-.41.216-.636.216a.965.965 0 01-.361-.069L5.81 6.304a.491.491 0 00-.608.21l-1.14 1.971a.494.494 0 00.123.634l1.426 1.114a.989.989 0 01.378.9 6.897 6.897 0 00-.064.867c0 .292.028.584.064.869a.99.99 0 01-.378.9l-1.426 1.114a.493.493 0 00-.123.634l1.139 1.972a.494.494 0 00.61.21l1.684-.677a.953.953 0 01.358-.069c.23 0 .457.081.647.225.46.35.93.621 1.438.83.337.138.56.462.613.822l.25 1.749a.49.49 0 00.488.421h2.273a.49.49 0 00.487-.421l.257-1.79c.048-.337.258-.641.575-.768a6.683 6.683 0 001.483-.854c.186-.138.408-.213.632-.213.122 0 .244.022.362.069l1.682.675a.493.493 0 00.609-.21l1.139-1.971a.493.493 0 00-.123-.634l-1.425-1.114a.991.991 0 01-.378-.9c.035-.285.063-.568.063-.869 0-.3-.028-.584-.063-.867a.99.99 0 01.377-.9l1.426-1.115a.493.493 0 00.123-.634l-1.14-1.971a.49.49 0 00-.61-.21l-1.682.677a.958.958 0 01-.36.069c-.23 0-.456-.081-.646-.225a6.294 6.294 0 00-1.438-.83c-.337-.138-.561-.462-.612-.823l-.251-1.749A.492.492 0 0013.562 3zm-1.148 4.501a4.51 4.51 0 013.193 1.318 4.525 4.525 0 011.236 4.055 4.491 4.491 0 01-4.405 3.625c-1.19 0-2.34-.466-3.192-1.317a4.528 4.528 0 01-1.237-4.055 4.496 4.496 0 013.543-3.544c.287-.055.576-.082.862-.082zm0 2a2.478 2.478 0 00-2.44 2.001c-.158.83.098 1.678.686 2.265a2.497 2.497 0 001.778.732 2.476 2.476 0 002.441-2 2.528 2.528 0 00-.687-2.266 2.493 2.493 0 00-1.778-.732z"/></svg>