<svg id="action--block" xmlns="http://www.w3.org/2000/svg" viewBox="0 0 24 24"><path  d="M12.077 2l.078.001c5.513.086 9.93 4.642 9.844 10.155a9.934 9.934 0 01-3.039 7.024A9.932 9.932 0 0112.004 22l-.16-.001A9.938 9.938 0 014.82 18.96a9.936 9.936 0 01-2.818-7.116C2.086 6.383 6.556 2 11.998 2l.157.001zM5.689 7.103a7.947 7.947 0 00-1.688 4.773 7.944 7.944 0 002.254 5.692 7.956 7.956 0 005.621 2.431 7.866 7.866 0 005.028-1.681zM12 4c-1.843 0-3.54.632-4.898 1.687l11.213 11.212A7.935 7.935 0 0020 12.125c.068-4.411-3.464-8.055-7.875-8.124L11.998 4z"/></svg>