<svg id="action--save" xmlns="http://www.w3.org/2000/svg" viewBox="0 0 24 24"><path  d="M17.085 2c.307 0 .604.091.852.26l.12.09.102.1 2.534 2.845c.235.227.381.524.414.84l.007.137v13.172c0 .983-.83 1.791-1.88 1.863l-.151.005H5.032c-1.07 0-1.949-.764-2.026-1.729L3 19.444V3.869c0-.984.831-1.792 1.88-1.864L5.033 2h12.053zM5 3.997v15.296l2.426.002V14.42c0-.633.483-1.156 1.1-1.219l.125-.006h6.666c.633 0 1.156.483 1.219 1.1l.006.125v4.888l2.541.004h.024l.007.003V6.53L16.861 4h-.319v3.634c0 .43-.323.786-.74.838l-.105.007H8.27a.845.845 0 01-.837-.74l-.007-.105V4H5.013L5 3.998zm10.317 10.198H8.651a.225.225 0 00-.225.225v4.877l7.116.01V14.42a.225.225 0 00-.225-.225zM12.75 4H8.426v3.479h4.324V4zm2.792 0H13.75v3.479h1.792V4z"/></svg>