<svg id="action--copy" xmlns="http://www.w3.org/2000/svg" viewBox="0 0 24 24"><path  d="M8 9v2H5.182a.181.181 0 00-.182.181v7.637c0 .101.081.182.182.182h7.637c.1 0 .181-.081.181-.182V17h2v1.818A2.184 2.184 0 0112.819 21H5.182A2.185 2.185 0 013 18.818v-7.637C3 9.978 3.979 9 5.182 9H8zm11.819-6c1.15 0 2.095.895 2.176 2.025l.005.156v7.637c0 1.15-.896 2.096-2.026 2.177L19.82 15h-7.637a2.185 2.185 0 01-2.177-2.026L10 12.818V5.181c0-1.15.896-2.096 2.026-2.176L12.182 3h7.637zm0 2h-7.637a.182.182 0 00-.173.124L12 5.18v7.637c0 .08.052.149.124.173l.058.009h7.637a.18.18 0 00.172-.124l.009-.058V5.181c0-.1-.081-.181-.181-.181z"/></svg>