<svg id="action--delete" xmlns="http://www.w3.org/2000/svg" viewBox="0 0 24 24"><path  d="M13.066 1a3.4 3.4 0 013.396 3.396V6H20a1 1 0 110 2h-1v12.806a1.988 1.988 0 01-1.986 1.986H5.987A1.989 1.989 0 014 20.806V8H3a1 1 0 110-2h3.539V4.396A3.4 3.4 0 019.934 1zm3.935 7H6v12.806l11.014-.014L17.001 8zm-2.5 3a.5.5 0 01.5.5v6a.5.5 0 01-1 0v-6a.5.5 0 01.5-.5zm-6 0a.5.5 0 01.5.5v6a.5.5 0 01-1 0v-6a.5.5 0 01.5-.5zm3 0a.5.5 0 01.5.5v6a.5.5 0 01-1 0v-6a.5.5 0 01.5-.5zm1.565-8H9.934c-.769 0-1.395.626-1.395 1.396V6h5.923V4.396c0-.77-.626-1.396-1.396-1.396z"/></svg>