<svg id="action--reply" xmlns="http://www.w3.org/2000/svg" viewBox="0 0 24 24"><path  d="M11.677 3.12c.427-.21.926-.142 1.338.175l9.467 8.102c.311.238.513.637.513 1.063 0 .428-.203.828-.554 1.1l-9.385 8.037c-.281.218-.58.325-.869.325-.176 0-.348-.04-.509-.12-.425-.208-.678-.642-.678-1.16V16.38l-3.206.083H3.689A2.692 2.692 0 011 13.772V11.15a2.691 2.691 0 012.687-2.688H11v-4.18c0-.518.253-.952.677-1.161zM13 5.914v4.549H3.687A.689.689 0 003 11.15v2.623c0 .374.316.689.689.689h4.092L13 14.326v4.687l7.651-6.553L13 5.913z"/></svg>