<svg id="action--find--replace" xmlns="http://www.w3.org/2000/svg" viewBox="0 0 24 24"><path  d="M15.627 2.834l.076.005 4.858.748a.387.387 0 01.214.656l-1.231 1.23a10.506 10.506 0 012.762 7.098c0 5.79-4.71 10.5-10.5 10.5a1 1 0 010-2c4.687 0 8.5-3.814 8.5-8.5a8.501 8.501 0 00-2.181-5.678l-1.46 1.459a.387.387 0 01-.655-.215l-.748-4.857a.387.387 0 01.44-.441zM11.5 2a1 1 0 010 2C6.813 4 3 7.814 3 12.5c0 2.109.787 4.126 2.181 5.679l1.459-1.46a.386.386 0 01.655.215l.749 4.857a.388.388 0 01-.441.442l-4.858-.748a.388.388 0 01-.214-.657l1.231-1.23A10.508 10.508 0 011 12.5C1 6.71 5.71 2 11.5 2z"/></svg>