<svg id="communication--av--headphones--mic" xmlns="http://www.w3.org/2000/svg" viewBox="0 0 24 24"><path  fill-rule="evenodd" d="M21.474 13.935a.974.974 0 01-.972.973h-1.645v-4.731h1.408a1.21 1.21 0 011.209 1.209v2.549zM2 13.935v-2.549a1.21 1.21 0 011.209-1.209h1.289v4.731H2.972A.974.974 0 012 13.935zm18.265-5.758h-1.692C17.704 5.19 14.942 3 11.678 3 8.413 3 5.651 5.19 4.782 8.177H3.209A3.213 3.213 0 000 11.386v2.549a2.976 2.976 0 002.972 2.973h1.556c.313 1.88 1.94 3.321 3.907 3.321h1.527c.279.268.656.435 1.074.435a1.553 1.553 0 10-1.277-2.435H8.435a1.976 1.976 0 01-1.973-1.974v-.296c.01-.06.036-.115.036-.178V10.18A5.186 5.186 0 0111.678 5a5.185 5.185 0 015.179 5.18v5.601c0 .621.506 1.127 1.127 1.127h2.518a2.976 2.976 0 002.972-2.973v-2.549a3.213 3.213 0 00-3.209-3.209z"/></svg>