<svg id="communication--call--dialpad" xmlns="http://www.w3.org/2000/svg" viewBox="0 0 24 24"><path  d="M12.499 17.997a1.5 1.5 0 11-.001 3.001 1.5 1.5 0 01.001-3.001zm0-4.999a1.5 1.5 0 110 3 1.5 1.5 0 010-3zm5 0a1.5 1.5 0 110 2.999 1.5 1.5 0 010-2.999zm-9.999 0a1.5 1.5 0 110 3 1.5 1.5 0 010-3zm4.999-4.999a1.5 1.5 0 110 3 1.5 1.5 0 010-3zm5 0a1.5 1.5 0 11.001 2.998A1.5 1.5 0 0117.498 8zm-9.999 0a1.5 1.5 0 110 3 1.5 1.5 0 010-3zM12.499 3a1.5 1.5 0 110 3 1.5 1.5 0 010-3zm5 0a1.5 1.5 0 11.001 2.998A1.5 1.5 0 0117.498 3zM7.5 3a1.5 1.5 0 110 3 1.5 1.5 0 010-3z"/></svg>