<svg id="communication--call--call--off" xmlns="http://www.w3.org/2000/svg" viewBox="0 0 24 24"><path  fill-rule="evenodd" d="M20.946 3.894c.361.36.389.927.083 1.32l-.083.094-8.08 8.08c.377.392.665.652.868.816.071.057.135.105.19.145.532-.427 1.145-.851 1.974-.991 1.691-.29 3.07.82 4.081 1.817 1.076 1.06 1.587 2.159 1.522 3.268-.099 1.642-1.395 2.646-2.258 3.315-.117.09-.232.178-.338.265a3.18 3.18 0 01-1.499.658c-1.506.257-3.177-.365-4.312-.931-1.513-.752-3.07-1.9-4.542-3.321l-.366-.361-2.24 2.24a.997.997 0 01-1.414 0 1.001 1.001 0 01-.083-1.32l.083-.094 15-15a.999.999 0 011.414 0zM11.453 14.8L9.6 16.653c1.422 1.436 2.932 2.583 4.385 3.306 1.228.612 2.351.875 3.085.75a1.2 1.2 0 00.57-.236c.121-.098.25-.197.382-.3.674-.521 1.438-1.112 1.482-1.85.03-.506-.282-1.087-.929-1.723-1.083-1.07-1.763-1.37-2.34-1.271-.398.067-.747.324-1.146.65l-.174.143-.21.174a.956.956 0 01-.45.206c-.469.08-1.063-.168-1.775-.74a11.424 11.424 0 01-1.027-.961zM6.95 1l.212.015.092.01.044.005c1.095.16 2.069.88 2.893 2.146 1.943 2.99 1.28 4.636-.41 6.096.086.195.24.483.495.877l-1.23 1.23a.249.249 0 01-.378-.043C7.59 9.694 7.385 8.65 8.033 8.12l.21-.169c1.092-.876 1.75-1.405.27-3.683-.496-.76-1.001-1.183-1.502-1.256l-.047-.005a1.215 1.215 0 00-.33.012c-.604.103-1.198.613-1.732 1.073-.127.11-.251.215-.371.313-.604.493-.695 1.94-.231 3.686.433 1.628 1.3 3.411 2.489 5.156a.338.338 0 01-.038.43l-.947.946a.346.346 0 01-.526-.047C3.89 12.578 2.873 10.51 2.367 8.602c-.706-2.658-.386-4.7.899-5.747.105-.086.213-.178.333-.282.69-.593 1.549-1.33 2.699-1.526.29-.05.583-.06.863-.03z"/></svg>