<svg id="communication--av--music" xmlns="http://www.w3.org/2000/svg" viewBox="0 0 24 24"><path  fill-rule="evenodd" d="M19.462 3.014a.745.745 0 01.885.732v11.952c-.008.028 0 .056 0 .085a3.44 3.44 0 01-1.016 2.45 3.455 3.455 0 01-2.451 1.014 3.452 3.452 0 01-2.45-1.014 3.44 3.44 0 01-1.016-2.45 3.44 3.44 0 011.016-2.451 3.46 3.46 0 013.917-.676V5.863a.494.494 0 00-.588-.485l-7.328 1.408a.611.611 0 00-.498.6v9.566h-.021c.005.07.021.139.021.212 0 .926-.361 1.797-1.016 2.45a3.452 3.452 0 01-2.45 1.015 3.455 3.455 0 01-2.451-1.014A3.442 3.442 0 013 17.164c0-.926.361-1.796 1.016-2.451a3.46 3.46 0 013.917-.676v-7.78c0-.596.424-1.11 1.01-1.222zM6.467 15.698c-.376 0-.751.142-1.037.429-.277.277-.43.645-.43 1.037a1.468 1.468 0 002.933 0c0-.392-.153-.76-.43-1.037a1.456 1.456 0 00-1.036-.43zm10.413-1.381c-.375 0-.751.143-1.036.429-.277.277-.43.645-.43 1.037a1.468 1.468 0 002.933 0 1.465 1.465 0 00-1.467-1.466z"/></svg>