<svg id="communication--call--phonebook--alt" xmlns="http://www.w3.org/2000/svg" viewBox="0 0 24 24"><path  fill-rule="evenodd" d="M19.557 2c.8 0 1.458.614 1.529 1.395l.006.14v17.722c0 .8-.614 1.458-1.395 1.529l-.14.006H5.221a1.537 1.537 0 01-1.529-1.395l-.006-.14v-.72H3a1 1 0 01-.117-1.993L3 18.537h.686v-2.761H3a1 1 0 01-.117-1.993L3 13.776h.686v-2.76H3a1 1 0 01-.117-1.993L3 9.016h.686v-2.76H3a1 1 0 01-.117-1.993L3 4.256h.686v-.721c0-.8.615-1.458 1.396-1.529L5.22 2h14.336zm-.151 2H6v16.792h13.406V4zM9.788 8.473c.484-.29 1.024-.57 1.508-.44.414.132.72.462.95.995.638 1.477.115 1.913-.634 2.33l-.11.061c.008 0-.127.342.741 1.871.321.567.61.996.855 1.275.264.297.394.317.395.317l.09-.059c.28-.162.573-.33.924-.33.605 0 1.045.498 1.396.985.34.47.465.901.377 1.282-.13.56-.659.842-1.084 1.07l-.197.107a1.07 1.07 0 01-.529.128c-.47 0-1.064-.245-1.673-.69-.908-.662-1.8-1.718-2.512-2.973-.712-1.257-1.16-2.564-1.263-3.682-.099-1.095.138-1.89.652-2.18z"/></svg>