<svg id="communication--channel" xmlns="http://www.w3.org/2000/svg" viewBox="0 0 24 24"><path  fill-rule="evenodd" d="M4.02 15.381c1.807 0 3.328 1.204 3.831 2.847l.054.192 5.353-.033a.728.728 0 01.73.62l.009.098.006.544a.728.728 0 01-.619.73l-.098.008-5.393.034c-.455 1.721-2.011 2.999-3.873 2.999A4.025 4.025 0 010 19.4a4.025 4.025 0 014.02-4.019zm12.142-5.14l.06.09 2.916 5.071c.21-.034.42-.065.64-.065a4.024 4.024 0 014.02 4.019 4.024 4.024 0 01-4.02 4.02 4.025 4.025 0 01-4.02-4.02c0-1.196.536-2.26 1.37-2.996l.17-.143-2.803-4.879a.73.73 0 01.173-.935l.089-.061.47-.274a.728.728 0 01.935.174zM4.02 17.382c-1.113 0-2.02.906-2.02 2.019 0 1.114.907 2.02 2.02 2.02a2.023 2.023 0 002.021-2.02 2.023 2.023 0 00-2.021-2.019zm15.758-.044c-1.113 0-2.02.906-2.02 2.019 0 1.114.907 2.02 2.02 2.02 1.114 0 2.02-.906 2.02-2.02a2.022 2.022 0 00-2.02-2.019zM11.95 1a4.025 4.025 0 014.02 4.02 4.025 4.025 0 01-4.02 4.019c-.322 0-.63-.05-.928-.125l-.221-.062-2.846 4.796a.727.727 0 01-.897.314l-.097-.047-.471-.272a.728.728 0 01-.314-.898l.047-.097 2.859-4.82A4.001 4.001 0 017.93 5.02 4.024 4.024 0 0111.95 1zm0 2c-1.114 0-2.02.906-2.02 2.02 0 1.113.906 2.019 2.02 2.019 1.113 0 2.02-.906 2.02-2.019 0-1.114-.907-2.02-2.02-2.02z"/></svg>