<svg id="communication--text--styling--highlight" xmlns="http://www.w3.org/2000/svg" viewBox="0 0 24 24"><path  d="M15.7 6.282l.106.095 1.938 1.938c.445.446.495 1.146.138 1.646l-.083.104-5.45 6.165-.374.377c-.35.349-.813.541-1.306.541a3.51 3.51 0 00-2.343.887l-.158.149-.076.076a1.148 1.148 0 01-1.35.208l-.12-.071-.377.376a.724.724 0 01-1.031 0 .728.728 0 01-.07-.95l.07-.081.392-.391a1.158 1.158 0 01.085-1.303l.088-.099.183-.181a3.513 3.513 0 001.03-2.284l.006-.217v-.12c0-.433.155-.856.432-1.187l.109-.119.223-.22 6.317-5.317a1.268 1.268 0 011.621-.022zm-7.54 7.07a4.671 4.671 0 01-1.205 3.064l-.168.177-.182.182.678.661.059-.078a4.677 4.677 0 013.327-1.378l.05-.008.05-.011-2.608-2.609zm6.82-6.15a.113.113 0 00-.15-.006l-6.067 5.108 2.92 2.92 5.24-5.931a.111.111 0 00-.004-.152z"/></svg>