<svg id="communication--av--mic--on" xmlns="http://www.w3.org/2000/svg" viewBox="0 0 24 24"><path  d="M6.923 20.066a1.5 1.5 0 11-.001 3.001 1.5 1.5 0 010-3.001zm5 0a1.5 1.5 0 11-.001 3.001 1.5 1.5 0 010-3.001zm5 0a1.5 1.5 0 11-.001 3.001 1.5 1.5 0 010-3.001zM5.533 6.486a.5.5 0 01.495.507L6 8.992a5.465 5.465 0 001.558 3.91 5.464 5.464 0 003.867 1.664h.074a5.507 5.507 0 005.499-5.426l.027-2a.5.5 0 01.5-.493.502.502 0 01.5.507l-.027 2c-.045 3.38-2.68 6.127-5.986 6.388v2.024h2.5a.5.5 0 010 1h-6a.5.5 0 010-1h2.5V15.54C7.618 15.286 4.953 12.427 5 8.978l.027-2a.5.5 0 01.5-.492zM11.514 0a3.816 3.816 0 013.812 3.812v5.442a3.816 3.816 0 01-3.812 3.812 3.815 3.815 0 01-3.811-3.812V3.812A3.815 3.815 0 0111.512 0zm0 2c-1 0-1.811.813-1.811 1.812v5.442c0 .999.812 1.812 1.81 1.812 1 0 1.813-.813 1.813-1.812V3.812c0-.999-.813-1.812-1.812-1.812z"/></svg>