<svg id="communication--connection--cloud--off" xmlns="http://www.w3.org/2000/svg" viewBox="0 0 24 24"><path  fill-rule="evenodd" d="M4.817 5.363l.094.083 15 15A.999.999 0 0118.6 21.95l-.103-.09-2.857-2.857H7.094C4.285 19.003 2 16.676 2 13.816c0-2.239 1.383-4.14 3.309-4.863l.208-.073-2.02-2.02a1 1 0 011.32-1.497zM11.445 3c2.739 0 5.023 2.029 5.479 4.689 2.842.252 5.078 2.688 5.078 5.646 0 1.7-.74 3.222-1.906 4.261a.335.335 0 01-.457-.019l-.942-.941c-.14-.14-.12-.362.03-.492a3.702 3.702 0 001.275-2.809c0-2.022-1.598-3.667-3.563-3.667-.114 0-.226.006-.337.016a1 1 0 01-1.093-1.061C15.008 6.645 13.409 5 11.445 5c-.706 0-1.81.318-2.592 1.009a.249.249 0 01-.308.024L7.29 5.162a.253.253 0 01-.041-.38C8.393 3.61 10.073 3 11.445 3zm-4.226 7.582c-.086.022-.172.047-.263.05C5.348 10.662 4 12.107 4 13.815c0 1.697 1.294 3.09 2.919 3.183l.175.005h6.546l-6.421-6.422z"/></svg>