<svg id="communication--av--volume--off" xmlns="http://www.w3.org/2000/svg" viewBox="0 0 24 24"><path  d="M11.746 3l.643.261c.371.177.611.557.611.968v16.327l-.611.337a1.08 1.08 0 01-1.133-.13l-4.607-3.686H2.901A1.903 1.903 0 011 15.176V8.978c0-1.048.853-1.901 1.901-1.901h3.748L11.746 3zM11 6.158l-3 2.4v7.039l3 2.399V6.158zm4.298 1.912a1 1 0 011.415 0l2.71 2.711 2.712-2.71a.999.999 0 111.414 1.413l-2.711 2.711 2.71 2.711a.999.999 0 11-1.413 1.414l-2.711-2.71-2.711 2.71a1.001 1.001 0 01-1.415-1.414l2.712-2.71-2.712-2.712a1 1 0 010-1.414zM6 9.077H3v6h3v-6z"/></svg>