<svg id="communication--call--forward--call" xmlns="http://www.w3.org/2000/svg" viewBox="0 0 24 24"><path  d="M5.949 1.043l.212.013.092.01.043.007c1.096.158 2.07.88 2.894 2.145 1.942 2.99 1.281 4.636-.41 6.096.186.42.66 1.247 1.858 2.715 1.036 1.271 1.712 1.907 2.096 2.216.071.057.134.105.19.144.532-.426 1.144-.849 1.975-.99 1.69-.288 3.07.82 4.08 1.818 1.076 1.06 1.588 2.158 1.522 3.266-.099 1.644-1.395 2.648-2.258 3.316-.117.09-.232.178-.338.265a3.17 3.17 0 01-1.499.658c-1.506.256-3.177-.365-4.312-.93-2.246-1.117-4.59-3.09-6.606-5.56-2.013-2.467-3.477-5.162-4.12-7.588-.707-2.658-.387-4.7.898-5.748.105-.086.213-.178.333-.282.69-.593 1.55-1.33 2.7-1.526.29-.049.581-.06.862-.032zm.014 2.004a1.26 1.26 0 00-.33.012c-.603.103-1.196.614-1.732 1.074-.126.108-.25.214-.37.313-.605.492-.695 1.94-.232 3.685.574 2.157 1.901 4.586 3.74 6.837 1.836 2.25 3.947 4.04 5.946 5.033 1.228.612 2.352.875 3.085.75a1.21 1.21 0 00.57-.237c.121-.098.25-.198.382-.299.674-.522 1.438-1.114 1.482-1.85.03-.507-.282-1.087-.929-1.724-1.083-1.068-1.763-1.369-2.34-1.27-.455.076-.846.4-1.32.793l-.21.174a.966.966 0 01-.45.206c-.469.08-1.063-.168-1.774-.74-.667-.537-1.473-1.38-2.394-2.51-2.274-2.788-2.927-4.42-2.054-5.134l.21-.169c1.092-.876 1.75-1.404.27-3.683-.496-.76-1-1.183-1.503-1.256zM21.937 1a.5.5 0 01.5.5v5.504a1 1 0 11-2 0V4.411l-5.12 5.122a.999.999 0 11-1.415-1.414L19.02 3h-2.587a1 1 0 110-2z"/></svg>