<svg id="communication--av--mic--off" xmlns="http://www.w3.org/2000/svg" viewBox="0 0 24 24"><path  d="M4.293 2.29a1.005 1.005 0 011.414 0l15 14.882a.987.987 0 010 1.403 1.001 1.001 0 01-1.414 0l-2.742-2.721a6.493 6.493 0 01-4.329 2.136v2.018h2.5c.276 0 .5.222.5.496a.498.498 0 01-.5.496h-6a.498.498 0 01-.5-.496c0-.274.224-.496.5-.496h2.5v-2.01c-3.395-.252-6.059-3.089-6.013-6.51l.027-1.983a.499.499 0 01.5-.49.499.499 0 01.5.503l-.027 1.984c-.04 3.008 2.393 5.489 5.426 5.53h.08a5.477 5.477 0 004.123-1.884l-1.11-1.102a3.778 3.778 0 01-3.006 1.497c-2.102 0-3.812-1.696-3.812-3.781V7.283l-3.617-3.59a.985.985 0 010-1.402zM9.91 9.268v2.495c0 .992.813 1.797 1.812 1.797.681 0 1.268-.379 1.577-.93L9.91 9.268zm7.833-.092c.276.004.497.23.493.503l-.027 1.984a6.274 6.274 0 01-.093.956l-.914-.908c0-.021.007-.04.007-.062l.027-1.984a.499.499 0 01.5-.489zm-6.02-6.594c2.101 0 3.811 1.697 3.811 3.782v3.693l-2-1.984V6.363a1.806 1.806 0 00-3.043-1.31L9.077 3.65a3.81 3.81 0 012.645-1.069z"/></svg>