<svg id="communication--call--new--call" xmlns="http://www.w3.org/2000/svg" viewBox="0 0 24 24"><path  fill-rule="evenodd" d="M5.949 1l.212.014.091.01.044.005c1.096.16 2.07.88 2.894 2.146 1.942 2.99 1.281 4.637-.41 6.097.186.418.66 1.246 1.858 2.714 1.036 1.271 1.712 1.907 2.096 2.216.071.057.135.105.19.145.532-.427 1.145-.85 1.974-.99 1.691-.29 3.07.82 4.081 1.816 1.076 1.06 1.587 2.16 1.522 3.268-.099 1.642-1.395 2.646-2.258 3.315-.117.09-.232.178-.338.265a3.18 3.18 0 01-1.499.658c-1.506.257-3.177-.365-4.312-.93-2.246-1.118-4.592-3.092-6.606-5.559-2.013-2.468-3.477-5.163-4.12-7.589-.707-2.659-.388-4.7.898-5.747.105-.086.213-.179.333-.283.69-.592 1.55-1.33 2.7-1.526.144-.025.29-.04.434-.045h.216zm-.316 2.017c-.603.102-1.197.612-1.732 1.072-.127.11-.25.215-.37.313-.605.494-.695 1.94-.232 3.686.574 2.156 1.902 4.585 3.74 6.837 1.836 2.251 3.947 4.038 5.946 5.032 1.228.612 2.351.875 3.085.75a1.2 1.2 0 00.57-.236c.121-.098.25-.197.382-.3.674-.52 1.438-1.112 1.482-1.85.03-.506-.282-1.087-.929-1.723-1.083-1.069-1.763-1.369-2.34-1.27-.398.067-.747.323-1.146.649l-.174.143-.21.174a.956.956 0 01-.45.206c-.469.08-1.063-.168-1.775-.74-.666-.536-1.472-1.38-2.393-2.51-2.205-2.703-2.886-4.319-2.129-5.065l.075-.068.21-.169c1.091-.876 1.75-1.405.27-3.683-.496-.76-1-1.183-1.503-1.256a1.18 1.18 0 00-.377.008zm12.461-.866a1 1 0 011 1v2.297h2.297a1 1 0 110 2h-2.297v2.296a1 1 0 11-2 0V7.448h-2.296a1 1 0 110-2h2.296V3.15a1 1 0 011-1z"/></svg>