<svg id="communication--dialog" xmlns="http://www.w3.org/2000/svg" viewBox="0 0 24 24"><path  fill-rule="evenodd" d="M8.657 1l.3.003a7.783 7.783 0 015.505 2.381 7.797 7.797 0 011.973 3.565 7.791 7.791 0 013.738 2.146 7.783 7.783 0 012.208 5.575A7.78 7.78 0 0120 20.174a7.781 7.781 0 01-5.45 2.21h-.125a7.783 7.783 0 01-5.505-2.382 7.777 7.777 0 01-1.972-3.564 7.78 7.78 0 01-3.74-2.147 7.788 7.788 0 01-2.207-5.575 7.787 7.787 0 012.38-5.505C4.885 1.756 6.852.94 8.958 1.003zm8.003 8.124a7.78 7.78 0 01-2.371 5.34 7.768 7.768 0 01-5.184 2.196c.279.72.7 1.381 1.25 1.951a5.797 5.797 0 004.1 1.772c3.24.062 5.876-2.527 5.926-5.744a5.795 5.795 0 00-1.644-4.152 5.805 5.805 0 00-2.077-1.363zm-2.07-.41h-.046a5.793 5.793 0 00-4.06 1.645 5.797 5.797 0 00-1.772 4.1c-.001.07.006.14.007.21.009.001.017.003.026.003l.092.001a5.842 5.842 0 005.833-5.745c0-.07-.005-.14-.006-.21-.01 0-.018-.003-.027-.004h-.093zM8.833 3.002a5.793 5.793 0 00-4.06 1.646 5.797 5.797 0 00-1.772 4.1A5.803 5.803 0 004.645 12.9a5.793 5.793 0 002.078 1.362 7.78 7.78 0 012.37-5.34 7.753 7.753 0 015.185-2.194 5.82 5.82 0 00-1.252-1.952 5.798 5.798 0 00-4.1-1.773z"/></svg>