<svg id="communication--text--styling--strikethrough" xmlns="http://www.w3.org/2000/svg" viewBox="0 0 24 24"><path  d="M15.674 13.954c.152.357.246.772.246 1.28 0 .605-.115 1.126-.346 1.565-.23.44-.53.802-.897 1.087a3.726 3.726 0 01-1.262.631 5.11 5.11 0 01-1.428.207 5.5 5.5 0 01-1.095-.113 4.95 4.95 0 01-1.042-.332 4.252 4.252 0 01-.924-.564 4.09 4.09 0 01-.752-.787l1.06-.787c.262.434.63.795 1.103 1.086.473.29 1.03.436 1.667.436.308 0 .621-.049.941-.146.32-.095.607-.244.863-.444.257-.2.467-.445.633-.736.165-.29.248-.628.248-1.017 0-.421-.083-.771-.248-1.052a2.218 2.218 0 00-.237-.315zm.533-1.994v.966H8v-.966h8.207zM12.347 6c.82 0 1.521.146 2.102.437.581.29 1.02.636 1.317 1.034l-.975.788a2.935 2.935 0 00-1.009-.881c-.41-.223-.906-.333-1.487-.333-.297 0-.599.045-.907.136a2.638 2.638 0 00-.838.419 2.144 2.144 0 00-.606.709 2.097 2.097 0 00-.23 1.009c0 .388.072.707.22.958.148.25.344.465.588.642.088.063.204.1.3.156H8.986c-.078-.114-.159-.226-.223-.354-.188-.375-.282-.837-.282-1.384 0-.581.117-1.083.351-1.505.234-.422.538-.77.915-1.043a3.833 3.833 0 011.248-.6 5.099 5.099 0 011.351-.187z"/></svg>