<svg id="communication--text--email--alt" xmlns="http://www.w3.org/2000/svg" viewBox="0 0 24 24"><path  fill-rule="evenodd" d="M12.387 2c5.896 0 10.014 4.1 10.014 9.972 0 3.533-1.908 6.197-4.438 6.197-1.113 0-1.971-.599-2.399-1.655-.95 1.055-2.328 1.655-3.835 1.655-2.968 0-5.206-2.487-5.206-5.784 0-3.31 2.238-5.805 5.206-5.805 1.314 0 2.487.474 3.422 1.376v-.234a1.012 1.012 0 112.025 0v7.194c0 .625.159 1.369.919 1.369 1.423 0 2.303-2.239 2.303-4.313 0-4.914-3.144-8.088-8.011-8.088-4.883 0-8.427 3.502-8.427 8.327 0 4.813 3.701 8.306 8.8 8.306.974 0 1.831-.099 2.683-.311.594-.149 1.174.281 1.174.894a.925.925 0 01-.68.898c-.831.222-1.892.402-3.177.402C6.526 22.4 2 18.115 2 12.211 2 6.389 6.465 2 12.387 2zm-.505 6.506c-1.968 0-3.29 1.558-3.29 3.879 0 2.296 1.353 3.9 3.29 3.9 1.963 0 3.334-1.604 3.334-3.9 0-2.285-1.371-3.879-3.334-3.879z"/></svg>