<svg id="communication--call--phonebook--colleagues" xmlns="http://www.w3.org/2000/svg" viewBox="0 0 24 24"><path  fill-rule="evenodd" d="M19.557 2c.8 0 1.458.614 1.529 1.395l.006.14v17.722c0 .8-.614 1.458-1.395 1.529l-.14.006H5.221a1.537 1.537 0 01-1.529-1.395l-.006-.14v-.72H3a1 1 0 01-.117-1.993L3 18.537h.686v-2.761H3a1 1 0 01-.117-1.993L3 13.776h.686v-2.76H3a1 1 0 01-.117-1.993L3 9.016h.686v-2.76H3a1 1 0 01-.117-1.993L3 4.256h.686v-.721c0-.8.615-1.458 1.396-1.529L5.22 2h14.336zm-.465 2H5.686v16.792h13.406V4zm-5.474 3.202l.163.103.388.267c.495.342.858.835 1.035 1.405l.053.192.385 1.656a2.804 2.804 0 01-.777 2.653l-.146.132-.355.301v.352c0 .12.062.228.16.29l.064.03 1.737.626c.515.185.914.592 1.091 1.103l.047.156.368 1.467a.53.53 0 01-.42.651l-.096.01H7.217a.53.53 0 01-.531-.565l.015-.096.367-1.467c.132-.532.496-.97.988-1.197l.15-.062 1.737-.626a.343.343 0 00.217-.25l.008-.07v-.352l-.355-.3a2.804 2.804 0 01-.961-2.592l.038-.194.385-1.656a2.664 2.664 0 01.928-1.477l.16-.119.388-.268a2.692 2.692 0 012.867-.103zm-.242 7.507a2.128 2.128 0 01-1.11.318c-.386 0-.77-.109-1.11-.318-.12.354-.378.652-.72.818l-.132.056-1.737.625a.742.742 0 00-.436.418l-.032.1-.201.806h8.736l-.202-.807a.739.739 0 00-.372-.474l-.096-.043-1.736-.625a1.407 1.407 0 01-.852-.874zm-1.022-4.287l-2.38 1.574c.08.255.214.493.404.69l.122.114 1.072.907c.368.313.889.339 1.283.08l.104-.079 1.073-.909a1.69 1.69 0 00.505-.751l.044-.145-2.227-1.48zM12.266 7.9a1.62 1.62 0 00-.773.196l-.14.086-.388.267c-.29.2-.505.486-.615.818l-.04.144-.256 1.101 2.068-1.328a.27.27 0 01.232-.026l.055.026 2.069 1.33-.257-1.103a1.604 1.604 0 00-.536-.871l-.12-.09-.387-.268a1.611 1.611 0 00-.912-.282z"/></svg>