<svg id="communication--text--styling--table" xmlns="http://www.w3.org/2000/svg" viewBox="0 0 24 24"><path  d="M16.528 17h-1.732v-2.39H17v1.919c0 .26-.212.471-.472.471zM8 16.529V14.61h2.296V17H8.471A.471.471 0 018 16.529zM8.471 8h1.825v2.11H8V8.472c0-.26.211-.472.471-.472zm6.325 6.11H17v-3.5h-2.204v3.5zm-4-4h3.5V8h-3.5v2.11zM8 14.11h2.296v-3.5H8v3.5zM10.796 17h3.5v-2.39h-3.5V17zm0-2.89h3.5v-3.5h-3.5v3.5zM17 8.472v1.638h-2.204V8h1.732c.26 0 .472.212.472.472zM16.528 7H8.471C7.66 7 7 7.66 7 8.472v8.057C7 17.34 7.66 18 8.471 18h8.057C17.34 18 18 17.34 18 16.529V8.472C18 7.66 17.34 7 16.528 7z"/></svg>