<svg id="communication--av--headphones--bluetooth" xmlns="http://www.w3.org/2000/svg" viewBox="0 0 24 24"><path  fill-rule="evenodd" d="M10.682 13.101a.843.843 0 01.858.034l2.648 1.724a.844.844 0 01.38.693.84.84 0 01-.365.701l-2.413 1.65 2.394 1.574a.836.836 0 01-.002 1.401L11.54 22.6a.838.838 0 01-1.296-.702V18.96l-1.383.946a.416.416 0 01-.581-.109l-.206-.3a.416.416 0 01.108-.582l1.452-.992-1.44-.947a.419.419 0 01-.12-.578l.202-.306a.413.413 0 01.579-.119l1.389.913v-3.048c0-.308.168-.59.438-.736zm.763 6.011v2.115l1.616-1.052-1.616-1.063zM11.678 4c3.174 0 5.872 2.07 6.82 4.93l.076.247h1.692a3.21 3.21 0 013.204 3.027l.005.182v2.549a2.973 2.973 0 01-2.798 2.968l-.175.005h-2.517a1.13 1.13 0 01-1.12-1.005l-.007-.122V11.18a5.185 5.185 0 00-5.697-5.154c-2.616.256-4.553 2.548-4.658 5.16l-.005.225v5.102c0 .726-.553 1.321-1.26 1.389l-.134.006H2.973A2.973 2.973 0 01.005 15.11L0 14.935v-2.549a3.21 3.21 0 013.028-3.204l.182-.005h1.573C5.652 6.19 8.414 4 11.678 4zm-.233 10.506v2.178l1.63-1.116-1.63-1.062zm8.82-3.329h-1.407v4.731h1.644c.498 0 .91-.377.966-.86l.007-.113v-2.549a1.21 1.21 0 00-1.21-1.209zm-15.767 0H3.21c-.625 0-1.142.476-1.204 1.086L2 12.386v2.549c0 .498.377.91.86.966l.113.007h1.525v-4.731z"/></svg>