<svg id="communication--device--speaker--jabra" xmlns="http://www.w3.org/2000/svg" viewBox="0 0 24 24"><path  fill-rule="evenodd" d="M11.853 10.024c4.546 0 9.855 1.21 9.855 4.619 0 .819-.314 1.508-.843 2.087v2.354c0 2.15-5.341 3.118-9.134 3.118-3.691 0-8.889-.968-8.889-3.118V16.73C2.312 16.15 2 15.462 2 14.643c0-3.41 5.307-4.62 9.853-4.62zm-8.011 7.524v1.536c0 .853 3.312 2.118 7.889 2.118 4.641 0 8.134-1.285 8.134-2.118v-1.535c-1.948 1.223-5.131 1.712-8.012 1.712-2.881 0-6.063-.49-8.011-1.713zm8.011-5.524C7.516 12.024 4 13.196 4 14.643c0 1.445 3.516 2.618 7.853 2.618 4.338 0 7.855-1.173 7.855-2.618 0-1.447-3.517-2.62-7.855-2.62zm7.616-7.198a1 1 0 011.414 1.414l-1.644 1.644a.997.997 0 01-1.414 0 .999.999 0 010-1.414zm-16.645 0a1.002 1.002 0 011.415 0L5.883 6.47a.999.999 0 11-1.415 1.414L2.825 6.24a1 1 0 010-1.414zM11.854 2a1 1 0 011 1v1.325a1 1 0 11-2 0V3a1 1 0 011-1z"/></svg>