<svg id="communication--call--call--tune" xmlns="http://www.w3.org/2000/svg" viewBox="0 0 24 24"><path  fill-rule="evenodd" d="M12.018 11.161c3.084.008 6.001.568 8.215 1.577 2.426 1.105 3.758 2.6 3.752 4.205 0 .132.004.269.007.424.02.88.045 1.977-.515 2.958-.106.186-.23.36-.366.516l-.142.15-.063.062-.032.029c-.791.725-1.93 1.01-3.384.849-3.337-.371-4.212-1.807-4.308-3.874l-.006-.179-.152-.038c-.478-.11-1.38-.235-3.023-.239-1.589-.005-2.48.11-2.948.21-.087.017-.16.035-.225.052-.007.66-.066 1.38-.471 2.087-.824 1.444-2.5 1.795-3.869 1.939-1.455.155-2.592-.137-3.382-.867-1.17-1.083-1.125-2.672-1.095-3.729.004-.143.008-.283.008-.416a3.095 3.095 0 01.428-1.527c.735-1.285 2.227-2.154 3.348-2.658 2.216-.995 5.136-1.54 8.223-1.53zm-.006 1.938c-2.814-.008-5.451.475-7.424 1.362-1.213.544-2.1 1.223-2.458 1.85-.112.197-.172.39-.173.571 0 .151-.005.308-.01.471-.023.825-.05 1.76.475 2.246.361.334.987.457 1.862.364 1.465-.155 2.109-.48 2.39-.973.194-.339.216-.758.217-1.257v-.218l-.001-.266a.927.927 0 01.121-.462c.23-.4.78-.693 1.645-.874.812-.17 1.94-.253 3.35-.25 3.381.009 5.01.493 5.103 1.518l.005.098-.002.261c-.016 1.356-.025 2.174 2.592 2.466.801.088 1.395-.004 1.768-.276l.096-.078.032-.032c.077-.075.14-.16.194-.255.293-.515.276-1.273.261-1.957-.003-.162-.007-.32-.007-.47.003-.755-1.025-1.71-2.618-2.437-1.968-.896-4.602-1.394-7.418-1.402zm6.21-9.473a.97.97 0 011.606 1.083L17.806 7.71a.968.968 0 01-1.608-1.083zM3.263 3.364a.968.968 0 011.344.262L6.63 6.628A.97.97 0 015.023 7.71L3.001 4.708a.967.967 0 01.263-1.344zM11.414 1c.535 0 .97.433.97.969v4.634a.969.969 0 11-1.939 0V1.97c0-.536.435-.969.97-.969z"/></svg>