<svg id="communication--av--player--backwards--alt" xmlns="http://www.w3.org/2000/svg" viewBox="0 0 24 24"><path  fill-rule="evenodd" d="M10.636 20.664l-9.152-7.032A1.598 1.598 0 011 12.482c0-.438.171-.847.483-1.154l.092-.08 9.061-6.953a1.223 1.223 0 012.021.93v14.508c0 .495-.295.94-.752 1.13-.43.182-.918.101-1.269-.199zm10.737.198c-.43.181-.919.103-1.269-.198l-5.201-3.996a.913.913 0 01-.357-.725v-1.586c0-.195.225-.306.38-.187l5.198 3.989V6.8l-5.198 3.988a.236.236 0 01-.38-.187v-1.59c0-.285.132-.553.358-.726l5.2-3.99a1.22 1.22 0 011.269-.198c.456.19.751.633.751 1.129v14.507c0 .495-.295.939-.751 1.129zm-10.716-2.703V6.8l-7.402 5.68 7.402 5.68z"/></svg>