<svg id="communication--text--gif" xmlns="http://www.w3.org/2000/svg" viewBox="0 0 24 24"><path  d="M17.032 3A3.972 3.972 0 0121 6.967v10.065A3.972 3.972 0 0117.032 21H6.967A3.972 3.972 0 013 17.032V6.967A3.97 3.97 0 016.967 3h10.065zm0 2H6.967A1.969 1.969 0 005 6.967v10.065A1.97 1.97 0 006.967 19h10.065A1.97 1.97 0 0019 17.032V6.967A1.97 1.97 0 0017.032 5zm-4.058 4.383v6h-1.483v-6h1.483zm-2.649 0v1.5h-2.5v3h1v-1.5h1.5v3h-2.5c-.83 0-1.5-.67-1.5-1.5v-3c0-.83.67-1.5 1.5-1.5h2.5zm6.942-.185v1.5h-1.5v1h1.5v1.5h-1.5v2h-1.5v-6h3z"/></svg>