<svg id="communication--call--waiting" xmlns="http://www.w3.org/2000/svg" viewBox="0 0 24 24"><path  d="M15.332 13.76l-3.116-2.264c-.019-.015-.029-.039-.05-.053l-3.125-2.27a2.614 2.614 0 01-1.018-2.431l.161-1.179A1.807 1.807 0 019.975 4h3.257c.904 0 1.668.667 1.79 1.563l.162 1.179c.13.955-.34 1.832-1.08 2.449a.999.999 0 001.228 1.576 4.542 4.542 0 001.833-4.294l-.285-2.089A2.755 2.755 0 0014.15 2H9.056a2.757 2.757 0 00-2.73 2.384l-.285 2.089a4.623 4.623 0 001.808 4.308l3.116 2.262c.02.017.03.039.05.055l3.14 2.28a2.548 2.548 0 011.028 2.405l-.162 1.182a1.807 1.807 0 01-1.79 1.563H9.975a1.808 1.808 0 01-1.79-1.563l-.162-1.179a2.552 2.552 0 011.028-2.408l.323-.234a1 1 0 00-1.177-1.617l-.322.234a4.557 4.557 0 00-1.833 4.299l.284 2.084a2.758 2.758 0 002.731 2.384h5.092a2.756 2.756 0 002.731-2.384l.285-2.091a4.547 4.547 0 00-1.833-4.293"/></svg>