<svg id="communication--av--share--screen" xmlns="http://www.w3.org/2000/svg" viewBox="0 0 24 24"><path  d="M20.088 19.128a1 1 0 110 2h-17a1 1 0 110-2zM12.39 4a.3.3 0 01.3.301v1.4a.299.299 0 01-.3.299H4v9.356h15.176v-2.703a.3.3 0 01.3-.301h1.4a.3.3 0 01.3.301v2.929c0 .98-.794 1.774-1.774 1.774H3.773c-.98 0-1.773-.794-1.773-1.774V5.774C2 4.794 2.793 4 3.773 4zm8.685.102v4.326a.9.9 0 01-1.799 0v-1.33l-4.072 4.071a.897.897 0 01-1.272 0 .9.9 0 010-1.273l3.993-3.993h-1.428a.9.9 0 010-1.801h4.578z"/></svg>