<svg id="communication--connection--bluetooth--on" xmlns="http://www.w3.org/2000/svg" viewBox="0 0 24 24"><path  fill-rule="evenodd" d="M12.51 2.171l.13.076 5.88 3.827a1.525 1.525 0 01.15 2.45l-.122.091-5.766 3.943 5.73 3.767a1.526 1.526 0 01.121 2.467l-.125.09L12.64 22.7a1.525 1.525 0 01-2.353-1.127l-.008-.152v-7.15l-3.593 2.456a.594.594 0 01-.764-.08l-.06-.076-.459-.669a.595.595 0 01.08-.766l.074-.06 3.634-2.485-3.612-2.375a.594.594 0 01-.217-.737l.046-.085.447-.68a.594.594 0 01.738-.216l.084.046 3.602 2.37V3.526c0-.56.307-1.076.8-1.342a1.524 1.524 0 011.43-.014zm-.23 12.45v5.927l4.53-2.948-4.53-2.98zm6.888-3.57a1.167 1.167 0 11.001 2.335 1.167 1.167 0 01-.001-2.335zm-16 0a1.167 1.167 0 11.001 2.335 1.167 1.167 0 01-.001-2.335zM12.279 4.4v6.08l4.556-3.116L12.28 4.4z"/></svg>