<svg id="communication--connection--cloud" xmlns="http://www.w3.org/2000/svg" viewBox="0 0 24 24"><path  d="M7.214 10.413C5.442 10.413 4 12.123 4 14.225c0 2.101 1.442 3.811 3.214 3.811h10.153c1.772 0 3.214-1.71 3.214-3.811 0-2.102-1.442-3.812-3.214-3.812H16.19l-.083-.908C15.922 7.507 14.282 6 12.291 6a3.826 3.826 0 00-3.816 3.505l-.084.908H7.214zm10.153 9.623H7.214C4.339 20.036 2 17.429 2 14.225c0-2.984 2.028-5.451 4.629-5.776A5.805 5.805 0 0112.291 4a5.807 5.807 0 015.662 4.449c2.6.325 4.628 2.792 4.628 5.776 0 3.204-2.339 5.811-5.214 5.811z"/></svg>