<svg id="editor--cut" xmlns="http://www.w3.org/2000/svg" viewBox="0 0 24 24"><path  fill-rule="evenodd" d="M7.09 3.075l.054.056 8.252 10.775a3.209 3.209 0 011.332-.295 3.235 3.235 0 013.232 3.233 3.236 3.236 0 01-3.232 3.232 3.236 3.236 0 01-3.232-3.232c0-.503.124-.973.331-1.396l.094-.178-1.868-2.439-1.953 2.551c.226.441.365.932.365 1.462a3.236 3.236 0 01-3.232 3.232A3.237 3.237 0 014 16.844a3.236 3.236 0 013.233-3.233c.443 0 .861.098 1.245.263l.189.088 2.126-2.776-4.427-5.781a1.667 1.667 0 01.309-2.336.335.335 0 01.415.006zm9.638 12.536a1.233 1.233 0 000 2.465c.679 0 1.232-.553 1.232-1.232 0-.68-.553-1.233-1.232-1.233zm-9.495 0c-.68 0-1.233.553-1.233 1.233a1.233 1.233 0 101.233-1.233zm9.73-12.48a.333.333 0 01.468-.061c.73.559.869 1.605.309 2.336l-3.245 4.23a.306.306 0 01-.485 0l-.875-1.143a.309.309 0 010-.372z"/></svg>