<svg id="file--txt--doc" xmlns="http://www.w3.org/2000/svg" viewBox="0 0 24 24"><path  d="M15.585 1c.377 0 .738.13 1.018.366l.084.081 5.158 5.513c.287.27.45.64.45 1.026v13.82c0 1.095-.974 1.986-2.171 1.986H4.171C2.974 23.792 2 22.901 2 21.806V2.986C2 1.891 2.974 1 4.171 1zm-.756 2H4.171c-.118 0-.181.048-.191.061L4 21.786c.002-.009.009-.012.021-.012.027 0 .079.018.15.018h15.953c.118 0 .181-.048.191-.061l-.018-12.847h-5.468V3zm2.086 14.707v1h-4.767v-1h4.767zm.023-2.93v1H7.17v-1h9.767zm0-3.396v1H7.17v-1h9.767zm-5-3.497v1H7.173v-1h4.767zm3.891-4.427v4.427h4.141l-4.141-4.427z"/></svg>