<svg id="file--picture--add" xmlns="http://www.w3.org/2000/svg" viewBox="0 0 24 24"><path  d="M12.269 4.086v2H4.681a.682.682 0 00-.681.68v12.638c0 .376.306.682.681.682h12.637a.683.683 0 00.682-.682v-7.626h2v7.626a2.685 2.685 0 01-2.682 2.682H4.681A2.685 2.685 0 012 19.404V6.766a2.684 2.684 0 012.681-2.68h7.588zm-.073 10.273a.952.952 0 011.513.013l2.605 3.464a.155.155 0 01-.124.248H5.817a.155.155 0 01-.122-.25l1.828-2.345a.951.951 0 011.483-.024l.849 1.022a.446.446 0 00.696-.011zM18.703 1a1 1 0 011 1v2.142h2.142a1 1 0 110 2h-2.142v2.143a1 1 0 01-2 0V6.142H15.56a1 1 0 110-2h2.142V2a1 1 0 011-1z"/></svg>