<svg id="file--photo--add" xmlns="http://www.w3.org/2000/svg" viewBox="0 0 24 24"><path  d="M13.326 3c1.024 0 1.987.398 2.711 1.123l.671.67a1 1 0 11-1.416 1.414l-.669-.67A1.819 1.819 0 0013.326 5h-3.152c-.49 0-.951.19-1.298.537l-.588.589A3.808 3.808 0 015.576 7.25H2v11.224h19V14.5a1 1 0 112 0v4.089a1.887 1.887 0 01-1.884 1.885H1.884A1.887 1.887 0 010 18.589V7.135C0 6.096.845 5.25 1.884 5.25h3.692c.49 0 .951-.19 1.298-.537l.588-.589A3.806 3.806 0 0110.174 3zm-1.502 4.686a4.756 4.756 0 014.75 4.75 4.756 4.756 0 01-4.75 4.75 4.756 4.756 0 01-4.75-4.75 4.756 4.756 0 014.75-4.75zm0 2a2.752 2.752 0 00-2.75 2.75 2.752 2.752 0 002.75 2.75 2.752 2.752 0 002.75-2.75 2.752 2.752 0 00-2.75-2.75zM22 3.357a1 1 0 011 1V6.5h2.142a1 1 0 110 2H23v2.143a1 1 0 01-2 0V8.5h-2.142a1 1 0 110-2H21V4.358a1 1 0 011-1zM4.571 8.435a1 1 0 110 2 1 1 0 010-2z"/></svg>