<svg id="file--exe--xls" xmlns="http://www.w3.org/2000/svg" viewBox="0 0 24 24"><path  d="M20 7.244h-9.692V4.011L20 4.026v3.218zm-9.692 4.279H20V8.244h-9.692v3.279zm0 4.28H20v-3.279h-9.692v3.279zM20 19.973c0 .014-.012.027-.026.027l-9.666-.017v-3.18H20v3.17zM9.308 7.244H4.021L4.027 4l5.281.009v3.235zm0 4.279H4.014l.006-3.279h5.288v3.279zm0 4.28H4.007l.006-3.28h5.295v3.28zm0 4.179L4 19.973l.005-3.17h5.303v3.179zM19.974 2H4.027A2.029 2.029 0 002 4.026v15.947C2 21.091 2.909 22 4.027 22h15.947A2.029 2.029 0 0022 19.973V4.026A2.028 2.028 0 0019.974 2z"/></svg>