<svg id="file--html--css" xmlns="http://www.w3.org/2000/svg" viewBox="0 0 24 24"><path  d="M15.586 1c.379 0 .742.132 1.022.371l.08.077 5.156 5.513c.288.269.452.639.452 1.025v13.82c0 1.095-.974 1.986-2.171 1.986H4.172C2.975 23.792 2 22.901 2 21.806V2.986C2 1.891 2.975 1 4.172 1zm-.756 2H4.172c-.118 0-.181.048-.192.061L4 21.786c.003-.009.01-.012.021-.012.027 0 .079.018.151.018h15.953c.118 0 .181-.048.191-.061l-.019-12.846H14.83V3zm-5.32 8.726a.508.508 0 01.716 0l.414.415a.506.506 0 010 .716l-2.42 2.42 2.42 2.42a.506.506 0 010 .716l-.415.415a.508.508 0 01-.716 0l-3.221-3.222a.466.466 0 010-.659zm4.566 0a.508.508 0 01.716 0l3.222 3.222a.468.468 0 010 .659l-3.222 3.222a.508.508 0 01-.716 0l-.415-.415a.507.507 0 010-.717l2.419-2.42-2.419-2.42a.506.506 0 010-.715zM15.83 3.46v4.426h4.14l-4.14-4.426z"/></svg>