<svg id="generic--presentation" xmlns="http://www.w3.org/2000/svg" viewBox="0 0 24 24"><path  d="M21.657 3c.45 0 .822.337.876.772l.007.111v.235c0 .38-.245.69-.582.812l-.104.031h-.642v11.963a2.217 2.217 0 01-2.06 2.212l-.158.006h-3.019l1.281 2.451a.723.723 0 01-.215.92l-.091.057-.488.255a.725.725 0 01-.921-.215l-.057-.091-1.765-3.377h-2.662l-1.765 3.377a.725.725 0 01-.88.349l-.098-.043-.488-.255a.724.724 0 01-.35-.879l.043-.098L8.8 19.142H5.754a2.217 2.217 0 01-2.212-2.06l-.006-.158V4.961h-.851a.876.876 0 01-.678-.731L2 4.118v-.235c0-.45.337-.822.771-.876L2.882 3h18.775zm-2.445 1.961H5.536v11.963c0 .1.067.185.16.21l.058.008h13.24c.1 0 .185-.067.21-.16l.008-.058V4.961zm-10.383 1.9c.359 0 .65.293.65.653v7.022c0 .36-.291.652-.65.652h-.497a.652.652 0 01-.652-.652V7.514c0-.36.292-.652.652-.652zm3.821 2.85c.359 0 .651.29.651.652v4.173c0 .36-.292.652-.651.652h-.497a.652.652 0 01-.652-.652v-4.173c0-.361.292-.652.652-.652zm3.768 1.406c.358 0 .65.292.65.65v2.769c0 .36-.292.652-.65.652h-.497a.652.652 0 01-.652-.652v-2.768c0-.36.291-.651.652-.651z"/></svg>