<svg id="generic--cart" xmlns="http://www.w3.org/2000/svg" viewBox="0 0 24 24"><path  fill-rule="evenodd" d="M9.256 19.186a1.419 1.419 0 11-.002 2.838 1.419 1.419 0 01.002-2.838zm8.279 0a1.42 1.42 0 010 2.838 1.42 1.42 0 010-2.838zM3.538 3c1.099 0 2.066.78 2.298 1.855l.11.517h15.22c.458 0 .885.205 1.17.56.288.356.396.817.299 1.264l-1.263 5.785a1 1 0 01-.871.78L8.044 15.088l.252 1.169h11.192a1 1 0 110 2h-12a1 1 0 01-.977-.79L3.88 5.277A.35.35 0 003.538 5H2a1 1 0 110-2zM20.55 7.372H6.379l1.24 5.749 11.953-1.271.978-4.478z"/></svg>