<svg id="generic--cost--pound" xmlns="http://www.w3.org/2000/svg" viewBox="0 0 24 24"><path  d="M16.007 14.111a1.03 1.03 0 00-1.029 1.028v1.582h-2.979l-.863-3.822h2.303a.97.97 0 100-1.941h-2.694a7.807 7.807 0 01-.157-1.489c0-1.588.901-2.352 2.135-2.352.965 0 1.704.578 2.289 1.34a.45.45 0 00.677.041l.95-.961c.16-.162.18-.42.036-.597C15.855 5.933 14.648 5 12.587 5c-1.803 0-4.332 1.196-4.332 4.351 0 .293.039 1 .157 1.607h-.423a.97.97 0 000 1.941h.814l.824 3.822H7.551a.552.552 0 00-.551.552v1.131c0 .305.247.552.551.552h8.825a.66.66 0 00.66-.66v-3.157a1.03 1.03 0 00-1.029-1.028"/></svg>