<svg id="generic--cost--dollar" xmlns="http://www.w3.org/2000/svg" viewBox="0 0 24 24"><path  d="M12.219 2a.94.94 0 01.94.941v1.85c1.573.242 2.703.94 3.58 1.76a.486.486 0 01.012.686l-.936.993a.483.483 0 01-.697.014c-.514-.526-1.145-.999-1.958-1.238v3.645c3.018.491 4.39 2.039 4.39 4.235 0 2.097-1.606 3.685-4.39 3.94v1.587a.94.94 0 11-1.882 0v-1.627c-1.828-.231-3.191-1.121-4.16-2.205a.488.488 0 01.027-.664l.887-.896a.484.484 0 01.713.02c.603.698 1.382 1.307 2.533 1.57V12.69c-2.568-.451-4.116-1.823-4.116-4.077 0-2.196 1.823-3.626 4.116-3.86V2.941c0-.52.422-.941.94-.941zm.94 11.004v3.724l.209-.03c1.215-.206 1.83-.918 1.83-1.772 0-.863-.53-1.588-2.038-1.922zm-1.881-6.135c-1.235.197-1.764.98-1.764 1.686 0 .843.47 1.47 1.764 1.763z"/></svg>