<svg id="generic--pin" xmlns="http://www.w3.org/2000/svg" viewBox="0 0 24 24"><path  d="M19.497 8.14c-.215.214-.921.167-1.732-.287a1 1 0 00-1.274.252l-2.881 3.643a.998.998 0 00-.167.927 3.847 3.847 0 01-1.553 4.414 7.594 7.594 0 01-3.383-1.964 7.636 7.636 0 01-1.964-3.382 3.847 3.847 0 014.415-1.553c.319.101.665.039.926-.168l3.643-2.882a1 1 0 00.252-1.273c-.454-.81-.504-1.517-.287-1.733.298-.305 1.614-.096 2.858 1.148.593.593 1.03 1.296 1.2 1.926.114.428.095.785-.053.932m1.985-1.45c-.261-.975-.872-1.977-1.717-2.822-1.95-1.95-4.396-2.443-5.688-1.148-.78.78-.918 2.015-.412 3.343l-2.627 2.078a5.857 5.857 0 00-6.447 2.978 1 1 0 00-.094.685 9.662 9.662 0 001.9 3.934l-4.105 4.105a1 1 0 001.415 1.414l4.096-4.096c.09.073.171.159.263.229a9.59 9.59 0 003.761 1.744.988.988 0 00.684-.092c.514-.271.987-.62 1.405-1.037a5.83 5.83 0 001.575-5.411l2.079-2.628c1.328.507 2.563.368 3.343-.412.67-.67.878-1.715.569-2.864"/></svg>