<svg id="generic--camera" xmlns="http://www.w3.org/2000/svg" viewBox="0 0 24 24"><path  d="M13.979 3c1.271 0 2.398.763 2.871 1.944a.88.88 0 00.822.556h3.925c1.095 0 1.986.891 1.986 1.987v11.027a1.988 1.988 0 01-1.986 1.986H2.986A1.988 1.988 0 011 18.514V7.487C1 6.391 1.891 5.5 2.986 5.5H7.12a.878.878 0 00.821-.555A3.078 3.078 0 0110.812 3zm0 2h-3.167c-.449 0-.847.27-1.014.688A2.87 2.87 0 017.12 7.5H2.986L3 18.514l18.597-.014-.014-11h-3.911a2.872 2.872 0 01-2.679-1.813A1.088 1.088 0 0013.979 5zm-1.688 3a4.756 4.756 0 014.75 4.75 4.756 4.756 0 01-4.75 4.75 4.756 4.756 0 01-4.75-4.75A4.756 4.756 0 0112.291 8zm0 2a2.752 2.752 0 00-2.75 2.75 2.752 2.752 0 002.75 2.75 2.752 2.752 0 002.75-2.75 2.752 2.752 0 00-2.75-2.75zM5.04 8.75a1 1 0 11-.001 2.001 1 1 0 010-2z"/></svg>