<svg id="generic--cost--price" xmlns="http://www.w3.org/2000/svg" viewBox="0 0 24 24"><path  d="M21.552 1c.456.002.94.173 1.274.514.297.302.47.706.487 1.126l-.001.159-.4 7.756a3.304 3.304 0 01-.813 2.009l-.153.163-9.853 9.685c-.357.357-.84.558-1.353.558a1.91 1.91 0 01-1.234-.45l-.126-.114-7.817-7.817A1.912 1.912 0 011 13.229c0-.456.158-.888.448-1.234l.115-.125 9.833-9.665a3.288 3.288 0 012.026-.951l.211-.013L21.552 1zm-.253 2.009l-7.606.232c-.287.009-.56.11-.782.288l-.106.096-9.772 9.605 7.707 7.707 9.798-9.631c.192-.192.32-.444.363-.716l.014-.138.384-7.443zm-2.982 2.728a3.469 3.469 0 010 4.901 3.452 3.452 0 01-2.45 1.014 3.457 3.457 0 01-2.453-1.014 3.47 3.47 0 010-4.9c1.31-1.313 3.592-1.312 4.903 0zm-2.452.984a1.467 1.467 0 10.003 2.933 1.467 1.467 0 00-.003-2.933z"/></svg>