<svg id="generic--info" xmlns="http://www.w3.org/2000/svg" viewBox="0 0 24 24"><path  d="M12.5 2C18.29 2 23 6.71 23 12.5S18.29 23 12.5 23 2 18.29 2 12.5 6.71 2 12.5 2zm0 2C7.813 4 4 7.813 4 12.5c0 4.687 3.813 8.5 8.5 8.5 4.687 0 8.5-3.813 8.5-8.5C21 7.813 17.187 4 12.5 4zm.78 6.927v5.635h1.822v1.607h-3.615v-5.635h-1.59v-1.607h3.382zM11.7 7.079c.458-.333.915-.327 1.366 0 .181.132.396.383.396.832 0 .45-.216.701-.397.831-.227.166-.458.25-.685.25-.223 0-.452-.084-.68-.25-.18-.13-.396-.38-.396-.83 0-.45.216-.702.396-.833z"/></svg>