<svg id="generic--user--user--alt" xmlns="http://www.w3.org/2000/svg" viewBox="0 0 24 24"><path  fill-rule="evenodd" d="M14.198 17.743a2.645 2.645 0 00-.463-.234l-1.185-.427a2.069 2.069 0 01-1.364-1.942v-.016l.712-.603a3.493 3.493 0 001.089-1.668l.73.619a2.37 2.37 0 001.535.564c.504 0 1.005-.168 1.429-.49a4.066 4.066 0 002.433 2.439l1.186.429c.24.086.42.286.483.534l.199.795h-6.784zM2.28 20.72l.199-.795a.769.769 0 01.484-.537l1.185-.426a4.061 4.061 0 002.416-2.398c.434.31.938.475 1.446.475s1.01-.164 1.445-.476a4.065 4.065 0 002.416 2.399l1.184.426a.771.771 0 01.486.537l.198.795H2.28zM5.533 8.888c.123-.53.437-.99.884-1.297l.363-.251a2.17 2.17 0 011.23-.38c.432 0 .863.127 1.23.38l.365.25c.447.308.76.768.883 1.298l.405 1.742-2.574-1.654a.502.502 0 00-.54 0l-2.664 1.71.418-1.798zm5.073 4.107L8.332 14.92H8.33a.499.499 0 01-.641 0l-2.275-1.927a1.48 1.48 0 01-.512-.982L8.049 9.99l3.078 1.978a1.49 1.49 0 01-.521 1.026zM12.74 5.84c.118-.503.416-.941.84-1.235l.502-.345a2.078 2.078 0 012.34 0l.502.346c.425.293.723.73.84 1.234l.64 2.755a1.421 1.421 0 01-.467 1.412l-2.38 2.012a.469.469 0 01-.61 0l-2.088-1.767-.423-1.818a4.19 4.19 0 00-.193-.583l.497-2.011zM23.233 18.5l-.51-2.038a2.763 2.763 0 00-1.746-1.931l-1.185-.428a2.068 2.068 0 01-1.364-1.941v-.08l.737-.624a3.315 3.315 0 001.092-3.294l-.641-2.754a3.951 3.951 0 00-1.613-2.37l-.502-.346a3.984 3.984 0 00-4.497 0l-.501.345a3.96 3.96 0 00-1.615 2.37l-.128.55c-.008-.005-.014-.012-.022-.018l-.363-.25a4.196 4.196 0 00-4.73 0l-.362.25a4.166 4.166 0 00-1.698 2.492l-.61 2.623a3.484 3.484 0 001.148 3.463l.712.604v.016c0 .868-.548 1.648-1.364 1.942l-1.186.427A2.762 2.762 0 00.539 19.44l-.51 2.037A1 1 0 001 22.72h14.022a.998.998 0 00.97-1.243l-.433-1.735h6.705a.998.998 0 00.97-1.242z"/></svg>