<svg id="generic--branch" xmlns="http://www.w3.org/2000/svg" viewBox="0 0 24 24"><path  d="M17.336 3a3.585 3.585 0 013.581 3.581c0 1.626-1.095 2.986-2.581 3.422v1.219a2.21 2.21 0 01-2.207 2.207H7.581v1.343c1.486.436 2.581 1.796 2.581 3.421a3.585 3.585 0 01-3.581 3.581A3.585 3.585 0 013 18.193c0-1.625 1.095-2.985 2.581-3.421v-4.769C4.095 9.567 3 8.207 3 6.581A3.585 3.585 0 016.581 3a3.585 3.585 0 013.581 3.581c0 1.626-1.095 2.986-2.581 3.422v1.426h8.548a.207.207 0 00.207-.207v-1.219c-1.486-.436-2.582-1.796-2.582-3.422A3.585 3.585 0 0117.336 3zM6.581 16.612c-.872 0-1.581.709-1.581 1.581s.709 1.581 1.581 1.581 1.581-.709 1.581-1.581-.709-1.581-1.581-1.581zM17.336 5c-.872 0-1.582.709-1.582 1.581s.71 1.582 1.582 1.582a1.582 1.582 0 000-3.163zM6.581 5a1.582 1.582 0 000 3.163 1.582 1.582 0 000-3.163z"/></svg>