<svg id="generic--basket" xmlns="http://www.w3.org/2000/svg" viewBox="0 0 24 24"><path  fill-rule="evenodd" d="M15.072 2.106a1 1 0 011.342.447l2.81 5.62h2.306a1.909 1.909 0 011.875 2.286l-.39 1.943a3.116 3.116 0 01-.974 1.698l-2.98 7.943H4.382L1.4 14.1a3.136 3.136 0 01-.975-1.698l-.388-1.943a1.905 1.905 0 01.396-1.587 1.905 1.905 0 011.478-.7h2.306l2.81-5.62a1.001 1.001 0 011.789.895L6.455 8.173h10.533l-2.363-4.726a1 1 0 01.447-1.341zm4.524 12.815H3.846l1.92 5.122h11.91l1.92-5.122zm-5.026 1.348a.5.5 0 01.5.5v1.9a.5.5 0 11-1 0v-1.9a.5.5 0 01.5-.5zm-5.698 0a.5.5 0 01.5.5v1.9a.5.5 0 11-1 0v-1.9a.5.5 0 01.5-.5zm2.849 0a.5.5 0 01.5.5v1.9a.5.5 0 11-1 0v-1.9a.5.5 0 01.5-.5zm9.7-6.096H2.02l.367 1.837c.106.528.574.91 1.112.91h16.445c.538 0 1.005-.382 1.11-.91l.368-1.837z"/></svg>