<svg id="generic--hierarchy" xmlns="http://www.w3.org/2000/svg" viewBox="0 0 24 24"><path  d="M11.872 1a3.962 3.962 0 013.957 3.957c0 1.834-1.261 3.368-2.957 3.814v2.438h5.432a2.413 2.413 0 012.41 2.411v1.835c1.696.447 2.957 1.98 2.957 3.814a3.961 3.961 0 01-3.957 3.957 3.961 3.961 0 01-3.957-3.957c0-1.834 1.261-3.367 2.957-3.814V13.62a.41.41 0 00-.41-.411H5.367a.41.41 0 00-.41.411v1.835c1.695.447 2.956 1.98 2.956 3.814a3.961 3.961 0 01-3.956 3.957A3.961 3.961 0 010 19.269c0-1.834 1.26-3.367 2.957-3.814V13.62a2.413 2.413 0 012.41-2.411h5.505V8.771c-1.696-.446-2.957-1.98-2.957-3.814A3.962 3.962 0 0111.872 1zm7.842 16.312a1.96 1.96 0 00-1.957 1.957 1.96 1.96 0 001.957 1.957 1.96 1.96 0 001.957-1.957 1.96 1.96 0 00-1.957-1.957zm-15.757 0A1.96 1.96 0 002 19.269a1.96 1.96 0 001.957 1.957 1.96 1.96 0 001.956-1.957 1.96 1.96 0 00-1.956-1.957zM11.872 3a1.96 1.96 0 00-1.957 1.957c0 1.08.878 1.957 1.957 1.957a1.959 1.959 0 001.957-1.957A1.96 1.96 0 0011.872 3z"/></svg>