<svg id="generic--room" xmlns="http://www.w3.org/2000/svg" viewBox="0 0 24 24"><path  d="M15.754 1.29c.256.213.417.513.453.84l.008.14v2.407h3.103c.643 0 1.173.49 1.237 1.116l.006.127v14.567c0 .632-.483 1.155-1.1 1.218l-.125.007h-3.121v.51a1.27 1.27 0 01-1.27 1.27l-.12-.005-.122-.017-.003-.001-9.673-1.894a1.272 1.272 0 01-1.02-1.118L4 20.327V4.165c0-.564.373-1.056.905-1.216l.125-.031 9.67-1.893a1.27 1.27 0 011.054.267zm-1.539 1.867L6 4.766v14.96l8.215 1.61V3.156zm4.346 3.52h-2.346v13.035h2.346V6.677zm-6.396 4.937c.169 0 .307.138.307.307v2.556a.307.307 0 01-.307.306h-.887a.306.306 0 01-.306-.306v-2.556c0-.169.137-.307.306-.307z"/></svg>