<svg id="generic--sim--card" xmlns="http://www.w3.org/2000/svg" viewBox="0 0 24 24"><path  d="M16.439 0c.383 0 .756.157 1.025.428l.078.09 3.498 4.509c.236.264.365.602.365.96v15.819c0 1.096-.89 1.986-1.986 1.986H4.986A1.988 1.988 0 013 21.806V1.987C3 .891 3.891 0 4.986 0zm-.278 2H4.986L5 21.806l14.419-.014-.014-15.609L16.161 2zm.606 7.367v9.938H7.638V9.367h9.13zm-1 7.099h-3.26v1.839h3.26v-1.84zm-4.26 0H8.637v1.839h2.868v-1.84zm4.26-3.07H8.638v2.07h7.13v-2.07zm-4.26-3.028H8.637v2.029h2.868v-2.03zm4.26 0h-3.26v2.029h3.26v-2.03z"/></svg>