<svg id="micro--question--mark" xmlns="http://www.w3.org/2000/svg" viewBox="0 0 16 16"><path  fill-rule="evenodd" d="M8.606 9.585l.025-.36c.044-.387.221-.724.53-1.012l.495-.455c.387-.363.657-.693.812-.99a2.03 2.03 0 00.232-.95c0-.737-.238-1.308-.714-1.712C9.51 3.702 8.84 3.5 7.977 3.5c-.854 0-1.529.213-2.023.639-.495.426-.746 1.015-.754 1.768h1.77c.008-.315.103-.563.284-.742.181-.18.422-.27.723-.27.635 0 .953.334.953 1 0 .22-.061.43-.183.63s-.368.457-.736.775c-.368.317-.622.64-.76.967-.138.327-.207.767-.207 1.318h1.562zm-.75 2.715c.296 0 .536-.085.717-.254a.845.845 0 00.271-.645.852.852 0 00-.277-.653c-.186-.172-.423-.258-.712-.258s-.526.086-.71.258a.852.852 0 00-.279.653c0 .26.091.475.272.645.181.17.42.254.717.254z"/></svg>