<svg id="navigation--scroll--up" xmlns="http://www.w3.org/2000/svg" viewBox="0 0 24 24"><path  fill-rule="evenodd" d="M13.209-.206a6.79 6.79 0 016.787 6.552l.004.238v10.42a6.79 6.79 0 01-6.552 6.785l-.24.005H10.79a6.79 6.79 0 01-6.786-6.553L4 17.003V6.584a6.79 6.79 0 016.552-6.786l.238-.004h2.419zm0 2h-2.42A4.795 4.795 0 006.006 6.37L6 6.584v10.42a4.796 4.796 0 004.577 4.785l.213.005h2.419a4.798 4.798 0 004.787-4.578l.004-.213V6.584a4.795 4.795 0 00-4.791-4.79zm-1.21 2.512c.515 0 .937.384.995.883l.006.117v2.348a1 1 0 01-1.993.117L11 7.654V5.306c0-.554.447-1 1-1zm-.354-13.16a.5.5 0 01.707 0l4.246 4.246a.499.499 0 010 .707l-.707.706a.498.498 0 01-.535.111l-3.004-3.004a.5.5 0 00-.707 0L8.642-3.084a.498.498 0 01-.535-.11L7.4-3.902a.5.5 0 010-.707l4.245-4.246z"/></svg>