<svg id="socials--twitter" xmlns="http://www.w3.org/2000/svg" viewBox="0 0 24 24"><path  fill-rule="evenodd" d="M2 19.071A12.221 12.221 0 008.604 21c8 0 12.519-6.73 12.246-12.767A8.689 8.689 0 0023 6.012a8.651 8.651 0 01-2.474.675 4.3 4.3 0 001.893-2.374 8.657 8.657 0 01-2.735 1.042A4.31 4.31 0 0016.54 4c-2.781 0-4.825 2.584-4.196 5.269a12.245 12.245 0 01-8.881-4.484 4.287 4.287 0 001.334 5.73 4.307 4.307 0 01-1.952-.537c-.047 1.989 1.383 3.848 3.455 4.263a4.34 4.34 0 01-1.945.073 4.308 4.308 0 004.024 2.98A8.681 8.681 0 012 19.072"/></svg>