<svg id="socials--instagram" xmlns="http://www.w3.org/2000/svg" viewBox="0 0 24 24"><path  fill-rule="evenodd" d="M13.061 2c1.772.004 2.153.018 3.062.06 1.065.049 1.791.217 2.428.465a4.89 4.89 0 011.77 1.154 4.897 4.897 0 011.154 1.77c.247.637.417 1.364.465 2.428.042.914.056 1.295.06 3.095v2.055c-.004 1.801-.018 2.182-.06 3.096-.048 1.065-.218 1.792-.465 2.428a4.897 4.897 0 01-1.153 1.77 4.91 4.91 0 01-1.771 1.154c-.637.248-1.363.417-2.428.465-.909.041-1.29.056-3.062.06H11.454c-2.222-.002-2.587-.015-3.577-.06-1.065-.048-1.79-.217-2.428-.465a4.91 4.91 0 01-1.77-1.153 4.904 4.904 0 01-1.154-1.77c-.248-.637-.416-1.364-.464-2.429-.043-.914-.057-1.295-.06-3.096v-2.055c.002-1.2.009-1.77.026-2.286l.007-.193c.007-.192.016-.387.027-.616.048-1.064.216-1.791.464-2.428a4.904 4.904 0 011.153-1.77A4.89 4.89 0 015.45 2.525c.637-.248 1.363-.416 2.428-.465.914-.042 1.295-.056 3.096-.06zm-.773 1.802h-1.329c-1.21.003-1.753.01-2.274.028l-.196.007-.53.023c-.974.045-1.504.208-1.857.344a3.11 3.11 0 00-1.15.748 3.1 3.1 0 00-.748 1.15c-.136.352-.299.882-.344 1.857l-.023.53-.007.195a67.693 67.693 0 00-.027 2.274v.486L3.801 12v1.042c.003 1.209.01 1.752.028 2.274l.007.195.023.53c.045.976.208 1.504.344 1.857.182.466.399.8.748 1.15.35.35.683.566 1.15.748.353.137.883.3 1.858.344.234.011.432.02.627.027l.196.007c.493.015 1.042.021 2.176.023h2.083a73.276 73.276 0 002.176-.023l.195-.007c.196-.007.394-.016.628-.027.975-.044 1.504-.207 1.857-.344.466-.182.8-.399 1.15-.748.35-.35.566-.684.748-1.15.137-.353.3-.881.344-1.857.043-.938.056-1.291.058-3.234v-1.614c-.002-1.943-.015-2.297-.058-3.234-.044-.975-.207-1.505-.344-1.857a3.098 3.098 0 00-.748-1.15 3.115 3.115 0 00-1.15-.748c-.353-.136-.882-.3-1.857-.344a84.91 84.91 0 00-.53-.023l-.195-.007a67.67 67.67 0 00-2.274-.028h-1.041zM12 6.864a5.136 5.136 0 110 10.271 5.136 5.136 0 010-10.27zm0 1.802a3.333 3.333 0 100 6.666 3.333 3.333 0 000-6.666zm5.338-3.204a1.2 1.2 0 110 2.401 1.2 1.2 0 010-2.401z"/></svg>