<svg id="socials--behance" xmlns="http://www.w3.org/2000/svg" viewBox="0 0 24 24"><path  fill-rule="evenodd" d="M17.44 8.054c.8 0 1.52.146 2.16.44.64.292 1.17.755 1.586 1.387.377.556.621 1.203.733 1.939.064.43.09 1.051.078 1.86h-6.689c.038.942.358 1.601.96 1.98.367.235.809.353 1.325.353.547 0 .991-.144 1.333-.431.187-.155.352-.37.494-.645h2.452c-.064.556-.361 1.12-.89 1.695-.822.913-1.974 1.368-3.456 1.368-1.222 0-2.3-.383-3.234-1.153-.935-.77-1.402-2.022-1.402-3.756 0-1.624.422-2.87 1.266-3.736.843-.867 1.938-1.3 3.284-1.3zM8.004 5c1.514.024 2.586.474 3.218 1.35.38.54.57 1.186.57 1.936 0 .775-.192 1.398-.575 1.867-.215.264-.53.505-.948.723.635.235 1.113.609 1.436 1.118.321.51.483 1.13.483 1.859 0 .751-.184 1.425-.553 2.023a3.504 3.504 0 01-.88.997c-.396.31-.864.523-1.403.636a8.392 8.392 0 01-1.755.173H2V5zm-.47 7.098H4.478v3.381h3.016c.538 0 .959-.074 1.258-.223.544-.275.816-.804.816-1.584 0-.66-.263-1.112-.79-1.36-.295-.137-.708-.208-1.242-.214zm9.906-2.022c-.616 0-1.093.18-1.433.536-.34.357-.553.841-.64 1.451h4.138c-.044-.65-.257-1.144-.64-1.481-.383-.337-.858-.506-1.425-.506zM7.18 7.203H4.476v2.796h3.02c.539 0 .977-.105 1.313-.314.337-.21.505-.581.505-1.114 0-.59-.222-.981-.667-1.17-.384-.133-.873-.198-1.469-.198zm12.802-1.474v1.28h-5.397V5.73h5.397z"/></svg>