<svg id="socials--whatsapp" xmlns="http://www.w3.org/2000/svg" viewBox="0 0 24 24"><path  fill-rule="evenodd" d="M12.69 1c5.609 0 10.165 4.44 10.305 9.969.005.087.005.173.005.26 0 5.652-4.614 10.23-10.31 10.23a10.32 10.32 0 01-4.98-1.274L2 22l1.858-5.486a10.145 10.145 0 01-1.477-5.284c0-.15.005-.299.01-.45C2.632 5.339 7.15 1 12.69 1zm0 1.631c-4.493 0-8.2 3.412-8.625 7.764a8.509 8.509 0 001.608 5.877l-1.08 3.195 3.33-1.063a8.634 8.634 0 004.768 1.424c4.778 0 8.667-3.854 8.667-8.598 0-.227-.009-.45-.029-.671-.347-4.43-4.087-7.928-8.638-7.928zM9.22 6.56c.17 0 .338.025.483.025.15 0 .362-.088.569.414.213.502.72 1.737.782 1.862.063.126.106.27.02.44a2.869 2.869 0 01-.16.299c-.029.039-.057.077-.092.12-.13.145-.265.324-.38.44-.126.126-.257.26-.111.51.144.253.656 1.072 1.404 1.734.965.858 1.781 1.118 2.031 1.245.257.125.402.105.55-.064.146-.164.633-.729.802-.979.168-.25.338-.212.57-.126.231.083 1.472.691 1.728.816.251.125.42.188.483.29.063.106.063.608-.15 1.191-.208.589-1.241 1.153-1.704 1.193a1.2 1.2 0 00-.163.028l-.076.018c-.32.076-.722.136-2.797-.67-2.568-1.008-4.189-3.623-4.315-3.787-.097-.126-.646-.854-.902-1.737a3.176 3.176 0 01-.131-.854c0-1.236.652-1.844.884-2.095a.935.935 0 01.676-.313z"/></svg>