<svg id="view--reduce--alt" xmlns="http://www.w3.org/2000/svg" viewBox="0 0 24 24"><path  d="M8.806 15.767a.5.5 0 01.5.5v5.504a1 1 0 01-2 0v-2.594l-.002.002v-.91a.5.5 0 00-.5-.5h-.917l.002-.002H3.302a1 1 0 010-2zm12.504 0a1 1 0 110 2h-2.593l.002.002h-.91a.5.5 0 00-.5.5v.917l-.003-.002v2.587a1 1 0 01-2 0v-5.504a.5.5 0 01.5-.5zM16.004 2a1 1 0 011 1v2.593l.002-.002v.911a.5.5 0 00.5.5h.918l-.002.002h2.586a1 1 0 110 2h-5.504a.5.5 0 01-.5-.5V3a1 1 0 011-1zm-8 0a1 1 0 011 1v5.504a.5.5 0 01-.5.5H3a1 1 0 110-2h2.593l-.002-.003h.911a.5.5 0 00.5-.5v-.917l.002.002V3a1 1 0 011-1z"/></svg>