<svg id="view--full--screen--alt" xmlns="http://www.w3.org/2000/svg" viewBox="0 0 24 24"><path  d="M3.303 15.767a1 1 0 011 1v2.593l.002-.002v.91a.5.5 0 00.5.5h.918l-.002.003h2.586a1 1 0 110 2H2.803a.5.5 0 01-.5-.5v-5.504a1 1 0 011-1zm18.008 0a1 1 0 011 1v5.504a.5.5 0 01-.5.5h-5.504a1 1 0 010-2H18.9l-.002-.003h.91a.5.5 0 00.5-.5v-.917l.003.002v-2.586a1 1 0 011-1zM21.508 2a.5.5 0 01.5.5v5.504a1 1 0 11-2 0V5.41l-.002.002v-.91a.5.5 0 00-.5-.5h-.917L18.59 4h-2.586a1 1 0 110-2zM8.004 2a1 1 0 110 2H5.411l.002.002h-.911a.5.5 0 00-.5.5v.917L4 5.417v2.587a1 1 0 11-2 0V2.5a.5.5 0 01.5-.5z"/></svg>