<svg id="view--grid" xmlns="http://www.w3.org/2000/svg" viewBox="0 0 24 24"><path  d="M5.668 16.46a1.15 1.15 0 011.149 1.15v2.518c0 .635-.514 1.149-1.149 1.149H3.149A1.15 1.15 0 012 20.127V17.61a1.15 1.15 0 011.149-1.15zm7.478 0a1.15 1.15 0 011.15 1.15v2.518a1.15 1.15 0 01-1.15 1.149h-2.519a1.15 1.15 0 01-1.149-1.15V17.61a1.15 1.15 0 011.15-1.15zm7.479 0a1.15 1.15 0 011.149 1.15v2.518c0 .635-.514 1.149-1.15 1.149h-2.517a1.148 1.148 0 01-1.15-1.15V17.61a1.15 1.15 0 011.15-1.15zM5.668 9.23a1.15 1.15 0 011.149 1.15v2.517c0 .635-.514 1.15-1.149 1.15H3.149A1.15 1.15 0 012 12.896V10.38A1.15 1.15 0 013.149 9.23zm7.478 0a1.15 1.15 0 011.15 1.15v2.517a1.15 1.15 0 01-1.15 1.15h-2.519a1.15 1.15 0 01-1.149-1.15V10.38a1.15 1.15 0 011.15-1.149zm7.479 0a1.15 1.15 0 011.149 1.15v2.517c0 .635-.514 1.15-1.15 1.15h-2.517a1.148 1.148 0 01-1.15-1.15V10.38a1.15 1.15 0 011.15-1.149zM5.668 2c.635 0 1.149.515 1.149 1.148v2.519c0 .635-.514 1.149-1.149 1.149H3.149A1.15 1.15 0 012 5.667V3.148A1.15 1.15 0 013.149 2zm7.478 0a1.15 1.15 0 011.15 1.148v2.519a1.15 1.15 0 01-1.15 1.149h-2.519a1.15 1.15 0 01-1.149-1.149V3.148A1.15 1.15 0 0110.629 2zm7.479 0c.635 0 1.149.515 1.149 1.148v2.519c0 .635-.514 1.149-1.15 1.149h-2.517a1.148 1.148 0 01-1.15-1.149V3.148c0-.633.515-1.148 1.15-1.148z"/></svg>