<svg id="view--visibility--off" xmlns="http://www.w3.org/2000/svg" viewBox="0 0 24 24"><path  d="M3.558 2.293a.999.999 0 011.414 0l17 17a1 1 0 01-1.414 1.414l-2.642-2.642a11.895 11.895 0 01-5.667 1.435c-4.934 0-9.292-2.972-11.104-7.57L1 11.563l.145-.366a11.903 11.903 0 014.401-5.502L3.558 3.707a.999.999 0 010-1.414zm3.44 4.853a9.854 9.854 0 00-3.84 4.417 9.88 9.88 0 009.091 5.937 9.933 9.933 0 004.182-.92l-1.487-1.487a4.415 4.415 0 01-2.695.922 4.457 4.457 0 01-4.452-4.452c0-1.014.348-1.946.922-2.695zm5.251-3.518c4.934 0 9.292 2.97 11.104 7.57l.145.366-.145.366a12.008 12.008 0 01-2.668 4.077l-1.428-1.428a9.96 9.96 0 002.083-3.015 9.88 9.88 0 00-9.091-5.936c-.604 0-1.191.07-1.77.174l-1.67-1.67a11.977 11.977 0 013.44-.504zm-2.09 6.681a2.398 2.398 0 00-.362 1.254c0 1.352 1.1 2.452 2.452 2.452.462 0 .888-.138 1.255-.362zm2.09-3.196a4.456 4.456 0 014.451 4.45c0 .144-.029.279-.042.417l-4.825-4.825.275-.034z"/></svg>