<svg id="view--tiles" xmlns="http://www.w3.org/2000/svg" viewBox="0 0 24 24"><path  d="M21.861 18.753H16.5v-6.377H22v6.238a.139.139 0 01-.139.139zM2.5 18.614v-6.238H8v6.377H2.639a.14.14 0 01-.139-.139zM2.639 4.5H8v6.376H2.5V4.639a.14.14 0 01.139-.139zM9.5 18.753H15v-6.377H9.5v6.377zm0-7.877H15V4.5H9.5v6.376zM22 4.639v6.237h-5.5V4.5h5.361a.14.14 0 01.139.139zM21.861 3H2.639C1.736 3 1 3.735 1 4.639v13.975c0 .904.736 1.639 1.639 1.639h19.222a1.64 1.64 0 001.639-1.639V4.639A1.64 1.64 0 0021.861 3z"/></svg>