<svg id="add--invoice" xmlns="http://www.w3.org/2000/svg" viewBox="0 0 160 160"><g fill="none" fill-rule="evenodd"><path fill="none" d="M0 0h160v160H0z"/><path fill="none" d="M0 0h160v160H0z"/><path d="M0 0h160v160H0z"/><g><path fill="var(--color-primary-100)" d="M146.5 44.523l-31.285 8.383 8.382-31.285c-10.805-2.885-22.81-.098-31.287 8.38-12.651 12.65-12.651 33.16 0 45.81 12.65 12.65 33.16 12.65 45.81 0 8.477-8.477 11.264-20.482 8.38-31.288"/><path fill="var(--color-primary-100)" d="M154.552 36.975a32.227 32.227 0 00-8.38-14.522 32.232 32.232 0 00-14.522-8.38l-8.383 31.285 31.285-8.383zM99.59 84.125l-62.686 18.691c-6.35 1.895-13.034-1.718-14.928-8.07L8.09 48.177l85.685-25.549 13.885 46.568c1.894 6.352-1.719 13.035-8.07 14.93"/><path stroke="var(--color-primary-400)" stroke-width="4" d="M99.59 84.125l-62.686 18.691c-6.35 1.895-13.034-1.718-14.928-8.07L8.09 48.177l85.685-25.549 13.885 46.568c1.894 6.352-1.719 13.035-8.07 14.93z"/><path fill="var(--color-primary-100)" d="M97.922 47.844L18.43 71.547a6.526 6.526 0 01-8.118-4.389L5.31 50.384a7.373 7.373 0 014.96-9.173l77.868-23.22a7.375 7.375 0 019.173 4.96l5.002 16.774a6.528 6.528 0 01-4.39 8.12"/><path stroke="var(--color-primary-400)" stroke-width="4" d="M97.922 47.844L18.43 71.547a6.526 6.526 0 01-8.118-4.389L5.31 50.384a7.373 7.373 0 014.96-9.173l77.868-23.22a7.375 7.375 0 019.173 4.96l5.002 16.774a6.528 6.528 0 01-4.39 8.12z"/><path fill="var(--color-primary-200)" d="M95.554 58.073l-69.54 20.735a6.681 6.681 0 01-8.313-4.493l-.253-.851L99.793 48.91l.254.85a6.68 6.68 0 01-4.493 8.313M23.886 26.658l2.874 9.636 7.367-2.197-2.869-9.621a1.926 1.926 0 011.296-2.396l26.46-7.89a1.928 1.928 0 012.395 1.295l2.87 9.622 7.367-2.197-2.873-9.636c-1.496-5.017-6.778-7.872-11.795-6.376l-26.716 7.966a9.48 9.48 0 00-6.376 11.794"/><path stroke="var(--color-primary-400)" stroke-width="3" d="M23.886 26.658l2.874 9.636 7.367-2.197-2.869-9.621a1.926 1.926 0 011.296-2.396l26.46-7.89a1.928 1.928 0 012.395 1.295l2.87 9.622 7.367-2.197-2.873-9.636c-1.496-5.017-6.778-7.872-11.795-6.376l-26.716 7.966a9.48 9.48 0 00-6.376 11.794z"/><path fill="var(--color-neutral-50)" d="M45.383 74.8l-6.194 1.846a1.57 1.57 0 01-1.952-1.055l-3.37-11.302a1.569 1.569 0 011.055-1.95l6.194-1.849a1.57 1.57 0 011.952 1.056l3.37 11.302a1.569 1.569 0 01-1.055 1.951"/><path stroke="var(--color-primary-300)" stroke-width="3" d="M45.383 74.8l-6.194 1.846a1.57 1.57 0 01-1.952-1.055l-3.37-11.302a1.569 1.569 0 011.055-1.95l6.194-1.849a1.57 1.57 0 011.952 1.056l3.37 11.302a1.569 1.569 0 01-1.055 1.951z"/><path fill="var(--color-neutral-50)" d="M83.346 63.48l-6.194 1.847a1.57 1.57 0 01-1.952-1.055l-3.37-11.303a1.569 1.569 0 011.055-1.951l6.194-1.847a1.57 1.57 0 011.952 1.055l3.37 11.302a1.569 1.569 0 01-1.055 1.952"/><path stroke="var(--color-primary-300)" stroke-width="3" d="M83.346 63.48l-6.194 1.847a1.57 1.57 0 01-1.952-1.055l-3.37-11.303a1.569 1.569 0 011.055-1.951l6.194-1.847a1.57 1.57 0 011.952 1.055l3.37 11.302a1.569 1.569 0 01-1.055 1.952z"/><path stroke="var(--color-primary-400)" stroke-linecap="round" stroke-width="3" d="M13.328 145.858a18.578 18.578 0 01-3.408-6.824c-2.618-9.947 3.32-20.132 13.266-22.751 9.947-2.619 20.133 3.32 22.75 13.266 2.62 9.947-3.32 20.132-13.265 22.751a18.529 18.529 0 01-10.354-.249M20.777 134.292h14.304M27.928 141.443V127.14"/><g><path fill="var(--color-neutral-50)" d="M69.752 151.156l50.238.02a2.841 2.841 0 002.841-2.84l.027-66.16a2.84 2.84 0 00-2.84-2.841l-50.238-.02a2.815 2.815 0 00-2.816 2.814l-.026 66.21a2.815 2.815 0 002.814 2.817"/><path stroke="var(--color-primary-400)" stroke-width="4" d="M69.752 151.156l50.238.02a2.841 2.841 0 002.841-2.84l.027-66.16a2.84 2.84 0 00-2.84-2.841l-50.238-.02a2.815 2.815 0 00-2.816 2.814l-.026 66.21a2.815 2.815 0 002.814 2.817z"/><path fill="var(--color-primary-100)" d="M121.666 141.837l.022-52.666c0-1.666-.458-3.327-1.439-4.674a7.642 7.642 0 00-4.83-3.054l-24.645-.424-17.129 52.48a3.676 3.676 0 002.358 4.635l34.843 11.352 3.163.002h.004c4.216 0 7.65-3.43 7.653-7.65"/><path stroke="var(--color-primary-200)" stroke-linecap="round" stroke-width="3" d="M110.502 106.025l-35.543-.014M88.125 114.406l-13.171-.005"/><path fill="var(--color-neutral-50)" d="M80.22 136.251l49.395 16.094a2.262 2.262 0 002.85-1.45l21.086-64.714a2.262 2.262 0 00-1.45-2.852l-49.395-16.093a2.261 2.261 0 00-2.85 1.45L78.77 133.399a2.263 2.263 0 001.45 2.852"/><path stroke="var(--color-primary-400)" stroke-width="4" d="M80.22 136.251l49.395 16.094a2.262 2.262 0 002.85-1.45l21.086-64.714a2.262 2.262 0 00-1.45-2.852l-49.395-16.093a2.261 2.261 0 00-2.85 1.45L78.77 133.399a2.263 2.263 0 001.45 2.852z"/><path stroke="var(--color-primary-200)" stroke-linecap="round" stroke-width="3" d="M140.752 91.52l-14.775-4.814M136.923 103.274l-34.146-11.125M134.296 111.334l-14.776-4.814M112.803 104.332l-12.652-4.123M131.67 119.395l-34.146-11.126M129.044 127.455L94.898 116.33M106.713 129.094l-14.441-4.705"/></g></g></g></svg>