<svg id="add--customer" xmlns="http://www.w3.org/2000/svg" viewBox="0 0 160 160"><g fill="none" fill-rule="evenodd"><path fill="none" d="M0 0h160v160H0z"/><path fill="none" d="M0 0h160v160H0z"/><path d="M0 0h160v160H0z"/><g><path fill="var(--color-neutral-50)" d="M76.32 149.95a6.714 6.714 0 116.07-11.977 6.714 6.714 0 01-6.07 11.977"/><path stroke="var(--color-primary-200)" stroke-width="3" d="M76.32 149.95a6.714 6.714 0 116.07-11.977 6.714 6.714 0 01-6.07 11.977z"/><path fill="var(--color-primary-100)" d="M139.247 92.33c0 22.557-18.285 40.842-40.84 40.842-22.556 0-40.84-18.285-40.84-40.841S75.85 51.49 98.406 51.49c22.555 0 40.84 18.285 40.84 40.84"/><path fill="var(--color-primary-200)" d="M84.298 115.4l-7.144-2.619a13.684 13.684 0 01-8.975-12.848v-26.16H45.33v26.16a13.685 13.685 0 01-8.974 12.848l-7.144 2.618c-.868.317-.64 1.602.284 1.602h54.517c.923 0 1.15-1.285.284-1.602"/><path stroke="var(--color-primary-400)" stroke-linecap="round" stroke-width="3" d="M84.298 115.4l-7.144-2.619a13.684 13.684 0 01-8.975-12.848v-26.16H45.33v26.16a13.685 13.685 0 01-8.974 12.848l-7.144 2.618c-.868.317-.64 1.602.284 1.602h54.517c.923 0 1.15-1.285.284-1.602z"/><path fill="var(--color-primary-100)" d="M103.811 92.33H9.698A6.198 6.198 0 013.5 86.134V15.698A6.198 6.198 0 019.698 9.5h94.113a6.198 6.198 0 016.198 6.198v70.435a6.198 6.198 0 01-6.198 6.198"/><path stroke="var(--color-primary-400)" stroke-width="3" d="M103.811 92.33H9.698A6.198 6.198 0 013.5 86.134V15.698A6.198 6.198 0 019.698 9.5h94.113a6.198 6.198 0 016.198 6.198v70.435a6.198 6.198 0 01-6.198 6.198z"/><path fill="var(--color-primary-100)" d="M3.5 77.528h106.509"/><path stroke="var(--color-primary-400)" stroke-width="4" d="M3.5 77.528h106.509"/><path fill="var(--color-neutral-50)" d="M150.46 67.564H72.055a5.856 5.856 0 01-5.856-5.856V38.143a5.856 5.856 0 015.856-5.857h78.405a5.856 5.856 0 015.856 5.857v23.565a5.856 5.856 0 01-5.856 5.856"/><path stroke="var(--color-primary-200)" stroke-width="3" d="M150.46 67.564H72.055a5.856 5.856 0 01-5.856-5.856V38.143a5.856 5.856 0 015.856-5.857h78.405a5.856 5.856 0 015.856 5.857v23.565a5.856 5.856 0 01-5.856 5.856z"/><path fill="var(--color-neutral-50)" d="M98.407 38.029c0 5.183-3.349 9.385-7.481 9.385-4.131 0-7.481-4.202-7.481-9.385 0-5.184 3.35-9.386 7.481-9.386 4.132 0 7.481 4.202 7.481 9.386"/><path fill="var(--color-primary-600)" d="M85.5 43.064a3.808 3.808 0 01-1.253-3.782l1.336-5.754a3.448 3.448 0 011.406-2.063l2.066-1.422a3.443 3.443 0 011.959-.605c.707 0 1.383.21 1.958.606l2.067 1.421a3.436 3.436 0 011.404 2.063l1.338 5.754a3.806 3.806 0 01-1.253 3.782l-4.703 3.98a1.257 1.257 0 01-1.623 0l-4.702-3.98zm22.166 15.77l-1.105-4.422a5.304 5.304 0 00-3.355-3.712l-3.42-1.235a.77.77 0 00-.754.144l-1.66 1.452a.43.43 0 00-.14.408c.03.153.136.274.28.325l4.689 1.691a2.349 2.349 0 011.487 1.643l.646 2.582H77.693l.646-2.582c.203-.813.809-1.337 1.854-1.602.044-.012.088-.025.135-.04L85.56 51.6c.12-.043.236-.102.345-.179.637-.443 1.436-1.386 1.742-2.66l.643.542a4.211 4.211 0 002.724 1.003c.993 0 1.96-.356 2.723-1.003l4.703-3.979a6.76 6.76 0 002.225-6.713l-1.338-5.754a6.396 6.396 0 00-2.61-3.83l-2.067-1.42c-2.173-1.502-5.096-1.499-7.273-.003l-2.066 1.423a6.392 6.392 0 00-2.611 3.83l-1.337 5.754a6.76 6.76 0 002.224 6.713l1.225 1.036v1.377c0 .477-.293.95-.498 1.164l-4.916 1.772c-2.07.546-3.465 1.873-3.931 3.74l-1.106 4.421c-.11.438-.008.913.27 1.27.283.361.707.57 1.166.57h30.432a1.49 1.49 0 001.167-.57c.279-.357.38-.832.27-1.27z"/><path stroke="var(--color-primary-600)" stroke-width="2" d="M99.534 38.766l-8.61-5.529-8.607 5.527"/><path stroke="var(--color-primary-200)" stroke-linecap="round" stroke-width="3" d="M114.135 42.792h33.155M114.135 50.88h18.645M139.995 50.88h8.411M114.135 58.967h18.645"/><path fill="var(--color-primary-200)" d="M3.5 75.193v11.018c0 3.379 2.366 6.12 5.286 6.12h95.937c2.92 0 5.286-2.741 5.286-6.12V75.193H3.5z"/><path stroke="var(--color-primary-400)" stroke-linecap="round" stroke-width="3" d="M3.5 75.193v11.018c0 3.379 2.366 6.12 5.286 6.12h95.937c2.92 0 5.286-2.741 5.286-6.12V75.193H3.5z"/><path stroke="var(--color-neutral-50)" stroke-linecap="round" stroke-width="2" d="M59.536 84.137a2.782 2.782 0 11-5.563-.001 2.782 2.782 0 015.563.001z"/><path stroke="var(--color-primary-300)" stroke-linecap="round" stroke-width="3" d="M48.78 50.061l-4.663 12.434H22.36l-4.663-12.434M44.118 42.29l-4.663-8.345M22.359 42.29l4.663-8.345M37.901 55.501v3.108M28.576 55.501v3.108M33.238 55.501v3.108"/><path stroke="var(--color-primary-300)" stroke-linecap="round" stroke-width="3" d="M46.695 50.838H19.782a3.491 3.491 0 01-3.424-2.807l-.637-3.18a1.492 1.492 0 011.463-1.784h32.11c.94 0 1.646.86 1.461 1.784l-.636 3.18a3.491 3.491 0 01-3.424 2.807z"/><path stroke="var(--color-primary-400)" stroke-linecap="round" stroke-width="4" d="M100.76 136.471a23.187 23.187 0 01-3.248-8.954c-1.822-12.714 7.008-24.498 19.722-26.32 12.715-1.822 24.498 7.007 26.32 19.721 1.822 12.714-7.007 24.498-19.722 26.321a23.156 23.156 0 01-12.807-1.795M129.166 124.025h-17.862M120.236 115.093v17.862"/></g></g></svg>