<svg id="add--ticket" xmlns="http://www.w3.org/2000/svg" viewBox="0 0 160 160"><g fill="none" fill-rule="evenodd"><path fill="none" d="M0 0h160v160H0z"/><path fill="none" d="M0 0h160v160H0z"/><path d="M0 0h160v160H0z"/><g><path fill="var(--color-primary-100)" d="M142.055 75.968c0 22.556-18.285 40.841-40.84 40.841-22.556 0-40.84-18.285-40.84-40.841s18.284-40.84 40.84-40.84c22.555 0 40.84 18.284 40.84 40.84"/><path fill="var(--color-primary-200)" d="M120.7 123.162l-1.797-12.908c-1.222-4.887-4.798-8.843-11.514-10.55l-14.407-5.189-17.452 30.121-12.202-13.083-12.202 13.083-17.707-30.562-15.541 5.6a15.105 15.105 0 00-9.536 10.548l-1.274 4.948-.662 4.755a10.263 10.263 0 005.248 8.203l46.649 25.914a12.09 12.09 0 005.873 1.522h.831c2.099 0 4.164-.547 5.988-1.587L116.3 128.16a10.24 10.24 0 004.4-4.997"/><path stroke="var(--color-primary-400)" stroke-linecap="round" stroke-width="3" d="M149.5 44.909a18.557 18.557 0 013.709 6.666c3.06 9.818-2.421 20.26-12.24 23.317-9.821 3.06-20.26-2.42-23.32-12.24-3.06-9.818 2.42-20.26 12.24-23.318a18.535 18.535 0 0110.355-.213M128.277 57.113h14.304M135.429 64.265V49.962"/><path fill="var(--color-neutral-50)" d="M133.716 102.107a7.281 7.281 0 01-3.204-9.787 7.28 7.28 0 019.787-3.204 7.283 7.283 0 01-6.583 12.991"/><path stroke="var(--color-primary-200)" stroke-width="3" d="M133.716 102.107a7.281 7.281 0 01-3.204-9.787 7.28 7.28 0 019.787-3.204 7.283 7.283 0 01-6.583 12.991z"/><g><path fill="var(--color-primary-100)" d="M81.836 75.772v7.01c0 4.358 2.733 8.248 4.855 9.725l.124.044c8.768-.843 16.467-5.336 21.554-11.952-8.724-1.055-15.621-8.014-16.577-16.767a26.324 26.324 0 01-5.628 6.668l-6.228 5.272h1.9z"/><path stroke="var(--color-primary-400)" stroke-linecap="square" stroke-width="2.5" d="M81.836 75.772v7.01c0 4.358 2.733 8.248 4.855 9.725l.124.044c8.768-.843 16.467-5.336 21.554-11.952-8.724-1.055-15.621-8.014-16.577-16.767a26.324 26.324 0 01-5.628 6.668l-6.228 5.272h1.9z"/><path fill="var(--color-primary-100)" d="M45.141 75.772v7.01c0 4.358-2.733 8.248-4.856 9.725l-.123.044c-8.769-.843-16.468-5.336-21.555-11.952 8.724-1.055 15.621-8.014 16.577-16.767a26.308 26.308 0 005.63 6.668l6.226 5.272h-1.899z"/><path stroke="var(--color-primary-400)" stroke-linecap="square" stroke-width="2.5" d="M45.141 75.772v7.01c0 4.358-2.733 8.248-4.856 9.725l-.123.044c-8.769-.843-16.468-5.336-21.555-11.952 8.724-1.055 15.621-8.014 16.577-16.767a26.308 26.308 0 005.63 6.668l6.226 5.272h-1.899z"/><path stroke="var(--color-primary-400)" stroke-width="4" d="M115.925 128.784a10.26 10.26 0 004.856-11.474l-1.663-6.463c-1.221-4.887-4.797-8.843-11.514-10.55l-20.61-7.424c-2.122-1.477-4.854-5.366-4.854-9.725v-7.01H44.946v7.01c0 4.36-2.734 8.248-6.834 9.725l-20.61 7.424a15.109 15.109 0 00-9.535 10.55l-1.642 6.377a10.263 10.263 0 004.954 11.53l46.648 25.913a12.096 12.096 0 005.874 1.521h.83a12.1 12.1 0 005.989-1.586l45.305-25.818z"/><path stroke="var(--color-primary-400)" stroke-width="4" d="M115.925 128.784a10.26 10.26 0 004.856-11.474l-1.663-6.463c-1.221-4.887-4.797-8.843-11.514-10.55l-20.61-7.424c-2.122-1.477-4.854-5.366-4.854-9.725v-7.01H44.946v7.01c0 4.36-2.734 8.248-6.834 9.725l-20.61 7.424a15.109 15.109 0 00-9.535 10.55l-1.642 6.377a10.263 10.263 0 004.954 11.53l46.648 25.913a12.096 12.096 0 005.874 1.521h.83a12.1 12.1 0 005.989-1.586l45.305-25.818z"/><path fill="var(--color-primary-100)" d="M73.542 91.967l7.266-6.15a13.35 13.35 0 01-.305-2.804v-5.066h-33.81v5.066c0 .953-.111 1.888-.317 2.792l7.279 6.162a15.39 15.39 0 0019.887 0"/><path fill="var(--color-neutral-50)" d="M93.196 95.108l-4.708-1.696a7.81 7.81 0 01-3.463-2.45l-.132-.167-21.35 21.35 11.638 12.48a.612.612 0 00.977-.111l17.038-29.406z"/><path stroke="var(--color-primary-400)" stroke-linecap="square" stroke-width="2" d="M93.196 95.108l-4.708-1.696a7.81 7.81 0 01-3.463-2.45l-.132-.167-21.35 21.35 11.638 12.48a.612.612 0 00.977-.111l17.038-29.406z"/><path fill="var(--color-neutral-50)" d="M51.903 124.625l11.64-12.479-21.409-21.408-.532.017a10.34 10.34 0 01-3.49 2.118l-4.566 1.645 17.38 29.996a.613.613 0 00.977.111"/><path stroke="var(--color-primary-400)" stroke-linecap="square" stroke-width="2" d="M51.903 124.625l11.64-12.479-21.409-21.408-.532.017a10.34 10.34 0 01-3.49 2.118l-4.566 1.645 17.38 29.996a.613.613 0 00.977.111z"/><path fill="var(--color-neutral-50)" d="M73.097 82.247l13.76-11.649a25.694 25.694 0 008.425-25.423l-3.86-16.612A27.877 27.877 0 0080.076 11.91l-.654-.449a27.877 27.877 0 00-31.61 0l-.654.45A27.874 27.874 0 0035.81 28.562l-3.86 16.612a25.693 25.693 0 008.424 25.423l13.761 11.65a14.672 14.672 0 0018.962 0"/><path stroke="var(--color-primary-400)" stroke-width="3" d="M73.097 82.247l13.76-11.649a25.694 25.694 0 008.425-25.423l-3.86-16.612A27.877 27.877 0 0080.076 11.91l-.654-.449a27.877 27.877 0 00-31.61 0l-.654.45A27.874 27.874 0 0035.81 28.562l-3.86 16.612a25.693 25.693 0 008.424 25.423l13.761 11.65a14.672 14.672 0 0018.962 0z"/><path fill="var(--color-primary-100)" d="M58.46 17.176c4.264 10.461 14.307 17.934 26.163 18.485 1.987 5.045 4.994 9.055 10.05 11.012-.108-1.204.727-2.409.449-3.607L91.42 27.137a28.612 28.612 0 00-11.65-17.094 28.629 28.629 0 00-36.027 2.909c-4.13 3.934-6.885 9.095-8.175 14.651l-1.96 8.433a.057.057 0 00.007.008c11.986.351 22.124-7.8 24.844-18.868"/><path stroke="var(--color-primary-400)" stroke-linecap="square" stroke-width="4" d="M58.46 17.176c4.264 10.461 14.307 17.934 26.163 18.485 1.987 5.045 4.994 9.055 10.05 11.012-.108-1.204.727-2.409.449-3.607L91.42 27.137a28.612 28.612 0 00-11.65-17.094 28.629 28.629 0 00-36.027 2.909c-4.13 3.934-6.885 9.095-8.175 14.651l-1.96 8.433a.057.057 0 00.007.008c11.986.351 22.124-7.8 24.844-18.868z"/><path fill="var(--color-primary-100)" d="M34.72 52.806c.317 6.496-3.26 11.948-7.985 12.178-4.727.23-8.816-4.85-9.131-11.345-.317-6.495 3.259-11.947 7.986-12.178 4.727-.23 8.816 4.85 9.13 11.345"/><path stroke="var(--color-primary-400)" stroke-linecap="square" stroke-width="2" d="M34.72 52.806c.317 6.496-3.26 11.948-7.985 12.178-4.727.23-8.816-4.85-9.131-11.345-.317-6.495 3.259-11.947 7.986-12.178 4.727-.23 8.816 4.85 9.13 11.345z"/><path stroke="var(--color-primary-600)" stroke-width="2" d="M96.253 67.434c-1.812 4.704-6.714 8.448-12.056 8.448h-9.763"/><path fill="var(--color-primary-200)" d="M35.378 66.309l-3.844.187a5.263 5.263 0 01-5.513-5.002l-.826-16.953a5.265 5.265 0 015.002-5.514l3.844-.187 1.337 27.469z"/><path stroke="var(--color-primary-400)" stroke-linecap="square" stroke-width="3" d="M35.378 66.309l-3.844.187a5.263 5.263 0 01-5.513-5.002l-.826-16.953a5.265 5.265 0 015.002-5.514l3.844-.187 1.337 27.469z"/><path fill="var(--color-primary-100)" d="M92.656 52.806c-.316 6.496 3.26 11.948 7.986 12.178 4.728.23 8.816-4.85 9.132-11.345.316-6.495-3.26-11.947-7.986-12.178-4.728-.23-8.816 4.85-9.132 11.345"/><path stroke="var(--color-primary-400)" stroke-linecap="square" stroke-width="2" d="M92.656 52.806c-.316 6.496 3.26 11.948 7.986 12.178 4.728.23 8.816-4.85 9.132-11.345.316-6.495-3.26-11.947-7.986-12.178-4.728-.23-8.816 4.85-9.132 11.345z"/><path fill="var(--color-primary-200)" d="M91.999 66.309l3.844.187a5.264 5.264 0 005.514-5.002l.825-16.953a5.264 5.264 0 00-5.002-5.514l-3.844-.187-1.337 27.469z"/><path stroke="var(--color-primary-400)" stroke-linecap="square" stroke-width="3" d="M91.999 66.309l3.844.187a5.264 5.264 0 005.514-5.002l.825-16.953a5.264 5.264 0 00-5.002-5.514l-3.844-.187-1.337 27.469z"/><path fill="var(--color-neutral-50)" d="M63.616 73.348c3.914 0 7.115-2.337 7.362-5.29.017-.198-.152-.367-.351-.367H56.604c-.199 0-.368.169-.351.367.247 2.953 3.449 5.29 7.363 5.29"/><path stroke="var(--color-primary-200)" stroke-linecap="square" stroke-width="2.5" d="M63.616 73.348c3.914 0 7.115-2.337 7.362-5.29.017-.198-.152-.367-.351-.367H56.604c-.199 0-.368.169-.351.367.247 2.953 3.449 5.29 7.363 5.29z"/><path stroke="var(--color-primary-400)" stroke-width="4" d="M44.945 83.149c0 4.358-2.733 8.248-6.833 9.725l-20.609 7.423a15.11 15.11 0 00-9.537 10.55l-1.64 6.378a10.26 10.26 0 004.953 11.528l46.647 25.915a12.099 12.099 0 005.874 1.52h.832c2.1 0 4.164-.546 5.988-1.585l45.304-25.818a10.26 10.26 0 004.857-11.474l-1.663-6.464c-1.222-4.886-4.798-8.843-11.515-10.55l-18.519-6.67c-2.005-.723-3.76-2.048-4.904-3.847-1.155-1.82-2.04-4.15-2.04-6.631"/><path fill="var(--color-primary-400)" d="M66.532 79.462h7.498a2.922 2.922 0 002.913-2.914v-.82a2.92 2.92 0 00-2.913-2.913h-7.498a2.921 2.921 0 00-2.913 2.913v.82a2.923 2.923 0 002.913 2.914"/><path stroke="var(--color-primary-600)" stroke-width="2" d="M66.532 79.462h7.498a2.922 2.922 0 002.913-2.914v-.82a2.92 2.92 0 00-2.913-2.913h-7.498a2.921 2.921 0 00-2.913 2.913v.82a2.923 2.923 0 002.913 2.914z"/><path fill="var(--color-primary-300)" d="M70.19 50.356c-.37-1.593.491-3.326 1.77-4.416 1.292-1.117 3.017-1.698 4.71-1.701 1.695-.003 3.421.579 4.713 1.696 1.282 1.089 2.145 2.826 1.77 4.42-1.235-1.013-2.324-1.422-3.38-1.72-1.056-.282-2.07-.384-3.103-.397-1.032.007-2.047.11-3.103.393-1.059.297-2.149.71-3.378 1.725M42.8 50.356c-.37-1.593.492-3.326 1.77-4.416 1.293-1.117 3.017-1.698 4.71-1.701 1.696-.003 3.422.579 4.714 1.696 1.282 1.089 2.144 2.826 1.769 4.42-1.234-1.013-2.323-1.422-3.381-1.72-1.055-.282-2.068-.384-3.101-.397-1.032.007-2.047.11-3.103.393-1.06.297-2.15.71-3.378 1.725"/><path fill="var(--color-primary-100)" d="M61.653 51.804l-2.603 8.265c-.65 1.383.36 2.975 1.89 2.975h5.204c1.53 0 2.54-1.592 1.89-2.975l-2.603-8.265c-.752-1.599-3.026-1.599-3.778 0M73.526 43.108c.222-.622.615-1.187 1.19-1.564a3.409 3.409 0 011.967-.56c.693.027 1.366.233 1.907.605.544.369.98.867 1.226 1.519-.71.045-1.259-.025-1.779-.047-.512-.046-.964-.052-1.4-.078a14.494 14.494 0 00-1.355.02c-.5.006-1.02.138-1.756.105M46.136 42.996c.222-.622.615-1.187 1.188-1.564a3.41 3.41 0 011.97-.559c.692.026 1.364.232 1.907.604.544.37.98.867 1.225 1.52-.71.045-1.259-.025-1.779-.048-.512-.045-.963-.052-1.4-.078a14.486 14.486 0 00-1.355.021c-.5.005-1.022.137-1.756.104"/><path fill="var(--color-primary-200)" d="M61.765 9.815c1.503 2.54 3.092 4.895 4.848 7.082 1.752 2.186 3.69 4.16 5.815 5.88 1.025.914 2.201 1.612 3.32 2.407 1.205.64 2.36 1.41 3.65 1.919.638.265 1.247.638 1.914.845l1.994.712c.66.302 1.36.417 2.054.625.695.195 1.398.398 2.11.64-.728.092-1.466.143-2.209.185-.743.036-1.498.094-2.237-.005l-2.238-.263c-.38-.026-.745-.123-1.107-.226l-1.096-.3c-1.49-.336-2.849-1.04-4.248-1.661-1.306-.781-2.646-1.544-3.799-2.551a24.938 24.938 0 01-5.868-6.885c-1.47-2.614-2.58-5.447-2.903-8.404"/></g></g></g></svg>