<svg id="add--order" xmlns="http://www.w3.org/2000/svg" viewBox="0 0 160 160"><g fill="none" fill-rule="evenodd"><path fill="none" d="M0 0h160v160H0z"/><path fill="none" d="M0 0h160v160H0z"/><path d="M0 0h160v160H0z"/><g><path fill="var(--color-primary-100)" d="M140.62 103.617c0 22.556-18.285 40.84-40.841 40.84-22.555 0-40.841-18.284-40.841-40.84 0-22.556 18.286-40.841 40.84-40.841 22.557 0 40.842 18.285 40.842 40.84"/><path fill="var(--color-neutral-50)" d="M128.455 86.729a6.713 6.713 0 01-2.953-9.022 6.713 6.713 0 112.953 9.022"/><path stroke="var(--color-primary-200)" stroke-width="3" d="M128.455 86.729a6.713 6.713 0 01-2.953-9.022 6.713 6.713 0 112.953 9.022z"/><path fill="var(--color-primary-100)" d="M87.87 125.95l-56.001 8.642c-6.722 1.037-13.011-3.571-14.048-10.292L5.618 45.212c-.836-5.414 2.876-10.481 8.29-11.316l60.734-9.372c5.415-.835 10.48 2.876 11.316 8.29l12.203 79.089c1.037 6.72-3.57 13.01-10.291 14.047"/><path stroke="var(--color-primary-400)" stroke-width="3" d="M87.87 125.95l-56.001 8.642c-6.722 1.037-13.011-3.571-14.048-10.292L5.618 45.212c-.836-5.414 2.876-10.481 8.29-11.316l60.734-9.372c5.415-.835 10.48 2.876 11.316 8.29l12.203 79.089c1.037 6.72-3.57 13.01-10.291 14.047z"/><path fill="var(--color-neutral-50)" d="M83.793 109.39l-53.425 8.244a3.839 3.839 0 01-4.38-3.208l-10.775-69.84a3.839 3.839 0 013.208-4.378l53.425-8.244a3.839 3.839 0 014.378 3.208L87 105.012a3.837 3.837 0 01-3.207 4.378"/><path stroke="var(--color-primary-200)" stroke-width="3" d="M83.793 109.39l-53.425 8.244a3.839 3.839 0 01-4.38-3.208l-10.775-69.84a3.839 3.839 0 013.208-4.378l53.425-8.244a3.839 3.839 0 014.378 3.208L87 105.012a3.837 3.837 0 01-3.207 4.378z"/><path stroke="var(--color-primary-200)" stroke-linecap="round" stroke-width="2" d="M42.448 62.016l.758 4.91-12.75 1.967-.918-5.95M32.79 54.494l8.3-1.28.346 2.237"/><path stroke="var(--color-primary-400)" stroke-linecap="round" stroke-width="3" d="M40.15 58.917l-2.972 3.911-9.633-7.057"/><path stroke="var(--color-primary-200)" stroke-linecap="round" stroke-width="3" d="M47.868 52.617l19.64-3.03M48.797 58.643l14.433-2.228M49.727 64.669l14.432-2.228"/><path stroke="var(--color-primary-200)" stroke-linecap="round" stroke-width="2" d="M47.168 92.601l.758 4.91-12.75 1.968-.92-5.95M37.51 85.08l8.3-1.28.345 2.236"/><path stroke="var(--color-primary-400)" stroke-linecap="round" stroke-width="3" d="M44.87 89.503l-2.972 3.911-9.633-7.057"/><path stroke="var(--color-primary-200)" stroke-linecap="round" stroke-width="3" d="M52.587 83.203l19.641-3.031M53.516 89.228l14.433-2.227M54.447 95.254l19.641-3.03"/><path stroke="var(--color-primary-400)" stroke-linecap="round" stroke-width="4" d="M110.983 134.66a23.17 23.17 0 01-3.247-8.953c-1.822-12.714 7.007-24.498 19.721-26.32 12.714-1.822 24.498 7.007 26.32 19.72 1.822 12.715-7.008 24.499-19.722 26.322a23.157 23.157 0 01-12.808-1.795M139.687 122.408h-17.862M130.757 113.476v17.862"/><path fill="var(--color-primary-200)" d="M50.41 21.038l-.535-3.475a2.435 2.435 0 00-2.778-2.035l-9.636 1.488a2.435 2.435 0 00-2.036 2.778l.536 3.473a.886.886 0 01-.741 1.012l-5.407.834a3.535 3.535 0 00-2.953 4.032l1.208 7.832a1.633 1.633 0 001.862 1.364l30.776-4.749a1.63 1.63 0 001.363-1.86l-1.21-7.833a3.533 3.533 0 00-4.03-2.954l-5.406.834a.887.887 0 01-1.012-.74"/><path stroke="var(--color-primary-400)" stroke-width="3" d="M50.41 21.038l-.535-3.475a2.435 2.435 0 00-2.778-2.035l-9.636 1.488a2.435 2.435 0 00-2.036 2.778l.536 3.473a.886.886 0 01-.741 1.012l-5.407.834a3.535 3.535 0 00-2.953 4.032l1.208 7.832a1.633 1.633 0 001.862 1.364l30.776-4.749a1.63 1.63 0 001.363-1.86l-1.21-7.833a3.533 3.533 0 00-4.03-2.954l-5.406.834a.887.887 0 01-1.012-.74z"/><path fill="var(--color-primary-600)" d="M37.078 30.506a2.344 2.344 0 11-4.634.714 2.344 2.344 0 014.634-.714M56.162 27.561a2.345 2.345 0 11-4.635.715 2.345 2.345 0 014.635-.715"/><path fill="var(--color-neutral-50)" d="M71.853 97.737l20.245-7.73a.736.736 0 00.305-1.156l-7.93-9.607a.734.734 0 00-1.19.08l-11.43 18.413z"/><path stroke="var(--color-primary-600)" stroke-linecap="round" stroke-width="4" d="M71.853 97.737l20.245-7.73a.736.736 0 00.305-1.156l-7.93-9.607a.734.734 0 00-1.19.08l-11.43 18.413zM135.504 54.817l-7.117 5.874-9.283-11.247 7.117-5.874"/><path fill="var(--color-primary-400)" d="M119.088 49.424l9.283 11.247-35.16 29.02a.212.212 0 01-.298-.029L83.9 78.742a.21.21 0 01.028-.298l35.16-29.02z"/><path stroke="var(--color-primary-600)" stroke-linecap="round" stroke-width="4" d="M119.088 49.424l9.283 11.247-35.16 29.02a.212.212 0 01-.298-.029L83.9 78.742a.21.21 0 01.028-.298l35.16-29.02z"/><path fill="var(--color-primary-600)" d="M69.024 100.048l13.89-5.303-7.016-5.772z"/><path fill="var(--color-primary-100)" d="M135.243 43.186l2.417 2.929a5.433 5.433 0 01-.731 7.648l-.981.81a.497.497 0 01-.7-.067l-8.701-10.544a.495.495 0 01.066-.698l.98-.809a5.433 5.433 0 017.65.731"/><path stroke="var(--color-primary-600)" stroke-linecap="round" stroke-width="4" d="M135.243 43.186l2.417 2.929a5.433 5.433 0 01-.731 7.648l-.981.81a.497.497 0 01-.7-.067l-8.701-10.544a.495.495 0 01.066-.698l.98-.809a5.433 5.433 0 017.65.731z"/><path fill="var(--color-neutral-50)" d="M123.74 57.914l2.528 3.09-32.66 26.718-2.526-3.088z"/></g></g></svg>