<svg id="empty--filtered--chats" xmlns="http://www.w3.org/2000/svg" viewBox="0 0 224 224"><g fill="none" fill-rule="evenodd"><path fill="var(--color-primary-100)" d="M186.481 104.236c-5.706 25.824-31.266 42.133-57.09 36.428-25.825-5.706-42.134-31.267-36.428-57.091 5.706-25.824 31.267-42.133 57.091-36.428 25.824 5.706 42.133 31.267 36.427 57.09" opacity=".5"/><path fill="var(--color-primary-100)" d="M37.753 93.907a5.729 5.729 0 01-5.729-5.73V44.38a5.73 5.73 0 015.73-5.73h69.618a5.73 5.73 0 015.73 5.73v43.796a5.73 5.73 0 01-5.73 5.73H37.753z"/><path stroke="var(--color-primary-400)" stroke-width="4" d="M37.753 93.907a5.729 5.729 0 01-5.729-5.73V44.38a5.73 5.73 0 015.73-5.73h69.618a5.73 5.73 0 015.73 5.73v43.796a5.73 5.73 0 01-5.73 5.73H37.753z"/><path stroke="var(--color-primary-300)" stroke-linecap="round" stroke-width="3" d="M42.229 50.627h44.12M93.206 50.627h8.771M42.229 68.488h25.515M74.442 68.488h27.535M90.814 59.929h-37.05M47.279 59.929h-5.05M47.279 76.673h-5.05M63.884 76.674h-9.608M101.879 59.929h-3.72"/><path stroke="var(--color-primary-200)" stroke-linecap="round" stroke-width="3" d="M51.896 115.348h-8.771M97.822 124.65h5.05"/><path fill="var(--color-neutral-50)" d="M66.556 173.795a8.89 8.89 0 118.036-15.86 8.89 8.89 0 01-8.036 15.86"/><path stroke="var(--color-primary-200)" stroke-width="3" d="M66.556 173.795a8.89 8.89 0 118.036-15.86 8.89 8.89 0 01-8.036 15.86z"/><path fill="var(--color-neutral-50)" d="M175.92 130.722a5.34 5.34 0 116.77-8.26 5.34 5.34 0 01-6.77 8.26"/><path stroke="var(--color-primary-200)" stroke-width="3" d="M175.92 130.722a5.34 5.34 0 116.77-8.26 5.34 5.34 0 01-6.77 8.26z"/><path fill="var(--color-primary-100)" d="M110.846 128.93V110.1a5.698 5.698 0 00-.835-2.968c-12.397.568-22.716 10.293-23.704 22.983a24.808 24.808 0 00.078 4.543h18.732a5.73 5.73 0 005.729-5.73"/><path stroke="var(--color-primary-200)" stroke-linecap="round" stroke-width="3" d="M111.046 184.116H99.357M105.201 178.272v11.688"/><path fill="var(--color-primary-100)" d="M186.271 63.232H138.87a5.73 5.73 0 00-5.73 5.729v18.27a5.73 5.73 0 005.73 5.73h31.495v7.115c0 1.906 2.304 2.86 3.653 1.512l8.626-8.627h3.628a5.728 5.728 0 005.73-5.73v-18.27a5.728 5.728 0 00-5.73-5.73"/><path stroke="var(--color-primary-400)" stroke-width="4" d="M186.271 63.232H138.87a5.73 5.73 0 00-5.73 5.729v18.27a5.73 5.73 0 005.73 5.73h31.495v7.115c0 1.906 2.304 2.86 3.653 1.512l8.626-8.627h3.628a5.728 5.728 0 005.73-5.73v-18.27a5.728 5.728 0 00-5.73-5.73z"/><path stroke="var(--color-primary-300)" stroke-linecap="round" stroke-width="3" d="M155.849 74.208h5.329M168.411 74.208h14.512M149.954 83.51h32.968"/><path fill="var(--color-neutral-50)" d="M158.495 53.326h-30.726a4.935 4.935 0 01-4.935-4.935V35.935A4.935 4.935 0 01127.769 31h30.726a4.935 4.935 0 014.935 4.934V48.39a4.935 4.935 0 01-4.935 4.935"/><path stroke="var(--color-primary-200)" stroke-width="4" d="M158.495 53.326h-30.726a4.935 4.935 0 01-4.935-4.935V35.935A4.935 4.935 0 01127.769 31h30.726a4.935 4.935 0 014.935 4.934V48.39a4.935 4.935 0 01-4.935 4.935z"/><path fill="var(--color-primary-200)" d="M136.853 42.163a1.954 1.954 0 11-3.909 0 1.954 1.954 0 013.909 0M145.225 42.163a1.954 1.954 0 11-3.909 0 1.954 1.954 0 013.909 0M153.317 42.163a1.954 1.954 0 11-3.907 0 1.954 1.954 0 013.907 0"/><path stroke="var(--color-primary-200)" stroke-width="4" d="M107.349 104.371h-69.62a5.73 5.73 0 00-5.73 5.73v18.828a5.73 5.73 0 005.73 5.73h9.899v7.113c0 1.907 2.304 2.862 3.653 1.513l8.626-8.626h47.442a5.73 5.73 0 005.729-5.73V110.1a5.73 5.73 0 00-5.73-5.729z"/><path stroke="var(--color-primary-200)" stroke-linecap="round" stroke-width="3" d="M102.873 115.348h-44.12M73.171 124.65h18.167"/><path fill="var(--color-primary-100)" d="M154.694 156.808l-5.651 4.84-4.841-5.652 5.652-4.839z"/><path stroke="var(--color-primary-600)" stroke-linecap="round" stroke-width="1.6" d="M154.694 156.808l-5.651 4.84-4.841-5.652 5.652-4.839z"/><path fill="var(--color-neutral-50)" d="M149.91 115.743c9.65 11.267 8.34 28.223-2.927 37.872-11.266 9.65-28.222 8.338-37.871-2.928-9.65-11.266-8.34-28.221 2.928-37.871 11.266-9.65 28.222-8.34 37.87 2.928"/><path stroke="var(--color-primary-600)" stroke-linecap="round" stroke-width="4" d="M149.91 115.743c9.65 11.267 8.34 28.223-2.927 37.872-11.266 9.65-28.222 8.338-37.871-2.928-9.65-11.266-8.34-28.221 2.928-37.871 11.266-9.65 28.222-8.34 37.87 2.928z"/><path fill="var(--color-neutral-50)" d="M143.776 120.997c6.748 7.88 5.831 19.735-2.047 26.482-7.878 6.748-19.735 5.831-26.483-2.046-6.747-7.879-5.83-19.736 2.048-26.483 7.878-6.748 19.735-5.83 26.482 2.047"/><path stroke="var(--color-primary-600)" stroke-linecap="round" stroke-width="2" d="M143.776 120.997c6.748 7.88 5.831 19.735-2.047 26.482-7.878 6.748-19.735 5.831-26.483-2.046-6.747-7.879-5.83-19.736 2.048-26.483 7.878-6.748 19.735-5.83 26.482 2.047z"/><path fill="var(--color-primary-400)" d="M179.709 191.825a7.707 7.707 0 01-10.87-.84l-19.69-22.99a4.475 4.475 0 01.489-6.311l4.91-4.206a4.475 4.475 0 016.31.489l19.69 22.989a7.707 7.707 0 01-.84 10.869"/><path stroke="var(--color-primary-600)" stroke-linecap="round" stroke-width="2.6" d="M179.709 191.825h0a7.707 7.707 0 01-10.87-.84l-19.69-22.99a4.475 4.475 0 01.489-6.311l4.91-4.206a4.475 4.475 0 016.31.489l19.69 22.989a7.707 7.707 0 01-.84 10.869z"/><path stroke="var(--color-primary-600)" stroke-linecap="round" stroke-width="1.6" d="M162.226 159.562l14.206 16.587a7.708 7.708 0 01-.84 10.869 7.708 7.708 0 01-10.87-.841l-14.205-16.586"/><g><path fill="none" d="M0 0h224v224H0z"/><path fill="none" d="M0 0h224v224H0z"/><path d="M0 0h224v224H0z"/></g></g></svg>