<svg id="empty--non--filtered--products" xmlns="http://www.w3.org/2000/svg" xlink="http://www.w3.org/1999/xlink" viewBox="0 0 224 224"><defs><path id="a" d="M.523.62h67.374V68H.523z"/></defs><g fill="none" fill-rule="evenodd"><path fill="var(--color-primary-100)" d="M200.68 80.272c0 26.447-21.44 47.886-47.888 47.886-26.447 0-47.886-21.439-47.886-47.886 0-26.447 21.44-47.887 47.886-47.887 26.448 0 47.887 21.44 47.887 47.887M119.749 154.743c0 23.042-18.68 41.722-41.721 41.722-23.042 0-41.721-18.68-41.721-41.722s18.679-41.721 41.72-41.721c23.043 0 41.722 18.679 41.722 41.72"/><path fill="var(--color-neutral-50)" d="M35.336 194.797l28.09-9.339a.09.09 0 00.06-.085V151.26a.088.088 0 00-.116-.085l-28.09 9.34a.088.088 0 00-.061.083v34.114a.09.09 0 00.117.085"/><path stroke="var(--color-primary-200)" stroke-width="3" d="M35.336 194.797l28.09-9.339a.09.09 0 00.06-.085V151.26a.088.088 0 00-.116-.085l-28.09 9.34a.088.088 0 00-.061.083v34.114a.09.09 0 00.117.085z"/><path fill="var(--color-neutral-50)" d="M35.1 194.792L9.557 185.46a.09.09 0 01-.059-.084v-34.11a.09.09 0 01.121-.085l25.54 9.333a.088.088 0 01.058.083v34.112a.089.089 0 01-.119.084"/><path stroke="var(--color-primary-200)" stroke-width="3" d="M35.1 194.792L9.557 185.46a.09.09 0 01-.059-.084v-34.11a.09.09 0 01.121-.085l25.54 9.333a.088.088 0 01.058.083v34.112a.089.089 0 01-.119.084z"/><path fill="var(--color-neutral-50)" d="M9.686 150.928l25.353-8.956a3.957 3.957 0 012.793.041l25.355 8.822c.062.025.06.114-.004.135l-27.965 9.358-25.532-9.265a.072.072 0 010-.135"/><path stroke="var(--color-primary-200)" stroke-width="3" d="M9.686 150.928l25.353-8.956a3.957 3.957 0 012.793.041l25.355 8.822c.062.025.06.114-.004.135l-27.965 9.358-25.532-9.265a.072.072 0 010-.135z"/><path stroke="var(--color-secondary-100)" stroke-linecap="round" stroke-width="3" d="M22.942 112.584a5.705 5.705 0 118.567 7.535"/><path stroke="var(--color-secondary-100)" stroke-width="3" d="M132.692 28.993a5.703 5.703 0 01-2.51-7.667 5.703 5.703 0 017.667-2.51 5.703 5.703 0 012.51 7.667 5.704 5.704 0 01-7.667 2.51z"/><path fill="var(--color-primary-100)" d="M107.058 176.385l62.66-20.83a.2.2 0 00.135-.19V79.27a.2.2 0 00-.262-.189l-62.659 20.831a.2.2 0 00-.136.19v76.095c0 .135.133.231.262.188"/><path stroke="var(--color-primary-400)" stroke-width="4" d="M107.058 176.385l62.66-20.83a.2.2 0 00.135-.19V79.27a.2.2 0 00-.262-.189l-62.659 20.831a.2.2 0 00-.136.19v76.095c0 .135.133.231.262.188z"/><path fill="var(--color-primary-100)" d="M106.53 176.374l-56.972-20.817a.201.201 0 01-.13-.188V79.28c0-.139.137-.235.267-.187l56.971 20.818a.197.197 0 01.131.186v76.091a.199.199 0 01-.267.187"/><path stroke="var(--color-primary-400)" stroke-width="4" d="M106.53 176.374l-56.972-20.817a.201.201 0 01-.13-.188V79.28c0-.139.137-.235.267-.187l56.971 20.818a.197.197 0 01.131.186v76.091a.199.199 0 01-.267.187z"/><path fill="var(--color-primary-200)" d="M49.843 78.532l56.553-19.98a8.825 8.825 0 016.23.093l56.558 19.679a.159.159 0 01-.008.299L106.796 99.5 49.843 78.832a.16.16 0 010-.3"/><path stroke="var(--color-primary-400)" stroke-width="4" d="M49.843 78.532l56.553-19.98a8.825 8.825 0 016.23.093l56.558 19.679a.159.159 0 01-.008.299L106.796 99.5 49.843 78.832a.16.16 0 010-.3z"/><path fill="var(--color-primary-200)" d="M92.108 64.066l-18.923 6.685c-.14.051-.14.25 0 .3l56.953 20.668 19.86-6.646-57.89-21.007z"/><path stroke="var(--color-primary-400)" stroke-width="3" d="M92.108 64.066l-18.923 6.685c-.14.051-.14.25 0 .3l56.953 20.668 19.86-6.646-57.89-21.007z"/><path fill="var(--color-primary-200)" d="M149.997 84.415v21.756c0 .643-.404 1.217-1.01 1.435l-17.382 6.244a1.524 1.524 0 01-2.04-1.435V91.061"/><path stroke="var(--color-primary-400)" stroke-width="3" d="M149.997 84.415v21.756c0 .643-.404 1.217-1.01 1.435l-17.382 6.244a1.524 1.524 0 01-2.04-1.435V91.061"/><path fill="var(--color-neutral-50)" d="M70.763 149.891l-10.74-3.925v-14.327l10.74 3.926z"/><path stroke="var(--color-primary-200)" stroke-width="3" d="M70.763 149.891l-10.74-3.925v-14.327l10.74 3.926z"/><path stroke="var(--color-primary-400)" stroke-width="4" d="M107.058 176.385l62.66-20.83a.2.2 0 00.135-.19V79.27a.2.2 0 00-.262-.189l-62.659 20.831a.2.2 0 00-.136.19v76.095c0 .135.133.231.262.188z"/><path fill="var(--color-primary-300)" d="M173.06 183.038l-8.816 8.815-15.983-48.03 48.032 15.981-8.798 8.798 18.766 13.3-19.924 19.922z"/><g transform="translate(143 138.464)"><mask id="b" fill="var(--color-neutral-50)"><use href="#a"/></mask><path fill="var(--color-primary-600)" d="M.523.62l3.784 11.371 12.557 37.737 3.067 9.218 6.868-6.869 2.866-2.865 9.168 12.973L42.943 68l5.032-5.034L62.87 48.072l5.028-5.027-5.802-4.11-12.966-9.188 2.851-2.85 6.87-6.87-9.218-3.066L11.894 4.403.524.62zM10 10.097l37.738 12.556-7.878 7.88L58.627 43.83 43.733 58.723 30.456 39.935l-7.899 7.9L10 10.096z" /></g><path fill="var(--color-neutral-50)" d="M194.228 189.79l-41.004-41.005 12.503 37.577 7.866-7.865 13.22 18.707zM214.337 71.725v31.873c0 1.097-.89 1.987-1.987 1.987h-29.08a1.987 1.987 0 01-1.988-1.987V63.665c0-1.098.89-1.987 1.988-1.987h23.076a.89.89 0 01.63.261l7.102 9.157a.89.89 0 01.259.627"/><path stroke="var(--color-primary-200)" stroke-width="4" d="M214.337 71.725v31.873c0 1.097-.89 1.987-1.987 1.987h-29.08a1.987 1.987 0 01-1.988-1.987V63.665c0-1.098.89-1.987 1.988-1.987h23.076a.89.89 0 01.63.261l7.102 9.157a.89.89 0 01.259.627z"/><path fill="var(--color-neutral-50)" d="M204.628 97.55H190.99a1.371 1.371 0 01-1.371-1.37V80.915a1.37 1.37 0 011.37-1.371h13.638a1.37 1.37 0 011.37 1.37V96.18a1.37 1.37 0 01-1.37 1.37"/><path stroke="var(--color-primary-200)" stroke-width="2" d="M204.628 97.55H190.99a1.371 1.371 0 01-1.371-1.37V80.915a1.37 1.37 0 011.37-1.371h13.638a1.37 1.37 0 011.37 1.37V96.18a1.37 1.37 0 01-1.37 1.37z"/><path fill="var(--color-neutral-50)" d="M189.62 85.646h15.588"/><path stroke="var(--color-primary-200)" stroke-width="2" d="M189.62 85.646h15.588"/><path fill="var(--color-neutral-50)" d="M189.62 91.831h15.588"/><path stroke="var(--color-primary-200)" stroke-width="2" d="M189.62 91.831h15.588"/><path fill="var(--color-neutral-50)" d="M197.414 80.234v5.412"/><path stroke="var(--color-primary-200)" stroke-width="2" d="M197.414 80.234v5.412"/><path fill="var(--color-neutral-50)" d="M197.414 92.464v5.412"/><path stroke="var(--color-primary-200)" stroke-width="2" d="M197.414 92.464v5.412"/><path stroke="var(--color-primary-200)" stroke-linecap="round" stroke-width="3" d="M185.748 40.9l.12 9.757-25.337.314-.146-11.825M169.04 23.612l16.492-.204.055 2.445"/><path stroke="var(--color-primary-400)" stroke-linecap="round" stroke-width="5" d="M185.388 31.986l-10.112 10.043-14.915-14.504"/><path fill="var(--color-notification-warning-main)" d="M31.326 54.123c-.118-.334.032-.649.356-.764l1.124-.397a12.565 12.565 0 01-.593-1.682l-1.124.398a.58.58 0 01-.758-.371c-.118-.334.032-.649.356-.764l1.287-.454c-.495-3.562 1.224-6.437 4.506-7.595 2.704-.956 5.133-.401 6.75 1.34.233.237.394.499.48.743.204.577-.066 1.105-.654 1.313-.516.182-.933.033-1.39-.421-1.222-1.3-2.858-1.576-4.458-1.011-2.016.712-3.088 2.515-2.914 4.811l5.145-1.817a.576.576 0 01.768.367.58.58 0 01-.367.767l-5.36 1.893c.068.284.155.561.258.855.1.284.21.564.337.827l5.358-1.893a.576.576 0 01.768.367.58.58 0 01-.366.767l-5.156 1.822c1.315 1.916 3.267 2.639 5.303 1.92 1.62-.573 2.809-1.63 2.93-3.416.069-.64.28-1.01.777-1.186.617-.218 1.135.021 1.339.598.078.223.14.497.123.8-.116 2.479-2 4.306-4.471 5.179-3.342 1.181-6.461.026-8.311-3.08l-1.286.455a.579.579 0 01-.757-.371M191.095 134.857a1.502 1.502 0 01-1.061-2.561l8.266-8.265a1.5 1.5 0 112.121 2.12l-8.265 8.267a1.495 1.495 0 01-1.06.439"/><path fill="var(--color-notification-warning-main)" d="M199.361 134.857c-.384 0-.768-.146-1.06-.44l-8.266-8.265a1.5 1.5 0 112.121-2.121l8.266 8.265a1.502 1.502 0 01-1.06 2.56"/><g><path fill="none" d="M0 0h224v224H0z"/><path fill="none" d="M0 0h224v224H0z"/><path d="M0 0h224v224H0z"/></g></g></svg>