<svg id="empty--non--filtered--contacts" xmlns="http://www.w3.org/2000/svg" viewBox="0 0 224 224"><g fill="none" fill-rule="evenodd"><path fill="none" d="M0 0h224v224H0z"/><path fill="none" d="M0 0h224v224H0z"/><path d="M0 0h224v224H0z"/><g><path fill="var(--color-primary-100)" d="M179.94 128.065l-12.762 4.298 4.3 12.762 4.783-6.888 7.977 2.59z"/><path stroke="var(--color-primary-300)" stroke-width="3" d="M179.94 128.065l-12.762 4.298 4.3 12.762 4.783-6.888 7.977 2.59z"/><path fill="var(--color-primary-100)" d="M159.952 143.455c0-22.556-18.285-40.841-40.84-40.841-22.556 0-40.841 18.285-40.841 40.84 0 22.557 18.285 40.842 40.84 40.842 22.556 0 40.84-18.285 40.84-40.841"/><path fill="var(--color-neutral-50)" d="M49.084 193.459a7.283 7.283 0 10-6.586-12.993 7.283 7.283 0 006.586 12.993"/><path stroke="var(--color-primary-200)" stroke-width="3" d="M49.084 193.459a7.283 7.283 0 10-6.586-12.993 7.283 7.283 0 006.586 12.993z"/><path fill="var(--color-neutral-50)" d="M27.405 54.264a5.339 5.339 0 116.767-8.26 5.339 5.339 0 01-6.767 8.26"/><path stroke="var(--color-primary-200)" stroke-width="3" d="M27.405 54.264a5.339 5.339 0 116.767-8.26 5.339 5.339 0 01-6.767 8.26z"/><path fill="var(--color-primary-100)" d="M56.245 166.338l60.086-18.954a7.72 7.72 0 005.04-9.684L96.168 57.81a7.718 7.718 0 00-9.684-5.04L26.4 71.727a7.717 7.717 0 00-5.04 9.682l25.203 79.89a7.718 7.718 0 009.684 5.04"/><path stroke="var(--color-primary-400)" stroke-width="4" d="M56.245 166.338l60.086-18.954a7.72 7.72 0 005.04-9.684L96.168 57.81a7.718 7.718 0 00-9.684-5.04L26.4 71.727a7.717 7.717 0 00-5.04 9.682l25.203 79.89a7.718 7.718 0 009.684 5.04z"/><path fill="var(--color-primary-100)" d="M32.092 132.35l20.315-6.408a8.227 8.227 0 005.37-10.32l-.858-2.723a8.226 8.226 0 00-10.32-5.37l-20.316 6.41 5.809 18.411z"/><path stroke="var(--color-primary-400)" stroke-linejoin="round" stroke-width="4" d="M32.092 132.35l20.315-6.408a8.227 8.227 0 005.37-10.32l-.858-2.723a8.226 8.226 0 00-10.32-5.37l-20.316 6.41 5.809 18.411z"/><path fill="var(--color-primary-400)" d="M44.626 115.404a3.005 3.005 0 104.57 3.899 3.005 3.005 0 00-4.57-3.899"/><path stroke="var(--color-primary-200)" stroke-linecap="round" stroke-width="3" d="M198.465 121.473l-60.085 18.954a7.72 7.72 0 01-9.684-5.039l-25.202-79.89a7.717 7.717 0 015.038-9.683l60.086-18.955a7.717 7.717 0 019.683 5.04l25.203 79.89a7.72 7.72 0 01-5.04 9.683z"/><path fill="var(--color-neutral-50)" d="M191.062 123.808l-60.085 18.955a7.72 7.72 0 01-9.684-5.039L96.09 57.834a7.72 7.72 0 015.039-9.684l60.086-18.955a7.718 7.718 0 019.683 5.04l25.203 79.89a7.72 7.72 0 01-5.039 9.683"/><path stroke="var(--color-primary-400)" stroke-width="4" d="M191.062 123.808l-60.085 18.955a7.72 7.72 0 01-9.684-5.039L96.09 57.834a7.72 7.72 0 015.039-9.684l60.086-18.955a7.718 7.718 0 019.683 5.04l25.203 79.89a7.72 7.72 0 01-5.039 9.683z"/><path fill="var(--color-primary-100)" d="M110.14 70.017a5.681 5.681 0 10-3.419-10.836 5.681 5.681 0 003.42 10.836M111.478 74.257a5.681 5.681 0 103.419 10.836 5.681 5.681 0 00-3.419-10.836M116.136 89.024a5.68 5.68 0 103.42 10.835 5.68 5.68 0 00-3.42-10.835M120.892 104.1a5.68 5.68 0 103.418 10.834 5.68 5.68 0 00-3.418-10.835M125.939 120.097a5.68 5.68 0 00-3.708 7.127 5.68 5.68 0 1010.834-3.418 5.68 5.68 0 00-7.126-3.708"/><path stroke="var(--color-primary-400)" stroke-linecap="round" stroke-width="5" d="M89.552 70.349l18.767-5.921M94.308 85.424l18.767-5.92M98.967 100.191l18.767-5.92M103.722 115.266l18.767-5.92M108.769 131.265l18.767-5.92"/><path stroke="var(--color-primary-100)" stroke-linecap="round" stroke-width="3.5" d="M122.471 59.965l33.534-10.579M127.227 75.039l33.534-10.578M131.885 89.806l33.534-10.578M136.641 104.882l33.534-10.579M141.688 120.88l33.534-10.579"/><path stroke="var(--color-primary-200)" stroke-linecap="round" stroke-width="3" d="M184.324 171.133h-11.689M178.479 165.288v11.689"/><path fill="var(--color-neutral-50)" d="M163.14 195.562l-18.716-10.923a.735.735 0 00-1.091.486l-2.512 12.202a.736.736 0 00.81.878l21.509-2.643z"/><path stroke="var(--color-primary-600)" stroke-linecap="round" stroke-width="4" d="M163.14 195.562l-18.716-10.923a.735.735 0 00-1.091.486l-2.512 12.202a.736.736 0 00.81.878l21.509-2.643zM89.795 172.891l9.038 1.861-2.94 14.284-9.038-1.86"/><path fill="var(--color-primary-400)" d="M95.887 189.061l2.941-14.284 44.652 9.192a.212.212 0 01.165.25l-2.855 13.87a.21.21 0 01-.25.164l-44.653-9.192z"/><path stroke="var(--color-primary-600)" stroke-linecap="round" stroke-width="4" d="M95.887 189.061l2.941-14.284 44.652 9.192a.212.212 0 01.165.25l-2.855 13.87a.21.21 0 01-.25.164l-44.653-9.192z"/><path fill="var(--color-primary-600)" d="M166.715 196.316l-12.84-7.493-.098 9.084z"/><path fill="var(--color-primary-100)" d="M80.898 180.388l.766-3.72a5.433 5.433 0 016.417-4.225l1.245.256a.494.494 0 01.386.585l-2.756 13.392a.496.496 0 01-.586.386l-1.246-.256a5.435 5.435 0 01-4.226-6.418"/><path stroke="var(--color-primary-600)" stroke-linecap="round" stroke-width="4" d="M80.898 180.388l.766-3.72a5.433 5.433 0 016.417-4.225l1.245.256a.494.494 0 01.386.585l-2.756 13.392a.496.496 0 01-.586.386l-1.246-.256a5.435 5.435 0 01-4.226-6.418z"/><path fill="var(--color-neutral-50)" d="M99.583 180.112l.822-3.905 41.291 8.686-.82 3.907z"/></g></g></svg>