<svg id="empty--non--filtered--basket" xmlns="http://www.w3.org/2000/svg" xlink="http://www.w3.org/1999/xlink" viewBox="0 0 224 224"><defs><path id="a" d="M0 .496h144.66V61H0z"/></defs><g fill="none" fill-rule="evenodd"><path stroke="var(--color-primary-200)" stroke-width="3" d="M175.53 72.31a4.87 4.87 0 11-9.739 0 4.87 4.87 0 019.739 0z"/><path stroke="var(--color-secondary-100)" stroke-linecap="round" stroke-width="3" d="M64.928 42.005a5.705 5.705 0 01-8.067 8.068"/><g transform="translate(31 149.108)"><mask id="b" fill="var(--color-neutral-50)"><use href="#a"/></mask><path fill="var(--color-primary-200)" d="M144.66 30.748C144.66 47.456 112.276 61 72.33 61 32.383 61 0 47.456 0 30.748S32.383.496 72.33.496c39.946 0 72.33 13.544 72.33 30.252" /></g><path fill="var(--color-primary-100)" d="M102.635 188.064l-45.919-16.779a.161.161 0 01-.105-.15v-61.33a.16.16 0 01.214-.15l45.919 16.778a.16.16 0 01.106.151v61.33a.16.16 0 01-.215.15"/><path stroke="var(--color-primary-400)" stroke-width="3" d="M102.635 188.064l-45.919-16.779a.161.161 0 01-.105-.15v-61.33a.16.16 0 01.214-.15l45.919 16.778a.16.16 0 01.106.151v61.33a.16.16 0 01-.215.15z"/><path fill="var(--color-primary-200)" d="M56.945 109.202L102.526 93.1a7.129 7.129 0 015.023.074l45.584 15.861a.129.129 0 01-.006.242l-48.04 16.077-2.237.75-45.905-16.659a.129.129 0 010-.242"/><path stroke="var(--color-primary-400)" stroke-width="3" d="M56.945 109.202L102.526 93.1a7.129 7.129 0 015.023.074l45.584 15.861a.129.129 0 01-.006.242l-48.04 16.077-2.237.75-45.905-16.659a.129.129 0 010-.242z"/><path fill="var(--color-neutral-50)" d="M103.06 188.073l50.504-16.79a.161.161 0 00.11-.152v-61.333a.16.16 0 00-.211-.153l-50.504 16.79a.16.16 0 00-.11.153v61.333a.16.16 0 00.212.152"/><path stroke="var(--color-primary-400)" stroke-width="3" d="M103.06 188.073l50.504-16.79a.161.161 0 00.11-.152v-61.333a.16.16 0 00-.211-.153l-50.504 16.79a.16.16 0 00-.11.153v61.333a.16.16 0 00.212.152z"/><path fill="var(--color-primary-100)" d="M152.953 109.011l-49.623 17.21 13.161 13.824c0-.064 44.545-14.919 50.055-16.756l-13.593-14.278z"/><path fill="var(--color-primary-400)" d="M106.024 126.875l10.888 11.437c.295-.103.633-.218 1.024-.35 1.23-.416 2.992-1.01 5.125-1.725 4.263-1.43 10.003-3.351 15.916-5.327 9.788-3.27 20.048-6.693 24.855-8.296l-11.3-11.87-46.508 16.13zm10.468 14.67c-.403 0-.798-.161-1.086-.465l-13.161-13.824a1.498 1.498 0 01.594-2.451l49.623-17.21a1.502 1.502 0 011.578.383l13.592 14.278a1.502 1.502 0 01-.611 2.457c-16.708 5.57-48.484 16.178-49.94 16.713l-.033.012c-.18.073-.37.108-.556.108z"/><path fill="var(--color-primary-100)" d="M56.61 109.413l-.342 13.76H42.867z"/><path stroke="var(--color-primary-400)" stroke-linecap="round" stroke-linejoin="round" stroke-width="3" d="M56.61 109.413l-.342 13.76H42.867l13.744-13.76"/><path stroke="var(--color-primary-300)" stroke-linecap="round" stroke-width="2" d="M148.284 59.783l-2.051 1.429"/><path stroke="var(--color-primary-300)" stroke-dasharray="5.016,7.023" stroke-linecap="round" stroke-width="2" d="M140.192 64.752a17.934 17.934 0 01-15.041-1.114l-5.27-2.932a17.923 17.923 0 00-10.632-2.162"/><path stroke="var(--color-primary-300)" stroke-linecap="round" stroke-width="2" d="M105.81 59.258a18.056 18.056 0 00-4.51 2.134"/><path stroke="var(--color-primary-300)" stroke-dasharray="5.06,7.084" stroke-linecap="round" stroke-width="2" d="M96.293 66.343a17.923 17.923 0 00-2.927 12.295l1.988 15.632a30.737 30.737 0 01-2.258 16.023"/><path stroke="var(--color-primary-300)" stroke-linecap="round" stroke-width="2" d="M91.512 113.456c-.414.72-.857 1.426-1.332 2.114"/><path fill="var(--color-primary-200)" d="M195.557 65.752a2.435 2.435 0 11-4.87 0 2.435 2.435 0 014.87 0"/><path fill="var(--color-neutral-50)" d="M193.122 17.515L175.58 52.716a.147.147 0 01-.197.067l-20.616-10.218a.347.347 0 00-.49.304l-.365 12.601c-.016.546-.763.691-.98.19l-7.423-17.008-16.017-4.455c-.145-.04-.143-.247.003-.285l63.628-16.397z"/><path stroke="var(--color-primary-300)" stroke-linecap="round" stroke-width="2" d="M193.122 17.515L175.58 52.716a.147.147 0 01-.197.067l-20.616-10.218a.347.347 0 00-.49.304l-.365 12.601c-.016.546-.763.691-.98.19l-7.423-17.008-16.017-4.455c-.145-.04-.143-.247.003-.285l63.628-16.397z"/><path fill="var(--color-primary-200)" d="M153.85 56.093l.916-13.653 38.356-25.05-47.614 21.137z"/><path stroke="var(--color-primary-600)" stroke-linecap="round" stroke-width="2" d="M153.851 56.218l8.546-8.422M193.122 17.515l-47.614 21.137M193.122 17.515L175.58 52.716a.147.147 0 01-.197.067l-20.616-10.218a.347.347 0 00-.49.304l-.365 12.601c-.016.546-.763.691-.98.19l-7.423-17.008-16.017-4.455c-.145-.04-.143-.247.003-.285l63.628-16.397z"/><path stroke="var(--color-primary-200)" stroke-linecap="round" stroke-width="3" d="M42.906 71.746v4.434M42.906 83.048v4.434M34.995 79.522h4.435M46.302 79.522h4.435"/><g><path fill="none" d="M0 0h224v224H0z"/><path fill="none" d="M0 0h224v224H0z"/><path d="M0 0h224v224H0z"/></g></g></svg>