<svg id="empty--non--filtered--chats" xmlns="http://www.w3.org/2000/svg" xlink="http://www.w3.org/1999/xlink" viewBox="0 0 224 224"><defs><path id="a" d="M.594.573H67.02V67H.594z"/><path id="c" d="M.594.573H67.02V67H.594z"/><path id="e" d="M.594.573H67.02V67H.594z"/></defs><g fill="none" fill-rule="evenodd"><path fill="none" d="M0 0h224v224H0z"/><path fill="none" d="M0 0h224v224H0z"/><path d="M0 0h224v224H0z"/><g><path fill="var(--color-primary-100)" d="M155.377 116.294c0 24.726-20.044 44.77-44.77 44.77-24.726 0-44.77-20.044-44.77-44.77 0-24.726 20.044-44.77 44.77-44.77 24.726 0 44.77 20.044 44.77 44.77"/><path fill="var(--color-primary-100)" d="M108.636 84.255a5.73 5.73 0 01-5.729-5.728V34.73a5.73 5.73 0 015.73-5.73h69.618a5.73 5.73 0 015.73 5.73v43.797a5.73 5.73 0 01-5.73 5.728h-69.619z"/><path stroke="var(--color-primary-400)" stroke-width="4" d="M108.636 84.255a5.73 5.73 0 01-5.729-5.728V34.73a5.73 5.73 0 015.73-5.73h69.618a5.73 5.73 0 015.73 5.73v43.797a5.73 5.73 0 01-5.73 5.728h-69.619z"/><path stroke="var(--color-primary-300)" stroke-linecap="round" stroke-width="3" d="M113.112 40.976h44.12M164.09 40.976h8.771M113.112 58.837h25.515M145.325 58.837h27.535M161.697 50.279h-37.05M118.163 50.279h-5.05M118.163 67.023h-5.05M134.767 67.023h-9.608M172.763 50.278h-3.72"/><path fill="var(--color-primary-100)" d="M179.89 185.995l-9.345-3.677c-.963-.731-2.202-2.657-2.202-4.815v-4.55h-16.867v4.55c0 2.158-1.24 4.084-3.1 4.815l-9.345 3.677a6.244 6.244 0 00-1.066.557c-.033.007-.064.024-.097.033 5.354 6.088 13.195 9.935 21.94 9.935 8.685 0 16.48-3.794 21.83-9.81a8.49 8.49 0 00-1.747-.715"/><path stroke="var(--color-primary-300)" stroke-linejoin="round" stroke-width="2" d="M179.89 185.995l-9.345-3.677c-.963-.731-2.202-2.657-2.202-4.815v-4.55h-16.867v4.55c0 2.158-1.24 4.084-3.1 4.815l-9.345 3.677a6.244 6.244 0 00-1.066.557c-.033.007-.064.024-.097.033 5.354 6.088 13.195 9.935 21.94 9.935 8.685 0 16.48-3.794 21.83-9.81a8.49 8.49 0 00-1.747-.715z"/><path fill="var(--color-primary-100)" d="M91.532 73.888c0 16.134-13.079 29.213-29.213 29.213S33.105 90.022 33.105 73.888s13.08-29.214 29.214-29.214 29.213 13.08 29.213 29.214"/><path fill="var(--color-primary-200)" d="M81.803 70.283c1.588 11.134-7.219 20.158-19.084 20.159-11.866 0-20.673-9.026-19.085-20.16C45.301 59.15 54.107 50.125 62.72 50.125s17.42 9.025 19.084 20.159"/><path stroke="var(--color-primary-300)" stroke-width="2" d="M81.803 70.283c1.588 11.134-7.219 20.158-19.084 20.159-11.866 0-20.673-9.026-19.085-20.16C45.301 59.15 54.107 50.125 62.72 50.125s17.42 9.025 19.084 20.159z"/><path fill="var(--color-primary-100)" d="M83.434 95.605l-10.659-1.994a2.198 2.198 0 01-1.794-2.16v-7.823H54.268v7.844c0 1.05-.74 1.951-1.768 2.155l-10.787 2.257 2.372 4.046 11.442 4.744 12.977-.139 12-5.442 2.93-3.488z"/><path stroke="var(--color-primary-300)" stroke-width="2" d="M83.434 95.605l-10.659-1.994a2.198 2.198 0 01-1.794-2.16v-7.823H54.268v7.844c0 1.05-.74 1.951-1.768 2.155l-10.787 2.257 2.372 4.046 11.442 4.744 12.977-.139 12-5.442 2.93-3.488z"/><path fill="var(--color-neutral-50)" d="M74.936 67.306c-3.244-.039-6.91-1.333-10.064-3.832a18.447 18.447 0 01-2.323-2.203 18.37 18.37 0 01-2.322 2.203c-3.115 2.468-6.727 3.76-9.94 3.828L48.79 73.74c-.85 3.66.418 7.49 3.287 9.917l6.835 5.786a5.724 5.724 0 007.397 0l6.834-5.786a10.021 10.021 0 003.287-9.917l-1.495-6.434z"/><path stroke="var(--color-primary-300)" stroke-linecap="round" stroke-width="2" d="M47.605 67.018c.894.218 1.854.314 2.853.293 3.212-.069 6.825-1.37 9.94-3.837a18.376 18.376 0 002.322-2.203 18.298 18.298 0 002.322 2.203c3.154 2.498 6.82 3.802 10.064 3.841.954.012 1.871-.086 2.727-.294"/><path fill="var(--color-primary-100)" d="M61.754 74.521l-1.331 4.225a1.068 1.068 0 00.966 1.521h2.66c.783 0 1.299-.813.966-1.52l-1.33-4.226c-.384-.817-1.547-.817-1.931 0"/><path stroke="var(--color-primary-300)" stroke-linecap="round" stroke-width="2" d="M72.69 94.512c-2.966 3.077-6.56 4.883-10.436 4.883-3.808 0-7.346-1.74-10.28-4.72"/><path fill="var(--color-primary-300)" d="M168.026 173.75v3.27c0 2.034 1.275 3.849 2.265 4.538l.058.02a14.42 14.42 0 0010.055-5.575 8.861 8.861 0 01-7.733-7.823 12.284 12.284 0 01-2.626 3.11l-2.906 2.46h.887zM151.708 173.75v3.27c0 2.034-1.275 3.849-2.265 4.538l-.058.02a14.42 14.42 0 01-10.055-5.575 8.861 8.861 0 007.733-7.823 12.284 12.284 0 002.626 3.11l2.906 2.46h-.887z"/><path fill="var(--color-neutral-50)" d="M164.77 176.452l5.322-4.505a12.401 12.401 0 004.067-12.272l-1.758-7.566a11.376 11.376 0 00-4.63-6.794l-.7-.482a12.647 12.647 0 00-14.338 0l-.7.482a11.376 11.376 0 00-4.63 6.794l-1.757 7.566a12.4 12.4 0 004.066 12.272l5.322 4.505a7.534 7.534 0 009.737 0"/><path stroke="var(--color-primary-300)" stroke-linejoin="round" stroke-width="2" d="M164.77 176.452l5.322-4.505a12.401 12.401 0 004.067-12.272l-1.758-7.566a11.376 11.376 0 00-4.63-6.794l-.7-.482a12.647 12.647 0 00-14.338 0l-.7.482a11.376 11.376 0 00-4.63 6.794l-1.757 7.566a12.4 12.4 0 004.066 12.272l5.322 4.505a7.534 7.534 0 009.737 0z"/><path fill="var(--color-primary-200)" d="M157.557 148.406a13.881 13.881 0 0012.206 8.623c.927 2.355 2.33 4.225 4.69 5.138-.052-.562.338-1.124.208-1.683l-1.727-7.432a13.343 13.343 0 00-5.434-7.974 13.356 13.356 0 00-16.808 1.357c-1.927 1.835-3.212 4.243-3.815 6.835l-.914 3.935c.002 0 .002.002.003.003 5.592.164 10.322-3.64 11.591-8.802"/><path stroke="var(--color-primary-300)" stroke-linejoin="round" stroke-width="2" d="M157.557 148.406a13.881 13.881 0 0012.206 8.623c.927 2.355 2.33 4.225 4.69 5.138-.052-.562.338-1.124.208-1.683l-1.727-7.432a13.343 13.343 0 00-5.434-7.974 13.356 13.356 0 00-16.808 1.357c-1.927 1.835-3.212 4.243-3.815 6.835l-.914 3.935c.002 0 .002.002.003.003 5.592.164 10.322-3.64 11.591-8.802z"/><path fill="var(--color-primary-100)" d="M174.823 162.75c-.229 2.239.581 4.155 1.807 4.28 1.227.125 2.406-1.59 2.634-3.828.228-2.238-.582-4.155-1.808-4.28s-2.405 1.589-2.633 3.828"/><path stroke="var(--color-primary-300)" stroke-linejoin="round" stroke-width="2" d="M174.823 162.75c-.229 2.239.581 4.155 1.807 4.28 1.227.125 2.406-1.59 2.634-3.828.228-2.238-.582-4.155-1.808-4.28s-2.405 1.589-2.633 3.828z"/><path fill="var(--color-primary-100)" d="M172.453 169.256l.913.095a3.335 3.335 0 003.654-2.98l.624-6.132a3.333 3.333 0 00-2.978-3.654l-.913-.093-1.3 12.764z"/><path stroke="var(--color-primary-300)" stroke-linejoin="round" stroke-width="2" d="M172.453 169.256l.913.095a3.335 3.335 0 003.654-2.98l.624-6.132a3.333 3.333 0 00-2.978-3.654l-.913-.093-1.3 12.764z"/><path fill="var(--color-primary-100)" d="M145.084 162.75c.228 2.239-.581 4.155-1.808 4.28-1.226.125-2.405-1.59-2.633-3.828-.228-2.238.58-4.155 1.808-4.28 1.226-.125 2.405 1.589 2.633 3.828"/><path stroke="var(--color-primary-300)" stroke-linejoin="round" stroke-width="2" d="M145.084 162.75c.228 2.239-.581 4.155-1.808 4.28-1.226.125-2.405-1.59-2.633-3.828-.228-2.238.58-4.155 1.808-4.28 1.226-.125 2.405 1.589 2.633 3.828z"/><path fill="var(--color-primary-100)" d="M147.454 169.256l-.913.095a3.334 3.334 0 01-3.654-2.98l-.625-6.132a3.334 3.334 0 012.979-3.654l.913-.093 1.3 12.764z"/><path stroke="var(--color-primary-300)" stroke-linejoin="round" stroke-width="2" d="M147.454 169.256l-.913.095a3.334 3.334 0 01-3.654-2.98l-.625-6.132a3.334 3.334 0 012.979-3.654l.913-.093 1.3 12.764z"/><path fill="var(--color-neutral-50)" d="M178.232 94.72h-69.619a5.73 5.73 0 00-5.73 5.73v18.83a5.73 5.73 0 005.73 5.728h9.898v7.114c0 1.906 2.305 2.861 3.653 1.513l8.627-8.627h47.441a5.728 5.728 0 005.73-5.729v-18.83a5.728 5.728 0 00-5.73-5.729"/><path stroke="var(--color-primary-200)" stroke-width="4" d="M178.232 94.72h-69.619a5.73 5.73 0 00-5.73 5.73v18.83a5.73 5.73 0 005.73 5.728h9.898v7.114c0 1.906 2.305 2.861 3.653 1.513l8.627-8.627h47.441a5.728 5.728 0 005.73-5.729v-18.83a5.728 5.728 0 00-5.73-5.729z"/><path stroke="var(--color-primary-200)" stroke-linecap="round" stroke-width="3" d="M173.756 105.697h-44.12M122.779 105.697h-8.771M144.055 115h18.166M168.706 115h5.05"/><path fill="var(--color-primary-100)" d="M36.73 114.441h47.402a5.73 5.73 0 015.73 5.73v18.27a5.73 5.73 0 01-5.73 5.73H52.637v7.114c0 1.906-2.304 2.861-3.653 1.512l-8.626-8.626H36.73a5.729 5.729 0 01-5.73-5.73v-18.27a5.729 5.729 0 015.73-5.73"/><path stroke="var(--color-primary-400)" stroke-width="4" d="M36.73 114.441h47.402a5.73 5.73 0 015.73 5.73v18.27a5.73 5.73 0 01-5.73 5.73H52.637v7.114c0 1.906-2.304 2.861-3.653 1.512l-8.626-8.626H36.73a5.729 5.729 0 01-5.73-5.73v-18.27a5.729 5.729 0 015.73-5.73z"/><path stroke="var(--color-primary-300)" stroke-linecap="round" stroke-width="3" d="M67.152 125.419h-5.329M54.59 125.419H40.078M73.047 134.719H40.079"/><path fill="var(--color-primary-200)" d="M62.319 40.674c-18.314 0-33.213 14.9-33.213 33.214 0 18.313 14.899 33.213 33.213 33.213s33.213-14.9 33.213-33.213c0-18.315-14.899-33.214-33.213-33.214m0 4c16.134 0 29.213 13.08 29.213 29.214s-13.079 29.213-29.213 29.213-29.213-13.079-29.213-29.213c0-16.135 13.079-29.214 29.213-29.214"/><g transform="translate(126 133.52)"><mask id="b" fill="var(--color-neutral-50)"><use href="#a"/></mask><path fill="var(--color-primary-400)" d="M33.807.573C15.493.573.594 15.473.594 33.786.594 52.1 15.494 67 33.807 67 52.121 67 67.02 52.1 67.02 33.786S52.121.573 33.807.573m0 4c16.134 0 29.213 13.08 29.213 29.213C63.02 49.921 49.941 63 33.807 63S4.594 49.921 4.594 33.786c0-16.134 13.08-29.213 29.213-29.213" /></g><g transform="translate(126 133.52)"><mask id="d" fill="var(--color-neutral-50)"><use href="#c"/></mask><path fill="var(--color-primary-400)" d="M33.807.573C15.493.573.594 15.473.594 33.786.594 52.1 15.494 67 33.807 67 52.121 67 67.02 52.1 67.02 33.786S52.121.573 33.807.573m0 4c16.134 0 29.213 13.08 29.213 29.213C63.02 49.921 49.941 63 33.807 63S4.594 49.921 4.594 33.786c0-16.134 13.08-29.213 29.213-29.213" /></g><g transform="translate(126 133.52)"><mask id="f" fill="var(--color-neutral-50)"><use href="#e"/></mask><path fill="var(--color-primary-400)" d="M33.807.573C15.493.573.594 15.473.594 33.786.594 52.1 15.494 67 33.807 67 52.121 67 67.02 52.1 67.02 33.786S52.121.573 33.807.573m0 4c16.134 0 29.213 13.08 29.213 29.213C63.02 49.921 49.941 63 33.807 63S4.594 49.921 4.594 33.786c0-16.134 13.08-29.213 29.213-29.213" /></g><path fill="var(--color-primary-100)" d="M158.739 162.797l-1.277 4.056c-.32.68.176 1.462.927 1.462h2.555c.751 0 1.247-.782.927-1.462l-1.277-4.056a1.025 1.025 0 00-1.855 0"/><path fill="var(--color-neutral-50)" d="M85.309 189.605H54.583a4.936 4.936 0 01-4.935-4.935v-12.457a4.935 4.935 0 014.935-4.934h30.726a4.935 4.935 0 014.935 4.934v12.457a4.936 4.936 0 01-4.935 4.935"/><path stroke="var(--color-primary-200)" stroke-width="4" d="M85.309 189.605H54.583a4.936 4.936 0 01-4.935-4.935v-12.457a4.935 4.935 0 014.935-4.934h30.726a4.935 4.935 0 014.935 4.934v12.457a4.936 4.936 0 01-4.935 4.935z"/><path fill="var(--color-primary-200)" d="M63.667 178.442a1.953 1.953 0 11-3.907 0 1.953 1.953 0 013.907 0M72.039 178.442a1.953 1.953 0 11-3.907 0 1.953 1.953 0 013.907 0M80.132 178.442a1.953 1.953 0 11-3.907 0 1.953 1.953 0 013.907 0M171.785 183.11l-1.693 5.604a2.41 2.41 0 01-3.267 1.512l-6.783-2.946-7.173 2.996a2.409 2.409 0 01-3.235-1.526l-1.744-5.768.029-.04-8.703 3.423a6.307 6.307 0 00-1.065.557c-.033.008-.064.024-.097.033 5.35 6.086 13.189 9.93 21.93 9.93 8.68 0 16.473-3.792 21.822-9.804a8.405 8.405 0 00-1.747-.716l-8.274-3.254z"/><path fill="var(--color-neutral-50)" d="M166.837 190.044l-6.785-2.948-7.177 2.998a2.41 2.41 0 01-3.237-1.527l-1.744-5.77 2.501-3.491 6.52 4.83a4.835 4.835 0 005.714.03l6.71-4.86 2.5 3.49-1.734 5.734a2.41 2.41 0 01-3.268 1.514"/><path stroke="var(--color-primary-300)" d="M166.837 190.044l-6.785-2.948-7.177 2.998a2.41 2.41 0 01-3.237-1.527l-1.744-5.77 2.501-3.491 6.52 4.83a4.835 4.835 0 005.714.03l6.71-4.86 2.5 3.49-1.734 5.734a2.41 2.41 0 01-3.268 1.514z"/></g></g></svg>