<svg id="empty--filtered--favourites" xmlns="http://www.w3.org/2000/svg" viewBox="0 0 224 224"><g fill="none" fill-rule="evenodd"><path fill="var(--color-primary-100)" fill-opacity=".5" d="M195.2 122.175c-5.705 25.825-31.265 42.135-57.09 36.428-25.824-5.706-42.133-31.266-36.427-57.09 5.706-25.824 31.266-42.134 57.09-36.428 25.824 5.707 42.134 31.267 36.428 57.09"/><path fill="var(--color-neutral-50)" d="M62.066 174.061a8.89 8.89 0 118.039-15.86 8.89 8.89 0 01-8.04 15.86"/><path stroke="var(--color-primary-200)" stroke-width="3" d="M62.066 174.061a8.89 8.89 0 118.039-15.86 8.89 8.89 0 01-8.04 15.86z"/><path fill="var(--color-neutral-50)" d="M148.056 99.328a5.34 5.34 0 116.77-8.26 5.34 5.34 0 01-6.77 8.26"/><path stroke="var(--color-primary-200)" stroke-width="3" d="M148.056 99.328a5.34 5.34 0 116.77-8.26 5.34 5.34 0 01-6.77 8.26z"/><path stroke="var(--color-primary-200)" stroke-linecap="round" stroke-width="3" d="M119.878 137.89l-66.332 4.515a7.719 7.719 0 01-8.225-7.177l-5.988-87.97a7.718 7.718 0 017.177-8.225l66.33-4.516a7.719 7.719 0 018.226 7.177l5.989 87.97a7.719 7.719 0 01-7.177 8.225z"/><path fill="var(--color-primary-100)" d="M111.79 138.44l-66.333 4.516a7.72 7.72 0 01-8.225-7.177l-5.988-87.97a7.718 7.718 0 017.177-8.225l66.331-4.516a7.718 7.718 0 018.225 7.177l5.99 87.97a7.719 7.719 0 01-7.178 8.225"/><path stroke="var(--color-primary-400)" stroke-width="4" d="M111.79 138.44l-66.333 4.516a7.72 7.72 0 01-8.225-7.177l-5.988-87.97a7.718 7.718 0 017.177-8.225l66.331-4.516a7.718 7.718 0 018.225 7.177l5.99 87.97a7.719 7.719 0 01-7.178 8.225z"/><path fill="var(--color-primary-200)" d="M42.533 63.97a5.932 5.932 0 005.516-6.32 5.932 5.932 0 10-11.838.805 5.932 5.932 0 006.322 5.516M42.849 68.603a5.933 5.933 0 10.806 11.838 5.933 5.933 0 00-.806-11.838M43.947 84.738a5.932 5.932 0 10.806 11.838 5.933 5.933 0 10-.806-11.838M45.068 101.209a5.933 5.933 0 10.806 11.838 5.933 5.933 0 00-.806-11.838M46.258 118.687a5.933 5.933 0 10.806 11.838 5.933 5.933 0 00-.806-11.838"/><path stroke="var(--color-primary-400)" stroke-linecap="round" stroke-width="5" d="M27.5 58.842l14.559-.991M28.621 75.312l14.559-.991M29.72 91.447l14.559-.991M30.841 107.918l14.558-.991M32.03 125.396l14.56-.99"/><path fill="var(--color-primary-100)" d="M129.526 95.95l-21.264 1.274a8.226 8.226 0 01-8.703-7.72l-.17-2.85a8.226 8.226 0 017.72-8.703l21.264-1.272 1.153 19.272z"/><path stroke="var(--color-primary-400)" stroke-linejoin="round" stroke-width="4" d="M129.526 95.95l-21.264 1.274a8.226 8.226 0 01-8.703-7.72l-.17-2.85a8.226 8.226 0 017.72-8.703l21.264-1.272 1.153 19.272z"/><path fill="var(--color-primary-400)" d="M111.764 84.601a3.005 3.005 0 11-2.876 5.277 3.005 3.005 0 012.876-5.277"/><path fill="var(--color-primary-200)" d="M118.563 131.949c.11-.512.157-1.045.12-1.593l-1.457-21.553a24.925 24.925 0 00-6.366-1.361c-13.738-1.068-25.742 9.202-26.81 22.941a24.894 24.894 0 00.677 8.002l28.112-1.902a7.719 7.719 0 005.724-4.534"/><path fill="var(--color-primary-100)" d="M150.203 157.074l-5.65 4.84-4.84-5.652 5.65-4.839z"/><path stroke="var(--color-primary-600)" stroke-linecap="round" stroke-width="1.6" d="M150.203 157.074l-5.65 4.84-4.84-5.652 5.65-4.839z"/><path fill="var(--color-neutral-50)" d="M145.421 116.01c9.65 11.266 8.338 28.221-2.928 37.87-11.266 9.65-28.222 8.34-37.87-2.928-9.65-11.266-8.34-28.22 2.927-37.87 11.266-9.65 28.222-8.34 37.871 2.927"/><path stroke="var(--color-primary-600)" stroke-linecap="round" stroke-width="4" d="M145.421 116.01c9.65 11.266 8.338 28.221-2.928 37.87-11.266 9.65-28.222 8.34-37.87-2.928-9.65-11.266-8.34-28.22 2.927-37.87 11.266-9.65 28.222-8.34 37.871 2.927z"/><path fill="var(--color-neutral-50)" d="M139.286 121.263c6.748 7.88 5.831 19.735-2.047 26.482-7.879 6.748-19.735 5.831-26.483-2.046-6.747-7.879-5.83-19.736 2.048-26.483 7.878-6.748 19.734-5.83 26.482 2.047"/><path stroke="var(--color-primary-600)" stroke-linecap="round" stroke-width="2" d="M139.286 121.263c6.748 7.88 5.831 19.735-2.047 26.482-7.879 6.748-19.735 5.831-26.483-2.046-6.747-7.879-5.83-19.736 2.048-26.483 7.878-6.748 19.734-5.83 26.482 2.047z"/><path fill="var(--color-primary-400)" d="M175.219 192.09a7.707 7.707 0 01-10.869-.84l-19.691-22.99a4.476 4.476 0 01.489-6.31l4.91-4.206a4.475 4.475 0 016.311.489l19.69 22.989a7.708 7.708 0 01-.84 10.869"/><path stroke="var(--color-primary-600)" stroke-linecap="round" stroke-width="2.6" d="M175.219 192.09h0a7.707 7.707 0 01-10.869-.84l-19.691-22.99a4.476 4.476 0 01.489-6.31l4.91-4.206a4.475 4.475 0 016.311.489l19.69 22.989a7.708 7.708 0 01-.84 10.869z"/><path stroke="var(--color-primary-600)" stroke-linecap="round" stroke-width="1.6" d="M157.737 159.828l14.206 16.587a7.708 7.708 0 01-.842 10.869 7.707 7.707 0 01-10.869-.841l-14.204-16.586"/><path stroke="var(--color-primary-200)" stroke-linecap="round" stroke-width="3" d="M106.556 184.382H94.868M100.712 178.538v11.688"/><path fill="var(--color-primary-300)" d="M81.785 75.783l1.62 6.679-6.285-2.776-5.85 3.605.699-6.836-5.237-4.448 6.717-1.451 2.613-6.353 3.454 5.939 6.852.522-4.583 5.119zm8.643-6.754a2.045 2.045 0 00-1.754-1.283l-7.306-.558-3.683-6.332a2.044 2.044 0 00-1.92-1.02h-.001a2.047 2.047 0 00-1.766 1.27l-2.786 6.777-7.163 1.546a2.048 2.048 0 00-1.563 1.512c-.193.767.062 1.56.665 2.07l5.582 4.747-.743 7.289c-.08.786.287 1.535.957 1.954a2.043 2.043 0 002.173.007l6.238-3.843 6.7 2.957a2.053 2.053 0 002.155-.3c.607-.507.868-1.3.682-2.067l-1.728-7.121 4.887-5.462a2.051 2.051 0 00.374-2.143z"/><g><path fill="none" d="M0 0h224v224H0z"/><path fill="none" d="M0 0h224v224H0z"/><path d="M0 0h224v224H0z"/></g></g></svg>