<svg id="empty--filtered--results" xmlns="http://www.w3.org/2000/svg" viewBox="0 0 224 224"><g fill="none" fill-rule="evenodd"><path fill="var(--color-primary-100)" d="M157.76 97.835c0 26.447-21.438 47.886-47.886 47.886-26.447 0-47.886-21.439-47.886-47.886 0-26.447 21.439-47.887 47.886-47.887 26.448 0 47.887 21.44 47.887 47.887"/><path fill="var(--color-neutral-50)" d="M48.57 57.82L36.294 72.026l-3.805-3.289c-5.303-4.583-13.316-3.999-17.9 1.303-4.582 5.302-3.998 13.317 1.303 17.9l3.805 3.287 32.606 28.183L68.9 100.208l12.278-14.205L48.57 57.82z"/><path stroke="var(--color-primary-200)" stroke-width="2" d="M48.57 57.82L36.294 72.026l-3.805-3.289c-5.303-4.583-13.316-3.999-17.9 1.303-4.582 5.302-3.998 13.317 1.303 17.9l3.805 3.287 32.606 28.183L68.9 100.208l12.278-14.205L48.57 57.82z"/><path stroke="var(--color-primary-200)" stroke-width="2" d="M14.589 70.04L32.23 49.63c5.044-5.836 13.864-6.478 19.7-1.434l2.838 2.453-11.9 13.768"/><path fill="var(--color-primary-200)" d="M39.324 135.771l2.423-10.63a5.358 5.358 0 014.54-4.123l82.66-10.618a5.357 5.357 0 015.298 2.594l5.611 9.523a15.56 15.56 0 012.027 5.913c.768 5.987-3.46 11.463-9.448 12.233l-81.088 10.415c-5.986.77-11.462-3.46-12.23-9.448l-.056-.422a15.533 15.533 0 01.263-5.437"/><path stroke="var(--color-primary-400)" stroke-width="4" d="M39.324 135.771l2.423-10.63a5.358 5.358 0 014.54-4.123l82.66-10.618a5.357 5.357 0 015.298 2.594l5.611 9.523a15.56 15.56 0 012.027 5.913c.768 5.987-3.46 11.463-9.448 12.233l-81.088 10.415c-5.986.77-11.462-3.46-12.23-9.448l-.056-.422a15.533 15.533 0 01.263-5.437z"/><path fill="var(--color-neutral-50)" d="M114.44 154.137l-39.562.017c-5.334.002-9.661-4.321-9.663-9.656l-.023-56.36c-.002-5.336 4.32-9.663 9.656-9.665l39.562-.016a9.66 9.66 0 019.663 9.657l.022 56.36c.002 5.336-4.32 9.662-9.655 9.663"/><path stroke="var(--color-primary-400)" stroke-width="3" d="M114.44 154.137l-39.562.017c-5.334.002-9.661-4.321-9.663-9.656l-.023-56.36c-.002-5.336 4.32-9.663 9.656-9.665l39.562-.016a9.66 9.66 0 019.663 9.657l.022 56.36c.002 5.336-4.32 9.662-9.655 9.663z"/><path fill="var(--color-primary-100)" d="M118.88 138.59L99.821 80.103l-28.176.01c-5.335.003-9.658 4.33-9.656 9.665l.023 56.36c.002 4.564 3.172 8.378 7.427 9.387l48.935-15.945a.786.786 0 00.504-.99"/><path stroke="var(--color-primary-200)" stroke-linecap="round" stroke-width="3" d="M76.155 90.258l16.204-.007M76.161 103.147l37.443-.015M76.164 111.986l16.204-.007M99.734 111.976l13.874-.005M76.168 120.824l37.443-.015M76.171 129.663l37.443-.015M97.782 138.493l15.836-.007"/><path fill="var(--color-neutral-50)" d="M111.625 137.94l-55.07 17.942a.785.785 0 01-.992-.503L32.361 84.17a.787.787 0 01.504-.99l55.072-17.943a.786.786 0 01.99.503l23.201 71.21a.785.785 0 01-.503.99"/><path stroke="var(--color-primary-400)" stroke-width="3" d="M111.625 137.94l-55.07 17.942a.785.785 0 01-.992-.503L32.361 84.17a.787.787 0 01.504-.99l55.072-17.943a.786.786 0 01.99.503l23.201 71.21a.785.785 0 01-.503.99z"/><path stroke="var(--color-primary-200)" stroke-linecap="round" stroke-width="3" d="M46.339 91.313l15.566-5.072M50.373 103.695l35.971-11.72M53.14 112.186l15.566-5.072M75.782 104.808l13.328-4.342M55.906 120.677l35.971-11.72M58.673 129.168l35.971-11.72M82.197 130.895l15.213-4.957"/><path fill="var(--color-primary-100)" d="M108.463 130.047c-1.52.195-2.74 1.314-3.124 2.799-1.604 6.209-6.83 11.124-13.58 11.99-6.749.867-13.05-2.566-16.17-8.17-.747-1.338-2.209-2.112-3.73-1.917l-32.58 4.185a.506.506 0 00-.434.59L49 197.599a7.014 7.014 0 007.802 5.748l83.568-10.735a7.012 7.012 0 006.096-7.533l-4.854-58.756a.506.506 0 00-.569-.461l-32.579 4.185z"/><path stroke="var(--color-primary-400)" stroke-width="4" d="M108.463 130.047c-1.52.195-2.74 1.314-3.124 2.799-1.604 6.209-6.83 11.124-13.58 11.99-6.749.867-13.05-2.566-16.17-8.17-.747-1.338-2.209-2.112-3.73-1.917l-32.58 4.185a.506.506 0 00-.434.59L49 197.599a7.014 7.014 0 007.802 5.748l83.568-10.735a7.012 7.012 0 006.096-7.533l-4.854-58.756a.506.506 0 00-.569-.461l-32.579 4.185z"/><path stroke="var(--color-primary-200)" stroke-linecap="round" stroke-width="3" d="M144.01 61.213c0 8.876-7.195 16.072-16.071 16.072"/><path stroke="var(--color-secondary-100)" stroke-width="3" d="M196.359 57.916a5.705 5.705 0 11-11.411 0 5.705 5.705 0 0111.41 0zM20.238 121.842a4.87 4.87 0 11-9.738 0 4.87 4.87 0 019.738 0z"/><path fill="var(--color-primary-200)" d="M159.533 157.491c1.927 13.645-7.572 26.268-21.217 28.194-13.644 1.928-26.267-7.571-28.194-21.215-1.927-13.645 7.572-26.268 21.217-28.195 13.644-1.927 26.267 7.572 28.194 21.216"/><path fill="var(--color-primary-100)" d="M180.286 174.391l-4.475 5.945-5.945-4.473 4.475-5.946z"/><path stroke="var(--color-primary-600)" stroke-linecap="round" stroke-width="1.6" d="M180.286 174.391l-4.475 5.945-5.945-4.473 4.475-5.946z"/><path fill="var(--color-neutral-50)" d="M166.757 135.326c11.853 8.919 14.23 25.759 5.312 37.611-8.92 11.853-25.759 14.231-37.612 5.312-11.852-8.919-14.23-25.758-5.311-37.611 8.919-11.853 25.757-14.231 37.611-5.312"/><path stroke="var(--color-primary-600)" stroke-linecap="round" stroke-width="4" d="M166.757 135.326c11.853 8.919 14.23 25.759 5.312 37.611-8.92 11.853-25.759 14.231-37.612 5.312-11.852-8.919-14.23-25.758-5.311-37.611 8.919-11.853 25.757-14.231 37.611-5.312z"/><path fill="var(--color-neutral-50)" d="M161.9 141.78c8.289 6.237 9.952 18.012 3.715 26.301-6.237 8.288-18.013 9.951-26.301 3.714-8.288-6.237-9.951-18.012-3.714-26.3 6.237-8.289 18.012-9.952 26.3-3.715"/><path stroke="var(--color-primary-600)" stroke-linecap="round" stroke-width="2" d="M161.9 141.78c8.289 6.237 9.952 18.012 3.715 26.301-6.237 8.288-18.013 9.951-26.301 3.714-8.288-6.237-9.951-18.012-3.714-26.3 6.237-8.289 18.012-9.952 26.3-3.715z"/><path fill="var(--color-primary-400)" d="M212.267 203.187a7.709 7.709 0 01-10.794 1.524l-24.186-18.2a4.475 4.475 0 01-.886-6.268l3.887-5.166a4.477 4.477 0 016.268-.885l24.187 18.2a7.708 7.708 0 011.524 10.795"/><path stroke="var(--color-primary-600)" stroke-linecap="round" stroke-width="2.6" d="M212.267 203.187h0a7.709 7.709 0 01-10.794 1.524l-24.186-18.2a4.475 4.475 0 01-.886-6.268l3.887-5.166a4.477 4.477 0 016.268-.885l24.187 18.2a7.708 7.708 0 011.524 10.795z"/><path stroke="var(--color-primary-600)" stroke-linecap="round" stroke-width="1.6" d="M188.236 175.456l17.449 13.13a7.707 7.707 0 011.524 10.795h0a7.709 7.709 0 01-10.793 1.525l-17.45-13.131"/><path fill="var(--color-primary-100)" d="M144.317 53.219l.915-13.653 38.357-25.05-47.614 21.137z"/><path fill="var(--color-neutral-50)" d="M157.793 115.199l24.639-2.904"/><path stroke="var(--color-primary-200)" stroke-width="3" d="M157.793 115.199l24.639-2.904"/><path fill="var(--color-neutral-50)" d="M157.469 114.828l-11.591-13.254 34.572-30.235 22.18 25.36-17.801 14.282a5.546 5.546 0 01-3.631 1.229 5.577 5.577 0 01-4.893-3.148l-3.73-7.035-14.415 12.844a.487.487 0 01-.691-.043"/><path stroke="var(--color-primary-200)" stroke-width="3" d="M157.469 114.828l-11.591-13.254 34.572-30.235 22.18 25.36-17.801 14.282a5.546 5.546 0 01-3.631 1.229 5.577 5.577 0 01-4.893-3.148l-3.73-7.035-14.415 12.844a.487.487 0 01-.691-.043z"/><path stroke="var(--color-primary-200)" stroke-linecap="round" stroke-width="3" d="M144.317 53.219l8.546-8.422"/><path stroke="var(--color-primary-200)" stroke-linecap="round" stroke-width="2" d="M183.588 14.515l-47.613 21.137M183.588 14.515l-17.542 35.201a.147.147 0 01-.197.067l-20.617-10.218a.346.346 0 00-.49.304l-.364 12.601c-.017.546-.764.691-.982.19l-7.421-17.008-16.018-4.455c-.145-.04-.143-.247.003-.285l63.628-16.397z"/><path fill="var(--color-notification-warning-main)" d="M69.759 48.203a1.502 1.502 0 01-1.061-2.561l8.266-8.265a1.5 1.5 0 112.121 2.12l-8.265 8.267a1.495 1.495 0 01-1.061.439"/><path fill="var(--color-notification-warning-main)" d="M78.025 48.203c-.384 0-.768-.146-1.061-.44l-8.265-8.265a1.5 1.5 0 112.12-2.121l8.267 8.265a1.502 1.502 0 01-1.061 2.56"/><g><path fill="none" d="M0 0h224v224H0z"/><path fill="none" d="M0 0h224v224H0z"/><path d="M0 0h224v224H0z"/></g></g></svg>