<svg id="error--login" xmlns="http://www.w3.org/2000/svg" xlink="http://www.w3.org/1999/xlink" viewBox="0 0 224 224"><defs><path id="a" d="M0 .74h88.478v89.363H0z"/><path id="c" d="M-.003.591h11.267v11.265H-.002z"/><path id="e" d="M.766.272h85.306V31H.766z"/></defs><g fill="none" fill-rule="evenodd"><g transform="translate(24 92.409)"><mask id="b" fill="var(--color-neutral-50)"><use href="#a"/></mask><path fill="var(--color-primary-100)" d="M29.33 68.59l-5.022-2.512-3.07-7.814h9.21l5.301-54.418L44.164.74C21.698 2.47 2.901 19.93.301 43.15c-2.196 19.607 7.78 37.767 23.9 46.952l50.96-7.721a9.43 9.43 0 015.627.883 48.033 48.033 0 007.69-9.373L29.331 68.59z" /></g><path fill="var(--color-primary-300)" d="M135.423 131.67l-24.887-2.263c-3.848-.35-5.874-4.734-3.647-7.891l14.404-20.421c2.227-3.156 7.036-2.72 8.657.788l10.483 22.684c1.62 3.507-1.163 7.454-5.01 7.104m8.646-8.804l-10.483-22.684c-1.493-3.23-4.633-5.237-8.196-5.237-2.966 0-5.65 1.393-7.361 3.822l-14.404 20.42c-1.88 2.665-2.185 6.022-.817 8.982 1.368 2.96 4.123 4.903 7.37 5.198l24.887 2.264a8.967 8.967 0 008.418-4.127 8.975 8.975 0 00.586-8.638"/><path fill="var(--color-primary-300)" d="M123.769 126.449a2.116 2.116 0 01-1.488-.785 2.1 2.1 0 01-.505-1.592 2.09 2.09 0 01.784-1.48 2.132 2.132 0 011.605-.497c.583.053 1.07.309 1.461.768.556.651.661 1.458.315 2.418a.357.357 0 01-.048.088c-.609.792-1.317 1.153-2.124 1.08M122.49 118.567l.578-11.712a.81.81 0 01.883-.767l3.285.3a.811.811 0 01.73.914l-1.564 11.622a.812.812 0 01-.877.7l-2.3-.21a.81.81 0 01-.736-.847"/><path fill="var(--color-primary-200)" d="M164.497 44.266c-2.688 4.24-8.325 5.504-12.564 2.816-4.24-2.688-5.503-8.325-2.815-12.565s8.324-5.503 12.564-2.815c4.24 2.687 5.503 8.324 2.815 12.564zM194.3 55.998l-1.893 2.986-2.914-1.847 1.892-2.986-2.173-1.377-1.892 2.985-19.17-12.15c1.952-5.243.048-11.329-4.862-14.442-5.637-3.573-13.13-1.894-16.704 3.744-3.574 5.637-1.895 13.131 3.743 16.705 5.233 3.317 12.063 2.101 15.874-2.6l26.28 16.657 1.892-2.985.207-.326 1.893-2.987-2.173-1.377z"/><g transform="translate(82 19.409)"><mask id="d" fill="var(--color-neutral-50)"><use href="#c"/></mask><path fill="var(--color-primary-200)" d="M.437 11.417c.293.293.677.439 1.061.439.383 0 .767-.146 1.06-.439L5.63 8.345l3.073 3.072c.293.293.676.439 1.06.439s.768-.146 1.061-.439a1.5 1.5 0 000-2.121L7.751 6.224l3.073-3.073A1.5 1.5 0 108.703 1.03L5.63 4.103 2.558 1.03A1.5 1.5 0 10.437 3.151l3.072 3.073L.437 9.296a1.5 1.5 0 000 2.121" /></g><path fill="var(--color-primary-200)" d="M34.122 171.62a2.434 2.434 0 10-1.613-4.593 2.434 2.434 0 001.613 4.594M172.493 192.255a5.118 5.118 0 01-2.996 2.569 5.125 5.125 0 01-3.934-.3 5.125 5.125 0 01-2.57-2.997 5.125 5.125 0 01.301-3.934 5.12 5.12 0 012.996-2.568 5.135 5.135 0 013.934.299 5.126 5.126 0 012.57 2.996 5.119 5.119 0 01-.3 3.935m-1.028-9.381a7.86 7.86 0 00-6.03-.461 7.851 7.851 0 00-4.59 3.939 7.846 7.846 0 00-.463 6.03 7.85 7.85 0 003.94 4.592 7.872 7.872 0 003.563.857 7.94 7.94 0 002.466-.396 7.85 7.85 0 004.591-3.94 7.851 7.851 0 00.462-6.03 7.853 7.853 0 00-3.939-4.591"/><g transform="translate(25 173.409)"><mask id="f" fill="var(--color-neutral-50)"><use href="#e"/></mask><path fill="var(--color-primary-200)" d="M76.853 19.156l-64.325 9.746a8.438 8.438 0 01-6.308-1.559 8.437 8.437 0 01-3.356-5.562c-.701-4.628 2.492-8.963 7.12-9.665L74.311 2.37a8.429 8.429 0 016.307 1.559 8.437 8.437 0 013.357 5.562c.7 4.628-2.494 8.963-7.121 9.665m4.95-16.837A10.408 10.408 0 0074.01.393L9.684 10.14C3.968 11.006.02 16.362.886 22.08a10.42 10.42 0 004.149 6.873 10.402 10.402 0 007.793 1.926l64.325-9.746c5.718-.867 9.665-6.223 8.8-11.94a10.42 10.42 0 00-4.15-6.874" /></g><path fill="var(--color-primary-200)" d="M37.163 191.522a2.652 2.652 0 10.796 5.244 2.652 2.652 0 00-.796-5.244M45.326 190.286a2.651 2.651 0 10.794 5.243 2.651 2.651 0 00-.794-5.243M53.488 189.05a2.651 2.651 0 10.795 5.242 2.651 2.651 0 00-.795-5.242M61.651 187.812a2.653 2.653 0 00.794 5.243 2.651 2.651 0 00-.794-5.243M69.813 186.576a2.652 2.652 0 10.796 5.243 2.652 2.652 0 00-.796-5.243M77.977 185.339a2.652 2.652 0 10.795 5.243 2.652 2.652 0 00-.796-5.243M86.14 184.102a2.65 2.65 0 10.793 5.242 2.65 2.65 0 002.224-3.018 2.65 2.65 0 00-3.018-2.224M53.65 75.958l1.908 10.668a2.857 2.857 0 105.625-1.006l-1.908-10.668a6.348 6.348 0 00-4.93-11.328 6.351 6.351 0 00-5.133 7.37 6.345 6.345 0 004.438 4.964M143.637 131.505a8.964 8.964 0 01-8.417 4.127l-24.888-2.264c-3.247-.295-6.002-2.238-7.369-5.198-1.368-2.96-1.063-6.317.817-8.981l14.403-20.421c1.713-2.43 4.396-3.822 7.361-3.822 3.563 0 6.703 2.007 8.196 5.237l10.483 22.684a8.975 8.975 0 01-.586 8.638m40.773-49.168L81.417 72.969l1.774 14.635-4.465 6.419-9.832 1.425-4.383 48.194a1.57 1.57 0 001.422 1.706l111.821 10.172a1.571 1.571 0 001.706-1.423l6.372-70.053a1.57 1.57 0 00-1.422-1.707"/><path fill="var(--color-primary-400)" d="M191.78 169.22a7.412 7.412 0 01-5.463 1.7L54.732 158.953a7.424 7.424 0 01-5.067-2.66 7.424 7.424 0 01-1.615-3.447l57.782 5.256a6.21 6.21 0 001.273 2.546 6.211 6.211 0 004.236 2.222l18.589 1.692a6.204 6.204 0 004.567-1.423 6.21 6.21 0 001.712-2.273l57.782 5.254a7.424 7.424 0 01-2.21 3.1zm-57.75-8.554a4.281 4.281 0 01-.813.936 4.248 4.248 0 01-3.105.968l-18.59-1.692a4.213 4.213 0 01-2.88-1.512 4.206 4.206 0 01-.63-1.067l26.018 2.367zm55.28 1.012l7.357-80.881c.322-3.53-2.261-6.66-5.758-6.98L80.3 63.757l.492 4.062 109.754 9.982c1.299.118 2.258 1.3 2.137 2.632l-7.357 80.882-127.888-11.631 4.846-53.278-4.07.59-4.76 52.325-9.295-.845-.181 1.99a11.4 11.4 0 002.613 8.387 11.404 11.404 0 007.777 4.083l131.586 11.97c.355.031.708.046 1.06.046 2.677 0 5.245-.924 7.326-2.66a11.4 11.4 0 004.083-7.776l.18-1.992-9.294-.846zM53.617 65.13c.483-.146.972-.22 1.456-.22a4.86 4.86 0 014.759 3.989 4.823 4.823 0 01-1.496 4.434 2.684 2.684 0 00-.804 2.468l1.807 9.96c.065.358-.014.719-.22 1.016a1.348 1.348 0 01-.873.563 1.35 1.35 0 01-1.015-.221 1.342 1.342 0 01-.562-.873l-1.807-9.961a2.69 2.69 0 00-1.628-2.03c-1.813-.737-2.974-2.422-3.03-4.395-.06-2.121 1.376-4.11 3.413-4.73m-1.682 11.833l1.782 9.818a4.325 4.325 0 001.805 2.804 4.322 4.322 0 003.259.706 4.329 4.329 0 002.804-1.805 4.332 4.332 0 00.706-3.26l-1.781-9.82a7.807 7.807 0 002.274-7.043 7.857 7.857 0 00-3.637-5.301 7.888 7.888 0 00-6.404-.801 7.827 7.827 0 00-5.538 7.683 7.889 7.889 0 004.73 7.019"/><path fill="var(--color-primary-600)" d="M79.115 89.983a7.19 7.19 0 01-4.788 2.784l-32.63 4.4a7.18 7.18 0 01-5.354-1.417 7.192 7.192 0 01-2.784-4.789l-3.105-23.03c-.533-3.956 2.251-7.606 6.205-8.139l32.63-4.399c.326-.044.651-.065.972-.065 3.564 0 6.677 2.641 7.167 6.27l3.104 23.031a7.189 7.189 0 01-1.417 5.354M48.473 29.12c5.81-.783 11.172 3.305 11.955 9.114l1.895 14.061-21.069 2.84-1.896-14.06c-.783-5.81 3.306-11.173 9.115-11.955m36.023 54.974l-3.105-23.03a11.163 11.163 0 00-4.322-7.435 11.169 11.169 0 00-8.314-2.2l-.979.131-1.895-14.06c-1.188-8.817-9.327-15.022-18.143-13.833-8.816 1.187-15.02 9.327-13.833 18.142l1.897 14.078c-5.965.982-10.125 6.546-9.312 12.577l3.105 23.031a11.161 11.161 0 004.323 7.435 11.147 11.147 0 008.313 2.2l32.63-4.398a11.167 11.167 0 007.435-4.323 11.168 11.168 0 002.2-8.315"/><g><path fill="none" d="M0 0h224v224H0z"/><path fill="none" d="M0 0h224v224H0z"/><path d="M0 0h224v224H0z"/></g></g></svg>