<svg id="error--connection" xmlns="http://www.w3.org/2000/svg" xlink="http://www.w3.org/1999/xlink" viewBox="0 0 224 224"><defs><path id="a" d="M0 174.636h213.234V0H0z"/></defs><g fill="none" fill-rule="evenodd"><path fill="var(--color-primary-100)" d="M112.463 42.934C78.1 35.34 44.088 57.043 36.495 91.407c-2.356 10.66-1.886 21.286.901 31.1h14.406v8.653h4.744v7.976l13.47-21.39 13.042 20.11.558 12.838 20.372-20.093 17.302 11.722-15.348 17.022 3.112 8.684c24.947-4.111 46.094-22.931 51.882-49.127 7.592-34.364-14.11-68.376-48.473-75.968"/><path stroke="var(--color-primary-200)" stroke-linecap="round" stroke-linejoin="round" stroke-width="3" d="M83.478 140.183v15.278"/><g transform="translate(5 25)"><path fill="var(--color-neutral-50)" d="M71.81 41.866h-1.223c-.762-3.21-3.64-5.6-7.084-5.6-3.443 0-6.32 2.39-7.083 5.6h-1.223a4.48 4.48 0 000 8.96h7.98c.11.005.216.017.326.017.111 0 .218-.012.327-.017h7.98a4.48 4.48 0 100-8.96"/><path stroke="var(--color-primary-200)" stroke-linecap="round" stroke-linejoin="round" stroke-width="2.5" d="M71.81 41.866h-1.223c-.762-3.21-3.64-5.6-7.084-5.6-3.443 0-6.32 2.39-7.083 5.6h-1.223a4.48 4.48 0 000 8.96h7.98c.11.005.216.017.326.017.111 0 .218-.012.327-.017h7.98a4.48 4.48 0 100-8.96z"/><path stroke="var(--color-primary-200)" stroke-linecap="round" stroke-linejoin="round" stroke-width="3" d="M181.593 147.438h10.56M181.593 154.577h10.56M151.183 164.764a4.734 4.734 0 001.086-4.146c-.377-1.809-1.853-3.262-3.667-3.618a4.85 4.85 0 00-1.929.007c-.674.142-1.358-.291-1.544-.953a8.355 8.355 0 00-16.079-.001c-.187.663-.87 1.096-1.545.954a4.837 4.837 0 00-1.93-.006c-1.813.356-3.29 1.81-3.666 3.618a4.735 4.735 0 001.087 4.145"/><mask id="b" fill="var(--color-neutral-50)"><use href="#a"/></mask><path stroke="var(--color-primary-200)" stroke-linecap="round" stroke-linejoin="round" stroke-width="3" d="M169.314 164.484h24.558v-26.232h-24.558zM147.546 155.74v-32.836H161.5v40.65" /><path stroke="var(--color-primary-200)" stroke-linecap="round" stroke-linejoin="round" stroke-width="3" d="M189.407 138.113v-10.465h-36.28v1.675M52.804 146.067h19.349" /><path fill="var(--color-primary-100)" d="M111.78 164.671H66.71l12-34.047h21.07z" /><path stroke="var(--color-primary-600)" stroke-linecap="round" stroke-linejoin="round" stroke-width="3" d="M111.78 164.671H66.71l12-34.047h21.07z" /><path fill="var(--color-primary-100)" d="M172.28 47.614a7.145 7.145 0 11-14.267.825 7.146 7.146 0 0114.267-.825" /><path stroke="var(--color-primary-600)" stroke-linecap="round" stroke-linejoin="round" stroke-width="3" d="M172.28 47.614a7.145 7.145 0 11-14.267.825 7.146 7.146 0 0114.267-.825z" /><path stroke="var(--color-primary-200)" stroke-linecap="round" stroke-linejoin="round" stroke-width="3" d="M170 1.664c21.104-1.944 39.79 13.588 41.734 34.692M171.217 14.88c13.806-1.272 26.03 8.89 27.302 22.694M172.593 29.81c5.56-.512 10.483 3.58 10.995 9.14M9.447 164.113V105.6h42.52v49.14M19.688 116.671h3.837M30.758 116.671h12M19.688 124.555h3.837M30.758 124.555h12M19.688 132.439h3.837M30.758 132.439h12M19.688 140.322h3.837M30.758 140.322h12M19.688 148.205h3.837M14.292 105.368V98.16h32.372v7.21M65.016 92.746l-12.35 21.39H78.78l-12.35-21.39a.817.817 0 00-1.415 0zM61.362 135.648v-7.442M69.548 135.648v-7.442" /><path stroke="var(--color-primary-200)" stroke-linecap="round" stroke-linejoin="round" stroke-width="3" d="M57.02 164.764a4.734 4.734 0 001.087-4.146c-.377-1.809-1.853-3.262-3.667-3.618a4.85 4.85 0 00-1.93.007c-.673.142-1.357-.291-1.543-.953a8.355 8.355 0 00-16.079-.001c-.187.663-.871 1.096-1.545.954a4.837 4.837 0 00-1.93-.006c-1.813.356-3.29 1.81-3.666 3.618a4.735 4.735 0 001.087 4.145" /><path fill="var(--color-neutral-50)" d="M113.191 121.73l-15.734-14.014-15.638 17.557c-3.869 4.345-3.484 11.004.86 14.874h.001c4.344 3.869 11.004 3.484 14.873-.86l15.638-17.557z" /><path stroke="var(--color-primary-600)" stroke-linecap="round" stroke-linejoin="round" stroke-width="3" d="M113.191 121.73l-15.734-14.014-15.638 17.557c-3.869 4.345-3.484 11.004.86 14.874h.001c4.344 3.869 11.004 3.484 14.873-.86l15.638-17.557z" /><path fill="var(--color-neutral-50)" d="M95.762 42.352c-7 8.655 6.875 31.486 30.993 50.995 22.095 17.872 45.11 26.745 54.2 21.455-9.356 9.16-21.927 15.12-36.026 15.936-30.969 1.79-57.526-21.863-59.316-52.831-.486-8.402.9-16.478 3.797-23.824a56.256 56.256 0 014.14-8.372l2.212-3.36z" /><path stroke="var(--color-primary-600)" stroke-linecap="round" stroke-linejoin="round" stroke-width="4" d="M95.762 42.352c-7 8.655 6.875 31.486 30.993 50.995 22.095 17.872 45.11 26.745 54.2 21.455-9.356 9.16-21.927 15.12-36.026 15.936-30.969 1.79-57.526-21.863-59.316-52.831-.486-8.402.9-16.478 3.797-23.824a56.256 56.256 0 014.14-8.372l2.212-3.36z" /><path stroke="var(--color-primary-600)" stroke-width="2" d="M88.707 56.809c1.45 10.966 13.987 28.068 32.667 43.178 19.058 15.416 38.809 24.143 49.71 22.856" /><path stroke="var(--color-primary-300)" stroke-linecap="round" stroke-linejoin="round" stroke-width="3" d="M93.96 131.018a3.192 3.192 0 01-3.003 3.37 3.193 3.193 0 113.003-3.371z" /><path fill="var(--color-primary-200)" d="M152.355 61.43c-24.118-19.509-49.345-28.307-56.346-19.651-7.002 8.655 6.875 31.486 30.993 50.995 24.118 19.509 49.345 28.306 56.346 19.651 7-8.655-6.875-31.486-30.993-50.995" /><path stroke="var(--color-primary-600)" stroke-width="4" d="M152.355 61.43c-24.118-19.509-49.345-28.307-56.346-19.651-7.002 8.655 6.875 31.486 30.993 50.995 24.118 19.509 49.345 28.306 56.346 19.651 7-8.655-6.875-31.486-30.993-50.995z" /><path stroke="var(--color-primary-600)" stroke-linecap="round" stroke-linejoin="round" stroke-width="3" d="M125.829 91.282l34.123-38.313" /><path fill="var(--color-neutral-50)" d="M44.15 63.15h-1.72c-1.072-4.513-5.12-7.874-9.961-7.874-4.842 0-8.89 3.36-9.962 7.875h-1.72a6.3 6.3 0 100 12.6H32.01c.153.006.304.023.459.023.155 0 .306-.017.459-.023H44.15a6.3 6.3 0 000-12.6" /><path stroke="var(--color-primary-200)" stroke-linecap="round" stroke-linejoin="round" stroke-width="3" d="M44.15 63.15h-1.72c-1.072-4.513-5.12-7.874-9.961-7.874-4.842 0-8.89 3.36-9.962 7.875h-1.72a6.3 6.3 0 100 12.6H32.01c.153.006.304.023.459.023.155 0 .306-.017.459-.023H44.15a6.3 6.3 0 000-12.6zM205.151 164.724h-91.603M66.263 164.724H1.5" /><path fill="var(--color-neutral-50)" d="M121.2 173.136H57.291a8.971 8.971 0 018.971-8.97h45.966a8.97 8.97 0 018.97 8.97" /><path stroke="var(--color-primary-600)" stroke-linecap="round" stroke-linejoin="round" stroke-width="3" d="M121.2 173.136H57.291a8.971 8.971 0 018.971-8.97h45.966a8.97 8.97 0 018.97 8.97z" /></g><g><path fill="none" d="M0 0h224v224H0z"/><path fill="none" d="M0 0h224v224H0z"/><path d="M0 0h224v224H0z"/></g></g></svg>