<svg id="error--maintenance" xmlns="http://www.w3.org/2000/svg" viewBox="0 0 224 224"><g fill="none" fill-rule="evenodd"><path fill="var(--color-primary-100)" d="M190.087 161.076c-10.032 4.368-50.74 7.025-90.926 5.935-40.185-1.091-64.63-5.515-54.598-9.883 10.031-4.368 50.74-7.025 90.926-5.935 40.185 1.09 64.63 5.516 54.598 9.883"/><path fill="var(--color-neutral-50)" d="M61.953 144.93H22.511L36.18 88.45a5.939 5.939 0 0111.532-.054l14.242 56.534z"/><path fill="var(--color-primary-200)" d="M62.953 146.79H21.651l4-8.93h33.302zM57.744 124.465H27.976l2.883-11.535H54.86zM50.302 99.908H35.046l1.478-13.768h12.3z"/><path fill="var(--color-primary-300)" d="M10.116 143.558l30.884 2 31.256-2.372v9.56L41 155.86l-32-3.167z"/><path stroke="var(--color-primary-400)" stroke-linecap="round" stroke-linejoin="round" stroke-width="3.5" d="M61.217 142.465L46.926 86.098a2.412 2.412 0 00-2.337-1.819h-4.574a2.411 2.411 0 00-2.337 1.82l-14.291 56.366H10.241A1.24 1.24 0 009 143.706v8.988a1.24 1.24 0 001.164 1.24L41 155.86l31.207-1.929a1.24 1.24 0 001.165-1.238v-8.988c0-.685-.556-1.24-1.242-1.24H61.217z"/><path fill="var(--color-primary-100)" d="M159.545 56h-.193l-6.93 21.872 26.08 82.314h10.883l1.967-3.792z"/><path stroke="var(--color-primary-600)" stroke-linecap="round" stroke-linejoin="round" stroke-width="4" d="M159.545 56h-.193l-6.93 21.872 26.08 82.314h10.883l1.967-3.792z"/><path fill="var(--color-primary-300)" d="M155.837 70.14l27.223 86.418h1.51l-1.882 3.628h-3.256l-26.08-82.315.067-4.569z"/><path fill="var(--color-primary-300)" d="M122.522 138.812l2.725-8.951 52.628.317-3.713 11.962-48.65-.276z"/><path stroke="var(--color-primary-600)" stroke-linecap="round" stroke-linejoin="round" stroke-width="3" d="M122.522 138.812l2.725-8.951 52.628.317-3.713 11.962-48.65-.276z"/><path fill="var(--color-primary-300)" d="M89.499 56h-.193l-6.93 21.872 26.08 82.314h10.883l1.967-3.792z"/><path stroke="var(--color-primary-400)" stroke-linecap="round" stroke-linejoin="round" stroke-width="4" d="M89.499 56h-.193l-6.93 21.872 26.08 82.314h10.883l1.967-3.792z"/><path fill="var(--color-primary-200)" d="M44.926 160.186h10.883L88.817 56H76.248c-.883 0-1.663.572-1.93 1.414l-31.359 98.98 1.967 3.792z"/><path stroke="var(--color-primary-400)" stroke-linecap="round" stroke-linejoin="round" stroke-width="4" d="M44.926 160.186h10.883L88.817 56H76.248c-.883 0-1.663.572-1.93 1.414l-31.359 98.98 1.967 3.792z"/><path fill="var(--color-primary-400)" d="M88.488 58.42l-3.349 8.371 8.372.558z"/><path fill="var(--color-neutral-50)" d="M52.279 156.093l30.698-98.017h-7.158L45.12 156.093zM202.604 156.837h-39.442l13.668-56.48a5.94 5.94 0 0111.532-.054l14.242 56.534z"/><path fill="var(--color-primary-200)" d="M203.604 158.698h-41.302l4-8.93h33.302zM198.395 136.373h-29.768l2.883-11.535h24.002zM190.953 111.814h-15.256l1.478-13.768h12.3z"/><path fill="var(--color-primary-300)" d="M150.767 155.465l30.884 2 31.256-2.372v9.558l-31.256 3.117-32-3.167z"/><path stroke="var(--color-primary-600)" stroke-linecap="round" stroke-linejoin="round" stroke-width="3.5" d="M201.868 154.373l-14.291-56.367a2.412 2.412 0 00-2.337-1.82h-4.574a2.41 2.41 0 00-2.337 1.82l-14.291 56.367h-13.146a1.24 1.24 0 00-1.241 1.24v8.989a1.24 1.24 0 001.164 1.239l30.836 1.928 31.207-1.93a1.24 1.24 0 001.165-1.238v-8.987c0-.685-.556-1.241-1.242-1.241h-10.913z"/><path fill="var(--color-neutral-50)" d="M58.089 138.812l2.725-8.951 62.085.317-3.713 11.962-58.108-.276z"/><path stroke="var(--color-primary-400)" stroke-linecap="round" stroke-linejoin="round" stroke-width="3" d="M58.089 138.812l2.725-8.951 62.085.317-3.713 11.962-58.108-.276z"/><path fill="var(--color-neutral-50)" d="M69.53 105.881l12.05-38.253 62.086.317-13.038 41.264-58.108-.276z"/><path stroke="var(--color-primary-400)" stroke-linecap="round" stroke-linejoin="round" stroke-width="3" d="M69.53 105.881l12.05-38.253 62.086.317-13.038 41.264-58.108-.276z"/><path fill="var(--color-primary-200)" d="M125.915 69.369l9.968 9.838 3.088-9.772zM112.51 69.3l-13.474-.069 30.49 30.092 3.185-10.08zM121.083 103.995L85.857 69.15l-3.178-.015-2.459 7.805 27.467 27.055zM94.017 103.995L77.044 87.02l-3.209 10.188 6.786 6.786z"/><path fill="var(--color-primary-400)" d="M129 103.995H71.417a.75.75 0 000 1.5H129a.75.75 0 000-1.5"/><path fill="var(--color-primary-200)" d="M59.744 138.233h57.395l-.744 2.512-54.791-.372z"/><path fill="var(--color-neutral-50)" d="M115.46 160.186h10.884L159.352 56H148.05a3.754 3.754 0 00-3.58 2.622l-30.976 97.772 1.967 3.792z"/><path stroke="var(--color-primary-600)" stroke-linecap="round" stroke-linejoin="round" stroke-width="4" d="M115.46 160.186h10.884L159.352 56H148.05a3.754 3.754 0 00-3.58 2.622l-30.976 97.772 1.967 3.792z"/><path fill="var(--color-primary-300)" d="M175.534 157.117h15.256"/><path stroke="var(--color-primary-600)" stroke-linecap="round" stroke-linejoin="round" stroke-width="2" d="M175.534 157.117h15.256"/><g><path fill="none" d="M0 0h224v224H0z"/><path fill="none" d="M0 0h224v224H0z"/><path d="M0 0h224v224H0z"/></g></g></svg>