<svg id="other--welcome--back" xmlns="http://www.w3.org/2000/svg" viewBox="0 0 224 224"><g fill="none" fill-rule="evenodd"><path stroke="var(--color-primary-500)" stroke-linecap="round" stroke-width="3" d="M215.527 22.779l-3.056-.103M206.037 22.459l-3.056-.103M209.53 16l-.103 3.056M209.146 25.784l-.103 3.057"/><path stroke="var(--color-primary-200)" stroke-linecap="round" stroke-width="2" d="M97.293 61.621l.005-2.215M97.311 54.743l.006-2.215M102.067 57.126l-2.215-.006M94.973 57.068l-2.215-.006"/><path stroke="var(--color-primary-200)" stroke-linecap="round" stroke-width="3" d="M211.694 70.995l1.57-1.562"/><g stroke="var(--color-primary-200)" stroke-linecap="round" stroke-width="3"><path d="M216.57 66.145l1.57-1.562M218.249 71.193l-1.562-1.57"/></g><path stroke="var(--color-primary-200)" stroke-linecap="round" stroke-width="3" d="M213.273 66.136l-1.562-1.57"/><path stroke="var(--color-primary-200)" stroke-linecap="round" stroke-width="3" d="M121.571 68.761l-6.35.935"/><path stroke="var(--color-primary-100)" stroke-linecap="round" stroke-width="3" d="M215.338 47.18l-6.35.935"/><path stroke="var(--color-primary-200)" stroke-linecap="round" stroke-width="3" d="M123.612 48.616l-5.151-3.83"/><path fill="var(--color-primary-50)" d="M57.23 102.662c-17.522-2.014-30.094-17.85-28.08-35.37 1.048-9.117 5.844-16.883 12.666-21.96-10.69.09-20.765 6.543-24.95 17.092-2.626 6.614-2.458 13.642-.069 19.79-4.18-2.999-7.495-6.906-9.823-11.315a38.705 38.705 0 00-1.718 7.763c-2.436 21.191 12.768 40.345 33.96 42.78 17.977 2.066 34.483-8.566 40.564-24.776-6.266 4.606-14.216 6.954-22.55 5.996"/><path stroke="var(--color-primary-200)" stroke-linecap="round" stroke-linejoin="round" stroke-width="4" d="M57.23 102.662c-17.522-2.014-30.094-17.85-28.08-35.37 1.048-9.117 5.844-16.883 12.666-21.96-10.69.09-20.765 6.543-24.95 17.092-2.626 6.614-2.458 13.642-.069 19.79-4.18-2.999-7.495-6.906-9.823-11.315a38.705 38.705 0 00-1.718 7.763c-2.436 21.191 12.768 40.345 33.96 42.78 17.977 2.066 34.483-8.566 40.564-24.776-6.266 4.606-14.216 6.954-22.55 5.996z"/><path fill="var(--color-primary-200)" d="M66.34 102.874a31.826 31.826 0 01-10.696.581c-17.522-2.014-30.093-17.85-28.08-35.371 1.048-9.116 5.845-16.882 12.666-21.96-10.69.091-20.765 6.543-24.951 17.094-2.624 6.613-2.456 13.641-.067 19.789a32.02 32.02 0 01-2.955-2.4c2.523 17.737 17.764 31.376 36.197 31.376 4.878 0 9.528-.964 13.782-2.699l4.105-6.41z"/><path stroke="var(--color-primary-400)" stroke-linecap="round" stroke-linejoin="round" stroke-width="4" d="M57.23 102.662c-17.522-2.014-30.094-17.85-28.08-35.37 1.048-9.117 5.844-16.883 12.666-21.96-10.69.09-20.765 6.543-24.95 17.092-2.626 6.614-2.458 13.642-.069 19.79-4.18-2.999-7.495-6.906-9.823-11.315a38.705 38.705 0 00-1.718 7.763c-2.436 21.191 12.768 40.345 33.96 42.78 17.977 2.066 34.483-8.566 40.564-24.776-6.266 4.606-14.216 6.954-22.55 5.996z"/><path fill="var(--color-primary-50)" d="M170.914 157.122c-.778 12.496-.664 37.06 11.76 43.43 3.582 2.116 8.788.86 11.016.16a2.253 2.253 0 001.491-1.555c.548-1.957.977-5.725-3.526-6.455-2.616-.425-2.616-1.273-2.616-1.273-5.268-21.396-.064-46.368 2.534-56.49"/><path stroke="var(--color-primary-200)" stroke-linecap="round" stroke-linejoin="round" stroke-width="4" d="M170.914 157.122c-.778 12.496-.664 37.06 11.76 43.43 3.582 2.116 8.788.86 11.016.16a2.253 2.253 0 001.491-1.555c.548-1.957.977-5.725-3.526-6.455-2.616-.425-2.616-1.273-2.616-1.273-5.268-21.396-.064-46.368 2.534-56.49"/><path fill="var(--color-primary-200)" d="M187.812 156.905c.795-8.956 2.369-16.88 3.645-22.253a38.383 38.383 0 00-.263-1.646l-19.751 21.208c-.318 5.107-.483 12.23.277 19.302a38.355 38.355 0 0016.092-16.61"/><path fill="var(--color-primary-50)" d="M143.511 150.973V192.9c0 7.827 6.345 14.173 14.172 14.173h1.861a4.25 4.25 0 004.25-4.25v-1.2a5.504 5.504 0 00-2.202-4.401 5.502 5.502 0 01-2.013-5.827l8.98-33.484c16.917-8.851 28.463-26.572 28.463-46.988V89.695s10.09.173 3.884-14.996c-1.173-2.866-1.952-7.931-2.385-11.497-.237-1.944-.252-3.897-.176-5.853.081-2.055-.384-5.487-3.697-8.327a11.183 11.183 0 00-.282-.233 4.408 4.408 0 01-1.57-2.508c-4.412-19.936-16.272-24.23-16.272-24.23s-7.337 20.498-7.984 19.635c-2.107-2.81-4.747-1.727-4.747-1.727s-11.867-19.203-13.162-17.26c-14.307 21.46-7.12 30.422-7.12 30.422s-10.14 6.258-7.768 12.947c0 0-2.957 3.858 1.726 4.638 1.295.216.54 1.188.54 1.188-11.328 7.12-7.013 13.917-7.013 13.917l-7.387 2.702a61.937 61.937 0 01-21.28 3.77h-2.715c-26.759 0-48.452 21.693-48.452 48.452v14.286a8.976 8.976 0 01-2.63 6.349 13.858 13.858 0 00-4.059 9.798v20.919c0 8.515 6.903 15.417 15.417 15.417h5.013a3.952 3.952 0 003.952-3.952v-4.511a4.483 4.483 0 00-4.483-4.483 4.148 4.148 0 01-4.148-4.147v-3.621c0-7.17 4.601-13.264 11.013-15.493 3.151-1.095 5.638-3.507 6.635-6.691 2.141-6.837 7.836-17.687 22.701-20.862"/><path fill="var(--color-primary-50)" d="M96.128 129.43L76.83 155.867l.793 26.698 8.277 17.82 10.099.855 4.357-2.55-1.585-8.46-3.173-2.378-2.908-11.103 5.816-10.31 5.816-6.608 45.203.793 14.539-36.744z"/><path fill="var(--color-primary-400)" d="M171.492 92.663a5.833 5.833 0 01-5.655 4.363h-.113a5.833 5.833 0 01-5.6-4.573l-.298-1.34 11.854.831-.188.72zm2-9.493l-.915-.038-1.208 1.178-6.6-.215-5.675-.433-1.28-1.626-.342-1.536-2.572-3.41-.343-.31 3.255 16.188a8.196 8.196 0 007.868 6.425l.158.001a8.197 8.197 0 007.945-6.129l4.183-15.7-4.474 5.605z"/><path stroke="var(--color-primary-200)" stroke-linecap="round" stroke-linejoin="round" stroke-width="3.5" d="M95.423 188.733c-2.226-7.661-1.305-16.806.188-19.528 2.318-4.225 5.446-7.166 8.318-9.172"/><path fill="var(--color-primary-200)" d="M145.261 151.963c-8.364-2.841-14.636-8.394-16.686-15.107-.404.19-.8.392-1.218.565-7.045 2.92-14.616 2.63-21.097-.188a18.416 18.416 0 008.548 6.907c1.522.603 3.076.968 4.628 1.155-4.48 2.132-9.792 2.484-14.768.512a18.482 18.482 0 01-5.475-3.37 21.733 21.733 0 00-10.134 7.324l6.804 6.28 3.877 1.763 14.026 2.83 30.737-.275c1.56-2.436.3-5.421.758-8.396"/><path stroke="var(--color-primary-200)" stroke-linecap="round" stroke-linejoin="round" stroke-width="3.5" d="M77.648 165.267s-3.056 20.98 8.253 35.117c.835 1.043 6.313 1.01 10.1.855 2.334-.096 4.23-1.977 4.27-4.314.073-4.235-1.147-7.136-9.078-7.84"/><path stroke="var(--color-primary-200)" stroke-linecap="round" stroke-linejoin="round" stroke-width="3" d="M142.564 160.898h-29.59a34.62 34.62 0 01-24.484-10.141"/><path fill="var(--color-primary-200)" d="M174.903 41.932c.27-1.06.599-1.956.937-2.835a72.72 72.72 0 011.045-2.527l1.095-2.471c.41-.837.74-1.698 1.296-2.662.487.968.687 2.05.622 3.095a8.425 8.425 0 01-.722 3.035 9.24 9.24 0 01-1.688 2.59c-.712.746-1.543 1.409-2.585 1.775"/><path fill="var(--color-primary-200)" d="M178.868 43.253c.388-.704.81-1.255 1.233-1.787.43-.524.864-1.006 1.312-1.467.451-.46.894-.909 1.38-1.352.495-.445.963-.907 1.614-1.401.134.793-.019 1.576-.31 2.278a6.089 6.089 0 01-1.247 1.865c-.52.532-1.12.977-1.782 1.31-.669.32-1.387.567-2.2.554"/><path fill="var(--color-primary-200)" d="M157.985 43.518c-1.266-.128-2.366-.687-3.333-1.386a9.308 9.308 0 01-2.398-2.664 8.461 8.461 0 01-1.194-3.422 6.374 6.374 0 01.543-3.592c.718 1.063 1.159 2.004 1.709 2.889.505.89.996 1.736 1.514 2.582l1.554 2.613c.532.91 1.068 1.844 1.605 2.98"/><path fill="var(--color-primary-200)" d="M153.755 46.822a69.253 69.253 0 01-1.854-1.252 40.2 40.2 0 01-1.533-1.136c-.507-.368-.983-.786-1.504-1.223-.508-.464-1.047-.932-1.6-1.639.828-.298 1.66-.307 2.448-.135.793.161 1.533.533 2.186 1.021a5.413 5.413 0 011.54 1.895c.342.743.547 1.598.317 2.47"/><path fill="var(--color-primary-200)" d="M183.358 59.969c.231-.934.798-1.593 1.412-2.115a5.796 5.796 0 012.103-1.084c.757-.2 1.55-.272 2.34-.154.787.117 1.575.39 2.31.985-.699.654-1.345 1.022-1.978 1.35-.635.305-1.246.55-1.878.71a10.54 10.54 0 01-1.956.347 12.68 12.68 0 01-2.353-.04M144.822 58.701c.596-.459 1.31-.59 1.993-.604.689.002 1.37.16 1.99.44.613.293 1.182.684 1.627 1.197.449.508.797 1.11.94 1.831-.736-.13-1.298-.355-1.856-.55-.54-.222-1.053-.419-1.543-.66a33.272 33.272 0 01-1.492-.726 36.624 36.624 0 01-1.66-.928"/><path fill="var(--color-primary-200)" d="M183.885 64c.735-.494 1.524-.657 2.284-.72a6.871 6.871 0 012.234.231 6.947 6.947 0 012.031.927c.625.428 1.201.96 1.639 1.72-.861.192-1.596.178-2.307.13a10.869 10.869 0 01-2.024-.367 11.488 11.488 0 01-1.917-.712 10.087 10.087 0 01-1.94-1.21M143.012 66.6c.117-.834.527-1.412.978-1.871a4.039 4.039 0 013.414-1.097 3.617 3.617 0 011.887.889 5.678 5.678 0 01-1.405 1.42c-.464.317-.919.55-1.401.694a5.057 5.057 0 01-1.528.236c-.56.002-1.145-.067-1.945-.271"/><path stroke="var(--color-primary-200)" stroke-linecap="round" stroke-linejoin="round" stroke-width="3" d="M170.914 157.122c-.778 12.496-.664 37.06 11.76 43.43 3.582 2.116 8.788.86 11.016.16a2.253 2.253 0 001.491-1.555c.548-1.957.977-5.725-3.526-6.455-2.616-.425-2.616-1.273-2.616-1.273-5.268-21.396-.064-46.368 2.534-56.49"/><path stroke="var(--color-primary-400)" stroke-linecap="round" stroke-linejoin="round" stroke-width="3.5" d="M143.511 150.973V192.9c0 7.827 6.345 14.173 14.172 14.173h1.861a4.25 4.25 0 004.25-4.25v-1.2a5.504 5.504 0 00-2.202-4.401 5.502 5.502 0 01-2.013-5.827l8.98-33.484c16.917-8.851 28.463-26.572 28.463-46.988V89.695s10.09.173 3.884-14.996c-1.173-2.866-1.952-7.931-2.385-11.497-.237-1.944-.252-3.897-.176-5.853.081-2.055-.384-5.487-3.697-8.327a11.183 11.183 0 00-.282-.233 4.408 4.408 0 01-1.57-2.508c-4.412-19.936-16.272-24.23-16.272-24.23s-7.337 20.498-7.984 19.635c-2.107-2.81-4.747-1.727-4.747-1.727s-11.867-19.203-13.162-17.26c-14.307 21.46-7.12 30.422-7.12 30.422s-10.14 6.258-7.768 12.947c0 0-2.957 3.858 1.726 4.638 1.295.216.54 1.188.54 1.188-11.328 7.12-7.013 13.917-7.013 13.917l-7.387 2.702a61.937 61.937 0 01-21.28 3.77h-2.715c-26.759 0-48.452 21.693-48.452 48.452v14.286a8.976 8.976 0 01-2.63 6.349 13.858 13.858 0 00-4.059 9.798v20.919c0 8.515 6.903 15.417 15.417 15.417h5.013a3.952 3.952 0 003.952-3.952v-4.511a4.483 4.483 0 00-4.483-4.483 4.148 4.148 0 01-4.148-4.147v-3.621c0-7.17 4.601-13.264 11.013-15.493 3.151-1.095 5.638-3.507 6.635-6.691 2.141-6.837 7.836-17.687 22.701-20.862"/><path fill="var(--color-primary-100)" d="M161.547 83.782c-.543-.12-1.038-.36-1.504-.649.41 4.516.823 11.468 1.234 15.97.342 3.144 2.614 5.695 5.075 5.694 2.462 0 4.733-2.55 5.074-5.694.398-4.359.797-10.997 1.195-15.515-.185.067-.362.151-.556.194a5.718 5.718 0 01-4.466-.855l-.765-.682a5.713 5.713 0 01-5.287 1.537"/><path stroke="var(--color-primary-600)" stroke-linejoin="round" stroke-width="2" d="M161.547 83.782c-.543-.12-1.038-.36-1.504-.649.41 4.516.823 11.468 1.234 15.97.342 3.144 2.614 5.695 5.075 5.694 2.462 0 4.733-2.55 5.074-5.694.398-4.359.797-10.997 1.195-15.515-.185.067-.362.151-.556.194a5.718 5.718 0 01-4.466-.855l-.765-.682a5.713 5.713 0 01-5.287 1.537z"/><path stroke="var(--color-primary-200)" stroke-linecap="round" stroke-linejoin="round" stroke-width="2.5" d="M166.332 83.258v8.657"/><path fill="var(--color-primary-600)" d="M153.614 75.593c1.275.965 2.354 2.053 3.447 3.132l1.548 1.677c.26.266.507.589.729.84.184.195.38.368.584.515.414.289.832.48 1.202.596.196.053.359.075.563.084.213.014.427.003.634-.03.83-.07 1.592-.416 2.132-1.012a2.561 2.561 0 013.619-.184l.028.026.055.05.747.703-.27-.21c.597.466 1.365.634 2.164.668.419-.002.702-.046 1.09-.212.368-.156.784-.373 1.147-.703.315-.25.824-.945 1.305-1.427.49-.522.95-1.064 1.466-1.57 1.02-1.02 2.058-2.03 3.247-2.943l.04-.031a.145.145 0 01.214.19l-2.185 3.61c-.753 1.2-1.44 2.39-2.263 3.588-.873 1.157-2.196 2.05-3.678 2.237a6.015 6.015 0 01-4.22-.96l-.03-.024-.768-.677.41-.012a5.986 5.986 0 01-4.25 1.735 5.55 5.55 0 01-2.288-.484 5.834 5.834 0 01-1.87-1.39c-.538-.575-.903-1.256-1.3-1.878l-1.18-1.907-2.323-3.838a.144.144 0 01.049-.2.145.145 0 01.163.009l.042.032z"/><path stroke="var(--color-primary-600)" stroke-linecap="round" stroke-linejoin="round" stroke-width="2.5" d="M166.36 82.245v-4.098"/><path fill="var(--color-primary-500)" d="M166.386 79.628a3.677 3.677 0 01-2.998-1.547l-1.88-2.646c-.311-.437-.5-.964-.46-1.498a4.114 4.114 0 014.102-3.801h2.473a4.113 4.113 0 014.101 3.801c.04.534-.149 1.061-.459 1.498l-1.88 2.646a3.679 3.679 0 01-2.999 1.547"/><path fill="var(--color-primary-200)" d="M168.519 149.996c1.086-1.99 2.039-3.896 2.848-5.852.82-1.939 1.509-3.896 2.01-5.9.5-1.999.927-4.028 1.112-6.123.159-1.047.186-2.105.27-3.188.102-1.087.036-2.17.184-3.326.504 1.007.965 2.062 1.28 3.155.258 1.101.573 2.221.624 3.37.256 2.29.003 4.634-.57 6.874a19.627 19.627 0 01-2.852 6.275c-1.308 1.88-2.91 3.587-4.906 4.715"/><path fill="var(--color-primary-200)" d="M181.695 134.02c.607-1.397 1.155-2.634 1.652-3.87a41.356 41.356 0 001.322-3.65c.37-1.218.736-2.444 1-3.738.33-1.295.513-2.632.925-4.126a9.243 9.243 0 011.43 4.257c.167 1.511-.044 3.06-.497 4.516a11.376 11.376 0 01-2.183 3.98c-.98 1.144-2.184 2.136-3.649 2.631"/><path fill="var(--color-primary-200)" d="M84.98 139.999l2.598-2.709c.8-.853 1.57-1.671 2.29-2.536.715-.866 1.46-1.716 2.16-2.657.756-.915 1.44-1.906 2.404-2.929a8.179 8.179 0 01-.306 4.011c-.39 1.299-1.11 2.487-1.982 3.529a10 10 0 01-3.2 2.495c-1.214.586-2.568.967-3.963.796M167.438 134.386c-.119-1.23-.18-2.267-.254-3.281a71.724 71.724 0 00-.23-2.908c-.1-.947-.176-1.898-.32-2.89-.096-1.015-.289-2.033-.322-3.295a6.473 6.473 0 012.542 2.499c.626 1.026.97 2.214 1.086 3.41a8.166 8.166 0 01-.434 3.55c-.409 1.116-1.046 2.183-2.068 2.915"/><path fill="var(--color-primary-600)" d="M160.304 60.874c0 1.635-.975 2.96-2.176 2.96-1.202 0-2.177-1.325-2.177-2.96s.975-2.96 2.177-2.96c1.201 0 2.176 1.325 2.176 2.96M177.405 60.874c0 1.635-.974 2.96-2.176 2.96-1.202 0-2.177-1.325-2.177-2.96s.975-2.96 2.177-2.96 2.176 1.325 2.176 2.96"/><path fill="var(--color-primary-200)" d="M190.615 200.407c-.429-1.117-.875-1.777-1.439-2.4-.285-.31-.62-.595-.975-.926a11.483 11.483 0 01-.575-.496c-.203-.172-.414-.343-.62-.583.293-.082.582-.094.88-.107.282.032.578.061.858.15a3.45 3.45 0 011.536.947c.856.916 1.126 2.453.335 3.415M94.198 202.134c-.08-1.843.005-3.372-.168-4.811a9.325 9.325 0 00-.51-2.055c-.23-.711-.683-1.326-1.152-2.161.907.118 1.835.545 2.472 1.305a5.033 5.033 0 011.174 2.664 6.296 6.296 0 01-.32 2.779c-.32.859-.772 1.667-1.496 2.279"/><path fill="var(--color-primary-400)" d="M58.247 207.685a16.143 16.143 0 00-.134-2.53c-.093-.7-.233-1.294-.387-1.915-.165-.62-.384-1.261-.607-2.002-.118-.368-.263-.745-.362-1.182-.127-.423-.27-.85-.34-1.397.524.058.976.236 1.442.42.423.23.837.497 1.203.823.711.673 1.297 1.547 1.564 2.575.265 1.02.21 2.158-.205 3.126-.413.957-1.15 1.779-2.174 2.082M66.033 207.052c-.016-1.858-.358-3.196-.985-4.466-.32-.635-.737-1.242-1.185-1.892-.235-.316-.482-.643-.724-.994-.26-.336-.53-.674-.769-1.1.468.046.905.177 1.352.31.408.194.84.38 1.224.643.757.539 1.444 1.247 1.888 2.135.44.884.635 1.91.502 2.883-.135.963-.55 1.887-1.303 2.48M155.755 205.883c.26-1.281.233-1.98.218-2.75l-.074-1.271a9.96 9.96 0 01-.036-.767c-.01-.276-.03-.56.016-.906.321.097.578.26.844.43.22.202.458.409.636.659.348.502.59 1.117.612 1.784.064 1.324-.848 2.759-2.216 2.82"/><g><path fill="none" d="M0 0h224v224H0z"/><path fill="none" d="M0 0h224v224H0z"/><path d="M0 0h224v224H0z"/></g></g></svg>