<svg id="other--record" xmlns="http://www.w3.org/2000/svg" xlink="http://www.w3.org/1999/xlink" viewBox="0 0 224 224"><defs><path id="a" d="M0 161.22h215.711V0H0z"/></defs><g fill="none" fill-rule="evenodd"><path fill="var(--color-neutral-50)" d="M146.393 144.565h19.479v-28.911h-19.479z"/><path stroke="var(--color-primary-400)" stroke-width="4" d="M146.393 144.565h19.479v-28.911h-19.479z"/><path fill="var(--color-primary-200)" d="M185.452 153.327l-19.48-8.771v-28.911l19.48-8.77z"/><path stroke="var(--color-primary-400)" stroke-linejoin="round" stroke-width="4" d="M185.452 153.327l-19.48-8.771v-28.911l19.48-8.77z"/><path fill="var(--color-neutral-50)" d="M152.667 143.977v-27.739 27.74z"/><path stroke="var(--color-primary-400)" stroke-linejoin="round" stroke-width="2" d="M152.667 116.239v27.738"/><path fill="var(--color-neutral-50)" d="M27.927 135.775l-12.334 6.57V116.58l12.334 6.57z"/><path stroke="var(--color-primary-400)" stroke-width="3" d="M27.927 135.775l-12.334 6.57V116.58l12.334 6.57z"/><g transform="translate(7 31)"><path fill="var(--color-neutral-50)" d="M2.802 113.02h4.675c.719 0 1.302-.583 1.302-1.302V85.209c0-.718-.583-1.301-1.302-1.301H2.802c-.72 0-1.302.583-1.302 1.301v26.509c0 .719.583 1.302 1.302 1.302"/><path stroke="var(--color-primary-400)" stroke-linejoin="round" stroke-width="3" d="M2.802 113.02h4.675c.719 0 1.302-.583 1.302-1.302V85.209c0-.718-.583-1.301-1.302-1.301H2.802c-.72 0-1.302.583-1.302 1.301v26.509c0 .719.583 1.302 1.302 1.302z"/><mask id="b" fill="var(--color-neutral-50)"><use href="#a"/></mask><path fill="var(--color-neutral-50)" d="M20.814 105.197h8.159V91.724h-8.159z" /><path stroke="var(--color-primary-400)" stroke-width="3" d="M20.814 105.197h8.159V91.724h-8.159z" /><path fill="var(--color-primary-100)" d="M134.862 144.87H32.787a3.866 3.866 0 01-3.865-3.866V76a3.865 3.865 0 013.865-3.866h102.075A3.866 3.866 0 01138.728 76v65.004a3.866 3.866 0 01-3.866 3.866" /><path stroke="var(--color-primary-600)" stroke-width="4" d="M134.862 144.87H32.787a3.866 3.866 0 01-3.865-3.866V76a3.865 3.865 0 013.865-3.866h102.075A3.866 3.866 0 01138.728 76v65.004a3.866 3.866 0 01-3.866 3.866z" /><path fill="var(--color-neutral-50)" d="M30.856 140.197h105.949v-3.547H30.856z" /><path stroke="var(--color-primary-100)" stroke-linecap="round" stroke-width="3" d="M192.634 32.675a5.705 5.705 0 11-8.068 8.068" /><g ><path fill="var(--color-neutral-50)" d="M117.145 80.9v34.068"/><path stroke="var(--color-primary-400)" stroke-linejoin="round" stroke-width="2.5" d="M117.145 80.9v34.068"/></g><path fill="var(--color-neutral-50)" d="M180.612 122.856h5.421a3.118 3.118 0 003.118-3.117V78.483a3.117 3.117 0 00-3.118-3.117h-5.42a3.116 3.116 0 00-3.118 3.117v41.256a3.117 3.117 0 003.117 3.117" /><path stroke="var(--color-primary-400)" stroke-linejoin="round" stroke-width="4" d="M180.612 122.856h5.421a3.118 3.118 0 003.118-3.117V78.483a3.117 3.117 0 00-3.118-3.117h-5.42a3.116 3.116 0 00-3.118 3.117v41.256a3.117 3.117 0 003.117 3.117z" /><path fill="var(--color-primary-200)" d="M56.204 123.698a3.13 3.13 0 11-6.259 0 3.13 3.13 0 016.259 0M67.883 123.698a3.13 3.13 0 11-6.258 0 3.13 3.13 0 016.258 0" /><g ><path fill="var(--color-primary-50)" d="M29.196 136.65h108.282"/><path stroke="var(--color-primary-600)" stroke-width="2.5" d="M29.196 136.65h108.282"/></g><path fill="var(--color-neutral-50)" d="M122.083 80.682h-16.888L76.43 114.95h45.653c.904 0 1.636-.733 1.636-1.636V82.32c0-.905-.732-1.637-1.636-1.637" /><path fill="var(--color-primary-200)" d="M95.63 96.093a3.498 3.498 0 11-6.995 0 3.498 3.498 0 016.996 0" /><path stroke="var(--color-primary-400)" stroke-width="2.5" d="M122.015 115.306H39.898a1.704 1.704 0 01-1.704-1.703v-30.86c0-.94.763-1.704 1.704-1.704h82.117c.941 0 1.704.763 1.704 1.704v30.86c0 .94-.763 1.703-1.704 1.703z" /><path stroke="var(--color-primary-200)" stroke-linejoin="round" stroke-width="2.5" d="M100.464 96.093a8.331 8.331 0 01-8.332 8.331 8.331 8.331 0 010-16.662 8.33 8.33 0 018.332 8.331z" /><path stroke="var(--color-primary-200)" stroke-linejoin="round" stroke-width="2" d="M71.303 88.338a5.361 5.361 0 110 10.723 5.361 5.361 0 010-10.723zM67.953 97.049l6.701-6.7" /><path stroke="var(--color-primary-200)" stroke-linejoin="round" stroke-width="2.5" d="M58.857 93.766a5.36 5.36 0 11-10.72 0 5.36 5.36 0 0110.72 0z" /><path fill="var(--color-primary-100)" d="M115.893 71.117a35.514 35.514 0 008.91 1.13c19.576 0 35.445-15.868 35.445-35.444 0-3.078-.394-6.063-1.13-8.911l-43.225 43.225z" /><path stroke="var(--color-primary-400)" stroke-width="4" d="M160.64 37.445c0 19.576-15.87 35.445-35.446 35.445S89.748 57.02 89.748 37.445C89.748 17.87 105.618 2 125.194 2s35.445 15.87 35.445 35.445z" /><path fill="var(--color-primary-50)" d="M143.324 37.445c0 10.014-8.117 18.13-18.13 18.13-10.014 0-18.13-8.116-18.13-18.13 0-10.013 8.116-18.13 18.13-18.13 10.013 0 18.13 8.117 18.13 18.13" /><path stroke="var(--color-primary-500)" stroke-linejoin="round" stroke-width="2.5" d="M143.324 37.445c0 10.014-8.117 18.13-18.13 18.13-10.014 0-18.13-8.116-18.13-18.13 0-10.013 8.116-18.13 18.13-18.13 10.013 0 18.13 8.117 18.13 18.13z" /><path fill="var(--color-neutral-50)" d="M134.311 37.445a9.118 9.118 0 11-18.235 0 9.118 9.118 0 0118.236 0" /><path stroke="var(--color-primary-600)" stroke-linejoin="round" stroke-width="2.5" d="M134.311 37.445a9.118 9.118 0 11-18.235 0 9.118 9.118 0 0118.236 0z" /><path fill="var(--color-primary-600)" d="M130.114 37.445a4.92 4.92 0 11-9.84 0 4.92 4.92 0 019.84 0" /><path fill="var(--color-primary-100)" d="M37.046 71.117a35.514 35.514 0 008.91 1.13c19.576 0 35.445-15.868 35.445-35.444 0-3.078-.393-6.063-1.13-8.911L37.046 71.117z" /><path stroke="var(--color-primary-400)" stroke-width="4" d="M82.799 37.445c0 19.576-15.87 35.445-35.445 35.445-19.576 0-35.446-15.87-35.446-35.445C11.908 17.87 27.778 2 47.354 2c19.575 0 35.445 15.87 35.445 35.445z" /><path fill="var(--color-primary-50)" d="M65.484 37.445c0 10.014-8.117 18.13-18.13 18.13-10.014 0-18.131-8.116-18.131-18.13 0-10.013 8.117-18.13 18.13-18.13 10.014 0 18.13 8.117 18.13 18.13" /><path stroke="var(--color-primary-500)" stroke-linejoin="round" stroke-width="2.5" d="M65.484 37.445c0 10.014-8.117 18.13-18.13 18.13-10.014 0-18.131-8.116-18.131-18.13 0-10.013 8.117-18.13 18.13-18.13 10.014 0 18.13 8.117 18.13 18.13z" /><path fill="var(--color-primary-200)" d="M44.378 43.683l9.127-9.127 16.626 17.888-7.865 7.865z" /><path stroke="var(--color-primary-600)" stroke-linejoin="round" stroke-width="2" d="M44.378 43.683l9.127-9.127 16.626 17.888-7.865 7.865z" /><path fill="var(--color-neutral-50)" d="M72.922 55.638a7.228 7.228 0 11-14.456 0 7.228 7.228 0 0114.456 0" /><path stroke="var(--color-primary-600)" stroke-linejoin="round" stroke-width="2.5" d="M72.922 55.638a7.228 7.228 0 11-14.456 0 7.228 7.228 0 0114.456 0z" /><path fill="var(--color-neutral-50)" d="M56.471 37.445a9.118 9.118 0 11-18.235 0 9.118 9.118 0 0118.235 0" /><path stroke="var(--color-primary-600)" stroke-linejoin="round" stroke-width="2.5" d="M56.471 37.445a9.118 9.118 0 11-18.235 0 9.118 9.118 0 0118.235 0z" /><path fill="var(--color-primary-600)" d="M52.273 37.445a4.92 4.92 0 11-9.839 0 4.92 4.92 0 019.84 0" /><path stroke="var(--color-primary-200)" stroke-linecap="round" stroke-width="3.5" d="M206.589 72.764l-6.917 5.061M206.589 120.815l-6.917-5.06M206.576 96.988l7.385.099" /><path stroke="var(--color-primary-100)" stroke-linecap="round" stroke-width="3" d="M169.217 159.72l-8.266-8.266M169.217 151.454l-8.266 8.266" /></g><g><path fill="none" d="M0 0h224v224H0z"/><path fill="none" d="M0 0h224v224H0z"/><path d="M0 0h224v224H0z"/></g></g></svg>