<svg id="other--screenshare" xmlns="http://www.w3.org/2000/svg" xlink="http://www.w3.org/1999/xlink" viewBox="0 0 224 224"><defs><path id="a" d="M0 0h137.859v10.047H0z"/></defs><g fill="none" fill-rule="evenodd"><g transform="translate(40.64 192.441)"><mask id="b" fill="var(--color-neutral-50)"><use href="#a"/></mask><path fill="var(--color-primary-100)" d="M127.813 10.047H10.046C4.497 10.047 0 5.549 0 0h137.859c0 5.549-4.498 10.047-10.046 10.047" /></g><path fill="var(--color-neutral-50)" d="M23.662 178.204a5.067 5.067 0 00-.737 1.96H197.71a5.08 5.08 0 00-.778-2.229L177.74 148.07H43.027l-19.365 30.135z"/><path fill="var(--color-primary-100)" d="M179.657 163.535h-140l6-9.163h128z"/><path fill="var(--color-neutral-50)" d="M122.15 181v1.217a2.271 2.271 0 01-2.27 2.271H99.586a2.272 2.272 0 01-2.272-2.27V181H23.36v4.465h173.72V181h-74.93z"/><path fill="var(--color-primary-200)" d="M119.88 184.488H99.584a2.271 2.271 0 01-2.27-2.27v-2.753h24.835v2.752a2.272 2.272 0 01-2.27 2.271"/><path fill="var(--color-primary-200)" d="M190.338 191.884H29.127a7.023 7.023 0 01-7.022-7.022H197.36a7.023 7.023 0 01-7.022 7.022"/><path stroke="var(--color-primary-600)" stroke-linecap="round" stroke-linejoin="round" stroke-width="4" d="M197.17 181.254l-.19 3.303a7.624 7.624 0 01-7.61 7.182H29.758c-4.383 0-7.864-3.688-7.61-8.064l.158-2.74a5.082 5.082 0 01.798-2.452l19.365-30.134H177.18l19.193 29.866a5.08 5.08 0 01.797 3.039z"/><path stroke="var(--color-primary-500)" stroke-linecap="round" stroke-linejoin="round" stroke-width="2" d="M122.184 182.093h0a2.977 2.977 0 01-2.977 2.977h-19.1a2.976 2.976 0 01-2.977-2.977"/><path stroke="var(--color-primary-600)" stroke-linecap="round" stroke-linejoin="round" stroke-width="2.5" d="M22.359 180.605h174.596"/><path stroke="var(--color-primary-500)" stroke-linecap="round" stroke-linejoin="round" stroke-width="2" d="M135.608 164.372l2.479 5.318c.543.83.04 2.031-.851 2.031H82.078c-.89 0-1.394-1.2-.851-2.03l2.479-5.319"/><path stroke="var(--color-primary-200)" stroke-linecap="round" stroke-linejoin="round" stroke-width="2" d="M43.36 158.396h131.721M124.408 154.303l1 9.116M134.195 154.303l2 9.116M114.62 154.303v9.116M154.27 154.303l3 9.116M164.058 154.303l4 9.116M144.483 154.303l2 9.116M64.683 154.303l-3 9.116M74.47 154.303l-2 9.116M54.895 154.303l-4 9.116M94.545 154.303l-1 9.116M104.332 154.303v9.116M84.258 154.303l-1 9.116"/><path stroke="var(--color-primary-500)" stroke-linecap="round" stroke-linejoin="round" stroke-width="2" d="M179.657 163.535h-140l6-9.163h128z"/><path fill="var(--color-primary-200)" d="M168.656 62.651H50.649a7.893 7.893 0 00-7.893 7.894v78.06H176.55v-78.06a7.894 7.894 0 00-7.894-7.894"/><path stroke="var(--color-primary-600)" stroke-linecap="round" stroke-linejoin="round" stroke-width="3.5" d="M168.656 62.651H50.649a7.893 7.893 0 00-7.893 7.894v78.06H176.55v-78.06a7.894 7.894 0 00-7.894-7.894z"/><path stroke="var(--color-primary-500)" stroke-linecap="round" stroke-linejoin="round" stroke-width="2" d="M167.99 140.689H51.128V74.066a2.672 2.672 0 012.673-2.673h111.516a2.673 2.673 0 012.673 2.673v66.623z"/><path fill="var(--color-neutral-50)" d="M185.677 120.223H96.433a3.991 3.991 0 01-3.99-3.991V47.209a3.991 3.991 0 013.99-3.991h89.244a3.991 3.991 0 013.991 3.99v69.024a3.991 3.991 0 01-3.99 3.99"/><path fill="var(--color-primary-100)" d="M188.208 52.907h-94.29v-5.856a2.337 2.337 0 012.337-2.338h89.617a2.337 2.337 0 012.336 2.338v5.856z"/><path fill="var(--color-primary-200)" d="M178.632 49.194a1.647 1.647 0 11-3.293-.001 1.647 1.647 0 013.293.001M173.16 49.194a1.647 1.647 0 11-3.293-.001 1.647 1.647 0 013.294.001M184.105 49.194a1.647 1.647 0 11-3.294-.001 1.647 1.647 0 013.293.001"/><path fill="var(--color-primary-50)" d="M188.43 54.21v65.86h-64.744l55.442-66.047z"/><path stroke="var(--color-primary-400)" stroke-width="4" d="M185.677 120.223H96.433a3.991 3.991 0 01-3.99-3.991V47.209a3.991 3.991 0 013.99-3.991h89.244a3.991 3.991 0 013.991 3.99v69.024a3.991 3.991 0 01-3.99 3.99z"/><path stroke="var(--color-primary-400)" stroke-width="2.5" d="M91.872 53.912h97.99"/><path fill="var(--color-neutral-50)" d="M117.835 130.548H67.597a3.99 3.99 0 01-3.992-3.99v-38.13a3.991 3.991 0 013.991-3.991h50.238a3.991 3.991 0 013.991 3.99v38.13a3.99 3.99 0 01-3.99 3.99"/><path fill="var(--color-primary-50)" d="M107.355 91.419l-32.842 39.123c.021 0 .039.006.06.006h46.043V91.419h-13.261zM120.616 84.72v-.283h-7.4l-.24.284z"/><path stroke="var(--color-primary-400)" stroke-width="2.5" d="M64.414 92.043h56.977"/><path stroke="var(--color-primary-400)" stroke-width="3" d="M117.835 130.548H67.597a3.99 3.99 0 01-3.992-3.99v-38.13a3.991 3.991 0 013.991-3.991h50.238a3.991 3.991 0 013.991 3.99v38.13a3.99 3.99 0 01-3.99 3.99z"/><path stroke="var(--color-primary-200)" stroke-linecap="round" stroke-width="3" d="M74.291 101.465h14.791M74.291 109h27.348"/><path stroke="var(--color-primary-100)" stroke-linecap="round" stroke-width="3" d="M106.105 65.023h14.79M106.105 72.559h27.349M140.988 72.559h8.651M129.546 91.256h8.651"/><path stroke="var(--color-primary-200)" stroke-linecap="round" stroke-linejoin="round" stroke-width="5" d="M209.616 128.465v10.838h-10.837M14.314 128.465v10.838h10.837M14.314 32.837V22h10.837M209.616 32.837V22h-10.837"/><path stroke="var(--color-primary-200)" stroke-dasharray="6,10" stroke-linecap="round" stroke-width="3.5" d="M14.5 43.977v73.668M209.43 45.076v73.668M183.407 22.65H37.175"/><g><path fill="none" d="M0 0h224v224H0z"/><path fill="none" d="M0 0h224v224H0z"/><path d="M0 0h224v224H0z"/></g></g></svg>