<svg id="other--avatar--group" xmlns="http://www.w3.org/2000/svg" xlink="http://www.w3.org/1999/xlink" viewBox="0 0 80 80"><defs><path id="a" d="M0 0h80v80H0z"/></defs><g fill="none" fill-rule="evenodd"><g><mask id="b" fill="var(--color-neutral-50)"><use href="#a"/></mask><path fill="var(--color-primary-100)" d="M80 40c0 22.092-17.91 40-40 40C17.909 80 0 62.092 0 40 0 17.909 17.909 0 40 0c22.09 0 40 17.909 40 40" /></g><path fill="var(--color-primary-200)" d="M27.204 65.66a7.514 7.514 0 01-7.343-.07L7.872 58.735a4.761 4.761 0 01-2.255-5.29l.519-2.08a4.841 4.841 0 013.054-3.379l6.604-2.379a3.308 3.308 0 002.189-3.115V39.55l16.68-2.87-7.458 28.981z"/><path stroke="var(--color-primary-300)" stroke-width="2" d="M27.204 65.66a7.514 7.514 0 01-7.343-.07L7.872 58.735a4.761 4.761 0 01-2.255-5.29l.519-2.08a4.841 4.841 0 013.054-3.379l6.604-2.379a3.308 3.308 0 002.189-3.115V39.55l16.68-2.87-7.458 28.981z"/><path fill="var(--color-primary-100)" d="M27.736 41.715l2.952-2.5a9.72 9.72 0 003.188-9.616l-1.011-4.35a9.167 9.167 0 00-17.858 0l-1.011 4.35a9.72 9.72 0 003.187 9.617l2.953 2.499a5.883 5.883 0 007.6 0"/><path stroke="var(--color-primary-300)" stroke-width="2" d="M27.736 41.715l2.952-2.5a9.72 9.72 0 003.188-9.616l-1.011-4.35a9.167 9.167 0 00-17.858 0l-1.011 4.35a9.72 9.72 0 003.187 9.617l2.953 2.499a5.883 5.883 0 007.6 0z"/><path fill="var(--color-neutral-50)" d="M31.668 39.655v4.223a4.749 4.749 0 01-3.14 4.47l-9.476 3.413a6.948 6.948 0 00-4.384 4.85l-1.263 5.053a4.02 4.02 0 001.905 4.464l19.055 7.544a10.784 10.784 0 005.247 1.422 10.768 10.768 0 005.288-1.323l20.144-7.665a4.018 4.018 0 001.971-4.5l-1.249-4.995c-.56-2.246-2.205-4.065-5.293-4.85L51 48.348c-.976-.678-2.232-2.466-2.232-4.47v-4.223"/><path stroke="var(--color-primary-400)" stroke-width="2" d="M31.668 39.655v4.223a4.749 4.749 0 01-3.14 4.47l-9.476 3.413a6.948 6.948 0 00-4.384 4.85l-1.263 5.053a4.02 4.02 0 001.905 4.464l19.055 7.544a10.784 10.784 0 005.247 1.422 10.768 10.768 0 005.288-1.323l20.144-7.665a4.018 4.018 0 001.971-4.5l-1.249-4.995c-.56-2.246-2.205-4.065-5.293-4.85L51 48.348c-.976-.678-2.232-2.466-2.232-4.47v-4.223"/><path fill="var(--color-primary-200)" d="M53.142 65.66a7.517 7.517 0 007.342-.07l11.99-6.855a4.761 4.761 0 002.255-5.29l-.519-2.08a4.841 4.841 0 00-3.054-3.379l-6.604-2.379a3.31 3.31 0 01-2.189-3.115V39.55l-16.68-2.87 7.459 28.981z"/><path stroke="var(--color-primary-300)" stroke-width="2" d="M53.142 65.66a7.517 7.517 0 007.342-.07l11.99-6.855a4.761 4.761 0 002.255-5.29l-.519-2.08a4.841 4.841 0 00-3.054-3.379l-6.604-2.379a3.31 3.31 0 01-2.189-3.115V39.55l-16.68-2.87 7.459 28.981z"/><path fill="var(--color-primary-100)" d="M52.61 41.715l-2.952-2.5a9.717 9.717 0 01-3.187-9.616l1.01-4.35a9.167 9.167 0 0117.858 0l1.011 4.35a9.72 9.72 0 01-3.187 9.617l-2.952 2.499a5.884 5.884 0 01-7.6 0"/><path stroke="var(--color-primary-300)" stroke-width="2" d="M52.61 41.715l-2.952-2.5a9.717 9.717 0 01-3.187-9.616l1.01-4.35a9.167 9.167 0 0117.858 0l1.011 4.35a9.72 9.72 0 01-3.187 9.617l-2.952 2.499a5.884 5.884 0 01-7.6 0z"/><path fill="var(--color-neutral-50)" d="M31.668 39.655v4.223a4.749 4.749 0 01-3.14 4.47l-9.476 3.413a6.948 6.948 0 00-4.384 4.85l-1.263 5.053a4.02 4.02 0 001.905 4.464l19.055 7.544a10.784 10.784 0 005.247 1.422 10.768 10.768 0 005.288-1.323l20.144-7.665a4.018 4.018 0 001.971-4.5l-1.249-4.995c-.56-2.246-2.205-4.065-5.293-4.85L51 48.348c-.976-.678-2.232-2.466-2.232-4.47v-4.223"/><path stroke="var(--color-primary-400)" stroke-width="2" d="M31.668 39.655v4.223a4.749 4.749 0 01-3.14 4.47l-9.476 3.413a6.948 6.948 0 00-4.384 4.85l-1.263 5.053a4.02 4.02 0 001.905 4.464l19.055 7.544a10.784 10.784 0 005.247 1.422 10.768 10.768 0 005.288-1.323l20.144-7.665a4.018 4.018 0 001.971-4.5l-1.249-4.995c-.56-2.246-2.205-4.065-5.293-4.85L51 48.348c-.976-.678-2.232-2.466-2.232-4.47v-4.223"/><path fill="var(--color-neutral-50)" d="M45.274 43.093l5.09-4.31a12.95 12.95 0 004.247-12.813l-1.67-7.188a12.206 12.206 0 00-4.971-7.294l-.834-.575a12.217 12.217 0 00-13.851 0l-.833.575a12.197 12.197 0 00-4.971 7.294l-1.67 7.188c-1.1 4.729.54 9.676 4.246 12.813l5.09 4.31a7.835 7.835 0 0010.127 0"/><path stroke="var(--color-primary-400)" stroke-width="2" d="M45.274 43.093l5.09-4.31a12.95 12.95 0 004.247-12.813l-1.67-7.188a12.206 12.206 0 00-4.971-7.294l-.834-.575a12.217 12.217 0 00-13.851 0l-.833.575a12.197 12.197 0 00-4.971 7.294l-1.67 7.188c-1.1 4.729.54 9.676 4.246 12.813l5.09 4.31a7.835 7.835 0 0010.127 0z"/><path fill="var(--color-primary-200)" d="M54.059 23.594l-2.633-9.316-5.651-4.176-5.993-1.33-6.496 2.14-3.54 3.645-2.265 4.225-1.942 8.833L38.45 16.58l15.965 8.547z"/><path stroke="var(--color-primary-400)" stroke-linejoin="round" stroke-width="2" d="M54.88 26.36l-16.672-9.424-12.668 9.42"/><path fill="var(--color-primary-200)" d="M36.21 55.185l1.104 3.79h5.791l1.106-3.79-4.037-3.297z"/><path stroke="var(--color-primary-400)" stroke-width="1.3" d="M36.21 55.185l1.104 3.79h5.791l1.106-3.79-4.037-3.297z"/><path fill="var(--color-neutral-50)" d="M48.7 58.073l-8.526-6.185-8.526 6.185-3.61-8.44 2.535-3.539 9.601 4.816 9.602-4.816 2.534 3.538z"/><path stroke="var(--color-primary-400)" stroke-width="1.3" d="M48.7 58.073l-8.526-6.185-8.526 6.185-3.61-8.44 2.535-3.539 9.601 4.816 9.602-4.816 2.534 3.538z"/><path stroke="var(--color-primary-400)" stroke-width="2" d="M45.274 43.093l5.09-4.31a12.95 12.95 0 004.247-12.813l-1.67-7.188a12.206 12.206 0 00-4.971-7.294l-.834-.575a12.217 12.217 0 00-13.851 0l-.833.575a12.197 12.197 0 00-4.971 7.294l-1.67 7.188c-1.1 4.729.54 9.676 4.246 12.813l5.09 4.31a7.835 7.835 0 0010.127 0z"/><path fill="var(--color-primary-100)" d="M39.283 29.257l-1.277 4.058c-.32.679.176 1.46.927 1.46h2.555c.751 0 1.247-.781.927-1.46l-1.277-4.058a1.026 1.026 0 00-1.855 0"/><path fill="var(--color-primary-200)" d="M39.612 75.095c1.572.016 3.14-.332 4.603-1.004l-1.109-15.305h-5.79l-1.64 15.518c1.262.51 2.597.777 3.936.79"/><path stroke="var(--color-primary-400)" stroke-width="1.3" d="M39.612 75.095c1.572.016 3.14-.332 4.603-1.004l-1.109-15.305h-5.79l-1.64 15.518c1.262.51 2.597.777 3.936.79z"/><path stroke="var(--color-primary-400)" stroke-width="2" d="M31.668 39.655v4.223a4.749 4.749 0 01-3.14 4.47l-9.476 3.413a6.948 6.948 0 00-4.384 4.85l-1.263 5.053a4.02 4.02 0 001.905 4.464l19.055 7.544a10.784 10.784 0 005.247 1.422 10.768 10.768 0 005.288-1.323l20.144-7.665a4.018 4.018 0 001.971-4.5l-1.249-4.995c-.56-2.246-2.205-4.065-5.293-4.85L51 48.348c-.976-.678-2.232-2.466-2.232-4.47v-4.223"/></g></svg>