<svg id="flag--albania" xmlns="http://www.w3.org/2000/svg" viewBox="0 0 20 20"><g fill="none" fill-rule="evenodd"><rect width="18" height="18" x="1" y="1" fill="#D22C29" rx="3"/><path fill="#000" d="M11.72 5.314c.138 0 .226.044.226.104s-.088.113-.225.113c-.139 0-.224-.049-.224-.109s.085-.108.224-.108m-3.442 0c.139 0 .225.049.225.108 0 .06-.086.11-.225.11-.137 0-.225-.054-.225-.114 0-.06.088-.104.225-.104M8.254 5c-.17-.003-.452.056-.446.19-.473-.083-.523.118-.495.297.045-.07.1-.11.142-.117.063-.01.13.01.197.053a.796.796 0 01.175.154c-.167.041-.296.015-.428-.009a.592.592 0 01-.208-.088c-.054-.038-.071-.075-.156-.164-.1-.105-.205-.075-.172.088.076.152.204.22.365.246.077.013.193.042.323.042.131 0 .278-.02.358-.002-.048.03-.102.084-.21.105-.11.022-.276-.066-.377-.09.013.087.12.17.332.212.348.078.638.137.829.244.19.107.312.24.398.345.171.209.18.369.19.404.036.333-.077.52-.287.578-.105.03-.29-.025-.36-.108-.068-.082-.134-.224-.115-.446.018-.087.115-.314.033-.361a9.837 9.837 0 00-1.175-.565C7.075 5.972 7 6.1 6.97 6.15a1.828 1.828 0 01-1.309-.887c-.156-.286-.415.001-.371.271.07.302.293.52.562.675.275.156.619.31.967.302.188.036.186.286-.04.333-.44.003-.79-.009-1.122-.338-.251-.236-.393.046-.32.205.123.492.805.63 1.494.47.267-.045.107.25.032.252-.288.213-.804.42-1.258-.002-.208-.164-.349-.026-.271.21.201.617.972.487 1.501.184.137-.079.26.103.095.242-.659.473-.988.478-1.285.296-.372-.15-.404.274-.184.413.246.155.87.039 1.329-.257.196-.15.205.084.08.177-.543.484-.758.611-1.324.532-.281-.022-.277.334-.056.474.302.19.891-.126 1.349-.516.192-.106.224.067.129.273-.28.363-.542.577-.795.676a.969.969 0 01-.668.023c-.21-.075-.236.15-.12.354.07.123.36.162.672.048.313-.114.649-.381.879-.695.2-.18.176.062.084.233-.461.75-.883 1.03-1.44.982-.246-.043-.302.154-.145.336.276.236.621.228.923-.004.268-.266.781-.84 1.05-1.146.19-.156.25-.003.195.313-.05.181-.177.372-.523.511-.236.139-.058.33.118.333.098.002.295-.115.446-.29.2-.23.211-.385.32-.744.104-.174.29-.093.29.09-.09.36-.166.424-.345.57-.172.166.12.222.217.154.284-.197.388-.452.483-.683.068-.167.266-.086.174.186-.22.652-.58.91-1.213 1.041-.064.012-.103.05-.08.127.084.09.169.173.254.263-.391.117-.709.183-1.1.3-.192-.129-.347-.239-.539-.368-.05-.122-.074-.308-.357-.177-.192-.091-.28-.058-.387.034.154.006.22.048.28.12.08.213.261.234.447.173.12.105.185.186.306.29l-.608-.018c-.215-.238-.386-.225-.54-.039-.117.019-.167.021-.247.168.126-.053.205-.07.26-.011.229.136.378.105.491 0 .22.013.419.025.64.04-.082.071-.193.109-.274.18-.33-.097-.503.034-.562.312a.652.652 0 00-.046.347.435.435 0 01.179-.263c.295.077.405-.047.422-.228.142-.12.356-.146.498-.267.166.055.246.089.413.143.06.186.194.26.412.211.26.009.214.119.235.206.07-.126.067-.248-.093-.36-.058-.162-.187-.236-.356-.143-.16-.046-.201-.113-.36-.16.402-.13.686-.16 1.087-.292.1.098.18.168.28.254.054.033.105.041.136 0 .252-.374.364-.703.597-.95.09-.102.202-.24.327-.273.063-.017.14-.007.188.048.05.055.088.156.071.307-.023.217-.074.285-.133.415-.06.13-.131.21-.206.31-.148.198-.344.314-.46.392-.232.156-.33.088-.51.078-.231.026-.293.143-.103.303a.696.696 0 00.467.083c.111-.022.241-.17.334-.25.105-.123.278.024.16.169-.215.262-.43.435-.694.431-.279.039-.227.2-.042.278.332.141.633-.123.785-.297.118-.132.201-.137.18.068-.116.371-.276.514-.536.533-.212-.02-.214.148-.06.26.352.252.607-.175.726-.433.085-.233.215-.122.229.07.002.256-.11.465-.412.727.23.378.5.763.73 1.142.23-.38.5-.764.73-1.142-.301-.262-.414-.471-.412-.727.014-.192.144-.303.229-.07.119.258.374.685.725.434.155-.113.153-.281-.059-.261-.26-.019-.42-.162-.536-.533-.021-.205.062-.2.18-.068.152.174.453.438.785.297.185-.078.237-.239-.042-.278-.264.004-.48-.169-.694-.432-.118-.144.055-.291.16-.167.093.08.223.227.334.248.13.025.29.013.467-.082.19-.16.128-.277-.104-.303-.18.01-.277.078-.51-.078-.115-.078-.31-.194-.46-.392-.074-.1-.146-.18-.205-.31s-.11-.198-.133-.415c-.017-.15.022-.252.07-.307.05-.055.126-.065.189-.048.125.033.237.17.327.273.233.247.345.576.597.95.03.041.082.033.135 0a5.79 5.79 0 00.281-.254c.4.132.685.161 1.087.293-.159.046-.2.113-.36.16-.17-.095-.298-.02-.356.142-.16.112-.162.234-.093.36.02-.088-.025-.197.235-.206.218.048.352-.025.412-.211.167-.054.247-.088.413-.143.142.121.356.147.498.267.017.181.127.305.422.228.095.06.147.153.179.263a.652.652 0 00-.046-.347c-.059-.278-.231-.41-.562-.312-.081-.071-.192-.109-.273-.18.22-.015.419-.027.639-.04.113.105.262.136.49 0 .056-.058.135-.042.261.01-.08-.146-.13-.148-.247-.167-.154-.186-.325-.199-.54.038l-.608.02c.121-.105.185-.186.306-.29.186.06.368.04.446-.174.06-.072.127-.114.281-.12-.106-.092-.195-.125-.387-.034-.283-.13-.307.055-.357.177-.192.13-.347.24-.54.369-.39-.118-.708-.184-1.099-.3.085-.091.17-.173.255-.264.022-.076-.017-.115-.081-.127-.632-.132-.994-.389-1.213-1.04-.092-.273.106-.354.174-.187.095.231.199.486.483.683.098.068.389.012.217-.153-.18-.147-.256-.212-.344-.57 0-.184.185-.265.288-.09.11.358.122.512.32.743.152.175.35.292.447.29.176-.004.354-.194.118-.333-.346-.139-.472-.33-.523-.51-.055-.317.005-.47.195-.314.269.307.782.88 1.05 1.146.302.232.647.24.923.004.157-.182.101-.38-.146-.336-.556.047-.978-.231-1.44-.982-.09-.17-.116-.414.085-.233.23.314.566.581.879.695.313.114.602.075.672-.048.116-.204.09-.429-.12-.354a.969.969 0 01-.668-.023c-.253-.099-.515-.313-.795-.676-.095-.206-.063-.38.13-.273.457.39 1.046.707 1.348.516.221-.14.225-.496-.056-.474-.566.08-.78-.048-1.324-.532-.125-.093-.116-.328.08-.177.459.296 1.083.412 1.329.257.22-.14.188-.563-.184-.413-.297.182-.626.177-1.284-.296-.166-.139-.043-.32.094-.242.529.303 1.3.433 1.502-.184.077-.236-.064-.374-.272-.21-.454.423-.97.215-1.258.002-.075-.003-.235-.297.032-.252.69.16 1.371.022 1.494-.47.073-.16-.069-.44-.32-.205-.332.33-.683.34-1.123.338-.225-.047-.227-.297-.039-.333.348.008.692-.146.967-.302.269-.154.492-.373.562-.675.044-.27-.215-.557-.371-.27-.23.42-.742.815-1.309.886-.03-.05-.104-.178-.196-.142a9.84 9.84 0 00-1.175.565c-.082.047.015.274.033.36.019.223-.047.365-.116.447-.068.083-.254.137-.36.108-.21-.057-.322-.245-.287-.578.011-.035.02-.195.191-.404.086-.104.207-.238.398-.345.191-.107.48-.166.829-.244.212-.043.32-.125.332-.213-.101.025-.268.113-.377.091-.108-.02-.162-.074-.21-.105.08-.017.227.002.358.002.13 0 .246-.029.323-.042.161-.027.289-.094.365-.246.033-.163-.073-.193-.172-.088-.085.09-.102.126-.156.164a.59.59 0 01-.208.088c-.132.024-.26.05-.428.01a.796.796 0 01.175-.155c.068-.043.134-.063.197-.053.042.008.097.046.142.117.028-.179-.022-.38-.495-.297.006-.134-.276-.193-.446-.19-.097.002-.294.06-.436.128-.225.07-.45.122-.711.141.151.13.181.138.333.25-.23.086-.41.265-.49.382.202.01.269-.007.337.023-.28.083-.408.132-.556.285.053.01.13.025.164.037.034.014.02.032-.003.058-.065.041-.311.34-.384.41-.073-.07-.32-.369-.384-.41-.023-.026-.037-.044-.003-.058.033-.012.111-.027.164-.037-.148-.153-.276-.202-.556-.285.068-.03.135-.013.336-.023a1.107 1.107 0 00-.49-.382c.153-.112.183-.12.334-.25a3.066 3.066 0 01-.71-.14A1.345 1.345 0 008.253 5"/></g></svg>