<svg id="flag--eu" xmlns="http://www.w3.org/2000/svg" viewBox="0 0 20 20"><g fill="none" fill-rule="evenodd"><rect width="18" height="18" fill="#250986" rx="3" transform="translate(1 1)"/><path fill="#FFE012" fill-rule="nonzero" d="M10.076 15.25l.188.568.596.005c.077 0 .109.099.047.145l-.48.356.18.57c.024.074-.06.136-.123.09L10 16.637l-.484.349c-.063.045-.146-.016-.123-.09l.18-.571-.48-.356c-.061-.046-.03-.145.048-.145l.595-.005.188-.568a.08.08 0 01.152 0zm-2.932-.952l.188.568.595.004c.077 0 .109.1.047.146l-.479.356.18.57c.023.074-.06.135-.123.09l-.485-.348-.484.348c-.062.045-.146-.016-.123-.09l.18-.57-.48-.356c-.061-.046-.03-.145.048-.146l.595-.004.188-.568a.08.08 0 01.153 0zm5.908 0a.08.08 0 01.152 0l.189.568.595.004c.077 0 .109.1.047.146l-.479.356.18.57c.023.074-.061.135-.124.09l-.484-.348-.484.348c-.063.045-.146-.016-.123-.09l.18-.57-.48-.356c-.061-.046-.03-.145.048-.146l.595-.004zm2.37-2.232l.189.568.595.004c.077.001.11.1.047.146l-.479.356.18.57c.023.074-.06.136-.123.09l-.484-.348-.485.348c-.062.045-.146-.016-.123-.09l.18-.57-.479-.356c-.062-.046-.03-.145.047-.146l.595-.004.189-.568a.08.08 0 01.152 0zm-10.649 0a.08.08 0 01.152 0l.188.568.596.004c.077.001.109.1.047.146l-.48.356.18.57c.024.074-.06.135-.123.09l-.484-.348-.484.348c-.063.046-.146-.016-.123-.09l.18-.57-.48-.356c-.061-.046-.03-.145.048-.146l.595-.004zm11.364-2.913l.188.567.595.005c.077 0 .11.1.047.146l-.478.355.179.571c.023.074-.06.135-.123.09l-.484-.348-.484.348c-.063.045-.147-.016-.123-.09l.179-.57-.479-.356c-.062-.046-.03-.145.047-.146l.595-.005.189-.567a.08.08 0 01.152 0zm-12.122 0l.189.567.595.005c.077 0 .109.1.047.146l-.479.355.18.571c.023.074-.06.135-.124.09l-.484-.348-.484.348c-.063.045-.146-.016-.123-.09l.18-.57-.48-.356c-.061-.046-.03-.145.048-.146l.595-.005.188-.567a.08.08 0 01.152 0zm.91-3.185l.188.568.596.005c.077 0 .109.1.047.146l-.48.355.18.571c.024.074-.06.135-.123.09l-.484-.348-.484.348c-.063.045-.146-.016-.123-.09l.18-.57-.48-.356c-.061-.046-.03-.145.048-.146l.595-.005.188-.568a.08.08 0 01.152 0zm10.346 0a.08.08 0 01.152 0l.188.568.595.005c.077 0 .11.1.047.146l-.479.355.18.571c.023.074-.06.135-.123.09l-.484-.348-.485.348c-.062.045-.146-.016-.123-.09l.18-.57-.479-.356c-.062-.046-.03-.145.047-.146l.595-.005zm-2.067-2.231l.189.568.595.004c.077 0 .109.1.047.146l-.479.355.18.571c.023.074-.06.135-.124.09l-.484-.348-.484.348c-.063.045-.146-.016-.123-.09l.18-.57-.48-.356c-.061-.046-.03-.145.048-.146l.595-.004.188-.568a.08.08 0 01.152 0zm-6.213 0a.08.08 0 01.153 0l.188.568.595.004c.077 0 .109.1.047.146l-.479.355.18.571c.023.074-.06.135-.123.09l-.485-.348-.484.348c-.062.045-.146-.016-.123-.09l.18-.57-.48-.356c-.061-.046-.03-.145.048-.146l.595-.004zm3.085-.682l.188.568.596.005c.077 0 .109.1.047.145l-.48.356.18.57c.024.075-.06.136-.123.09L10 4.443l-.484.348c-.063.045-.146-.016-.123-.09l.18-.571-.48-.356c-.061-.046-.03-.145.048-.145l.595-.005.188-.568a.08.08 0 01.152 0z"/></g></svg>