<svg id="flag--north--macedonia" xmlns="http://www.w3.org/2000/svg" viewBox="0 0 20 20"><g fill="none" fill-rule="evenodd"><path fill="#D12C29" d="M1.968 19.025c-.512 0-.927-.596-.927-1.332V2.357c0-.736.415-1.332.927-1.332h16.145c.513 0 .928.596.928 1.332v15.336c0 .736-.415 1.332-.928 1.332H1.968z"/><path fill="#FFE012" d="M10.593 14.498l.845 4.526h-2.57l.84-4.493.145.01.146.005c.202 0 .399-.02.594-.048zM6.399 13c.129.191.276.37.436.535l.165.161-5.704 4.914a1.676 1.676 0 01-.255-.917v-1.344L6.398 13zm7.174 0l5.467 3.189v1.504c0 .268-.055.518-.15.727L13 13.687c.218-.208.408-.439.573-.687zM9.999 7.153a3.29 3.29 0 013.288 3.286 3.29 3.29 0 01-3.288 3.285 3.29 3.29 0 01-3.288-3.285A3.29 3.29 0 0110 7.153zM1.04 9.243l4.942.681a4.435 4.435 0 00-.006.938l.024.211-4.96.682V9.244zm18 .017v2.48L14 11.032c.016-.131.028-.263.035-.397l.005-.202-.006-.235-.016-.232 5.022-.706zM1.05 2.157L7 7.275c-.168.163-.32.34-.458.53L6.41 8 1.04 4.646v-2.29c0-.067.004-.134.01-.2zm17.99.283v2.368L13.566 8a4.029 4.029 0 00-.41-.543L13 7.29l6.04-4.851zm-7.425-1.416l-1 5.359a4.067 4.067 0 00-.616-.051l-.158.005-.157.01-.993-5.323h2.924z"/></g></svg>