<svg id="flag--canada" xmlns="http://www.w3.org/2000/svg" viewBox="0 0 20 20"><defs><filter id="a" color-interpolation-filters="auto"><feColorMatrix in="SourceGraphic" values="0 0 0 0 0.823529 0 0 0 0 0.172549 0 0 0 0 0.160784 0 0 0 1.000000 0"/></filter></defs><g fill="none" fill-rule="evenodd"><path fill="#D22C29" d="M19 4v12a3 3 0 01-3 3h-1V1h1a3 3 0 013 3z"/><path fill="#FFF" d="M15 1v18H5V1z"/><path fill="#D22C29" d="M5 1v18H4a3 3 0 01-3-3V4a3 3 0 013-3h1z"/><rect width="19" height="19" x=".5" y=".5" stroke="#F3F3F3" rx="3"/><g ><path fill="red" d="M10 6L9.3 7.357c-.079.148-.221.134-.363.052l-.506-.273.377 2.085c.08.38-.175.38-.3.216l-.883-1.03-.143.524a.172.172 0 01-.199.123l-1.116-.245.293 1.11c.063.248.112.35-.063.415L6 10.53l1.921 1.626a.268.268 0 01.088.272l-.168.575c.661-.08 1.254-.199 1.916-.273.059-.006.156.094.156.165L9.825 15h.322l-.05-2.102c-.001-.07.087-.175.146-.169.662.074 1.255.194 1.916.273l-.168-.575a.268.268 0 01.088-.272L14 10.529l-.398-.195c-.175-.065-.126-.167-.063-.414l.293-1.11-1.116.244a.171.171 0 01-.199-.123l-.143-.523-.882 1.029c-.126.165-.38.165-.301-.216l.377-2.085-.506.273c-.142.082-.284.096-.363-.052"/></g></g></svg>