<svg id="flag--bosnia--herzegovina" xmlns="http://www.w3.org/2000/svg" viewBox="0 0 20 20"><g fill="none" fill-rule="evenodd"><path fill="#250986" d="M1 4a3 3 0 013-3h12a3 3 0 013 3v12a3 3 0 01-3 3H4a3 3 0 01-3-3V4z"/><path fill="#FFE012" d="M15 1v18L1 5V4a3 3 0 013-3h11z"/><rect width="19" height="19" x=".5" y=".5" stroke="#F3F3F3" rx="3"/><path fill="#FFF" d="M1 7.263h.794L1 7.875v-.611zM2.36 10.558l.912.701-.348-1.134.912-.701H2.708L2.36 8.289l-.348 1.135H.885l.912.7-.349 1.135zM4.401 12.718l.912.701-.348-1.134.912-.701H4.75L4.4 10.449l-.348 1.135H2.926l.912.7-.348 1.135zM6.442 14.878l.912.7-.348-1.134.912-.7H6.79l-.349-1.135-.348 1.134H4.967l.912.701-.348 1.135zM8.484 17.038l.911.7-.348-1.134.912-.7H8.832l-.348-1.135-.349 1.134H7.008l.912.701-.348 1.135zM10.525 16.929l.348 1.134H12l-.912.701.071.234H9.89l.072-.234-.912-.7h1.127l.349-1.135z"/></g></svg>