<svg id="logo--large" xmlns="http://www.w3.org/2000/svg" xlink="http://www.w3.org/1999/xlink" viewBox="0 0 242 82"><defs><path id="a" d="M0 0h43.943v67.556H0z"/></defs><g fill="none" fill-rule="evenodd"><path fill="#008BC5" d="M84.55 61.128c0 6.444 4.857 10.727 10.468 10.727 5.742 0 10.335-4.724 10.335-10.77 0-5.828-4.372-10.904-10.425-10.904-5.695 0-10.379 4.416-10.379 10.947m26.9 0c0 9.315-7.288 16.511-16.387 16.511-9.408 0-16.61-7.417-16.61-16.642 0-9.401 7.51-16.598 16.522-16.598 8.745 0 16.475 7.063 16.475 16.73M117.101 45.192h5.785l13.606 20.837V45.192h6.053v31.695h-5.832l-13.562-20.79v20.79h-6.053V45.192zM149.83 45.192h17.315v5.916h-11.262v5.65h11.262v5.916h-11.262v8.298h11.262v5.915H149.83z"/><path fill="#777776" d="M101.147 12.558c-2.256-2.972-5.48-4.438-9.168-4.438-6.088 0-11.208 4.509-11.208 11.059 0 6.37 4.872 11.024 11.353 11.024 3.581 0 6.625-1.467 9.026-4.261l2.04 1.54c-2.649 3.328-6.555 5.081-11.243 5.081-8.595 0-13.86-6.049-13.86-13.6 0-7.586 5.873-13.348 13.86-13.348 4.727 0 8.7 1.862 11.243 5.403l-2.043 1.54zM109.922 19.214c0 6.335 5.013 10.88 10.815 10.88 6.017 0 10.921-4.58 10.921-11.024 0-6.512-5.228-10.95-10.921-10.95-5.657 0-10.815 4.511-10.815 11.094m24.423-.106c0 7.55-5.908 13.493-13.537 13.493-7.916 0-13.573-6.19-13.573-13.384 0-7.657 5.944-13.6 13.357-13.6 7.807-.002 13.753 5.831 13.753 13.491M138.32 31.955l3.652-25.694h.43l10.459 21.08 10.348-21.08h.431l3.653 25.694h-2.507l-2.507-18.394-9.097 18.394h-.643L143.3 13.416l-2.471 18.54zM185.808 12.953h2.578v9.84c0 6.406-2.9 9.629-8.344 9.629-5.445 0-8.38-3.223-8.38-9.628v-9.841h2.578v9.268c0 2.004 0 3.65.537 4.795.895 1.933 2.864 3.042 5.265 3.042 1.754 0 3.295-.643 4.296-1.682 1.503-1.61 1.467-3.434 1.467-6.155v-9.268h.003zM196.192 16.352c1.97-2.576 4.334-3.9 7.127-3.9 4.155 0 7.054 2.862 7.054 8.84v10.663h-2.436V21.613c0-4.473-1.396-6.943-5.084-6.943-2.04 0-3.723.894-5.013 2.576-1.432 1.862-1.648 3.724-1.648 6.728v7.981h-2.436V12.953h2.436v3.4zM215.28 31.955h2.436V12.953h-2.436v19.002zm3.222-24.836c0 1.11-.93 2.04-2.04 2.04-1.11 0-2.006-.93-2.006-2.04a2 2 0 012.005-2.003c1.11-.003 2.04.894 2.04 2.003zM224.412 22.472c0 4.116 3.224 7.73 7.485 7.73 3.903 0 7.556-2.935 7.556-7.66 0-4.402-3.26-7.73-7.52-7.73-4.37 0-7.52 3.58-7.52 7.66zm14.896-9.52h2.436v25.946h-2.436v-10.2c-2.076 2.505-4.691 3.724-7.665 3.724-5.55 0-9.74-4.618-9.74-10.021 0-5.403 4.296-9.95 9.811-9.95 3.08 0 5.693 1.325 7.591 3.972v-3.47h.003z"/><g transform="translate(12.971 .111)"><mask id="b" fill="#fff"><use href="#a"/></mask><path fill="#0D3447" d="M36.742 0H7.2C3.223 0 0 3.304 0 7.38v52.796c0 4.076 3.223 7.38 7.2 7.38h29.542c3.977 0 7.2-3.304 7.2-7.38V7.38c0-4.076-3.223-7.38-7.2-7.38" /></g><path fill="#D9EFFD" fill-opacity=".25" d="M12.517 8.115v7.017h16.636L35.094.112H20.305c-4.302 0-7.788 3.582-7.788 8.003"/><path fill="#B7E2FA" d="M36.742 14.333H7.2c-3.977 0-7.2 3.304-7.2 7.38v52.796c0 4.076 3.223 7.38 7.2 7.38h29.542c3.977 0 7.2-3.304 7.2-7.38V21.713c0-4.076-3.223-7.38-7.2-7.38"/><path fill="#008BC5" d="M41.712 14.333H13.039V65.44c0 1.23.988 2.228 2.206 2.228h28.673V16.56c-.002-1.23-.988-2.228-2.206-2.228"/></g></svg>