<svg id="logo--small--inversed" xmlns="http://www.w3.org/2000/svg" viewBox="0 0 61 87"><g fill="#FFF" fill-rule="evenodd"><path d="M14.102 8.56c0-4.338 3.35-7.869 7.53-8l.242-.004h14.759l-5.93 15.02H14.102V8.56zm-.026 7.016V69.55c0 1.3 1.04 2.352 2.325 2.352h30.22V22.728c.01.13.017.262.022.394l.003.248v55.759c0 4.222-3.268 7.66-7.348 7.79l-.24.004H7.921c-4.11 0-7.458-3.356-7.585-7.547l-.004-.247v-55.76c0-4.221 3.268-7.659 7.348-7.79l.241-.003h6.154z"/><path fill-opacity=".25" d="M52.8.556c4.192 0 7.589 3.489 7.589 7.793v55.76c0 4.304-3.397 7.793-7.589 7.793h-6.18V17.928c-.002-1.299-1.04-2.352-2.325-2.352H14.076V8.349c0-4.304 3.397-7.793 7.589-7.793z"/><path fill-opacity=".5" d="M44.295 15.576H14.076V69.55c0 1.3 1.04 2.352 2.325 2.352h30.22V17.928c-.003-1.299-1.042-2.352-2.326-2.352"/></g></svg>