<svg id="logo--small" xmlns="http://www.w3.org/2000/svg" xlink="http://www.w3.org/1999/xlink" viewBox="0 0 61 87"><defs><path id="a" d="M0 0h46.313v71.347H0z"/></defs><g fill="none" fill-rule="evenodd"><g transform="translate(14.076 .556)"><mask id="b" fill="#fff"><use href="#a"/></mask><path fill="#0D3447" d="M38.724 0H7.59C3.397 0 0 3.489 0 7.794v55.76c0 4.304 3.397 7.793 7.589 7.793h31.135c4.192 0 7.589-3.49 7.589-7.794V7.793C46.313 3.49 42.916 0 38.724 0" /></g><path fill="#B7E2FA" d="M39.057 15.576H7.922c-4.191 0-7.589 3.489-7.589 7.794v55.759c0 4.305 3.398 7.794 7.59 7.794h31.134c4.192 0 7.59-3.49 7.59-7.794v-55.76c0-4.304-3.398-7.793-7.59-7.793"/><path fill="#008BC5" d="M44.295 15.576H14.076V69.55c0 1.3 1.04 2.352 2.325 2.352h30.22V17.928c-.003-1.299-1.042-2.352-2.326-2.352"/><path fill="#D9EFFD" fill-opacity=".25" d="M12.824 8.56v7.016h16.602L35.355.556H20.597c-4.293 0-7.773 3.583-7.773 8.004"/></g></svg>